<?xml version="1.0" standalone="no"?>
<!DOCTYPE svg PUBLIC "-//W3C//DTD SVG 1.1//EN" "http://www.w3.org/Graphics/SVG/1.1/DTD/svg11.dtd" >
<svg xmlns="http://www.w3.org/2000/svg">
<metadata>
This is a custom SVG webfont generated by Font Squirrel.
Copyright   : Copyright c 2011 Juan Pablo del Peral juanhuertatipograficacomar with Reserved Font Names Alegreya Alegreya SC
Designer    : Juan Pablo del Peral
Foundry     : Juan Pablo del Peral
Foundry URL : wwwhuertatipograficacomar
</metadata>
<defs>
<font id="AlegreyaRegular" horiz-adv-x="815" >
<font-face units-per-em="2048" ascent="1638" descent="-410" />
<missing-glyph horiz-adv-x="413" />
<glyph unicode=" "  horiz-adv-x="413" />
<glyph unicode="&#x09;" horiz-adv-x="413" />
<glyph unicode="&#xa0;" horiz-adv-x="413" />
<glyph unicode="!" horiz-adv-x="583" d="M125 92q0 53 35 90t92 37q55 0 86 -33.5t31 -83.5q0 -53 -36 -90t-93 -37q-55 0 -85 34t-30 83zM201 1364l14 20l170 37l18 -22l-106 -971l-57 -14l-23 16z" />
<glyph unicode="&#x22;" horiz-adv-x="610" d="M121 1300l143 29l15 -16q-29 -225 -72 -434l-51 -29l-23 4q4 117 1 216t-8 165zM371 1300l143 29l14 -16q-29 -225 -71 -434l-51 -29l-23 4q4 117 1 216t-8 165z" />
<glyph unicode="#" horiz-adv-x="1019" d="M23 446l30 76l223 -2l27 117l25 106l-224 -2l-6 21l31 76l219 -2l76 327l82 11l16 -13l-80 -327h109l108 -3l76 332l82 11l17 -13l-80 -330h221l8 -18l-39 -74l-213 2l-18 -79l-33 -146h219l8 -18l-39 -74l-209 2l-73 -338l-80 -16l-14 12l75 344l-143 2l-74 -2l-76 -340 l-79 -16l-15 12l76 344l-227 -2zM369 518h106l113 -2l26 121l25 106l-139 2l-78 -2l-21 -81z" />
<glyph unicode="$" horiz-adv-x="940" d="M109 55q23 129 22 277l92 8q0 -150 34 -202t136 -58l35 358q-20 8 -29 15q-63 31 -102 53t-83 57t-65.5 78t-21.5 94q0 121 100.5 205t255.5 96l29 303l53 9l13 -19l-29 -291q143 -4 244 -39l8 -14q-29 -125 -39 -270l-80 -8l-12 8q4 31 4 73q0 68 -31 101t-104 41 l-33 -340q2 -2 6 -2q61 -29 89 -42.5t79 -45t74.5 -57t44 -65.5t20.5 -83q0 -127 -102.5 -212t-267.5 -99l-27 -293l-53 -6l-11 14l27 283q-72 0 -138.5 14t-96.5 28l-31 13zM285 791q0 -51 41 -90t118 -80l29 311q-82 -4 -135 -43t-53 -98zM459 80q88 6 140 48t52 110 q0 90 -162 170z" />
<glyph unicode="%" horiz-adv-x="1374" d="M72 987q0 147 87 244.5t222 97.5q133 0 203.5 -90t70.5 -215q0 -147 -83 -251.5t-224 -104.5q-127 0 -201.5 89t-74.5 230zM147 -131q268 408 451 694l524 826l80 -39l10 -29q-356 -530 -536 -819q-440 -696 -440 -697l-78 39zM168 1016q0 -109 62.5 -163t146.5 -54 q72 0 127 40t55 138q0 94 -57.5 155.5t-155.5 61.5q-82 0 -130 -49t-48 -129zM766 295q0 147 87 244.5t222 97.5q133 0 204 -90t71 -215q0 -147 -83.5 -252t-224.5 -105q-129 0 -202.5 89.5t-73.5 230.5zM862 324q0 -109 62.5 -163.5t146.5 -54.5q72 0 127 40t55 139 q0 94 -57 155.5t-156 61.5q-82 0 -130 -49.5t-48 -128.5z" />
<glyph unicode="&#x26;" horiz-adv-x="1433" d="M113 328q0 66 27.5 125t67.5 97t80 65.5t67 39.5l28 13v14q-168 176 -168 322q0 139 117 232t291 93q66 0 128 -11t91 -24l28 -12l4 -31l-98 -151l-20 -2q-72 66 -116 88t-101 22q-82 0 -131.5 -42t-49.5 -113q0 -100 64 -190.5t246 -246.5l327 -282q37 74 37 176 q0 242 -160 242q-25 0 -53 -5.5t-46 -9.5l-17 -4l-29 88q43 33 109 37l421 25q154 14 158 22l21 -49l-27 -63q-14 -27 -38.5 -34t-104.5 -7h-205l-6 -13q86 -76 86 -200q0 -131 -82 -258l287 -242v-33q-96 -63 -127 -63q-18 0 -261 217q-86 -86 -194.5 -135.5t-212.5 -49.5 q-201 0 -319.5 95.5t-118.5 257.5zM266 369q0 -121 93.5 -193t248.5 -72q174 1 295 105l-461 412q-80 -37 -128 -106t-48 -146z" />
<glyph unicode="'" horiz-adv-x="360" d="M121 1300l143 29l15 -16q-29 -225 -72 -434l-51 -29l-23 4q4 117 1 216t-8 165z" />
<glyph unicode="(" horiz-adv-x="632" d="M172 334v354q0 141 40 259t96.5 185.5t112.5 114.5t96 65l40 17h8l27 -59l-2 -8q-12 -4 -30.5 -15.5t-67 -54.5t-85 -98.5t-67.5 -155.5t-31 -219v-354q0 -355 217 -546q43 -38 76 -55v-10l-43 -53h-8q-8 2 -21.5 8t-53.5 30.5t-75.5 54.5t-78.5 83t-75 114.5t-53.5 152 t-21.5 190.5z" />
<glyph unicode=")" horiz-adv-x="632" d="M31 1266v10l43 53h8q8 -2 21.5 -8t53.5 -30.5t75.5 -54.5t78.5 -83t75 -114.5t53.5 -152t21.5 -190.5v-354q0 -141 -40 -259t-96.5 -185.5t-112.5 -114.5t-96 -65l-40 -17h-8l-27 59l2 9q12 4 30.5 15t66.5 54t85 98.5t68 156t31 218.5v355q0 355 -217 545q-43 38 -76 55 z" />
<glyph unicode="*" horiz-adv-x="933" d="M139 1217q0 78 19 139l18 8q113 -59 205 -129l-12 -68l-13 -10q-104 35 -217 60zM186 969q90 90 187 155l59 -32l6 -15q-29 -39 -59.5 -86t-46.5 -75l-17 -27q-74 25 -127 61zM397 1485q74 25 138 24l14 -14q-23 -125 -60 -233l-69 -11l-12 9zM475 1081l49 47l17 2 q29 -41 63.5 -85t54.5 -67l21 -24q-45 -61 -96 -100l-19 2q-57 115 -90 225zM518 1227l2 16q106 33 211 80q45 -63 66 -123l-9 -18q-14 -2 -38.5 -5t-88 -7.5t-114.5 -2.5z" />
<glyph unicode="+" horiz-adv-x="1036" d="M37 498l22 100q217 -2 396 -2l2 412l104 16l21 -12q-12 -252 -13 -416l418 12l12 -20l-16 -105l-414 -2l2 -397l-100 -23l-18 13q2 227 2 407l-406 -2z" />
<glyph unicode="," horiz-adv-x="487" d="M31 -270q72 49 117 116.5t45 130.5q0 83 -66 144l4 29q70 53 119 53q45 0 74.5 -42t29.5 -118q0 -106 -86 -201.5t-200 -163.5l-37 31v21z" />
<glyph unicode="-" horiz-adv-x="663" d="M74 446l12 107l356 41l133 18l15 -18l-10 -111l-492 -53z" />
<glyph unicode="." horiz-adv-x="487" d="M123 92q0 53 35 90t92 37q55 0 86 -33.5t31 -83.5q0 -53 -36 -90t-93 -37q-55 0 -85 34t-30 83z" />
<glyph unicode="/" horiz-adv-x="673" d="M70 -209q109 360 188 672l236 919h94l16 -20q-162 -590 -250 -922l-172 -665h-98z" />
<glyph unicode="0" horiz-adv-x="1091" d="M78 481q0 240 141 396.5t356 156.5q195 0 317 -138t122 -357q0 -244 -140.5 -404t-355.5 -160q-199 0 -319.5 139.5t-120.5 366.5zM193 512q0 -170 100 -275.5t262 -105.5q154 0 249 97.5t95 252.5q0 170 -102.5 278.5t-264.5 108.5q-154 0 -246.5 -97t-92.5 -259z" />
<glyph unicode="1" horiz-adv-x="724" d="M72 881l8 86q121 14 225 30q164 27 203 37h4l12 -35q-41 -35 -56 -68.5t-19 -103.5q-12 -326 -13 -598q0 -82 20.5 -110.5t80.5 -28.5l108 6l4 -8l-18 -94q-172 6 -273 6l-258 -25l13 95q115 10 149.5 54t34.5 179v467q0 72 -25.5 94.5t-85.5 22.5l-108 -13z" />
<glyph unicode="2" horiz-adv-x="972" d="M55 12l162 181q334 379 334 548q0 74 -41 115t-113 41q-70 0 -137 -49t-115 -133h-18l-23 92q51 98 149.5 162.5t197.5 64.5q127 0 203.5 -67.5t76.5 -178.5q0 -92 -92 -228t-344 -421l8 -14h313q113 0 156 35t74 151l82 11q-43 -172 -60 -322l-24 -14q-481 14 -658 14 l-110 -25z" />
<glyph unicode="3" horiz-adv-x="849" d="M41 -66l10 13q86 -18 164 -19q154 0 258.5 78t104.5 195q0 205 -367 207l-10 10l-11 71l134 33q82 39 134 105.5t52 134.5q0 63 -46 103t-114 40q-57 0 -121.5 -28.5t-111.5 -75.5h-21l-20 86q20 16 56 40.5t125 65.5t157 41q121 0 193.5 -62.5t72.5 -166.5 q0 -82 -61.5 -160t-163.5 -131v-10q276 -66 276 -254q0 -164 -181 -314.5t-378 -150.5q-70 0 -99.5 34.5t-31.5 114.5z" />
<glyph unicode="4" horiz-adv-x="915" d="M8 182l8 76l566 774l4 1l4 1l65 -20v-721h191l12 -17l-16 -112q-76 2 -187 6q2 -165 15 -346l-11 -14l-145 -25l-12 18q10 211 12 371q-316 8 -506 8zM166 293h348v459h-18z" />
<glyph unicode="5" horiz-adv-x="880" d="M33 -66l10 13q86 -18 166 -19q164 0 272.5 76t108.5 197q0 100 -94.5 158.5t-333.5 99.5l-19 22l35 500l17 16l387 17q61 4 86.5 19.5t42.5 60.5l67 8l-49 -242l-12 -12q-211 16 -449 16l-14 -258q236 -55 363.5 -132t127.5 -212q0 -119 -95 -232.5t-230 -179t-258 -65.5 q-63 0 -94 31.5t-35 117.5z" />
<glyph unicode="6" horiz-adv-x="931" d="M82 403q0 125 38 239t97 195t132 148.5t145.5 110.5t132 73.5t97.5 42.5l38 13l14 -11l23 -61q-16 -6 -46 -18.5t-109 -60.5t-144.5 -105.5t-133 -155.5t-98.5 -211l8 -4q166 106 228 107q166 0 260 -103.5t94 -232.5q0 -164 -114.5 -279t-292.5 -115q-168 0 -268.5 122 t-100.5 306zM246 416q0 -156 65.5 -249t180.5 -93q98 0 156.5 65.5t58.5 179.5q0 106 -71 185.5t-177 79.5q-104 0 -207 -76q-6 -46 -6 -92z" />
<glyph unicode="7" horiz-adv-x="860" d="M78 653q29 199 39 355l12 10q123 -8 250 -8h432l45 -58q-211 -424 -459 -991l-51 -176h-14l-123 37l-21 45l512 1003l-354 -14q-100 -4 -134 -41t-54 -149z" />
<glyph unicode="8" horiz-adv-x="993" d="M115 254q0 215 264 338q-106 57 -166.5 125.5t-60.5 173.5q0 133 105 233.5t263 100.5q129 0 224.5 -72t95.5 -203q0 -188 -203 -297q117 -61 181.5 -132.5t64.5 -180.5q0 -152 -121 -258.5t-297 -106.5q-145 0 -247.5 75t-102.5 204zM264 303q0 -96 72 -168t178 -72 q92 0 159.5 62.5t67.5 155.5q0 61 -46 115.5t-84 76t-137 71.5q-15 7 -23 11q-186 -80 -187 -252zM295 952q0 -37 17.5 -70.5t35 -55t64.5 -51.5t68.5 -41t82.5 -44q123 74 123 217q0 106 -56.5 164.5t-144.5 58.5q-84 0 -137 -53t-53 -125z" />
<glyph unicode="9" horiz-adv-x="931" d="M74 641q0 164 114.5 278.5t292.5 114.5q168 0 268.5 -121.5t100.5 -306.5q0 -125 -38 -238.5t-97.5 -194.5t-132 -148.5t-145 -110.5t-132 -73.5t-97.5 -43.5l-38 -12l-14 10l-23 62q16 6 46 18t109 59.5t144.5 104.5t133 155.5t96.5 211.5l-7 6q-166 -106 -227 -107 q-166 0 -260 103.5t-94 232.5zM225 690q0 -109 69.5 -186.5t178.5 -77.5q96 0 207 76q6 43 6 92q0 156 -66.5 249t-179.5 93q-98 0 -156.5 -65.5t-58.5 -180.5z" />
<glyph unicode=":" horiz-adv-x="487" d="M115 92q0 53 34.5 90t92.5 37q55 0 85.5 -33.5t30.5 -83.5q0 -53 -36 -90t-93 -37q-55 0 -84.5 34t-29.5 83zM115 666q0 53 34.5 90t92.5 37q55 0 85.5 -34t30.5 -83q0 -53 -36 -90t-93 -37q-55 0 -84.5 33.5t-29.5 83.5z" />
<glyph unicode=";" horiz-adv-x="487" d="M31 -270q72 49 117 116.5t45 130.5q0 83 -66 144l4 29q70 53 119 53q45 0 74.5 -42t29.5 -118q0 -106 -86 -201.5t-200 -163.5l-37 31v21zM115 666q0 53 34.5 90t92.5 37q55 0 85.5 -34t30.5 -83q0 -53 -36 -90t-93 -37q-55 0 -84.5 33.5t-29.5 83.5z" />
<glyph unicode="&#x3c;" horiz-adv-x="1036" d="M63 512l5 96l415 176q186 80 412 166l18 -10l15 -102q-229 -80 -398 -150l-315 -123v-12l344 -143l371 -162l2 -23l-62 -82q-217 102 -385 174l-405 172z" />
<glyph unicode="=" horiz-adv-x="1036" d="M37 340l22 100q307 -2 490 -2l438 13l12 -21l-16 -104l-465 -2l-469 -2zM37 662l22 100q307 -2 490 -2l438 12l12 -20l-16 -105l-465 -2l-469 -2z" />
<glyph unicode="&#x3e;" horiz-adv-x="1036" d="M104 868l62 82q217 -102 385 -174l405 -172l17 -22l-4 -97l-416 -176q-186 -80 -412 -166l-18 11l-14 102q229 80 397 150l315 122v13l-344 143l-371 162z" />
<glyph unicode="?" horiz-adv-x="737" d="M119 1305l67 108l29 8q190 -6 324.5 -103t134.5 -235q0 -66 -18.5 -118t-60.5 -96t-72.5 -68.5t-96.5 -67.5t-92 -61l-6 -19l43 -194l-6 -17l-125 -34l-19 8l-49 246l6 28l244 156q117 80 117 176q0 236 -416 260zM178 92q0 53 35 90t92 37q55 0 86 -33.5t31 -83.5 q0 -53 -36 -90t-93 -37q-55 0 -85 34t-30 83z" />
<glyph unicode="@" horiz-adv-x="1703" d="M68 385q0 168 62.5 324.5t173 278.5t277.5 194.5t361 72.5q305 0 499.5 -181t194.5 -451q0 -266 -175 -457t-484 -191q-74 0 -74 60l88 426l-12 4q-184 -350 -383 -490q-80 0 -122 76t-42 203q0 168 71.5 329.5t180.5 260t217 98.5l205 -33l18 52l11 2l63 -31l16 -25 q-119 -408 -172 -788l9 -8q217 0 330.5 124.5t113.5 337.5q0 266 -164 417t-440 151q-303 0 -490.5 -210t-187.5 -509q0 -317 181 -529t542 -233v-14l-53 -74q-385 18 -600 247.5t-215 565.5zM575 354q0 -86 17.5 -149.5t42.5 -63.5q55 0 175 178.5t234 444.5 q-111 68 -206 67q-98 0 -180.5 -145t-82.5 -332z" />
<glyph unicode="A" horiz-adv-x="1183" d="M-37 -6l17 96q57 6 91.5 40t67.5 118l400 1046l129 35h16q172 -637 326 -1098q25 -76 65.5 -106.5t130.5 -38.5l4 -8l-14 -84q-147 6 -217 6t-146.5 -5t-117.5 -10l-41 -5l-6 14l8 80q104 8 143 24.5t39 53.5q0 40 -18 98l-68 223q-49 2 -213 2q-98 0 -223 -16l-76 -213 q-18 -55 -18 -80q0 -84 123 -84h116l4 -8l-12 -88q-150 14 -285 14zM373 559h180q74 0 190 10l-161 537h-15z" />
<glyph unicode="B" horiz-adv-x="1222" d="M119 -25l12 95q94 18 127 54t33 122l2 860q0 66 -15.5 88.5t-60.5 22.5l-70 -5l-4 9l15 90q150 -6 227 -6l242 8q195 0 299 -81t104 -231q0 -102 -62.5 -184t-174.5 -131q150 -33 233.5 -115t83.5 -196q0 -160 -143.5 -277.5t-337.5 -117.5q-43 0 -133.5 10t-143.5 10z M436 227q0 -78 53.5 -110.5t180.5 -32.5q123 0 193.5 68.5t70.5 185.5q-1 227 -277 276l-213 -4zM449 719q193 -16 223 -17q8 2 20.5 6.5t46 24t59 46t46 76.5t20.5 112q0 131 -88 194.5t-272 63.5q-20 0 -27.5 -9.5t-9.5 -37.5q-12 -197 -18 -459z" />
<glyph unicode="C" horiz-adv-x="1288" d="M82 608q0 311 202.5 516t512.5 205q76 0 165 -12t140 -25l51 -12l8 -12q-39 -154 -51 -342l-98 -8q6 55 6 100q0 190 -301 190q-207 0 -329 -144t-122 -388q0 -270 128 -434t341 -164q139 0 224 79t124 244l99 9q-41 -186 -56 -334l-12 -19q-176 -82 -420 -82 q-281 0 -446.5 171t-165.5 462z" />
<glyph unicode="D" horiz-adv-x="1439" d="M119 -25l12 95q94 18 127 54t33 122l2 860q0 66 -15.5 88.5t-60.5 22.5l-70 -5l-4 9l15 90q137 -6 215 -6l311 8q299 0 486.5 -170t187.5 -443q0 -305 -205 -515t-504 -210q-190 25 -295 25q-45 0 -104.5 -6t-94.5 -12zM438 268q0 -113 51.5 -150.5t206.5 -37.5 q221 0 348 152.5t127 418.5q0 270 -162.5 415.5t-465.5 145.5q-43 0 -57.5 -9t-16.5 -36q-31 -788 -31 -899z" />
<glyph unicode="E" horiz-adv-x="1210" d="M119 -20l12 94q92 12 126 48t34 124l2 860q0 66 -15.5 88.5t-60.5 22.5l-70 -5l-4 9l15 90q162 -6 284 -6q434 0 615 24l6 -12q-35 -152 -47 -340l-98 -8q4 59 4 88q0 100 -48.5 122.5t-265.5 22.5q-100 0 -120.5 -11t-22.5 -69l-16 -397q20 0 99 -1t111 -1l250 22l9 -10 l-29 -121q-176 6 -287 7q-76 0 -158 -15q-8 -295 -8 -391q0 -84 25.5 -103.5t136.5 -19.5q172 0 243.5 17.5t103.5 65.5t48 167l90 10l7 -10q-37 -170 -56 -344l-10 -12q-426 14 -621 14z" />
<glyph unicode="F" horiz-adv-x="1048" d="M119 -25l12 95q94 18 127 54t33 122l2 860q0 66 -15.5 88.5t-60.5 22.5l-70 -5l-4 9l15 90q162 -6 284 -6q403 0 576 24l6 -12q-35 -158 -47 -346l-98 -8q4 66 4 94q0 100 -43 122.5t-232 22.5q-100 0 -120.5 -11t-22.5 -69l-16 -432l210 -2l215 23l9 -11l-29 -122 q-156 6 -252 6q-76 0 -158 -15l-8 -340q0 -84 18.5 -111.5t71.5 -27.5l146 6l4 -8l-19 -96q-195 8 -305 8z" />
<glyph unicode="G" horiz-adv-x="1366" d="M82 608q0 322 198.5 521.5t520.5 199.5q170 0 397 -49l8 -12q-41 -154 -53 -342l-96 -8q6 55 6 110q0 94 -72.5 137t-236.5 43q-233 0 -363.5 -140t-130.5 -394q0 -270 128 -433t339 -163q160 1 281 78v250q0 70 -21.5 90t-91.5 20h-141l-4 8l18 103q139 -8 260 -9 l176 11l8 -45q-37 -31 -50 -97.5t-13 -218.5q0 -119 14 -180l-12 -18q-25 -10 -67 -25.5t-165.5 -42.5t-238.5 -27q-274 0 -436 171t-162 462z" />
<glyph unicode="H" horiz-adv-x="1544" d="M119 -25l12 95q94 18 127 54t33 122l2 860q0 66 -15.5 88.5t-60.5 22.5l-70 -5l-4 9l15 90q150 -6 227 -6q39 0 94.5 5t89.5 9l35 4l-8 -92q-88 -14 -109.5 -44t-25.5 -140l-12 -332l344 -2q131 0 303 20l2 373q0 66 -15.5 88.5t-60.5 22.5l-70 -5l-4 9l15 90 q0 -6 200 -6q43 0 104.5 5t101.5 9l40 4l-8 -92q-76 -10 -101.5 -34t-29.5 -83q-29 -598 -29 -885q0 -84 18.5 -111.5t71.5 -27.5l92 6l4 -8l-18 -94q-162 6 -252 6l-235 -4l18 92q96 2 126 43t30 176v309q-217 2 -312 2l-340 -22l-8 -367q0 -84 18.5 -111.5t71.5 -27.5 l92 6l5 -8l-19 -94q0 6 -174 6q-90 0 -199.5 -8t-111.5 -17z" />
<glyph unicode="I" horiz-adv-x="739" d="M115 -25l12 95q96 18 130 54t34 122l2 860q0 66 -15.5 88.5t-60.5 22.5l-86 -5l-4 9l14 90q160 -6 244 -6l236 18l-9 -92q-86 -10 -114.5 -34t-32.5 -83q-29 -594 -29 -885q0 -84 18.5 -111.5t71.5 -27.5l109 6l4 -8l-18 -94q-172 6 -269 6z" />
<glyph unicode="J" horiz-adv-x="669" d="M47 -227l6 16q125 76 170 169.5t45 277.5l2 870q0 66 -14 87t-61 21l-97 -8l-4 8l15 91h221l237 18l-8 -92q-72 -10 -92.5 -30.5t-24.5 -86.5q-23 -487 -26 -876q-2 -209 -81 -335t-253 -198z" />
<glyph unicode="K" horiz-adv-x="1286" d="M117 -2l20 92q96 10 125 39t29 117l2 860q0 66 -15.5 88.5t-60.5 22.5l-70 -5l-4 9l15 90q150 -6 227 -6q39 0 94.5 5t89.5 9l35 4l-8 -92q-76 -12 -104.5 -38t-30.5 -85l-25 -879v-15q0 -70 16 -96q18 -28 74 -28l92 6l5 -8l-19 -94q-162 6 -252 6zM496 645l2 29 l366 381q63 63 64 106q0 53 -129 62l-4 8l14 88q150 -14 225 -14l189 8l8 -15l-14 -84q-53 -10 -98.5 -42.5t-137.5 -129.5l-330 -346l344 -448q74 -96 132.5 -135t129.5 -39l9 -8l-13 -70q-147 -25 -170 -25q-102 0 -229 176z" />
<glyph unicode="L" horiz-adv-x="1038" d="M139 -20l13 94q80 12 109.5 48t29.5 124l2 860q0 66 -15.5 88.5t-60.5 22.5l-70 -5l-4 9l15 90q152 -6 229 -6q39 0 94.5 5t89.5 9l35 4l-8 -92q-23 -4 -40 -7t-30.5 -9.5t-22.5 -9.5t-16.5 -16t-10.5 -18.5t-6 -25t-4 -27.5t-3 -36.5t-2 -41.5q-25 -342 -25 -790 q0 -104 30 -131t144 -27q178 0 234.5 51.5t91.5 239.5l90 10l6 -10q-37 -186 -59 -389l-10 -12q-356 18 -551 18q-68 0 -136.5 -5t-103.5 -10z" />
<glyph unicode="M" horiz-adv-x="1734" d="M94 -16l10 94q66 8 94.5 42t37.5 116q90 821 90 884q0 53 -42 80t-137 33l-6 10l17 72q158 -10 223 -10l139 8q82 -264 169 -518t132 -376l45 -122h11q160 426 354 1012l24 -1q25 -1 60 -2t51 -1l221 12l4 -8l-10 -76q-88 -10 -125 -36t-37 -77q0 -158 54 -835 q14 -121 32.5 -158t67.5 -37l57 4l4 -8l-18 -92q-121 6 -195 6l-213 -16l9 94q121 14 120 102l-69 885h-11l-395 -1090l-49 -14l-397 1104h-10q-70 -858 -70 -911q0 -63 63 -64l84 2l4 -8l-18 -92q-131 8 -199 8q-37 0 -81 -4t-69 -8z" />
<glyph unicode="N" horiz-adv-x="1472" d="M111 1239l16 76q119 -10 176 -10l137 8q152 -236 324 -490t268 -390l96 -136h11v829q0 88 -68 88l-78 -2l-4 9l19 92q125 -8 194 -8l203 16l-10 -94q-72 -10 -105 -40t-35 -89l-28 -1151l-60 -29q-178 276 -368.5 559t-291.5 426l-101 144h-11l-10 -875q0 -45 14.5 -63.5 t49.5 -18.5l104 2l4 -8l-18 -92q-129 8 -217 8l-191 -16l10 94q125 14 127 129l27 895q0 63 -38 90t-140 37z" />
<glyph unicode="O" horiz-adv-x="1417" d="M82 608q0 303 194.5 512t479.5 209q256 0 417.5 -176t161.5 -455q0 -305 -197.5 -514t-488.5 -209q-252 0 -409.5 176.5t-157.5 456.5zM258 674q0 -262 127 -428t328 -166q195 0 317.5 148.5t122.5 383.5q0 262 -130 428t-337 166q-190 0 -309 -147.5t-119 -384.5z" />
<glyph unicode="P" horiz-adv-x="1128" d="M129 -16l14 94q90 16 119 48t29 120l2 860q0 66 -15.5 88.5t-60.5 22.5l-70 -5l-4 9l15 90q150 -6 227 -6l258 8q213 0 325.5 -94.5t112.5 -270.5q0 -174 -143 -311t-326 -137h-172l-4 -201q0 -139 15.5 -174t74.5 -35l111 6l4 -8l-18 -94q0 6 -189 6q-82 0 -191.5 -6 t-113.5 -10zM444 621l218 -31q247 41 247 317q0 160 -93 232.5t-292 72.5q-37 0 -45 -4t-10 -24q-19 -260 -25 -563z" />
<glyph unicode="Q" horiz-adv-x="1427" d="M82 608q0 303 194.5 512t479.5 209q256 0 417.5 -176t161.5 -455q0 -252 -140 -444.5t-361 -253.5v-10q217 -147 361 -209t267 -62l164 21l8 -6l13 -37q-154 -139 -195 -139q-145 0 -291.5 75.5t-511.5 341.5q-252 0 -409.5 176.5t-157.5 456.5zM258 674q0 -262 127 -428 t328 -166q195 0 317.5 148.5t122.5 383.5q0 262 -130 428t-337 166q-190 0 -309 -147.5t-119 -384.5z" />
<glyph unicode="R" horiz-adv-x="1251" d="M117 -8l18 92q96 10 126 42t30 120l2 860q0 66 -15.5 88.5t-60.5 22.5l-70 -5l-4 9l15 90q150 -6 227 -6l252 8q190 0 301 -86t111 -236q0 -123 -79 -225t-222 -168l225 -356q59 -98 115.5 -136t138.5 -38l8 -9l-12 -69l-174 -23q-51 0 -109.5 52.5t-108.5 142.5 l-219 397h-170l-6 -305q0 -111 24.5 -139.5t123.5 -28.5l4 -8l-19 -86q0 2 -217 6zM446 674l211 -21q8 2 23.5 7.5t53.5 29t67.5 54t53.5 87t24 123.5q0 270 -375 271q-20 0 -27.5 -9.5t-9.5 -37.5q-19 -314 -21 -504z" />
<glyph unicode="S" horiz-adv-x="1085" d="M117 66q24 152 24 341v15l92 10q0 -221 50.5 -288.5t216.5 -67.5q129 0 206.5 60.5t77.5 164.5q0 45 -22.5 85t-68.5 75t-89 59.5t-111 59.5q-14 6 -20 10q-78 41 -124 68.5t-101 73.5t-82 99.5t-27 116.5q0 162 136.5 271.5t334.5 109.5q182 0 314 -51l6 -12 q-33 -158 -45 -346l-80 -9l-12 11q6 43 6 106q0 109 -53.5 150t-190.5 41q-113 0 -185.5 -56.5t-72.5 -140.5q0 -82 70.5 -142.5t207.5 -131.5q203 -105 269 -162q110 -94 110 -211q0 -176 -141 -288t-364 -112q-86 0 -166 17.5t-118 35.5l-38 17z" />
<glyph unicode="T" horiz-adv-x="1118" d="M18 958q25 180 31 355l19 16l170 -22h634l175 22l18 -16q2 -78 10 -164t15 -134l6 -48l-97 -9q-12 72 -18 105t-24.5 69.5t-33 47t-58.5 24t-85 15.5t-127 6q-32 -318 -32 -957v-39q0 -76 26.5 -107.5t89.5 -31.5l113 6l6 -8l-18 -94q-205 6 -301 6l-281 -8l16 88 q143 12 174 50t31 202v893q-96 -4 -138 -6t-90 -14.5t-61.5 -23t-33 -46t-24.5 -66.5t-15 -102z" />
<glyph unicode="U" horiz-adv-x="1394" d="M72 1221l14 90q154 -6 231 -6q39 0 93.5 5t88.5 9l33 4l-8 -92q-76 -10 -101.5 -33.5t-29.5 -83.5l-16 -602q0 -203 88 -311.5t254 -108.5q168 0 256 89t88 257l-12 668q-4 72 -17.5 91.5t-58.5 19.5l-88 -5l-4 9l14 90q154 -6 231 -6q39 0 89.5 5t79.5 9l30 4l-8 -92 q-90 -12 -115.5 -32.5t-25.5 -84.5v-688q0 -215 -133.5 -333t-374.5 -118q-215 0 -332 118t-117 335v678q0 66 -15.5 88.5t-60.5 22.5l-69 -5z" />
<glyph unicode="V" horiz-adv-x="1249" d="M-18 1223l14 88q168 -6 237 -6q49 0 126 5t129 11l53 6l6 -14l-8 -80q-111 -8 -147 -24.5t-36 -61.5q0 -29 64.5 -266.5t129.5 -459.5l64 -222h19q340 877 340 942q0 82 -142 82h-106l-4 8l12 88q158 -14 293 -14l225 6l-16 -97q-63 -2 -88 -20t-47 -78l-441 -1106 l-131 -45q-182 601 -354 1133q-37 115 -188 116z" />
<glyph unicode="W" horiz-adv-x="1908" d="M-14 1223l12 88q164 -6 231 -6q66 0 139.5 5t115.5 11l42 6l6 -14l-8 -80q-104 -8 -140 -24.5t-36 -59.5q0 -35 62.5 -272.5t126.5 -457.5l63 -220h12l289 786l-37 113q-20 59 -63 85.5t-121 30.5l-4 9l14 88q164 -6 232 -6q55 0 128.5 5t120.5 11l48 6l6 -14l-8 -80 q-106 -8 -142.5 -24.5t-36.5 -61.5q0 -31 63.5 -267.5t127.5 -458.5l63 -222h13q332 895 331 952q0 72 -139 72h-102l-4 8l14 88q154 -14 285 -14l217 6l-15 -97q-61 -4 -85.5 -21t-45.5 -77l-430 -1106l-127 -45q-117 420 -256 869h-12l-291 -824l-131 -45 q-170 602 -342 1133q-37 115 -184 116q0 2 -1 4.5t-1 4.5z" />
<glyph unicode="X" horiz-adv-x="1343" d="M25 6l14 84q84 25 156 89.5t176 193.5l225 278l-268 402q-98 145 -281 170l-4 8l12 80q201 -6 295 -6q72 0 141.5 4t102.5 8l33 4l6 -14l-6 -72q-160 -12 -160 -74q0 -37 231 -389q20 29 62.5 83t73 96t63.5 88t51.5 80t18.5 50q0 49 -119 62l-4 8l12 80q150 -14 225 -14 l199 8l8 -15l-12 -75q-88 -18 -137 -58.5t-142 -154.5l-247 -314l299 -436q55 -82 119.5 -122t160.5 -48l4 -8l-14 -88q-160 6 -254 6l-317 -16l-7 14l9 80q159 8 159 71q0 32 -41 91l-223 335l-188 -249q-63 -84 -84 -119t-21 -64q0 -53 119 -61l4 -8l-14 -88 q-150 14 -225 14l-203 -8z" />
<glyph unicode="Y" horiz-adv-x="1101" d="M-39 1231l12 80q131 -6 226 -6l290 16l7 -14l-7 -72q-92 -8 -123.5 -23.5t-31.5 -50.5q0 -27 57.5 -159t113.5 -250.5t58 -118.5h10l234 434q33 59 33 102q0 53 -129 62l-4 8l12 80q152 -14 227 -14l189 8l8 -15l-13 -75q-94 -18 -134 -57.5t-113 -171.5q-13 -25 -21 -38 l-205 -360q-20 -37 -29.5 -88t-11.5 -91t-4 -188v-14q0 -69 18 -95q19 -30 72 -30l101 6l4 -8l-19 -94q-170 6 -260 6l-233 -25l12 95q106 20 133 61t27 160v90q0 113 -59 231l-185 375q-70 143 -98 174q-48 52 -160 62z" />
<glyph unicode="Z" horiz-adv-x="1163" d="M70 59l764 1155l-355 -12q-141 -6 -200.5 -66.5t-75.5 -215.5l-97 -9q33 211 37 400l21 18l358 -22l529 -15l22 -59q-391 -520 -790 -1151l415 14q106 2 172 84t99 256l96 10q-41 -222 -51 -419l-31 -33l-741 12l-144 -12z" />
<glyph unicode="[" horiz-adv-x="632" d="M197 -258q23 565 22 770l-22 776l376 23l9 -13l-13 -63l-233 -49v-1342l237 -49l9 -14l-13 -62z" />
<glyph unicode="\" horiz-adv-x="673" d="M76 1362l16 20h94l236 -919q80 -311 188 -672l-14 -16h-98q-86 328 -172 665z" />
<glyph unicode="]" horiz-adv-x="632" d="M51 -268l12 63l234 49v1342l-238 49l-8 14l12 62l373 -23q-23 -565 -22 -770l22 -776l-377 -23z" />
<glyph unicode="^" horiz-adv-x="1036" d="M115 154q86 225 166 411l176 416l96 4l22 -16q106 -256 173 -406l174 -385l-82 -61l-23 2q-88 203 -162 370l-143 345h-12l-123 -316q-69 -168 -150 -397l-102 14z" />
<glyph unicode="_" horiz-adv-x="937" d="M-12 -276l22 100q307 -2 490 -2q145 0 280 6q158 4 158 6l12 -20l-16 -105q-195 0 -559.5 -2t-374.5 -2z" />
<glyph unicode="`" d="M145 1374l78 84l21 4q160 -193 307 -352l-41 -39l-18 -4q-76 70 -162 140.5t-134 107.5l-49 37z" />
<glyph unicode="a" horiz-adv-x="954" d="M84 238q0 59 29.5 104t79.5 59l387 107l4 90q0 102 -47.5 159.5t-133.5 57.5q-129 -3 -245 -102l-11 6l-24 88q246 143 334 143q133 0 208.5 -69.5t75.5 -194.5q0 -31 -18 -218t-18 -253q0 -94 83 -94q65 0 123 51l29 -33q-8 -14 -23.5 -36.5t-62.5 -66.5t-92 -61 q-168 0 -182 166l-9 2q-159 -159 -224 -159h-1q-115 0 -188.5 71.5t-73.5 182.5zM240 260q0 -59 39.5 -98t101.5 -39q88 0 186 98l8 209l-276 -84q-59 -18 -59 -86z" />
<glyph unicode="b" horiz-adv-x="1040" d="M47 1393l8 67q63 8 139 23.5t120 25.5l44 11l13 -27q-31 -47 -47 -686q199 143 247 143q176 0 286 -121.5t110 -316.5q0 -223 -148.5 -380t-361.5 -157l-264 25l-19 16v1266q0 111 -76 111l-45 -7zM313 131q86 -43 201 -43q137 0 216 93t79 255q0 158 -79 266.5 t-191 108.5q-41 0 -104.5 -31.5t-115.5 -79.5z" />
<glyph unicode="c" horiz-adv-x="868" d="M74 428q0 221 136 371.5t337 150.5q131 0 239 -39l7 -14q-37 -123 -43 -283l-84 -6v64q0 76 -46.5 122t-121.5 46q-125 0 -192.5 -89t-67.5 -253q0 -178 74.5 -281.5t203.5 -103.5h3q113 0 229 67l12 -4l22 -63q-180 -137 -280 -138q-195 0 -311.5 123t-116.5 330z" />
<glyph unicode="d" horiz-adv-x="1099" d="M74 414q0 221 149.5 378.5t360.5 157.5q66 0 141 -8v340q0 111 -76 111l-51 -9l8 76q63 8 139 23.5t120 25.5l44 11l13 -27q-23 -35 -40.5 -432t-17.5 -846q0 -94 84 -94q65 0 123 51l29 -33q-8 -14 -24.5 -37.5t-63.5 -68.5t-90 -58q-160 0 -183 146l-14 6 q-213 -145 -256 -145q-176 0 -285.5 119.5t-109.5 312.5zM231 483q0 -156 78 -262t193 -106q43 0 99 26.5t90 54.5l34 27v561q-76 47 -199 47q-137 0 -216 -93t-79 -255z" />
<glyph unicode="e" horiz-adv-x="917" d="M74 428q0 211 135 366.5t317 155.5q305 0 305 -297l-12 -100l-26 -25h-566v-32q0 -172 83 -276.5t220 -104.5q126 0 252 63l13 -4l22 -59q-20 -16 -56 -39t-119 -62t-138 -39q-193 0 -311.5 125t-118.5 328zM236 604l370 19q31 4 41 14t10 41q0 82 -44 125t-126 43 q-96 0 -164.5 -65.5t-86.5 -176.5z" />
<glyph unicode="f" horiz-adv-x="675" d="M84 842l14 69l123 23v8q2 266 129 422t342 156q139 0 234 -39l4 -19q-33 -57 -64 -133l-22 -6q-102 76 -236 76q-229 0 -235 -379l-2 -100l282 6l6 -6l-20 -109q-127 6 -270 6l-9 -616q0 -113 105 -113l123 4l4 -8l-14 -88q-174 4 -254 4l-230 -8l10 80q117 14 117 121 v552q-2 49 -27.5 64.5t-101.5 19.5z" />
<glyph unicode="g" horiz-adv-x="1032" d="M106 174q29 29 72 61.5t72 51.5l29 18v8q-152 80 -152 273q0 145 114.5 254.5t266.5 109.5q41 0 108.5 -11t92.5 -11q104 12 282 61l6 -8l-22 -115q-90 -12 -176 -18l-8 -10q82 -92 81 -207q0 -154 -117.5 -259.5t-287.5 -105.5q-49 0 -119 17q-86 -47 -86 -90 q0 -92 246 -101q238 -12 337 -62t99 -157q0 -141 -156.5 -255t-351.5 -114q-145 0 -227 72t-82 201q67 90 203 184v12q-96 12 -160 69.5t-64 131.5zM281 621q0 -119 64.5 -192t170.5 -73q94 0 148.5 59.5t54.5 164.5q0 119 -65.5 192.5t-170.5 73.5q-94 0 -148 -61.5 t-54 -163.5zM287 -227q0 -78 59.5 -123t165.5 -45q119 0 210 61.5t91 140.5q0 59 -78 89t-321 63q-14 -10 -36 -28.5t-56.5 -67.5t-34.5 -90z" />
<glyph unicode="h" horiz-adv-x="1093" d="M51 1395l8 65q63 8 139 23.5t120 25.5l44 11l13 -27q-31 -47 -49 -702q232 159 306 159h1q133 0 206.5 -69.5t73.5 -194.5q0 -31 -16 -225.5t-16 -259.5q0 -115 71 -115l72 4l4 -8l-16 -88q-106 6 -183 6q-39 0 -91 -6t-86 -12l-34 -7l9 84q115 31 114 134l13 405 q0 102 -44 157.5t-126 55.5q-119 0 -260 -113q-6 -236 -7 -497q0 -63 16.5 -89t57.5 -26l72 4l4 -8l-18 -88q-111 6 -187 6l-203 -4l13 84q59 6 82.5 30.5t23.5 82.5v1089q0 106 -76 107h-43z" />
<glyph unicode="i" horiz-adv-x="577" d="M86 815l8 76q61 8 135 23.5t117 25.5l43 10l10 -24q-18 -43 -32.5 -263.5t-14.5 -461.5q0 -115 72 -115l72 4l4 -8l-17 -88q-106 6 -182 6q-39 0 -91 -6t-86 -12l-34 -7l8 84q115 31 115 134v520q0 110 -75 110h-1zM172 1337q0 51 35 86t86 35q43 0 71.5 -29.5 t28.5 -74.5q0 -51 -35 -86t-86 -35q-45 0 -72.5 28.5t-27.5 75.5z" />
<glyph unicode="j" horiz-adv-x="512" d="M31 -455l4 17q88 88 119.5 196.5t31.5 319.5v635q0 63 -17 86.5t-65 23.5l-55 -6l8 76q55 8 129 22.5t120 24.5l46 10l10 -24q-34 -57 -34 -906v-49q0 -147 -67.5 -268t-192.5 -197zM147 1337q0 51 35 86t86 35q43 0 72 -29.5t29 -74.5q0 -51 -35 -86t-86 -35 q-45 0 -73 28.5t-28 75.5z" />
<glyph unicode="k" horiz-adv-x="1017" d="M51 1384q0 12 4 37l4 39q63 8 139 23.5t120 25.5l44 11l13 -27q-23 -35 -41 -434.5t-17 -857.5q0 -63 16.5 -89t57.5 -26l72 4l4 -8l-18 -88q-111 6 -187 6l-203 -12l11 84q33 4 53 15t32.5 22.5t16.5 42t5 51t1 73.5v1006q0 111 -76 111zM369 487l4 29l250 229 q49 47 49 72q0 43 -113 43l-6 10l18 60q127 -4 201 -4l195 12l6 -10l-17 -64q-43 -12 -86 -36.5t-95 -68.5t-81.5 -70.5t-93.5 -90.5l-80 -80l215 -276q70 -90 127.5 -129t120.5 -39l6 -11l-12 -59q-121 -33 -151.5 -33t-71.5 21q-58 30 -144 153z" />
<glyph unicode="l" horiz-adv-x="499" d="M51 1384q0 12 4 37l4 39q63 8 139 23.5t120 25.5l44 11l13 -27q-23 -35 -41 -436.5t-17 -855.5q0 -61 16.5 -88t55.5 -27l72 4l4 -8l-16 -88q-106 6 -183 6q-39 0 -91 -6t-86 -12l-34 -7l8 84q35 10 57.5 24.5t35 27t16.5 45t5 50t1 70.5v1006q0 111 -76 111z" />
<glyph unicode="m" horiz-adv-x="1703" d="M80 825l6 68l287 59l12 -16q-18 -66 -23 -135l5 -6q228 155 300 155h1q98 0 165.5 -42t96.5 -120q229 162 309 162q129 0 205 -71.5t76 -192.5q0 -31 -14.5 -225.5t-14.5 -259.5q0 -63 16.5 -89t57.5 -26l71 4l4 -8l-18 -88q-111 6 -186 6l-203 -12l10 84q59 10 84 36.5 t25 84.5l8 405q0 102 -44 157.5t-126 55.5q-106 0 -248 -102l-22 -508q0 -115 71 -115l72 4l4 -8l-16 -88q-106 6 -183 6q-39 0 -91 -6t-86 -12l-34 -7l9 84q115 31 114 134l8 405q0 102 -44 157.5t-126 55.5q-111 0 -251 -106q-18 -424 -19 -504q0 -63 16.5 -89t57.5 -26 l72 4l4 -8l-19 -88q-111 6 -186 6l-203 -4l12 84q59 6 83 30.5t24 82.5v499q0 70 -22.5 97.5t-77.5 27.5h-23z" />
<glyph unicode="n" horiz-adv-x="1150" d="M80 825l6 68l287 59l12 -16q-18 -66 -23 -135l5 -6q232 155 300 155h1q129 0 204.5 -71.5t75.5 -192.5q0 -31 -14 -225.5t-14 -259.5q0 -115 71 -115l72 4l4 -8l-16 -88q-106 6 -183 6q-39 0 -91 -6t-86 -12l-34 -7l9 84q115 31 114 134l8 405q0 102 -44 157.5t-126 55.5 q-111 0 -251 -106q-18 -424 -19 -504q0 -63 16.5 -89t57.5 -26l72 4l4 -8l-19 -88q-111 6 -186 6l-203 -12l10 84q59 10 84 36.5t25 84.5v499q0 70 -22.5 97.5t-77.5 27.5h-23z" />
<glyph unicode="o" horiz-adv-x="1019" d="M74 430q0 219 137 369.5t338 150.5q176 0 286.5 -127t110.5 -327q0 -219 -137 -370t-338 -151q-176 0 -286.5 127t-110.5 328zM238 489q0 -184 80.5 -298.5t209.5 -114.5q115 0 182.5 93t67.5 253q0 184 -81 301t-210 117q-115 0 -182 -94.5t-67 -256.5z" />
<glyph unicode="p" horiz-adv-x="1081" d="M82 825l6 68l287 59l12 -16q-14 -57 -20 -111l8 -14q193 133 237 133q176 0 286 -119.5t110 -312.5q0 -221 -150.5 -379t-359.5 -158l-150 9q0 -35 1 -106t1 -105q0 -94 19.5 -128t76.5 -34q12 0 35 1t35 1l4 -6l-16 -78h-195l-217 -14l10 79q66 8 85.5 36t19.5 112 q0 31 2 162t2 178v610q0 70 -22.5 97.5t-77.5 27.5h-23zM350 127q92 -39 205 -39q137 0 216 93t79 255q0 156 -78 262.5t-192 106.5q-92 0 -213 -100q-17 -269 -17 -578z" />
<glyph unicode="q" horiz-adv-x="1056" d="M74 414q0 221 149.5 378.5t360.5 157.5q96 0 188 -18l113 47l16 -18q-39 -96 -39 -1178q0 -111 13.5 -141.5t60.5 -30.5l53 2l4 -4l-14 -80h-188l-220 -8l11 78q84 4 107.5 26.5t27.5 98.5l8 399q-213 -147 -256 -148q-176 0 -285.5 122t-109.5 317zM231 483 q0 -158 79 -266t192 -108q43 0 99 28.5t90 57.5l34 28v561q-76 47 -199 47q-137 0 -216 -93t-79 -255z" />
<glyph unicode="r" horiz-adv-x="784" d="M92 827l6 64q124 22 277 61l14 -12q-2 -12 -5 -33.5t-8 -78t-5 -99.5l8 -6q61 96 144 157.5t145 61.5l63 -8l6 -8q-29 -168 -32 -293l-80 -6q0 84 -11.5 111.5t-44.5 27.5q-45 0 -96 -38t-94 -101q-16 -373 -17 -418q0 -70 20.5 -94.5t78.5 -24.5l90 4l2 -8l-18 -90 q-129 4 -209 4l-215 -8l10 82q61 6 81.5 39.5t20.5 130.5v450q0 68 -18.5 96.5t-59.5 28.5l-43 -6z" />
<glyph unicode="s" horiz-adv-x="823" d="M100 33q18 102 25 274l72 10q0 -135 45 -190t153 -55q78 0 131.5 34.5t53.5 86t-48.5 93.5t-189.5 117q-117 59 -170 120t-53 134q0 125 107.5 209t269.5 84q49 0 100 -8t78 -16l26 -8l5 -11q-29 -115 -39 -250l-76 -6q4 41 4 60q0 74 -40 107.5t-128 33.5 q-70 0 -118 -33t-48 -80q0 -49 42 -92t136 -92q166 -88 226.5 -147.5t60.5 -137.5q0 -119 -112.5 -207t-262.5 -88q-66 0 -127 10.5t-89 21.5l-28 11z" />
<glyph unicode="t" horiz-adv-x="675" d="M43 842l10 61q133 65 254 187l41 -17q-8 -53 -16 -153l301 6l6 -6l-18 -109l-297 6q-14 -225 -15 -512q0 -104 36 -147t124 -43q31 0 65.5 9t54.5 18l19 10l21 -54q-158 -123 -207 -123q-139 0 -196.5 56.5t-57.5 191.5v504q0 55 -24.5 77.5t-92.5 24.5z" />
<glyph unicode="u" horiz-adv-x="1107" d="M57 813l9 76q127 20 292 61l13 -24q-20 -53 -37 -241.5t-17 -367.5q0 -200 162 -200h2q43 0 95.5 22.5t75 38t77.5 55.5v476q0 61 -22.5 85.5t-79.5 24.5l-49 -2l8 74q145 20 315 59l12 -24q-18 -47 -31.5 -256t-13.5 -455q0 -94 84 -94q65 0 123 51l29 -33 q-12 -18 -31.5 -45.5t-68 -73t-78.5 -45.5q-168 0 -183 166l-10 4q-221 -170 -284 -170q-131 0 -202 61.5t-71 176.5l8 498q0 110 -74 110h-1z" />
<glyph unicode="v" horiz-adv-x="911" d="M-20 860l12 68q123 -2 170 -2q55 0 116.5 4t95.5 7l34 3l4 -10l-13 -64q-70 -2 -95 -13t-25 -40l174 -647h8q39 94 84 203.5t70.5 172t49 122t34 92.5t10.5 47q0 27 -19.5 38t-68.5 11h-78l-8 12l10 64q113 -2 213 -2l168 2l-15 -76q-43 -6 -67.5 -35t-63.5 -119 l-297 -698l-110 -35q-190 608 -250 785q-35 98 -139 102z" />
<glyph unicode="w" horiz-adv-x="1443" d="M-8 860l12 68q119 -2 164 -2q55 0 114.5 4t92.5 7l33 3l4 -10l-13 -64q-68 -2 -92 -13t-24 -40l168 -647h8q41 102 91 229t79.5 202t46.5 120q-23 70 -54.5 102.5t-91.5 32.5l-4 8l13 68q119 -2 163 -2l240 10l4 -10l-12 -64q-70 -2 -93.5 -12t-23.5 -37l168 -647h8 q37 92 81 203.5t68.5 172t47 122t33 93.5t10.5 46q0 51 -84 51h-76l-8 12l10 64q104 -4 203 -4l168 2l-14 -76q-41 -4 -66 -34t-61 -120l-289 -698l-109 -35q-109 358 -184 604h-12l-228 -569l-110 -35q-184 608 -242 785q-35 100 -135 102z" />
<glyph unicode="x" horiz-adv-x="972" d="M16 860l13 70q141 -4 207 -4l208 8l5 -10l-13 -64q-92 0 -92 -39q0 -25 49 -96l113 -164l125 158q63 78 63 104.5t-88 26.5l-4 8l10 68h150l145 6l6 -10l-12 -66q-55 -18 -172 -154l-176 -206l188 -269q98 -143 207 -153l4 -8l-12 -70q-120 4 -186 4l-230 -12l-4 10 l12 63q94 2 95 43q0 27 -35 76l-150 209q-206 -251 -206 -285q0 -20 17 -26t73 -10l4 -9l-13 -67q-123 8 -170 8l-122 -6l-7 10l13 64q12 6 22 12t21.5 14t18.5 14.5t18.5 17.5t17.5 17.5t20.5 21.5t20.5 22.5t24.5 29t26.5 31.5l176 205l-155 221q-70 100 -110 133t-112 45 z" />
<glyph unicode="y" horiz-adv-x="913" d="M-18 860l12 68q123 -2 170 -2q53 0 114.5 4t96.5 7l35 3l4 -10l-13 -64q-70 -2 -95 -13t-25 -40q0 -72 182 -627h8q240 573 240 619q0 53 -78 53h-94l-4 8l12 68q106 -8 207 -8l174 2l-15 -76q-45 -8 -68.5 -31.5t-45.5 -85.5l-264 -622q-166 -381 -249 -495 q-82 -112 -208 -112h-4q-16 0 -53 48.5t-37 68.5l10 15q119 0 224.5 95t174.5 265q-129 406 -268 756q-47 96 -139 98z" />
<glyph unicode="z" horiz-adv-x="942" d="M74 47l557 801l-256 -12q-100 -6 -138 -44t-49 -141l-79 -12q20 166 22 297l12 10l263 -16l430 -10l16 -43q-328 -422 -586 -805l303 18q82 6 127 64.5t66 185.5l82 10q-35 -182 -35 -330l-33 -32l-575 18l-107 -10z" />
<glyph unicode="{" horiz-adv-x="632" d="M94 506l8 43q82 23 136.5 65.5t54.5 104.5q0 43 -42 176t-42 197q0 100 68.5 168.5t189.5 68.5l117 -12l6 -10l-17 -62q-59 10 -94 10q-63 0 -94 -39.5t-31 -101.5q0 -45 28 -179t28 -187q0 -156 -150 -205v-13q150 -55 150 -215q0 -55 -28 -192t-28 -182 q0 -61 31 -100.5t96 -39.5l103 13l6 -13l-17 -57q-49 -16 -110 -16q-117 0 -185.5 68.5t-68.5 168.5q0 66 42 195t42 166q0 135 -199 180z" />
<glyph unicode="|" horiz-adv-x="761" d="M311 -539q0 737 2 1104l2 1065l123 23l23 -13q-12 -705 -12 -1044l2 -1124l-121 -23z" />
<glyph unicode="}" horiz-adv-x="632" d="M43 -250l16 62q59 -10 95 -11q63 0 94 40t31 102q0 45 -28 179t-28 187q0 156 150 205v12q-150 55 -150 215q0 55 28 192.5t28 182.5q0 61 -31 100t-96 39l-103 -12l-6 12l16 58q49 16 111 16q117 0 185.5 -68.5t68.5 -168.5q0 -66 -42 -195t-42 -166q0 -135 199 -180 l-9 -43q-82 -23 -136 -66t-54 -104q0 -43 42 -176t42 -197q0 -100 -68.5 -168.5t-189.5 -68.5l-117 12z" />
<glyph unicode="~" horiz-adv-x="1036" d="M88 457v10l156 182l32 8q57 0 252 -44t240 -44q23 0 54.5 29t53.5 56l21 28h12l45 -43v-10l-155 -183l-33 -8q-57 0 -252 44t-240 44q-23 0 -54.5 -27.5t-52.5 -56.5l-22 -28h-12z" />
<glyph unicode="&#xa1;" horiz-adv-x="583" d="M180 -473l107 971l57 14l23 -16l16 -934l-14 -21l-170 -37zM215 823q0 53 36 90t93 37q55 0 85 -33.5t30 -82.5q0 -53 -35 -90t-92 -37q-55 0 -86 33.5t-31 82.5z" />
<glyph unicode="&#xa2;" horiz-adv-x="868" d="M74 428q0 205 119.5 351.5t302.5 166.5l36 393l54 9l12 -19l-37 -379q55 -2 111.5 -11t85.5 -18l28 -10l7 -14q-37 -123 -43 -283l-84 -6v64q0 61 -31 103t-84 56l-70 -716q12 -2 35 -2q115 -1 232 67l12 -4l22 -63q-180 -137 -280 -138q-23 0 -33 2l-27 -286l-53 -6 l-10 14l27 287q-154 29 -243 146.5t-89 295.5zM238 498q0 -141 48 -236.5t132 -130.5l67 709q-119 -4 -183 -93t-64 -249z" />
<glyph unicode="&#xa3;" horiz-adv-x="1075" d="M78 84q213 141 213 334v98q-2 47 -26.5 63.5t-102.5 20.5l-8 12l14 70l123 23v34q0 219 109.5 352.5t289.5 133.5q143 0 211 -31l10 -23l-47 -129l-39 -6q-125 68 -211 68q-178 0 -186 -254l-6 -160l330 6l6 -6l-21 -108q-162 6 -319 6l-4 -162q-10 -166 -131 -266 l112 22q61 0 182 -22.5t171 -22.5q139 0 153 154l37 -4q27 -61 27 -119q0 -82 -45.5 -137.5t-110.5 -55.5q-72 0 -252 46.5t-262 46.5q-90 0 -172 -62l-14 8z" />
<glyph unicode="&#xa4;" horiz-adv-x="909" d="M61 1051l5 24l79 53q66 -70 138 -141q76 49 166 49t165 -49q139 154 140 154l26 -6l56 -82l-144 -142q57 -76 58 -176q0 -86 -48 -160q145 -135 146 -135l-6 -22l-82 -62l-135 136q-78 -55 -176 -56q-96 0 -175 56q-137 -137 -137 -138l-22 6l-47 80q66 61 133 127 q-51 74 -51 168q0 96 55 174zM248 735q0 -84 58.5 -142t142 -58t143 58t59.5 142t-59.5 143.5t-143 59.5t-142 -59.5t-58.5 -143.5z" />
<glyph unicode="&#xa5;" horiz-adv-x="1124" d="M63 961l15 73q119 -6 198 -6q43 0 105.5 4t101.5 7l39 3l10 -20l-6 -70q-82 -8 -105.5 -18.5t-23.5 -30.5q0 -23 25 -74h-2l164 -321l190 326q27 45 27 75.5t-109 40.5q0 2 -1 7.5t-1 7.5l10 75q127 -12 201 -12l164 6l10 -14l-12 -76q-55 -8 -88 -27.5t-49.5 -41 t-61.5 -89.5l-86 -139l236 4l12 -18l-6 -62h-289l-72 -116q-16 -35 -20 -80l375 8l12 -18l-6 -62h-383q0 -20 -1 -59t-1 -60q0 -57 13.5 -77.5t51.5 -20.5q6 0 18.5 1t20.5 1q55 2 56 2l4 -16l-19 -78q-147 4 -225 4l-205 -20l10 88q96 16 116 51t20 157v27q-61 0 -184.5 -1 t-184.5 -1l-10 14l10 60h362q-18 66 -43 108l-49 88q-45 0 -135 -1t-135 -1l-10 15l10 59h229q-18 35 -52 100.5t-47 87t-42 54.5t-62.5 44t-84.5 13z" />
<glyph unicode="&#xa6;" horiz-adv-x="761" d="M311 340l131 25l7 -7l2 -886l-121 -23l-19 12v879zM313 758q0 145 1 436t1 436l123 23l23 -13q-10 -510 -12 -870l-127 -18z" />
<glyph unicode="&#xa7;" horiz-adv-x="1048" d="M72 717q0 90 63.5 179t173.5 155q8 115 95.5 196.5t205.5 81.5q80 0 141.5 -30.5t61.5 -69.5q0 -37 -13.5 -91.5t-25.5 -68.5h-29q-29 70 -88 115t-120 45q-49 0 -82 -36t-33 -91q0 -70 57.5 -135.5t139 -120.5t162.5 -114.5t138.5 -138.5t57.5 -167q0 -102 -67.5 -201.5 t-172.5 -152.5q-4 -100 -105.5 -193.5t-234.5 -93.5q-102 0 -170.5 47t-68.5 117q0 45 10 101t20 73h31q20 -109 86 -175.5t156 -66.5q66 0 111.5 43t45.5 105q0 70 -56 134t-137 120.5t-161 116t-136 141.5t-56 176zM186 784q0 -78 76 -159.5t170 -145t184.5 -153.5 t112.5 -179q129 82 129 207q0 59 -50 122t-124 119t-150.5 114.5t-139 129t-79.5 140.5q-129 -78 -129 -195z" />
<glyph unicode="&#xa8;" d="M143 1247q0 43 30 73t73 30q39 0 61.5 -26t22.5 -62q0 -43 -30 -73t-73 -30q-39 0 -61.5 26.5t-22.5 61.5zM483 1247q0 43 30 73t73 30q39 0 61.5 -26t22.5 -62q0 -43 -30 -73t-73 -30q-39 0 -61.5 26.5t-22.5 61.5z" />
<glyph unicode="&#xa9;" horiz-adv-x="1419" d="M86 600q0 258 182.5 441.5t440.5 183.5q260 0 442 -183.5t182 -441.5t-182 -441.5t-442 -183.5q-258 0 -440.5 183.5t-182.5 441.5zM172 600q0 -225 156.5 -384t380 -159t381 159t157.5 384t-157.5 384t-381 159t-380 -159t-156.5 -384zM387 588q0 156 97.5 258 t256.5 102l197 -24l4 -9q-20 -80 -27 -184l-67 -4q2 27 2 49q0 90 -131 90q-92 0 -144.5 -62.5t-52.5 -180.5q0 -131 50.5 -206t150.5 -75q70 0 107.5 37t54.5 117l65 4q-23 -100 -26 -178l-9 -15q-92 -39 -221 -39q-150 0 -228.5 90.5t-78.5 229.5z" />
<glyph unicode="&#xaa;" horiz-adv-x="657" d="M61 885q0 86 74 106l250 62l2 41q0 59 -29.5 92t-83.5 33q-81 0 -155 -62l-10 4l-19 68q168 96 227 96q100 0 151.5 -47t51.5 -125q0 -20 -12 -132t-12 -147q0 -55 49 -55q16 0 34.5 6t27.5 14l9 7l19 -25q-57 -98 -121 -119q-115 0 -125 103l-8 2q-102 -98 -145 -98 q-74 0 -124.5 50t-50.5 126zM193 899q0 -35 23.5 -58.5t57.5 -23.5q48 0 105 47l4 127l-156 -45q-35 -10 -34 -47z" />
<glyph unicode="&#xab;" horiz-adv-x="874" d="M41 434v31q196 186 352 354l45 -31l2 -20l-219 -305l219 -318l-2 -20l-45 -31q-70 72 -158 157t-141 134zM381 434v31q196 186 352 354l45 -31l2 -20l-219 -305l219 -318l-2 -20l-45 -31q-70 72 -158 157t-141 134z" />
<glyph unicode="&#xac;" horiz-adv-x="1036" d="M37 498l22 100q307 -2 490 -2l377 12l12 -20q-14 -129 -16 -226l2 -278l-101 -23l-18 13q2 229 2 409l-289 -2l-469 -2z" />
<glyph unicode="&#xad;" horiz-adv-x="663" d="M74 446l12 107l356 41l133 18l15 -18l-10 -111l-492 -53z" />
<glyph unicode="&#xae;" horiz-adv-x="958" d="M61 1038q0 174 122 296t296 122t296 -122t122 -296t-122 -295.5t-296 -121.5t-296 121.5t-122 295.5zM133 1038.5q0 -143.5 101.5 -245t245 -101.5t244.5 101.5t101 245t-101 244.5t-244.5 101t-245 -101t-101.5 -244.5zM287 842l4 43q35 2 43 16t8 62v227q0 37 -25 37 h-22l-4 8l6 35q61 -2 88 -2h23l63 4q78 0 122 -30t44 -83q0 -84 -98 -129l59 -88q43 -66 84 -65l6 -9q0 -25 -16.5 -29.5t-63.5 -4.5q-41 0 -76 65l-59 113h-51q-2 -29 -2 -68t7 -48t42 -9l4 -8l-4 -35q-37 2 -66 2h-24zM424 1065q6 0 16.5 -1t22.5 -3t20 -2q63 25 64 86 q0 78 -107 78q-12 -1 -12 -17q-4 -94 -4 -141z" />
<glyph unicode="&#xaf;" d="M102 1235l21 92q195 -2 315 -2l264 12l13 -20l-15 -96l-290 -2l-295 -2z" />
<glyph unicode="&#xb0;" horiz-adv-x="618" d="M51 1071.5q0 108.5 75 183t183.5 74.5t183 -74.5t74.5 -183t-74.5 -183.5t-183 -75t-183.5 75t-75 183.5zM137 1071q0 -72 50.5 -122t122 -50t121.5 50t50 122t-50 122t-121.5 50t-122 -50t-50.5 -122z" />
<glyph unicode="&#xb1;" horiz-adv-x="1036" d="M37 -135l22 100q307 -2 490 -2q145 0 280 6q158 4 158 6l12 -20l-16 -105q-195 0 -559.5 -2t-374.5 -2zM37 524l22 101q217 -2 396 -2q0 66 1 195.5t1 195.5l104 16l21 -12q-12 -231 -13 -395l418 12l12 -21l-16 -104q-70 0 -207 -1t-207 -1l2 -377l-100 -22l-18 12 q2 211 2 387l-406 -2z" />
<glyph unicode="&#xb2;" horiz-adv-x="673" d="M49 756l141 157q197 242 195 365q0 92 -104 92q-113 0 -189 -127h-14l-21 84q41 70 115 117t145 47q100 0 161 -48t61 -126t-65.5 -185.5t-229.5 -297.5l6 -11h168q66 0 92.5 22.5t42.5 94.5l78 8q-29 -127 -39 -227l-19 -12q-307 10 -426 10l-86 -14z" />
<glyph unicode="&#xb3;" horiz-adv-x="600" d="M63 819l13 15q55 -16 108 -17q84 0 140.5 38t56.5 93q0 63 -51 93t-162 30l-10 10l-8 66l86 18q109 53 108 135q0 39 -24.5 61.5t-65.5 22.5q-76 0 -148 -57h-14l-20 76q29 23 99.5 55.5t131.5 32.5q80 0 131 -43t51 -111q0 -53 -38.5 -101t-104.5 -79v-10 q178 -49 178 -180q0 -94 -115.5 -179.5t-244.5 -85.5q-51 0 -73 27t-24 90z" />
<glyph unicode="&#xb4;" d="M264 1110q66 72 142.5 160t120.5 141l44 53l21 -4l78 -84l-2 -22q-172 -131 -344 -287l-19 4z" />
<glyph unicode="&#xb5;" horiz-adv-x="1064" d="M109 -471q23 291 30 621l13 522q2 106 -15 225l10 14l179 39l12 -24q-18 -51 -35.5 -233.5t-17.5 -375.5q0 -201 172 -200q49 0 106.5 28.5t89.5 57.5l33 28v478l-14 190l10 14l176 37l12 -24q-18 -47 -31.5 -255t-13.5 -456q0 -94 84 -94q65 0 123 51l29 -33 q-12 -18 -31.5 -45.5t-68 -73t-78.5 -45.5q-172 0 -183 158l-12 4q-168 -141 -264 -162q-86 0 -154 54l-10 -6l-6 -121q0 -10 -1 -31t-1 -31q-2 -47 2 -119.5t9 -121.5l5 -50l-10 -14l-135 -31z" />
<glyph unicode="&#x3bc;" horiz-adv-x="1064" d="M109 -471q23 291 30 621l13 522q2 106 -15 225l10 14l179 39l12 -24q-18 -51 -35.5 -233.5t-17.5 -375.5q0 -201 172 -200q49 0 106.5 28.5t89.5 57.5l33 28v478l-14 190l10 14l176 37l12 -24q-18 -47 -31.5 -255t-13.5 -456q0 -94 84 -94q65 0 123 51l29 -33 q-12 -18 -31.5 -45.5t-68 -73t-78.5 -45.5q-172 0 -183 158l-12 4q-168 -141 -264 -162q-86 0 -154 54l-10 -6l-6 -121q0 -10 -1 -31t-1 -31q-2 -47 2 -119.5t9 -121.5l5 -50l-10 -14l-135 -31z" />
<glyph unicode="&#xb6;" horiz-adv-x="1148" d="M86 911q0 170 119 286t313 116q57 0 150.5 -4t113.5 -4l256 6l-12 -86l-4 -8q-92 4 -126 -15.5t-38 -77.5q-23 -147 -22 -809q0 -109 -8.5 -184.5t-32 -145t-64.5 -110.5t-108.5 -65.5t-161.5 -24.5q-115 0 -195 49t-80 143q0 92 78 183h31q0 -135 53 -207t144 -72 q125 0 165.5 85t40.5 308v910q-2 20 -9 24t-46 4q-100 0 -150.5 -81.5t-50.5 -219.5q0 -145 33 -244.5t109 -201.5v-31q-215 18 -356.5 138t-141.5 339z" />
<glyph unicode="&#xb7;" horiz-adv-x="487" d="M123 461q0 53 35 90t92 37q55 0 86 -34t31 -83q0 -53 -36 -90t-93 -37q-55 0 -85 34t-30 83z" />
<glyph unicode="&#xb8;" d="M203 -403.5q0 32.5 51 114.5h18q2 -55 33 -86t80 -31q41 0 69.5 22t28.5 56q0 54 -174 154l68 221h88l-51 -149q8 -6 35.5 -24.5t41 -28t35 -28t32.5 -32.5t20.5 -32.5t9.5 -37.5q0 -78 -79 -135t-167 -57q-51 0 -95 20.5t-44 53z" />
<glyph unicode="&#xb9;" horiz-adv-x="509" d="M55 1380l6 66q109 14 152 20q20 2 38.5 5.5t33 5.5t27 4t20.5 3t15 3t11 2t7.5 1t5.5 1h2l10 -31q-41 -36 -49 -104q-12 -229 -12 -477q0 -49 13 -68.5t48 -19.5l66 4l4 -7l-15 -73q-115 4 -180 4l-186 -14l8 71q63 4 90 26.5t27 78.5v428q0 45 -15.5 58t-52.5 13l-68 -6 z" />
<glyph unicode="&#xba;" horiz-adv-x="692" d="M57 995q0 143 88 236.5t224 93.5q121 0 193.5 -80t72.5 -213q0 -143 -87 -236.5t-222 -93.5q-121 0 -195 81t-74 212zM201 1038q0 -119 41.5 -185.5t113.5 -66.5q63 0 98 50.5t35 142.5q0 119 -41.5 185.5t-113.5 66.5q-63 0 -98 -50.5t-35 -142.5z" />
<glyph unicode="&#xbb;" horiz-adv-x="874" d="M94 145l219 306l-219 317l2 20l45 31q70 -72 158 -156.5t141 -134.5l54 -49v-30q-197 -187 -353 -355l-45 31zM434 145l219 306l-219 317l2 20l45 31q70 -72 158 -156.5t141 -134.5l54 -49v-30q-197 -187 -353 -355l-45 31z" />
<glyph unicode="&#xbc;" horiz-adv-x="1402" d="M55 1208l6 66q109 14 152 20q20 2 38.5 5.5t33 5.5t27 4t20.5 3t15 3t11 2t7.5 1t5.5 1h2l10 -31q-41 -36 -49 -104q-12 -229 -12 -477q0 -49 13 -69t48 -20l66 5l4 -7l-15 -73q-115 4 -180 4l-186 -15l8 72q63 4 90 26.5t27 78.5v428q0 45 -15.5 58t-52.5 13l-68 -6z M139 -131q268 408 451 694l524 826l80 -39l10 -29q-356 -530 -536 -819q-440 -696 -441 -697l-77 39zM786 219l5 70l352 481l6 2l80 -12v-449h112l11 -14l-13 -90l-110 4l8 -199l-8 -12l-125 -14l-10 12q8 119 8 215zM905 311h197v256h-12z" />
<glyph unicode="&#xbd;" horiz-adv-x="1460" d="M55 1208l6 66q109 14 152 20q20 2 38.5 5.5t33 5.5t27 4t20.5 3t15 3t11 2t7.5 1t5.5 1h2l10 -31q-41 -36 -49 -104q-12 -229 -12 -477q0 -49 13 -69t48 -20l66 5l4 -7l-15 -73q-115 4 -180 4l-186 -15l8 72q63 4 90 26.5t27 78.5v428q0 45 -15.5 58t-52.5 13l-68 -6z M139 -131q268 408 451 694l524 826l80 -39l10 -29q-356 -530 -536 -819q-440 -696 -441 -697l-77 39zM836 37l141 158q197 242 194 364q0 92 -104 92q-113 0 -188 -127h-15l-20 84q41 70 114.5 117t145.5 47q100 0 160.5 -48t60.5 -126t-65.5 -185.5t-229.5 -297.5l6 -11 h168q66 0 92.5 23t42.5 94l78 8q-29 -127 -39 -227l-18 -12q-307 10 -426 10l-86 -14z" />
<glyph unicode="&#xbe;" horiz-adv-x="1411" d="M63 647l13 15q55 -16 108 -17q84 0 140.5 38t56.5 93q0 63 -51 93t-162 30l-10 10l-8 66l86 18q109 53 108 135q0 39 -24.5 61.5t-65.5 22.5q-76 0 -148 -57h-14l-20 76q29 23 99.5 55.5t131.5 32.5q80 0 131 -43t51 -111q0 -53 -38.5 -101t-104.5 -79v-10 q178 -49 178 -180q0 -94 -115.5 -179.5t-244.5 -85.5q-51 0 -73 27t-24 90zM147 -131q268 408 451 694l524 826l80 -39l10 -29q-356 -530 -536 -819q-440 -696 -440 -697l-78 39zM795 219l4 70l352 481l6 2l80 -12v-449h113l10 -14l-12 -90l-111 4l8 -199l-8 -12l-125 -14 l-10 12q8 119 8 215zM913 311h197v256h-12z" />
<glyph unicode="&#xbf;" horiz-adv-x="737" d="M63 -158q0 66 18.5 118t60.5 96t73 69t96.5 68t91.5 61l7 18l-43 195l6 16l125 35l18 -8l49 -246l-6 -28l-244 -156q-117 -80 -116 -176q0 -236 415 -260l4 -23l-67 -108l-29 -9q-190 6 -324.5 103.5t-134.5 234.5zM315 823q0 53 36 90t93 37q55 0 85 -33.5t30 -82.5 q0 -53 -35 -90t-92 -37q-55 0 -86 33.5t-31 82.5z" />
<glyph unicode="&#xc0;" horiz-adv-x="1183" d="M-37 -6l17 96q57 6 91.5 40t67.5 118l400 1046l129 35h16q172 -637 326 -1098q25 -76 65.5 -106.5t130.5 -38.5l4 -8l-14 -84q-147 6 -217 6t-146.5 -5t-117.5 -10l-41 -5l-6 14l8 80q104 8 143 24.5t39 53.5q0 40 -18 98l-68 223q-49 2 -213 2q-98 0 -223 -16l-76 -213 q-18 -55 -18 -80q0 -84 123 -84h116l4 -8l-12 -88q-150 14 -285 14zM291 1612l33 98l18 12q215 -123 408 -223l-13 -49l-16 -10q-215 81 -422 151zM373 559h180q74 0 190 10l-161 537h-15z" />
<glyph unicode="&#xc1;" horiz-adv-x="1183" d="M-37 -6l17 96q57 6 91.5 40t67.5 118l400 1046l129 35h16q172 -637 326 -1098q25 -76 65.5 -106.5t130.5 -38.5l4 -8l-14 -84q-147 6 -217 6t-146.5 -5t-117.5 -10l-41 -5l-6 14l8 80q104 8 143 24.5t39 53.5q0 40 -18 98l-68 223q-49 2 -213 2q-98 0 -223 -16l-76 -213 q-18 -55 -18 -80q0 -84 123 -84h116l4 -8l-12 -88q-150 14 -285 14zM373 559h180q74 0 190 10l-161 537h-15zM473 1499l408 223l18 -12l33 -98l-8 -21q-207 -70 -422 -151l-17 10z" />
<glyph unicode="&#xc2;" horiz-adv-x="1183" d="M-37 -6l17 96q57 6 91.5 40t67.5 118l400 1046l129 35h16q172 -637 326 -1098q25 -76 65.5 -106.5t130.5 -38.5l4 -8l-14 -84q-147 6 -217 6t-146.5 -5t-117.5 -10l-41 -5l-6 14l8 80q104 8 143 24.5t39 53.5q0 40 -18 98l-68 223q-49 2 -213 2q-98 0 -223 -16l-76 -213 q-18 -55 -18 -80q0 -84 123 -84h116l4 -8l-12 -88q-150 14 -285 14zM307 1505l283 228h28q150 -127 283 -228l-29 -45l-18 -2q-137 80 -250 133q-106 -49 -250 -133l-18 2zM373 559h180q74 0 190 10l-161 537h-15z" />
<glyph unicode="&#xc3;" horiz-adv-x="1183" d="M-37 -6l17 96q57 6 91.5 40t67.5 118l400 1046l129 35h16q172 -637 326 -1098q25 -76 65.5 -106.5t130.5 -38.5l4 -8l-14 -84q-147 6 -217 6t-146.5 -5t-117.5 -10l-41 -5l-6 14l8 80q104 8 143 24.5t39 53.5q0 40 -18 98l-68 223q-49 2 -213 2q-98 0 -223 -16l-76 -213 q-18 -55 -18 -80q0 -84 123 -84h116l4 -8l-12 -88q-150 14 -285 14zM270 1475v10l156 162l33 8q35 0 153.5 -34t145.5 -34q20 0 53 23.5t54 46.5l22 22h12l45 -43v-10l-156 -162l-32 -8q-35 0 -154 34t-145 34q-23 0 -54.5 -22.5t-53.5 -46.5l-21 -23h-13zM373 559h180 q74 0 190 10l-161 537h-15z" />
<glyph unicode="&#xc4;" horiz-adv-x="1183" d="M-37 -6l17 96q57 6 91.5 40t67.5 118l400 1046l129 35h16q172 -637 326 -1098q25 -76 65.5 -106.5t130.5 -38.5l4 -8l-14 -84q-147 6 -217 6t-146.5 -5t-117.5 -10l-41 -5l-6 14l8 80q104 8 143 24.5t39 53.5q0 40 -18 98l-68 223q-49 2 -213 2q-98 0 -223 -16l-76 -213 q-18 -55 -18 -80q0 -84 123 -84h116l4 -8l-12 -88q-150 14 -285 14zM340 1573q0 43 29.5 72.5t72.5 29.5q39 0 61.5 -25.5t22.5 -62.5q0 -43 -29.5 -72.5t-72.5 -29.5q-39 0 -61.5 26.5t-22.5 61.5zM373 559h180q74 0 190 10l-161 537h-15zM680 1573q0 43 29.5 72.5 t72.5 29.5q39 0 61.5 -25.5t22.5 -62.5q0 -43 -29.5 -72.5t-72.5 -29.5q-39 0 -61.5 26.5t-22.5 61.5z" />
<glyph unicode="&#xc5;" horiz-adv-x="1183" d="M-37 -6l17 96q57 6 91.5 40t67.5 118l400 1046l129 35h16q172 -637 326 -1098q25 -76 65.5 -106.5t130.5 -38.5l4 -8l-14 -84q-147 6 -217 6t-146.5 -5t-117.5 -10l-41 -5l-6 14l8 80q104 8 143 24.5t39 53.5q0 40 -18 98l-68 223q-49 2 -213 2q-98 0 -223 -16l-76 -213 q-18 -55 -18 -80q0 -84 123 -84h116l4 -8l-12 -88q-150 14 -285 14zM373 559h180q74 0 190 10l-161 537h-15zM438 1544q0 76 47 124t125 48t118 -45t40 -110q0 -74 -47 -127.5t-127 -53.5q-74 0 -115 45t-41 119zM504 1556q0 -49 32.5 -73.5t71.5 -24.5q90 0 90 80 q0 45 -27.5 71.5t-76.5 26.5q-90 0 -90 -80z" />
<glyph unicode="&#xc6;" horiz-adv-x="1658" d="M-20 63q68 72 129 185l505 936q-8 33 -51 33l-69 -5l-5 9l15 90l38 -1q38 -1 120.5 -3t166.5 -2q446 0 611 24l6 -12q-35 -152 -47 -340l-99 -8q4 59 5 88q0 100 -51.5 122.5t-270.5 22.5q-96 0 -118.5 -10t-24.5 -53l63 -467l242 22l188 27l8 -10l-26 -109l-176 -6 l-224 -18l58 -347q12 -78 50 -108.5t122 -30.5q223 0 282.5 41t81.5 209l90 10l7 -10q-37 -170 -56 -344l-10 -12l-91 3q-91 3 -230.5 7t-229.5 4h-69q-70 0 -146 -5t-117 -10l-41 -5l-4 14l4 80q121 10 160 29.5t39 74.5q0 31 -14 135l-37 252l-203 -16l-186 -21l-146 -282 q-33 -63 -32 -94q0 -70 112 -70h117l-10 -96q-152 14 -283 14l-139 -8zM430 635l172 10l150 12l-62 447h-18z" />
<glyph unicode="&#xc7;" horiz-adv-x="1288" d="M82 608q0 311 202.5 516t512.5 205q76 0 165 -12t140 -25l51 -12l8 -12q-39 -154 -51 -342l-98 -8q6 55 6 100q0 190 -301 190q-207 0 -329 -144t-122 -388q0 -270 128 -434t341 -164q139 0 224 79t124 244l99 9q-41 -186 -56 -334l-12 -19q-156 -72 -373 -80l-26 -79 q8 -6 35.5 -24.5t41 -28t35 -28t32.5 -32.5t20.5 -32.5t9.5 -37.5q0 -78 -79 -135t-167 -57q-51 0 -95 20.5t-44 53t51 114.5h18q2 -55 32 -86t81 -31q41 0 69.5 22t28.5 56q0 54 -174 154l45 151q-264 12 -418.5 181.5t-154.5 449.5z" />
<glyph unicode="&#xc8;" horiz-adv-x="1210" d="M119 -20l12 94q92 12 126 48t34 124l2 860q0 66 -15.5 88.5t-60.5 22.5l-70 -5l-4 9l15 90q162 -6 284 -6q434 0 615 24l6 -12q-35 -152 -47 -340l-98 -8q4 59 4 88q0 100 -48.5 122.5t-265.5 22.5q-100 0 -120.5 -11t-22.5 -69l-16 -397q20 0 99 -1t111 -1l250 22l9 -10 l-29 -121q-176 6 -287 7q-76 0 -158 -15q-8 -295 -8 -391q0 -84 25.5 -103.5t136.5 -19.5q172 0 243.5 17.5t103.5 65.5t48 167l90 10l7 -10q-37 -170 -56 -344l-10 -12q-426 14 -621 14zM322 1612l32 98l19 12q215 -123 407 -223l-12 -49l-16 -10q-215 81 -422 151z" />
<glyph unicode="&#xc9;" horiz-adv-x="1210" d="M119 -20l12 94q92 12 126 48t34 124l2 860q0 66 -15.5 88.5t-60.5 22.5l-70 -5l-4 9l15 90q162 -6 284 -6q434 0 615 24l6 -12q-35 -152 -47 -340l-98 -8q4 59 4 88q0 100 -48.5 122.5t-265.5 22.5q-100 0 -120.5 -11t-22.5 -69l-16 -397q20 0 99 -1t111 -1l250 22l9 -10 l-29 -121q-176 6 -287 7q-76 0 -158 -15q-8 -295 -8 -391q0 -84 25.5 -103.5t136.5 -19.5q172 0 243.5 17.5t103.5 65.5t48 167l90 10l7 -10q-37 -170 -56 -344l-10 -12q-426 14 -621 14zM504 1499l407 223l19 -12l33 -98l-9 -21q-207 -70 -422 -151l-16 10z" />
<glyph unicode="&#xca;" horiz-adv-x="1210" d="M119 -20l12 94q92 12 126 48t34 124l2 860q0 66 -15.5 88.5t-60.5 22.5l-70 -5l-4 9l15 90q162 -6 284 -6q434 0 615 24l6 -12q-35 -152 -47 -340l-98 -8q4 59 4 88q0 100 -48.5 122.5t-265.5 22.5q-100 0 -120.5 -11t-22.5 -69l-16 -397q20 0 99 -1t111 -1l250 22l9 -10 l-29 -121q-176 6 -287 7q-76 0 -158 -15q-8 -295 -8 -391q0 -84 25.5 -103.5t136.5 -19.5q172 0 243.5 17.5t103.5 65.5t48 167l90 10l7 -10q-37 -170 -56 -344l-10 -12q-426 14 -621 14zM338 1505l283 228h28q150 -127 283 -228l-29 -45l-18 -2q-137 80 -250 133 q-106 -49 -250 -133l-18 2z" />
<glyph unicode="&#xcb;" horiz-adv-x="1210" d="M119 -20l12 94q92 12 126 48t34 124l2 860q0 66 -15.5 88.5t-60.5 22.5l-70 -5l-4 9l15 90q162 -6 284 -6q434 0 615 24l6 -12q-35 -152 -47 -340l-98 -8q4 59 4 88q0 100 -48.5 122.5t-265.5 22.5q-100 0 -120.5 -11t-22.5 -69l-16 -397q20 0 99 -1t111 -1l250 22l9 -10 l-29 -121q-176 6 -287 7q-76 0 -158 -15q-8 -295 -8 -391q0 -84 25.5 -103.5t136.5 -19.5q172 0 243.5 17.5t103.5 65.5t48 167l90 10l7 -10q-37 -170 -56 -344l-10 -12q-426 14 -621 14zM371 1573q0 43 29.5 72.5t72.5 29.5q39 0 61.5 -25.5t22.5 -62.5q0 -43 -29.5 -72.5 t-72.5 -29.5q-39 0 -61.5 26.5t-22.5 61.5zM711 1573q0 43 29.5 72.5t72.5 29.5q39 0 61.5 -25.5t22.5 -62.5q0 -43 -29.5 -72.5t-72.5 -29.5q-39 0 -61.5 26.5t-22.5 61.5z" />
<glyph unicode="&#xcc;" horiz-adv-x="739" d="M63 1612l33 98l19 12q215 -123 407 -223l-12 -49l-16 -10q-215 81 -422 151zM115 -25l12 95q96 18 130 54t34 122l2 860q0 66 -15.5 88.5t-60.5 22.5l-86 -5l-4 9l14 90q160 -6 244 -6l236 18l-9 -92q-86 -10 -114.5 -34t-32.5 -83q-29 -594 -29 -885q0 -84 18.5 -111.5 t71.5 -27.5l109 6l4 -8l-18 -94q-172 6 -269 6z" />
<glyph unicode="&#xcd;" horiz-adv-x="739" d="M115 -25l12 95q96 18 130 54t34 122l2 860q0 66 -15.5 88.5t-60.5 22.5l-86 -5l-4 9l14 90q160 -6 244 -6l236 18l-9 -92q-86 -10 -114.5 -34t-32.5 -83q-29 -594 -29 -885q0 -84 18.5 -111.5t71.5 -27.5l109 6l4 -8l-18 -94q-172 6 -269 6zM246 1499l407 223l19 -12 l33 -98l-9 -21q-207 -70 -422 -151l-16 10z" />
<glyph unicode="&#xce;" horiz-adv-x="739" d="M80 1505l282 228h29q150 -127 283 -228l-29 -45l-18 -2q-137 80 -250 133q-106 -49 -250 -133l-18 2zM115 -25l12 95q96 18 130 54t34 122l2 860q0 66 -15.5 88.5t-60.5 22.5l-86 -5l-4 9l14 90q160 -6 244 -6l236 18l-9 -92q-86 -10 -114.5 -34t-32.5 -83 q-29 -594 -29 -885q0 -84 18.5 -111.5t71.5 -27.5l109 6l4 -8l-18 -94q-172 6 -269 6z" />
<glyph unicode="&#xcf;" horiz-adv-x="739" d="M113 1573q0 43 29.5 72.5t72.5 29.5q39 0 61.5 -25.5t22.5 -62.5q0 -43 -29.5 -72.5t-72.5 -29.5q-39 0 -61.5 26.5t-22.5 61.5zM115 -25l12 95q96 18 130 54t34 122l2 860q0 66 -15.5 88.5t-60.5 22.5l-86 -5l-4 9l14 90q160 -6 244 -6l236 18l-9 -92 q-86 -10 -114.5 -34t-32.5 -83q-29 -594 -29 -885q0 -84 18.5 -111.5t71.5 -27.5l109 6l4 -8l-18 -94q-172 6 -269 6zM453 1573q0 43 29.5 72.5t72.5 29.5q39 0 61.5 -25.5t22.5 -62.5q0 -43 -29.5 -72.5t-72.5 -29.5q-39 0 -61.5 26.5t-22.5 61.5z" />
<glyph unicode="&#xd0;" horiz-adv-x="1460" d="M18 637l15 65h272l2 404q0 66 -15.5 88.5t-60.5 22.5l-69 -5l-4 9l14 90q137 -6 215 -6l311 8q295 0 484.5 -172t189.5 -441q0 -305 -204.5 -515t-503.5 -210q-190 25 -295 25q-45 0 -104.5 -6t-95.5 -12l-36 -7l12 95q106 20 133 62t27 190v301h-272zM453 268 q0 -113 52 -150.5t206 -37.5q221 0 348 152.5t127 418.5q0 270 -163 415.5t-466 145.5q-43 0 -57.5 -9t-16.5 -36l-18 -465h348l10 -14l-12 -65h-348z" />
<glyph unicode="&#xd1;" horiz-adv-x="1472" d="M111 1239l16 76q119 -10 176 -10l137 8q152 -236 324 -490t268 -390l96 -136h11v829q0 88 -68 88l-78 -2l-4 9l19 92q125 -8 194 -8l203 16l-10 -94q-72 -10 -105 -40t-35 -89l-28 -1151l-60 -29q-178 276 -368.5 559t-291.5 426l-101 144h-11l-10 -875q0 -45 14.5 -63.5 t49.5 -18.5l104 2l4 -8l-18 -92q-129 8 -217 8l-191 -16l10 94q125 14 127 129l27 895q0 63 -38 90t-140 37zM426 1475v10l156 162l32 8q35 0 154 -34t145 -34q20 0 53 23.5t55 46.5l21 22h13l45 -43v-10l-156 -162l-33 -8q-35 0 -153.5 34t-145.5 34q-23 0 -54.5 -22.5 t-52.5 -46.5l-22 -23h-12z" />
<glyph unicode="&#xd2;" horiz-adv-x="1417" d="M82 608q0 303 194.5 512t479.5 209q256 0 417.5 -176t161.5 -455q0 -305 -197.5 -514t-488.5 -209q-252 0 -409.5 176.5t-157.5 456.5zM258 674q0 -262 127 -428t328 -166q195 0 317.5 148.5t122.5 383.5q0 262 -130 428t-337 166q-190 0 -309 -147.5t-119 -384.5z M387 1612l33 98l18 12q215 -123 408 -223l-12 -49l-17 -10q-215 81 -422 151z" />
<glyph unicode="&#xd3;" horiz-adv-x="1417" d="M82 608q0 303 194.5 512t479.5 209q256 0 417.5 -176t161.5 -455q0 -305 -197.5 -514t-488.5 -209q-252 0 -409.5 176.5t-157.5 456.5zM258 674q0 -262 127 -428t328 -166q195 0 317.5 148.5t122.5 383.5q0 262 -130 428t-337 166q-190 0 -309 -147.5t-119 -384.5z M569 1499l408 223l18 -12l33 -98l-8 -21q-207 -70 -422 -151l-16 10z" />
<glyph unicode="&#xd4;" horiz-adv-x="1417" d="M82 608q0 303 194.5 512t479.5 209q256 0 417.5 -176t161.5 -455q0 -305 -197.5 -514t-488.5 -209q-252 0 -409.5 176.5t-157.5 456.5zM258 674q0 -262 127 -428t328 -166q195 0 317.5 148.5t122.5 383.5q0 262 -130 428t-337 166q-190 0 -309 -147.5t-119 -384.5z M403 1505l283 228h29q150 -127 282 -228l-28 -45l-19 -2q-137 80 -250 133q-106 -49 -249 -133l-19 2z" />
<glyph unicode="&#xd5;" horiz-adv-x="1417" d="M82 608q0 303 194.5 512t479.5 209q256 0 417.5 -176t161.5 -455q0 -305 -197.5 -514t-488.5 -209q-252 0 -409.5 176.5t-157.5 456.5zM258 674q0 -262 127 -428t328 -166q195 0 317.5 148.5t122.5 383.5q0 262 -130 428t-337 166q-190 0 -309 -147.5t-119 -384.5z M367 1475v10l155 162l33 8q35 0 153.5 -34t145.5 -34q20 0 53 23.5t55 46.5l21 22h12l45 -43v-10l-155 -162l-33 -8q-35 0 -153.5 34t-145.5 34q-23 0 -54.5 -22.5t-53.5 -46.5l-21 -23h-12z" />
<glyph unicode="&#xd6;" horiz-adv-x="1417" d="M82 608q0 303 194.5 512t479.5 209q256 0 417.5 -176t161.5 -455q0 -305 -197.5 -514t-488.5 -209q-252 0 -409.5 176.5t-157.5 456.5zM258 674q0 -262 127 -428t328 -166q195 0 317.5 148.5t122.5 383.5q0 262 -130 428t-337 166q-190 0 -309 -147.5t-119 -384.5z M436 1573q0 43 30 72.5t73 29.5q39 0 61.5 -25.5t22.5 -62.5q0 -43 -30 -72.5t-73 -29.5q-39 0 -61.5 26.5t-22.5 61.5zM776 1573q0 43 30 72.5t73 29.5q39 0 61.5 -25.5t22.5 -62.5q0 -43 -30 -72.5t-73 -29.5q-39 0 -61.5 26.5t-22.5 61.5z" />
<glyph unicode="&#xd7;" horiz-adv-x="1036" d="M139 829l4 23l88 53q160 -162 287 -289l285 304l22 -7l64 -86l-291 -292q118 -116 297 -277l-6 -25l-86 -61l-285 283l-287 -291l-22 6l-55 86q156 152 282 279z" />
<glyph unicode="&#xd8;" horiz-adv-x="1417" d="M82 608q0 303 194.5 512t479.5 209q121 0 223 -43l86 164l59 -14l6 -25l-83 -156q135 -78 211.5 -223t76.5 -334q0 -305 -197.5 -514t-488.5 -209q-129 0 -248 54l-122 -230l-56 13l-4 20l121 231q-123 80 -190.5 222.5t-67.5 322.5zM258 674q0 -301 158 -465l489 936 q-100 61 -219 61q-190 0 -309 -147t-119 -385zM469 160q109 -80 244 -80q195 0 317.5 148.5t122.5 383.5q0 322 -188 490z" />
<glyph unicode="&#xd9;" horiz-adv-x="1394" d="M72 1221l14 90q154 -6 231 -6q39 0 93.5 5t88.5 9l33 4l-8 -92q-76 -10 -101.5 -33.5t-29.5 -83.5l-16 -602q0 -203 88 -311.5t254 -108.5q168 0 256 89t88 257l-12 668q-4 72 -17.5 91.5t-58.5 19.5l-88 -5l-4 9l14 90q154 -6 231 -6q39 0 89.5 5t79.5 9l30 4l-8 -92 q-90 -12 -115.5 -32.5t-25.5 -84.5v-688q0 -215 -133.5 -333t-374.5 -118q-215 0 -332 118t-117 335v678q0 66 -15.5 88.5t-60.5 22.5l-69 -5zM397 1612l33 98l19 12q215 -123 407 -223l-12 -49l-17 -10q-214 81 -421 151z" />
<glyph unicode="&#xda;" horiz-adv-x="1394" d="M72 1221l14 90q154 -6 231 -6q39 0 93.5 5t88.5 9l33 4l-8 -92q-76 -10 -101.5 -33.5t-29.5 -83.5l-16 -602q0 -203 88 -311.5t254 -108.5q168 0 256 89t88 257l-12 668q-4 72 -17.5 91.5t-58.5 19.5l-88 -5l-4 9l14 90q154 -6 231 -6q39 0 89.5 5t79.5 9l30 4l-8 -92 q-90 -12 -115.5 -32.5t-25.5 -84.5v-688q0 -215 -133.5 -333t-374.5 -118q-215 0 -332 118t-117 335v678q0 66 -15.5 88.5t-60.5 22.5l-69 -5zM580 1499l407 223l19 -12l32 -98l-8 -21q-207 -70 -422 -151l-16 10z" />
<glyph unicode="&#xdb;" horiz-adv-x="1394" d="M72 1221l14 90q154 -6 231 -6q39 0 93.5 5t88.5 9l33 4l-8 -92q-76 -10 -101.5 -33.5t-29.5 -83.5l-16 -602q0 -203 88 -311.5t254 -108.5q168 0 256 89t88 257l-12 668q-4 72 -17.5 91.5t-58.5 19.5l-88 -5l-4 9l14 90q154 -6 231 -6q39 0 89.5 5t79.5 9l30 4l-8 -92 q-90 -12 -115.5 -32.5t-25.5 -84.5v-688q0 -215 -133.5 -333t-374.5 -118q-215 0 -332 118t-117 335v678q0 66 -15.5 88.5t-60.5 22.5l-69 -5zM414 1505l282 228h29q150 -127 283 -228l-29 -45l-18 -2q-137 80 -250 133q-106 -49 -250 -133l-19 2z" />
<glyph unicode="&#xdc;" horiz-adv-x="1394" d="M72 1221l14 90q154 -6 231 -6q39 0 93.5 5t88.5 9l33 4l-8 -92q-76 -10 -101.5 -33.5t-29.5 -83.5l-16 -602q0 -203 88 -311.5t254 -108.5q168 0 256 89t88 257l-12 668q-4 72 -17.5 91.5t-58.5 19.5l-88 -5l-4 9l14 90q154 -6 231 -6q39 0 89.5 5t79.5 9l30 4l-8 -92 q-90 -12 -115.5 -32.5t-25.5 -84.5v-688q0 -215 -133.5 -333t-374.5 -118q-215 0 -332 118t-117 335v678q0 66 -15.5 88.5t-60.5 22.5l-69 -5zM446 1573q0 43 30 72.5t73 29.5q39 0 61.5 -25.5t22.5 -62.5q0 -43 -30 -72.5t-73 -29.5q-39 0 -61.5 26.5t-22.5 61.5zM786 1573 q0 43 30 72.5t73 29.5q39 0 61.5 -25.5t22.5 -62.5q0 -43 -30 -72.5t-73 -29.5q-39 0 -61.5 26.5t-22.5 61.5z" />
<glyph unicode="&#xdd;" horiz-adv-x="1101" d="M-39 1231l12 80q131 -6 226 -6l290 16l7 -14l-7 -72q-92 -8 -123.5 -23.5t-31.5 -50.5q0 -27 57.5 -159t113.5 -250.5t58 -118.5h10l234 434q33 59 33 102q0 53 -129 62l-4 8l12 80q152 -14 227 -14l189 8l8 -15l-13 -75q-94 -18 -134 -57.5t-113 -171.5q-13 -25 -21 -38 l-205 -360q-20 -37 -29.5 -88t-11.5 -91t-4 -188q-2 -80 17.5 -109.5t72.5 -29.5l101 6l4 -8l-19 -94q-170 6 -260 6l-233 -25l12 95q106 20 133 61t27 160v90q0 113 -59 231l-185 375q-70 143 -98 174q-48 52 -160 62zM453 1499l407 223l19 -12l32 -98l-8 -21 q-207 -70 -422 -151l-16 10z" />
<glyph unicode="&#xde;" horiz-adv-x="1112" d="M115 -25l12 95q96 18 130 54t34 122l2 860q0 66 -15.5 88.5t-60.5 22.5l-86 -5l-4 9l14 90q160 -6 244 -6l236 18l-9 -92q-86 -10 -114.5 -34t-32.5 -83q0 -16 -2 -36.5t-2 -27.5v-20h168q211 0 324.5 -86t113.5 -248q0 -158 -145.5 -275.5t-339.5 -117.5h-146v-74 q0 -84 18.5 -111.5t71.5 -27.5l109 6l4 -8l-18 -94q-172 6 -269 6zM438 428q92 -31 209 -35q248 31 248 264q0 141 -92 207t-293 66q-51 -1 -55 -17q-12 -287 -17 -485z" />
<glyph unicode="&#xdf;" horiz-adv-x="1210" d="M84 842l14 69l123 23q0 276 125 431t348 155q121 0 216.5 -77t95.5 -173q0 -78 -40 -146.5t-89.5 -110.5t-89 -95.5t-39.5 -104.5q0 -59 69.5 -116.5t152.5 -101.5t152.5 -122t69.5 -172q0 -131 -108.5 -228.5t-256.5 -97.5q-100 0 -168.5 32t-68.5 77q0 29 26.5 87 t51.5 89h28q0 -92 51.5 -143t143.5 -51q61 0 108.5 52t47.5 118q0 59 -46.5 110t-113 92t-133 85t-112.5 108.5t-46 142.5q0 63 42 126t92 103.5t92 95t42 105.5q0 90 -70.5 142.5t-189.5 52.5q-117 0 -173 -92.5t-58 -286.5l-13 -819q-4 -113 80 -113l97 2l4 -8l-15 -86 q-141 4 -202 4l-230 -8l10 80q72 8 94.5 39.5t22.5 109.5v524q-2 45 -29.5 62.5t-99.5 21.5z" />
<glyph unicode="&#xe0;" horiz-adv-x="954" d="M84 238q0 59 29.5 104t79.5 59l387 107l4 90q0 102 -47.5 159.5t-133.5 57.5q-129 -3 -245 -102l-11 6l-24 88q246 143 334 143q133 0 208.5 -69.5t75.5 -194.5q0 -31 -18 -218t-18 -253q0 -94 83 -94q65 0 123 51l29 -33q-8 -14 -23.5 -36.5t-62.5 -66.5t-92 -61 q-168 0 -182 166l-9 2q-160 -160 -225 -159q-115 0 -188.5 71.5t-73.5 182.5zM188 1374l78 84l21 4q160 -193 307 -352l-41 -39l-18 -4q-76 70 -162 140.5t-134 107.5l-49 37zM240 260q0 -59 39.5 -98t101.5 -39q88 0 186 98l8 209l-276 -84q-59 -18 -59 -86z" />
<glyph unicode="&#xe1;" horiz-adv-x="954" d="M84 238q0 59 29.5 104t79.5 59l387 107l4 90q0 102 -47.5 159.5t-133.5 57.5q-129 -3 -245 -102l-11 6l-24 88q246 143 334 143q133 0 208.5 -69.5t75.5 -194.5q0 -31 -18 -218t-18 -253q0 -94 83 -94q65 0 123 51l29 -33q-8 -14 -23.5 -36.5t-62.5 -66.5t-92 -61 q-168 0 -182 166l-9 2q-160 -160 -225 -159q-115 0 -188.5 71.5t-73.5 182.5zM240 260q0 -59 39.5 -98t101.5 -39q88 0 186 98l8 209l-276 -84q-59 -18 -59 -86zM305 1110q66 72 142.5 160t120.5 141l44 53l21 -4l78 -84l-2 -22q-172 -131 -344 -287l-19 4z" />
<glyph unicode="&#xe2;" horiz-adv-x="954" d="M84 238q0 59 29.5 104t79.5 59l387 107l4 90q0 102 -47.5 159.5t-133.5 57.5q-129 -3 -245 -102l-11 6l-24 88q246 143 334 143q133 0 208.5 -69.5t75.5 -194.5q0 -31 -18 -218t-18 -253q0 -94 83 -94q65 0 123 51l29 -33q-8 -14 -23.5 -36.5t-62.5 -66.5t-92 -61 q-168 0 -182 166l-9 2q-160 -160 -225 -159q-115 0 -188.5 71.5t-73.5 182.5zM150 1126q59 61 129.5 140.5t111.5 126.5l41 47h29q150 -174 282 -314l-28 -45l-19 -2q-45 39 -250 199q-160 -119 -249 -199l-19 2zM240 260q0 -59 39.5 -98t101.5 -39q88 0 186 98l8 209 l-276 -84q-59 -18 -59 -86z" />
<glyph unicode="&#xe3;" horiz-adv-x="954" d="M84 238q0 59 29.5 104t79.5 59l387 107l4 90q0 102 -47.5 159.5t-133.5 57.5q-129 -3 -245 -102l-11 6l-24 88q246 143 334 143q133 0 208.5 -69.5t75.5 -194.5q0 -31 -18 -218t-18 -253q0 -94 83 -94q65 0 123 51l29 -33q-8 -14 -23.5 -36.5t-62.5 -66.5t-92 -61 q-168 0 -182 166l-9 2q-160 -160 -225 -159q-115 0 -188.5 71.5t-73.5 182.5zM109 1171v11l155 182l33 8q35 0 153.5 -33.5t145.5 -33.5q20 0 53 27.5t54 56.5l22 28h12l45 -43v-10l-155 -182l-33 -8q-35 0 -153.5 33.5t-145.5 33.5q-23 0 -54.5 -28.5t-53.5 -56.5l-21 -28 h-12zM240 260q0 -59 39.5 -98t101.5 -39q88 0 186 98l8 209l-276 -84q-59 -18 -59 -86z" />
<glyph unicode="&#xe4;" horiz-adv-x="954" d="M84 238q0 59 29.5 104t79.5 59l387 107l4 90q0 102 -47.5 159.5t-133.5 57.5q-129 -3 -245 -102l-11 6l-24 88q246 143 334 143q133 0 208.5 -69.5t75.5 -194.5q0 -31 -18 -218t-18 -253q0 -94 83 -94q65 0 123 51l29 -33q-8 -14 -23.5 -36.5t-62.5 -66.5t-92 -61 q-168 0 -182 166l-9 2q-160 -160 -225 -159q-115 0 -188.5 71.5t-73.5 182.5zM180 1247q0 43 30 73t73 30q39 0 61.5 -26t22.5 -62q0 -43 -30 -73t-73 -30q-39 0 -61.5 26.5t-22.5 61.5zM240 260q0 -59 39.5 -98t101.5 -39q88 0 186 98l8 209l-276 -84q-59 -18 -59 -86z M520 1247q0 43 30 73t73 30q39 0 61.5 -26t22.5 -62q0 -43 -30 -73t-73 -30q-39 0 -61.5 26.5t-22.5 61.5z" />
<glyph unicode="&#xe5;" horiz-adv-x="954" d="M84 238q0 59 29.5 104t79.5 59l387 107l4 90q0 102 -47.5 159.5t-133.5 57.5q-129 -3 -245 -102l-11 6l-24 88q246 143 334 143q133 0 208.5 -69.5t75.5 -194.5q0 -31 -18 -218t-18 -253q0 -94 83 -94q65 0 123 51l29 -33q-8 -14 -23.5 -36.5t-62.5 -66.5t-92 -61 q-168 0 -182 166l-9 2q-160 -160 -225 -159q-115 0 -188.5 71.5t-73.5 182.5zM240 260q0 -59 39.5 -98t101.5 -39q88 0 186 98l8 209l-276 -84q-59 -18 -59 -86zM281 1278q0 76 47 124t125 48q80 0 118.5 -45t38.5 -111q0 -74 -47 -127t-127 -53q-74 0 -114.5 45t-40.5 119z M346 1290q0 -49 33 -73.5t72 -24.5q90 0 90 80q0 45 -28 71.5t-77 26.5q-90 0 -90 -80z" />
<glyph unicode="&#xe6;" horiz-adv-x="1337" d="M61 238q0 59 30 103t79 58l391 107l2 102q0 213 -176 213q-59 0 -121.5 -27.5t-96.5 -54.5l-34 -26l-10 6l-25 88q248 143 334 143q201 0 254 -164q125 164 311 164q131 0 206 -76.5t75 -214.5l-4 -38l-19 -29l-552 -131q10 -158 95 -256.5t210 -98.5q55 0 117.5 18.5 t98.5 36.5l36 17l12 -4l22 -59q-20 -16 -55 -39t-119 -62t-139 -39q-129 0 -227.5 57.5t-147.5 162.5q-172 -182 -284 -211q-115 0 -189 71.5t-74 182.5zM211 260q0 -57 41 -100t96 -43q86 0 236 139q-25 76 -25 174l-283 -84q-66 -18 -65 -86zM702 537l359 102q41 12 41 37 q0 68 -43 114t-107 46q-113 0 -181.5 -79t-68.5 -206v-14z" />
<glyph unicode="&#xe7;" horiz-adv-x="868" d="M74 428q0 221 136 371.5t337 150.5q131 0 239 -39l7 -14q-37 -123 -43 -283l-84 -6v64q0 76 -46.5 122t-121.5 46q-125 0 -192.5 -89t-67.5 -253q0 -178 74.5 -281.5t203.5 -103.5q114 0 232 67l12 -4l22 -63q-160 -121 -262 -136l-26 -79q8 -6 35.5 -24.5t41 -28t35 -28 t32.5 -32.5t20.5 -32.5t9.5 -37.5q0 -78 -79 -135t-167 -57q-51 0 -95 20.5t-44 53t51 114.5h18q2 -55 32 -86t81 -31q41 0 69.5 22t28.5 56q0 54 -174 154l47 154q-168 20 -265 140t-97 308z" />
<glyph unicode="&#xe8;" horiz-adv-x="917" d="M74 428q0 211 135 366.5t317 155.5q305 0 305 -297l-12 -100l-26 -25h-566v-32q0 -172 83 -276.5t220 -104.5q126 0 252 63l13 -4l22 -59q-20 -16 -56 -39t-119 -62t-138 -39q-193 0 -311.5 125t-118.5 328zM236 604l370 19q31 4 41 14t10 41q0 82 -44 125t-126 43 q-96 0 -164.5 -65.5t-86.5 -176.5zM238 1374l77 84l21 4q160 -193 307 -352l-41 -39l-18 -4q-76 70 -162 140.5t-134 107.5l-48 37z" />
<glyph unicode="&#xe9;" horiz-adv-x="917" d="M74 428q0 211 135 366.5t317 155.5q305 0 305 -297l-12 -100l-26 -25h-566v-32q0 -172 83 -276.5t220 -104.5q126 0 252 63l13 -4l22 -59q-20 -16 -56 -39t-119 -62t-138 -39q-193 0 -311.5 125t-118.5 328zM236 604l370 19q31 4 41 14t10 41q0 82 -44 125t-126 43 q-96 0 -164.5 -65.5t-86.5 -176.5zM354 1110q66 72 142.5 160t120.5 141l45 53l20 -4l78 -84l-2 -22q-172 -131 -344 -287l-19 4z" />
<glyph unicode="&#xea;" horiz-adv-x="917" d="M74 428q0 211 135 366.5t317 155.5q305 0 305 -297l-12 -100l-26 -25h-566v-32q0 -172 83 -276.5t220 -104.5q126 0 252 63l13 -4l22 -59q-20 -16 -56 -39t-119 -62t-138 -39q-193 0 -311.5 125t-118.5 328zM199 1126q59 61 129.5 140.5t111.5 126.5l41 47h29 q150 -174 283 -314l-29 -45l-19 -2q-45 39 -249 199q-160 -119 -250 -199l-19 2zM236 604l370 19q31 4 41 14t10 41q0 82 -44 125t-126 43q-96 0 -164.5 -65.5t-86.5 -176.5z" />
<glyph unicode="&#xeb;" horiz-adv-x="917" d="M74 428q0 211 135 366.5t317 155.5q305 0 305 -297l-12 -100l-26 -25h-566v-32q0 -172 83 -276.5t220 -104.5q126 0 252 63l13 -4l22 -59q-20 -16 -56 -39t-119 -62t-138 -39q-193 0 -311.5 125t-118.5 328zM229 1247q0 43 30 73t73 30q39 0 61.5 -26t22.5 -62 q0 -43 -30 -73t-73 -30q-39 0 -61.5 26.5t-22.5 61.5zM236 604l370 19q31 4 41 14t10 41q0 82 -44 125t-126 43q-96 0 -164.5 -65.5t-86.5 -176.5zM569 1247q0 43 30 73t73 30q39 0 61.5 -26t22.5 -62q0 -43 -30 -73t-73 -30q-39 0 -61.5 26.5t-22.5 61.5z" />
<glyph unicode="&#xec;" horiz-adv-x="577" d="M12 1374l78 84l21 4q160 -193 307 -352l-41 -39l-19 -4q-76 70 -161.5 140.5t-134.5 107.5l-48 37zM86 815l8 76q61 8 135 23.5t117 25.5l43 10l10 -24q-18 -43 -32.5 -263.5t-14.5 -461.5q0 -115 72 -115l72 4l4 -8l-17 -88q-106 6 -182 6q-39 0 -91 -6t-86 -12l-34 -7 l8 84q115 31 115 134v520q0 111 -76 110z" />
<glyph unicode="&#xed;" horiz-adv-x="577" d="M86 815l8 76q61 8 135 23.5t117 25.5l43 10l10 -24q-18 -43 -32.5 -263.5t-14.5 -461.5q0 -115 72 -115l72 4l4 -8l-17 -88q-106 6 -182 6q-39 0 -91 -6t-86 -12l-34 -7l8 84q115 31 115 134v520q0 111 -76 110zM143 1110q66 72 142.5 160t121.5 141l44 53l20 -4l78 -84 l-2 -22q-172 -131 -344 -287l-19 4z" />
<glyph unicode="&#xee;" horiz-adv-x="577" d="M-4 1124q59 61 130 140t112 127l41 47h28q150 -174 283 -314l-29 -45l-18 -2q-45 39 -250 199q-160 -121 -250 -199l-18 2zM86 815l8 76q61 8 135 23.5t117 25.5l43 10l10 -24q-18 -43 -32.5 -263.5t-14.5 -461.5q0 -115 72 -115l72 4l4 -8l-17 -88q-106 6 -182 6 q-39 0 -91 -6t-86 -12l-34 -7l8 84q115 31 115 134v520q0 111 -76 110z" />
<glyph unicode="&#xef;" horiz-adv-x="577" d="M23 1247q0 43 29.5 73t72.5 30q39 0 61.5 -26t22.5 -62q0 -43 -30 -73t-73 -30q-39 0 -61 26.5t-22 61.5zM86 815l8 76q61 8 135 23.5t117 25.5l43 10l10 -24q-18 -43 -32.5 -263.5t-14.5 -461.5q0 -115 72 -115l72 4l4 -8l-17 -88q-106 6 -182 6q-39 0 -91 -6t-86 -12 l-34 -7l8 84q115 31 115 134v520q0 111 -76 110zM362 1247q0 43 30 73t73 30q39 0 61.5 -26t22.5 -62q0 -43 -30 -73t-73 -30q-39 0 -61.5 26.5t-22.5 61.5z" />
<glyph unicode="&#xf0;" horiz-adv-x="1040" d="M88 422q0 209 134 357.5t323 148.5q29 0 66.5 -13.5t61.5 -26.5l23 -14l4 5q-74 168 -194 292l-273 -131l-18 7l-8 61l242 119q-143 123 -340 215l30 67l21 9q227 -98 397 -238l283 137l16 -10l8 -59l-248 -121q336 -313 336 -731q0 -219 -131 -370t-323 -151 q-182 0 -296 124t-114 323zM252 481q0 -180 85 -292.5t218 -112.5q106 0 167.5 93t61.5 253q0 168 -36 311q-90 84 -236 84q-121 0 -190.5 -89t-69.5 -247z" />
<glyph unicode="&#xf1;" horiz-adv-x="1150" d="M80 825l6 68l287 59l12 -16q-18 -66 -23 -135l5 -6q233 156 301 155q129 0 204.5 -71.5t75.5 -192.5q0 -31 -14 -225.5t-14 -259.5q0 -115 71 -115l72 4l4 -8l-16 -88q-106 6 -183 6q-39 0 -91 -6t-86 -12l-34 -7l9 84q115 31 114 134l8 405q0 102 -44 157.5t-126 55.5 q-111 0 -251 -106q-18 -424 -19 -504q0 -63 16.5 -89t57.5 -26l72 4l4 -8l-19 -88q-111 6 -186 6l-203 -12l10 84q59 10 84 36.5t25 84.5v499q0 70 -22.5 97.5t-77.5 27.5h-23zM252 1171v11l156 182l32 8q35 0 154 -33.5t145 -33.5q20 0 53 27.5t55 56.5l21 28h13l45 -43 v-10l-156 -182l-33 -8q-35 0 -153.5 33.5t-145.5 33.5q-23 0 -54.5 -28.5t-52.5 -56.5l-22 -28h-12z" />
<glyph unicode="&#xf2;" horiz-adv-x="1019" d="M74 430q0 219 137 369.5t338 150.5q176 0 286.5 -127t110.5 -327q0 -219 -137 -370t-338 -151q-176 0 -286.5 127t-110.5 328zM238 489q0 -184 80.5 -298.5t209.5 -114.5q115 0 182.5 93t67.5 253q0 184 -81 301t-210 117q-115 0 -182 -94.5t-67 -256.5zM256 1374l78 84 l20 4q160 -193 308 -352l-41 -39l-19 -4q-76 70 -162 140.5t-134 107.5l-48 37z" />
<glyph unicode="&#xf3;" horiz-adv-x="1019" d="M74 430q0 219 137 369.5t338 150.5q176 0 286.5 -127t110.5 -327q0 -219 -137 -370t-338 -151q-176 0 -286.5 127t-110.5 328zM238 489q0 -184 80.5 -298.5t209.5 -114.5q115 0 182.5 93t67.5 253q0 184 -81 301t-210 117q-115 0 -182 -94.5t-67 -256.5zM373 1110 q66 72 142.5 160t120.5 141l44 53l20 -4l78 -84l-2 -22q-172 -131 -344 -287l-18 4z" />
<glyph unicode="&#xf4;" horiz-adv-x="1019" d="M74 430q0 219 137 369.5t338 150.5q176 0 286.5 -127t110.5 -327q0 -219 -137 -370t-338 -151q-176 0 -286.5 127t-110.5 328zM217 1126q59 61 130 140.5t112 126.5l41 47h28q150 -174 283 -314l-29 -45l-18 -2q-45 39 -250 199q-160 -119 -250 -199l-18 2zM238 489 q0 -184 80.5 -298.5t209.5 -114.5q115 0 182.5 93t67.5 253q0 184 -81 301t-210 117q-115 0 -182 -94.5t-67 -256.5z" />
<glyph unicode="&#xf5;" horiz-adv-x="1019" d="M74 430q0 219 137 369.5t338 150.5q176 0 286.5 -127t110.5 -327q0 -219 -137 -370t-338 -151q-176 0 -286.5 127t-110.5 328zM176 1171v11l156 182l33 8q35 0 153.5 -33.5t145.5 -33.5q20 0 53 27.5t54 56.5l22 28h12l45 -43v-10l-156 -182l-32 -8q-35 0 -154 33.5 t-146 33.5q-23 0 -54.5 -28.5t-52.5 -56.5l-22 -28h-12zM238 489q0 -184 80.5 -298.5t209.5 -114.5q115 0 182.5 93t67.5 253q0 184 -81 301t-210 117q-115 0 -182 -94.5t-67 -256.5z" />
<glyph unicode="&#xf6;" horiz-adv-x="1019" d="M74 430q0 219 137 369.5t338 150.5q176 0 286.5 -127t110.5 -327q0 -219 -137 -370t-338 -151q-176 0 -286.5 127t-110.5 328zM238 489q0 -184 80.5 -298.5t209.5 -114.5q115 0 182.5 93t67.5 253q0 184 -81 301t-210 117q-115 0 -182 -94.5t-67 -256.5zM248 1247 q0 43 29.5 73t72.5 30q39 0 61.5 -26t22.5 -62q0 -43 -29.5 -73t-72.5 -30q-39 0 -61.5 26.5t-22.5 61.5zM588 1247q0 43 29.5 73t72.5 30q39 0 61.5 -26t22.5 -62q0 -43 -29.5 -73t-72.5 -30q-39 0 -61.5 26.5t-22.5 61.5z" />
<glyph unicode="&#xf7;" horiz-adv-x="1036" d="M37 498l22 100q307 -2 490 -2l438 12l12 -20l-16 -105l-465 -2l-469 -2zM387 176q0 53 35 90t92 37q55 0 86 -33.5t31 -83.5q0 -53 -36 -90t-93 -37q-55 0 -85 34t-30 83zM387 891q0 53 35 90t92 37q55 0 86 -34t31 -83q0 -53 -36 -90t-93 -37q-55 0 -85 34t-30 83z" />
<glyph unicode="&#xf8;" horiz-adv-x="1019" d="M74 430q0 219 137 369.5t338 150.5q80 0 149 -28l97 182l59 -14l6 -25l-96 -178q182 -125 182 -391q0 -219 -137 -370t-338 -151q-82 0 -166 35l-112 -211l-56 13l-4 20l111 213q-170 125 -170 385zM238 489q0 -188 81 -301l312 603q-66 49 -144 49q-115 0 -182 -94.5 t-67 -256.5zM369 133q69 -57 159 -57q115 0 182.5 93t67.5 253q0 197 -92 315z" />
<glyph unicode="&#xf9;" horiz-adv-x="1107" d="M57 813l9 76q127 20 292 61l13 -24q-20 -53 -37 -241.5t-17 -367.5q0 -201 164 -200q43 0 95.5 22.5t75 38t77.5 55.5v476q0 61 -22.5 85.5t-79.5 24.5l-49 -2l8 74q145 20 315 59l12 -24q-18 -47 -31.5 -256t-13.5 -455q0 -94 84 -94q65 0 123 51l29 -33 q-12 -18 -31.5 -45.5t-68 -73t-78.5 -45.5q-168 0 -183 166l-10 4q-221 -170 -284 -170q-131 0 -202 61.5t-71 176.5l8 498q0 111 -75 110zM266 1374l78 84l21 4q160 -193 307 -352l-41 -39l-19 -4q-76 70 -161.5 140.5t-134.5 107.5l-48 37z" />
<glyph unicode="&#xfa;" horiz-adv-x="1107" d="M57 813l9 76q127 20 292 61l13 -24q-20 -53 -37 -241.5t-17 -367.5q0 -201 164 -200q43 0 95.5 22.5t75 38t77.5 55.5v476q0 61 -22.5 85.5t-79.5 24.5l-49 -2l8 74q145 20 315 59l12 -24q-18 -47 -31.5 -256t-13.5 -455q0 -94 84 -94q65 0 123 51l29 -33 q-12 -18 -31.5 -45.5t-68 -73t-78.5 -45.5q-168 0 -183 166l-10 4q-221 -170 -284 -170q-131 0 -202 61.5t-71 176.5l8 498q0 111 -75 110zM383 1110q66 72 142.5 160t120.5 141l44 53l21 -4l77 -84l-2 -22q-172 -131 -344 -287l-18 4z" />
<glyph unicode="&#xfb;" horiz-adv-x="1107" d="M57 813l9 76q127 20 292 61l13 -24q-20 -53 -37 -241.5t-17 -367.5q0 -201 164 -200q43 0 95.5 22.5t75 38t77.5 55.5v476q0 61 -22.5 85.5t-79.5 24.5l-49 -2l8 74q145 20 315 59l12 -24q-18 -47 -31.5 -256t-13.5 -455q0 -94 84 -94q65 0 123 51l29 -33 q-12 -18 -31.5 -45.5t-68 -73t-78.5 -45.5q-168 0 -183 166l-10 4q-221 -170 -284 -170q-131 0 -202 61.5t-71 176.5l8 498q0 111 -75 110zM227 1126q59 61 130 140.5t112 126.5l41 47h29q150 -174 282 -314l-28 -45l-19 -2q-45 39 -250 199q-160 -119 -250 -199l-18 2z" />
<glyph unicode="&#xfc;" horiz-adv-x="1107" d="M57 813l9 76q127 20 292 61l13 -24q-20 -53 -37 -241.5t-17 -367.5q0 -201 164 -200q43 0 95.5 22.5t75 38t77.5 55.5v476q0 61 -22.5 85.5t-79.5 24.5l-49 -2l8 74q145 20 315 59l12 -24q-18 -47 -31.5 -256t-13.5 -455q0 -94 84 -94q65 0 123 51l29 -33 q-12 -18 -31.5 -45.5t-68 -73t-78.5 -45.5q-168 0 -183 166l-10 4q-221 -170 -284 -170q-131 0 -202 61.5t-71 176.5l8 498q0 111 -75 110zM258 1247q0 43 29.5 73t72.5 30q39 0 61.5 -26t22.5 -62q0 -43 -29.5 -73t-72.5 -30q-39 0 -61.5 26.5t-22.5 61.5zM598 1247 q0 43 29.5 73t72.5 30q39 0 61.5 -26t22.5 -62q0 -43 -29.5 -73t-72.5 -30q-39 0 -61.5 26.5t-22.5 61.5z" />
<glyph unicode="&#xfd;" horiz-adv-x="913" d="M-18 860l12 68q123 -2 170 -2q53 0 114.5 4t96.5 7l35 3l4 -10l-13 -64q-70 -2 -95 -13t-25 -40q0 -72 182 -627h8q240 573 240 619q0 53 -78 53h-94l-4 8l12 68q106 -8 207 -8l174 2l-15 -76q-45 -8 -68.5 -31.5t-45.5 -85.5l-264 -622q-166 -381 -249 -495t-212 -112 q-16 0 -53 48.5t-37 68.5l10 15q119 0 224.5 95t174.5 265q-129 406 -268 756q-47 96 -139 98zM330 1110q66 72 142.5 160t120.5 141l44 53l20 -4l78 -84l-2 -22q-172 -131 -344 -287l-18 4z" />
<glyph unicode="&#xfe;" horiz-adv-x="1044" d="M43 -485l10 79q31 4 50.5 9.5t33 21t19.5 22.5t9 40.5t4 47t1 66.5l4 392v1089q0 111 -76 111l-51 -9q0 12 4 37l4 39q63 8 139 23.5t120 25.5l44 11l13 -27q-31 -47 -47 -686q201 143 247 143q49 0 84 -8q141 -29 226.5 -144.5t85.5 -285.5q0 -221 -149.5 -379 t-360.5 -158q-74 0 -146 9q0 -255 8 -294q31 -72 91 -79l69 2l4 -6l-16 -78h-129q-63 0 -135 -3t-116 -6t-44 -5zM313 131q86 -43 201 -43q137 0 216 94t79 254q0 158 -79 266.5t-191 108.5q-89 0 -220 -111z" />
<glyph unicode="&#xff;" horiz-adv-x="913" d="M-18 860l12 68q123 -2 170 -2q53 0 114.5 4t96.5 7l35 3l4 -10l-13 -64q-70 -2 -95 -13t-25 -40q0 -72 182 -627h8q240 573 240 619q0 53 -78 53h-94l-4 8l12 68q106 -8 207 -8l174 2l-15 -76q-45 -8 -68.5 -31.5t-45.5 -85.5l-264 -622q-166 -381 -249 -495t-212 -112 q-16 0 -53 48.5t-37 68.5l10 15q119 0 224.5 95t174.5 265q-129 406 -268 756q-47 96 -139 98zM205 1247q0 43 29.5 73t72.5 30q39 0 61.5 -26t22.5 -62q0 -43 -29.5 -73t-72.5 -30q-39 0 -61.5 26.5t-22.5 61.5zM545 1247q0 43 29.5 73t72.5 30q39 0 61.5 -26t22.5 -62 q0 -43 -29.5 -73t-72.5 -30q-39 0 -61.5 26.5t-22.5 61.5z" />
<glyph unicode="&#x100;" horiz-adv-x="1183" d="M-37 -6l17 96q57 6 91.5 40t67.5 118l400 1046l129 35h16q172 -637 326 -1098q25 -76 65.5 -106.5t130.5 -38.5l4 -8l-14 -84q-147 6 -217 6t-146.5 -5t-117.5 -10l-41 -5l-6 14l8 80q104 8 143 24.5t39 53.5q0 40 -18 98l-68 223q-49 2 -213 2q-98 0 -223 -16l-76 -213 q-18 -55 -18 -80q0 -84 123 -84h116l4 -8l-12 -88q-150 14 -285 14zM297 1491l20 92q195 -2 316 -2l264 12l12 -20l-14 -96l-291 -2l-295 -2zM373 559h180q74 0 190 10l-161 537h-15z" />
<glyph unicode="&#x101;" horiz-adv-x="954" d="M84 238q0 59 29.5 104t79.5 59l387 107l4 90q0 102 -47.5 159.5t-133.5 57.5q-129 -3 -245 -102l-11 6l-24 88q246 143 334 143q133 0 208.5 -69.5t75.5 -194.5q0 -31 -18 -218t-18 -253q0 -94 83 -94q65 0 123 51l29 -33q-8 -14 -23.5 -36.5t-62.5 -66.5t-92 -61 q-168 0 -182 166l-9 2q-160 -160 -225 -159q-115 0 -188.5 71.5t-73.5 182.5zM139 1235l21 92q195 -2 315 -2l264 12l13 -20l-15 -96l-291 -2l-294 -2zM240 260q0 -59 39.5 -98t101.5 -39q88 0 186 98l8 209l-276 -84q-59 -18 -59 -86z" />
<glyph unicode="&#x102;" horiz-adv-x="1183" d="M-37 -6l17 96q57 6 91.5 40t67.5 118l400 1046l129 35h16q172 -637 326 -1098q25 -76 65.5 -106.5t130.5 -38.5l4 -8l-14 -84q-147 6 -217 6t-146.5 -5t-117.5 -10l-41 -5l-6 14l8 80q104 8 143 24.5t39 53.5q0 40 -18 98l-68 223q-49 2 -213 2q-98 0 -223 -16l-76 -213 q-18 -55 -18 -80q0 -84 123 -84h116l4 -8l-12 -88q-150 14 -285 14zM356 1655l33 20h17q53 -102 196 -102t197 102h16l33 -20q-25 -86 -86.5 -143.5t-159.5 -57.5t-159.5 57.5t-86.5 143.5zM373 559h180q74 0 190 10l-161 537h-15z" />
<glyph unicode="&#x103;" horiz-adv-x="954" d="M84 238q0 59 29.5 104t79.5 59l387 107l4 90q0 102 -47.5 159.5t-133.5 57.5q-129 -3 -245 -102l-11 6l-24 88q246 143 334 143q133 0 208.5 -69.5t75.5 -194.5q0 -31 -18 -218t-18 -253q0 -94 83 -94q65 0 123 51l29 -33q-8 -14 -23.5 -36.5t-62.5 -66.5t-92 -61 q-168 0 -182 166l-9 2q-160 -160 -225 -159q-115 0 -188.5 71.5t-73.5 182.5zM205 1376l33 21h16q53 -135 196.5 -135t196.5 135h17l32 -21q-25 -98 -86 -165.5t-159.5 -67.5t-160 67.5t-85.5 165.5zM240 260q0 -59 39.5 -98t101.5 -39q88 0 186 98l8 209l-276 -84 q-59 -18 -59 -86z" />
<glyph unicode="&#x104;" horiz-adv-x="1183" d="M-37 -6l17 96q57 6 91.5 40t67.5 118l400 1046l129 35h16q172 -637 326 -1098q25 -76 65.5 -106.5t130.5 -38.5l4 -8l-14 -84q-70 4 -135 6q-86 -90 -120 -146.5t-34 -115.5q0 -49 33 -80t86 -31q80 0 158 47l26 -39q-100 -94 -204 -129q-102 0 -165 51.5t-63 141.5 q0 66 48 135.5t145 165.5l-297 -20l-6 14l8 80q104 8 143 24.5t39 53.5q0 40 -18 98l-68 223q-49 2 -213 2q-98 0 -223 -16l-76 -213q-18 -55 -18 -80q0 -84 123 -84h116l4 -8l-12 -88q-150 14 -285 14zM373 559h180q74 0 190 10l-161 537h-15z" />
<glyph unicode="&#x105;" horiz-adv-x="954" d="M84 238q0 59 29.5 104t79.5 59l387 107l4 90q0 102 -47.5 159.5t-133.5 57.5q-129 -3 -245 -102l-11 6l-24 88q246 143 334 143q39 0 71 -6q102 -16 157.5 -83.5t55.5 -174.5q0 -20 -8 -104q-29 -322 -28 -367q0 -94 83 -94q65 0 123 51l33 -39q-162 -170 -220 -253 t-58 -142q0 -49 32.5 -80t85.5 -31q80 0 158 47l27 -39q-100 -94 -205 -129q-104 0 -165.5 52.5t-61.5 140.5q0 102 174 283q-121 18 -131 159q-2 0 -4.5 1t-4.5 1q-160 -160 -225 -159q-115 0 -188.5 71.5t-73.5 182.5zM240 260q0 -59 39.5 -98t101.5 -39q88 0 186 98 l8 209l-276 -84q-59 -23 -59 -86z" />
<glyph unicode="&#x106;" horiz-adv-x="1288" d="M82 608q0 311 202.5 516t512.5 205q76 0 165 -12t140 -25l51 -12l8 -12q-39 -154 -51 -342l-98 -8q6 55 6 100q0 190 -301 190q-207 0 -329 -144t-122 -388q0 -270 128 -434t341 -164q139 0 224 79t124 244l99 9q-41 -186 -56 -334l-12 -19q-176 -82 -420 -82 q-281 0 -446.5 171t-165.5 462zM604 1499l408 223l18 -12l33 -98l-8 -21q-207 -70 -422 -151l-17 10z" />
<glyph unicode="&#x107;" horiz-adv-x="868" d="M74 428q0 221 136 371.5t337 150.5q131 0 239 -39l7 -14q-37 -123 -43 -283l-84 -6v64q0 76 -46.5 122t-121.5 46q-125 0 -192.5 -89t-67.5 -253q0 -178 74.5 -281.5t203.5 -103.5q115 -1 232 67l12 -4l22 -63q-180 -137 -280 -138q-195 0 -311.5 123t-116.5 330z M358 1110q66 72 143 160t121 141l44 53l20 -4l78 -84l-2 -22q-172 -131 -344 -287l-19 4z" />
<glyph unicode="&#x108;" horiz-adv-x="1288" d="M82 608q0 311 202.5 516t512.5 205q76 0 165 -12t140 -25l51 -12l8 -12q-39 -154 -51 -342l-98 -8q6 55 6 100q0 190 -301 190q-207 0 -329 -144t-122 -388q0 -270 128 -434t341 -164q139 0 224 79t124 244l99 9q-41 -186 -56 -334l-12 -19q-176 -82 -420 -82 q-281 0 -446.5 171t-165.5 462zM401 1483q59 61 130 140t112 126l41 47h29q150 -174 282 -313l-28 -45l-19 -2q-45 39 -250 198q-160 -119 -249 -198l-19 2z" />
<glyph unicode="&#x109;" horiz-adv-x="868" d="M74 428q0 221 136 371.5t337 150.5q131 0 239 -39l7 -14q-37 -123 -43 -283l-84 -6v64q0 76 -46.5 122t-121.5 46q-125 0 -192.5 -89t-67.5 -253q0 -178 74.5 -281.5t203.5 -103.5q115 -1 232 67l12 -4l22 -63q-180 -137 -280 -138q-195 0 -311.5 123t-116.5 330z M248 1124q59 61 130 140t111 127l41 47h29q150 -174 283 -314l-29 -45l-18 -2q-45 39 -250 199q-160 -121 -250 -199l-19 2z" />
<glyph unicode="&#x10a;" horiz-adv-x="1288" d="M82 608q0 311 202.5 516t512.5 205q76 0 165 -12t140 -25l51 -12l8 -12q-39 -154 -51 -342l-98 -8q6 55 6 100q0 190 -301 190q-207 0 -329 -144t-122 -388q0 -270 128 -434t341 -164q139 0 224 79t124 244l99 9q-41 -186 -56 -334l-12 -19q-176 -82 -420 -82 q-281 0 -446.5 171t-165.5 462zM625 1577q0 49 34.5 85t85.5 36q47 0 74 -31t27 -74q0 -49 -35 -84.5t-86 -35.5q-47 0 -73.5 30.5t-26.5 73.5z" />
<glyph unicode="&#x10b;" horiz-adv-x="868" d="M74 428q0 221 136 371.5t337 150.5q131 0 239 -39l7 -14q-37 -123 -43 -283l-84 -6v64q0 76 -46.5 122t-121.5 46q-125 0 -192.5 -89t-67.5 -253q0 -178 74.5 -281.5t203.5 -103.5q115 -1 232 67l12 -4l22 -63q-180 -137 -280 -138q-195 0 -311.5 123t-116.5 330z M389 1337q0 49 35 85t86 36q47 0 73.5 -30.5t26.5 -73.5q0 -49 -35 -85t-86 -36q-47 0 -73.5 30.5t-26.5 73.5z" />
<glyph unicode="&#x10c;" horiz-adv-x="1288" d="M82 608q0 311 202.5 516t512.5 205q76 0 165 -12t140 -25l51 -12l8 -12q-39 -154 -51 -342l-98 -8q6 55 6 100q0 190 -301 190q-207 0 -329 -144t-122 -388q0 -270 128 -434t341 -164q139 0 224 79t124 244l99 9q-41 -186 -56 -334l-12 -19q-176 -82 -420 -82 q-281 0 -446.5 171t-165.5 462zM438 1669l29 45l18 2q137 -80 250 -133q106 49 250 133l19 -2l28 -45l-282 -227h-29q-150 127 -283 227z" />
<glyph unicode="&#x10d;" horiz-adv-x="868" d="M74 428q0 221 136 371.5t337 150.5q131 0 239 -39l7 -14q-37 -123 -43 -283l-84 -6v64q0 76 -46.5 122t-121.5 46q-125 0 -192.5 -89t-67.5 -253q0 -178 74.5 -281.5t203.5 -103.5q115 -1 232 67l12 -4l22 -63q-180 -137 -280 -138q-195 0 -311.5 123t-116.5 330z M190 1405l33 47l17 2q123 -106 262 -207q170 127 262 207l16 -2l33 -47q-63 -66 -137 -147.5t-117 -131.5l-43 -49h-29q-156 183 -297 328z" />
<glyph unicode="&#x10e;" horiz-adv-x="1439" d="M119 -25l12 95q94 18 127 54t33 122l2 860q0 66 -15.5 88.5t-60.5 22.5l-70 -5l-4 9l15 90q137 -6 215 -6l311 8q299 0 486.5 -170t187.5 -443q0 -305 -205 -515t-504 -210q-190 25 -295 25q-45 0 -104.5 -6t-94.5 -12zM381 1669l29 45l18 2q137 -80 250 -133 q106 49 250 133l18 -2l29 -45l-283 -227h-28q-150 127 -283 227zM438 268q0 -113 51.5 -150.5t206.5 -37.5q221 0 348 152.5t127 418.5q0 270 -162.5 415.5t-465.5 145.5q-43 0 -57.5 -9t-16.5 -36q-31 -788 -31 -899z" />
<glyph unicode="&#x10f;" horiz-adv-x="1124" d="M74 414q0 221 149.5 378.5t360.5 157.5q66 0 141 -8v340q0 111 -76 111l-51 -9l8 76q63 8 139 23.5t120 25.5l44 11l13 -27q-23 -35 -40.5 -432t-17.5 -846q0 -94 84 -94q65 0 123 51l29 -33q-8 -14 -24.5 -37.5t-63.5 -68.5t-90 -58q-160 0 -183 146l-14 6 q-213 -145 -256 -145q-176 0 -285.5 119.5t-109.5 312.5zM231 483q0 -156 78 -262t193 -106q43 0 99 26.5t90 54.5l34 27v561q-76 47 -199 47q-137 0 -216 -93t-79 -255zM1028 1423l143 29l15 -16q-29 -225 -72 -435l-51 -28l-23 4q4 117 1 216t-8 165z" />
<glyph unicode="&#x110;" horiz-adv-x="1460" d="M18 637l15 65h272l2 404q0 66 -15.5 88.5t-60.5 22.5l-69 -5l-4 9l14 90q137 -6 215 -6l311 8q295 0 484.5 -172t189.5 -441q0 -305 -204.5 -515t-503.5 -210q-190 25 -295 25q-45 0 -104.5 -6t-95.5 -12l-36 -7l12 95q106 20 133 62t27 190v301h-272zM453 268 q0 -113 52 -150.5t206 -37.5q221 0 348 152.5t127 418.5q0 270 -163 415.5t-466 145.5q-43 0 -57.5 -9t-16.5 -36l-18 -465h348l10 -14l-12 -65h-348z" />
<glyph unicode="&#x111;" horiz-adv-x="1099" d="M74 414q0 221 149.5 378.5t360.5 157.5q66 0 141 -8v156l-233 -2l-19 18l14 80l238 -2v90q0 111 -76 111l-51 -9l8 76q63 8 139 23.5t120 25.5l44 11l13 -27q-20 -29 -33 -299l162 8l26 -26l-8 -76l-186 -2q-18 -438 -19 -883q0 -94 84 -94q65 0 123 51l29 -33 q-8 -14 -24.5 -37.5t-63.5 -68.5t-90 -58q-160 0 -183 146l-14 6q-213 -145 -256 -145q-176 0 -285.5 119.5t-109.5 312.5zM231 483q0 -156 78 -262t193 -106q43 0 99 26.5t90 54.5l34 27v561q-76 47 -199 47q-137 0 -216 -93t-79 -255z" />
<glyph unicode="&#x112;" horiz-adv-x="1210" d="M119 -20l12 94q92 12 126 48t34 124l2 860q0 66 -15.5 88.5t-60.5 22.5l-70 -5l-4 9l15 90q162 -6 284 -6q434 0 615 24l6 -12q-35 -152 -47 -340l-98 -8q4 59 4 88q0 100 -48.5 122.5t-265.5 22.5q-100 0 -120.5 -11t-22.5 -69l-16 -397q20 0 99 -1t111 -1l250 22l9 -10 l-29 -121q-176 6 -287 7q-76 0 -158 -15q-8 -295 -8 -391q0 -84 25.5 -103.5t136.5 -19.5q172 0 243.5 17.5t103.5 65.5t48 167l90 10l7 -10q-37 -170 -56 -344l-10 -12q-426 14 -621 14zM328 1491l20 92q195 -2 316 -2l264 12l12 -20l-14 -96l-291 -2l-295 -2z" />
<glyph unicode="&#x113;" horiz-adv-x="917" d="M74 428q0 211 135 366.5t317 155.5q305 0 305 -297l-12 -100l-26 -25h-566v-32q0 -172 83 -276.5t220 -104.5q126 0 252 63l13 -4l22 -59q-20 -16 -56 -39t-119 -62t-138 -39q-193 0 -311.5 125t-118.5 328zM188 1235l21 92q195 -2 315 -2l264 12l13 -20l-15 -96l-290 -2 l-295 -2zM236 604l370 19q31 4 41 14t10 41q0 82 -44 125t-126 43q-96 0 -164.5 -65.5t-86.5 -176.5z" />
<glyph unicode="&#x114;" horiz-adv-x="1210" d="M119 -20l12 94q92 12 126 48t34 124l2 860q0 66 -15.5 88.5t-60.5 22.5l-70 -5l-4 9l15 90q162 -6 284 -6q434 0 615 24l6 -12q-35 -152 -47 -340l-98 -8q4 59 4 88q0 100 -48.5 122.5t-265.5 22.5q-100 0 -120.5 -11t-22.5 -69l-16 -397q20 0 99 -1t111 -1l250 22l9 -10 l-29 -121q-176 6 -287 7q-76 0 -158 -15q-8 -295 -8 -391q0 -84 25.5 -103.5t136.5 -19.5q172 0 243.5 17.5t103.5 65.5t48 167l90 10l7 -10q-37 -170 -56 -344l-10 -12q-426 14 -621 14zM424 1735l33 20h16q51 -135 196.5 -135t196.5 135h17l32 -20q-25 -98 -86 -166 t-159.5 -68t-159.5 67.5t-86 166.5z" />
<glyph unicode="&#x115;" horiz-adv-x="917" d="M74 428q0 211 135 366.5t317 155.5q305 0 305 -297l-12 -100l-26 -25h-566v-32q0 -172 83 -276.5t220 -104.5q126 0 252 63l13 -4l22 -59q-20 -16 -56 -39t-119 -62t-138 -39q-193 0 -311.5 125t-118.5 328zM236 604l370 19q31 4 41 14t10 41q0 82 -44 125t-126 43 q-96 0 -164.5 -65.5t-86.5 -176.5zM279 1376l32 21h17q53 -135 196.5 -135t196.5 135h16l33 -21q-25 -98 -86 -165.5t-159.5 -67.5t-160 67.5t-85.5 165.5z" />
<glyph unicode="&#x116;" horiz-adv-x="1210" d="M119 -20l12 94q92 12 126 48t34 124l2 860q0 66 -15.5 88.5t-60.5 22.5l-70 -5l-4 9l15 90q162 -6 284 -6q434 0 615 24l6 -12q-35 -152 -47 -340l-98 -8q4 59 4 88q0 100 -48.5 122.5t-265.5 22.5q-100 0 -120.5 -11t-22.5 -69l-16 -397q20 0 99 -1t111 -1l250 22l9 -10 l-29 -121q-176 6 -287 7q-76 0 -158 -15q-8 -295 -8 -391q0 -84 25.5 -103.5t136.5 -19.5q172 0 243.5 17.5t103.5 65.5t48 167l90 10l7 -10q-37 -170 -56 -344l-10 -12q-426 14 -621 14zM524 1577q0 49 35 85t86 36q47 0 73.5 -31t26.5 -74q0 -49 -34.5 -84.5t-85.5 -35.5 q-47 0 -74 30.5t-27 73.5z" />
<glyph unicode="&#x117;" horiz-adv-x="917" d="M74 428q0 211 135 366.5t317 155.5q305 0 305 -297l-12 -100l-26 -25h-566v-32q0 -172 83 -276.5t220 -104.5q126 0 252 63l13 -4l22 -59q-20 -16 -56 -39t-119 -62t-138 -39q-193 0 -311.5 125t-118.5 328zM236 604l370 19q31 4 41 14t10 41q0 82 -44 125t-126 43 q-96 0 -164.5 -65.5t-86.5 -176.5zM385 1337q0 49 35 85t86 36q47 0 73.5 -30.5t26.5 -73.5q0 -49 -35 -85t-86 -36q-47 0 -73.5 30.5t-26.5 73.5z" />
<glyph unicode="&#x118;" horiz-adv-x="1210" d="M119 -20l12 94q92 12 126 48t34 124l2 860q0 66 -15.5 88.5t-60.5 22.5l-70 -5l-4 9l15 90q162 -6 284 -6q434 0 615 24l6 -12q-35 -152 -47 -340l-98 -8q4 59 4 88q0 100 -48.5 122.5t-265.5 22.5q-100 0 -120.5 -11t-22.5 -69l-16 -397q20 0 99 -1t111 -1l250 22l9 -10 l-29 -121q-176 6 -287 7q-76 0 -158 -15q-8 -295 -8 -391q0 -84 25.5 -103.5t136.5 -19.5q172 0 243.5 17.5t103.5 65.5t48 167l90 10l7 -10q-37 -170 -56 -344l-10 -12q-41 2 -102 4q-80 -86 -112 -140.5t-32 -111.5q0 -49 33 -80t86 -31q80 0 158 47l26 -39 q-100 -94 -204 -129q-102 0 -165 51.5t-63 141.5q0 63 46 132t139 161q-279 8 -431 8z" />
<glyph unicode="&#x119;" horiz-adv-x="917" d="M74 428q0 211 135 366.5t317 155.5q305 0 305 -297l-12 -100l-26 -25h-566v-32q0 -172 83 -276.5t220 -104.5q126 0 252 63l13 -4l22 -59l-2 -2q-160 -158 -214 -228.5t-54 -146.5q0 -49 32.5 -80t86.5 -31q79 0 157 47l27 -39q-100 -94 -205 -129q-102 0 -164.5 51.5 t-62.5 141.5q0 66 49 136.5t145 164.5q-68 -25 -108 -25q-193 0 -311.5 125t-118.5 328zM236 604l370 19q31 4 41 14t10 41q0 82 -44 125t-126 43q-96 0 -164.5 -65.5t-86.5 -176.5z" />
<glyph unicode="&#x11a;" horiz-adv-x="1210" d="M119 -20l12 94q92 12 126 48t34 124l2 860q0 66 -15.5 88.5t-60.5 22.5l-70 -5l-4 9l15 90q162 -6 284 -6q434 0 615 24l6 -12q-35 -152 -47 -340l-98 -8q4 59 4 88q0 100 -48.5 122.5t-265.5 22.5q-100 0 -120.5 -11t-22.5 -69l-16 -397q20 0 99 -1t111 -1l250 22l9 -10 l-29 -121q-176 6 -287 7q-76 0 -158 -15q-8 -295 -8 -391q0 -84 25.5 -103.5t136.5 -19.5q172 0 243.5 17.5t103.5 65.5t48 167l90 10l7 -10q-37 -170 -56 -344l-10 -12q-426 14 -621 14zM338 1669l29 45l18 2q137 -80 250 -133q106 49 250 133l18 -2l29 -45l-283 -227h-28 q-150 127 -283 227z" />
<glyph unicode="&#x11b;" horiz-adv-x="917" d="M74 428q0 211 135 366.5t317 155.5q305 0 305 -297l-12 -100l-26 -25h-566v-32q0 -172 83 -276.5t220 -104.5q126 0 252 63l13 -4l22 -59q-20 -16 -56 -39t-119 -62t-138 -39q-193 0 -311.5 125t-118.5 328zM186 1405l33 47l17 2q123 -106 262 -207q170 127 262 207 l16 -2l33 -47q-63 -66 -137 -147.5t-117 -131.5l-43 -49h-29q-156 183 -297 328zM236 604l370 19q31 4 41 14t10 41q0 82 -44 125t-126 43q-96 0 -164.5 -65.5t-86.5 -176.5z" />
<glyph unicode="&#x11c;" horiz-adv-x="1366" d="M82 608q0 322 198.5 521.5t520.5 199.5q170 0 397 -49l8 -12q-41 -154 -53 -342l-96 -8q6 55 6 110q0 94 -72.5 137t-236.5 43q-233 0 -363.5 -140t-130.5 -394q0 -270 128 -433t339 -163q160 1 281 78v250q0 70 -21.5 90t-91.5 20h-141l-4 8l18 103q139 -8 260 -9 l176 11l8 -45q-37 -31 -50 -97.5t-13 -218.5q0 -119 14 -180l-12 -18q-25 -10 -67 -25.5t-165.5 -42.5t-238.5 -27q-274 0 -436 171t-162 462zM416 1483q59 61 129.5 140t111.5 126l41 47h29q150 -174 283 -313l-29 -45l-18 -2q-45 39 -250 198q-160 -119 -250 -198l-19 2z " />
<glyph unicode="&#x11d;" horiz-adv-x="1032" d="M106 174q29 29 72 61.5t72 51.5l29 18v8q-152 80 -152 273q0 145 114.5 254.5t266.5 109.5q41 0 108.5 -11t92.5 -11q104 12 282 61l6 -8l-22 -115q-90 -12 -176 -18l-8 -10q82 -92 81 -207q0 -154 -117.5 -259.5t-287.5 -105.5q-49 0 -119 17q-86 -47 -86 -90 q0 -92 246 -101q238 -12 337 -62t99 -157q0 -141 -156.5 -255t-351.5 -114q-145 0 -227 72t-82 201q67 90 203 184v12q-96 12 -160 69.5t-64 131.5zM256 1124q59 61 130 140t112 127l41 47h28q150 -174 283 -314l-29 -45l-18 -2q-45 39 -250 199q-160 -121 -250 -199l-18 2z M281 621q0 -119 64.5 -192t170.5 -73q94 0 148.5 59.5t54.5 164.5q0 119 -65.5 192.5t-170.5 73.5q-94 0 -148 -61.5t-54 -163.5zM287 -227q0 -78 59.5 -123t165.5 -45q119 0 210 61.5t91 140.5q0 59 -78 89t-321 63q-14 -10 -36 -28.5t-56.5 -67.5t-34.5 -90z" />
<glyph unicode="&#x11e;" horiz-adv-x="1366" d="M82 608q0 322 198.5 521.5t520.5 199.5q170 0 397 -49l8 -12q-41 -154 -53 -342l-96 -8q6 55 6 110q0 94 -72.5 137t-236.5 43q-233 0 -363.5 -140t-130.5 -394q0 -270 128 -433t339 -163q160 1 281 78v250q0 70 -21.5 90t-91.5 20h-141l-4 8l18 103q139 -8 260 -9 l176 11l8 -45q-37 -31 -50 -97.5t-13 -218.5q0 -119 14 -180l-12 -18q-25 -10 -67 -25.5t-165.5 -42.5t-238.5 -27q-274 0 -436 171t-162 462zM502 1655l33 20h16q53 -102 196.5 -102t196.5 102h17l32 -20q-25 -86 -86 -143.5t-159.5 -57.5t-160 57.5t-85.5 143.5z" />
<glyph unicode="&#x11f;" horiz-adv-x="1032" d="M106 174q29 29 72 61.5t72 51.5l29 18v8q-152 80 -152 273q0 145 114.5 254.5t266.5 109.5q41 0 108.5 -11t92.5 -11q104 12 282 61l6 -8l-22 -115q-90 -12 -176 -18l-8 -10q82 -92 81 -207q0 -154 -117.5 -259.5t-287.5 -105.5q-49 0 -119 17q-86 -47 -86 -90 q0 -92 246 -101q238 -12 337 -62t99 -157q0 -141 -156.5 -255t-351.5 -114q-145 0 -227 72t-82 201q67 90 203 184v12q-96 12 -160 69.5t-64 131.5zM262 1376l33 21h16q54 -135 197 -135t197 135h16l33 -21q-25 -98 -86.5 -165.5t-159.5 -67.5t-159.5 67.5t-86.5 165.5z M281 621q0 -119 64.5 -192t170.5 -73q94 0 148.5 59.5t54.5 164.5q0 119 -65.5 192.5t-170.5 73.5q-94 0 -148 -61.5t-54 -163.5zM287 -227q0 -78 59.5 -123t165.5 -45q119 0 210 61.5t91 140.5q0 59 -78 89t-321 63q-14 -10 -36 -28.5t-56.5 -67.5t-34.5 -90z" />
<glyph unicode="&#x120;" horiz-adv-x="1366" d="M82 608q0 322 198.5 521.5t520.5 199.5q170 0 397 -49l8 -12q-41 -154 -53 -342l-96 -8q6 55 6 110q0 94 -72.5 137t-236.5 43q-233 0 -363.5 -140t-130.5 -394q0 -270 128 -433t339 -163q160 1 281 78v250q0 70 -21.5 90t-91.5 20h-141l-4 8l18 103q139 -8 260 -9 l176 11l8 -45q-37 -31 -50 -97.5t-13 -218.5q0 -119 14 -180l-12 -18q-25 -10 -67 -25.5t-165.5 -42.5t-238.5 -27q-274 0 -436 171t-162 462zM639 1577q0 49 35 85t86 36q47 0 73.5 -31t26.5 -74q0 -49 -35 -84.5t-86 -35.5q-47 0 -73.5 30.5t-26.5 73.5z" />
<glyph unicode="&#x121;" horiz-adv-x="1032" d="M106 174q29 29 72 61.5t72 51.5l29 18v8q-152 80 -152 273q0 145 114.5 254.5t266.5 109.5q41 0 108.5 -11t92.5 -11q104 12 282 61l6 -8l-22 -115q-90 -12 -176 -18l-8 -10q82 -92 81 -207q0 -154 -117.5 -259.5t-287.5 -105.5q-49 0 -119 17q-86 -47 -86 -90 q0 -92 246 -101q238 -12 337 -62t99 -157q0 -141 -156.5 -255t-351.5 -114q-145 0 -227 72t-82 201q67 90 203 184v12q-96 12 -160 69.5t-64 131.5zM281 621q0 -119 64.5 -192t170.5 -73q94 0 148.5 59.5t54.5 164.5q0 119 -65.5 192.5t-170.5 73.5q-94 0 -148 -61.5 t-54 -163.5zM287 -227q0 -78 59.5 -123t165.5 -45q119 0 210 61.5t91 140.5q0 59 -78 89t-321 63q-14 -10 -36 -28.5t-56.5 -67.5t-34.5 -90zM393 1337q0 49 35 85t86 36q47 0 73.5 -30.5t26.5 -73.5q0 -49 -34.5 -85t-85.5 -36q-47 0 -74 30.5t-27 73.5z" />
<glyph unicode="&#x122;" horiz-adv-x="1366" d="M82 608q0 322 198.5 521.5t520.5 199.5q170 0 397 -49l8 -12q-41 -154 -53 -342l-96 -8q6 55 6 110q0 94 -72.5 137t-236.5 43q-233 0 -363.5 -140t-130.5 -394q0 -270 128 -433t339 -163q160 1 281 78v250q0 70 -21.5 90t-91.5 20h-141l-4 8l18 103q139 -8 260 -9 l176 11l8 -45q-37 -31 -50 -97.5t-13 -218.5q0 -119 14 -180l-12 -18q-25 -10 -67 -25.5t-165.5 -42.5t-238.5 -27q-274 0 -436 171t-162 462zM520 -549q63 39 105.5 95.5t42.5 107.5q0 78 -82 127l4 29q70 53 119 53q47 0 78.5 -40t31.5 -106q0 -100 -77.5 -181 t-184.5 -136l-37 31v20z" />
<glyph unicode="&#x123;" horiz-adv-x="1032" d="M106 174q29 29 72 61.5t72 51.5l29 18v8q-152 80 -152 273q0 145 114.5 254.5t266.5 109.5q41 0 108.5 -11t92.5 -11q104 12 282 61l6 -8l-22 -115q-90 -12 -176 -18l-8 -10q82 -92 81 -207q0 -154 -117.5 -259.5t-287.5 -105.5q-49 0 -119 17q-86 -47 -86 -90 q0 -92 246 -101q238 -12 337 -62t99 -157q0 -141 -156.5 -255t-351.5 -114q-145 0 -227 72t-82 201q67 90 203 184v12q-96 12 -160 69.5t-64 131.5zM281 621q0 -119 64.5 -192t170.5 -73q94 0 148.5 59.5t54.5 164.5q0 119 -65.5 192.5t-170.5 73.5q-94 0 -148 -61.5 t-54 -163.5zM287 -227q0 -78 59.5 -123t165.5 -45q119 0 210 61.5t91 140.5q0 59 -78 89t-321 63q-14 -10 -36 -28.5t-56.5 -67.5t-34.5 -90zM393 1190q0 100 78 181t184 136l37 -30v-21q-63 -39 -105 -95t-42 -108q0 -78 82 -127l-4 -28q-70 -53 -119 -54q-47 0 -79 40 t-32 106z" />
<glyph unicode="&#x124;" horiz-adv-x="1544" d="M119 -25l12 95q94 18 127 54t33 122l2 860q0 66 -15.5 88.5t-60.5 22.5l-70 -5l-4 9l15 90q150 -6 227 -6q39 0 94.5 5t89.5 9l35 4l-8 -92q-88 -14 -109.5 -44t-25.5 -140l-12 -332l344 -2q131 0 303 20l2 373q0 66 -15.5 88.5t-60.5 22.5l-70 -5l-4 9l15 90 q0 -6 200 -6q43 0 104.5 5t101.5 9l40 4l-8 -92q-76 -10 -101.5 -34t-29.5 -83q-29 -598 -29 -885q0 -84 18.5 -111.5t71.5 -27.5l92 6l4 -8l-18 -94q-162 6 -252 6l-235 -4l18 92q96 2 126 43t30 176v309q-217 2 -312 2l-340 -22l-8 -367q0 -84 18.5 -111.5t71.5 -27.5 l92 6l5 -8l-19 -94q0 6 -174 6q-90 0 -199.5 -8t-111.5 -17zM475 1536q59 61 130 140t112 126l41 47h28q150 -174 283 -313l-29 -45l-18 -2q-45 39 -250 199q-160 -119 -250 -199l-18 2z" />
<glyph unicode="&#x125;" horiz-adv-x="1093" d="M-23 1612q59 61 130 140t112 126l41 47h29q150 -174 282 -313l-28 -45l-19 -2q-45 39 -250 198q-160 -121 -249 -198l-19 2zM51 1395l8 65q63 8 139 23.5t120 25.5l44 11l13 -27q-31 -47 -49 -702q233 160 307 159q133 0 206.5 -69.5t73.5 -194.5q0 -31 -16 -225.5 t-16 -259.5q0 -115 71 -115l72 4l4 -8l-16 -88q-106 6 -183 6q-39 0 -91 -6t-86 -12l-34 -7l9 84q115 31 114 134l13 405q0 102 -44 157.5t-126 55.5q-119 0 -260 -113q-6 -236 -7 -497q0 -63 16.5 -89t57.5 -26l72 4l4 -8l-18 -88q-111 6 -187 6l-203 -4l13 84 q59 6 82.5 30.5t23.5 82.5v1089q0 106 -76 107h-43z" />
<glyph unicode="&#x126;" horiz-adv-x="1536" d="M86 936l14 80q82 -2 189 -2v92q0 66 -15.5 88.5t-60.5 22.5l-70 -5l-4 9l15 90q150 -6 227 -6q39 0 94 5t90 9l35 4l-8 -92q-88 -14 -109.5 -44t-25.5 -140l-2 -33h356q186 0 283 2v90q0 66 -15.5 88.5t-60.5 22.5l-70 -5l-4 9l14 90q0 -6 201 -6q43 0 104.5 5t101.5 9 l40 4l-8 -92q-76 -10 -101.5 -34t-29.5 -83q-4 -61 -4 -94l159 4l27 -27l-8 -75l-183 -2q-20 -440 -20 -691q0 -84 18.5 -111.5t71.5 -27.5l92 6l4 -8l-18 -94q-162 6 -252 6l-235 -4l18 92q96 2 126 43t30 176v309q-217 2 -312 2l-340 -22l-8 -367q0 -84 18.5 -111.5 t71.5 -27.5l92 6l4 -8l-18 -94q0 6 -174 6q-90 0 -199.5 -8t-111.5 -17l12 95q94 18 127 54t33 122l2 672h-185zM444 715l344 -2q131 0 304 20v187h-326h-315z" />
<glyph unicode="&#x127;" horiz-adv-x="1097" d="M16 1085l15 80q72 -2 151 -2v119q0 106 -76 107h-43l-8 6l8 65q63 8 139.5 23.5t120.5 25.5l44 11l12 -27q-18 -27 -35 -330l188 11l27 -27l-8 -76l-211 -2q-8 -160 -10 -278q233 160 307 159q133 0 207 -69.5t74 -194.5q0 -31 -16.5 -225.5t-16.5 -259.5q0 -115 71 -115 l72 4l4 -8l-16 -88q-106 6 -182 6q-39 0 -91.5 -6t-86.5 -12l-33 -7l8 84q115 31 114 134l13 405q0 102 -44 157.5t-126 55.5q-119 0 -260 -113q-6 -236 -6 -497q0 -63 16 -89t57 -26l72 4l4 -8l-18 -88q-111 6 -187 6l-203 -4l13 84q59 6 82.5 30.5t23.5 82.5v876l-147 -2z " />
<glyph unicode="&#x128;" horiz-adv-x="739" d="M45 1530v10l156 182l32 9q35 0 154 -34t145 -34q20 0 53 28.5t55 56.5l22 28h12l45 -43v-11l-156 -182l-33 -8q-35 0 -153.5 33.5t-145.5 33.5q-23 0 -54.5 -27.5t-52.5 -55.5l-22 -29h-12zM115 -25l12 95q96 18 130 54t34 122l2 860q0 66 -15.5 88.5t-60.5 22.5l-86 -5 l-4 9l14 90q160 -6 244 -6l236 18l-9 -92q-86 -10 -114.5 -34t-32.5 -83q-29 -594 -29 -885q0 -84 18.5 -111.5t71.5 -27.5l109 6l4 -8l-18 -94q-172 6 -269 6z" />
<glyph unicode="&#x129;" horiz-adv-x="577" d="M-57 1171v11l155 182l33 8q35 0 153.5 -33.5t145.5 -33.5q20 0 53 27.5t55 56.5l21 28h12l45 -43v-10l-155 -182l-33 -8q-35 0 -153.5 33.5t-145.5 33.5q-23 0 -54.5 -28.5t-52.5 -56.5l-22 -28h-12zM86 815l8 76q61 8 135 23.5t117 25.5l43 10l10 -24 q-18 -43 -32.5 -263.5t-14.5 -461.5q0 -115 72 -115l72 4l4 -8l-17 -88q-106 6 -182 6q-39 0 -91 -6t-86 -12l-34 -7l8 84q115 31 115 134v520q0 111 -76 110z" />
<glyph unicode="&#x12a;" horiz-adv-x="739" d="M70 1491l20 92q195 -2 316 -2l264 12l12 -20l-14 -96l-291 -2l-295 -2zM115 -25l12 95q96 18 130 54t34 122l2 860q0 66 -15.5 88.5t-60.5 22.5l-86 -5l-4 9l14 90q160 -6 244 -6l236 18l-9 -92q-86 -10 -114.5 -34t-32.5 -83q-29 -594 -29 -885q0 -84 18.5 -111.5 t71.5 -27.5l109 6l4 -8l-18 -94q-172 6 -269 6z" />
<glyph unicode="&#x12b;" horiz-adv-x="577" d="M14 1235l19 92q174 -2 284 -2l238 12l10 -20l-12 -96l-262 -2l-266 -2zM86 815l8 76q61 8 135 23.5t117 25.5l43 10l10 -24q-18 -43 -32.5 -263.5t-14.5 -461.5q0 -115 72 -115l72 4l4 -8l-17 -88q-106 6 -182 6q-39 0 -91 -6t-86 -12l-34 -7l8 84q115 31 115 134v520 q0 111 -76 110z" />
<glyph unicode="&#x12c;" horiz-adv-x="739" d="M115 -25l12 95q96 18 130 54t34 122l2 860q0 66 -15.5 88.5t-60.5 22.5l-86 -5l-4 9l14 90q160 -6 244 -6l236 18l-9 -92q-86 -10 -114.5 -34t-32.5 -83q-29 -594 -29 -885q0 -84 18.5 -111.5t71.5 -27.5l109 6l4 -8l-18 -94q-172 6 -269 6zM139 1735l33 20h16 q54 -135 197 -135t197 135h16l33 -20q-25 -98 -86.5 -166t-159.5 -68t-159.5 67.5t-86.5 166.5z" />
<glyph unicode="&#x12d;" horiz-adv-x="577" d="M37 1376l33 21h16q53 -135 196.5 -135t196.5 135h17l32 -21q-25 -98 -86 -165.5t-159.5 -67.5t-160 67.5t-85.5 165.5zM86 815l8 76q61 8 135 23.5t117 25.5l43 10l10 -24q-18 -43 -32.5 -263.5t-14.5 -461.5q0 -115 72 -115l72 4l4 -8l-17 -88q-106 6 -182 6 q-39 0 -91 -6t-86 -12l-34 -7l8 84q115 31 115 134v520q0 111 -76 110z" />
<glyph unicode="&#x12e;" horiz-adv-x="739" d="M115 -25l12 95q96 18 130 54t34 122l2 860q0 66 -15.5 88.5t-60.5 22.5l-86 -5l-4 9l14 90q160 -6 244 -6l236 18l-9 -92q-86 -10 -114.5 -33.5t-32.5 -83.5q-29 -594 -29 -885q0 -84 18.5 -111.5t71.5 -27.5l109 6l4 -8l-18 -94q-45 2 -99 4q-84 -88 -117.5 -144.5 t-33.5 -115.5q0 -49 32.5 -80t85.5 -31q80 0 158 47l27 -39q-100 -94 -205 -129q-102 0 -164.5 51.5t-62.5 141.5q0 66 48 135.5t144 165.5h-82z" />
<glyph unicode="&#x12f;" horiz-adv-x="577" d="M86 -301q0 66 48 135.5t145 165.5q-37 0 -84.5 -6t-75.5 -12l-29 -7l8 84q115 31 115 134v520q0 111 -76 110l-51 -8l8 76q61 8 135 23.5t117 25.5l43 10l10 -24q-18 -43 -32.5 -263.5t-14.5 -461.5q0 -113 64 -115h8l72 4l4 -8l-17 -88q-57 4 -114 6 q-86 -90 -120 -146.5t-34 -115.5q0 -49 33 -80t86 -31q79 0 158 47l26 -39q-100 -94 -205 -129q-102 0 -164.5 51.5t-62.5 141.5zM172 1337q0 51 35 86t86 35q43 0 71.5 -29.5t28.5 -74.5q0 -51 -35 -86t-86 -35q-45 0 -72.5 28.5t-27.5 75.5z" />
<glyph unicode="&#x130;" horiz-adv-x="739" d="M115 -25l12 95q96 18 130 54t34 122l2 860q0 66 -15.5 88.5t-60.5 22.5l-86 -5l-4 9l14 90q160 -6 244 -6l236 18l-9 -92q-86 -10 -114.5 -34t-32.5 -83q-29 -594 -29 -885q0 -84 18.5 -111.5t71.5 -27.5l109 6l4 -8l-18 -94q-172 6 -269 6zM266 1577q0 49 35 85t86 36 q47 0 73.5 -31t26.5 -74q0 -49 -34.5 -84.5t-85.5 -35.5q-47 0 -74 30.5t-27 73.5z" />
<glyph unicode="&#x131;" horiz-adv-x="577" d="M86 815l8 76q61 8 135 23.5t117 25.5l43 10l10 -24q-18 -43 -32.5 -263.5t-14.5 -461.5q0 -115 72 -115l72 4l4 -8l-17 -88q-106 6 -182 6q-39 0 -91 -6t-86 -12l-34 -7l8 84q115 31 115 134v520q0 111 -76 110z" />
<glyph unicode="&#x132;" horiz-adv-x="1409" d="M115 -25l12 95q96 18 130 54t34 122l2 860q0 66 -15.5 88.5t-60.5 22.5l-86 -5l-4 9l14 90q160 -6 244 -6l236 18l-9 -92q-86 -10 -114.5 -34t-32.5 -83q-29 -594 -29 -885q0 -84 18.5 -111.5t71.5 -27.5l109 6l4 -8l-18 -94q-172 6 -269 6zM786 -227l7 16 q125 76 170 169.5t45 277.5l2 870q0 66 -14.5 87t-61.5 21l-96 -8l-4 8l14 91h221l238 18l-9 -92q-72 -10 -93 -30.5t-23 -86.5q-23 -487 -27 -876q-2 -209 -81 -335t-253 -198z" />
<glyph unicode="&#x133;" horiz-adv-x="1089" d="M86 815l8 76q61 8 135 23.5t117 25.5l43 10l10 -24q-18 -43 -32.5 -263.5t-14.5 -461.5q0 -115 72 -115l72 4l4 -8l-17 -88q-106 6 -182 6q-39 0 -91 -6t-86 -12l-34 -7l8 84q115 31 115 134v520q0 111 -76 110zM172 1337q0 51 35 86t86 35q43 0 71.5 -29.5t28.5 -74.5 q0 -51 -35 -86t-86 -35q-45 0 -72.5 28.5t-27.5 75.5zM608 -455l4 17q88 88 120 196.5t32 319.5v635q0 63 -17.5 86.5t-64.5 23.5l-55 -6l8 76q55 8 129 22.5t120 24.5l46 10l10 -24q-35 -59 -35 -955q0 -147 -67.5 -268t-192.5 -197zM725 1337q0 51 35 86t86 35 q43 0 71.5 -29.5t28.5 -74.5q0 -51 -35 -86t-86 -35q-45 0 -72.5 28.5t-27.5 75.5z" />
<glyph unicode="&#x134;" horiz-adv-x="669" d="M47 -227l6 16q125 76 170 169.5t45 277.5l2 870q0 66 -14 87t-61 21l-97 -8l-4 8l15 91h221l237 18l-8 -92q-72 -10 -92.5 -30.5t-24.5 -86.5q-23 -487 -26 -876q-2 -209 -81 -335t-253 -198zM59 1483q59 61 130 140t112 126l41 47h29q150 -174 282 -313l-28 -45l-19 -2 q-45 39 -250 198q-160 -119 -250 -198l-18 2z" />
<glyph unicode="&#x135;" horiz-adv-x="512" d="M-41 1126q59 61 130 140.5t112 126.5l41 47h28q150 -174 283 -314l-29 -45l-18 -2q-45 39 -250 199q-160 -119 -250 -199l-18 2zM31 -455l4 17q88 88 119.5 196.5t31.5 319.5v635q0 63 -17 86.5t-65 23.5l-55 -6l8 76q55 8 129 22.5t120 24.5l46 10l10 -24 q-35 -59 -34 -955q0 -147 -67.5 -268t-192.5 -197z" />
<glyph unicode="&#x136;" horiz-adv-x="1286" d="M117 -2l20 92q96 10 125 39t29 117l2 860q0 66 -15.5 88.5t-60.5 22.5l-70 -5l-4 9l15 90q150 -6 227 -6q39 0 94.5 5t89.5 9l35 4l-8 -92q-76 -12 -104.5 -38t-30.5 -85l-25 -879q-2 -82 16.5 -110.5t73.5 -28.5l92 6l5 -8l-19 -94q-162 6 -252 6zM496 645l2 29l366 381 q63 63 64 106q0 53 -129 62l-4 8l14 88q150 -14 225 -14l189 8l8 -15l-14 -84q-53 -10 -98.5 -42.5t-137.5 -129.5l-330 -346l344 -448q74 -96 132.5 -135t129.5 -39l9 -8l-13 -70q-147 -25 -170 -25q-102 0 -229 176zM498 -549q63 39 105 95.5t42 107.5q0 78 -82 127l4 29 q70 53 119 53q47 0 79 -40t32 -106q0 -100 -78 -181t-184 -136l-37 31v20z" />
<glyph unicode="&#x137;" horiz-adv-x="1017" d="M51 1384q0 12 4 37l4 39q63 8 139 23.5t120 25.5l44 11l13 -27q-23 -35 -40.5 -434.5t-17.5 -857.5q0 -63 16.5 -89t57.5 -26l72 4l4 -8l-18 -88q-111 6 -187 6l-203 -12l11 84q33 4 53 15t32.5 22.5t16.5 42t5 51t1 73.5v1006q0 111 -76 111zM358 -549q63 39 105.5 95.5 t42.5 107.5q0 78 -82 127l4 29q70 53 119 53q47 0 78.5 -40t31.5 -106q0 -100 -77.5 -181t-184.5 -136l-37 31v20zM369 487l4 29l250 229q49 47 49 72q0 43 -113 43l-6 10l18 60q127 -4 201 -4l195 12l6 -10l-17 -64q-43 -12 -86 -36.5t-95 -68.5t-81.5 -70.5t-93.5 -90.5 l-80 -80l215 -276q70 -90 127.5 -129t120.5 -39l6 -11l-12 -59q-121 -33 -151.5 -33t-71.5 21q-58 30 -144 153z" />
<glyph unicode="&#x138;" horiz-adv-x="1048" d="M80 844l8 71l272 35l13 -26q-25 -135 -25 -723q0 -63 16.5 -89t57.5 -26l72 4l4 -8l-19 -88q-111 6 -186 6l-203 -12l10 84q33 4 53.5 15t33 22.5t16.5 42t5 51t1 73.5v457q0 55 -23.5 78t-93.5 23zM399 487l4 29l250 229q49 47 49 72q0 43 -112 43l-6 10l18 60 q127 -4 201 -4l194 12l7 -10l-17 -64q-43 -12 -86 -36.5t-95 -68.5t-82 -70.5t-93.5 -90t-79.5 -80.5l215 -276q70 -90 127 -129t121 -39l6 -11l-12 -59q-121 -33 -152 -33t-72 21q-57 30 -143 153z" />
<glyph unicode="&#x139;" horiz-adv-x="1038" d="M139 -20l13 94q80 12 109.5 48t29.5 124l2 860q0 66 -15.5 88.5t-60.5 22.5l-70 -5l-4 9l15 90q152 -6 229 -6q39 0 94.5 5t89.5 9l35 4l-8 -92q-23 -4 -40 -7t-30.5 -9.5t-22.5 -9.5t-16.5 -16t-10.5 -18.5t-6 -25t-4 -27.5t-3 -36.5t-2 -41.5q-25 -342 -25 -790 q0 -104 30 -131t144 -27q178 0 234.5 51.5t91.5 239.5l90 10l6 -10q-37 -186 -59 -389l-10 -12q-356 18 -551 18q-68 0 -136.5 -5t-103.5 -10zM258 1499l408 223l18 -12l33 -98l-8 -21q-207 -70 -422 -151l-17 10z" />
<glyph unicode="&#x13a;" horiz-adv-x="499" d="M51 1384q0 12 4 37l4 39q63 8 139 23.5t120 25.5l44 11l13 -27q-23 -35 -40.5 -436.5t-17.5 -855.5q0 -61 16.5 -88t55.5 -27l72 4l4 -8l-16 -88q-106 6 -183 6q-39 0 -91 -6t-86 -12l-34 -7l8 84q35 10 57.5 24.5t35 27t16.5 45t5 50t1 70.5v1006q0 111 -76 111z M113 1581q66 72 142.5 160t120.5 141l44 53l20 -4l78 -84l-2 -22q-172 -131 -344 -287l-18 4z" />
<glyph unicode="&#x13b;" horiz-adv-x="1038" d="M139 -20l13 94q80 12 109.5 48t29.5 124l2 860q0 66 -15.5 88.5t-60.5 22.5l-70 -5l-4 9l15 90q152 -6 229 -6q39 0 94.5 5t89.5 9l35 4l-8 -92q-23 -4 -40 -7t-30.5 -9.5t-22.5 -9.5t-16.5 -16t-10.5 -18.5t-6 -25t-4 -27.5t-3 -36.5t-2 -41.5q-25 -342 -25 -790 q0 -104 30 -131t144 -27q178 0 234.5 51.5t91.5 239.5l90 10l6 -10q-37 -186 -59 -389l-10 -12q-356 18 -551 18q-68 0 -136.5 -5t-103.5 -10zM436 -549q63 39 105.5 95.5t42.5 107.5q0 78 -82 127l4 29q70 53 119 53q47 0 78.5 -40t31.5 -106q0 -100 -77.5 -181 t-184.5 -136l-37 31v20z" />
<glyph unicode="&#x13c;" horiz-adv-x="499" d="M51 1384q0 12 4 37l4 39q63 8 139 23.5t120 25.5l44 11l13 -27q-23 -35 -40.5 -436.5t-17.5 -855.5q0 -61 16.5 -88t55.5 -27l72 4l4 -8l-16 -88q-106 6 -183 6q-39 0 -91 -6t-86 -12l-34 -7l8 84q35 10 57.5 24.5t35 27t16.5 45t5 50t1 70.5v1006q0 111 -76 111z M78 -549q63 39 105 95.5t42 107.5q0 78 -82 127l4 29q70 53 119 53q47 0 79 -40t32 -106q0 -100 -78 -181t-184 -136l-37 31v20z" />
<glyph unicode="&#x13d;" horiz-adv-x="1038" d="M139 -20l13 94q80 12 109.5 48t29.5 124l2 860q0 66 -15.5 88.5t-60.5 22.5l-70 -5l-4 9l15 90q152 -6 229 -6q39 0 94.5 5t89.5 9l35 4l-8 -92q-23 -4 -40 -7t-30.5 -9.5t-22.5 -9.5t-16.5 -16t-10.5 -18.5t-6 -25t-4 -27.5t-3 -36.5t-2 -41.5q-25 -342 -25 -790 q0 -104 30 -131t144 -27q178 0 234.5 51.5t91.5 239.5l90 10l6 -10q-37 -186 -59 -389l-10 -12q-356 18 -551 18q-68 0 -136.5 -5t-103.5 -10zM840 1268l143 28l14 -16q-29 -225 -71 -434l-52 -29l-22 4q4 117 1 216.5t-8 164.5z" />
<glyph unicode="&#x13e;" horiz-adv-x="622" d="M51 1384q0 12 4 37l4 39q63 8 139 23.5t120 25.5l44 11l13 -27q-23 -35 -40.5 -436.5t-17.5 -855.5q0 -61 16.5 -88t55.5 -27l72 4l4 -8l-16 -88q-106 6 -183 6q-39 0 -91 -6t-86 -12l-34 -7l8 84q35 10 57.5 24.5t35 27t16.5 45t5 50t1 70.5v1006q0 111 -76 111z M465 1403l143 29l15 -17q-29 -225 -72 -434l-51 -29l-23 4q4 117 1 216.5t-8 164.5z" />
<glyph unicode="&#x13f;" horiz-adv-x="1091" d="M139 -20l13 94q80 12 109.5 48t29.5 124l2 860q0 66 -15.5 88.5t-60.5 22.5l-70 -5l-4 9l15 90q152 -6 229 -6q39 0 94.5 5t89.5 9l35 4l-8 -92q-23 -4 -40 -7t-30.5 -9.5t-22.5 -9.5t-16.5 -16t-10.5 -18.5t-6 -25t-4 -27.5t-3 -36.5t-2 -41.5q-25 -342 -25 -790 q0 -104 30 -131t144 -27q178 0 234.5 51.5t91.5 239.5l90 10l6 -10q-37 -186 -59 -389l-10 -12q-356 18 -551 18q-68 0 -136.5 -5t-103.5 -10zM778 901q0 53 35 90t92 37q55 0 86 -33.5t31 -83.5q0 -53 -36 -90t-93 -37q-55 0 -85 34t-30 83z" />
<glyph unicode="&#x140;" horiz-adv-x="679" d="M51 1384q0 12 4 37l4 39q63 8 139 23.5t120 25.5l44 11l13 -27q-23 -35 -40.5 -436.5t-17.5 -855.5q0 -61 16.5 -88t55.5 -27l72 4l4 -8l-16 -88q-106 6 -183 6q-39 0 -91 -6t-86 -12l-34 -7l8 84q35 10 57.5 24.5t35 27t16.5 45t5 50t1 70.5v1006q0 111 -76 111z M426 565q0 53 35 90t92 37q55 0 86 -33.5t31 -83.5q0 -53 -36 -89.5t-93 -36.5q-55 0 -85 33.5t-30 82.5z" />
<glyph unicode="&#x141;" horiz-adv-x="1128" d="M125 600l166 82l2 424q0 66 -15.5 88.5t-60.5 22.5l-70 -5l-4 9l15 90q152 -6 229 -6q39 0 94.5 5t89.5 9l35 4l-8 -92q-23 -4 -40 -7t-30.5 -9.5t-22.5 -9.5t-16.5 -16t-10.5 -18.5t-6 -25t-4 -27.5t-3 -36.5t-2 -41.5q-10 -162 -17 -292l369 182l16 -10l11 -64 l-398 -197q-6 -158 -6 -409q0 -104 30 -131t144 -27q178 0 234.5 51.5t91.5 239.5l90 10l6 -10q-37 -186 -59 -389l-10 -12q-356 18 -551 18q-68 0 -136.5 -5t-103.5 -10l-35 -5l13 94q80 12 109.5 48t29.5 124v350l-137 -68l-19 7z" />
<glyph unicode="&#x142;" horiz-adv-x="505" d="M6 700l172 97v485q0 111 -76 111l-51 -9q0 12 4 37l4 39q63 8 139 23.5t120 25.5l44 11l13 -27q-29 -47 -47 -623l139 78l16 -8l13 -63l-170 -95q-8 -244 -9 -581q0 -61 16.5 -88t55.5 -27l72 4l4 -8l-16 -88q-106 6 -183 6q-39 0 -91 -6t-86 -12l-34 -7l8 84 q35 10 57.5 24.5t35 27t16.5 45t5 50t1 70.5v433l-141 -78l-19 4z" />
<glyph unicode="&#x143;" horiz-adv-x="1472" d="M111 1239l16 76q119 -10 176 -10l137 8q152 -236 324 -490t268 -390l96 -136h11v829q0 88 -68 88l-78 -2l-4 9l19 92q125 -8 194 -8l203 16l-10 -94q-72 -10 -105 -40t-35 -89l-28 -1151l-60 -29q-178 276 -368.5 559t-291.5 426l-101 144h-11l-10 -875q0 -45 14.5 -63.5 t49.5 -18.5l104 2l4 -8l-18 -92q-129 8 -217 8l-191 -16l10 94q125 14 127 129l27 895q0 63 -38 90t-140 37zM629 1499l407 223l19 -12l32 -98l-8 -21q-207 -70 -422 -151l-16 10z" />
<glyph unicode="&#x144;" horiz-adv-x="1150" d="M80 825l6 68l287 59l12 -16q-18 -66 -23 -135l5 -6q233 156 301 155q129 0 204.5 -71.5t75.5 -192.5q0 -31 -14 -225.5t-14 -259.5q0 -115 71 -115l72 4l4 -8l-16 -88q-106 6 -183 6q-39 0 -91 -6t-86 -12l-34 -7l9 84q115 31 114 134l8 405q0 102 -44 157.5t-126 55.5 q-111 0 -251 -106q-18 -424 -19 -504q0 -63 16.5 -89t57.5 -26l72 4l4 -8l-19 -88q-111 6 -186 6l-203 -12l10 84q59 10 84 36.5t25 84.5v499q0 70 -22.5 97.5t-77.5 27.5h-23zM449 1110q66 72 142.5 160t120.5 141l44 53l20 -4l78 -84l-2 -22q-172 -131 -344 -287l-19 4z " />
<glyph unicode="&#x145;" horiz-adv-x="1472" d="M111 1239l16 76q119 -10 176 -10l137 8q152 -236 324 -490t268 -390l96 -136h11v829q0 88 -68 88l-78 -2l-4 9l19 92q125 -8 194 -8l203 16l-10 -94q-72 -10 -105 -40t-35 -89l-28 -1151l-60 -29q-178 276 -368.5 559t-291.5 426l-101 144h-11l-10 -875q0 -45 14.5 -63.5 t49.5 -18.5l104 2l4 -8l-18 -92q-129 8 -217 8l-191 -16l10 94q125 14 127 129l27 895q0 63 -38 90t-140 37zM571 -549q63 39 105.5 95.5t42.5 107.5q0 78 -82 127l4 29q70 53 119 53q47 0 78.5 -40t31.5 -106q0 -100 -77.5 -181t-184.5 -136l-37 31v20z" />
<glyph unicode="&#x146;" horiz-adv-x="1150" d="M80 825l6 68l287 59l12 -16q-18 -66 -23 -135l5 -6q233 156 301 155q129 0 204.5 -71.5t75.5 -192.5q0 -31 -14 -225.5t-14 -259.5q0 -115 71 -115l72 4l4 -8l-16 -88q-106 6 -183 6q-39 0 -91 -6t-86 -12l-34 -7l9 84q115 31 114 134l8 405q0 102 -44 157.5t-126 55.5 q-111 0 -251 -106q-18 -424 -19 -504q0 -63 16.5 -89t57.5 -26l72 4l4 -8l-19 -88q-111 6 -186 6l-203 -12l10 84q59 10 84 36.5t25 84.5v499q0 70 -22.5 97.5t-77.5 27.5h-23zM393 -549q63 39 105.5 95.5t42.5 107.5q0 78 -82 127l4 29q70 53 119 53q47 0 78.5 -40 t31.5 -106q0 -100 -77.5 -181t-184.5 -136l-37 31v20z" />
<glyph unicode="&#x147;" horiz-adv-x="1472" d="M111 1239l16 76q119 -10 176 -10l137 8q152 -236 324 -490t268 -390l96 -136h11v829q0 88 -68 88l-78 -2l-4 9l19 92q125 -8 194 -8l203 16l-10 -94q-72 -10 -105 -40t-35 -89l-28 -1151l-60 -29q-178 276 -368.5 559t-291.5 426l-101 144h-11l-10 -875q0 -45 14.5 -63.5 t49.5 -18.5l104 2l4 -8l-18 -92q-129 8 -217 8l-191 -16l10 94q125 14 127 129l27 895q0 63 -38 90t-140 37zM463 1669l29 45l18 2q137 -80 250 -133q106 49 250 133l18 -2l29 -45l-283 -227h-29q-150 127 -282 227z" />
<glyph unicode="&#x148;" horiz-adv-x="1150" d="M80 825l6 68l287 59l12 -16q-18 -66 -23 -135l5 -6q233 156 301 155q129 0 204.5 -71.5t75.5 -192.5q0 -31 -14 -225.5t-14 -259.5q0 -115 71 -115l72 4l4 -8l-16 -88q-106 6 -183 6q-39 0 -91 -6t-86 -12l-34 -7l9 84q115 31 114 134l8 405q0 102 -44 157.5t-126 55.5 q-111 0 -251 -106q-18 -424 -19 -504q0 -63 16.5 -89t57.5 -26l72 4l4 -8l-19 -88q-111 6 -186 6l-203 -12l10 84q59 10 84 36.5t25 84.5v499q0 70 -22.5 97.5t-77.5 27.5h-23zM281 1405l32 47l17 2q123 -106 262 -207q170 127 262 207l16 -2l33 -47q-63 -66 -137 -147.5 t-117 -131.5l-43 -49h-28q-156 183 -297 328z" />
<glyph unicode="&#x14a;" horiz-adv-x="1472" d="M111 1239l16 76q123 -10 166 -10l147 8q129 -203 301 -457t280 -406l107 -153h11v829q0 88 -68 88l-78 -2l-4 9l19 92q127 -8 194 -8l203 16l-10 -94q-74 -8 -106 -39t-34 -90l-18 -922q-6 -199 -83 -313.5t-251 -177.5l-35 67l6 17q188 84 230 247q-374 575 -698 1031 h-11l-10 -875q0 -45 14.5 -63.5t49.5 -18.5l102 4l6 -8l-18 -94q-133 8 -230 8q-37 0 -81 -4t-70 -8l-27 -4l10 94q72 6 98.5 42t30.5 134l25 848q0 59 -36 85.5t-142 41.5z" />
<glyph unicode="&#x14b;" horiz-adv-x="1091" d="M80 825l6 68l287 59l12 -16q-18 -66 -23 -135l5 -6q233 155 301 155q129 0 204.5 -71.5t75.5 -192.5l-22 -489q-12 -209 -84 -318.5t-244 -173.5l-35 68l6 16q127 68 170 151t47 253l2 405q0 102 -44 157.5t-126 55.5q-111 0 -251 -106q-18 -424 -19 -504q0 -63 16.5 -89 t57.5 -26l72 4l4 -8l-19 -88q-111 6 -186 6l-203 -12l10 84q59 10 84 36.5t25 84.5v499q0 70 -22.5 97.5t-77.5 27.5h-23z" />
<glyph unicode="&#x14c;" horiz-adv-x="1417" d="M82 608q0 303 194.5 512t479.5 209q256 0 417.5 -176t161.5 -455q0 -305 -197.5 -514t-488.5 -209q-252 0 -409.5 176.5t-157.5 456.5zM258 674q0 -262 127 -428t328 -166q195 0 317.5 148.5t122.5 383.5q0 262 -130 428t-337 166q-190 0 -309 -147.5t-119 -384.5z M393 1491l21 92q195 -2 315 -2l264 12l13 -20l-15 -96l-291 -2l-294 -2z" />
<glyph unicode="&#x14d;" horiz-adv-x="1019" d="M74 430q0 219 137 369.5t338 150.5q176 0 286.5 -127t110.5 -327q0 -219 -137 -370t-338 -151q-176 0 -286.5 127t-110.5 328zM207 1235l20 92q195 -2 316 -2l264 12l12 -20l-14 -96l-291 -2l-295 -2zM238 489q0 -184 80.5 -298.5t209.5 -114.5q115 0 182.5 93t67.5 253 q0 184 -81 301t-210 117q-115 0 -182 -94.5t-67 -256.5z" />
<glyph unicode="&#x14e;" horiz-adv-x="1417" d="M82 608q0 303 194.5 512t479.5 209q256 0 417.5 -176t161.5 -455q0 -305 -197.5 -514t-488.5 -209q-252 0 -409.5 176.5t-157.5 456.5zM258 674q0 -262 127 -428t328 -166q195 0 317.5 148.5t122.5 383.5q0 262 -130 428t-337 166q-190 0 -309 -147.5t-119 -384.5z M420 1735l33 20h16q51 -135 196.5 -135t196.5 135h17l32 -20q-25 -98 -86 -166t-159.5 -68t-160 67.5t-85.5 166.5z" />
<glyph unicode="&#x14f;" horiz-adv-x="1019" d="M74 430q0 219 137 369.5t338 150.5q176 0 286.5 -127t110.5 -327q0 -219 -137 -370t-338 -151q-176 0 -286.5 127t-110.5 328zM238 489q0 -184 80.5 -298.5t209.5 -114.5q115 0 182.5 93t67.5 253q0 184 -81 301t-210 117q-115 0 -182 -94.5t-67 -256.5zM295 1376l33 21 h16q53 -135 196.5 -135t196.5 135h17l32 -21q-25 -98 -86 -165.5t-159.5 -67.5t-160 67.5t-85.5 165.5z" />
<glyph unicode="&#x150;" horiz-adv-x="1417" d="M82 608q0 303 194.5 512t479.5 209q256 0 417.5 -176t161.5 -455q0 -305 -197.5 -514t-488.5 -209q-252 0 -409.5 176.5t-157.5 456.5zM258 674q0 -262 127 -428t328 -166q195 0 317.5 148.5t122.5 383.5q0 262 -130 428t-337 166q-190 0 -309 -147.5t-119 -384.5z M504 1475l313 239l19 -8l45 -88l-7 -19q-164 -82 -335 -178l-17 11zM791 1454l313 242l18 -10l45 -87l-6 -18q-164 -82 -336 -178l-14 8z" />
<glyph unicode="&#x151;" horiz-adv-x="1019" d="M74 430q0 219 137 369.5t338 150.5q176 0 286.5 -127t110.5 -327q0 -219 -137 -370t-338 -151q-176 0 -286.5 127t-110.5 328zM238 489q0 -184 80.5 -298.5t209.5 -114.5q115 0 182.5 93t67.5 253q0 184 -81 301t-210 117q-115 0 -182 -94.5t-67 -256.5zM276 1135 l287 309l19 -6l67 -78l-4 -19q-156 -113 -317 -247l-19 4zM539 1135l286 309l19 -6l67 -78l-4 -19q-156 -113 -317 -247l-19 4z" />
<glyph unicode="&#x152;" horiz-adv-x="1972" d="M84 608q0 303 190.5 512t468.5 209q66 0 213.5 -14.5t235.5 -14.5q416 0 623 29l6 -12q-35 -152 -47 -340l-99 -8q4 59 4 88q0 100 -49 122.5t-266 22.5q-100 0 -119.5 -11t-23.5 -69l-17 -397l213 -2l250 22l8 -10l-28 -121q-176 6 -287 7l-160 -15l-6 -391 q0 -84 25.5 -103.5t136.5 -19.5q172 0 243.5 17.5t103.5 65.5t48 167l90 10l6 -10q-37 -170 -55 -344l-10 -12q-430 16 -625 16q-113 0 -285 -13.5t-235 -13.5q-244 0 -398.5 177.5t-154.5 455.5zM260 676q0 -264 121.5 -429t318.5 -165q199 0 280 78t85 266l2 530 q0 152 -76 203t-297 51q-193 0 -313.5 -149.5t-120.5 -384.5z" />
<glyph unicode="&#x153;" horiz-adv-x="1579" d="M74 430q0 219 134 369.5t331 150.5q209 0 313 -178q70 90 162 134t176 44q145 0 226 -71.5t81 -202.5q0 -33 -5 -63.5t-11 -45.5l-6 -14l-27 -25h-557v-32q0 -172 83 -276.5t220 -104.5q126 0 252 63l12 -4l23 -59q-20 -16 -56 -39t-119 -62t-139 -39q-244 0 -356 177 q-135 -176 -350 -177q-172 0 -279.5 127t-107.5 328zM238 489q0 -184 77.5 -298.5t202.5 -114.5q111 0 175.5 93t64.5 253q0 184 -78 301t-203 117q-111 0 -175 -94.5t-64 -256.5zM899 604l371 19q31 2 41 13t10 42q0 82 -44 125t-126 43q-96 0 -164.5 -65.5t-87.5 -176.5z " />
<glyph unicode="&#x154;" horiz-adv-x="1251" d="M117 -8l18 92q96 10 126 42t30 120l2 860q0 66 -15.5 88.5t-60.5 22.5l-70 -5l-4 9l15 90q150 -6 227 -6l252 8q190 0 301 -86t111 -236q0 -123 -79 -225t-222 -168l225 -356q59 -98 115.5 -136t138.5 -38l8 -9l-12 -69l-174 -23q-51 0 -109.5 52.5t-108.5 142.5 l-219 397h-170l-6 -305q0 -111 24.5 -139.5t123.5 -28.5l4 -8l-19 -86q0 2 -217 6zM446 674l211 -21q8 2 23.5 7.5t53.5 29t67.5 54t53.5 87t24 123.5q0 270 -375 271q-20 0 -27.5 -9.5t-9.5 -37.5q-19 -314 -21 -504zM494 1499l407 223l19 -12l32 -98l-8 -21 q-207 -70 -422 -151l-16 10z" />
<glyph unicode="&#x155;" horiz-adv-x="784" d="M92 827l6 64q124 22 277 61l14 -12q-2 -12 -5 -33.5t-8 -78t-5 -99.5l8 -6q61 96 144 157.5t145 61.5l63 -8l6 -8q-29 -168 -32 -293l-80 -6q0 84 -11.5 111.5t-44.5 27.5q-45 0 -96 -38t-94 -101q-16 -373 -17 -418q0 -70 20.5 -94.5t78.5 -24.5l90 4l2 -8l-18 -90 q-129 4 -209 4l-215 -8l10 82q61 6 81.5 39.5t20.5 130.5v450q0 68 -18.5 96.5t-59.5 28.5l-43 -6zM152 1110q66 72 142.5 160t120.5 141l44 53l20 -4l78 -84l-2 -22q-172 -131 -344 -287l-18 4z" />
<glyph unicode="&#x156;" horiz-adv-x="1251" d="M117 -8l18 92q96 10 126 42t30 120l2 860q0 66 -15.5 88.5t-60.5 22.5l-70 -5l-4 9l15 90q150 -6 227 -6l252 8q190 0 301 -86t111 -236q0 -123 -79 -225t-222 -168l225 -356q59 -98 115.5 -136t138.5 -38l8 -9l-12 -69l-174 -23q-51 0 -109.5 52.5t-108.5 142.5 l-219 397h-170l-6 -305q0 -111 24.5 -139.5t123.5 -28.5l4 -8l-19 -86q0 2 -217 6zM446 674l211 -21q8 2 23.5 7.5t53.5 29t67.5 54t53.5 87t24 123.5q0 270 -375 271q-20 0 -27.5 -9.5t-9.5 -37.5q-19 -314 -21 -504zM477 -549q63 39 105.5 95.5t42.5 107.5q0 78 -82 127 l4 29q70 53 119 53q47 0 78.5 -40t31.5 -106q0 -100 -77.5 -181t-184.5 -136l-37 31v20z" />
<glyph unicode="&#x157;" horiz-adv-x="784" d="M92 827l6 64q124 22 277 61l14 -12q-2 -12 -5 -33.5t-8 -78t-5 -99.5l8 -6q61 96 144 157.5t145 61.5l63 -8l6 -8q-29 -168 -32 -293l-80 -6q0 84 -11.5 111.5t-44.5 27.5q-45 0 -96 -38t-94 -101q-16 -373 -17 -418q0 -70 20.5 -94.5t78.5 -24.5l90 4l2 -8l-18 -90 q-129 4 -209 4l-215 -8l10 82q61 6 81.5 39.5t20.5 130.5v450q0 68 -18.5 96.5t-59.5 28.5l-43 -6zM154 -549q63 39 105 95.5t42 107.5q0 78 -82 127l4 29q70 53 119 53q47 0 79 -40t32 -106q0 -100 -78 -181t-185 -136l-36 31v20z" />
<glyph unicode="&#x158;" horiz-adv-x="1251" d="M117 -8l18 92q96 10 126 42t30 120l2 860q0 66 -15.5 88.5t-60.5 22.5l-70 -5l-4 9l15 90q150 -6 227 -6l252 8q190 0 301 -86t111 -236q0 -123 -79 -225t-222 -168l225 -356q59 -98 115.5 -136t138.5 -38l8 -9l-12 -69l-174 -23q-51 0 -109.5 52.5t-108.5 142.5 l-219 397h-170l-6 -305q0 -111 24.5 -139.5t123.5 -28.5l4 -8l-19 -86q0 2 -217 6zM328 1669l28 45l19 2q137 -80 250 -133q106 49 249 133l19 -2l29 -45l-283 -227h-29q-150 127 -282 227zM446 674l211 -21q8 2 23.5 7.5t53.5 29t67.5 54t53.5 87t24 123.5q0 270 -375 271 q-20 0 -27.5 -9.5t-9.5 -37.5q-19 -314 -21 -504z" />
<glyph unicode="&#x159;" horiz-adv-x="784" d="M-16 1405l32 47l17 2q123 -106 262 -207q170 127 262 207l16 -2l33 -47q-63 -66 -137 -147.5t-117 -131.5l-43 -49h-28q-156 183 -297 328zM92 827l6 64q124 22 277 61l14 -12q-2 -12 -5 -33.5t-8 -78t-5 -99.5l8 -6q61 96 144 157.5t145 61.5l63 -8l6 -8 q-29 -168 -32 -293l-80 -6q0 84 -11.5 111.5t-44.5 27.5q-45 0 -96 -38t-94 -101q-16 -373 -17 -418q0 -70 20.5 -94.5t78.5 -24.5l90 4l2 -8l-18 -90q-129 4 -209 4l-215 -8l10 82q61 6 81.5 39.5t20.5 130.5v450q0 68 -18.5 96.5t-59.5 28.5l-43 -6z" />
<glyph unicode="&#x15a;" horiz-adv-x="1085" d="M117 66q25 158 24 356l92 10q0 -221 50.5 -288.5t216.5 -67.5q129 0 206.5 60.5t77.5 164.5q0 45 -22.5 85t-68.5 75t-89 59.5t-111 59.5q-14 6 -20 10q-78 41 -124 68.5t-101 73.5t-82 99.5t-27 116.5q0 162 136.5 271.5t334.5 109.5q182 0 314 -51l6 -12 q-33 -158 -45 -346l-80 -9l-12 11q6 43 6 106q0 109 -53.5 150t-190.5 41q-113 0 -185.5 -56.5t-72.5 -140.5q0 -82 70.5 -142.5t207.5 -131.5q203 -105 269 -162q110 -94 110 -211q0 -176 -141 -288t-364 -112q-86 0 -166 17.5t-118 35.5l-38 17zM406 1499l407 223l18 -12 l33 -98l-8 -21q-207 -70 -422 -151l-16 10z" />
<glyph unicode="&#x15b;" horiz-adv-x="823" d="M100 33q18 102 25 274l72 10q0 -135 45 -190t153 -55q78 0 131.5 34.5t53.5 86t-48.5 93.5t-189.5 117q-117 59 -170 120t-53 134q0 125 107.5 209t269.5 84q49 0 100 -8t78 -16l26 -8l5 -11q-29 -115 -39 -250l-76 -6q4 41 4 60q0 74 -40 107.5t-128 33.5 q-70 0 -118 -33t-48 -80q0 -49 42 -92t136 -92q166 -88 226.5 -147.5t60.5 -137.5q0 -119 -112.5 -207t-262.5 -88q-66 0 -127 10.5t-89 21.5l-28 11zM291 1110q66 72 142.5 160t120.5 141l44 53l20 -4l78 -84l-2 -22q-172 -131 -344 -287l-18 4z" />
<glyph unicode="&#x15c;" horiz-adv-x="1085" d="M117 66q25 158 24 356l92 10q0 -221 50.5 -288.5t216.5 -67.5q129 0 206.5 60.5t77.5 164.5q0 45 -22.5 85t-68.5 75t-89 59.5t-111 59.5q-14 6 -20 10q-78 41 -124 68.5t-101 73.5t-82 99.5t-27 116.5q0 162 136.5 271.5t334.5 109.5q182 0 314 -51l6 -12 q-33 -158 -45 -346l-80 -9l-12 11q6 43 6 106q0 109 -53.5 150t-190.5 41q-113 0 -185.5 -56.5t-72.5 -140.5q0 -82 70.5 -142.5t207.5 -131.5q203 -105 269 -162q110 -94 110 -211q0 -176 -141 -288t-364 -112q-86 0 -166 17.5t-118 35.5l-38 17zM303 1483q59 61 130 140 t112 126l41 47h28q150 -174 283 -313l-29 -45l-18 -2q-45 39 -250 198q-160 -119 -250 -198l-18 2z" />
<glyph unicode="&#x15d;" horiz-adv-x="823" d="M100 33q18 102 25 274l72 10q0 -135 45 -190t153 -55q78 0 131.5 34.5t53.5 86t-48.5 93.5t-189.5 117q-117 59 -170 120t-53 134q0 125 107.5 209t269.5 84q49 0 100 -8t78 -16l26 -8l5 -11q-29 -115 -39 -250l-76 -6q4 41 4 60q0 74 -40 107.5t-128 33.5 q-70 0 -118 -33t-48 -80q0 -49 42 -92t136 -92q166 -88 226.5 -147.5t60.5 -137.5q0 -119 -112.5 -207t-262.5 -88q-66 0 -127 10.5t-89 21.5l-28 11zM115 1126q59 61 129.5 140.5t111.5 126.5l41 47h29q150 -174 283 -314l-29 -45l-18 -2q-45 39 -250 199 q-160 -119 -250 -199l-19 2z" />
<glyph unicode="&#x15e;" horiz-adv-x="1085" d="M117 66q25 158 24 356l92 10q0 -221 50.5 -288.5t216.5 -67.5q129 0 206.5 60.5t77.5 164.5q0 45 -22.5 85t-68.5 75t-89 59.5t-111 59.5q-14 6 -20 10q-78 41 -124 68.5t-101 73.5t-82 99.5t-27 116.5q0 162 136.5 271.5t334.5 109.5q182 0 314 -51l6 -12 q-33 -158 -45 -346l-80 -9l-12 11q6 43 6 106q0 109 -53.5 150t-190.5 41q-113 0 -185.5 -56.5t-72.5 -140.5q0 -82 70.5 -142.5t207.5 -131.5q203 -105 269 -162q110 -94 110 -211q0 -154 -110.5 -260.5t-290.5 -130.5l-29 -86q8 -6 36 -24.5t41 -28t34.5 -28t33 -32.5 t20.5 -32.5t9 -37.5q0 -78 -78.5 -135t-166.5 -57q-51 0 -95.5 20.5t-44.5 53t52 114.5h18q2 -55 32.5 -86t80.5 -31q41 0 69.5 22t28.5 56q0 53 -174 154l45 149h-16q-86 0 -166 17.5t-118 35.5l-38 17z" />
<glyph unicode="&#x15f;" horiz-adv-x="823" d="M100 33q18 102 25 274l72 10q0 -135 45 -190t153 -55q78 0 131.5 34.5t53.5 86t-48.5 93.5t-189.5 117q-117 59 -170 120t-53 134q0 125 107.5 209t269.5 84q49 0 100 -8t78 -16l26 -8l5 -11q-29 -115 -39 -250l-76 -6q4 41 4 60q0 74 -40 107.5t-128 33.5 q-70 0 -118 -33t-48 -80q0 -49 42 -92t136 -92q166 -88 226.5 -147.5t60.5 -137.5q0 -102 -85 -183t-210 -103l-29 -86q8 -6 36 -24.5t41.5 -28t35 -28t32.5 -32.5t20 -32.5t9 -37.5q0 -78 -78.5 -135t-166.5 -57q-51 0 -95.5 20.5t-44.5 53t52 114.5h18q2 -55 33 -86 t80 -31q41 0 69.5 22t28.5 56q0 54 -174 154l45 149q-66 0 -124 11.5t-85 21.5l-27 10z" />
<glyph unicode="&#x160;" horiz-adv-x="1085" d="M117 66q25 158 24 356l92 10q0 -221 50.5 -288.5t216.5 -67.5q129 0 206.5 60.5t77.5 164.5q0 45 -22.5 85t-68.5 75t-89 59.5t-111 59.5q-14 6 -20 10q-78 41 -124 68.5t-101 73.5t-82 99.5t-27 116.5q0 162 136.5 271.5t334.5 109.5q182 0 314 -51l6 -12 q-33 -158 -45 -346l-80 -9l-12 11q6 43 6 106q0 109 -53.5 150t-190.5 41q-113 0 -185.5 -56.5t-72.5 -140.5q0 -82 70.5 -142.5t207.5 -131.5q203 -105 269 -162q110 -94 110 -211q0 -176 -141 -288t-364 -112q-86 0 -166 17.5t-118 35.5l-38 17zM240 1669l28 45l19 2 q137 -80 250 -133q106 49 249 133l19 -2l29 -45l-283 -227h-29q-150 127 -282 227z" />
<glyph unicode="&#x161;" horiz-adv-x="823" d="M100 33q18 102 25 274l72 10q0 -135 45 -190t153 -55q78 0 131.5 34.5t53.5 86t-48.5 93.5t-189.5 117q-117 59 -170 120t-53 134q0 125 107.5 209t269.5 84q49 0 100 -8t78 -16l26 -8l5 -11q-29 -115 -39 -250l-76 -6q4 41 4 60q0 74 -40 107.5t-128 33.5 q-70 0 -118 -33t-48 -80q0 -49 42 -92t136 -92q166 -88 226.5 -147.5t60.5 -137.5q0 -119 -112.5 -207t-262.5 -88q-66 0 -127 10.5t-89 21.5l-28 11zM123 1405l33 47l16 2q123 -106 262 -207q170 127 262 207l17 -2l32 -47q-63 -66 -136.5 -147.5t-116.5 -131.5l-43 -49 h-29q-156 183 -297 328z" />
<glyph unicode="&#x162;" horiz-adv-x="1118" d="M18 958q25 180 31 355l19 16l170 -22h634l175 22l18 -16q2 -78 10 -164t15 -134l6 -48l-97 -9q-12 72 -18 105t-24.5 69.5t-33 47t-58.5 24t-85 15.5t-127 6q-33 -328 -32 -996q0 -76 26.5 -107.5t89.5 -31.5l113 6l6 -8l-18 -94q-133 4 -234 6l-35 -102q8 -6 36 -24.5 t41 -28t34.5 -28t33 -32.5t20.5 -32.5t9 -37.5q0 -78 -78.5 -135t-166.5 -57q-51 0 -95.5 20.5t-44.5 53t52 114.5h18q2 -55 33 -86t80 -31q41 0 69.5 22t28.5 56q0 54 -174 154l53 174l-262 -8l16 88q143 12 174 50t31 202v893q-96 -4 -138 -6t-90 -14.5t-61.5 -23t-33 -46 t-24.5 -66.5t-15 -102z" />
<glyph unicode="&#x163;" horiz-adv-x="675" d="M43 842l10 61q133 65 254 187l41 -17q-8 -53 -16 -153l301 6l6 -6l-18 -109l-297 6q-14 -225 -15 -512q0 -104 36 -147t124 -43q31 0 65.5 9t54.5 18l19 10l21 -54q-158 -123 -207 -123h-25l-26 -77q8 -6 35.5 -24.5t41 -28t35 -28t32.5 -32.5t20.5 -32.5t9.5 -37.5 q0 -78 -79 -135t-167 -57q-51 0 -95 20.5t-44 53t51 114.5h18q2 -55 32 -86t81 -31q41 0 69.5 22t28.5 56q0 54 -174 154l49 160q-80 18 -113.5 74.5t-33.5 162.5v504q0 55 -24.5 77.5t-92.5 24.5z" />
<glyph unicode="&#x164;" horiz-adv-x="1118" d="M18 958q25 180 31 355l19 16l170 -22h634l175 22l18 -16q2 -78 10 -164t15 -134l6 -48l-97 -9q-12 72 -18 105t-24.5 69.5t-33 47t-58.5 24t-85 15.5t-127 6q-33 -328 -32 -996q0 -76 26.5 -107.5t89.5 -31.5l113 6l6 -8l-18 -94q-205 6 -301 6l-281 -8l16 88 q143 12 174 50t31 202v893q-96 -4 -138 -6t-90 -14.5t-61.5 -23t-33 -46t-24.5 -66.5t-15 -102zM268 1669l29 45l18 2q137 -80 250 -133q106 49 250 133l19 -2l28 -45l-282 -227h-29q-150 127 -283 227z" />
<glyph unicode="&#x165;" horiz-adv-x="786" d="M43 842l10 61q133 65 254 187l41 -17q-8 -53 -16 -153l260 6l6 -6l-18 -109l-256 6q-14 -225 -15 -512q0 -104 36 -147t124 -43q31 0 65.5 9t54.5 18l19 10l21 -54q-158 -123 -207 -123q-139 0 -196.5 56.5t-57.5 191.5v504q0 55 -24.5 77.5t-92.5 24.5zM662 1022l143 29 l14 -17q-29 -225 -71 -434l-52 -29l-22 4q4 117 1 216.5t-8 164.5z" />
<glyph unicode="&#x166;" horiz-adv-x="1118" d="M18 958q25 180 31 355l19 16l170 -22h634l175 22l18 -16q2 -78 10 -164t15 -134l6 -48l-97 -9q-12 72 -18 105t-24.5 69.5t-33 47t-58.5 24t-85 15.5t-127 6q-16 -150 -26 -518l157 10l27 -27l-8 -76l-178 -2q-4 -266 -4 -383q0 -76 26.5 -107.5t89.5 -31.5l113 6l6 -8 l-18 -94q-205 6 -301 6l-281 -8l16 88q143 12 174 50t31 202v280l-190 -2l-19 19l15 80q98 -2 194 -2v518q-96 -4 -138 -6t-90 -14.5t-61.5 -23t-33 -46t-24.5 -66.5t-15 -102z" />
<glyph unicode="&#x167;" horiz-adv-x="692" d="M43 506l14 80q51 -2 111 -2v143q0 55 -24.5 77.5t-92.5 24.5l-8 13l10 61q133 65 254 187l41 -17q-8 -53 -16 -153l301 6l6 -6l-18 -109l-297 6l-13 -233h27l221 10l27 -27l-8 -75l-269 -3v-184q0 -104 36 -147t124 -43q31 0 65.5 9t54.5 18l19 10l21 -54 q-158 -123 -207 -123q-139 0 -196.5 56.5t-57.5 191.5v266l-107 -2z" />
<glyph unicode="&#x168;" horiz-adv-x="1394" d="M72 1221l14 90q154 -6 231 -6q39 0 93.5 5t88.5 9l33 4l-8 -92q-76 -10 -101.5 -33.5t-29.5 -83.5l-16 -602q0 -203 88 -311.5t254 -108.5q168 0 256 89t88 257l-12 668q-4 72 -17.5 91.5t-58.5 19.5l-88 -5l-4 9l14 90q154 -6 231 -6q39 0 89.5 5t79.5 9l30 4l-8 -92 q-90 -12 -115.5 -32.5t-25.5 -84.5v-688q0 -215 -133.5 -333t-374.5 -118q-215 0 -332 118t-117 335v678q0 66 -15.5 88.5t-60.5 22.5l-69 -5zM342 1530v10l156 182l32 9q35 0 154 -34t145 -34q20 0 53 28.5t55 56.5l21 28h13l45 -43v-11l-156 -182l-33 -8 q-35 0 -153.5 33.5t-145.5 33.5q-23 0 -54.5 -27.5t-52.5 -55.5l-22 -29h-12z" />
<glyph unicode="&#x169;" horiz-adv-x="1107" d="M57 813l9 76q127 20 292 61l13 -24q-20 -53 -37 -241.5t-17 -367.5q0 -201 164 -200q43 0 95.5 22.5t75 38t77.5 55.5v476q0 61 -22.5 85.5t-79.5 24.5l-49 -2l8 74q145 20 315 59l12 -24q-18 -47 -31.5 -256t-13.5 -455q0 -94 84 -94q65 0 123 51l29 -33 q-12 -18 -31.5 -45.5t-68 -73t-78.5 -45.5q-168 0 -183 166l-10 4q-221 -170 -284 -170q-131 0 -202 61.5t-71 176.5l8 498q0 111 -75 110zM217 1171v11l156 182l33 8q35 0 153.5 -33.5t145.5 -33.5q20 0 53 27.5t54 56.5l22 28h12l45 -43v-10l-156 -182l-33 -8 q-35 0 -153.5 33.5t-145.5 33.5q-23 0 -54.5 -28.5t-52.5 -56.5l-22 -28h-12z" />
<glyph unicode="&#x16a;" horiz-adv-x="1394" d="M72 1221l14 90q154 -6 231 -6q39 0 93.5 5t88.5 9l33 4l-8 -92q-76 -10 -101.5 -33.5t-29.5 -83.5l-16 -602q0 -203 88 -311.5t254 -108.5q168 0 256 89t88 257l-12 668q-4 72 -17.5 91.5t-58.5 19.5l-88 -5l-4 9l14 90q154 -6 231 -6q39 0 89.5 5t79.5 9l30 4l-8 -92 q-90 -12 -115.5 -32.5t-25.5 -84.5v-688q0 -215 -133.5 -333t-374.5 -118q-215 0 -332 118t-117 335v678q0 66 -15.5 88.5t-60.5 22.5l-69 -5zM403 1491l21 92q195 -2 315 -2l265 12l12 -20l-15 -96l-290 -2l-295 -2z" />
<glyph unicode="&#x16b;" horiz-adv-x="1107" d="M57 813l9 76q127 20 292 61l13 -24q-20 -53 -37 -241.5t-17 -367.5q0 -201 164 -200q43 0 95.5 22.5t75 38t77.5 55.5v476q0 61 -22.5 85.5t-79.5 24.5l-49 -2l8 74q145 20 315 59l12 -24q-18 -47 -31.5 -256t-13.5 -455q0 -94 84 -94q65 0 123 51l29 -33 q-12 -18 -31.5 -45.5t-68 -73t-78.5 -45.5q-168 0 -183 166l-10 4q-221 -170 -284 -170q-131 0 -202 61.5t-71 176.5l8 498q0 111 -75 110zM217 1235l21 92q195 -2 315 -2l264 12l12 -20l-14 -96l-291 -2l-295 -2z" />
<glyph unicode="&#x16c;" horiz-adv-x="1394" d="M72 1221l14 90q154 -6 231 -6q39 0 93.5 5t88.5 9l33 4l-8 -92q-76 -10 -101.5 -33.5t-29.5 -83.5l-16 -602q0 -203 88 -311.5t254 -108.5q168 0 256 89t88 257l-12 668q-4 72 -17.5 91.5t-58.5 19.5l-88 -5l-4 9l14 90q154 -6 231 -6q39 0 89.5 5t79.5 9l30 4l-8 -92 q-90 -12 -115.5 -32.5t-25.5 -84.5v-688q0 -215 -133.5 -333t-374.5 -118q-215 0 -332 118t-117 335v678q0 66 -15.5 88.5t-60.5 22.5l-69 -5zM436 1735l33 20h16q52 -135 197 -135t197 135h16l33 -20q-25 -98 -86.5 -166t-159.5 -68t-159.5 67.5t-86.5 166.5z" />
<glyph unicode="&#x16d;" horiz-adv-x="1107" d="M57 813l9 76q127 20 292 61l13 -24q-20 -53 -37 -241.5t-17 -367.5q0 -201 164 -200q43 0 95.5 22.5t75 38t77.5 55.5v476q0 61 -22.5 85.5t-79.5 24.5l-49 -2l8 74q145 20 315 59l12 -24q-18 -47 -31.5 -256t-13.5 -455q0 -94 84 -94q65 0 123 51l29 -33 q-12 -18 -31.5 -45.5t-68 -73t-78.5 -45.5q-168 0 -183 166l-10 4q-221 -170 -284 -170q-131 0 -202 61.5t-71 176.5l8 498q0 111 -75 110zM311 1376l33 21h16q54 -135 197 -135t197 135h16l33 -21q-25 -98 -86.5 -165.5t-159.5 -67.5t-159.5 67.5t-86.5 165.5z" />
<glyph unicode="&#x16e;" horiz-adv-x="1394" d="M72 1221l14 90q154 -6 231 -6q39 0 93.5 5t88.5 9l33 4l-8 -92q-76 -10 -101.5 -33.5t-29.5 -83.5l-16 -602q0 -203 88 -311.5t254 -108.5q168 0 256 89t88 257l-12 668q-4 72 -17.5 91.5t-58.5 19.5l-88 -5l-4 9l14 90q154 -6 231 -6q39 0 89.5 5t79.5 9l30 4l-8 -92 q-90 -12 -115.5 -32.5t-25.5 -84.5v-688q0 -215 -133.5 -333t-374.5 -118q-215 0 -332 118t-117 335v678q0 66 -15.5 88.5t-60.5 22.5l-69 -5zM545 1544q0 76 47 124t125 48t117.5 -45t39.5 -110q0 -74 -47 -127.5t-127 -53.5q-74 0 -114.5 45t-40.5 119zM610 1556 q0 -49 33 -73.5t72 -24.5q90 0 90 80q0 45 -27.5 71.5t-77.5 26.5q-90 0 -90 -80z" />
<glyph unicode="&#x16f;" horiz-adv-x="1107" d="M57 813l9 76q127 20 292 61l13 -24q-20 -53 -37 -241.5t-17 -367.5q0 -201 164 -200q43 0 95.5 22.5t75 38t77.5 55.5v476q0 61 -22.5 85.5t-79.5 24.5l-49 -2l8 74q145 20 315 59l12 -24q-18 -47 -31.5 -256t-13.5 -455q0 -94 84 -94q65 0 123 51l29 -33 q-12 -18 -31.5 -45.5t-68 -73t-78.5 -45.5q-168 0 -183 166l-10 4q-221 -170 -284 -170q-131 0 -202 61.5t-71 176.5l8 498q0 111 -75 110zM358 1278q0 76 47.5 124t124.5 48q80 0 119 -45t39 -111q0 -74 -47 -127t-127 -53q-74 0 -115 45t-41 119zM424 1290 q0 -49 32.5 -73.5t71.5 -24.5q90 0 90 80q0 45 -27.5 71.5t-76.5 26.5q-90 0 -90 -80z" />
<glyph unicode="&#x170;" horiz-adv-x="1394" d="M72 1221l14 90q154 -6 231 -6q39 0 93.5 5t88.5 9l33 4l-8 -92q-76 -10 -101.5 -33.5t-29.5 -83.5l-16 -602q0 -203 88 -311.5t254 -108.5q168 0 256 89t88 257l-12 668q-4 72 -17.5 91.5t-58.5 19.5l-88 -5l-4 9l14 90q154 -6 231 -6q39 0 89.5 5t79.5 9l30 4l-8 -92 q-90 -12 -115.5 -32.5t-25.5 -84.5v-688q0 -215 -133.5 -333t-374.5 -118q-215 0 -332 118t-117 335v678q0 66 -15.5 88.5t-60.5 22.5l-69 -5zM514 1475l313 239l19 -8l45 -88l-6 -19q-164 -82 -336 -178l-17 11zM801 1454l313 242l19 -10l45 -87l-7 -18q-164 -82 -335 -178 l-15 8z" />
<glyph unicode="&#x171;" horiz-adv-x="1107" d="M57 813l9 76q127 20 292 61l13 -24q-20 -53 -37 -241.5t-17 -367.5q0 -201 164 -200q43 0 95.5 22.5t75 38t77.5 55.5v476q0 61 -22.5 85.5t-79.5 24.5l-49 -2l8 74q145 20 315 59l12 -24q-18 -47 -31.5 -256t-13.5 -455q0 -94 84 -94q65 0 123 51l29 -33 q-12 -18 -31.5 -45.5t-68 -73t-78.5 -45.5q-168 0 -183 166l-10 4q-221 -170 -284 -170q-131 0 -202 61.5t-71 176.5l8 498q0 111 -75 110zM287 1135l286 309l19 -6l67 -78l-4 -19q-156 -113 -317 -247l-19 4zM549 1135l287 309l18 -6l68 -78l-4 -19q-156 -113 -318 -247 l-18 4z" />
<glyph unicode="&#x172;" horiz-adv-x="1394" d="M72 1221l14 90q154 -6 231 -6q39 0 93.5 5t88.5 9l33 4l-8 -92q-76 -10 -101.5 -33.5t-29.5 -83.5l-16 -602q0 -203 88 -311.5t254 -108.5q168 0 256 89t88 257l-12 668q-4 72 -17.5 91.5t-58.5 19.5l-88 -5l-4 9l14 90q154 -6 231 -6q39 0 89.5 5t79.5 9l30 4l-8 -92 q-90 -14 -115.5 -34.5t-25.5 -82.5v-688q0 -205 -136 -340q-147 -145 -195 -214t-48 -134q0 -49 32.5 -80t86.5 -31q79 0 157 47l27 -39q-100 -94 -205 -129q-104 0 -165.5 52.5t-61.5 140.5q0 106 192 301q-86 -25 -192 -25q-215 0 -332 118t-117 335v678q0 66 -15.5 88.5 t-60.5 22.5l-69 -5z" />
<glyph unicode="&#x173;" horiz-adv-x="1107" d="M57 813l9 76q127 20 292 61l13 -24q-20 -55 -37 -244.5t-17 -364.5q0 -201 164 -200q82 0 248 116v476q0 61 -22.5 85.5t-79.5 24.5l-49 -2l8 74q145 20 315 59l12 -24q-18 -47 -31.5 -256t-13.5 -455q0 -94 84 -94q65 0 123 51l35 -39q-186 -195 -233.5 -260.5 t-47.5 -130.5q0 -49 34 -82t85 -33q80 0 158 47l27 -39q-100 -94 -205 -129q-104 0 -166 52.5t-62 140.5q0 106 168 283q-113 25 -125 159l-10 4q-227 -170 -284 -170q-131 0 -202 61.5t-71 176.5l8 498q0 111 -75 110z" />
<glyph unicode="&#x174;" horiz-adv-x="1908" d="M-14 1223l12 88q164 -6 231 -6q66 0 139.5 5t115.5 11l42 6l6 -14l-8 -80q-104 -8 -140 -24.5t-36 -59.5q0 -35 62.5 -272.5t126.5 -457.5l63 -220h12l289 786l-37 113q-20 59 -63 85.5t-121 30.5l-4 9l14 88q164 -6 232 -6q55 0 128.5 5t120.5 11l48 6l6 -14l-8 -80 q-106 -8 -142.5 -24.5t-36.5 -61.5q0 -31 63.5 -267.5t127.5 -458.5l63 -222h13q332 895 331 952q0 72 -139 72h-102l-4 8l14 88q154 -14 285 -14l217 6l-15 -97q-61 -4 -85.5 -21t-45.5 -77l-430 -1106l-127 -45q-117 420 -256 869h-12l-291 -824l-131 -45 q-170 602 -342 1133q-37 115 -184 116q0 2 -1 4.5t-1 4.5zM657 1505l283 228h29q150 -127 282 -228l-28 -45l-19 -2q-137 80 -250 133q-106 -49 -249 -133l-19 2z" />
<glyph unicode="&#x175;" horiz-adv-x="1443" d="M-8 860l12 68q119 -2 164 -2q55 0 114.5 4t92.5 7l33 3l4 -10l-13 -64q-68 -2 -92 -13t-24 -40l168 -647h8q41 102 91 229t79.5 202t46.5 120q-23 70 -54.5 102.5t-91.5 32.5l-4 8l13 68q119 -2 163 -2l240 10l4 -10l-12 -64q-70 -2 -93.5 -12t-23.5 -37l168 -647h8 q37 92 81 203.5t68.5 172t47 122t33 93.5t10.5 46q0 51 -84 51h-76l-8 12l10 64q104 -4 203 -4l168 2l-14 -76q-41 -4 -66 -34t-61 -120l-289 -698l-109 -35q-109 358 -184 604h-12l-228 -569l-110 -35q-184 608 -242 785q-35 100 -135 102zM428 1126q59 61 130 140.5 t112 126.5l41 47h28q150 -174 283 -314l-29 -45l-18 -2q-45 39 -250 199q-160 -119 -250 -199l-18 2z" />
<glyph unicode="&#x176;" horiz-adv-x="1101" d="M-39 1231l12 80q131 -6 226 -6l290 16l7 -14l-7 -72q-92 -8 -123.5 -23.5t-31.5 -50.5q0 -27 57.5 -159t113.5 -250.5t58 -118.5h10l234 434q33 59 33 102q0 53 -129 62l-4 8l12 80q152 -14 227 -14l189 8l8 -15l-13 -75q-94 -18 -134 -57.5t-113 -171.5q-13 -25 -21 -38 l-205 -360q-20 -37 -29.5 -88t-11.5 -91t-4 -188q-2 -80 17.5 -109.5t72.5 -29.5l101 6l4 -8l-19 -94q-170 6 -260 6l-233 -25l12 95q106 20 133 61t27 160v90q0 113 -59 231l-185 375q-70 143 -98 174q-48 52 -160 62zM287 1505l282 228h29q150 -127 283 -228l-29 -45 l-18 -2q-137 80 -250 133q-106 -49 -250 -133l-19 2z" />
<glyph unicode="&#x177;" horiz-adv-x="913" d="M-18 860l12 68q123 -2 170 -2q53 0 114.5 4t96.5 7l35 3l4 -10l-13 -64q-70 -2 -95 -13t-25 -40q0 -72 182 -627h8q240 573 240 619q0 53 -78 53h-94l-4 8l12 68q106 -8 207 -8l174 2l-15 -76q-45 -8 -68.5 -31.5t-45.5 -85.5l-264 -622q-166 -381 -249 -495t-212 -112 q-16 0 -53 48.5t-37 68.5l10 15q119 0 224.5 95t174.5 265q-129 406 -268 756q-47 96 -139 98zM174 1126q59 61 130 140.5t112 126.5l41 47h28q150 -174 283 -314l-29 -45l-18 -2q-45 39 -250 199q-160 -119 -250 -199l-18 2z" />
<glyph unicode="&#x178;" horiz-adv-x="1101" d="M-39 1231l12 80q131 -6 226 -6l290 16l7 -14l-7 -72q-92 -8 -123.5 -23.5t-31.5 -50.5q0 -27 57.5 -159t113.5 -250.5t58 -118.5h10l234 434q33 59 33 102q0 53 -129 62l-4 8l12 80q152 -14 227 -14l189 8l8 -15l-13 -75q-94 -18 -134 -57.5t-113 -171.5q-13 -25 -21 -38 l-205 -360q-20 -37 -29.5 -88t-11.5 -91t-4 -188q-2 -80 17.5 -109.5t72.5 -29.5l101 6l4 -8l-19 -94q-170 6 -260 6l-233 -25l12 95q106 20 133 61t27 160v90q0 113 -59 231l-185 375q-70 143 -98 174q-48 52 -160 62zM319 1573q0 43 30 72.5t73 29.5q39 0 61.5 -25.5 t22.5 -62.5q0 -43 -30 -72.5t-73 -29.5q-39 0 -61.5 26.5t-22.5 61.5zM659 1573q0 43 30 72.5t73 29.5q39 0 61.5 -25.5t22.5 -62.5q0 -43 -30 -72.5t-73 -29.5q-39 0 -61.5 26.5t-22.5 61.5z" />
<glyph unicode="&#x179;" horiz-adv-x="1163" d="M70 59l764 1155l-355 -12q-141 -6 -200.5 -66.5t-75.5 -215.5l-97 -9q33 211 37 400l21 18l358 -22l529 -15l22 -59q-391 -520 -790 -1151l415 14q106 2 172 84t99 256l96 10q-41 -222 -51 -419l-31 -33l-741 12l-144 -12zM467 1499l407 223l19 -12l33 -98l-8 -21 q-207 -70 -422 -151l-17 10z" />
<glyph unicode="&#x17a;" horiz-adv-x="942" d="M74 47l557 801l-256 -12q-100 -6 -138 -44t-49 -141l-79 -12q20 166 22 297l12 10l263 -16l430 -10l16 -43q-328 -422 -586 -805l303 18q82 6 127 64.5t66 185.5l82 10q-35 -182 -35 -330l-33 -32l-575 18l-107 -10zM340 1110q66 72 142.5 160t120.5 141l44 53l21 -4 l77 -84l-2 -22q-172 -131 -344 -287l-18 4z" />
<glyph unicode="&#x17b;" horiz-adv-x="1163" d="M70 59l764 1155l-355 -12q-141 -6 -200.5 -66.5t-75.5 -215.5l-97 -9q33 211 37 400l21 18l358 -22l529 -15l22 -59q-391 -520 -790 -1151l415 14q106 2 172 84t99 256l96 10q-41 -222 -51 -419l-31 -33l-741 12l-144 -12zM487 1577q0 49 35 85t86 36q47 0 74 -31t27 -74 q0 -49 -35 -84.5t-86 -35.5q-47 0 -74 30.5t-27 73.5z" />
<glyph unicode="&#x17c;" horiz-adv-x="942" d="M74 47l557 801l-256 -12q-100 -6 -138 -44t-49 -141l-79 -12q20 166 22 297l12 10l263 -16l430 -10l16 -43q-328 -422 -586 -805l303 18q82 6 127 64.5t66 185.5l82 10q-35 -182 -35 -330l-33 -32l-575 18l-107 -10zM371 1337q0 49 34.5 85t86.5 36q47 0 73.5 -30.5 t26.5 -73.5q0 -49 -35 -85t-86 -36q-47 0 -73.5 30.5t-26.5 73.5z" />
<glyph unicode="&#x17d;" horiz-adv-x="1163" d="M70 59l764 1155l-355 -12q-141 -6 -200.5 -66.5t-75.5 -215.5l-97 -9q33 211 37 400l21 18l358 -22l529 -15l22 -59q-391 -520 -790 -1151l415 14q106 2 172 84t99 256l96 10q-41 -222 -51 -419l-31 -33l-741 12l-144 -12zM301 1669l29 45l18 2q137 -80 250 -133 q106 49 250 133l18 -2l29 -45l-283 -227h-28q-150 127 -283 227z" />
<glyph unicode="&#x17e;" horiz-adv-x="942" d="M74 47l557 801l-256 -12q-100 -6 -138 -44t-49 -141l-79 -12q20 166 22 297l12 10l263 -16l430 -10l16 -43q-328 -422 -586 -805l303 18q82 6 127 64.5t66 185.5l82 10q-35 -182 -35 -330l-33 -32l-575 18l-107 -10zM172 1405l33 47l16 2q123 -106 262 -207 q170 127 262 207l17 -2l33 -47q-63 -66 -137 -147.5t-117 -131.5l-43 -49h-29q-156 183 -297 328z" />
<glyph unicode="&#x192;" horiz-adv-x="782" d="M-109 -256q0 31 12.5 81t24.5 62h23q23 -53 70 -91t100 -38q103 0 117 154l65 653q0 49 -19.5 58.5t-113.5 11.5l-8 12l14 70l143 20l7 66l14 133q12 127 98 208t205 81q74 0 136.5 -21.5t62.5 -52.5q0 -33 -12.5 -85t-24.5 -67h-27q-27 55 -81 96.5t-113 41.5 q-37 0 -61.5 -17.5t-37 -59.5t-16.5 -69.5t-8 -92.5q-2 -17 -2 -26l-13 -141l267 6l6 -6l-21 -108q-123 4 -262 6l-37 -404l-24 -268q-12 -123 -108.5 -203t-213.5 -80q-61 0 -111.5 20.5t-50.5 49.5z" />
<glyph unicode="&#x1fa;" horiz-adv-x="1183" d="M-37 -6l17 96q57 6 91.5 40t67.5 118l400 1046l129 35h16q172 -637 326 -1098q25 -76 65.5 -106.5t130.5 -38.5l4 -8l-14 -84q-147 6 -217 6t-146.5 -5t-117.5 -10l-41 -5l-6 14l8 80q104 8 143 24.5t39 53.5q0 40 -18 98l-68 223q-49 2 -213 2q-98 0 -223 -16l-76 -213 q-18 -55 -18 -80q0 -84 123 -84h116l4 -8l-12 -88q-150 14 -285 14zM373 559h180q74 0 190 10l-161 537h-15zM453 1729l368 200l17 -12l28 -88l-8 -19q-184 -61 -379 -135l-14 8zM487 1518q0 68 43 111.5t113 43.5t105.5 -41t35.5 -98q0 -68 -41.5 -116t-113.5 -48 q-66 0 -104 41t-38 107zM547 1530q0 -45 29.5 -66.5t64.5 -21.5q82 0 82 71q0 39 -25.5 64t-68.5 25q-82 0 -82 -72z" />
<glyph unicode="&#x1fb;" horiz-adv-x="954" d="M84 238q0 59 29.5 104t79.5 59l387 107l4 90q0 102 -47.5 159.5t-133.5 57.5q-129 -3 -245 -102l-11 6l-24 88q246 143 334 143q133 0 208.5 -69.5t75.5 -194.5q0 -31 -18 -218t-18 -253q0 -94 83 -94q65 0 123 51l29 -33q-8 -14 -23.5 -36.5t-62.5 -66.5t-92 -61 q-168 0 -182 166l-9 2q-160 -160 -225 -159q-115 0 -188.5 71.5t-73.5 182.5zM240 260q0 -59 39.5 -98t101.5 -39q88 0 186 98l8 209l-276 -84q-59 -18 -59 -86zM291 1337l368 201l17 -12l29 -88l-9 -19q-184 -61 -379 -135l-14 8zM332 1126q0 68 43 112t112.5 44t105.5 -41 t36 -98q0 -68 -42 -116t-114 -48q-66 0 -103.5 41t-37.5 106zM391 1139q0 -45 29.5 -66.5t64.5 -21.5q82 0 82 71q0 39 -25.5 63.5t-68.5 24.5q-82 0 -82 -71z" />
<glyph unicode="&#x1fc;" horiz-adv-x="1658" d="M-20 63q68 72 129 185l505 936q-8 33 -51 33l-69 -5l-5 9l15 90l38 -1q38 -1 120.5 -3t166.5 -2q446 0 611 24l6 -12q-35 -152 -47 -340l-99 -8q4 59 5 88q0 100 -51.5 122.5t-270.5 22.5q-96 0 -118.5 -10t-24.5 -53l63 -467l242 22l188 27l8 -10l-26 -109l-176 -6 l-224 -18l58 -347q12 -78 50 -108.5t122 -30.5q223 0 282.5 41t81.5 209l90 10l7 -10q-37 -170 -56 -344l-10 -12l-91 3q-91 3 -230.5 7t-229.5 4h-69q-70 0 -146 -5t-117 -10l-41 -5l-4 14l4 80q121 10 160 29.5t39 74.5q0 31 -14 135l-37 252l-203 -16l-186 -21l-146 -282 q-33 -63 -32 -94q0 -70 112 -70h117l-10 -96q-152 14 -283 14l-139 -8zM430 635l172 10l150 12l-62 447h-18zM885 1468q66 72 142.5 160t120.5 141l44 54l20 -4l78 -84l-2 -23q-172 -131 -344 -287l-18 5z" />
<glyph unicode="&#x1fd;" horiz-adv-x="1337" d="M61 238q0 59 30 103t79 58l391 107l2 102q0 213 -176 213q-59 0 -121.5 -27.5t-96.5 -54.5l-34 -26l-10 6l-25 88q248 143 334 143q201 0 254 -164q125 164 311 164q131 0 206 -76.5t75 -214.5l-4 -38l-19 -29l-552 -131q10 -158 95 -256.5t210 -98.5q55 0 117.5 18.5 t98.5 36.5l36 17l12 -4l22 -59q-20 -16 -55 -39t-119 -62t-139 -39q-129 0 -227.5 57.5t-147.5 162.5q-172 -182 -284 -211q-115 0 -189 71.5t-74 182.5zM211 260q0 -57 41 -100t96 -43q86 0 236 139q-25 76 -25 174l-283 -84q-66 -18 -65 -86zM580 1110q66 72 142.5 160 t120.5 141l44 53l20 -4l78 -84l-2 -22q-172 -131 -344 -287l-18 4zM702 537l359 102q41 12 41 37q0 68 -43 114t-107 46q-113 0 -181.5 -79t-68.5 -206v-14z" />
<glyph unicode="&#x1fe;" horiz-adv-x="1417" d="M82 608q0 303 194.5 512t479.5 209q121 0 223 -43l86 164l59 -14l6 -25l-83 -156q135 -78 211.5 -223t76.5 -334q0 -305 -197.5 -514t-488.5 -209q-129 0 -248 54l-122 -230l-56 13l-4 20l121 231q-123 80 -190.5 222.5t-67.5 322.5zM258 674q0 -301 158 -465l489 936 q-100 61 -219 61q-190 0 -309 -147t-119 -385zM469 160q109 -80 244 -80q195 0 317.5 148.5t122.5 383.5q0 322 -188 490zM522 1499l408 223l18 -12l33 -98l-8 -21q-207 -70 -422 -151l-16 10z" />
<glyph unicode="&#x1ff;" horiz-adv-x="1019" d="M74 430q0 219 137 369.5t338 150.5q80 0 149 -28l97 182l59 -14l6 -25l-96 -178q182 -125 182 -391q0 -219 -137 -370t-338 -151q-82 0 -166 35l-112 -211l-56 13l-4 20l111 213q-170 125 -170 385zM238 489q0 -188 81 -301l312 603q-66 49 -144 49q-115 0 -182 -94.5 t-67 -256.5zM369 133q69 -57 159 -57q115 0 182.5 93t67.5 253q0 197 -92 315zM373 1110q66 72 142.5 160t120.5 141l44 53l20 -4l78 -84l-2 -22q-172 -131 -344 -287l-18 4z" />
<glyph unicode="&#x218;" horiz-adv-x="1085" d="M117 66q25 158 24 356l92 10q0 -221 50.5 -288.5t216.5 -67.5q129 0 206.5 60.5t77.5 164.5q0 45 -22.5 85t-68.5 75t-89 59.5t-111 59.5q-14 6 -20 10q-78 41 -124 68.5t-101 73.5t-82 99.5t-27 116.5q0 162 136.5 271.5t334.5 109.5q182 0 314 -51l6 -12 q-33 -158 -45 -346l-80 -9l-12 11q6 43 6 106q0 109 -53.5 150t-190.5 41q-113 0 -185.5 -56.5t-72.5 -140.5q0 -82 70.5 -142.5t207.5 -131.5q203 -105 269 -162q110 -94 110 -211q0 -176 -141 -288t-364 -112q-86 0 -166 17.5t-118 35.5l-38 17zM340 -549q63 39 105 95.5 t42 107.5q1 78 -81 127l4 29q70 53 118 53q47 0 79 -40t32 -106q0 -100 -78 -181t-184 -136l-37 31v20z" />
<glyph unicode="&#x219;" horiz-adv-x="823" d="M100 33q18 102 25 274l72 10q0 -135 45 -190t153 -55q78 0 131.5 34.5t53.5 86t-48.5 93.5t-189.5 117q-117 59 -170 120t-53 134q0 125 107.5 209t269.5 84q49 0 100 -8t78 -16l26 -8l5 -11q-29 -115 -39 -250l-76 -6q4 41 4 60q0 74 -40 107.5t-128 33.5 q-70 0 -118 -33t-48 -80q0 -49 42 -92t136 -92q166 -88 226.5 -147.5t60.5 -137.5q0 -119 -112.5 -207t-262.5 -88q-66 0 -127 10.5t-89 21.5l-28 11zM238 -549q63 39 105 95.5t42 107.5q0 78 -82 127l4 29q70 53 119 53q47 0 79 -40t32 -106q0 -100 -78 -181t-185 -136 l-36 31v20z" />
<glyph unicode="&#x21a;" horiz-adv-x="1118" d="M18 958q25 180 31 355l19 16l170 -22h634l175 22l18 -16q2 -78 10 -164t15 -134l6 -48l-97 -9q-12 72 -18 105t-24.5 69.5t-33 47t-58.5 24t-85 15.5t-127 6q-33 -328 -32 -996q0 -76 26.5 -107.5t89.5 -31.5l113 6l6 -8l-18 -94q-205 6 -301 6l-281 -8l16 88 q143 12 174 50t31 202v893q-96 -4 -138 -6t-90 -14.5t-61.5 -23t-33 -46t-24.5 -66.5t-15 -102zM385 -549q63 39 105 95.5t42 107.5q1 78 -81 127l4 29q70 53 118 53q47 0 79 -40t32 -106q0 -100 -78 -181t-184 -136l-37 31v20z" />
<glyph unicode="&#x21b;" horiz-adv-x="675" d="M43 842l10 61q133 65 254 187l41 -17q-8 -53 -16 -153l301 6l6 -6l-18 -109l-297 6q-14 -225 -15 -512q0 -104 36 -147t124 -43q31 0 65.5 9t54.5 18l19 10l21 -54q-158 -123 -207 -123q-139 0 -196.5 56.5t-57.5 191.5v504q0 55 -24.5 77.5t-92.5 24.5zM186 -549 q63 39 105.5 95.5t42.5 107.5q0 78 -82 127l4 29q70 53 119 53q47 0 78.5 -40t31.5 -106q0 -100 -77.5 -181t-184.5 -136l-37 31v20z" />
<glyph unicode="&#x237;" horiz-adv-x="512" d="M31 -455l4 17q88 88 119.5 196.5t31.5 319.5v635q0 63 -17 86.5t-65 23.5l-55 -6l8 76q55 8 129 22.5t120 24.5l46 10l10 -24q-35 -59 -34 -955q0 -147 -67.5 -268t-192.5 -197z" />
<glyph unicode="&#x2c6;" d="M111 1126q59 61 129.5 140.5t111.5 126.5l41 47h29q150 -174 283 -314l-29 -45l-19 -2q-45 39 -249 199q-160 -119 -250 -199l-19 2z" />
<glyph unicode="&#x2c7;" d="M96 1405l33 47l16 2q123 -106 263 -207q170 127 262 207l16 -2l33 -47q-63 -66 -137 -147.5t-117 -131.5l-43 -49h-29q-156 183 -297 328z" />
<glyph unicode="&#x2d8;" d="M162 1376l33 21h16q51 -135 196.5 -135t196.5 135h17l32 -21q-25 -98 -86 -165.5t-159.5 -67.5t-160 67.5t-85.5 165.5z" />
<glyph unicode="&#x2d9;" d="M297 1337q0 49 35 85t86 36q47 0 73.5 -30.5t26.5 -73.5q0 -49 -35 -85t-86 -36q-47 0 -73.5 30.5t-26.5 73.5z" />
<glyph unicode="&#x2da;" d="M242 1278q0 76 47 124t125 48t117.5 -45t39.5 -111q0 -74 -47 -127t-127 -53q-74 0 -114.5 45t-40.5 119zM307 1290q0 -49 33 -73.5t72 -24.5q90 0 90 80q0 45 -28 71.5t-77 26.5q-90 0 -90 -80z" />
<glyph unicode="&#x2db;" d="M188 -301q0 18 4.5 36.5t10.5 35t19.5 37t22.5 36t29.5 39t31.5 36.5t38 41t39 40l43 43l43 43h86q-139 -143 -188.5 -211t-49.5 -137q0 -49 33 -80t86 -31q80 0 158 47l27 -39q-100 -94 -205 -129q-102 0 -165 51.5t-63 141.5z" />
<glyph unicode="&#x2dc;" d="M72 1171v11l155 182l33 8q35 0 153.5 -33.5t145.5 -33.5q20 0 53 27.5t55 56.5l21 28h12l45 -43v-10l-155 -182l-33 -8q-35 0 -153.5 33.5t-145.5 33.5q-23 0 -54.5 -28.5t-52.5 -56.5l-22 -28h-12z" />
<glyph unicode="&#x2dd;" d="M152 1135l286 309l19 -6l67 -78l-4 -19q-156 -113 -317 -247l-19 4zM414 1135l286 309l19 -6l67 -78l-4 -19q-156 -113 -317 -247l-19 4z" />
<glyph unicode="&#x323;" d="M287 -276q0 53 34.5 89.5t92.5 36.5q55 0 85.5 -33.5t30.5 -82.5q0 -53 -36 -90t-93 -37q-55 0 -84.5 33.5t-29.5 83.5z" />
<glyph unicode="&#x394;" horiz-adv-x="1101" d="M16 27l486 1267l129 35h16q236 -854 389 -1315l-14 -14h-987zM170 117h670l-295 989h-15z" />
<glyph unicode="&#x2206;" horiz-adv-x="1101" d="M16 27l486 1267l129 35h16q236 -854 389 -1315l-14 -14h-987zM170 117h670l-295 989h-15z" />
<glyph unicode="&#x3a9;" horiz-adv-x="1738" d="M86 346l78 10q23 -139 65.5 -190t143.5 -51h188q-154 121 -241 281.5t-87 326.5q0 254 190.5 430t465.5 176q264 0 431 -159.5t167 -413.5q0 -186 -94.5 -358.5t-255.5 -282.5h219q98 0 142 48t67 183l82 10q-41 -189 -43 -336l-33 -32l-520 28l-84 -12l-15 43 q188 162 270.5 313.5t82.5 337.5q0 225 -122 366.5t-319 141.5q-203 0 -328.5 -129t-125.5 -340q0 -195 92 -379t254 -309l-15 -47l-84 14l-499 -28l-33 32q-4 147 -39 326z" />
<glyph unicode="&#x2126;" horiz-adv-x="1738" d="M86 346l78 10q23 -139 65.5 -190t143.5 -51h188q-154 121 -241 281.5t-87 326.5q0 254 190.5 430t465.5 176q264 0 431 -159.5t167 -413.5q0 -186 -94.5 -358.5t-255.5 -282.5h219q98 0 142 48t67 183l82 10q-41 -189 -43 -336l-33 -32l-520 28l-84 -12l-15 43 q188 162 270.5 313.5t82.5 337.5q0 225 -122 366.5t-319 141.5q-203 0 -328.5 -129t-125.5 -340q0 -195 92 -379t254 -309l-15 -47l-84 14l-499 -28l-33 32q-4 147 -39 326z" />
<glyph unicode="&#x3c0;" horiz-adv-x="1228" d="M8 819l123 201l31 14q131 0 394 -10t310 -10l297 20l13 -14l-21 -94l-14 -15q-137 0 -179 -21.5t-47 -90.5q-32 -437 -32 -486q0 -109 45 -158t145 -49l10 -14q0 -16 -38.5 -66.5t-51.5 -50.5q-125 0 -182 64.5t-57 204.5l10 551q0 78 -25.5 94t-148.5 16 q-102 0 -126 -16.5t-28 -85.5q-25 -403 -24 -758l8 -207l-10 -14l-148 -33l-12 25q10 25 23.5 363.5t13.5 611.5q0 70 -17.5 92t-68.5 22q-29 0 -59.5 -33.5t-47.5 -67.5l-16 -34l-15 -2l-53 37z" />
<glyph unicode="&#x1e80;" horiz-adv-x="1908" d="M-14 1223l12 88q164 -6 231 -6q66 0 139.5 5t115.5 11l42 6l6 -14l-8 -80q-104 -8 -140 -24.5t-36 -59.5q0 -35 62.5 -272.5t126.5 -457.5l63 -220h12l289 786l-37 113q-20 59 -63 85.5t-121 30.5l-4 9l14 88q164 -6 232 -6q55 0 128.5 5t120.5 11l48 6l6 -14l-8 -80 q-106 -8 -142.5 -24.5t-36.5 -61.5q0 -31 63.5 -267.5t127.5 -458.5l63 -222h13q332 895 331 952q0 72 -139 72h-102l-4 8l14 88q154 -14 285 -14l217 6l-15 -97q-61 -4 -85.5 -21t-45.5 -77l-430 -1106l-127 -45q-117 420 -256 869h-12l-291 -824l-131 -45 q-170 602 -342 1133q-37 115 -184 116q0 2 -1 4.5t-1 4.5zM641 1612l33 98l18 12q215 -123 408 -223l-13 -49l-16 -10q-215 81 -422 151z" />
<glyph unicode="&#x1e81;" horiz-adv-x="1443" d="M-8 860l12 68q119 -2 164 -2q55 0 114.5 4t92.5 7l33 3l4 -10l-13 -64q-68 -2 -92 -13t-24 -40l168 -647h8q41 102 91 229t79.5 202t46.5 120q-23 70 -54.5 102.5t-91.5 32.5l-4 8l13 68q119 -2 163 -2l240 10l4 -10l-12 -64q-70 -2 -93.5 -12t-23.5 -37l168 -647h8 q37 92 81 203.5t68.5 172t47 122t33 93.5t10.5 46q0 51 -84 51h-76l-8 12l10 64q104 -4 203 -4l168 2l-14 -76q-41 -4 -66 -34t-61 -120l-289 -698l-109 -35q-109 358 -184 604h-12l-228 -569l-110 -35q-184 608 -242 785q-35 100 -135 102zM467 1374l78 84l20 4 q160 -193 307 -352l-41 -39l-18 -4q-76 70 -162 140.5t-134 107.5l-48 37z" />
<glyph unicode="&#x1e82;" horiz-adv-x="1908" d="M-14 1223l12 88q164 -6 231 -6q66 0 139.5 5t115.5 11l42 6l6 -14l-8 -80q-104 -8 -140 -24.5t-36 -59.5q0 -35 62.5 -272.5t126.5 -457.5l63 -220h12l289 786l-37 113q-20 59 -63 85.5t-121 30.5l-4 9l14 88q164 -6 232 -6q55 0 128.5 5t120.5 11l48 6l6 -14l-8 -80 q-106 -8 -142.5 -24.5t-36.5 -61.5q0 -31 63.5 -267.5t127.5 -458.5l63 -222h13q332 895 331 952q0 72 -139 72h-102l-4 8l14 88q154 -14 285 -14l217 6l-15 -97q-61 -4 -85.5 -21t-45.5 -77l-430 -1106l-127 -45q-117 420 -256 869h-12l-291 -824l-131 -45 q-170 602 -342 1133q-37 115 -184 116q0 2 -1 4.5t-1 4.5zM823 1499l408 223l18 -12l33 -98l-8 -21q-207 -70 -422 -151l-16 10z" />
<glyph unicode="&#x1e83;" horiz-adv-x="1443" d="M-8 860l12 68q119 -2 164 -2q55 0 114.5 4t92.5 7l33 3l4 -10l-13 -64q-68 -2 -92 -13t-24 -40l168 -647h8q41 102 91 229t79.5 202t46.5 120q-23 70 -54.5 102.5t-91.5 32.5l-4 8l13 68q119 -2 163 -2l240 10l4 -10l-12 -64q-70 -2 -93.5 -12t-23.5 -37l168 -647h8 q37 92 81 203.5t68.5 172t47 122t33 93.5t10.5 46q0 51 -84 51h-76l-8 12l10 64q104 -4 203 -4l168 2l-14 -76q-41 -4 -66 -34t-61 -120l-289 -698l-109 -35q-109 358 -184 604h-12l-228 -569l-110 -35q-184 608 -242 785q-35 100 -135 102zM584 1110q66 72 142.5 160 t120.5 141l44 53l20 -4l78 -84l-2 -22q-172 -131 -344 -287l-18 4z" />
<glyph unicode="&#x1e84;" horiz-adv-x="1908" d="M-14 1223l12 88q164 -6 231 -6q66 0 139.5 5t115.5 11l42 6l6 -14l-8 -80q-104 -8 -140 -24.5t-36 -59.5q0 -35 62.5 -272.5t126.5 -457.5l63 -220h12l289 786l-37 113q-20 59 -63 85.5t-121 30.5l-4 9l14 88q164 -6 232 -6q55 0 128.5 5t120.5 11l48 6l6 -14l-8 -80 q-106 -8 -142.5 -24.5t-36.5 -61.5q0 -31 63.5 -267.5t127.5 -458.5l63 -222h13q332 895 331 952q0 72 -139 72h-102l-4 8l14 88q154 -14 285 -14l217 6l-15 -97q-61 -4 -85.5 -21t-45.5 -77l-430 -1106l-127 -45q-117 420 -256 869h-12l-291 -824l-131 -45 q-170 602 -342 1133q-37 115 -184 116q0 2 -1 4.5t-1 4.5zM690 1573q0 43 30 72.5t73 29.5q39 0 61.5 -25.5t22.5 -62.5q0 -43 -30 -72.5t-73 -29.5q-39 0 -61.5 26.5t-22.5 61.5zM1030 1573q0 43 30 72.5t73 29.5q39 0 61.5 -25.5t22.5 -62.5q0 -43 -30 -72.5t-73 -29.5 q-39 0 -61.5 26.5t-22.5 61.5z" />
<glyph unicode="&#x1e85;" horiz-adv-x="1443" d="M-8 860l12 68q119 -2 164 -2q55 0 114.5 4t92.5 7l33 3l4 -10l-13 -64q-68 -2 -92 -13t-24 -40l168 -647h8q41 102 91 229t79.5 202t46.5 120q-23 70 -54.5 102.5t-91.5 32.5l-4 8l13 68q119 -2 163 -2l240 10l4 -10l-12 -64q-70 -2 -93.5 -12t-23.5 -37l168 -647h8 q37 92 81 203.5t68.5 172t47 122t33 93.5t10.5 46q0 51 -84 51h-76l-8 12l10 64q104 -4 203 -4l168 2l-14 -76q-41 -4 -66 -34t-61 -120l-289 -698l-109 -35q-109 358 -184 604h-12l-228 -569l-110 -35q-184 608 -242 785q-35 100 -135 102zM459 1247q0 43 29.5 73t72.5 30 q39 0 61.5 -26t22.5 -62q0 -43 -29.5 -73t-72.5 -30q-39 0 -61.5 26.5t-22.5 61.5zM799 1247q0 43 29.5 73t72.5 30q39 0 61.5 -26t22.5 -62q0 -43 -29.5 -73t-72.5 -30q-39 0 -61.5 26.5t-22.5 61.5z" />
<glyph unicode="&#x1ef2;" horiz-adv-x="1101" d="M-39 1231l12 80q131 -6 226 -6l290 16l7 -14l-7 -72q-92 -8 -123.5 -23.5t-31.5 -50.5q0 -27 57.5 -159t113.5 -250.5t58 -118.5h10l234 434q33 59 33 102q0 53 -129 62l-4 8l12 80q152 -14 227 -14l189 8l8 -15l-13 -75q-94 -18 -134 -57.5t-113 -171.5q-13 -25 -21 -38 l-205 -360q-20 -37 -29.5 -88t-11.5 -91t-4 -188q-2 -80 17.5 -109.5t72.5 -29.5l101 6l4 -8l-19 -94q-170 6 -260 6l-233 -25l12 95q106 20 133 61t27 160v90q0 113 -59 231l-185 375q-70 143 -98 174q-48 52 -160 62zM270 1612l33 98l19 12q215 -123 407 -223l-12 -49 l-17 -10q-214 81 -421 151z" />
<glyph unicode="&#x1ef3;" horiz-adv-x="913" d="M-18 860l12 68q123 -2 170 -2q53 0 114.5 4t96.5 7l35 3l4 -10l-13 -64q-70 -2 -95 -13t-25 -40q0 -72 182 -627h8q240 573 240 619q0 53 -78 53h-94l-4 8l12 68q106 -8 207 -8l174 2l-15 -76q-45 -8 -68.5 -31.5t-45.5 -85.5l-264 -622q-166 -381 -249 -495t-212 -112 q-16 0 -53 48.5t-37 68.5l10 15q119 0 224.5 95t174.5 265q-129 406 -268 756q-47 96 -139 98zM213 1374l78 84l20 4q160 -193 307 -352l-40 -39l-19 -4q-76 70 -162 140.5t-134 107.5l-48 37z" />
<glyph unicode="&#x2000;" horiz-adv-x="967" />
<glyph unicode="&#x2001;" horiz-adv-x="1935" />
<glyph unicode="&#x2002;" horiz-adv-x="967" />
<glyph unicode="&#x2003;" horiz-adv-x="1935" />
<glyph unicode="&#x2004;" horiz-adv-x="645" />
<glyph unicode="&#x2005;" horiz-adv-x="483" />
<glyph unicode="&#x2006;" horiz-adv-x="322" />
<glyph unicode="&#x2007;" horiz-adv-x="322" />
<glyph unicode="&#x2008;" horiz-adv-x="241" />
<glyph unicode="&#x2009;" horiz-adv-x="387" />
<glyph unicode="&#x200a;" horiz-adv-x="107" />
<glyph unicode="&#x2010;" horiz-adv-x="663" d="M74 446l12 107l356 41l133 18l15 -18l-10 -111l-492 -53z" />
<glyph unicode="&#x2011;" horiz-adv-x="663" d="M74 446l12 107l356 41l133 18l15 -18l-10 -111l-492 -53z" />
<glyph unicode="&#x2012;" horiz-adv-x="663" d="M74 446l12 107l356 41l133 18l15 -18l-10 -111l-492 -53z" />
<glyph unicode="&#x2013;" horiz-adv-x="937" d="M-12 477l22 101q307 -2 490 -3q145 0 280 7q158 4 158 6l12 -21l-16 -104q-195 0 -559.5 -2t-374.5 -2z" />
<glyph unicode="&#x2014;" horiz-adv-x="1880" d="M-12 477l22 101q608 -2 961 -3q145 0 364 3.5t380 6.5t165 3l12 -21l-16 -104q-391 0 -1122 -2t-754 -2z" />
<glyph unicode="&#x2018;" horiz-adv-x="360" d="M57 1012q0 100 78 181t184 136l37 -31v-20q-63 -39 -105 -95.5t-42 -107.5q0 -78 82 -127l-4 -28q-70 -53 -119 -54q-47 0 -79 40t-32 106z" />
<glyph unicode="&#x2019;" horiz-adv-x="360" d="M4 897v21q63 39 105.5 95t42.5 107q0 78 -82 127l4 29q70 53 119 53q47 0 78.5 -40t31.5 -105q0 -100 -78 -181t-184 -137z" />
<glyph unicode="&#x201a;" horiz-adv-x="487" d="M31 -270q72 49 117 116.5t45 130.5q0 83 -66 144l4 29q70 53 119 53q45 0 74.5 -42t29.5 -118q0 -106 -86 -201.5t-200 -163.5l-37 31v21z" />
<glyph unicode="&#x201c;" horiz-adv-x="677" d="M57 1012q0 100 78 181t184 136l37 -31v-20q-63 -39 -105 -95.5t-42 -107.5q0 -78 82 -127l-4 -28q-70 -53 -119 -54q-47 0 -79 40t-32 106zM375 1012q0 100 77.5 181t184.5 136l37 -31v-20q-63 -39 -105.5 -95.5t-42.5 -107.5q0 -78 82 -127l-4 -28q-70 -53 -119 -54 q-47 0 -78.5 40t-31.5 106z" />
<glyph unicode="&#x201d;" horiz-adv-x="677" d="M4 897v21q63 39 105.5 95t42.5 107q0 78 -82 127l4 29q70 53 119 53q47 0 78.5 -40t31.5 -105q0 -100 -78 -181t-184 -137zM322 897v21q63 39 105 95t42 107q0 78 -82 127l4 29q70 53 119 53q47 0 79 -40t32 -105q0 -100 -78 -181t-185 -137z" />
<glyph unicode="&#x201e;" horiz-adv-x="813" d="M63 -209q63 39 105.5 95.5t42.5 107.5q0 78 -82 127l4 29q70 53 119 53q47 0 78.5 -40t31.5 -106q0 -100 -77.5 -181t-184.5 -136l-37 31v20zM381 -209q63 39 105 95.5t42 107.5q0 78 -82 127l5 29q70 53 118 53q47 0 79 -40t32 -106q0 -100 -78 -181t-184 -136l-37 31 v20z" />
<glyph unicode="&#x2020;" horiz-adv-x="1005" d="M66 674l18 127l334 -10l-6 -109l-330 -31zM416 -174l30 805l109 6l10 -809l-127 -18zM436 1206l127 19l23 -17l-31 -381l-109 -6zM592 682l4 109l336 26l16 -18l-18 -127z" />
<glyph unicode="&#x2021;" horiz-adv-x="1005" d="M66 229l18 127l334 -10l-6 -108l-330 -31zM66 731l18 127l334 -10l-6 -109l-330 -30zM416 -174l30 358l109 6l10 -362l-127 -18zM436 1206l127 19l23 -17l-31 -325l-109 -6zM446 379v307l113 8v-307zM592 238l4 108l336 27l16 -19l-18 -127zM592 739l4 109l336 26l16 -18 l-18 -127z" />
<glyph unicode="&#x2022;" horiz-adv-x="696" d="M123 461q0 96 64.5 163.5t162.5 67.5q100 0 162.5 -65.5t62.5 -157.5q0 -96 -65.5 -162.5t-165.5 -66.5t-160.5 64.5t-60.5 156.5z" />
<glyph unicode="&#x2024;" horiz-adv-x="487" d="M123 92q0 53 35 90t92 37q55 0 86 -33.5t31 -83.5q0 -53 -36 -90t-93 -37q-55 0 -85 34t-30 83z" />
<glyph unicode="&#x2025;" horiz-adv-x="917" d="M123 92q0 53 35 90t92 37q55 0 86 -33.5t31 -83.5q0 -53 -36 -90t-93 -37q-55 0 -85 34t-30 83zM553 92q0 53 35 90t92 37q55 0 86 -33.5t31 -83.5q0 -53 -36 -90t-93 -37q-55 0 -85 34t-30 83z" />
<glyph unicode="&#x2026;" horiz-adv-x="1347" d="M123 92q0 53 35 90t92 37q55 0 86 -33.5t31 -83.5q0 -53 -36 -90t-93 -37q-55 0 -85 34t-30 83zM553 92q0 53 35 90t92 37q55 0 86 -33.5t31 -83.5q0 -53 -36 -90t-93 -37q-55 0 -85 34t-30 83zM983 92q0 53 35 90t92 37q55 0 86 -33.5t31 -83.5q0 -53 -36 -90t-93 -37 q-55 0 -85 34t-30 83z" />
<glyph unicode="&#x202f;" horiz-adv-x="387" />
<glyph unicode="&#x2030;" horiz-adv-x="2056" d="M72 987q0 147 87 244.5t222 97.5q133 0 203.5 -90t70.5 -215q0 -147 -83 -251.5t-224 -104.5q-127 0 -201.5 89t-74.5 230zM147 -131q268 408 451 694l524 826l80 -39l10 -29q-356 -530 -536 -819q-440 -696 -440 -697l-78 39zM168 1016q0 -109 62.5 -163t146.5 -54 q72 0 127 40t55 138q0 94 -57.5 155.5t-155.5 61.5q-82 0 -130 -49t-48 -129zM766 295q0 147 87 244.5t222 97.5q133 0 204 -90t71 -215q0 -147 -83.5 -252t-224.5 -105q-129 0 -202.5 89.5t-73.5 230.5zM862 324q0 -109 62.5 -163.5t146.5 -54.5q72 0 127 40t55 139 q0 94 -57 155.5t-156 61.5q-82 0 -130 -49.5t-48 -128.5zM1448 295q0 147 87 244.5t222 97.5q133 0 204 -90t71 -215q0 -147 -83.5 -252t-224.5 -105q-127 0 -201.5 89.5t-74.5 230.5zM1544 324q0 -109 62.5 -163.5t146.5 -54.5q72 0 127 40t55 139q0 94 -57 155.5 t-156 61.5q-82 0 -130 -49.5t-48 -128.5z" />
<glyph unicode="&#x2039;" horiz-adv-x="534" d="M41 434v31q196 186 352 354l45 -31l2 -20l-219 -305l219 -318l-2 -20l-45 -31q-70 72 -158 157t-141 134z" />
<glyph unicode="&#x203a;" horiz-adv-x="534" d="M94 145l219 306l-219 317l2 20l45 31q70 -72 158 -156.5t141 -134.5l54 -49v-30q-197 -187 -353 -355l-45 31z" />
<glyph unicode="&#x2044;" horiz-adv-x="256" d="M-432 -131q268 408 450 694l525 826l80 -39l10 -29q-356 -530 -537 -819q-440 -696 -440 -697l-78 39z" />
<glyph unicode="&#x205f;" horiz-adv-x="483" />
<glyph unicode="&#x2070;" horiz-adv-x="720" d="M63 1081q0 182 88.5 296t227.5 114q127 0 202.5 -102.5t75.5 -272.5q0 -182 -87 -298t-226 -116q-129 0 -205 102.5t-76 276.5zM160 1100q0 -119 56.5 -190.5t150.5 -71.5q90 0 142 66.5t52 178.5q0 121 -57.5 194t-151.5 73q-90 0 -141 -66.5t-51 -183.5z" />
<glyph unicode="&#x2074;" horiz-adv-x="636" d="M20 938l5 70l352 481l6 2l80 -12v-449h112l11 -14l-13 -90l-110 4l8 -199l-8 -12l-125 -14l-10 12q8 119 8 215zM139 1030h197v256h-12z" />
<glyph unicode="&#x2075;" horiz-adv-x="593" d="M49 819l12 15q59 -16 111 -17q88 0 142.5 40t54.5 101q0 125 -260 138l-13 14l23 344l10 10l256 9q37 2 54.5 12t27.5 39l59 6l-32 -174l-13 -13q-131 10 -278 11l-10 -158q164 -16 239.5 -68.5t75.5 -146.5q0 -100 -116 -189.5t-247 -89.5q-49 0 -70.5 27t-25.5 90z" />
<glyph unicode="&#x2076;" horiz-adv-x="638" d="M61 979q0 109 46.5 202t112 147t131 93t111.5 55l46 15l12 -8l21 -56q-10 -4 -26.5 -10t-62.5 -32.5t-85 -58.5t-80 -85t-62 -115l6 -8q80 55 127 58q104 0 164 -64.5t60 -153.5q0 -111 -76 -183.5t-197 -72.5q-113 0 -180.5 78t-67.5 199zM197 981q0 -88 35.5 -139 t99.5 -51q57 0 89 35.5t32 101.5q0 63 -38.5 106t-97.5 43q-57 0 -116 -41q-4 -33 -4 -55z" />
<glyph unicode="&#x2077;" horiz-adv-x="591" d="M59 1227q18 139 25 248l8 6q78 -6 160 -6h280l41 -52q-141 -283 -274 -587l-37 -131h-16l-101 28l-12 31l307 598l-198 -10q-63 -4 -84 -25.5t-33 -91.5z" />
<glyph unicode="&#x2078;" horiz-adv-x="669" d="M80 883q0 129 156 200q-137 80 -138 193q0 86 73 150.5t179 64.5q88 0 152.5 -48t64.5 -130q0 -113 -125 -180q147 -78 148 -193q0 -100 -79 -169t-198 -69q-98 0 -165.5 49.5t-67.5 131.5zM201 915q0 -55 40 -94t99 -39q53 0 89 33t36 82q0 35 -28.5 65.5t-54.5 45 t-87 43.5q-94 -49 -94 -136zM223 1311q0 -33 25.5 -61.5t51.5 -43t79 -41.5q63 45 63 119q0 59 -30.5 91t-81.5 32q-47 0 -77 -28.5t-30 -67.5z" />
<glyph unicode="&#x2079;" horiz-adv-x="638" d="M57 1235q0 111 76 183.5t199 72.5q111 0 178.5 -77t67.5 -197q0 -109 -46.5 -202t-112 -147.5t-131 -93.5t-111.5 -54l-46 -15l-10 6l-23 57q10 4 26.5 10t62.5 33t85 57.5t80 85t62 115.5l-6 6q-84 -53 -127 -55q-104 0 -164 63.5t-60 151.5zM186 1268q0 -63 38 -106.5 t97.5 -43.5t116.5 39q4 37 4 57q0 88 -35.5 139.5t-99.5 51.5q-57 0 -89 -36t-32 -101z" />
<glyph unicode="&#x207f;" horiz-adv-x="780" d="M59 1229l7 57l215 39l10 -12q-12 -43 -15 -86l5 -4q131 102 180 102q88 0 138 -45t50 -123q0 -20 -10 -143t-10 -160q0 -66 43 -66l43 3l2 -7l-12 -69q-80 4 -132 4l-141 -12l6 69q68 14 68 76l4 235q0 123 -94 123q-59 0 -135 -57q-12 -270 -13 -301q0 -35 9.5 -49.5 t33.5 -14.5l39 3l2 -7l-12 -69q-80 4 -129 4l-145 -8l8 69q70 8 69 74v291q0 43 -14 60.5t-49 17.5h-17z" />
<glyph unicode="&#x2080;" horiz-adv-x="720" d="M63 117q0 182 88.5 295.5t227.5 113.5q127 0 202.5 -102t75.5 -272q0 -182 -87 -298t-226 -116q-129 0 -205 102.5t-76 276.5zM160 135q0 -119 56.5 -190.5t150.5 -71.5q90 0 142 66.5t52 179.5q0 121 -57.5 193.5t-151.5 72.5q-90 0 -141 -66.5t-51 -183.5z" />
<glyph unicode="&#x2081;" horiz-adv-x="509" d="M55 416l6 65q109 14 152 21q20 2 38.5 5t33 5t27 4t20.5 3t15 3t11 2t7.5 1t5.5 1h2l10 -30q-41 -37 -49 -105q-12 -229 -12 -477q0 -49 13 -68.5t48 -19.5l66 4l4 -6l-15 -74q-115 4 -180 4l-186 -14l8 72q63 4 90 26.5t27 77.5v428q0 45 -15.5 58.5t-52.5 13.5l-68 -6z " />
<glyph unicode="&#x2082;" horiz-adv-x="673" d="M49 -209l141 158q197 242 195 364q0 92 -104 93q-113 0 -189 -127h-14l-21 83q41 70 115 117t145 47q100 0 161 -48t61 -126t-65.5 -185.5t-229.5 -297.5l6 -10h168q66 0 92.5 22.5t42.5 93.5l78 9q-29 -127 -39 -228l-19 -12q-307 10 -426 10l-86 -14z" />
<glyph unicode="&#x2083;" horiz-adv-x="600" d="M63 -145l13 14q55 -16 108 -16q84 0 140.5 37.5t56.5 93.5q0 63 -51 92.5t-162 29.5l-10 11l-8 65l86 19q109 53 108 135q0 39 -24.5 61.5t-65.5 22.5q-76 0 -148 -58h-14l-20 76q29 23 99.5 55.5t131.5 32.5q80 0 131 -43t51 -110q0 -53 -38.5 -101.5t-104.5 -78.5v-11 q178 -49 178 -180q0 -94 -115.5 -179t-244.5 -85q-51 0 -73 27t-24 90z" />
<glyph unicode="&#x2084;" horiz-adv-x="636" d="M20 -27l5 70l352 481l6 2l80 -12v-448h112l11 -15l-13 -90l-110 4l8 -198l-8 -13l-125 -14l-10 12q8 119 8 215zM139 66h197v256h-12z" />
<glyph unicode="&#x2085;" horiz-adv-x="593" d="M49 -145l12 14q59 -16 111 -16q88 0 142.5 39.5t54.5 101.5q0 125 -260 137l-13 14l23 344l10 11l256 8q37 2 54.5 12t27.5 39l59 6l-32 -174l-13 -12q-131 10 -278 10l-10 -158q164 -16 239.5 -68.5t75.5 -146.5q0 -100 -116 -189t-247 -89q-49 0 -70.5 26.5t-25.5 90.5 z" />
<glyph unicode="&#x2086;" horiz-adv-x="638" d="M61 14q0 109 46.5 202t112 147.5t131 93.5t111.5 54l46 15l12 -8l21 -55q-10 -4 -26.5 -10.5t-62.5 -33t-85 -58t-80 -85t-62 -114.5l6 -8q80 55 127 57q104 0 164 -64.5t60 -152.5q0 -111 -76 -183.5t-197 -72.5q-113 0 -180.5 78t-67.5 198zM197 16q0 -88 35.5 -139 t99.5 -51q57 0 89 36t32 101q0 63 -38.5 106.5t-97.5 43.5q-57 0 -116 -41q-4 -33 -4 -56z" />
<glyph unicode="&#x2087;" horiz-adv-x="591" d="M59 262q18 139 25 248l8 6q78 -6 160 -6h280l41 -51q-141 -283 -274 -588l-37 -131h-16l-101 29l-12 30l307 598l-198 -10q-63 -4 -84 -25.5t-33 -91.5z" />
<glyph unicode="&#x2088;" horiz-adv-x="669" d="M80 -82q0 129 156 201q-137 80 -138 192q0 86 73 150.5t179 64.5q88 0 152.5 -48t64.5 -130q0 -113 -125 -180q147 -78 148 -193q0 -100 -79 -168.5t-198 -68.5q-98 0 -165.5 49t-67.5 131zM201 -49q0 -55 40 -94t99 -39q53 0 89 32.5t36 81.5q0 35 -28.5 66t-54.5 45 t-87 43q-94 -49 -94 -135zM223 346q0 -33 25.5 -61.5t51.5 -43t79 -40.5q63 45 63 118q0 59 -30.5 91t-81.5 32q-47 0 -77 -28.5t-30 -67.5z" />
<glyph unicode="&#x2089;" horiz-adv-x="638" d="M57 270q0 111 76 183.5t199 72.5q111 0 178.5 -76.5t67.5 -197.5q0 -109 -46.5 -202t-112 -147.5t-131 -93t-111.5 -54.5l-46 -15l-10 6l-23 57q10 4 26.5 10.5t62.5 33t85 57t80 85t62 115.5l-6 7q-84 -53 -127 -56q-104 0 -164 63.5t-60 151.5zM186 303q0 -63 38 -106 t97.5 -43t116.5 39q4 37 4 57q0 88 -35.5 139t-99.5 51q-57 0 -89 -35.5t-32 -101.5z" />
<glyph unicode="&#x20a3;" horiz-adv-x="917" d="M115 279l12 61h137l2 528q0 47 -11 61.5t-44 14.5l-68 -2l-4 16l15 76q145 -6 247 -6h103q139 0 383 23l10 -15q-29 -129 -41 -278l-100 -6q2 55 2 77q0 70 -35 87.5t-184 17.5q-41 0 -74 -4q-14 -2 -23.5 -17.5t-12.5 -36t-4 -46t0 -50t-1 -45.5l-6 -162q45 -2 164 -2 l186 21l12 -17l-28 -104l-24 1q-24 1 -65.5 3t-74.5 2q-92 0 -174 -10l-6 -127h192l10 -14l-10 -62h-194v-80q0 -57 13 -77.5t50 -20.5q14 0 44 1t50 2l21 1l4 -16l-19 -78h-23q-14 0 -53.5 1t-70.5 1q-20 0 -53 1t-45 1l-205 -20l10 88q94 16 114.5 50t20.5 146h-135z" />
<glyph unicode="&#x20ac;" horiz-adv-x="1204" d="M25 362l10 60h153q-2 18 -2 55q0 59 9 107h-160l-10 14l10 59h178q55 174 204.5 277.5t356.5 103.5l299 -39l8 -12q-33 -123 -43 -278l-102 -7q4 41 4 80q0 143 -229 144q-131 0 -217 -71t-115 -198h4l375 9l12 -19l-6 -61l-395 -2q-2 -16 -2 -54q0 -66 8 -108h8l375 8 l12 -18l-6 -62l-373 -2q37 -125 124 -194.5t210 -69.5q211 0 266 242l103 8q-33 -152 -43 -273l-13 -16q-147 -63 -350 -63q-197 0 -324.5 97t-164.5 269h-164z" />
<glyph unicode="&#x2122;" horiz-adv-x="1153" d="M4 1143q8 88 10 164l9 8l79 -8h256l82 8l9 -8l10 -158l-66 -6q-10 72 -26.5 87t-77.5 17q-8 -135 -8 -325q0 -53 43 -54l45 2l2 -2l-6 -53q-98 4 -140 4l-135 -4l6 49q55 4 68.5 18.5t13.5 61.5v303q-66 -2 -83 -16t-25 -82zM487 813l7 51q43 2 49 54q33 246 32 305 q0 20 -12 26t-49 11l-6 6l8 43q72 -4 102 -4l84 4l107 -314h8q53 143 111 312h94l84 4l4 -4l-6 -45q-35 -2 -47.5 -11.5t-12.5 -29.5q0 -80 19 -283q4 -41 12 -55.5t29 -14.5l22 2l4 -4l-8 -49q-49 2 -82 2q-98 0 -116 -6l6 51q47 2 47 37l-19 258h-6q-65 -156 -131 -346 l-53 -6q-88 256 -129 352h-8q-16 -248 -17 -266q0 -25 25 -25h29l4 -4l-8 -47q-68 2 -95 2z" />
<glyph unicode="&#x212e;" horiz-adv-x="1632" d="M82 653q0 283 221 481.5t535 198.5q311 0 532 -198.5t221 -481.5v-16h-1222q-10 0 -11 -8v-371q0 -20 19 -43q186 -199 463 -199q295 0 485 224h111q-104 -123 -262 -194t-336 -71q-311 0 -533.5 199t-222.5 479zM358 684q0 -10 11 -10h938q10 0 10 10v373q0 25 -21 45 q-190 190 -456 190q-270 0 -461 -196q-20 -20 -21 -47v-365z" />
<glyph unicode="&#x2202;" horiz-adv-x="1040" d="M88 422q0 213 130 359.5t317 146.5q62 -1 161 -54l4 5q-147 356 -591 563l30 67l21 9q350 -150 571 -411t221 -611q0 -217 -130 -369t-324 -152q-197 0 -303.5 132.5t-106.5 314.5zM252 481q0 -174 82 -289.5t221 -115.5q104 0 166.5 92t62.5 254q0 156 -32 299 q-82 96 -244 96q-121 0 -188.5 -86t-67.5 -250z" />
<glyph unicode="&#x220f;" horiz-adv-x="1449" d="M115 -25l12 95q96 18 130 53t34 123q0 141 1 423.5t1 424.5q0 66 -15.5 88t-60.5 22l-86 -4l-4 8l14 103q160 -6 244 -6h631q68 0 189.5 6t125.5 12l-8 -104q-86 -10 -114.5 -34t-32.5 -83q-29 -563 -29 -873q0 -82 18.5 -110.5t71.5 -28.5l109 6l4 -8l-19 -94 q-172 6 -268 6l-238 -25l13 95q96 18 129.5 53t33.5 123q0 139 1.5 422.5t1.5 425.5q0 70 -44.5 86t-228.5 16q-166 0 -215 -16.5t-51 -77.5q-29 -563 -29 -873q0 -106 35 -127q20 -12 55 -12l109 6l4 -8l-18 -94l-27 1q-27 1 -75 3t-85 2q-84 0 -200.5 -8t-118.5 -17z" />
<glyph unicode="&#x2211;" horiz-adv-x="1089" d="M14 16l478 607l-439 604l29 65l2 -1l2 -1l-2 2l473 15q80 2 169 7t139 10l50 5l21 -18q2 -84 8 -177.5t12 -145.5l7 -52l-86 -16q-16 150 -72.5 213t-204.5 69l-344 15l383 -537v-33l-422 -555l383 14q115 4 177.5 86t92.5 244l97 10q-46 -222 -52 -419l-30 -33l-725 12 l-107 -16z" />
<glyph unicode="&#x2212;" horiz-adv-x="1036" d="M37 498l22 100q307 -2 490 -2l438 12l12 -20l-16 -105l-465 -2l-469 -2z" />
<glyph unicode="&#x221a;" horiz-adv-x="1036" d="M8 852l10 68q123 6 170 8l84 4l17 -17q8 -68 64.5 -252t108.5 -333l52 -150h12l383 1313l31 27h92l-454 -1504l-129 -41q-221 603 -291 775q-37 98 -144 94z" />
<glyph unicode="&#x221e;" horiz-adv-x="1036" d="M35 512q0 131 80 219t184 88q145 0 240 -178q92 178 241 178q102 0 160.5 -81t58.5 -191q0 -133 -79.5 -220t-184.5 -87q-84 0 -138 47t-101 135q-88 -182 -242 -182q-102 0 -160.5 80.5t-58.5 191.5zM111 541q0 -80 47 -129.5t131 -49.5q121 0 178 119q-25 53 -43 85 t-46 68t-59.5 53.5t-68.5 17.5q-55 0 -97 -46.5t-42 -117.5zM567 582q35 -74 59.5 -115t67.5 -77t90 -36q55 0 97.5 46t42.5 118q0 78 -47.5 128t-131.5 50q-117 0 -178 -114z" />
<glyph unicode="&#x222b;" horiz-adv-x="819" d="M-37 -254q0 31 12.5 81t24.5 62h23q23 -53 69.5 -91t100.5 -38q47 0 79.5 38t36.5 116l66 1038q6 111 95 193t206 82q66 0 122 -21.5t56 -52.5t-12.5 -84t-24.5 -68h-26q-23 55 -72 96.5t-103 41.5q-45 0 -76.5 -32t-33.5 -89l-64 -1051q-8 -127 -103 -209t-214 -82 q-61 0 -111.5 20.5t-50.5 49.5z" />
<glyph unicode="&#x2248;" horiz-adv-x="1036" d="M92 293v10l156 182l33 9q55 0 247.5 -44t235.5 -44q20 0 53 28.5t54 55.5l22 28h12l45 -43v-10l-155 -182l-33 -9q-57 0 -247.5 44t-235.5 44q-23 0 -54.5 -27.5t-53.5 -55.5l-21 -29h-13zM92 625v10l156 182l33 8q55 0 247.5 -44t235.5 -44q20 0 53 29t54 56l22 28h12 l45 -43v-10l-155 -183l-33 -8q-57 0 -247.5 44t-235.5 44q-23 0 -54.5 -27.5t-53.5 -56.5l-21 -28h-13z" />
<glyph unicode="&#x2260;" horiz-adv-x="1036" d="M37 340l22 100q201 -2 375 -2l53 207l-438 -2l-12 19l22 100q274 -2 459 -2l74 276h53l17 -20l-70 -256l395 12l12 -20l-16 -105q-70 0 -211 -1t-211 -1l-55 -207q70 0 188.5 3t205.5 5.5t87 4.5l12 -21l-16 -104q-78 0 -232.5 -1t-232.5 -1h-43l-72 -275h-53l-14 17 l67 258l-354 -2z" />
<glyph unicode="&#x2264;" horiz-adv-x="1036" d="M37 -135l22 100q307 -2 490 -2q74 0 181.5 3t181 5t75.5 4l12 -20l-16 -105q-195 0 -559.5 -2t-374.5 -2zM63 512l5 96l415 176l412 166l18 -10l15 -102q-229 -80 -398 -150l-315 -123v-12l344 -143l371 -162q0 -4 1 -11.5t1 -11.5l-62 -82l-42 20q-42 19 -117.5 55 t-139.5 63l-86 36l-405 172z" />
<glyph unicode="&#x2265;" horiz-adv-x="1036" d="M37 -135l22 100q307 -2 490 -2q74 0 181.5 3t181 5t75.5 4l12 -20l-16 -105q-195 0 -559.5 -2t-374.5 -2zM104 868l62 82l41 -19q41 -19 116.5 -55t141.5 -63l86 -37q72 -31 169 -72.5t167 -70.5l69 -29l17 -22l-4 -97l-416 -176q-186 -80 -412 -166l-18 11l-14 102 q229 80 397 150l315 122v13l-344 143l-371 162q0 4 -1 11t-1 11z" />
<glyph unicode="&#x25ca;" horiz-adv-x="1036" d="M123 580l158 362l178 387l96 4l23 -14l174 -379l159 -332l4 -53l-155 -356l-178 -387l-97 -5l-22 15l-174 379l-164 336zM242 565l141 -297l143 -319h13l123 293l137 331l-142 299l-143 320h-12l-123 -293z" />
<glyph unicode="&#xe000;" horiz-adv-x="935" d="M0 935h935v-935h-935v935z" />
<glyph unicode="&#xfb01;" horiz-adv-x="1202" d="M84 842l14 69l123 23q0 270 136.5 428t371.5 158q125 0 272 -70l5 -18q-33 -66 -64 -154l-22 -6q-14 14 -39 35.5t-99.5 56.5t-148.5 35q-258 0 -260 -379l-2 -94q373 0 474 4t169 20l10 -24q-18 -43 -32.5 -264.5t-14.5 -460.5q0 -61 16.5 -88t55.5 -27l71 4l4 -8 l-16 -88q-106 6 -182 6q-39 0 -91.5 -6t-85.5 -12l-34 -7l8 84q74 20 94.5 57.5t20.5 149.5v447q0 72 -26 91t-116 19h-327q0 -102 -4.5 -311t-4.5 -311q0 -113 101 -113l127 2l4 -8l-14 -86q-174 4 -254 4l-230 -8l10 80q72 10 94.5 46t22.5 142v481q-4 49 -29.5 67.5 t-99.5 20.5z" />
<glyph unicode="&#xfb02;" horiz-adv-x="1175" d="M84 842l14 69l123 23v8q2 266 127 422t336 156q109 0 203 -35q152 35 151 35l13 -27q-23 -35 -40.5 -437.5t-17.5 -854.5q0 -61 16.5 -88t55.5 -27l72 4l4 -8l-17 -88q-106 6 -182 6q-39 0 -91 -6t-86 -12l-34 -7l8 84q115 31 115 134v1089l-2 29q-49 39 -121 63.5 t-131 24.5q-225 0 -227 -379l-2 -100l282 6l6 -6l-20 -109q-127 6 -270 6l-9 -616q0 -113 105 -113l123 4l4 -8l-14 -88q-174 4 -254 4l-230 -8l10 80q117 14 117 121v552q-4 47 -28.5 64.5t-100.5 19.5z" />
<glyph d="M256 1499l408 223l18 -12l33 -98l-8 -21q-207 -70 -422 -151l-17 10z" />
<glyph d="M162 1655l33 20h16q53 -102 196.5 -102t196.5 102h17l32 -20q-25 -86 -86 -143.5t-159.5 -57.5t-160 57.5t-85.5 143.5z" />
<glyph d="M111 1505l282 228h29q150 -127 283 -228l-29 -45l-19 -2q-137 80 -249 133q-106 -49 -250 -133l-19 2z" />
<glyph d="M143 1573q0 43 30 72.5t73 29.5q39 0 61.5 -25.5t22.5 -62.5q0 -43 -30 -72.5t-73 -29.5q-39 0 -61.5 26.5t-22.5 61.5zM483 1573q0 43 30 72.5t73 29.5q39 0 61.5 -25.5t22.5 -62.5q0 -43 -30 -72.5t-73 -29.5q-39 0 -61.5 26.5t-22.5 61.5z" />
<glyph d="M100 1612l33 98l19 12q215 -123 407 -223l-12 -49l-17 -10q-214 81 -421 151z" />
<glyph d="M102 1491l21 92q195 -2 315 -2l264 12l13 -20l-15 -96l-290 -2l-295 -2z" />
<glyph d="M242 1544q0 76 47 124t125 48t117.5 -45t39.5 -110q0 -74 -47 -127.5t-127 -53.5q-74 0 -114.5 45t-40.5 119zM307 1556q0 -49 33 -73.5t72 -24.5q90 0 90 80q0 45 -28 71.5t-77 26.5q-90 0 -90 -80z" />
<glyph d="M72 1475v10l155 162l33 8q35 0 153.5 -34t145.5 -34q20 0 53 23.5t55 46.5l21 22h12l45 -43v-10l-155 -162l-33 -8q-35 0 -153.5 34t-145.5 34q-23 0 -54.5 -22.5t-52.5 -46.5l-22 -23h-12z" />
<glyph d="M111 1669l28 45l19 2q137 -80 250 -133q106 49 249 133l19 -2l29 -45l-283 -227h-29q-150 127 -282 227z" />
<glyph d="M297 1577q0 49 35 85t86 36q47 0 73.5 -31t26.5 -74q0 -49 -35 -84.5t-86 -35.5q-47 0 -73.5 30.5t-26.5 73.5z" />
<glyph d="M217 -549q63 39 105.5 95.5t42.5 107.5q0 78 -82 127l4 29q70 53 119 53q47 0 78.5 -40t31.5 -106q0 -100 -78 -181t-184 -136l-37 31v20z" />
<glyph d="M182 1475l314 239l18 -8l45 -88l-6 -19q-164 -82 -336 -178l-16 11zM469 1454l313 242l19 -10l45 -87l-6 -18q-164 -82 -336 -178l-15 8z" />
<glyph horiz-adv-x="614" d="M84 842l14 69l123 23q0 266 146.5 413.5t353.5 147.5q177 0 323 -97l5 -3l4 -19q-43 -51 -84 -119l-23 -6q-14 14 -39.5 35t-102.5 54.5t-151 33.5q-274 0 -280 -354q0 -16 -1 -50t-1 -50h409l115 4l10 -17l-18 -92l-76 4h-442q0 -102 -4.5 -309t-4.5 -309 q0 -113 93 -113l137 4l4 -8l-14 -92l-23 1q-23 1 -67 3t-80 2q-14 0 -44 1t-42 1l-230 -4l10 80q35 2 58.5 12t35 20.5t16.5 40t6 46t1 65.5v481q-2 51 -30.5 67.5t-98.5 20.5z" />
<glyph horiz-adv-x="675" d="M84 842l14 69l123 23q0 283 140.5 434.5t355.5 151.5q166 -1 284 -70l5 -18q-23 -61 -54 -150l-22 -6q-14 14 -41 34.5t-104.5 54.5t-151.5 34q-254 0 -260 -379q0 -16 -1 -50t-1 -50l278 6l6 -6l-20 -109q-123 6 -266 6q0 -102 -4.5 -308t-4.5 -308q0 -113 101 -113 l127 2l4 -8l-14 -86l-27 1q-27 1 -73 2t-81 1q-303 0 -303 -8l10 80q76 10 96.5 49t20.5 139v481q-2 51 -30.5 67.5t-98.5 20.5z" />
<glyph horiz-adv-x="655" d="M84 842l14 69l123 23q0 283 133 434.5t338 151.5q139 0 234 -39l4 -19q-33 -57 -64 -133l-22 -6q-102 76 -236 76q-141 0 -189 -120t-48 -359h389l114 4l11 -17l-19 -92l-75 4h-422q0 -102 -4.5 -309t-4.5 -309q0 -113 105 -113l102 4l4 -8l-14 -88l-25 1q-25 1 -66.5 2 t-74.5 1q-297 0 -297 -8l10 80q74 10 95.5 48t21.5 134v487q-2 51 -30.5 67.5t-98.5 20.5z" />
<glyph horiz-adv-x="1091" d="M78 578q0 281 141 464t356 183q195 0 317 -165t122 -425q0 -287 -140.5 -473.5t-355.5 -186.5q-199 0 -319.5 166t-120.5 437zM197 608q0 -217 99 -350t259 -133q152 0 246 125t94 328q0 217 -100.5 352t-262.5 135q-154 0 -244.5 -125t-90.5 -332z" />
<glyph horiz-adv-x="724" d="M74 1071l8 86q0 -2 34 2t88 12.5t103 16.5q176 29 210 36l1 1l12 -35q-41 -35 -56 -68.5t-19 -103.5q-16 -434 -17 -789q0 -82 20.5 -110.5t80.5 -28.5l108 6l4 -8l-18 -94q-172 6 -273 6l-258 -25l13 95q117 8 150.5 54t33.5 187v650q0 72 -25.5 94t-85.5 22l-108 -12z " />
<glyph horiz-adv-x="974" d="M53 12l203 232q348 438 348 676q0 168 -186 167q-193 0 -312 -223h-18l-22 92q53 113 166.5 191t226.5 78q147 0 236 -73t89 -194q0 -119 -107.5 -299t-379.5 -516l8 -14h313q113 0 156 35t74 151l82 11q-47 -176 -64 -326l-24 -14q-481 14 -658 14l-110 -25z" />
<glyph horiz-adv-x="868" d="M88 125l10 12q86 -18 164 -18q143 0 241.5 68.5t98.5 170.5q0 121 -87 175.5t-279 54.5l-11 10l-10 72l133 32q82 41 134.5 108t52.5 132q0 70 -43 112t-113 42q-59 0 -126 -27t-112 -68h-20l-21 86q20 16 56.5 39t125.5 61t156 38q115 0 191 -67.5t76 -172.5 q0 -82 -61.5 -159.5t-164.5 -131.5v-14q276 -72 277 -285q0 -147 -174 -283.5t-363 -136.5q-70 0 -99.5 35t-31.5 115z" />
<glyph horiz-adv-x="911" d="M4 375l8 76l566 774l4 1l4 1l65 -21v-721h191l12 -16l-16 -113q-76 2 -187 6q2 -165 15 -346l-11 -14l-145 -25l-12 19q10 211 12 371q-316 8 -506 8zM162 485h348v459h-18z" />
<glyph horiz-adv-x="860" d="M63 125l11 12q86 -18 166 -18q152 0 248 73.5t96 188.5q0 240 -432 248l-19 22l35 520l16 17l387 16q61 4 87 19.5t42 60.5l68 8l-49 -241l-12 -13q-211 16 -449 17l-18 -305q256 -18 377.5 -98t121.5 -232q0 -158 -177 -301.5t-369 -143.5q-66 0 -95.5 34t-34.5 116z " />
<glyph horiz-adv-x="931" d="M82 403q0 125 38 239t97 195t132 148.5t145.5 110.5t132 73.5t97.5 42.5l38 13l14 -11l23 -61q-16 -6 -46 -18.5t-109 -60.5t-144.5 -105.5t-133 -155.5t-98.5 -211l8 -4q166 106 228 107q166 0 260 -103.5t94 -232.5q0 -164 -114.5 -279t-292.5 -115q-168 0 -268.5 122 t-100.5 306zM246 416q0 -156 65.5 -249t180.5 -93q98 0 156.5 65.5t58.5 179.5q0 106 -71 185.5t-177 79.5q-104 0 -207 -76q-6 -46 -6 -92z" />
<glyph horiz-adv-x="860" d="M78 844q29 199 39 354l12 10q123 -8 250 -8h432l45 -57q-211 -424 -459 -991l-51 -177h-14l-123 37l-21 45l512 1004l-354 -14q-100 -4 -134 -41t-54 -150z" />
<glyph horiz-adv-x="993" d="M115 254q0 215 264 338q-106 57 -166.5 125.5t-60.5 173.5q0 133 105 233.5t263 100.5q129 0 224.5 -72t95.5 -203q0 -188 -203 -297q117 -61 181.5 -132.5t64.5 -180.5q0 -152 -121 -258.5t-297 -106.5q-145 0 -247.5 75t-102.5 204zM264 303q0 -96 72 -168t178 -72 q92 0 159.5 62.5t67.5 155.5q0 61 -46 115.5t-84 76t-137 71.5q-15 7 -23 11q-186 -80 -187 -252zM295 952q0 -37 17.5 -70.5t35 -55t64.5 -51.5t68.5 -41t82.5 -44q123 74 123 217q0 106 -56.5 164.5t-144.5 58.5q-84 0 -137 -53t-53 -125z" />
<glyph horiz-adv-x="931" d="M74 834q0 164 114.5 278.5t292.5 114.5q168 0 268.5 -122t100.5 -306q0 -125 -38 -239t-97.5 -194.5t-132 -148t-145 -111t-132 -74t-97.5 -42.5l-38 -13l-14 11l-23 61q16 6 46 18.5t109 59.5t144.5 104.5t133 155.5t96.5 211l-7 6q-166 -106 -227 -106 q-166 0 -260 103.5t-94 232.5zM225 883q0 -109 69.5 -187t178.5 -78q96 0 207 76q6 43 6 92q0 156 -66.5 249t-179.5 93q-98 0 -156.5 -65.5t-58.5 -179.5z" />
<glyph horiz-adv-x="921" d="M41 578q0 281 126 464t320 183q174 0 284 -164t110 -426q0 -287 -125 -473.5t-320 -186.5q-178 0 -286.5 166t-108.5 437zM156 608q0 -217 87 -350t226 -133q133 0 215 125t82 328q0 217 -87 352t-230 135q-135 0 -214 -124t-79 -333z" />
<glyph horiz-adv-x="921" d="M137 1071l8 86l256 31q215 29 227 37l13 -35q-49 -35 -66.5 -68.5t-21.5 -103.5q-16 -434 -16 -789q0 -82 23.5 -110.5t92.5 -28.5l127 6l4 -8l-18 -94q-195 6 -309 6l-285 -25l14 95q135 8 174 54t39 187v650q0 72 -30.5 94t-98.5 22l-127 -12z" />
<glyph horiz-adv-x="921" d="M41 12l197 232q332 438 331 676q0 168 -178 167q-186 0 -297 -223h-18l-23 92q51 113 161 191t218 78q145 0 231.5 -73t86.5 -194q0 -119 -103.5 -299t-363.5 -516l6 -14h297q109 0 150.5 35t70.5 151l82 11q-45 -176 -62 -326l-22 -14q-465 14 -635 14l-111 -25z" />
<glyph horiz-adv-x="921" d="M104 125l11 12q90 -18 168 -18q152 0 254 68.5t102 170.5q0 121 -91 175.5t-292 54.5l-10 10l-10 72l137 32q86 41 141 108t55 132q0 70 -45 112t-118 42q-61 0 -131 -27t-117 -68h-21l-20 86l6 6q6 5 18.5 12t28.5 17.5t37.5 21.5t45 23.5t50.5 22.5t53.5 17t55 12.5 t53.5 5.5q119 0 196.5 -67.5t77.5 -172.5q0 -82 -63.5 -159.5t-169.5 -131.5v-14q287 -72 287 -285q0 -147 -180.5 -283.5t-374.5 -136.5q-70 0 -101 35t-33 115z" />
<glyph horiz-adv-x="921" d="M6 375l8 76l570 774q2 0 4 1t4 1l65 -21v-721h193l12 -16l-16 -113q-78 2 -189 6q2 -165 15 -346l-10 -14l-146 -25l-12 19q10 211 12 371q-320 8 -510 8zM164 485h352v459h-18z" />
<glyph horiz-adv-x="921" d="M80 125l10 12q89 -18 172 -18q160 0 262.5 73.5t102.5 188.5q0 240 -455 248l-18 22l34 520l19 17l401 16q63 4 90 19.5t45 60.5l68 8l-51 -241l-12 -13q-221 16 -469 17l-21 -305q268 -18 395 -99t127 -231q0 -156 -183 -300.5t-384 -144.5q-68 0 -98.5 34t-34.5 116z " />
<glyph horiz-adv-x="921" d="M80 403q0 417 392 681q149 100 284 141l12 -11l25 -61q-16 -6 -46 -18.5t-108 -60.5t-143.5 -105.5t-133 -155.5t-96.5 -211l8 -4q164 106 226 107q164 0 257 -103.5t93 -232.5q0 -164 -113.5 -279t-290.5 -115q-168 0 -267 121t-99 307zM242 416q0 -156 65.5 -249 t177.5 -93q98 0 155.5 65.5t57.5 179.5q0 106 -69.5 185.5t-174 79.5t-206.5 -76q-6 -46 -6 -92z" />
<glyph horiz-adv-x="921" d="M96 844q29 199 41 354l13 10q127 -8 260 -8h450l43 -57q-258 -496 -481 -991l-53 -177h-13l-125 37l-20 45l537 1004l-375 -14q-104 -4 -139 -40t-58 -151z" />
<glyph horiz-adv-x="921" d="M94 254q0 215 250 338q-102 57 -158.5 125.5t-56.5 173.5q0 133 101.5 233.5t252.5 100.5q125 0 216.5 -72t91.5 -203q0 -188 -193 -297q111 -61 172 -132.5t61 -180.5q0 -152 -115.5 -258.5t-285.5 -106.5q-141 0 -238.5 75t-97.5 204zM242 303q0 -96 67.5 -168 t167.5 -72q86 0 149.5 62.5t63.5 155.5q0 61 -42 114.5t-81 77t-130 71.5q-14 7 -21 11q-174 -78 -174 -252zM272 952q0 -45 17.5 -81.5t63.5 -72.5t74 -52.5t97 -55.5q115 74 115 217q0 106 -53.5 164.5t-134.5 58.5q-80 0 -129.5 -53t-49.5 -125z" />
<glyph horiz-adv-x="921" d="M72 834q0 164 113.5 278.5t289.5 114.5q168 0 267.5 -121t99.5 -307q0 -417 -392 -681q-149 -100 -284 -141l-12 11l-25 61q16 6 46 18.5t107.5 59.5t143.5 104.5t132.5 155.5t94.5 211l-6 6q-164 -106 -225 -106q-164 0 -257 103.5t-93 232.5zM223 883q0 -109 67.5 -187 t176.5 -78q96 0 207 76q6 43 6 92q0 154 -66.5 248t-177.5 94q-98 0 -155.5 -65.5t-57.5 -179.5z" />
<glyph horiz-adv-x="901" d="M35 481q0 240 125 396.5t317 156.5q174 0 281.5 -138t107.5 -357q0 -244 -123.5 -404t-316.5 -160q-176 0 -283.5 139.5t-107.5 366.5zM145 512q0 -170 87.5 -275.5t226.5 -105.5q133 0 215 96.5t82 253.5q0 170 -88 278.5t-230 108.5q-133 0 -213 -97t-80 -259z" />
<glyph horiz-adv-x="901" d="M127 881l10 86q25 0 252 30q199 29 218 37h1l13 -35q-47 -35 -64.5 -68.5t-21.5 -103.5q-12 -326 -13 -598q0 -82 23.5 -110.5t93.5 -28.5l125 6l4 -8l-18 -94q-193 6 -308 6q-49 0 -119.5 -6t-115.5 -12l-45 -7l14 95q131 8 170 53t39 180v467q0 72 -30.5 94.5 t-96.5 22.5l-125 -13z" />
<glyph horiz-adv-x="901" d="M37 12l153 181q317 377 318 548q0 74 -39 115t-107 41q-66 0 -130 -49t-109 -133h-17l-22 92q49 98 144.5 162.5t189.5 64.5q121 0 194.5 -67.5t73.5 -178.5q0 -92 -87 -228t-325 -421l9 -14h290q106 0 147.5 35t70.5 151l81 11q-41 -172 -55 -322l-24 -14 q-461 14 -629 14l-107 -25z" />
<glyph horiz-adv-x="901" d="M55 -66l8 13q88 -18 170 -19q160 0 269.5 78t109.5 195q0 205 -383 207l-10 10l-10 71l137 33q86 39 140.5 105.5t54.5 134.5q0 63 -47.5 103t-118.5 40q-135 0 -244 -104h-20l-21 86l10 8q10 8 30 21.5t46.5 29t58 30.5t64.5 28.5t70 21.5t69 8q123 0 199 -62.5 t76 -166.5q0 -82 -63.5 -160t-170.5 -131v-10q287 -66 287 -254q0 -106 -87 -215t-223.5 -179.5t-267.5 -70.5q-72 0 -102.5 34.5t-30.5 114.5z" />
<glyph horiz-adv-x="901" d="M6 182l8 76l557 774q2 0 4.5 1t4.5 1l67 -20v-721h189l12 -17l-17 -112q-76 2 -184 6q2 -165 15 -346l-11 -14l-145 -25l-12 18q10 211 12 371q-312 8 -500 8zM162 293h344v459h-19z" />
<glyph horiz-adv-x="901" d="M39 -66l8 13q88 -18 168 -19q166 0 277.5 76t111.5 197q0 100 -96 158.5t-340 99.5l-18 22l34 500l19 16l391 17q61 4 88 19.5t43 60.5l68 8l-50 -242l-12 -12q-215 16 -457 16l-14 -258q240 -55 370 -132t130 -212q0 -119 -96.5 -232.5t-233.5 -179t-262 -65.5 q-63 0 -94 31.5t-35 117.5z" />
<glyph horiz-adv-x="901" d="M74 403q0 419 388 683q145 98 277 139l15 -11l22 -61q-16 -6 -45 -18.5t-105.5 -60.5t-140 -105.5t-130 -155.5t-95.5 -211l8 -4q162 106 221 107q162 0 254.5 -103.5t92.5 -232.5q0 -164 -113 -279t-287 -115q-164 0 -263 122t-99 306zM236 416q0 -156 64.5 -249 t174.5 -93q96 0 152.5 65.5t56.5 179.5q0 106 -69 185.5t-171 79.5q-100 0 -202 -76q-6 -46 -6 -92z" />
<glyph horiz-adv-x="901" d="M90 653q29 199 39 355l12 10q127 -8 258 -8h445l45 -58q-240 -467 -475 -991l-52 -176h-14l-125 37l-20 45l528 1003l-366 -14q-104 -4 -139.5 -41t-55.5 -149z" />
<glyph horiz-adv-x="901" d="M88 254q0 215 246 338q-100 57 -155.5 125.5t-55.5 173.5q0 133 99.5 233.5t250.5 100.5q123 0 213 -72t90 -203q0 -188 -188 -297q109 -61 169 -132.5t60 -180.5q0 -152 -114.5 -258.5t-282.5 -106.5q-139 0 -235.5 75t-96.5 204zM236 303q0 -96 65.5 -168t163.5 -72 q86 0 148.5 62.5t62.5 155.5q0 61 -44 115.5t-77 75t-128 72.5q-15 7 -21 11q-170 -76 -170 -252zM264 952q0 -45 17.5 -81.5t63.5 -72.5t71.5 -51.5t97.5 -56.5q113 72 113 217q0 106 -52.5 164.5t-134.5 58.5q-78 0 -127 -53t-49 -125z" />
<glyph horiz-adv-x="901" d="M66 641q0 164 112.5 278.5t286.5 114.5q164 0 263 -121.5t99 -306.5q0 -419 -388 -682q-145 -98 -277 -139l-15 10l-22 62q16 6 45 18t105.5 59.5t140 104.5t129 155.5t94.5 211.5l-6 6q-162 -106 -221 -107q-162 0 -254 103.5t-92 232.5zM217 690q0 -109 67 -186.5 t173 -77.5q92 0 202 76q6 43 7 92q0 156 -64.5 249t-175.5 93q-96 0 -152.5 -65.5t-56.5 -180.5z" />
<glyph d="M334 1423l143 29l15 -16q-29 -225 -72 -435l-51 -28l-23 4q4 117 1 216t-8 165z" />
<glyph horiz-adv-x="1163" d="M84 842l14 69l123 23q0 250 114 400.5t294 178.5q43 6 88 7q166 -1 284 -70l5 -18q-33 -66 -64 -154l-22 -6q-14 14 -39 35.5t-99.5 56.5t-148.5 35q-80 0 -133.5 -33t-81 -99.5t-37.5 -146.5t-10 -194q358 0 460.5 3t172.5 21l10 -24q-35 -59 -35 -955 q0 -145 -66.5 -266t-193.5 -199l-37 39l4 17q86 86 119 194.5t33 321.5v635q0 80 -25 95t-123 15h-26h-295q0 -102 -4.5 -311t-4.5 -311q0 -113 101 -113l127 2l4 -8l-14 -86q-174 4 -254 4l-230 -8l10 80q117 16 117 121v548q-2 51 -30.5 67.5t-98.5 20.5z" />
<glyph horiz-adv-x="720" d="M63 909q0 182 88.5 296t227.5 114q127 0 202.5 -102.5t75.5 -272.5q0 -182 -87 -298t-226 -116q-129 0 -205 102.5t-76 276.5zM160 928q0 -119 56.5 -190.5t150.5 -71.5q90 0 142 66.5t52 178.5q0 121 -57.5 194t-151.5 73q-90 0 -141 -67t-51 -183z" />
<glyph horiz-adv-x="509" d="M55 1208l6 66q109 14 152 20q20 2 38.5 5.5t33 5.5t27 4t20.5 3t15 3t11 2t7.5 1t5.5 1h2l10 -31q-41 -36 -49 -104q-12 -229 -12 -477q0 -49 13 -69t48 -20l66 5l4 -7l-15 -73q-115 4 -180 4l-186 -15l8 72q63 4 90 26.5t27 78.5v428q0 45 -15.5 58t-52.5 13l-68 -6z " />
<glyph horiz-adv-x="673" d="M49 584l141 157q197 242 195 365q0 92 -104 92q-113 0 -189 -127h-14l-21 84q41 70 115 117t145 47q100 0 161 -48t61 -126t-65.5 -185.5t-229.5 -297.5l6 -11h168q66 0 92.5 22.5t42.5 94.5l78 8q-29 -127 -39 -227l-19 -12q-307 10 -426 10l-86 -15z" />
<glyph horiz-adv-x="600" d="M63 647l13 15q55 -16 108 -17q84 0 140.5 38t56.5 93q0 63 -51 93t-162 30l-10 10l-8 66l86 18q109 53 108 135q0 39 -24.5 61.5t-65.5 22.5q-76 0 -148 -57h-14l-20 76q29 23 99.5 55.5t131.5 32.5q80 0 131 -43t51 -111q0 -53 -38.5 -101t-104.5 -79v-10 q178 -49 178 -180q0 -94 -115.5 -179.5t-244.5 -85.5q-51 0 -73 27t-24 90z" />
<glyph horiz-adv-x="636" d="M20 766l5 70l352 481l6 2l80 -12v-449h112l11 -14l-13 -90l-110 4l8 -199l-8 -12l-125 -15l-10 13q8 119 8 215zM139 858h197v256h-12z" />
<glyph horiz-adv-x="593" d="M49 647l12 15q59 -16 111 -17q88 0 142.5 40t54.5 101q0 125 -260 138l-13 14l23 344l10 10l256 8q37 2 54.5 12.5t27.5 39.5l59 6l-32 -174l-13 -13q-131 10 -278 11l-10 -158q164 -16 239.5 -68.5t75.5 -146.5q0 -100 -116 -189.5t-247 -89.5q-49 0 -70.5 27t-25.5 90z " />
<glyph horiz-adv-x="638" d="M61 807q0 109 46.5 202t112 147t131 93t111.5 55l46 15l12 -8l21 -56q-10 -4 -26.5 -10t-62.5 -32.5t-85 -58.5t-80 -85t-62 -115l6 -8q80 55 127 58q104 0 164 -65t60 -153q0 -111 -76 -183.5t-197 -72.5q-113 0 -180.5 78t-67.5 199zM197 809q0 -88 35.5 -139.5 t99.5 -51.5q57 0 89 36t32 102q0 63 -38.5 106t-97.5 43q-57 0 -116 -41q-4 -33 -4 -55z" />
<glyph horiz-adv-x="591" d="M59 1055q18 139 25 248l8 6q78 -6 160 -6h280l41 -52q-141 -283 -274 -587l-37 -132h-16l-101 29l-12 31l307 598l-198 -10q-63 -4 -84 -25.5t-33 -91.5z" />
<glyph horiz-adv-x="669" d="M80 711q0 129 156 200q-137 80 -138 193q0 86 73 150.5t179 64.5q88 0 152.5 -48t64.5 -130q0 -113 -125 -180q147 -78 148 -193q0 -100 -79 -169t-198 -69q-98 0 -165.5 49.5t-67.5 131.5zM201 743q0 -55 40 -94t99 -39q53 0 89 33t36 82q0 35 -28.5 65.5t-54.5 45 t-87 43.5q-94 -49 -94 -136zM223 1139q0 -33 25.5 -61.5t51.5 -43t79 -41.5q63 45 63 119q0 59 -30.5 91t-81.5 32q-47 0 -77 -28.5t-30 -67.5z" />
<glyph horiz-adv-x="638" d="M57 1063q0 111 76 183.5t199 72.5q111 0 178.5 -77t67.5 -198q0 -109 -46.5 -201.5t-112 -147t-131 -93.5t-111.5 -54l-46 -16l-10 7l-23 57q10 4 26.5 10t62.5 33t85 57.5t80 85t62 115.5l-6 6q-84 -53 -127 -55q-104 0 -164 63.5t-60 151.5zM186 1096q0 -63 38 -106.5 t97.5 -43.5t116.5 39q4 37 4 57q0 88 -35.5 139.5t-99.5 51.5q-57 0 -89 -36t-32 -101z" />
<glyph horiz-adv-x="720" d="M63 362q0 182 88.5 296t227.5 114q127 0 202.5 -102.5t75.5 -272.5q0 -182 -87 -297.5t-226 -115.5q-129 0 -205 102t-76 276zM160 381q0 -119 56.5 -190.5t150.5 -71.5q90 0 142 66.5t52 179.5q0 121 -57.5 193.5t-151.5 72.5q-90 0 -141 -66.5t-51 -183.5z" />
<glyph horiz-adv-x="509" d="M55 662l6 65q109 14 152 21q20 2 38.5 5t33 5t27 4t20.5 3t15 3t11 2t7.5 1t5.5 1h2l10 -31q-41 -36 -49 -104q-12 -229 -12 -477q0 -49 13 -68.5t48 -19.5l66 4l4 -6l-15 -74q-115 4 -180 4l-186 -14l8 71q63 4 90 26.5t27 78.5v428q0 45 -15.5 58.5t-52.5 13.5l-68 -7z " />
<glyph horiz-adv-x="673" d="M49 37l141 158q197 242 195 364q0 92 -104 92q-113 0 -189 -127h-14l-21 84q41 70 115 117t145 47q100 0 161 -48t61 -126t-65.5 -185.5t-229.5 -297.5l6 -11h168q66 0 92.5 23t42.5 94l78 8q-29 -127 -39 -227l-19 -12q-307 10 -426 10l-86 -14z" />
<glyph horiz-adv-x="600" d="M63 100l13 15q55 -16 108 -17q84 0 140.5 38t56.5 93q0 63 -51 93t-162 30l-10 10l-8 66l86 18q109 53 108 136q0 39 -24.5 61.5t-65.5 22.5q-76 0 -148 -58h-14l-20 76q29 23 99.5 55.5t131.5 32.5q80 0 131 -43t51 -111q0 -53 -38.5 -101t-104.5 -79v-10 q178 -49 178 -180q0 -94 -115.5 -179t-244.5 -85q-51 0 -73 26.5t-24 89.5z" />
<glyph horiz-adv-x="636" d="M20 219l5 70l352 481l6 2l80 -12v-449h112l11 -14l-13 -90l-110 4l8 -199l-8 -12l-125 -14l-10 12q8 119 8 215zM139 311h197v256h-12z" />
<glyph horiz-adv-x="593" d="M49 100l12 15q59 -16 111 -17q88 0 142.5 40t54.5 102q0 125 -260 137l-13 14l23 344l10 10l256 9q37 2 54.5 12t27.5 39l59 6l-32 -174l-13 -12q-131 10 -278 10l-10 -158q164 -16 239.5 -68.5t75.5 -146.5q0 -100 -116 -189t-247 -89q-49 0 -70.5 26.5t-25.5 89.5z" />
<glyph horiz-adv-x="638" d="M61 260q0 109 46.5 202t112 147.5t131 93t111.5 54.5l46 15l12 -8l21 -55q-10 -4 -26.5 -10.5t-62.5 -33t-85 -58.5t-80 -85t-62 -114l6 -9q80 55 127 58q104 0 164 -64.5t60 -152.5q0 -111 -76 -183.5t-197 -72.5q-113 0 -180.5 77.5t-67.5 198.5zM197 262 q0 -88 35.5 -139t99.5 -51q57 0 89 35.5t32 101.5q0 63 -38.5 106t-97.5 43q-57 0 -116 -41q-4 -33 -4 -55z" />
<glyph horiz-adv-x="591" d="M59 508q18 139 25 248l8 6q78 -6 160 -6h280l41 -51q-141 -283 -274 -588l-37 -131h-16l-101 28l-12 31l307 598l-198 -10q-63 -4 -84 -25.5t-33 -91.5z" />
<glyph horiz-adv-x="669" d="M80 164q0 129 156 201q-137 80 -138 192q0 86 73 150.5t179 64.5q88 0 152.5 -48t64.5 -130q0 -113 -125 -180q147 -78 148 -193q0 -100 -79 -168.5t-198 -68.5q-98 0 -165.5 49t-67.5 131zM201 197q0 -55 40 -94.5t99 -39.5q53 0 89 33t36 82q0 35 -28.5 65.5t-54.5 45 t-87 43.5q-94 -49 -94 -135zM223 592q0 -33 25.5 -61.5t51.5 -43t79 -41.5q63 45 63 119q0 59 -30.5 91t-81.5 32q-47 0 -77 -28.5t-30 -67.5z" />
<glyph horiz-adv-x="638" d="M57 516q0 111 76 183.5t199 72.5q111 0 178.5 -77t67.5 -197q0 -109 -46.5 -202t-112 -147.5t-131 -93.5t-111.5 -54l-46 -15l-10 6l-23 57q10 4 26.5 10.5t62.5 33t85 57t80 85t62 115.5l-6 6q-84 -53 -127 -55q-104 0 -164 63.5t-60 151.5zM186 549q0 -63 38 -106.5 t97.5 -43.5t116.5 39q4 37 4 58q0 88 -35.5 139t-99.5 51q-57 0 -89 -36t-32 -101z" />
<glyph horiz-adv-x="657" d="M61 885q0 86 74 106l250 62l2 41q0 59 -29.5 92t-83.5 33q-81 0 -155 -62l-10 4l-19 68q168 96 227 96q100 0 151.5 -47t51.5 -125q0 -20 -12 -132t-12 -147q0 -55 49 -55q16 0 34.5 6t27.5 14l9 7l19 -25q-57 -98 -121 -119q-115 0 -125 103l-8 2q-102 -98 -145 -98 q-74 0 -124.5 50t-50.5 126zM193 899q0 -35 23.5 -58.5t57.5 -23.5q48 0 105 47l4 127l-156 -45q-35 -10 -34 -47z" />
<glyph horiz-adv-x="706" d="M31 1579l6 57q236 39 235 39l9 -20q-23 -29 -33 -418q127 86 149 86q115 0 183.5 -77t68.5 -204q0 -145 -94 -241t-236 -96q-43 0 -90 4t-73 9l-27 5l-12 12v770q0 72 -51 72q-6 0 -13.5 -1t-12.5 -2l-5 -1zM242 819q53 -23 110 -22q74 0 116 51t42 145q0 96 -42 158.5 t-108 62.5q-55 0 -114 -53z" />
<glyph horiz-adv-x="598" d="M57 995q0 143 89.5 236.5t224.5 93.5q41 0 81 -7t59 -13l19 -7l5 -10q-23 -86 -27 -190l-72 -4v41q0 45 -25.5 71.5t-68.5 26.5q-141 0 -141 -191q0 -106 42 -166.5t117 -60.5q33 0 68 10.5t54 19.5l20 9l10 -2l18 -57q-117 -92 -190 -93q-131 0 -207 80t-76 213z" />
<glyph horiz-adv-x="741" d="M57 987q0 143 95.5 239.5t234.5 96.5q18 0 76 -4v184q0 72 -51 72l-33 -4l8 65q108 12 231 39l11 -18q-16 -25 -28.5 -259.5t-12.5 -523.5q0 -55 49 -55l68 27l18 -25q-55 -96 -123 -119q-113 0 -125 95l-8 2q-133 -90 -158 -90q-115 0 -183.5 75.5t-68.5 202.5z M197 1032q0 -96 42 -157.5t107 -61.5q25 0 54.5 13.5t45.5 26.5l17 13v338q-43 25 -109 25q-74 0 -115.5 -52.5t-41.5 -144.5z" />
<glyph horiz-adv-x="634" d="M57 995q0 137 87 233.5t214 96.5q211 0 211 -207l-8 -69l-16 -15h-350v-16q4 -96 51 -150.5t127 -54.5q37 0 76.5 9t61.5 20l21 10l9 -2l18 -53q-125 -94 -213 -95q-131 0 -210 80t-79 213zM199 1096l202 10q29 2 29 33q0 98 -94 98q-55 0 -92 -36.5t-45 -104.5z" />
<glyph horiz-adv-x="477" d="M59 1235l11 57l80 13v10q0 166 86 263t231 97q41 0 78 -6t54 -12l17 -6l5 -17q-20 -45 -43 -102l-15 -4q-63 49 -145 49q-70 0 -102.5 -51t-34.5 -166v-62l174 5l4 -5l-15 -79q-74 2 -165 4l-5 -367q0 -63 60 -63l80 2l4 -7l-10 -73q-125 4 -179 4l-161 -6l8 67 q74 8 74 74v322q-2 31 -18.5 40t-65.5 11z" />
<glyph horiz-adv-x="702" d="M78 825q16 18 44 40t47 34l19 12v7q-98 53 -98 174q0 98 75 165.5t183 67.5q29 0 73 -6t60 -6q29 2 75 12t77 20l31 9l6 -6l-17 -88q-51 -6 -102 -11l-6 -6q53 -57 53 -129q0 -98 -77.5 -163.5t-196.5 -65.5q-37 0 -78 10q-45 -25 -45 -51q0 -35 68.5 -47.5t151.5 -12.5 t151.5 -32.5t68.5 -106.5q0 -92 -103.5 -164.5t-232.5 -72.5q-102 0 -160.5 47t-58.5 129q18 23 51 48t57 41l23 15v8q-61 8 -100 44t-39 85zM223 582q0 -43 35 -68t94 -25q68 0 119 33t51 76q0 35 -42 49.5t-193 34.5q-63 -49 -64 -100zM223 1108q0 -70 35 -110t94 -40 q111 0 111 134q0 70 -35 109.5t-94 39.5q-53 0 -82 -35t-29 -98z" />
<glyph horiz-adv-x="743" d="M35 1579l6 57q236 39 235 39l11 -20q-25 -31 -35 -436q35 31 95.5 68.5t88.5 37.5q90 0 139.5 -44t49.5 -124q0 -20 -11.5 -143t-11.5 -160q0 -66 43 -66l43 3l2 -7l-12 -69q-80 4 -129 4l-143 -12l8 69q66 14 65 76l6 235q0 123 -94 123q-61 0 -141 -61q-4 -188 -4 -297 q0 -63 43 -64l39 3l4 -7l-13 -69q-82 4 -133 4l-139 -4l10 69q35 2 49.5 18.5t14.5 51.5v651q0 39 -11.5 54.5t-39.5 15.5h-29z" />
<glyph horiz-adv-x="413" d="M61 1221l7 63l223 41l10 -20q-31 -61 -31 -455q0 -61 43 -62l41 3l2 -7l-10 -69q-82 4 -133 4l-150 -14l9 69q74 14 73 82v299q0 39 -12 54.5t-41 15.5zM125 1556q0 41 25.5 67t66.5 26q35 0 56.5 -22.5t21.5 -59.5q0 -39 -26.5 -65.5t-65.5 -26.5q-35 0 -56.5 22.5 t-21.5 58.5z" />
<glyph horiz-adv-x="380" d="M33 438l2 13q57 55 76.5 120.5t19.5 194.5v389q0 39 -10 54.5t-39 15.5l-37 -4l6 63l223 41l9 -20q-25 -47 -25 -605q1 -190 -192 -294zM111 1556q0 41 26.5 67t65.5 26q37 0 58.5 -22.5t21.5 -59.5q0 -39 -27 -65.5t-66 -26.5q-37 0 -58 22.5t-21 58.5z" />
<glyph horiz-adv-x="704" d="M37 1573v18l4 45q236 39 235 39l11 -20q-16 -20 -28.5 -257t-12.5 -548q0 -63 43 -64l41 2l2 -6l-13 -67q-82 4 -133 4l-139 -8l8 69q45 6 55.5 27.5t10.5 85.5v612q0 68 -41 70h-16q-7 0 -16 -1t-11 -1zM272 1024l4 25l142 133q29 29 28 43q0 27 -69 26l-4 9l12 51 q86 -2 143 -2l134 6l4 -6l-11 -60q-18 -6 -36.5 -15t-39 -24.5t-36 -25.5t-39 -33t-33.5 -33t-36.5 -35.5t-33.5 -31.5l123 -170q74 -98 146 -101l4 -8l-8 -53q-70 -16 -97 -17q-27 -2 -53 7q-49 16 -102 100z" />
<glyph horiz-adv-x="370" d="M37 1573v18l4 45q236 39 235 39l11 -20q-16 -20 -28.5 -258t-12.5 -547q0 -63 43 -64l45 2l2 -6l-12 -67q-84 4 -136 4l-143 -12l8 67q47 12 57.5 34.5t10.5 84.5v612q0 68 -41 70h-16q-7 0 -16 -1t-11 -1z" />
<glyph horiz-adv-x="1132" d="M59 1229l7 57l215 39l10 -12q-12 -43 -15 -86l3 -4q137 102 182 102q141 0 176 -106q131 106 186 106q88 0 138.5 -45t50.5 -123q0 -20 -10.5 -143t-10.5 -160q0 -66 43 -66l43 3l2 -7l-12 -69q-84 4 -133 4l-135 -6l6 67q61 10 63 72l4 235q0 123 -96 123 q-57 0 -131 -55l-16 -301q0 -66 43 -66l41 3l2 -7l-13 -69q-78 4 -129 4l-141 -12l8 69q66 14 66 76l4 235q0 123 -94 123q-59 0 -135 -57q-12 -276 -13 -301q0 -35 9.5 -49.5t33.5 -14.5l39 3l2 -7l-12 -69q-80 4 -129 4l-145 -4l10 69q37 4 52 19.5t15 50.5v291 q0 43 -14 60.5t-49 17.5h-17z" />
<glyph horiz-adv-x="692" d="M57 995q0 143 88 236.5t224 93.5q121 0 193.5 -80t72.5 -213q0 -143 -87 -236.5t-222 -93.5q-121 0 -195 81t-74 212zM201 1038q0 -119 41.5 -185.5t113.5 -66.5q63 0 98 50.5t35 142.5q0 119 -41.5 185.5t-113.5 66.5q-63 0 -98 -50.5t-35 -142.5z" />
<glyph horiz-adv-x="735" d="M57 1229l6 57l216 39l10 -12q-10 -39 -15 -76l7 -6q113 90 139 90q117 0 187.5 -77t70.5 -202q0 -145 -97.5 -241t-240.5 -96l-74 4v-125q0 -55 10.5 -75t42.5 -20q10 0 28 1.5t24 1.5l2 -5l-13 -67q-12 0 -65 1t-80 1l-149 -8l8 67q39 4 51 20.5t12 65.5l6 205v373 q0 43 -14 60.5t-51 17.5h-17zM268 817q53 -20 113 -20q74 0 116 51t42 145t-41 154.5t-107 60.5q-51 0 -112 -47q-11 -174 -11 -344z" />
<glyph horiz-adv-x="712" d="M57 987q0 143 95.5 239.5t234.5 96.5q63 0 133 -12q82 33 82 32l12 -14q-27 -59 -26 -743q0 -59 8 -76.5t35 -17.5h35l2 -3l-9 -67h-147l-152 -4l9 65q55 4 71.5 18.5t18.5 61.5l4 232q-129 -90 -154 -90q-115 0 -183.5 76.5t-68.5 205.5zM197 1032q0 -96 42 -158.5 t107 -62.5q55 0 117 55v338q-43 25 -109 25q-74 0 -115.5 -52.5t-41.5 -144.5z" />
<glyph horiz-adv-x="561" d="M66 1229l4 55l213 41l10 -10q-12 -68 -12 -125l6 -4q90 131 182 131l45 -4l6 -8q-20 -121 -24 -215l-70 -5q0 57 -7 77t-30 20q-53 0 -102 -70q-12 -229 -13 -254q0 -39 12.5 -52t45.5 -13l61 2l2 -7l-12 -73q-98 4 -156 4l-151 -6l8 69q39 2 52.5 21.5t13.5 75.5v266 q0 43 -11.5 60.5t-42.5 17.5l-24 -2z" />
<glyph horiz-adv-x="569" d="M68 748q12 57 16 170l61 6q2 -139 121 -140q43 0 73 18.5t30 45.5q0 29 -28 52.5t-114 64.5q-145 70 -145 168q0 84 72.5 138t185.5 54q35 0 69.5 -5t52.5 -11l17 -6l4 -11q-16 -78 -24 -164l-64 -4q2 20 2 29q0 88 -98 88q-39 0 -64.5 -17.5t-25.5 -43.5q0 -51 100 -101 q111 -53 150 -92t39 -94q0 -78 -75 -134.5t-181 -56.5q-45 0 -87 8.5t-62 16.5l-19 8z" />
<glyph horiz-adv-x="471" d="M35 1237l6 53q102 47 197 129l32 -14q-8 -39 -14 -107l172 5l4 -5l-12 -79l-170 4q-8 -156 -8 -299q0 -59 21.5 -85t70.5 -26q16 0 36.5 5t32.5 10l13 6l16 -39q-106 -92 -143 -93q-92 0 -132 38t-40 122v299q0 37 -15.5 51.5t-58.5 16.5z" />
<glyph horiz-adv-x="749" d="M45 1221l8 63l215 41l11 -20q-35 -82 -35 -371q0 -115 92 -115q51 0 133 60v278q0 39 -13.5 52.5t-47.5 13.5h-25l8 61l225 39l11 -18q-33 -70 -33 -431q0 -55 49 -55q16 0 33.5 6t26.5 14l10 7l20 -25q-72 -109 -127 -119q-115 0 -127 103l-8 4q-125 -104 -162 -104 q-192 -1 -192 155l8 299q0 66 -45 66z" />
</font>
</defs>
</svg>
