<?xml version="1.0" standalone="no"?>
<!DOCTYPE svg PUBLIC "-//W3C//DTD SVG 1.1//EN" "http://www.w3.org/Graphics/SVG/1.1/DTD/svg11.dtd" >
<svg xmlns="http://www.w3.org/2000/svg">
<metadata>
This is a custom SVG webfont generated by Font Squirrel.
Copyright   : Copyright c 2011 Juan Pablo del Peral juanhuertatipograficacomar with Reserved Font Names Alegreya Alegreya SC
Designer    : Juan Pablo del Peral
Foundry     : Juan Pablo del Peral
Foundry URL : wwwhuertatipograficacomar
</metadata>
<defs>
<font id="AlegreyaSCBoldItalic" horiz-adv-x="786" >
<font-face units-per-em="2048" ascent="1638" descent="-410" />
<missing-glyph horiz-adv-x="339" />
<glyph unicode=" "  horiz-adv-x="339" />
<glyph unicode="&#x09;" horiz-adv-x="339" />
<glyph unicode="&#xa0;" horiz-adv-x="339" />
<glyph unicode="!" horiz-adv-x="561" d="M53 111q0 84 52.5 137t134.5 53q63 0 98 -36t35 -97q0 -82 -51.5 -136.5t-135.5 -54.5q-63 0 -98 37t-35 97zM182 483l66 881l31 35l276 45l31 -37l-240 -928l-135 -22z" />
<glyph unicode="&#x22;" horiz-adv-x="636" d="M143 844q35 235 43 467l207 28l13 -20q-57 -225 -130 -442l-104 -41zM434 844q14 104 24.5 221t13.5 181l3 65l209 28l12 -20q-57 -225 -129 -442l-104 -41z" />
<glyph unicode="#" horiz-adv-x="1044" d="M8 387l45 141l199 -2l33 107l26 86h-184l-8 22l45 144l194 -2l88 284l152 15l20 -13l-94 -286h90l91 -2l88 286l151 15l21 -13l-95 -286l191 4l8 -25l-45 -143h-205l-18 -57l-41 -134l188 2l8 -24l-43 -141h-200l-84 -275l-148 -22l-20 16l90 281l-109 2l-75 -2l-84 -275 l-150 -22l-18 16l88 281l-187 -3zM414 526h86l98 -2l35 109l26 88h-186l-18 -59z" />
<glyph unicode="$" horiz-adv-x="892" d="M29 68q45 143 63 268l156 12q-14 -117 17.5 -163t125.5 -46q76 0 122 32t46 85q0 45 -43 78t-131 76q-63 33 -95 51t-78 54t-66.5 80t-20.5 97q0 135 105.5 229.5t277.5 116.5l67 291l146 19l10 -19l-67 -287q61 -4 120.5 -14t88.5 -18l30 -9l10 -24q-45 -129 -73 -275 l-144 -10l-14 10q10 49 10 74q0 100 -135 101q-68 0 -113 -32t-45 -81q0 -61 121 -125q16 -8 66.5 -32.5t76 -39t65.5 -42t60.5 -52t37 -62.5t16.5 -79q0 -143 -113 -236.5t-307 -109.5l-68 -295l-143 -17l-12 15l67 297q-59 6 -115.5 20t-82.5 26l-27 11z" />
<glyph unicode="%" horiz-adv-x="1417" d="M90 915q0 190 99.5 307t256.5 117q119 0 184.5 -76.5t65.5 -201.5q0 -188 -96 -308t-256 -120q-117 0 -185.5 74.5t-68.5 207.5zM145 -106q248 369 424 647l537 848l127 -52l14 -39q-360 -547 -545 -833q-414 -655 -413 -655l-133 55zM223 973q0 -70 44 -103.5t118 -33.5 q176 0 176 155q0 63 -42 100t-122 37q-174 0 -174 -155zM788 258q0 190 99.5 307t257.5 117q119 0 184.5 -77t65.5 -202q0 -188 -97.5 -308t-257.5 -120q-117 0 -184.5 76t-67.5 207zM920 317q-1 -137 163 -137q176 0 177 154q0 66 -42 102.5t-122 36.5q-84 0 -130 -41 t-46 -115z" />
<glyph unicode="&#x26;" horiz-adv-x="1298" d="M57 444q0 211 132.5 368t299.5 157q74 0 119 -38t45 -97q0 -16 -3 -32t-7 -23l-4 -7l10 -6q141 131 217 251t101 265l20 21h72q76 -150 76 -207q0 -31 -64 -111q-139 -180 -318.5 -328.5t-467.5 -314.5q80 -182 299 -182q141 0 234 77.5t128 219.5l-65 8q-18 0 -47 -19.5 t-50 -39.5l-20 -21h-10l-60 80v8l160 164l33 10q37 0 184.5 -19.5t177.5 -19.5q18 0 52 20.5t59 41.5l24 20h13l55 -78v-10l-156 -164l-36 -12l-138 14q-70 -203 -241.5 -334t-362.5 -131q-211 0 -336 128t-125 341zM240 512q0 -27 4 -63q147 90 191 137t44 106q0 76 -67 76 q-72 0 -122 -70.5t-50 -185.5z" />
<glyph unicode="'" horiz-adv-x="348" d="M143 844q35 235 43 467l207 28l13 -20q-57 -225 -130 -442l-104 -41z" />
<glyph unicode="(" horiz-adv-x="610" d="M119 334l43 354q16 141 67.5 259t110.5 185.5t117.5 114.5t96.5 65l38 17h22l56 -94l-4 -12q-10 -4 -25.5 -14.5t-57.5 -50.5t-76 -91t-69 -144.5t-47 -203.5l-43 -354q-14 -127 -5 -222.5t34.5 -160t53.5 -104.5t48 -57l21 -18l-2 -16l-95 -86h-16q-14 6 -35.5 18.5 t-75 62.5t-91.5 114.5t-60 181.5t-6 256z" />
<glyph unicode=")" horiz-adv-x="618" d="M-45 -205l2 12q8 4 24.5 14.5t57.5 50.5t76 91t68.5 144.5t47.5 203.5l43 355q14 127 5 222t-34.5 159.5t-53 104.5t-48.5 57l-20 18l2 16l94 86h17q12 -6 34.5 -18.5t75.5 -62.5t90 -114.5t60.5 -181.5t7.5 -256l-45 -354q-46 -377 -315 -575q-64 -47 -113 -66h-23z" />
<glyph unicode="*" horiz-adv-x="804" d="M164 1208q0 92 22 164l21 6q102 -53 209 -135l-15 -84l-16 -12zM207 940v21q82 80 192 157l76 -41l6 -16l-125 -195q-90 29 -149 74zM426 1495q90 29 164 29l14 -17q-23 -113 -63 -241l-86 -11l-15 9zM512 1065l63 59h19l143 -180q-53 -76 -114 -119l-21 6 q-49 102 -90 234zM563 1231l4 20q108 35 217 82q55 -76 76 -147l-12 -17q-12 -2 -34.5 -4t-88.5 -6t-125 -4z" />
<glyph unicode="+" horiz-adv-x="999" d="M31 444l51 185q176 -2 334 -2l45 368l188 23l23 -14q-37 -217 -58 -377l361 12l10 -25l-45 -188l-352 -2l-39 -344l-187 -31l-18 17q25 190 45 358l-346 -2z" />
<glyph unicode="," horiz-adv-x="468" d="M-49 -190q66 45 106.5 108.5t40.5 124.5q0 84 -61 150l4 28q92 70 162 70q61 0 100 -49t39 -133q0 -106 -90 -213t-223 -183l-78 62v35z" />
<glyph unicode="-" horiz-adv-x="638" d="M63 422l35 160l326 39l149 20l17 -27l-37 -163l-473 -54z" />
<glyph unicode="." horiz-adv-x="471" d="M35 111q0 84 52 137t134 53q63 0 98 -36t35 -97q0 -82 -52 -136.5t-134 -54.5q-66 0 -99.5 36t-33.5 98z" />
<glyph unicode="/" horiz-adv-x="649" d="M-45 -203q145 354 260 666l340 919h166l22 -30q-227 -580 -352 -912l-248 -665h-174z" />
<glyph unicode="0" horiz-adv-x="985" d="M45 401q0 283 153.5 463t391.5 180q170 0 265 -112.5t95 -308.5q0 -285 -151 -466.5t-389 -181.5q-172 0 -268.5 114t-96.5 312zM217 479q0 -109 67.5 -172t188.5 -63q141 0 222 76.5t81 207.5q0 111 -68.5 174.5t-191.5 63.5q-139 0 -219 -78t-80 -209z" />
<glyph unicode="1" horiz-adv-x="722" d="M0 -23l29 129q102 10 145 49.5t53 139.5l56 440q8 72 -10.5 94.5t-75.5 22.5l-99 -10l-10 14l27 117q98 8 243 31q86 12 156 22t96 14l27 4l14 -61q-67 -51 -96 -160q-92 -442 -92 -596q0 -94 74 -94l96 6l4 -10l-39 -137q-184 8 -285 8q-35 0 -80 -2t-84.5 -6t-74.5 -7 t-55 -5z" />
<glyph unicode="2" horiz-adv-x="956" d="M-25 49l168 170q186 193 267.5 308.5t83.5 191.5q6 109 -107 108q-123 0 -237 -157h-27l-19 151q92 104 203 163.5t215 59.5q129 0 206 -64.5t77 -170.5q0 -104 -80 -216t-358 -386l8 -17h178q90 0 133 39t76 148l160 14q-70 -219 -103 -385l-33 -24q-485 18 -673 18 l-129 -18z" />
<glyph unicode="3" horiz-adv-x="856" d="M-35 4l31 29q68 -27 166 -27q131 0 220 61.5t89 153.5q0 143 -268 144l-17 20l2 127l131 29q76 35 123 91t47 118q0 45 -29.5 71.5t-76.5 26.5q-100 0 -227 -100q-2 0 -11.5 -1.5t-13.5 -1.5l-25 146q74 49 188 101t202 52q125 0 197.5 -58t72.5 -155q0 -92 -69.5 -175 t-186.5 -130l-2 -16q244 -70 244 -246q0 -109 -99.5 -219.5t-252 -180t-300.5 -69.5q-84 0 -113.5 47t-21.5 162z" />
<glyph unicode="4" horiz-adv-x="929" d="M-35 150q2 23 10.5 68.5t12.5 68.5l614 753q2 0 7 2l5 2l172 -22l-86 -700h160l14 -23l-38 -170q-63 2 -156 6l-25 -297l-18 -18l-240 -25l-12 21q29 178 51 325q-307 9 -471 9zM199 322h260l47 364h-21z" />
<glyph unicode="5" horiz-adv-x="843" d="M-57 4l30 29q72 -27 168 -27q133 0 224.5 60.5t91.5 152.5q0 72 -78 115t-268 72l-15 22l109 553l16 16l385 15q57 4 85 20.5t50 61.5l113 8l-88 -301l-29 -27q-176 16 -389 17l-37 -189q213 -39 320.5 -110.5t107.5 -194.5q0 -186 -215 -344t-446 -158q-80 0 -112 46 t-23 163z" />
<glyph unicode="6" horiz-adv-x="917" d="M43 354q0 438 437 711q183 114 356 160l18 -11l27 -112q-14 -4 -37 -14.5t-88.5 -47t-124 -82t-127 -121t-113.5 -161.5l6 -12q2 0 74 35.5t100 39.5q139 0 217 -87t78 -218q0 -197 -137 -328t-350 -131q-158 0 -247 104.5t-89 274.5zM289 354q0 -100 38 -156.5 t107 -56.5q88 0 134 62.5t46 173.5q0 80 -37.5 131t-105.5 51q-76 0 -162 -57q-20 -106 -20 -148z" />
<glyph unicode="7" horiz-adv-x="845" d="M63 598q55 233 89 420l14 10q117 -8 240 -8h430l67 -98q-199 -342 -491 -895l-93 -232h-34l-176 55l-17 52l547 905l-258 -16q-94 -8 -129 -41t-66 -140z" />
<glyph unicode="8" horiz-adv-x="946" d="M45 240q0 213 258 329q-158 113 -158 273q0 156 131.5 269.5t315.5 113.5q131 0 221 -71t90 -187q0 -197 -213 -305q168 -111 168 -271q0 -172 -140 -294t-335 -122q-147 0 -242.5 73t-95.5 192zM274 297q0 -72 44 -121t114 -49q74 0 127 50t53 124q0 33 -14 60.5t-53 56 t-59.5 42t-79.5 46.5q-131 -86 -132 -209zM391 913q0 -59 45 -99t137 -91q98 80 99 195q0 70 -35 107.5t-92 37.5q-66 0 -110 -44.5t-44 -105.5z" />
<glyph unicode="9" horiz-adv-x="917" d="M47 -82q14 4 36.5 14.5t88.5 47t124 80.5t127 120t114 162l-9 14q-6 -2 -39.5 -20.5t-72.5 -35.5t-60 -19q-139 0 -216 87t-77 218q0 197 136.5 327.5t349.5 130.5q158 0 248 -104t90 -274q0 -438 -436 -712q-184 -116 -357 -161l-18 12zM313 641q0 -80 38 -130t106 -50 q74 0 159 55q20 80 21 148q0 100 -37 157.5t-104 57.5q-88 0 -135.5 -63.5t-47.5 -174.5z" />
<glyph unicode=":" horiz-adv-x="468" d="M35 111q0 84 52 137t134 53q63 0 98 -36t35 -97q0 -82 -52 -136.5t-134 -54.5q-66 0 -99.5 36t-33.5 98zM102 670q0 84 52.5 137t134.5 53q63 0 98 -36t35 -97q0 -82 -52 -136t-134 -54q-66 0 -100 35.5t-34 97.5z" />
<glyph unicode=";" horiz-adv-x="468" d="M-51 -190q66 45 106.5 108.5t40.5 124.5q0 84 -61 150l4 28q92 70 162 70q61 0 100 -49t39 -133q0 -106 -90 -213t-223 -183l-78 62v35zM102 670q0 84 52.5 137t134.5 53q63 0 98 -36t35 -97q0 -82 -52 -136t-134 -54q-66 0 -100 35.5t-34 97.5z" />
<glyph unicode="&#x3c;" horiz-adv-x="921" d="M53 463l29 199l395 167l365 156l24 -16l23 -156q-211 -78 -373 -145l-250 -103l-2 -14l248 -123l303 -147l6 -31l-102 -133q-158 80 -301 151l-350 168z" />
<glyph unicode="=" horiz-adv-x="999" d="M8 264l51 185q287 -2 461 -3l432 13l11 -25l-45 -188l-449 -2l-449 -2zM53 629l51 184q285 -2 461 -2l432 12l11 -24l-43 -189l-451 -2l-448 -2z" />
<glyph unicode="&#x3e;" horiz-adv-x="921" d="M53 289q211 76 373 143l250 103l2 14l-248 123l-303 147l-6 33l102 133q158 -82 301 -154l353 -165l12 -27l-27 -201l-395 -168l-367 -153l-22 14z" />
<glyph unicode="?" horiz-adv-x="733" d="M109 111q0 84 51 137t135 53q63 0 98 -36t35 -97q0 -82 -52 -136.5t-134 -54.5q-63 0 -98 37t-35 97zM180 711l10 28l228 129q121 70 121 164q0 176 -334 197l-12 28l94 173l32 14q207 -6 341.5 -99.5t134.5 -230.5q0 -90 -50.5 -165t-102.5 -114.5t-193 -130.5 q-21 -14 -31 -20l-6 -14l6 -170l-15 -23l-184 -37l-22 13z" />
<glyph unicode="@" horiz-adv-x="1712" d="M33 367q0 184 72.5 357t195.5 303t298 209t370 79q332 0 532.5 -180.5t200.5 -466.5q0 -301 -189.5 -497t-519.5 -196q-43 0 -66.5 22.5t-23.5 61.5q0 63 70 336l-17 2q-170 -309 -329 -422q-113 0 -174.5 80t-61.5 219q0 250 159 465t335 215l178 -36l14 45l25 14 l164 -29l16 -35q-109 -418 -158 -741l13 -12q180 0 283.5 121.5t103.5 320.5q0 258 -165 403.5t-448 145.5q-305 0 -500.5 -212t-195.5 -519q0 -334 197.5 -533.5t578.5 -210.5v-32l-63 -103q-422 8 -658.5 235.5t-236.5 590.5zM647 387q0 -72 12.5 -122t30.5 -50 q45 0 139.5 153.5t174.5 364.5q-104 59 -181 60q-66 0 -121 -127t-55 -279z" />
<glyph unicode="A" horiz-adv-x="1236" d="M-80 -6l31 135q88 14 145 137l471 1037l322 34l22 -10q95 -707 158 -1059q12 -74 41 -103.5t94 -37.5l8 -14l-28 -119q-158 6 -244 6l-338 -16l-8 16l24 121q98 8 130 24.5t32 61.5q0 14 -4 59l-18 158q-53 4 -178 4q-96 0 -191 -14l-65 -158q-20 -49 -21 -76 q0 -53 80 -53h86l6 -12l-29 -127q-162 12 -286 12zM461 584h137q55 0 145 8l-57 457h-29z" />
<glyph unicode="B" horiz-adv-x="1243" d="M10 -20l31 135q88 16 123 50t43 114l100 802q2 20 2 36q0 29 -7 44q-11 23 -46 23l-68 -4l-12 16l35 123q205 -6 274 -6l287 12q190 0 297 -72.5t107 -205.5q0 -221 -254 -353q117 -37 180 -109.5t63 -168.5q0 -195 -153.5 -315.5t-403.5 -120.5q-29 0 -143.5 10 t-159.5 10zM465 272q-2 -13 -2 -24q0 -47 33 -69q41 -27 141 -27q104 0 165.5 62t61.5 169q0 154 -172 195l-180 -3zM537 754q150 -18 184 -19q6 2 17.5 7.5t40 25.5t50 46t39 72t17.5 99q0 174 -246 174q-20 0 -28.5 -7t-12.5 -30q-24 -120 -61 -368z" />
<glyph unicode="C" horiz-adv-x="1216" d="M66 524q0 371 205.5 592t551.5 221q74 0 174.5 -12t164.5 -25l65 -12l8 -26q-61 -170 -100 -385l-199 -13q18 96 18 135q0 145 -202 146q-174 0 -270.5 -150.5t-96.5 -431.5q0 -195 68.5 -297t199.5 -102q106 0 172 65.5t111 216.5l199 15q-59 -211 -86 -379l-21 -25 q-180 -82 -426 -82q-250 0 -393 146.5t-143 402.5z" />
<glyph unicode="D" horiz-adv-x="1368" d="M14 -20l31 137q84 14 118 50t46 122l96 782q4 29 4 50q0 27 -6 39q-10 22 -45 22l-68 -4l-8 18l31 123q174 -6 252 -6l297 10q270 0 429 -140.5t159 -387.5q0 -352 -219 -586t-551 -234q-195 25 -308 25q-47 0 -111.5 -5t-105.5 -10zM465 256q0 -63 31.5 -86t115.5 -23 q195 0 307.5 167t112.5 456q0 381 -377 381q-33 0 -45 -10.5t-16 -38.5q-129 -788 -129 -846z" />
<glyph unicode="E" horiz-adv-x="1179" d="M10 -20l33 137q84 12 118 49t44 125l98 782q4 32 4 54q0 23 -5 35q-9 22 -48 22l-61 -4l-11 18l31 121q217 -6 365 -6q422 0 606 24l12 -20q-57 -180 -90 -371l-184 -12q16 72 16 117q0 61 -45 78.5t-191 17.5q-70 0 -87 -10.5t-25 -57.5l-53 -323q18 0 85.5 -1t98.5 -1 l231 16l13 -16l-50 -174q-158 6 -256 6q-47 0 -151 -13q-47 -322 -47 -340q0 -49 22.5 -62t94.5 -13q182 0 238 39t97 194l170 15l13 -21q-59 -182 -103 -379l-22 -20q-367 14 -613 14q-78 0 -165 -5t-135 -10z" />
<glyph unicode="F" horiz-adv-x="1052" d="M10 -23l31 136q86 16 120 53t44 125l98 782q4 32 4 54q0 23 -5 35q-9 22 -48 22l-61 -4l-11 18l31 121q217 -6 365 -6q387 0 559 24l12 -20q-53 -184 -86 -373l-182 -12q16 74 16 121q0 59 -39 76.5t-156 17.5q-70 0 -87 -10.5t-25 -57.5l-58 -358l185 -2l209 16l12 -16 l-47 -174q-145 6 -236 6q-69 0 -151 -14l-37 -250q-4 -30 -4 -52q0 -33 9 -51q15 -28 65 -28l129 10l14 -21l-39 -153q-209 8 -307 8z" />
<glyph unicode="G" horiz-adv-x="1288" d="M66 524q0 371 205.5 592t551.5 221q74 0 174.5 -12t164.5 -25l65 -12l8 -26q-61 -156 -100 -371l-199 -14q18 88 18 127q0 141 -202 141q-174 0 -270.5 -150.5t-96.5 -431.5q0 -195 68.5 -297t199.5 -102q51 0 101.5 13t73.5 27l24 13l22 195q2 18 2 32q0 33 -10 46 q-14 20 -65 20h-103l-8 16l39 144h9q9 0 25.5 -1t38.5 -1h48q27 0 52.5 -1t53.5 -1h50q37 0 85 2t78.5 4t30.5 4l4 -78q-72 -45 -90 -168q-35 -178 -35 -278l2 -68l-20 -25q-20 -10 -56 -23t-156 -37t-247 -24q-250 0 -393 146.5t-143 402.5z" />
<glyph unicode="H" horiz-adv-x="1474" d="M12 -18l31 131q94 20 125 58t43 148l92 758q3 28 3 48q0 27 -6 39q-11 20 -54 20l-60 -2l-8 16l29 119q156 -4 237 -4l301 16l-26 -135q-76 -12 -99.5 -38t-35.5 -109l-49 -295q86 0 249 -4q123 0 232 14l41 315q3 24 3 42q0 28 -8 42q-12 23 -53 23l-61 -2l-8 16l31 119 q-2 0 54 -1t125.5 -2t98.5 -1l266 16l-24 -133q-74 -10 -101 -32t-37 -81q-39 -221 -82.5 -512.5t-43.5 -349.5q0 -51 15 -70.5t52 -19.5l74 6q0 -2 3 -6t5 -8l-33 -129q-137 6 -243 6h-82l-242 -4l33 133q82 2 115.5 40t48.5 148l32 265q-139 2 -211 2l-278 -21l-29 -225 q-15 -99 -15 -136q0 -8 1 -14q2 -33 15.5 -45t45.5 -12l72 6l8 -14l-33 -129q-168 6 -241 6q-57 0 -133 -3t-130.5 -8t-54.5 -7z" />
<glyph unicode="I" horiz-adv-x="720" d="M10 -18l31 131q88 18 122 53t44 119l96 792q3 27 3 46q0 26 -6 39q-11 22 -54 22l-68 -2l-8 16l29 119q23 0 123 -2t153 -2l285 16l-29 -135q-76 -10 -103.5 -32t-37.5 -79q-129 -748 -129 -870q0 -47 14 -64.5t49 -17.5l86 6l6 -14l-32 -129q-205 6 -293 6 q-49 0 -120 -4t-116 -9z" />
<glyph unicode="J" horiz-adv-x="657" d="M-86 -231l8 22q131 84 183 177.5t77 283.5l103 825q3 27 3 46q0 28 -6 41q-12 20 -51 20l-86 -6l-6 16l29 119l246 2q61 0 137 4t121 8l45 4l-29 -137q-66 -12 -86 -31.5t-31 -79.5q-80 -457 -131 -874q-27 -205 -141.5 -329t-337.5 -193z" />
<glyph unicode="K" horiz-adv-x="1304" d="M12 -6l35 129q88 14 119 45t41 117l96 792q3 28 3 48q0 27 -6 39q-11 20 -54 20l-60 -2l-8 16l31 121q211 -6 266 -6l277 16l-27 -135q-76 -14 -104.5 -39t-36.5 -80l-119 -805q-5 -39 -5 -66q0 -30 6 -44q11 -28 58 -29l78 6l8 -14l-35 -129q-199 6 -284 6zM551 647 l10 43l322 324q72 72 71 116q0 49 -94 56l-6 14l31 125q166 -12 248 -12l233 10l10 -23l-28 -114q-70 -27 -125.5 -71t-145.5 -140l-250 -264l209 -414q47 -94 92.5 -135t108.5 -45l12 -17l-28 -106q-201 -25 -236 -25q-117 0 -199 172z" />
<glyph unicode="L" horiz-adv-x="1050" d="M20 -20l33 137q78 12 110 49t42 125l98 786q3 25 3 44q0 28 -7 41q-12 22 -55 22l-60 -2l-8 16l31 119q20 0 119.5 -2t148.5 -2l309 16l-30 -141q-96 -12 -126 -38t-46 -116q-31 -164 -74 -451.5t-43 -340.5q0 -49 22.5 -66.5t85.5 -17.5q139 0 192.5 56t98.5 253l172 16 l13 -18q-59 -221 -111 -461l-23 -20q-317 16 -550 16q-78 0 -164 -5t-133 -10z" />
<glyph unicode="M" horiz-adv-x="1660" d="M-6 -16l31 135q59 8 88.5 39.5t46.5 107.5q174 799 174 846q0 37 -30 55.5t-107 24.5l-11 12l33 119q178 -10 250 -10l219 8q29 -207 64.5 -419t58.5 -321l23 -110h16q172 387 352 846q25 0 114 -2q44 -1 77 -1t55 1l201 10l8 -8l-29 -123q-84 -6 -115.5 -28.5 t-37.5 -80.5q-25 -215 -39 -766q-1 -25 -1 -46q0 -73 11 -103q14 -38 61 -39l58 4l6 -10l-33 -131q-119 6 -203 6q-45 0 -163.5 -6t-129.5 -10l33 135q59 8 87 31.5t34 70.5l49 699h-18q-240 -526 -414 -936l-149 -17q-86 475 -183 953h-16q-129 -702 -129 -736 q0 -53 55 -53l68 2l10 -10l-39 -131q-170 8 -235 8z" />
<glyph unicode="N" horiz-adv-x="1439" d="M25 -16l32 135q117 14 133 129l125 813q2 14 2 27q-1 44 -23 64q-28 26 -124 36l-12 20l26 115q131 -10 232 -10l190 8q203 -438 420 -850h21l71 625q1 10 1 19q0 69 -54 69q-16 0 -41 -1t-27 -1l-6 16l29 123q168 -8 256 -8l235 12l-26 -135q-66 -10 -98.5 -39 t-40.5 -90l-160 -1092l-217 -26q-241 513 -459 923h-18l-82 -645q-2 -17 -2 -31q0 -26 8 -40q12 -20 51 -21l84 4l10 -12l-35 -129q-170 8 -256 8q-47 0 -108.5 -4t-99.5 -8z" />
<glyph unicode="O" horiz-adv-x="1331" d="M66 522q0 365 198.5 590t523.5 225q242 0 383.5 -143t141.5 -395q0 -365 -202.5 -594.5t-526.5 -229.5q-236 0 -377 147.5t-141 399.5zM379 535q0 -180 68.5 -282.5t189.5 -102.5q164 0 260 160.5t96 449.5q0 180 -70.5 282.5t-193.5 102.5q-162 0 -256 -162t-94 -448z " />
<glyph unicode="P" horiz-adv-x="1142" d="M18 -16l31 135q84 16 116 50t42 120l96 784q4 29 4 50q0 27 -6 39q-10 22 -45 22l-70 -4l-10 16l33 121q18 0 109.5 -2t138.5 -2l284 10q231 0 342 -95t111 -243q0 -203 -160 -360.5t-362 -157.5h-178l-31 -211q-4 -28 -4 -49q0 -33 10 -49q16 -26 74 -27l86 6l6 -12 l-35 -131q-176 6 -250 6q-45 0 -127 -4t-142.5 -7t-62.5 -5zM520 645l168 -24q219 49 219 323q0 109 -64.5 159t-199.5 50q-29 0 -35 -5t-10 -30q-47 -252 -78 -473z" />
<glyph unicode="Q" horiz-adv-x="1339" d="M66 522q0 365 198.5 590t523.5 225q242 0 383.5 -143t141.5 -395q0 -287 -129 -494t-348 -287v-6q281 -233 497 -233q41 0 83 5t65 10l22 5l15 -12l12 -84q-231 -168 -287 -168q-131 0 -255 80.5t-415 359.5q-231 4 -369 150.5t-138 396.5zM379 535q0 -180 68.5 -282.5 t189.5 -102.5q164 0 260 160.5t96 449.5q0 180 -70.5 282.5t-193.5 102.5q-162 0 -256 -162t-94 -448z" />
<glyph unicode="R" horiz-adv-x="1271" d="M10 -12l35 135q86 12 119 46t43 120l98 794q2 22 2 39q0 28 -6 41q-10 21 -45 21l-70 -4l-10 16l33 123q170 -6 248 -6l286 10q211 0 330 -81t119 -226q0 -283 -303 -432l133 -293q45 -94 91 -135t108 -41l12 -19l-27 -106l-239 -23q-129 0 -195 191l-123 360h-149 l-31 -231q-6 -41 -6 -70q1 -43 13 -59q20 -27 114 -29l6 -12l-35 -125q-176 6 -264 6zM526 696l176 -20q201 82 201 293q0 190 -268 190q-20 0 -27.5 -8t-13.5 -37q-29 -154 -68 -418z" />
<glyph unicode="S" horiz-adv-x="1067" d="M20 82q55 176 78 346l170 14q-7 -57 -7 -102q0 -85 25 -125q38 -61 163 -61q98 0 160.5 48t62.5 126q0 61 -53.5 106t-159.5 103q-63 35 -92 51t-81.5 54t-77 69.5t-46 81t-21.5 104.5q0 190 158 315t403 125q196 0 353 -53l12 -27q-55 -164 -90 -350l-154 -12l-16 12 q14 70 14 107q0 74 -41 105.5t-131 31.5t-148.5 -47t-58.5 -117q0 -86 144 -172q20 -12 99 -53t112.5 -64.5t86 -67.5t75 -95.5t22.5 -114.5q0 -199 -160 -322t-426 -123q-92 0 -182 19.5t-134 39.5l-44 19z" />
<glyph unicode="T" horiz-adv-x="1124" d="M59 879q47 238 76 436l27 22l192 -22h619l207 22l18 -22q-22 -202 -33 -424l-170 -12v24q-1 168 -27 208q-28 42 -173 48q-29 -160 -81 -514t-52 -407q0 -55 21.5 -80t70.5 -25l108 6l6 -10l-34 -137q-242 8 -347 8l-333 -12l32 133q131 12 169.5 49t54.5 168l100 821 q-57 -2 -91 -5t-64.5 -16.5t-45 -26.5t-31 -49t-25.5 -70t-24 -101z" />
<glyph unicode="U" horiz-adv-x="1292" d="M123 1188l35 131q168 -6 282 -6l238 14l-31 -137q-63 -8 -89 -32t-34 -77l-88 -596q-4 -57 -4 -82v-9q0 -115 52 -174q54 -62 155 -62q238 0 270 270l74 645q2 27 2 47q0 30 -5 42q-9 22 -46 22l-66 -4l-4 8l33 131q156 -6 229 -6l240 14l-29 -135q-76 -14 -98 -32.5 t-29 -69.5l-80 -641q-29 -231 -171 -352.5t-386 -121.5q-419 0 -419 361q0 41 6 84l82 653q3 29 3 50q1 27 -5 39q-10 22 -52 22l-61 -4z" />
<glyph unicode="V" horiz-adv-x="1234" d="M76 1198l30 121q162 -6 248 -6q66 0 151 5t137 9l52 4l6 -16l-24 -123q-100 -8 -131 -27.5t-31 -68.5q0 -59 19.5 -267t37.5 -387l19 -178h31q352 782 352 864q0 57 -92 58h-78l-8 14l28 125q168 -12 293 -12l232 6l-31 -133q-49 -8 -70.5 -27.5t-50.5 -79.5l-481 -1069 l-338 -41q-96 697 -164 1088q-16 121 -131 127z" />
<glyph unicode="W" horiz-adv-x="1904" d="M78 1198l31 121q156 -6 237 -6q72 0 154 5t128 9l46 4l8 -16l-25 -123q-96 -8 -127.5 -27.5t-31.5 -68.5l71 -832h29q31 74 96.5 234.5t118.5 288.5t92 219q1 16 1 29q0 34 -7 57q-4 51 -33.5 70.5t-99.5 21.5l-8 14l33 121q178 -6 268 -6l325 18l9 -16l-25 -123 q-100 -8 -131 -27.5t-31 -68.5l74 -832h29q344 803 344 873q0 27 -20.5 38t-69.5 11h-74l-8 14l30 125q162 -12 283 -12l219 6l-28 -133q-47 -8 -69 -28.5t-48 -78.5l-473 -1069l-326 -41l-78 740h-20l-287 -699l-328 -41q-84 696 -145 1088q-12 66 -41 94.5t-84 32.5z" />
<glyph unicode="X" horiz-adv-x="1349" d="M-41 12l25 121q124 46 319 275l229 268l-170 334q-43 82 -96 118.5t-137 51.5l-4 10l31 129q166 -6 313 -6l307 16l6 -18l-24 -117q-125 -6 -125 -66q0 -43 135 -313q18 25 91 117t107.5 143t34.5 74q0 39 -90 45l-1 4q-1 4 -1 6l25 117q20 0 116.5 -4t145.5 -4l223 8 l6 -14l-26 -123q-90 -29 -146.5 -73t-140.5 -144l-250 -308l189 -352q47 -86 101 -126t136 -46l-28 -139q-172 6 -254 6l-359 -16l-8 14l25 121q114 8 114 64q0 28 -22 69l-133 266l-156 -194q-84 -102 -84 -146q0 -49 88 -55l6 -12l-26 -125q-188 14 -258 14l-228 -10z" />
<glyph unicode="Y" horiz-adv-x="1183" d="M70 1190l32 129q176 -6 254 -6l320 16l8 -18l-27 -117q-72 -4 -97 -18.5t-25 -47.5q0 -63 114 -423h17l198 344q39 66 39 102.5t-94 42.5l-4 10l31 117q20 0 116.5 -4t145.5 -4l205 8l6 -14l-31 -123q-82 -27 -136.5 -81t-133.5 -181l-234 -367q-6 -10 -12 -21.5 t-11.5 -20.5t-9.5 -23.5t-7 -22.5t-6 -25.5t-5 -26.5t-5 -32t-4 -33t-5 -39.5t-7 -42.5q-4 -30 -4 -52q0 -36 10 -54q15 -29 70 -29l99 6l6 -10l-35 -137q-227 8 -326 8q-51 0 -130 -6t-132 -11l-53 -6l31 138q117 16 154.5 53t47.5 141l9 64q3 22 3 45q0 81 -34 166 l-146 389q-37 102 -74.5 145t-121.5 62z" />
<glyph unicode="Z" horiz-adv-x="1146" d="M-10 80l825 1087l-252 -16q-125 -8 -176 -61.5t-80 -198.5l-172 -12q59 252 86 440l25 20l350 -22l580 -8l24 -82q-377 -446 -844 -1082l310 23q98 8 160.5 82t105.5 235l172 15q-76 -268 -107 -467l-39 -39l-778 12l-153 -16z" />
<glyph unicode="[" horiz-adv-x="628" d="M70 -248q92 565 116 770l74 776l438 23l7 -16l-29 -117l-207 -41l-154 -1243l205 -43l6 -19l-28 -112z" />
<glyph unicode="\" horiz-adv-x="649" d="M129 1352l29 30h166l112 -919q16 -139 41 -305t41 -263l17 -98l-21 -22h-176q-41 328 -84 665z" />
<glyph unicode="]" horiz-adv-x="628" d="M-63 -254l30 115l207 43l152 1243l-203 41l-6 18l28 115l428 -23q-90 -565 -116 -770l-74 -776l-440 -22z" />
<glyph unicode="^" horiz-adv-x="962" d="M29 225q100 190 192 363l209 391l201 8l24 -16q72 -248 115 -393l107 -336l-142 -86l-33 10q-55 178 -102 334l-82 280h-14l-127 -254q-39 -70 -85 -162t-73 -149l-26 -57l-152 41z" />
<glyph unicode="_" horiz-adv-x="894" d="M-119 -340l43 156q31 0 206 -1t271 -1q86 0 254 4l164 4l12 -29l-43 -158q-166 0 -488.5 -2t-403.5 -2z" />
<glyph unicode="`" d="M150 1362l112 143l27 2q174 -184 344 -348l-62 -80l-32 -8q-84 63 -180.5 129t-150.5 99l-54 34z" />
<glyph unicode="a" horiz-adv-x="1081" d="M-45 -4l27 115q70 12 112 100l375 805l311 28l19 -12q84 -569 131 -811q8 -57 31.5 -81.5t70.5 -28.5l8 -13l-24 -102q-131 4 -209 4l-287 -12l-8 12l20 109q80 6 103.5 17t23.5 44q0 27 -2 41l-12 104q-6 0 -66.5 1t-74.5 1q-92 0 -150 -8l-45 -108q-16 -33 -16 -51 q0 -37 59 -37h66l6 -13l-23 -108q-139 8 -241 8zM416 463h106q55 0 111 6l-43 332h-27z" />
<glyph unicode="b" horiz-adv-x="1079" d="M18 -14l27 116q72 12 98.5 38t34.5 87l76 607q1 11 1 20q0 57 -41 57h-1l-55 -2l-13 15l31 106q182 -6 238 -6l254 10q162 0 252 -57t90 -162q0 -164 -203 -272q94 -31 145.5 -87.5t51.5 -131.5q0 -158 -128 -249t-346 -91q-205 16 -256 16zM418 225q-1 -8 -1 -15 q-1 -36 25 -52q30 -20 109 -21q82 0 129 43t47 121q0 106 -131 137h-143zM475 598q113 -16 146 -16l12 6q8 4 29.5 18.5t37 32.5t28.5 51t13 70q0 125 -186 125q-27 0 -35 -27q-12 -59 -45 -260z" />
<glyph unicode="c" horiz-adv-x="1036" d="M66 416q0 293 165.5 460.5t454.5 167.5q61 0 146.5 -10t139.5 -20l54 -10l10 -23q-51 -137 -84 -313l-188 -13q16 82 16 111q0 106 -153 106q-268 0 -269 -423q0 -297 199 -297q82 0 129 47t80 163l186 13q-45 -172 -65 -309l-19 -21q-153 -63 -358 -63 q-209 0 -326.5 114.5t-117.5 319.5z" />
<glyph unicode="d" horiz-adv-x="1161" d="M23 -16l26 120q68 12 95.5 39t35.5 95l72 587q3 24 3 40q0 19 -4 29q-7 18 -36 17l-55 -4l-8 17l26 106q154 -6 219 -6l248 10q225 0 355 -108.5t130 -302.5q0 -281 -177.5 -461t-456.5 -180q-160 18 -254 18zM418 209q0 -41 22.5 -57.5t81.5 -16.5q147 0 231.5 124 t84.5 343q0 143 -67 210t-208 67q-23 0 -33 -8.5t-14 -30.5q-27 -145 -62.5 -376t-35.5 -255z" />
<glyph unicode="e" horiz-adv-x="1013" d="M18 -16l27 118q68 10 95.5 40t35.5 100l76 583q3 22 3 38q0 21 -5 31q-8 18 -39 17l-47 -2l-12 17l26 104q193 -6 324 -6q336 0 499 20l13 -18q-47 -150 -74 -299l-172 -10q14 53 14 86q0 47 -35.5 60.5t-146.5 13.5q-51 0 -65.5 -8.5t-18.5 -41.5l-41 -231h148l186 12 l12 -16l-41 -150q-127 4 -205 4q-59 0 -124 -10q-6 -35 -15.5 -90t-14.5 -91t-5 -54q0 -37 18.5 -48.5t71.5 -11.5q139 0 183 31t75 147l160 13l12 -19q-49 -145 -82 -305l-23 -18q-293 10 -509 10q-68 0 -144 -4t-118 -8z" />
<glyph unicode="f" horiz-adv-x="915" d="M18 -18l27 120q68 10 94.5 39t36.5 101l76 583q3 22 3 38q0 21 -5 31q-8 17 -39 17l-47 -2l-12 17l26 104q193 -6 324 -6q305 0 459 20l14 -18q-43 -154 -70 -299l-170 -10q12 53 13 86q0 45 -30 59.5t-118 14.5q-51 0 -65.5 -8.5t-18.5 -41.5l-45 -258l147 -2l175 15 l10 -19l-39 -149q-119 4 -193 4q-10 0 -125 -8l-24 -170q-3 -23 -3 -40q0 -26 7 -39q12 -22 53 -22l103 11l14 -21l-33 -135q-176 6 -258 6q-59 0 -131 -4t-114 -9z" />
<glyph unicode="g" horiz-adv-x="1095" d="M68 410q0 295 167.5 464.5t456.5 169.5q61 0 146.5 -10t139.5 -20l54 -10l10 -23q-51 -123 -86 -297l-186 -12q18 70 18 100q0 102 -157 102q-131 0 -202 -110.5t-71 -327.5q0 -289 199 -289q39 0 76 9.5t54 18.5l18 9l18 138q4 45 -7 59t-50 14h-76l-10 17l34 120h234 q164 0 164 9l4 -72q-61 -35 -76 -127q-29 -158 -29 -223v-56l-18 -20q-141 -61 -385 -61q-207 0 -323.5 112.5t-116.5 315.5z" />
<glyph unicode="h" horiz-adv-x="1251" d="M20 -12l25 112q76 14 100.5 43t34.5 109l72 577q2 19 2 33q0 24 -6 34q-10 16 -45 15h-47l-9 15l25 102q131 -4 199 -4l270 12l-23 -116q-59 -8 -78.5 -28t-29.5 -79l-37 -217q61 0 189 -4q84 0 176 10l30 227q2 18 2 32q0 23 -6 33q-10 16 -45 17h-49l-8 15l24 102 q4 -4 252 -4q227 12 228 12l-23 -114q-61 -10 -83 -26.5t-30 -61.5q-96 -553 -96 -650q0 -69 56 -69h2l55 4l8 -13l-29 -110q-106 4 -200 4h-70q-29 0 -89 -1t-89 -1h-41l27 113q66 2 94 31.5t37 109.5l24 192h-153l-217 -14l-23 -172q-10 -63 -10 -90v-8q2 -27 13 -37 t36 -10l57 4l8 -13l-28 -108q-154 4 -217 4q-45 0 -109.5 -3t-108.5 -5t-47 -4z" />
<glyph unicode="i" horiz-adv-x="634" d="M20 -12l25 112q72 14 98.5 41t32.5 92l76 596q2 18 2 32q0 23 -6 33q-10 16 -45 17h-53q-6 12 -7 15l23 102q25 0 109.5 -2t127.5 -2l248 12l-24 -116q-61 -8 -82 -24.5t-29 -61.5q-100 -541 -100 -658q0 -37 11 -50t38 -13l67 4l7 -13l-29 -108q-176 4 -250 4z" />
<glyph unicode="j" horiz-adv-x="581" d="M-61 -182l6 20q109 68 151 139.5t62 223.5l78 628q2 21 2 36q0 22 -4 31q-9 17 -41 17l-68 -6l-8 17l24 100l211 2l266 12l-24 -118q-53 -10 -69.5 -24.5t-24.5 -61.5q-49 -268 -105 -678q-20 -158 -118.5 -255.5t-292.5 -150.5z" />
<glyph unicode="k" horiz-adv-x="1128" d="M20 -4l29 108q72 12 96.5 36.5t30.5 92.5l76 596q2 19 2 33q0 24 -6 34q-10 16 -45 15h-47l-9 15l27 102q188 -4 229 -4l244 12l-24 -116q-63 -14 -86 -33t-27 -60l-90 -604q-4 -31 -4 -52q0 -24 5 -36q9 -22 44 -22l61 4l11 -13l-29 -108q-176 4 -248 4zM481 504l11 39 l245 235q60 55 60 92t-74 43l-6 13l24 106q143 -8 213 -8l205 8l8 -18l-24 -99q-59 -27 -108.5 -64.5t-119.5 -111.5l-176 -182l158 -311q37 -72 73 -103.5t87 -38.5l12 -16l-27 -94q-176 -18 -208 -19q-55 0 -93.5 31t-70.5 103z" />
<glyph unicode="l" horiz-adv-x="917" d="M25 -16l28 118q63 10 89 40t34 100l74 587q2 19 2 33q0 24 -6 34q-10 16 -45 15h-47l-9 15l25 102q25 0 108.5 -2t124.5 -2l277 12l-27 -125q-82 -10 -107.5 -28.5t-37.5 -77.5q-90 -489 -90 -602q0 -35 17.5 -48.5t64.5 -13.5q106 0 148 45t77 201l160 16l10 -16 q-47 -182 -88 -381l-21 -18q-257 12 -462 12q-68 0 -143 -4t-115 -8z" />
<glyph unicode="m" horiz-adv-x="1404" d="M6 -12l25 116q47 4 71.5 29t38.5 82q135 625 135 643q0 27 -22.5 40t-85.5 17l-8 13l26 104q154 -8 215 -8l199 8q20 -143 48 -297.5t44 -236.5l17 -82h16q131 295 262 610q27 0 111 -1h51q45 0 68 1l161 8l8 -6l-22 -108q-70 -4 -95.5 -21.5t-29.5 -62.5 q-16 -123 -27 -578q-1 -20 -1 -37q-1 -53 9 -75q12 -30 52 -31l47 2l6 -11l-29 -110q-98 4 -168 4q-176 0 -262 -12l29 116q90 12 98 80q37 489 37 490h-16q-119 -229 -316 -684l-143 -13q-80 426 -141 697h-17q-90 -494 -90 -518q0 -41 47 -41h52l10 -9l-33 -112 q-152 6 -205 6z" />
<glyph unicode="n" horiz-adv-x="1230" d="M29 -12l28 116q98 12 109 101l96 610q2 13 2 24q0 33 -18 47q-24 20 -101 27l-12 19l23 100q111 -8 202 -8l172 8q156 -316 326 -616h16l52 428q1 7 1 14q0 55 -45 55h-1q-12 0 -33 -1t-23 -1l-6 13l25 108q150 -8 227 -8q37 0 87 2t83 4t33 4l-21 -116q-55 -8 -80.5 -31 t-33.5 -70l-125 -831l-211 -21q-188 366 -355 656h-18l-55 -435q-4 -41 7 -57t44 -16l63 2l11 -11l-29 -110q-152 6 -221 6z" />
<glyph unicode="o" horiz-adv-x="1128" d="M66 414q0 289 159.5 459.5t431.5 170.5q205 0 322 -111.5t117 -314.5q0 -289 -163 -462.5t-433 -173.5q-201 0 -317.5 114.5t-116.5 317.5zM354 420q0 -139 49.5 -211t139.5 -72q123 0 191.5 117t68.5 336q0 139 -51.5 210.5t-143.5 71.5q-119 0 -186.5 -116.5 t-67.5 -335.5z" />
<glyph unicode="p" horiz-adv-x="993" d="M25 -12l26 116q63 10 90 39t37 95l74 587q3 21 3 36q0 21 -5 31q-8 19 -37 19l-57 -2l-11 15l29 104q20 0 96 -2t115 -2l246 10q201 0 295 -78.5t94 -193.5q0 -162 -133 -285t-301 -123h-148l-20 -139q-3 -21 -3 -37q0 -28 9 -42q14 -21 61 -21l68 2q0 -2 4 -11l-29 -110 q-160 4 -223 4zM461 510l131 -18q164 39 164 235q0 154 -201 154q-16 0 -21.5 -2t-8.5 -7.5t-5 -21.5q-30 -145 -59 -340z" />
<glyph unicode="q" horiz-adv-x="1134" d="M66 414q0 289 159.5 459.5t431.5 170.5q205 0 322 -111.5t117 -314.5q0 -221 -98.5 -378.5t-272.5 -221.5v-4q219 -170 395 -170q33 0 69 4.5t55 8.5l20 4l12 -13l12 -77q-205 -141 -254 -142q-106 0 -205.5 64t-339.5 289q-197 4 -310 117.5t-113 314.5zM354 420 q0 -139 49.5 -211t139.5 -72q123 0 191.5 117t68.5 336q0 139 -51.5 210.5t-143.5 71.5q-119 0 -186.5 -116.5t-67.5 -335.5z" />
<glyph unicode="r" horiz-adv-x="1103" d="M18 -12l29 118q68 8 94.5 36t36.5 96l74 598q6 43 -2 59t-37 16l-57 -2l-11 15l29 104q147 -4 211 -4l250 10q184 0 286.5 -64.5t102.5 -183.5q0 -215 -244 -335l103 -209q68 -137 157 -138l13 -20l-25 -92l-211 -17q-113 0 -164 148l-94 268h-115l-22 -158 q-4 -30 -4 -51q0 -34 10 -47q16 -20 96 -22l4 -11l-28 -108q-162 4 -232 4zM467 551l139 -16q53 18 102.5 69t49.5 139q0 141 -207 142q-16 0 -22.5 -7.5t-10.5 -29.5q-35 -178 -51 -297z" />
<glyph unicode="s" horiz-adv-x="923" d="M29 68q45 143 63 268l156 12q-4 -36 -4 -65q0 -66 22 -98q32 -46 125 -46q76 0 122 32t46 85q0 45 -43 78t-131 76q-63 33 -95 51t-78 54t-66.5 80t-20.5 97q0 156 134 254t345 98q74 0 148.5 -10t112.5 -21l38 -12l10 -24q-45 -129 -73 -275l-144 -10l-14 10 q10 49 10 74q0 100 -135 101q-68 0 -113 -32t-45 -81q0 -61 121 -125q16 -8 66.5 -32.5t76 -39t65.5 -42t60.5 -52t37 -62.5t16.5 -79q0 -160 -134.5 -255t-361.5 -95q-80 0 -155.5 15t-112.5 31l-37 15z" />
<glyph unicode="t" horiz-adv-x="976" d="M59 662q39 199 60 362l22 20l170 -18h510l178 18l17 -20l-29 -352l-156 -10v23q1 131 -21 161q-24 34 -126 37q-98 -582 -98 -686q0 -80 76 -80l88 4l4 -8l-29 -121q-207 8 -295 8l-291 -12l27 118q106 8 138 37t44 121l76 619q-109 -4 -141.5 -38t-65.5 -173z" />
<glyph unicode="u" horiz-adv-x="1091" d="M106 915l29 115q145 -6 248 -6l203 10l-27 -119q-51 -6 -71.5 -23t-26.5 -58l-68 -463q-4 -20 -4 -60q0 -170 154 -170q176 0 200 189q57 496 58 495q1 19 1 34q0 25 -4 35q-7 16 -36 17l-51 -2l-2 6l28 115q129 -6 191 -6l209 10l-27 -116q-59 -14 -77.5 -27.5 t-22.5 -50.5l-60 -482q-49 -376 -459 -376h-2q-356 0 -356 278q0 31 6 64l62 501q2 22 2 38q-1 21 -5 31q-8 16 -38 17l-51 -2z" />
<glyph unicode="v" horiz-adv-x="1062" d="M76 926l24 104q135 -6 211 -6l287 12l8 -12l-20 -106q-78 -8 -102.5 -23.5t-24.5 -54.5q0 -49 13 -203t27 -283l13 -129h29q68 147 166 380t98 265q0 41 -68 41h-59l-8 15l24 106q143 -8 246 -8l193 4l-27 -115q-37 -6 -54.5 -21t-37.5 -61l-377 -823l-326 -33 q-82 574 -129 836q-10 53 -32.5 76.5t-67.5 25.5z" />
<glyph unicode="w" horiz-adv-x="1626" d="M76 926l26 104q129 -6 201 -6l281 12l6 -12l-21 -106q-68 -6 -97.5 -63.5t-29.5 -111.5q0 -90 12.5 -220t25.5 -214l14 -84h26q35 80 119 286t115 277v60q-4 37 -26.5 51t-80.5 14l-6 13l27 104q154 -6 233 -6l279 12l8 -12l-23 -106q-78 -8 -102.5 -22.5t-24.5 -55.5 l54 -615h26q258 598 258 652q0 20 -14 27t-53 7h-56l-8 15l27 106q137 -8 233 -8l187 4l-25 -115q-35 -6 -53.5 -22.5t-38.5 -59.5l-365 -823l-313 -33l-57 541h-17l-213 -508l-313 -33q-74 573 -117 836q-10 53 -31.5 75.5t-64.5 26.5z" />
<glyph unicode="x" horiz-adv-x="1163" d="M-18 12l22 105q90 29 254 209l182 209l-133 237q-37 66 -77 93.5t-111 41.5l-6 8l26 113q131 -4 267 -4l262 12l6 -16l-21 -100q-94 -2 -94 -50q0 -37 103 -223q18 25 68 86.5t78 98t28 53.5q0 33 -70 33q0 2 -1 6l-1 4l20 102q25 0 106 -3t122 -3l192 6l4 -12l-22 -109 q-78 -27 -125 -61.5t-109 -108.5l-198 -235l145 -250q41 -70 86 -101.5t111 -33.5l-25 -123q-147 6 -215 6l-307 -12l-6 12l20 107q86 2 86 45q0 16 -18 49l-105 186l-112 -135q-61 -72 -62 -102q0 -39 70 -41l6 -13l-22 -106q-164 10 -222 10l-196 -8z" />
<glyph unicode="y" horiz-adv-x="1042" d="M72 915l28 113q158 -4 222 -4l270 12l8 -16l-22 -100q-53 -2 -74 -13.5t-21 -36.5q0 -18 86 -301h19l141 242q33 55 33 76q0 31 -74 31l-4 10l25 102q25 0 106.5 -3t122.5 -3l172 6l6 -12l-26 -109q-63 -23 -109.5 -67.5t-108.5 -134.5l-188 -285q-18 -27 -28.5 -59.5 t-13.5 -55t-11 -86.5q-3 -22 -3 -40q0 -28 8 -41q13 -23 58 -23l82 4l6 -8l-28 -121q-203 8 -289 8l-279 -16l27 118q98 10 130 38t42 106l4 43q1 14 1 28q0 61 -28 129l-126 308q-27 68 -60 101.5t-98 51.5z" />
<glyph unicode="z" horiz-adv-x="989" d="M4 70l664 825l-187 -14q-100 -8 -139 -47t-61 -148l-160 -12q49 207 69 356l21 14l289 -16l495 -4l25 -72q-313 -350 -678 -821l233 21q82 8 130.5 63t80.5 176l160 15q-61 -221 -86 -379l-33 -31l-659 8l-127 -12z" />
<glyph unicode="{" horiz-adv-x="636" d="M88 494l23 98q176 51 176 168q0 39 -27 150.5t-27 164.5q0 113 92.5 188.5t239.5 75.5q31 0 67 -4t57 -9l22 -5l10 -21l-41 -114q-47 10 -78 10q-61 0 -94 -42t-33 -110q0 -33 9.5 -124t9.5 -127q0 -92 -47.5 -148.5t-122.5 -77.5l-2 -12q123 -43 122 -172 q0 -57 -49 -199.5t-49 -187.5q0 -49 25.5 -79t74.5 -30l82 13l13 -21l-35 -110q-66 -31 -166 -31q-111 0 -177.5 60.5t-66.5 152.5q0 72 71 212t71 183q0 111 -150 148z" />
<glyph unicode="|" horiz-adv-x="653" d="M102 -528q88 727 136 1093l133 1065l176 23l31 -23q-98 -694 -140 -1034l-135 -1124l-180 -23z" />
<glyph unicode="}" horiz-adv-x="636" d="M-66 -223l41 112q47 -10 78 -10q61 0 94 43t33 111q0 35 -9 128t-9 132q0 174 170 225l2 12q-123 45 -123 175q0 55 49 192t49 182q0 49 -25.5 79t-74.5 30l-82 -10l-12 18l35 113q63 31 165 30q109 0 176.5 -61t67.5 -154q0 -70 -69.5 -206t-69.5 -179q0 -116 147 -147 l-20 -96q-78 -23 -127 -66t-49 -104q0 -39 25.5 -149.5t25.5 -164.5q0 -117 -92 -195.5t-240 -78.5q-31 0 -66.5 4t-57.5 9l-21 5z" />
<glyph unicode="~" horiz-adv-x="999" d="M47 440l2 23l209 207l39 8q51 0 218 -40t208 -40q25 0 65.5 28.5t70.5 58.5l30 30h20l62 -78l-2 -21l-207 -208l-39 -9q-51 0 -218 40t-208 40q-25 0 -66 -28.5t-70 -57.5l-30 -28h-22z" />
<glyph unicode="&#xa1;" horiz-adv-x="561" d="M-20 -459l237 928l135 23l29 -27l-66 -881l-28 -35l-279 -45zM190 780q0 82 52.5 136.5t134.5 54.5q63 0 98 -37t35 -96q0 -84 -52 -137.5t-134 -53.5q-63 0 -98.5 36t-35.5 97z" />
<glyph unicode="&#xa2;" horiz-adv-x="753" d="M49 328q0 223 125 405t301 223l86 373l148 19l8 -19l-84 -364q82 -10 131 -41l8 -31l-86 -197l-57 -4q-58 96 -135.5 96t-138 -117.5t-60.5 -273.5q0 -104 32.5 -162.5t88.5 -58.5q53 0 104 45t86 121l35 -4l68 -84q-43 -96 -127 -170t-174 -98l-68 -295l-143 -17l-11 15 l68 297q-96 27 -150.5 115.5t-54.5 226.5z" />
<glyph unicode="&#xa3;" horiz-adv-x="1024" d="M10 137q195 115 215 279l11 84q2 47 -20.5 62.5t-98.5 19.5l-6 12l28 106l123 21l6 43q23 188 176.5 324.5t337.5 136.5q147 0 219 -31l9 -23l-90 -196l-39 -6q-125 78 -207 78q-68 0 -105 -46.5t-53 -148.5l-22 -139l297 6l6 -10l-39 -140q-131 6 -285 6l-18 -122 q-25 -150 -119 -228l117 25q39 0 133 -19.5t133 -19.5q55 0 94 40t51 114l47 -5q27 -45 27 -137q0 -106 -64.5 -177t-158.5 -71q-66 0 -212.5 50.5t-215.5 50.5q-109 0 -230 -74l-22 10z" />
<glyph unicode="&#xa4;" horiz-adv-x="876" d="M23 440q23 14 157 129q-18 50 -18 113q0 102 59 190l-131 146l10 35l158 102l113 -147q74 37 149 36q74 0 137 -36q156 158 156 157l35 -8l88 -145l-160 -138q23 -51 23 -120q0 -94 -58 -185l129 -137l-10 -35l-160 -106l-110 143q-70 -41 -150 -41t-145 43 q-154 -150 -154 -149l-35 8zM309 700q0 -68 42 -113.5t108 -45.5q76 0 134 58t58 138q0 68 -43 114t-106 46q-76 0 -134.5 -58.5t-58.5 -138.5z" />
<glyph unicode="&#xa5;" horiz-adv-x="1126" d="M57 285l31 114h320q-14 55 -23 76l-29 72q-63 0 -149 -1t-98 -1l-15 14l31 115h170q-82 199 -203 235q4 16 8 49l21 76q129 -6 207 -6q25 0 153.5 6t139.5 8l6 -20l-23 -104q-57 -4 -76.5 -15t-19.5 -31q0 -12 22 -88l13 -47l67 -166l156 265q23 37 22 55q0 31 -71 31 l-4 16l20 96q23 0 107 -3t127 -3l174 6l8 -12l-27 -113q-70 -23 -105.5 -52.5t-80.5 -96.5l-57 -82l186 4l12 -18l-24 -117h-267l-61 -92q-12 -16 -25 -56q160 2 328 9l12 -21l-24 -117h-357q-10 -31 -10 -92q0 -57 72 -57l82 4l4 -12l-29 -119q-201 6 -286 6l-279 -18 l27 122q94 12 123.5 43t44.5 123q-82 0 -200 -1t-136 -1z" />
<glyph unicode="&#xa6;" horiz-adv-x="653" d="M100 -528q10 72 47 375t60 477l180 30l19 -20q-104 -862 -105 -862l-180 -23zM260 758l111 872l176 23l31 -23q-72 -504 -119 -862l-183 -25z" />
<glyph unicode="&#xa7;" horiz-adv-x="983" d="M51 -53q0 47 24.5 114.5t59.5 108.5l41 -2q4 -90 55.5 -148.5t126.5 -58.5q49 0 83 32t34 81t-41 95t-100.5 87t-118.5 87t-100 112.5t-41 144.5q0 184 229 322q-16 43 -16 84q0 135 116.5 234t274.5 99q92 0 162.5 -29.5t70.5 -68.5t-32.5 -116.5t-55.5 -98.5h-39 q-14 61 -56 100t-91 39q-39 0 -67.5 -29.5t-28.5 -72.5q0 -47 41 -94t100 -90t117.5 -91.5t99.5 -114t41 -138.5q0 -92 -61.5 -177.5t-161.5 -146.5q16 -47 10 -100q-12 -121 -137 -218.5t-285 -97.5q-104 0 -179 44t-75 108zM297 700q0 -53 40 -106t92 -90t119.5 -90.5 t106.5 -98.5q53 57 53.5 125t-58 130.5t-155 135t-139.5 125.5q-59 -53 -59 -131z" />
<glyph unicode="&#xa8;" d="M184 1260q0 66 44 110.5t112 44.5q51 0 77.5 -28.5t26.5 -77.5q0 -68 -42.5 -112t-110.5 -44q-51 0 -79 28.5t-28 78.5zM539 1260q0 66 44 110.5t111 44.5q51 0 79 -28.5t28 -77.5q0 -68 -43 -112t-111 -44q-53 0 -80.5 28.5t-27.5 78.5z" />
<glyph unicode="&#xa9;" horiz-adv-x="1374" d="M96 535q0 279 206 484.5t478 205.5q227 0 379 -162t152 -397q0 -279 -207 -485t-477 -206q-227 0 -379 162t-152 398zM201 545q0 -199 125 -334t313 -135q225 0 397 172t172 407q0 199 -126 334t-314 135q-225 0 -396 -171.5t-171 -407.5zM403 543q0 190 106.5 298.5 t293.5 108.5q41 0 95 -6t89 -12l35 -6l6 -17q-31 -88 -53 -200l-119 -9q10 53 10 72q0 68 -100 68q-174 0 -174 -275q0 -195 127 -194q53 0 86 30.5t53 106.5l117 8q-29 -111 -41 -199l-12 -14q-99 -39 -232 -39q-135 0 -211 74t-76 205z" />
<glyph unicode="&#xaa;" horiz-adv-x="729" d="M39 881q0 160 106.5 298t227.5 138l110 -23l9 29l20 10l139 -16l11 -27q-60 -229 -89 -424l5 -4q10 0 81 62l27 -2l25 -56q-104 -111 -157.5 -149.5t-100.5 -38.5q-63 0 -64 59q0 31 41 195l-12 2q-106 -188 -201 -256q-84 0 -131 54t-47 149zM242 961q-1 -105 24 -105 q27 0 82 94t96 211q-59 37 -112 37q-33 0 -61.5 -75.5t-28.5 -161.5z" />
<glyph unicode="&#xab;" horiz-adv-x="892" d="M72 440l4 43q292 277 366 359l80 -51l4 -33q-14 -23 -106 -149t-103 -140q6 -18 69 -148.5t69 -146.5l-13 -33l-90 -51q-55 82 -280 350zM440 440l4 43q293 277 367 359l80 -51l4 -33q-14 -23 -106.5 -149t-102.5 -140q6 -18 68.5 -148.5t68.5 -146.5l-12 -33l-90 -51 q-55 82 -281 350z" />
<glyph unicode="&#xac;" horiz-adv-x="999" d="M33 473l53 186q285 -2 461 -2l373 13l10 -27q-39 -143 -58 -293l-32 -278l-191 -29l-18 14q27 209 51 398h-186l-449 -2z" />
<glyph unicode="&#xad;" horiz-adv-x="638" d="M63 422l35 160l326 39l149 20l17 -27l-37 -163l-473 -54z" />
<glyph unicode="&#xae;" horiz-adv-x="923" d="M127 993q0 188 137 325.5t320 137.5q152 0 253 -108.5t101 -264.5q0 -188 -137 -325t-320 -137q-152 0 -253 108t-101 264zM203 1001q0 -127 82 -215t204 -88q147 0 260 113t113 264q0 127 -82 215t-205 88q-147 0 -259.5 -112.5t-112.5 -264.5zM317 844l11 49 q27 4 38 18.5t15 49.5l27 219q4 37 -15 37h-22l-4 6l10 43q6 0 39 -1t47 -1h20q45 4 72 4q158 0 158 -101q0 -90 -99 -139l37 -78q27 -57 62 -61l6 -6q-4 -29 -15.5 -36t-68.5 -9q-31 0 -47.5 12t-28.5 49l-33 105h-41q-12 -61 -12 -78q0 -18 9.5 -23.5t33.5 -5.5q2 -2 2 -6 l-10 -45q-51 4 -78 4h-22zM494 1069q6 0 24.5 -2t26.5 -2q59 18 59 84q0 55 -78 55q-10 0 -12 -16z" />
<glyph unicode="&#xaf;" d="M190 1210l48 156q188 -2 305 -2l252 12l12 -28l-45 -156l-279 -2l-274 -2z" />
<glyph unicode="&#xb0;" horiz-adv-x="595" d="M113 1044q0 121 88 208t205 87q98 0 162.5 -69.5t64.5 -169.5q0 -121 -88 -208t-205 -87q-98 0 -162.5 69.5t-64.5 169.5zM231 1055q0 -55 36 -93t91 -38q66 0 111 48t45 118q0 55 -37 93t-92 38q-63 0 -108.5 -48t-45.5 -118z" />
<glyph unicode="&#xb1;" horiz-adv-x="999" d="M-29 -174l39 156h457q166 0 244 2q163 4 163 6l13 -31l-41 -158q-162 0 -473.5 -2t-388.5 -2zM35 479l51 187q174 -2 334 -2l45 356l186 22l25 -14q-37 -207 -58 -364l361 12l10 -27l-45 -188q-59 0 -176 -1t-174 -1l-39 -334l-186 -29l-21 15q25 182 45 348l-346 -2z " />
<glyph unicode="&#xb2;" horiz-adv-x="700" d="M12 782l185 179q184 195 184 286q0 66 -74 66q-90 0 -180 -111h-23l-12 129q61 72 141 116t154 44q98 0 159.5 -47t61.5 -125q0 -86 -68.5 -188.5t-248.5 -278.5l6 -12h106q55 0 82 25.5t47 95.5l127 10q-49 -158 -69 -271l-23 -18q-311 12 -440 12l-113 -10z" />
<glyph unicode="&#xb3;" horiz-adv-x="618" d="M20 834l27 24q51 -23 115 -22q74 0 121 31.5t47 80.5q0 82 -160 82l-14 17v98l88 18q102 45 102 123q0 27 -16.5 42t-44.5 15q-66 0 -148 -57h-18l-21 113q53 33 131 62.5t136 29.5q88 0 140 -39t52 -104q0 -63 -46 -116.5t-122 -80.5l-2 -14q164 -53 164 -172 q0 -106 -137.5 -196.5t-294.5 -90.5q-61 0 -82 35t-17 121z" />
<glyph unicode="&#xb4;" d="M248 1159q170 163 344 350l26 -2l111 -143l-2 -29q-197 -123 -387 -264l-31 8z" />
<glyph unicode="&#xb5;" horiz-adv-x="1054" d="M-45 -469q59 289 108 619l80 520q6 49 8.5 103t1.5 84l-1 30l18 35l276 49l15 -35q-33 -59 -80 -310t-47 -304q0 -129 106 -129q23 0 51.5 11t49 23.5t42.5 26.5l21 14l49 418q12 96 4 199l21 35l287 47l16 -35q-27 -45 -82 -326.5t-55 -347.5q0 -70 59 -70q20 0 44 8.5 t37 17.5l13 9l27 -43q-14 -20 -40 -51t-88 -87t-108 -67q-90 0 -138 39t-46 115l-16 8q-145 -145 -219 -160q-59 0 -99 35l-10 -6l-27 -192q-16 -104 -16 -250l-16 -19l-228 -41z" />
<glyph unicode="&#x3bc;" horiz-adv-x="1054" d="M-45 -469q59 289 108 619l80 520q6 49 8.5 103t1.5 84l-1 30l18 35l276 49l15 -35q-33 -59 -80 -310t-47 -304q0 -129 106 -129q23 0 51.5 11t49 23.5t42.5 26.5l21 14l49 418q12 96 4 199l21 35l287 47l16 -35q-27 -45 -82 -326.5t-55 -347.5q0 -70 59 -70q20 0 44 8.5 t37 17.5l13 9l27 -43q-14 -20 -40 -51t-88 -87t-108 -67q-90 0 -138 39t-46 115l-16 8q-145 -145 -219 -160q-59 0 -99 35l-10 -6l-27 -192q-16 -104 -16 -250l-16 -19l-228 -41z" />
<glyph unicode="&#xb6;" horiz-adv-x="1122" d="M92 836q0 207 145.5 347t362.5 140q53 0 154.5 -4t134.5 -4l287 6l-27 -127l-6 -8q-72 -6 -96.5 -23.5t-34.5 -70.5q-37 -137 -117 -742q-31 -248 -172 -401.5t-363 -153.5q-104 0 -179 51.5t-75 130.5q0 49 34 119t79 119h33q-8 -125 35 -194.5t125 -69.5 q102 0 147.5 65.5t63.5 231.5l112 903q2 20 -6 25.5t-45 5.5q-94 0 -145.5 -108.5t-51.5 -285.5q0 -178 84 -319l-6 -49q-213 8 -343 116.5t-130 299.5z" />
<glyph unicode="&#xb7;" horiz-adv-x="471" d="M80 463q0 82 51 136t133 54q63 0 98 -35.5t35 -97.5q0 -84 -52 -137t-134 -53q-66 0 -98.5 35.5t-32.5 97.5z" />
<glyph unicode="&#xb8;" horiz-adv-x="792" d="M68 -401q0 35 94 135h16q-4 -55 19.5 -85t68.5 -30q37 0 61.5 18.5t24.5 47.5q1 49 -153 139l92 235h106l-59 -149q172 -104 172 -189q0 -82 -92 -145t-203 -63q-53 0 -100 24.5t-47 61.5z" />
<glyph unicode="&#xb9;" horiz-adv-x="526" d="M6 680l23 96q119 8 129 96l49 404q6 47 -5.5 61.5t-47.5 14.5l-66 -4l-8 8l18 88q63 6 168 20l207 27l12 -47q-45 -38 -65 -101q-16 -66 -44 -255t-28 -232q0 -61 45 -61l62 2l4 -6l-31 -101q-125 4 -195 4z" />
<glyph unicode="&#xba;" horiz-adv-x="665" d="M49 928q0 176 98.5 289.5t249.5 113.5q104 0 160.5 -61.5t56.5 -175.5q0 -182 -97 -299t-251 -117q-102 0 -159.5 65.5t-57.5 184.5zM248 961q-1 -160 69 -160q96 0 97 241q0 154 -70 154q-43 0 -69.5 -65.5t-26.5 -169.5z" />
<glyph unicode="&#xbb;" horiz-adv-x="892" d="M92 174q10 16 60.5 84t94.5 129.5t50 75.5q-4 12 -32.5 73.5t-62.5 134t-40 85.5l12 32l90 54q25 -37 95.5 -125t128.5 -158l59 -70l-6 -40q-291 -277 -367 -359l-80 51zM461 174q10 16 60 84t94 129.5t51 75.5q-4 12 -33 73.5t-62.5 134t-40.5 85.5l13 32l90 54 q25 -37 95.5 -125t128.5 -158l58 -70l-6 -40q-290 -277 -366 -359l-80 51z" />
<glyph unicode="&#xbc;" horiz-adv-x="1560" d="M6 520l23 94q61 4 92 27t37 70l49 403q6 47 -5.5 61.5t-47.5 14.5l-66 -4l-8 10l18 86q63 6 168 21l207 26l12 -47q-42 -32 -65 -100q-16 -63 -44 -254t-28 -232q0 -63 45 -63l62 4l4 -8l-31 -101q-125 6 -195 7zM137 -106q248 369 424 647l537 848l127 -52l14 -39 q-360 -547 -545 -833q-414 -655 -413 -655l-134 55zM872 197l17 108l395 488l10 4l146 -17l-54 -452h99l10 -17l-29 -127l-96 2l-14 -172l-13 -14l-186 -14l-12 12q20 102 33 195zM1044 328h152l25 213h-15z" />
<glyph unicode="&#xbd;" horiz-adv-x="1622" d="M6 520l23 94q61 4 92 27t37 70l49 403q6 47 -5.5 61.5t-47.5 14.5l-66 -4l-8 10l18 86q63 6 168 21l207 26l12 -47q-42 -32 -65 -100q-16 -63 -44 -254t-28 -232q0 -63 45 -63l62 4l4 -8l-31 -101q-125 6 -195 7zM137 -106q248 369 424 647l537 848l127 -52l14 -39 q-360 -547 -545 -833q-414 -655 -413 -655l-134 55zM913 86l185 178q184 195 184 287q0 66 -74 65q-90 0 -180 -108h-22l-13 127q61 74 141 118t154 44q98 0 159.5 -48.5t61.5 -125.5q0 -86 -68.5 -186.5t-248.5 -280.5l6 -11h107q55 0 81.5 26t47.5 95l127 10 q-49 -158 -70 -270l-23 -18q-311 12 -440 12l-113 -12z" />
<glyph unicode="&#xbe;" horiz-adv-x="1560" d="M20 672l27 24q51 -23 115 -22q72 0 120 31.5t48 82.5q0 80 -160 80l-14 17v98l88 18q102 45 102 123q0 27 -16.5 42.5t-44.5 15.5q-63 0 -148 -56h-18l-21 111q53 33 131 62.5t136 29.5q88 0 140 -39t52 -104q0 -61 -46 -114.5t-122 -82.5l-2 -14q164 -53 164 -172 q0 -106 -137.5 -195.5t-294.5 -89.5q-61 0 -82 34t-17 120zM137 -106q248 369 424 647l537 848l127 -52l14 -39q-360 -547 -545 -833q-414 -655 -413 -655l-134 55zM872 197l17 108l395 488l10 4l146 -17l-54 -452h99l10 -17l-29 -127l-96 2l-14 -172l-13 -14l-186 -14 l-12 12q20 102 33 195zM1044 328h152l25 213h-15z" />
<glyph unicode="&#xbf;" horiz-adv-x="733" d="M-59 -166q0 70 22.5 124t73.5 103.5t105.5 88t149.5 98.5q18 10 25 16l7 15l-7 170l15 22l184 37l23 -12l16 -258l-10 -29l-228 -129q-123 -70 -122 -166q0 -174 335 -195l13 -28l-94 -172l-33 -15q-207 6 -341 99.5t-134 230.5zM307 780q0 82 52.5 136.5t134.5 54.5 q63 0 98 -37t35 -96q0 -84 -52.5 -137.5t-134.5 -53.5q-63 0 -98 36t-35 97z" />
<glyph unicode="&#xc0;" horiz-adv-x="1243" d="M-80 -6l31 135q88 14 145 137l471 1037l322 34l22 -10q95 -707 158 -1059q12 -74 41 -103.5t94 -37.5l8 -14l-28 -119q-158 6 -244 6l-338 -16l-8 16l24 121q98 8 130 24.5t32 61.5q0 14 -4 59l-18 158q-53 4 -178 4q-96 0 -191 -14l-65 -158q-20 -49 -21 -76 q0 -53 80 -53h86l6 -12l-29 -127q-162 12 -286 12zM459 1587l51 158l27 10q236 -117 456 -213l-26 -96l-29 -19q-233 74 -469 134zM461 584h137q55 0 145 8l-57 457h-29z" />
<glyph unicode="&#xc1;" horiz-adv-x="1243" d="M-80 -6l31 135q88 14 145 137l471 1037l322 34l22 -10q95 -707 158 -1059q12 -74 41 -103.5t94 -37.5l8 -14l-28 -119q-158 6 -244 6l-338 -16l-8 16l24 121q98 8 130 24.5t32 61.5q0 14 -4 59l-18 158q-53 4 -178 4q-96 0 -191 -14l-65 -158q-20 -49 -21 -76 q0 -53 80 -53h86l6 -12l-29 -127q-162 12 -286 12zM461 584h137q55 0 145 8l-57 457h-29zM551 1542l457 213l26 -10l51 -158l-10 -26q-236 -59 -469 -134l-26 19z" />
<glyph unicode="&#xc2;" horiz-adv-x="1243" d="M-80 -6l31 135q88 14 145 137l471 1037l322 34l22 -10q95 -707 158 -1059q12 -74 41 -103.5t94 -37.5l8 -14l-28 -119q-158 6 -244 6l-338 -16l-8 16l24 121q98 8 130 24.5t32 61.5q0 14 -4 59l-18 158q-53 4 -178 4q-96 0 -191 -14l-65 -158q-20 -49 -21 -76 q0 -53 80 -53h86l6 -12l-29 -127q-162 12 -286 12zM434 1540l344 254h41q0 2 53.5 -47t126 -115.5t101.5 -91.5l-60 -84l-34 -8q-14 6 -118 59.5t-118 59.5q-16 -6 -130 -58.5t-136 -60.5l-31 8zM461 584h137q55 0 145 8l-57 457h-29z" />
<glyph unicode="&#xc3;" horiz-adv-x="1243" d="M-80 -6l31 135q88 14 145 137l471 1037l322 34l22 -10q95 -707 158 -1059q12 -74 41 -103.5t94 -37.5l8 -14l-28 -119q-158 6 -244 6l-338 -16l-8 16l24 121q98 8 130 24.5t32 61.5q0 14 -4 59l-18 158q-53 4 -178 4q-96 0 -191 -14l-65 -158q-20 -49 -21 -76 q0 -53 80 -53h86l6 -12l-29 -127q-162 12 -286 12zM406 1483l2 22l180 197l33 8q35 0 148.5 -35t139.5 -35q47 0 142 107h22l72 -76l-2 -20l-180 -199l-35 -8q-35 0 -147.5 34.5t-139.5 34.5q-49 0 -141 -106h-23zM461 584h137q55 0 145 8l-57 457h-29z" />
<glyph unicode="&#xc4;" horiz-adv-x="1243" d="M-80 -6l31 135q88 14 145 137l471 1037l322 34l22 -10q95 -707 158 -1059q12 -74 41 -103.5t94 -37.5l8 -14l-28 -119q-158 6 -244 6l-338 -16l-8 16l24 121q98 8 130 24.5t32 61.5q0 14 -4 59l-18 158q-53 4 -178 4q-96 0 -191 -14l-65 -158q-20 -49 -21 -76 q0 -53 80 -53h86l6 -12l-29 -127q-162 12 -286 12zM461 584h137q55 0 145 8l-57 457h-29zM465 1563q0 68 43 111.5t110 43.5q51 0 79 -28.5t28 -77.5q0 -68 -43 -112t-111 -44q-106 0 -106 107zM819 1563q0 68 44 111.5t110 43.5q51 0 78.5 -28.5t27.5 -77.5 q0 -68 -42.5 -112t-110.5 -44q-51 0 -79 28.5t-28 78.5z" />
<glyph unicode="&#xc5;" horiz-adv-x="1243" d="M-80 -6l31 135q88 14 145 137l471 1037l322 34l22 -10q95 -707 158 -1059q12 -74 41 -103.5t94 -37.5l8 -14l-28 -119q-158 6 -244 6l-338 -16l-8 16l24 121q98 8 130 24.5t32 61.5q0 14 -4 59l-18 158q-53 4 -178 4q-96 0 -191 -14l-65 -158q-20 -49 -21 -76 q0 -53 80 -53h86l6 -12l-29 -127q-162 12 -286 12zM461 584h137q55 0 145 8l-57 457h-29zM586 1548q0 94 62.5 157.5t156.5 63.5q80 0 119 -44t39 -109q0 -90 -62 -158.5t-160 -68.5q-76 0 -115.5 44t-39.5 115zM690 1573q0 -37 24.5 -56.5t53.5 -19.5q90 0 90 86 q0 74 -82 74q-41 0 -63.5 -23.5t-22.5 -60.5z" />
<glyph unicode="&#xc6;" horiz-adv-x="1728" d="M-57 -6l6 121q23 4 61.5 46t75.5 105l508 873q-6 45 -45 45l-62 -4l-12 18l33 123q0 -6 487 -6q477 0 639 24l15 -22q-57 -180 -93 -371l-186 -14q16 72 16 117q0 59 -46 77.5t-193 18.5q-63 0 -85 -12.5t-22 -45.5l9 -372l192 24l195 39l18 -22l-45 -170l-182 -13 l-176 -22l8 -254q2 -72 29.5 -104.5t91.5 -32.5q162 0 214 40t93 193l174 15l14 -19q-59 -184 -102 -381l-23 -22q2 2 -98 5t-263 6t-296 3q-72 0 -151.5 -4t-123.5 -8l-43 -4l-8 16l23 123q174 14 176 129q4 41 4 70v188l-174 -21l-170 -32l-109 -201q-31 -59 -30 -84 q0 -27 21.5 -35t80.5 -8l62 -10l-29 -131q-2 2 -60.5 4t-139.5 5t-132 3zM526 649l123 8l125 17l2 370h-31z" />
<glyph unicode="&#xc7;" horiz-adv-x="1216" d="M66 524q0 371 205.5 592t551.5 221q74 0 174.5 -12t164.5 -25l65 -12l8 -26q-61 -170 -100 -385l-199 -13q18 96 18 135q0 145 -202 146q-174 0 -270.5 -150.5t-96.5 -431.5q0 -195 68.5 -297t199.5 -102q106 0 172 65.5t111 216.5l199 15q-59 -211 -86 -379l-21 -25 q-158 -72 -379 -80l-26 -67q172 -104 172 -189q0 -82 -92.5 -145t-202.5 -63q-53 0 -100.5 24.5t-47.5 61.5q0 35 94 135h17q-4 -55 19.5 -85t68.5 -30q37 0 61.5 18.5t24.5 47.5q0 49 -154 139l60 153q-223 16 -350 162t-127 385z" />
<glyph unicode="&#xc8;" horiz-adv-x="1181" d="M10 -20l33 137q84 12 118 49t44 125l98 782q8 68 -1 89.5t-48 21.5l-61 -4l-11 18l31 121q217 -6 365 -6q422 0 606 24l12 -20q-57 -180 -90 -371l-184 -12q16 72 16 117q0 61 -45 78.5t-191 17.5q-70 0 -87 -10.5t-25 -57.5l-53 -323q18 0 85.5 -1t98.5 -1l231 16 l13 -16l-50 -174q-158 6 -256 6q-47 0 -151 -13q-47 -322 -47 -340q0 -49 22.5 -62t94.5 -13q182 0 238 39t97 194l170 15l13 -21q-59 -182 -103 -379l-22 -20q-367 14 -613 14q-78 0 -165 -5t-135 -10zM444 1587l52 158l26 10q236 -117 457 -213l-27 -96l-28 -19 q-233 74 -469 134z" />
<glyph unicode="&#xc9;" horiz-adv-x="1181" d="M10 -20l33 137q84 12 118 49t44 125l98 782q8 68 -1 89.5t-48 21.5l-61 -4l-11 18l31 121q217 -6 365 -6q422 0 606 24l12 -20q-57 -180 -90 -371l-184 -12q16 72 16 117q0 61 -45 78.5t-191 17.5q-70 0 -87 -10.5t-25 -57.5l-53 -323q18 0 85.5 -1t98.5 -1l231 16 l13 -16l-50 -174q-158 6 -256 6q-47 0 -151 -13q-47 -322 -47 -340q0 -49 22.5 -62t94.5 -13q182 0 238 39t97 194l170 15l13 -21q-59 -182 -103 -379l-22 -20q-367 14 -613 14q-78 0 -165 -5t-135 -10zM489 1542l457 213l27 -10l51 -158l-10 -26q-236 -59 -469 -134l-27 19 z" />
<glyph unicode="&#xca;" horiz-adv-x="1181" d="M10 -20l33 137q84 12 118 49t44 125l98 782q8 68 -1 89.5t-48 21.5l-61 -4l-11 18l31 121q217 -6 365 -6q422 0 606 24l12 -20q-57 -180 -90 -371l-184 -12q16 72 16 117q0 61 -45 78.5t-191 17.5q-70 0 -87 -10.5t-25 -57.5l-53 -323q18 0 85.5 -1t98.5 -1l231 16 l13 -16l-50 -174q-158 6 -256 6q-47 0 -151 -13q-47 -322 -47 -340q0 -49 22.5 -62t94.5 -13q182 0 238 39t97 194l170 15l13 -21q-59 -182 -103 -379l-22 -20q-367 14 -613 14q-78 0 -165 -5t-135 -10zM436 1540l344 254h41q0 2 53.5 -47t126 -115.5t101.5 -91.5l-60 -84 l-34 -8q-14 6 -118 59.5t-118 59.5q-16 -6 -130 -58.5t-136 -60.5l-31 8z" />
<glyph unicode="&#xcb;" horiz-adv-x="1181" d="M10 -20l33 137q84 12 118 49t44 125l98 782q8 68 -1 89.5t-48 21.5l-61 -4l-11 18l31 121q217 -6 365 -6q422 0 606 24l12 -20q-57 -180 -90 -371l-184 -12q16 72 16 117q0 61 -45 78.5t-191 17.5q-70 0 -87 -10.5t-25 -57.5l-53 -323q18 0 85.5 -1t98.5 -1l231 16 l13 -16l-50 -174q-158 6 -256 6q-47 0 -151 -13q-47 -322 -47 -340q0 -49 22.5 -62t94.5 -13q182 0 238 39t97 194l170 15l13 -21q-59 -182 -103 -379l-22 -20q-367 14 -613 14q-78 0 -165 -5t-135 -10zM465 1563q0 68 43 111.5t110 43.5q51 0 79 -28.5t28 -77.5 q0 -68 -43 -112t-111 -44q-106 0 -106 107zM819 1563q0 68 44 111.5t110 43.5q51 0 78.5 -28.5t27.5 -77.5q0 -68 -42.5 -112t-110.5 -44q-51 0 -79 28.5t-28 78.5z" />
<glyph unicode="&#xcc;" horiz-adv-x="722" d="M10 -18l31 131q88 18 122 53t44 119l96 792q8 63 -3 85t-54 22l-68 -2l-8 16l29 119q23 0 123 -2t153 -2l285 16l-29 -135q-76 -10 -103.5 -32t-37.5 -79q-129 -748 -129 -870q0 -47 14 -64.5t49 -17.5l86 6l6 -14l-32 -129q-205 6 -293 6q-49 0 -120 -4t-116 -9z M180 1587l51 158l27 10q236 -117 457 -213l-27 -96l-29 -19q-233 74 -469 134z" />
<glyph unicode="&#xcd;" horiz-adv-x="722" d="M10 -18l31 131q88 18 122 53t44 119l96 792q8 63 -3 85t-54 22l-68 -2l-8 16l29 119q23 0 123 -2t153 -2l285 16l-29 -135q-76 -10 -103.5 -32t-37.5 -79q-129 -748 -129 -870q0 -47 14 -64.5t49 -17.5l86 6l6 -14l-32 -129q-205 6 -293 6q-49 0 -120 -4t-116 -9z M272 1542l457 213l27 -10l51 -158l-10 -26q-236 -59 -469 -134l-27 19z" />
<glyph unicode="&#xce;" horiz-adv-x="722" d="M10 -18l31 131q88 18 122 53t44 119l96 792q8 63 -3 85t-54 22l-68 -2l-8 16l29 119q23 0 123 -2t153 -2l285 16l-29 -135q-76 -10 -103.5 -32t-37.5 -79q-129 -748 -129 -870q0 -47 14 -64.5t49 -17.5l86 6l6 -14l-32 -129q-205 6 -293 6q-49 0 -120 -4t-116 -9z M164 1540l344 254h41q0 2 53 -47t126 -115.5t101 -91.5l-59 -84l-35 -8q-14 6 -117.5 59.5t-117.5 59.5q-16 -6 -130 -58.5t-137 -60.5l-30 8z" />
<glyph unicode="&#xcf;" horiz-adv-x="722" d="M10 -18l31 131q88 18 122 53t44 119l96 792q8 63 -3 85t-54 22l-68 -2l-8 16l29 119q23 0 123 -2t153 -2l285 16l-29 -135q-76 -10 -103.5 -32t-37.5 -79q-129 -748 -129 -870q0 -47 14 -64.5t49 -17.5l86 6l6 -14l-32 -129q-205 6 -293 6q-49 0 -120 -4t-116 -9z M195 1563q0 68 43 111.5t110 43.5q51 0 79 -28.5t28 -77.5q0 -68 -43 -112t-111 -44q-106 0 -106 107zM549 1563q0 68 44 111.5t109 43.5q51 0 79 -28.5t28 -77.5q0 -68 -43 -112t-111 -44q-51 0 -78.5 28.5t-27.5 78.5z" />
<glyph unicode="&#xd0;" horiz-adv-x="1396" d="M33 600l35 123h225l43 348q8 66 -2 88.5t-45 22.5l-68 -4l-8 18l31 123q174 -6 252 -6l297 10q270 0 428.5 -140.5t158.5 -387.5q0 -352 -219 -586t-551 -234q-195 25 -307 25q-47 0 -111.5 -5t-105.5 -10l-41 -5l31 137q84 14 117.5 50t46.5 122l36 297h-229zM496 256 q0 -63 31.5 -86t115.5 -23q195 0 307.5 167t112.5 456q0 381 -377 381q-33 0 -45 -10.5t-16 -38.5q-4 -23 -62 -379l240 4l12 -18l-29 -123h-245q-45 -287 -45 -330z" />
<glyph unicode="&#xd1;" horiz-adv-x="1441" d="M25 -16l32 135q117 14 133 129l125 813q8 66 -20.5 91.5t-124.5 35.5l-12 20l26 115q131 -10 232 -10l190 8q203 -438 420 -850h21l71 625q8 88 -53 88q-16 0 -41 -1t-27 -1l-6 16l29 123q168 -8 256 -8l235 12l-26 -135q-66 -10 -98.5 -39t-40.5 -90l-160 -1092 l-217 -26q-241 513 -459 923h-18l-82 -645q-6 -51 6 -71.5t51 -20.5l84 4l10 -12l-35 -129q-170 8 -256 8q-47 0 -108.5 -4t-99.5 -8zM508 1483l2 22l180 197l33 8q35 0 148.5 -35t140.5 -35q47 0 141 107h23l71 -76l-2 -20l-180 -199l-35 -8q-35 0 -147.5 34.5t-139.5 34.5 q-49 0 -141 -106h-22z" />
<glyph unicode="&#xd2;" horiz-adv-x="1329" d="M66 522q0 365 198.5 590t523.5 225q242 0 383.5 -143t141.5 -395q0 -365 -202.5 -594.5t-526.5 -229.5q-236 0 -377 147.5t-141 399.5zM379 535q0 -180 68.5 -282.5t189.5 -102.5q164 0 260 160.5t96 449.5q0 180 -70.5 282.5t-193.5 102.5q-162 0 -256 -162t-94 -448z M494 1587l51 158l26 10q236 -117 457 -213l-27 -96l-28 -19q-233 74 -469 134z" />
<glyph unicode="&#xd3;" horiz-adv-x="1329" d="M66 522q0 365 198.5 590t523.5 225q242 0 383.5 -143t141.5 -395q0 -365 -202.5 -594.5t-526.5 -229.5q-236 0 -377 147.5t-141 399.5zM379 535q0 -180 68.5 -282.5t189.5 -102.5q164 0 260 160.5t96 449.5q0 180 -70.5 282.5t-193.5 102.5q-162 0 -256 -162t-94 -448z M547 1542l457 213l26 -10l51 -158l-10 -26q-236 -59 -469 -134l-27 19z" />
<glyph unicode="&#xd4;" horiz-adv-x="1329" d="M66 522q0 365 198.5 590t523.5 225q242 0 383.5 -143t141.5 -395q0 -365 -202.5 -594.5t-526.5 -229.5q-236 0 -377 147.5t-141 399.5zM379 535q0 -180 68.5 -282.5t189.5 -102.5q164 0 260 160.5t96 449.5q0 180 -70.5 282.5t-193.5 102.5q-162 0 -256 -162t-94 -448z M457 1540l344 254h41q0 2 53 -47t126 -115.5t101 -91.5l-59 -84l-35 -8q-14 6 -117.5 59.5t-117.5 59.5q-16 -6 -130 -58.5t-137 -60.5l-30 8z" />
<glyph unicode="&#xd5;" horiz-adv-x="1329" d="M66 522q0 365 198.5 590t523.5 225q242 0 383.5 -143t141.5 -395q0 -365 -202.5 -594.5t-526.5 -229.5q-236 0 -377 147.5t-141 399.5zM379 535q0 -180 68.5 -282.5t189.5 -102.5q164 0 260 160.5t96 449.5q0 180 -70.5 282.5t-193.5 102.5q-162 0 -256 -162t-94 -448z M438 1483l2 22l181 197l32 8q35 0 148.5 -35t140.5 -35q47 0 141 107h23l72 -76l-2 -20l-181 -199l-34 -8q-35 0 -148 34.5t-139 34.5q-50 0 -142 -106h-22z" />
<glyph unicode="&#xd6;" horiz-adv-x="1329" d="M66 522q0 365 198.5 590t523.5 225q242 0 383.5 -143t141.5 -395q0 -365 -202.5 -594.5t-526.5 -229.5q-236 0 -377 147.5t-141 399.5zM379 535q0 -180 68.5 -282.5t189.5 -102.5q164 0 260 160.5t96 449.5q0 180 -70.5 282.5t-193.5 102.5q-162 0 -256 -162t-94 -448z M487 1563q0 68 43 111.5t111 43.5q51 0 79 -28.5t28 -77.5q0 -68 -43 -112t-111 -44q-106 0 -107 107zM842 1563q0 68 44 111.5t109 43.5q51 0 79 -28.5t28 -77.5q0 -68 -43 -112t-111 -44q-51 0 -78.5 28.5t-27.5 78.5z" />
<glyph unicode="&#xd7;" horiz-adv-x="999" d="M98 264q137 127 262 242l-223 264l8 29l166 108q113 -139 211 -256l281 275l24 -11l99 -143l-281 -262q96 -112 225 -250l-14 -27l-160 -118l-213 252l-272 -256l-25 6z" />
<glyph unicode="&#xd8;" horiz-adv-x="1329" d="M66 522q0 365 198.5 590t523.5 225q100 0 191 -28l111 184l124 -59l7 -27l-103 -168q195 -143 195 -440q0 -365 -203 -594.5t-526 -229.5q-104 0 -195 31l-137 -225l-123 59l-6 21l133 217q-190 145 -190 444zM379 535q0 -115 29 -205l450 776q-59 39 -129 39 q-162 0 -256 -161.5t-94 -448.5zM502 193q55 -43 135 -43q164 0 260 160.5t96 449.5q0 123 -35 215z" />
<glyph unicode="&#xd9;" horiz-adv-x="1288" d="M123 1188l35 131q168 -6 282 -6l238 14l-31 -137q-63 -8 -89 -32t-34 -77l-88 -596q-4 -57 -4 -82q-2 -121 51.5 -183t155.5 -62q238 0 270 270l74 645q6 68 -3 89.5t-46 21.5l-66 -4l-4 8l33 131q156 -6 229 -6l240 14l-29 -135q-76 -14 -98 -32.5t-29 -69.5l-80 -641 q-29 -231 -171 -352.5t-386 -121.5q-420 0 -419 363q0 39 6 82l82 653q8 68 -2.5 89.5t-51.5 21.5l-61 -4zM489 1587l52 158l26 10q236 -117 457 -213l-27 -96l-28 -19q-233 74 -469 134z" />
<glyph unicode="&#xda;" horiz-adv-x="1288" d="M123 1188l35 131q168 -6 282 -6l238 14l-31 -137q-63 -8 -89 -32t-34 -77l-88 -596q-4 -57 -4 -82q-2 -121 51.5 -183t155.5 -62q238 0 270 270l74 645q6 68 -3 89.5t-46 21.5l-66 -4l-4 8l33 131q156 -6 229 -6l240 14l-29 -135q-76 -14 -98 -32.5t-29 -69.5l-80 -641 q-29 -231 -171 -352.5t-386 -121.5q-420 0 -419 363q0 39 6 82l82 653q8 68 -2.5 89.5t-51.5 21.5l-61 -4zM580 1542l456 213l27 -10l51 -158l-10 -26q-236 -59 -469 -134l-27 19z" />
<glyph unicode="&#xdb;" horiz-adv-x="1288" d="M123 1188l35 131q168 -6 282 -6l238 14l-31 -137q-63 -8 -89 -32t-34 -77l-88 -596q-4 -57 -4 -82q-2 -121 51.5 -183t155.5 -62q238 0 270 270l74 645q6 68 -3 89.5t-46 21.5l-66 -4l-4 8l33 131q156 -6 229 -6l240 14l-29 -135q-76 -14 -98 -32.5t-29 -69.5l-80 -641 q-29 -231 -171 -352.5t-386 -121.5q-420 0 -419 363q0 39 6 82l82 653q8 68 -2.5 89.5t-51.5 21.5l-61 -4zM481 1540l344 254h41q0 2 53.5 -47t126 -115.5t101.5 -91.5l-60 -84l-34 -8q-14 6 -118 59.5t-118 59.5q-16 -6 -130 -58.5t-136 -60.5l-31 8z" />
<glyph unicode="&#xdc;" horiz-adv-x="1288" d="M123 1188l35 131q168 -6 282 -6l238 14l-31 -137q-63 -8 -89 -32t-34 -77l-88 -596q-4 -57 -4 -82q-2 -121 51.5 -183t155.5 -62q238 0 270 270l74 645q6 68 -3 89.5t-46 21.5l-66 -4l-4 8l33 131q156 -6 229 -6l240 14l-29 -135q-76 -14 -98 -32.5t-29 -69.5l-80 -641 q-29 -231 -171 -352.5t-386 -121.5q-420 0 -419 363q0 39 6 82l82 653q8 68 -2.5 89.5t-51.5 21.5l-61 -4zM510 1563q0 68 43 111.5t111 43.5q51 0 78.5 -28.5t27.5 -77.5q0 -68 -43 -112t-111 -44q-106 0 -106 107zM864 1563q0 68 44 111.5t110 43.5q51 0 78.5 -28.5 t27.5 -77.5q0 -68 -42.5 -112t-110.5 -44q-51 0 -79 28.5t-28 78.5z" />
<glyph unicode="&#xdd;" horiz-adv-x="1191" d="M70 1190l32 129q176 -6 254 -6l320 16l8 -18l-27 -117q-72 -4 -97 -18.5t-25 -47.5q0 -63 114 -423h17l198 344q39 66 39 102.5t-94 42.5l-4 10l31 117q20 0 116.5 -4t145.5 -4l205 8l6 -14l-31 -123q-82 -27 -136.5 -81t-133.5 -181l-234 -367q-6 -10 -12 -21.5 t-11.5 -20.5t-9.5 -23.5t-7 -22.5t-6 -25.5t-5 -26.5t-5 -32t-4 -33t-5 -39.5t-7 -42.5q-10 -76 5.5 -105.5t70.5 -29.5l99 6l6 -10l-35 -137q-227 8 -326 8q-51 0 -130 -6t-132 -11l-53 -6l31 138q117 16 154.5 53t47.5 141l9 64q12 102 -31 211l-146 389 q-37 102 -74.5 145t-121.5 62zM545 1542l456 213l27 -10l51 -158l-10 -26q-236 -59 -469 -134l-27 19z" />
<glyph unicode="&#xde;" horiz-adv-x="1136" d="M8 -18l31 133q88 18 121 52t43 120l98 788q8 63 -4 85t-55 22l-66 -2l-10 16l31 121q23 0 125 -1t153 -1l287 14l-27 -137q-80 -12 -105.5 -29.5t-33.5 -64.5l-8 -49h147q412 0 412 -312q0 -188 -155.5 -315t-377.5 -127h-139l-8 -62q-8 -61 4 -80.5t57 -19.5l95 6l8 -14 l-33 -131q-215 6 -307 6zM498 475q98 -29 159 -29q195 33 195 254q0 94 -60.5 138.5t-187.5 44.5q-43 0 -49 -29z" />
<glyph unicode="&#xdf;" horiz-adv-x="1847" d="M29 68q45 143 63 268l156 12q-14 -117 17.5 -163t125.5 -46q76 0 122 32t46 85q0 45 -43 78t-131 76q-63 33 -95 51t-78 54t-66.5 80t-20.5 97q0 156 134 254t345 98q74 0 148.5 -10t112.5 -21l38 -12l10 -24q-45 -129 -73 -275l-144 -10l-14 10q10 49 10 74 q0 100 -135 101q-68 0 -113 -32t-45 -81q0 -61 121 -125q16 -8 66.5 -32.5t76 -39t65.5 -42t60.5 -52t37 -62.5t16.5 -79q0 -160 -134.5 -255t-361.5 -95q-80 0 -155.5 15t-112.5 31l-37 15zM952 68q45 143 64 268l155 12q-14 -117 18 -163t126 -46q76 0 122 32t46 85 q0 45 -43 78t-131 76q-63 33 -95 51t-78 54t-66.5 80t-20.5 97q0 156 134 254t347 98q163 0 297 -43l10 -24q-45 -129 -74 -275l-143 -10l-14 10q10 49 10 74q0 100 -135 101q-66 0 -111 -32t-45 -81q0 -37 29.5 -64.5t89.5 -60.5q16 -8 66.5 -32.5t76 -39t65.5 -42 t60.5 -52t36.5 -62.5t16 -79q0 -160 -134 -255t-361 -95q-78 0 -155 15t-114 31l-36 15z" />
<glyph unicode="&#xe0;" horiz-adv-x="1085" d="M-45 -4l27 115q70 12 112 100l375 805l311 28l19 -12q84 -569 131 -811q8 -57 31.5 -81.5t70.5 -28.5l8 -13l-24 -102q-131 4 -209 4l-287 -12l-8 12l20 109q80 6 103.5 17t23.5 44q0 27 -2 41l-12 104q-6 0 -66.5 1t-74.5 1q-92 0 -150 -8l-45 -108q-16 -33 -16 -51 q0 -37 59 -37h66l6 -13l-23 -108q-139 8 -241 8zM362 1296l52 158l26 10q236 -117 457 -213l-27 -96l-28 -18q-233 73 -469 133zM416 463h106q55 0 111 6l-43 332h-27z" />
<glyph unicode="&#xe1;" horiz-adv-x="1085" d="M-45 -4l27 115q70 12 112 100l375 805l311 28l19 -12q84 -569 131 -811q8 -57 31.5 -81.5t70.5 -28.5l8 -13l-24 -102q-131 4 -209 4l-287 -12l-8 12l20 109q80 6 103.5 17t23.5 44q0 27 -2 41l-12 104q-6 0 -66.5 1t-74.5 1q-92 0 -150 -8l-45 -108q-16 -33 -16 -51 q0 -37 59 -37h66l6 -13l-23 -108q-139 8 -241 8zM414 1251l456 213l27 -10l51 -158l-10 -26q-236 -59 -469 -133l-27 18zM416 463h106q55 0 111 6l-43 332h-27z" />
<glyph unicode="&#xe2;" horiz-adv-x="1085" d="M-45 -4l27 115q70 12 112 100l375 805l311 28l19 -12q84 -569 131 -811q8 -57 31.5 -81.5t70.5 -28.5l8 -13l-24 -102q-131 4 -209 4l-287 -12l-8 12l20 109q80 6 103.5 17t23.5 44q0 27 -2 41l-12 104q-6 0 -66.5 1t-74.5 1q-92 0 -150 -8l-45 -108q-16 -33 -16 -51 q0 -37 59 -37h66l6 -13l-23 -108q-139 8 -241 8zM319 1249l345 254h41q0 2 53 -47t125.5 -115.5t101.5 -91.5l-59 -84l-35 -8q-14 6 -117.5 59.5t-118.5 59.5q-16 -6 -129.5 -58.5t-136.5 -60.5l-31 8zM416 463h106q55 0 111 6l-43 332h-27z" />
<glyph unicode="&#xe3;" horiz-adv-x="1085" d="M-45 -4l27 115q70 12 112 100l375 805l311 28l19 -12q84 -569 131 -811q8 -57 31.5 -81.5t70.5 -28.5l8 -13l-24 -102q-131 4 -209 4l-287 -12l-8 12l20 109q80 6 103.5 17t23.5 44q0 27 -2 41l-12 104q-6 0 -66.5 1t-74.5 1q-92 0 -150 -8l-45 -108q-16 -33 -16 -51 q0 -37 59 -37h66l6 -13l-23 -108q-139 8 -241 8zM289 1192l2 22l180 197l33 8q35 0 148.5 -34.5t140.5 -34.5q47 0 141 106h22l72 -76l-2 -20l-180 -199l-35 -8q-33 0 -145.5 35t-141.5 35q-49 -1 -141 -107h-23zM416 463h106q55 0 111 6l-43 332h-27z" />
<glyph unicode="&#xe4;" horiz-adv-x="1085" d="M-45 -4l27 115q70 12 112 100l375 805l311 28l19 -12q84 -569 131 -811q8 -57 31.5 -81.5t70.5 -28.5l8 -13l-24 -102q-131 4 -209 4l-287 -12l-8 12l20 109q80 6 103.5 17t23.5 44q0 27 -2 41l-12 104q-6 0 -66.5 1t-74.5 1q-92 0 -150 -8l-45 -108q-16 -33 -16 -51 q0 -37 59 -37h66l6 -13l-23 -108q-139 8 -241 8zM350 1272q0 68 43 111.5t111 43.5q51 0 78.5 -28.5t27.5 -77.5q0 -68 -42.5 -112t-110.5 -44q-106 0 -107 107zM416 463h106q55 0 111 6l-43 332h-27zM705 1272q0 68 44 111.5t109 43.5q51 0 79 -28.5t28 -77.5 q0 -68 -43 -112t-111 -44q-51 0 -78.5 29t-27.5 78z" />
<glyph unicode="&#xe5;" horiz-adv-x="1085" d="M-45 -4l27 115q70 12 112 100l375 805l311 28l19 -12q84 -569 131 -811q8 -57 31.5 -81.5t70.5 -28.5l8 -13l-24 -102q-131 4 -209 4l-287 -12l-8 12l20 109q80 6 103.5 17t23.5 44q0 27 -2 41l-12 104q-6 0 -66.5 1t-74.5 1q-92 0 -150 -8l-45 -108q-16 -33 -16 -51 q0 -37 59 -37h66l6 -13l-23 -108q-139 8 -241 8zM416 463h106q55 0 111 6l-43 332h-27zM471 1257q0 94 62.5 158t156.5 64q80 0 119 -44t39 -110q0 -90 -61.5 -158.5t-159.5 -68.5q-76 0 -116 44t-40 115zM575 1282q0 -37 24.5 -56.5t53.5 -19.5q90 0 90 86q0 74 -81 74 q-41 0 -64 -23.5t-23 -60.5z" />
<glyph unicode="&#xe6;" horiz-adv-x="1495" d="M-25 -4l7 108q47 10 110 109l391 659q-2 39 -37 39l-47 -2l-12 15l27 106q223 -4 442 -4q403 0 541 18l10 -18q-43 -150 -72 -299l-176 -12q14 55 15 86q0 45 -36 59t-149 14q-80 0 -80 -43l11 -264l145 21l164 35l18 -23l-39 -147l-153 -15l-133 -16l8 -172 q2 -109 92 -109q123 0 163 32t72 149l162 12l13 -19q-49 -147 -84 -307l-21 -18q2 0 -30.5 1t-89 3t-124 3t-152.5 2t-159 1l-268 -12l-8 12l20 109q74 8 104.5 29.5t32.5 62.5q4 33 4 51v129l-139 -16l-137 -31l-72 -133q-25 -43 -24 -58q0 -29 86 -28l39 -11l-25 -112 l-21 1q-22 1 -56 2t-71.5 2t-75.5 2t-63 1zM471 508l94 8l97 12l2 269h-31z" />
<glyph unicode="&#xe7;" horiz-adv-x="1036" d="M66 416q0 293 165.5 460.5t454.5 167.5q61 0 146.5 -10t139.5 -20l54 -10l10 -23q-51 -137 -84 -313l-188 -13q16 82 16 111q0 106 -153 106q-268 0 -269 -423q0 -297 199 -297q82 0 129 47t80 163l186 13q-45 -172 -65 -309l-19 -21q-125 -51 -299 -61l-28 -74 q172 -104 172 -189q0 -82 -92.5 -145t-202.5 -63q-53 0 -100.5 24.5t-47.5 61.5q0 35 95 135h16q-4 -55 19.5 -85t68.5 -30q37 0 61.5 18.5t24.5 47.5q0 49 -154 139l62 160q-186 12 -291.5 124.5t-105.5 307.5z" />
<glyph unicode="&#xe8;" horiz-adv-x="1013" d="M18 -16l27 118q68 10 95.5 40t35.5 100l76 583q6 51 -2 68.5t-39 17.5l-47 -2l-12 17l26 104q193 -6 324 -6q336 0 499 20l13 -18q-47 -150 -74 -299l-172 -10q14 53 14 86q0 47 -35.5 60.5t-146.5 13.5q-51 0 -65.5 -8.5t-18.5 -41.5l-41 -231h148l186 12l12 -16 l-41 -150q-127 4 -205 4q-59 0 -124 -10q-6 -35 -15.5 -90t-14.5 -91t-5 -54q0 -37 18.5 -48.5t71.5 -11.5q139 0 183 31t75 147l160 13l12 -19q-49 -145 -82 -305l-23 -18q-293 10 -509 10q-68 0 -144 -4t-118 -8zM342 1296l51 158l27 10q236 -117 457 -213l-27 -96 l-29 -18q-233 73 -469 133z" />
<glyph unicode="&#xe9;" horiz-adv-x="1013" d="M18 -16l27 118q68 10 95.5 40t35.5 100l76 583q6 51 -2 68.5t-39 17.5l-47 -2l-12 17l26 104q193 -6 324 -6q336 0 499 20l13 -18q-47 -150 -74 -299l-172 -10q14 53 14 86q0 47 -35.5 60.5t-146.5 13.5q-51 0 -65.5 -8.5t-18.5 -41.5l-41 -231h148l186 12l12 -16 l-41 -150q-127 4 -205 4q-59 0 -124 -10q-6 -35 -15.5 -90t-14.5 -91t-5 -54q0 -37 18.5 -48.5t71.5 -11.5q139 0 183 31t75 147l160 13l12 -19q-49 -145 -82 -305l-23 -18q-293 10 -509 10q-68 0 -144 -4t-118 -8zM360 1251l457 213l27 -10l51 -158l-10 -26 q-236 -59 -469 -133l-27 18z" />
<glyph unicode="&#xea;" horiz-adv-x="1013" d="M18 -16l27 118q68 10 95.5 40t35.5 100l76 583q6 51 -2 68.5t-39 17.5l-47 -2l-12 17l26 104q193 -6 324 -6q336 0 499 20l13 -18q-47 -150 -74 -299l-172 -10q14 53 14 86q0 47 -35.5 60.5t-146.5 13.5q-51 0 -65.5 -8.5t-18.5 -41.5l-41 -231h148l186 12l12 -16 l-41 -150q-127 4 -205 4q-59 0 -124 -10q-6 -35 -15.5 -90t-14.5 -91t-5 -54q0 -37 18.5 -48.5t71.5 -11.5q139 0 183 31t75 147l160 13l12 -19q-49 -145 -82 -305l-23 -18q-293 10 -509 10q-68 0 -144 -4t-118 -8zM313 1249l344 254h41q0 2 53.5 -47t126 -115.5 t101.5 -91.5l-59 -84l-35 -8q-14 6 -117.5 59.5t-118.5 59.5q-16 -6 -129.5 -58.5t-136.5 -60.5l-31 8z" />
<glyph unicode="&#xeb;" horiz-adv-x="1013" d="M18 -16l27 118q68 10 95.5 40t35.5 100l76 583q6 51 -2 68.5t-39 17.5l-47 -2l-12 17l26 104q193 -6 324 -6q336 0 499 20l13 -18q-47 -150 -74 -299l-172 -10q14 53 14 86q0 47 -35.5 60.5t-146.5 13.5q-51 0 -65.5 -8.5t-18.5 -41.5l-41 -231h148l186 12l12 -16 l-41 -150q-127 4 -205 4q-59 0 -124 -10q-6 -35 -15.5 -90t-14.5 -91t-5 -54q0 -37 18.5 -48.5t71.5 -11.5q139 0 183 31t75 147l160 13l12 -19q-49 -145 -82 -305l-23 -18q-293 10 -509 10q-68 0 -144 -4t-118 -8zM344 1272q0 68 43 111.5t111 43.5q51 0 78.5 -28.5 t27.5 -77.5q0 -68 -42.5 -112t-110.5 -44q-106 0 -107 107zM698 1272q0 68 44 111.5t110 43.5q51 0 78.5 -28.5t27.5 -77.5q0 -68 -42.5 -112t-110.5 -44q-51 0 -79 29t-28 78z" />
<glyph unicode="&#xec;" horiz-adv-x="634" d="M20 -12l25 112q72 14 98.5 41t32.5 92l76 596q6 49 -4 65.5t-45 16.5h-53q-6 12 -7 15l23 102q25 0 109.5 -2t127.5 -2l248 12l-24 -116q-61 -8 -82 -24.5t-29 -61.5q-100 -541 -100 -658q0 -37 11 -50t38 -13l67 4l7 -13l-29 -108q-176 4 -250 4zM133 1296l51 158l27 10 q236 -117 457 -213l-27 -96l-29 -18q-233 73 -469 133z" />
<glyph unicode="&#xed;" horiz-adv-x="634" d="M20 -12l25 112q72 14 98.5 41t32.5 92l76 596q6 49 -4 65.5t-45 16.5h-53q-6 12 -7 15l23 102q25 0 109.5 -2t127.5 -2l248 12l-24 -116q-61 -8 -82 -24.5t-29 -61.5q-100 -541 -100 -658q0 -37 11 -50t38 -13l67 4l7 -13l-29 -108q-176 4 -250 4zM164 1251l457 213 l26 -10l51 -158l-10 -26q-236 -59 -469 -133l-26 18z" />
<glyph unicode="&#xee;" horiz-adv-x="634" d="M20 -12l25 112q72 14 98.5 41t32.5 92l76 596q6 49 -4 65.5t-45 16.5h-53q-6 12 -7 15l23 102q25 0 109.5 -2t127.5 -2l248 12l-24 -116q-61 -8 -82 -24.5t-29 -61.5q-100 -541 -100 -658q0 -37 11 -50t38 -13l67 4l7 -13l-29 -108q-176 4 -250 4zM88 1249l344 254h41 q0 2 53.5 -47t126 -115.5t101.5 -91.5l-60 -84l-35 -8q-14 6 -117.5 59.5t-117.5 59.5q-16 -6 -130 -58.5t-136 -60.5l-31 8z" />
<glyph unicode="&#xef;" horiz-adv-x="634" d="M20 -12l25 112q72 14 98.5 41t32.5 92l76 596q6 49 -4 65.5t-45 16.5h-53q-6 12 -7 15l23 102q25 0 109.5 -2t127.5 -2l248 12l-24 -116q-61 -8 -82 -24.5t-29 -61.5q-100 -541 -100 -658q0 -37 11 -50t38 -13l67 4l7 -13l-29 -108q-176 4 -250 4zM123 1272 q0 68 43 111.5t110 43.5q51 0 79 -28.5t28 -77.5q0 -68 -43 -112t-111 -44q-106 0 -106 107zM477 1272q0 68 44 111.5t110 43.5q51 0 78.5 -28.5t27.5 -77.5q0 -68 -42.5 -112t-110.5 -44q-51 0 -79 29t-28 78z" />
<glyph unicode="&#xf0;" horiz-adv-x="1187" d="M41 459l31 108h176l33 258q6 51 -1.5 68.5t-35.5 17.5l-56 -4l-8 17l27 106q154 -6 217 -6l250 10q225 0 355 -108.5t130 -302.5q0 -281 -178 -461t-457 -180q-160 18 -254 18l-219 -16l27 120q68 12 94.5 39t36.5 95l24 208h-180zM446 209q0 -41 23 -57.5t82 -16.5 q147 0 231 124t84 343q0 143 -66.5 210t-207.5 67q-23 0 -34 -8.5t-13 -30.5q-12 -61 -47 -271l178 2l10 -14l-24 -111h-185q-31 -201 -31 -237z" />
<glyph unicode="&#xf1;" horiz-adv-x="1230" d="M29 -12l28 116q98 12 109 101l96 610q8 51 -15.5 70.5t-101.5 27.5l-12 19l23 100q111 -8 202 -8l172 8q156 -316 326 -616h16l52 428q6 70 -45 69q-12 0 -33 -1t-23 -1l-6 13l25 108q150 -8 227 -8q37 0 87 2t83 4t33 4l-21 -116q-55 -8 -80.5 -31t-33.5 -70l-125 -831 l-211 -21q-188 366 -355 656h-18l-55 -435q-4 -41 7 -57t44 -16l63 2l11 -11l-29 -110q-152 6 -221 6zM367 1192l2 22l180 197l33 8q35 0 148.5 -34.5t139.5 -34.5q47 0 142 106h22l72 -76l-2 -20l-180 -199l-35 -8q-33 0 -145.5 35t-141.5 35q-49 -1 -141 -107h-23z" />
<glyph unicode="&#xf2;" horiz-adv-x="1128" d="M66 414q0 289 159.5 459.5t431.5 170.5q205 0 322 -111.5t117 -314.5q0 -289 -163 -462.5t-433 -173.5q-201 0 -317.5 114.5t-116.5 317.5zM354 420q0 -139 49.5 -211t139.5 -72q123 0 191.5 117t68.5 336q0 139 -51.5 210.5t-143.5 71.5q-119 0 -186.5 -116.5 t-67.5 -335.5zM377 1296l51 158l27 10q236 -117 456 -213l-26 -96l-29 -18q-233 73 -469 133z" />
<glyph unicode="&#xf3;" horiz-adv-x="1128" d="M66 414q0 289 159.5 459.5t431.5 170.5q205 0 322 -111.5t117 -314.5q0 -289 -163 -462.5t-433 -173.5q-201 0 -317.5 114.5t-116.5 317.5zM354 420q0 -139 49.5 -211t139.5 -72q123 0 191.5 117t68.5 336q0 139 -51.5 210.5t-143.5 71.5q-119 0 -186.5 -116.5 t-67.5 -335.5zM401 1251l457 213l27 -10l51 -158l-10 -26q-236 -59 -469 -133l-27 18z" />
<glyph unicode="&#xf4;" horiz-adv-x="1128" d="M66 414q0 289 159.5 459.5t431.5 170.5q205 0 322 -111.5t117 -314.5q0 -289 -163 -462.5t-433 -173.5q-201 0 -317.5 114.5t-116.5 317.5zM328 1249l344 254h41q0 2 53 -47t126 -115.5t101 -91.5l-59 -84l-35 -8q-14 6 -117.5 59.5t-117.5 59.5q-16 -6 -130 -58.5 t-137 -60.5l-30 8zM354 420q0 -139 49.5 -211t139.5 -72q123 0 191.5 117t68.5 336q0 139 -51.5 210.5t-143.5 71.5q-119 0 -186.5 -116.5t-67.5 -335.5z" />
<glyph unicode="&#xf5;" horiz-adv-x="1128" d="M66 414q0 289 159.5 459.5t431.5 170.5q205 0 322 -111.5t117 -314.5q0 -289 -163 -462.5t-433 -173.5q-201 0 -317.5 114.5t-116.5 317.5zM303 1192l2 22l180 197l33 8q35 0 148.5 -34.5t140.5 -34.5q47 0 141 106h23l71 -76l-2 -20l-180 -199l-35 -8q-35 0 -147.5 35 t-138.5 35q-50 -1 -142 -107h-22zM354 420q0 -139 49.5 -211t139.5 -72q123 0 191.5 117t68.5 336q0 139 -51.5 210.5t-143.5 71.5q-119 0 -186.5 -116.5t-67.5 -335.5z" />
<glyph unicode="&#xf6;" horiz-adv-x="1128" d="M66 414q0 289 159.5 459.5t431.5 170.5q205 0 322 -111.5t117 -314.5q0 -289 -163 -462.5t-433 -173.5q-201 0 -317.5 114.5t-116.5 317.5zM354 420q0 -139 49.5 -211t139.5 -72q123 0 191.5 117t68.5 336q0 139 -51.5 210.5t-143.5 71.5q-119 0 -186.5 -116.5 t-67.5 -335.5zM356 1272q0 68 43 111.5t111 43.5q51 0 78.5 -28.5t27.5 -77.5q0 -68 -42.5 -112t-110.5 -44q-106 0 -107 107zM711 1272q0 68 44 111.5t109 43.5q51 0 79 -28.5t28 -77.5q0 -68 -43 -112t-111 -44q-51 0 -78.5 29t-27.5 78z" />
<glyph unicode="&#xf7;" horiz-adv-x="999" d="M31 444l51 185q285 -2 461 -2l432 12l10 -25l-45 -188l-448 -2l-449 -2zM309 135q0 76 47 125t121 49q59 0 90 -32.5t31 -88.5q0 -76 -47 -125t-121 -49q-59 0 -90 33t-31 88zM399 862q0 76 46.5 125t121.5 49q59 0 90 -32.5t31 -88.5q0 -76 -47 -125t-123 -49 q-59 0 -89 33t-30 88z" />
<glyph unicode="&#xf8;" horiz-adv-x="1128" d="M66 414q0 289 159.5 459.5t431.5 170.5q92 0 160 -20l105 154l122 -62l3 -22l-95 -140q143 -111 144 -336q0 -289 -163 -462.5t-433 -173.5q-84 0 -162 22l-123 -182l-119 63l-4 17l115 170q-141 115 -141 342zM354 420q0 -68 8 -109l340 537q-39 25 -94 24 q-119 0 -186.5 -116.5t-67.5 -335.5zM446 166q42 -29 97 -29q123 0 191.5 117t68.5 336q0 68 -12 117z" />
<glyph unicode="&#xf9;" horiz-adv-x="1091" d="M106 915l29 115q145 -6 248 -6l203 10l-27 -119q-51 -6 -71.5 -23t-26.5 -58l-68 -463q-4 -20 -4 -60q0 -170 154 -170q176 0 200 189q57 496 58 495q4 53 -3 69.5t-36 16.5l-51 -2l-2 6l28 115q129 -6 191 -6l209 10l-27 -116q-59 -14 -77.5 -27.5t-22.5 -50.5l-60 -482 q-49 -377 -461 -376q-356 0 -356 278q0 31 6 64l62 501q6 53 -2.5 69.5t-38.5 16.5l-51 -2zM373 1296l51 158l27 10q236 -117 456 -213l-26 -96l-29 -18q-233 73 -469 133z" />
<glyph unicode="&#xfa;" horiz-adv-x="1091" d="M106 915l29 115q145 -6 248 -6l203 10l-27 -119q-51 -6 -71.5 -23t-26.5 -58l-68 -463q-4 -20 -4 -60q0 -170 154 -170q176 0 200 189q57 496 58 495q4 53 -3 69.5t-36 16.5l-51 -2l-2 6l28 115q129 -6 191 -6l209 10l-27 -116q-59 -14 -77.5 -27.5t-22.5 -50.5l-60 -482 q-49 -377 -461 -376q-356 0 -356 278q0 31 6 64l62 501q6 53 -2.5 69.5t-38.5 16.5l-51 -2zM420 1251l457 213l26 -10l51 -158l-10 -26q-236 -59 -469 -133l-26 18z" />
<glyph unicode="&#xfb;" horiz-adv-x="1091" d="M106 915l29 115q145 -6 248 -6l203 10l-27 -119q-51 -6 -71.5 -23t-26.5 -58l-68 -463q-4 -20 -4 -60q0 -170 154 -170q176 0 200 189q57 496 58 495q4 53 -3 69.5t-36 16.5l-51 -2l-2 6l28 115q129 -6 191 -6l209 10l-27 -116q-59 -14 -77.5 -27.5t-22.5 -50.5l-60 -482 q-49 -377 -461 -376q-356 0 -356 278q0 31 6 64l62 501q6 53 -2.5 69.5t-38.5 16.5l-51 -2zM346 1249l344 254h41q0 2 53.5 -47t126 -115.5t101.5 -91.5l-60 -84l-34 -8q-14 6 -118 59.5t-118 59.5q-16 -6 -130 -58.5t-136 -60.5l-31 8z" />
<glyph unicode="&#xfc;" horiz-adv-x="1091" d="M106 915l29 115q145 -6 248 -6l203 10l-27 -119q-51 -6 -71.5 -23t-26.5 -58l-68 -463q-4 -20 -4 -60q0 -170 154 -170q176 0 200 189q57 496 58 495q4 53 -3 69.5t-36 16.5l-51 -2l-2 6l28 115q129 -6 191 -6l209 10l-27 -116q-59 -14 -77.5 -27.5t-22.5 -50.5l-60 -482 q-49 -377 -461 -376q-356 0 -356 278q0 31 6 64l62 501q6 53 -2.5 69.5t-38.5 16.5l-51 -2zM375 1272q0 68 43 111.5t110 43.5q51 0 79 -28.5t28 -77.5q0 -68 -43 -112t-111 -44q-106 0 -106 107zM729 1272q0 68 44 111.5t110 43.5q51 0 78.5 -28.5t27.5 -77.5 q0 -68 -42.5 -112t-110.5 -44q-51 0 -79 29t-28 78z" />
<glyph unicode="&#xfd;" horiz-adv-x="1048" d="M72 915l28 113q158 -4 222 -4l270 12l8 -16l-22 -100q-53 -2 -74 -13.5t-21 -36.5q0 -18 86 -301h19l141 242q33 55 33 76q0 31 -74 31l-4 10l25 102q25 0 106.5 -3t122.5 -3l172 6l6 -12l-26 -109q-63 -23 -109.5 -67.5t-108.5 -134.5l-188 -285q-18 -27 -28.5 -59.5 t-13.5 -55t-11 -86.5q-8 -59 5 -81.5t58 -22.5l82 4l6 -8l-28 -121q-203 8 -289 8l-279 -16l27 118q98 10 130 38t42 106l4 43q8 74 -27 157l-126 308q-27 68 -60 101.5t-98 51.5zM410 1251l456 213l27 -10l51 -158l-10 -26q-236 -59 -469 -133l-27 18z" />
<glyph unicode="&#xfe;" horiz-adv-x="985" d="M18 -12l27 112q70 14 95.5 40t33.5 93l76 596q6 49 -3 66.5t-46 17.5l-51 -2l-11 15l25 102q25 0 110.5 -1t128.5 -1l246 10l-24 -116q-63 -10 -84 -23.5t-27 -46.5l-4 -29h121q346 0 346 -250q0 -147 -129 -245.5t-313 -98.5h-115l-6 -45q-4 -43 6 -56t45 -13l78 6 l6 -15l-27 -108q-188 4 -262 4zM440 381q59 -18 125 -23q145 27 146 187q0 133 -189 133q-37 0 -39 -27q-25 -131 -43 -270z" />
<glyph unicode="&#xff;" horiz-adv-x="1048" d="M72 915l28 113q158 -4 222 -4l270 12l8 -16l-22 -100q-53 -2 -74 -13.5t-21 -36.5q0 -18 86 -301h19l141 242q33 55 33 76q0 31 -74 31l-4 10l25 102q25 0 106.5 -3t122.5 -3l172 6l6 -12l-26 -109q-63 -23 -109.5 -67.5t-108.5 -134.5l-188 -285q-18 -27 -28.5 -59.5 t-13.5 -55t-11 -86.5q-8 -59 5 -81.5t58 -22.5l82 4l6 -8l-28 -121q-203 8 -289 8l-279 -16l27 118q98 10 130 38t42 106l4 43q8 74 -27 157l-126 308q-27 68 -60 101.5t-98 51.5zM356 1272q0 68 43 111.5t111 43.5q51 0 78.5 -28.5t27.5 -77.5q0 -68 -42.5 -112t-110.5 -44 q-106 0 -107 107zM711 1272q0 68 44 111.5t109 43.5q51 0 79 -28.5t28 -77.5q0 -68 -43 -112t-111 -44q-51 0 -78.5 29t-27.5 78z" />
<glyph unicode="&#x100;" horiz-adv-x="1243" d="M-80 -6l31 135q88 14 145 137l471 1037l322 34l22 -10q95 -707 158 -1059q12 -74 41 -103.5t94 -37.5l8 -14l-28 -119q-158 6 -244 6l-338 -16l-8 16l24 121q98 8 130 24.5t32 61.5q0 14 -4 59l-18 158q-53 4 -178 4q-96 0 -191 -14l-65 -158q-20 -49 -21 -76 q0 -53 80 -53h86l6 -12l-29 -127q-162 12 -286 12zM461 584h137q55 0 145 8l-57 457h-29zM465 1483l47 155q188 -2 303 -2l252 13l14 -29l-45 -158l-278 -2l-275 -2z" />
<glyph unicode="&#x101;" horiz-adv-x="1085" d="M-45 -4l27 115q70 12 112 100l375 805l311 28l19 -12q84 -569 131 -811q8 -57 31.5 -81.5t70.5 -28.5l8 -13l-24 -102q-131 4 -209 4l-287 -12l-8 12l20 109q80 6 103.5 17t23.5 44q0 27 -2 41l-12 104q-6 0 -66.5 1t-74.5 1q-92 0 -150 -8l-45 -108q-16 -33 -16 -51 q0 -37 59 -37h66l6 -13l-23 -108q-139 8 -241 8zM348 1192l47 156q188 -2 303 -2l252 12l15 -29l-45 -158l-279 -2l-274 -2zM416 463h106q55 0 111 6l-43 332h-27z" />
<glyph unicode="&#x102;" horiz-adv-x="1243" d="M-80 -6l31 135q88 14 145 137l471 1037l322 34l22 -10q95 -707 158 -1059q12 -74 41 -103.5t94 -37.5l8 -14l-28 -119q-158 6 -244 6l-338 -16l-8 16l24 121q98 8 130 24.5t32 61.5q0 14 -4 59l-18 158q-53 4 -178 4q-96 0 -191 -14l-65 -158q-20 -49 -21 -76 q0 -53 80 -53h86l6 -12l-29 -127q-162 12 -286 12zM461 584h137q55 0 145 8l-57 457h-29zM483 1677l68 72l35 6q38 -121 188 -121q154 0 223 121l33 -6l47 -72q-41 -100 -124 -168.5t-201.5 -68.5t-185 68.5t-83.5 168.5z" />
<glyph unicode="&#x103;" horiz-adv-x="1085" d="M-45 -4l27 115q70 12 112 100l375 805l311 28l19 -12q84 -569 131 -811q8 -57 31.5 -81.5t70.5 -28.5l8 -13l-24 -102q-131 4 -209 4l-287 -12l-8 12l20 109q80 6 103.5 17t23.5 44q0 27 -2 41l-12 104q-6 0 -66.5 1t-74.5 1q-92 0 -150 -8l-45 -108q-16 -33 -16 -51 q0 -37 59 -37h66l6 -13l-23 -108q-139 8 -241 8zM365 1376l67 72l35 6q38 -121 188 -121q154 0 224 121l32 -6l47 -72q-41 -100 -123.5 -168.5t-201.5 -68.5t-185.5 68.5t-82.5 168.5zM416 463h106q55 0 111 6l-43 332h-27z" />
<glyph unicode="&#x104;" horiz-adv-x="1243" d="M-80 -6l31 135q88 14 145 137l471 1037l322 34l22 -10q94 -707 158 -1059q12 -74 41 -103.5t94 -37.5l8 -14l-28 -119q-45 2 -97 4q-98 -106 -131.5 -158.5t-33.5 -103.5q0 -37 22.5 -60.5t61.5 -23.5q31 0 67.5 12t58.5 25l21 12l31 -59q-117 -102 -219 -138 q-100 0 -158.5 44t-58.5 122q0 70 51 143.5t168 186.5h-27l-338 -16l-8 16l24 121q98 8 130 24.5t32 61.5q0 14 -4 59l-18 158q-53 4 -178 4q-96 0 -191 -14l-65 -158q-20 -49 -21 -76q0 -53 80 -53h86l6 -12l-29 -127q-162 12 -286 12zM461 584h137q55 0 145 8l-57 457h-29 z" />
<glyph unicode="&#x105;" horiz-adv-x="1085" d="M-45 -4l27 115q70 12 112 100l375 805l311 28l19 -12q84 -569 131 -811q8 -57 31.5 -81.5t70.5 -28.5l8 -13l-24 -102q-33 2 -70 2q-98 -106 -132 -158.5t-34 -103.5q0 -37 22.5 -60.5t61.5 -23.5q31 0 68 12t58 25l22 12l30 -59q-117 -102 -219 -138q-100 0 -158.5 44 t-58.5 122q0 70 51.5 143.5t167.5 186.5h-18l-287 -12l-8 12l20 109q80 6 103.5 17t23.5 44q0 27 -2 41l-12 104q-6 0 -66.5 1t-74.5 1q-92 0 -150 -8l-45 -108q-16 -33 -16 -51q0 -37 59 -37h66l6 -13l-23 -108q-139 8 -241 8zM416 463h106q55 0 111 6l-43 332h-27z" />
<glyph unicode="&#x106;" horiz-adv-x="1216" d="M66 524q0 371 205.5 592t551.5 221q74 0 174.5 -12t164.5 -25l65 -12l8 -26q-61 -170 -100 -385l-199 -13q18 96 18 135q0 145 -202 146q-174 0 -270.5 -150.5t-96.5 -431.5q0 -195 68.5 -297t199.5 -102q106 0 172 65.5t111 216.5l199 15q-59 -211 -86 -379l-21 -25 q-180 -82 -426 -82q-250 0 -393 146.5t-143 402.5zM563 1542l457 213l27 -10l51 -158l-11 -26q-236 -59 -469 -134l-26 19z" />
<glyph unicode="&#x107;" horiz-adv-x="1036" d="M66 416q0 293 165.5 460.5t454.5 167.5q61 0 146.5 -10t139.5 -20l54 -10l10 -23q-51 -137 -84 -313l-188 -13q16 82 16 111q0 106 -153 106q-268 0 -269 -423q0 -297 199 -297q82 0 129 47t80 163l186 13q-45 -172 -65 -309l-19 -21q-153 -63 -358 -63 q-209 0 -326.5 114.5t-117.5 319.5zM406 1251l456 213l27 -10l51 -158l-10 -26q-236 -59 -469 -133l-27 18z" />
<glyph unicode="&#x108;" horiz-adv-x="1216" d="M66 524q0 371 205.5 592t551.5 221q74 0 174.5 -12t164.5 -25l65 -12l8 -26q-61 -170 -100 -385l-199 -13q18 96 18 135q0 145 -202 146q-174 0 -270.5 -150.5t-96.5 -431.5q0 -195 68.5 -297t199.5 -102q106 0 172 65.5t111 216.5l199 15q-59 -211 -86 -379l-21 -25 q-180 -82 -426 -82q-250 0 -393 146.5t-143 402.5zM469 1536q37 31 122 109.5t151 142.5l67 63h41q199 -248 264 -315l-70 -84l-32 -8q-12 10 -105.5 86t-105.5 84q-6 -4 -250 -170l-33 8z" />
<glyph unicode="&#x109;" horiz-adv-x="1036" d="M66 416q0 293 165.5 460.5t454.5 167.5q61 0 146.5 -10t139.5 -20l54 -10l10 -23q-51 -137 -84 -313l-188 -13q16 82 16 111q0 106 -153 106q-268 0 -269 -423q0 -297 199 -297q82 0 129 47t80 163l186 13q-45 -172 -65 -309l-19 -21q-153 -63 -358 -63 q-209 0 -326.5 114.5t-117.5 319.5zM336 1245q37 31 122 110t151 142l67 64h41q199 -248 264 -316l-70 -84l-32 -8q-12 10 -105.5 86t-105.5 84q-6 -4 -250 -170l-33 8z" />
<glyph unicode="&#x10a;" horiz-adv-x="1216" d="M66 524q0 371 205.5 592t551.5 221q74 0 174.5 -12t164.5 -25l65 -12l8 -26q-61 -170 -100 -385l-199 -13q18 96 18 135q0 145 -202 146q-174 0 -270.5 -150.5t-96.5 -431.5q0 -195 68.5 -297t199.5 -102q106 0 172 65.5t111 216.5l199 15q-59 -211 -86 -379l-21 -25 q-180 -82 -426 -82q-250 0 -393 146.5t-143 402.5zM682 1565q0 80 52 132t132 52q59 0 92 -35t33 -92q0 -80 -51 -132t-129 -52q-63 0 -96 33.5t-33 93.5z" />
<glyph unicode="&#x10b;" horiz-adv-x="1036" d="M66 416q0 293 165.5 460.5t454.5 167.5q61 0 146.5 -10t139.5 -20l54 -10l10 -23q-51 -137 -84 -313l-188 -13q16 82 16 111q0 106 -153 106q-268 0 -269 -423q0 -297 199 -297q82 0 129 47t80 163l186 13q-45 -172 -65 -309l-19 -21q-153 -63 -358 -63 q-209 0 -326.5 114.5t-117.5 319.5zM541 1274q0 80 52 132t132 52q59 0 92 -34.5t33 -92.5q0 -80 -51 -132t-129 -52q-63 0 -96 33.5t-33 93.5z" />
<glyph unicode="&#x10c;" horiz-adv-x="1216" d="M66 524q0 371 205.5 592t551.5 221q74 0 174.5 -12t164.5 -25l65 -12l8 -26q-61 -170 -100 -385l-199 -13q18 96 18 135q0 145 -202 146q-174 0 -270.5 -150.5t-96.5 -431.5q0 -195 68.5 -297t199.5 -102q106 0 172 65.5t111 216.5l199 15q-59 -211 -86 -379l-21 -25 q-180 -82 -426 -82q-250 0 -393 146.5t-143 402.5zM504 1679l57 84l35 9q18 -8 119.5 -60.5t115.5 -58.5q16 6 130 58t137 61l30 -9l41 -84l-346 -254h-39q-209 195 -280 254z" />
<glyph unicode="&#x10d;" horiz-adv-x="1036" d="M66 416q0 293 165.5 460.5t454.5 167.5q61 0 146.5 -10t139.5 -20l54 -10l10 -23q-51 -137 -84 -313l-188 -13q16 82 16 111q0 106 -153 106q-268 0 -269 -423q0 -297 199 -297q82 0 129 47t80 163l186 13q-45 -172 -65 -309l-19 -21q-153 -63 -358 -63 q-209 0 -326.5 114.5t-117.5 319.5zM360 1389l58 84l35 8q18 -8 119.5 -60.5t115.5 -58.5q16 6 130 58.5t136 60.5l31 -8l41 -84l-346 -254h-39q-209 195 -281 254z" />
<glyph unicode="&#x10e;" horiz-adv-x="1366" d="M14 -20l31 137q84 14 118 50t46 122l96 782q8 66 -2 88.5t-45 22.5l-68 -4l-8 18l31 123q174 -6 252 -6l297 10q270 0 429 -140.5t159 -387.5q0 -352 -219 -586t-551 -234q-195 25 -308 25q-47 0 -111.5 -5t-105.5 -10zM465 256q0 -63 31.5 -86t115.5 -23 q195 0 307.5 167t112.5 456q0 381 -377 381q-33 0 -45 -10.5t-16 -38.5q-129 -788 -129 -846zM475 1679l57 84l35 9q18 -8 119.5 -60.5t116.5 -58.5q16 6 130 58t136 61l31 -9l41 -84l-346 -254h-39q-209 195 -281 254z" />
<glyph unicode="&#x10f;" horiz-adv-x="1161" d="M23 -16l26 120q68 12 95.5 39t35.5 95l72 587q6 51 -1 68.5t-36 17.5l-55 -4l-8 17l26 106q154 -6 219 -6l248 10q225 0 355 -108.5t130 -302.5q0 -281 -177.5 -461t-456.5 -180q-160 18 -254 18zM344 1389l57 84l35 8q18 -8 119.5 -60.5t116.5 -58.5q16 6 129.5 58.5 t136.5 60.5l31 -8l41 -84l-346 -254h-39q-209 195 -281 254zM418 209q0 -41 22.5 -57.5t81.5 -16.5q147 0 231.5 124t84.5 343q0 143 -67 210t-208 67q-23 0 -33 -8.5t-14 -30.5q-27 -145 -62.5 -376t-35.5 -255z" />
<glyph unicode="&#x110;" horiz-adv-x="1396" d="M33 600l35 123h225l43 348q8 66 -2 88.5t-45 22.5l-68 -4l-8 18l31 123q174 -6 252 -6l297 10q270 0 428.5 -140.5t158.5 -387.5q0 -352 -219 -586t-551 -234q-195 25 -307 25q-47 0 -111.5 -5t-105.5 -10l-41 -5l31 137q84 14 117.5 50t46.5 122l36 297h-229zM496 256 q0 -63 31.5 -86t115.5 -23q195 0 307.5 167t112.5 456q0 381 -377 381q-33 0 -45 -10.5t-16 -38.5q-4 -23 -62 -379l240 4l12 -18l-29 -123h-245q-45 -287 -45 -330z" />
<glyph unicode="&#x111;" horiz-adv-x="1187" d="M41 459l31 108h176l33 258q6 51 -1.5 68.5t-35.5 17.5l-56 -4l-8 17l27 106q154 -6 217 -6l250 10q225 0 355 -108.5t130 -302.5q0 -281 -178 -461t-457 -180q-160 18 -254 18l-219 -16l27 120q68 12 94.5 39t36.5 95l24 208h-180zM446 209q0 -41 23 -57.5t82 -16.5 q147 0 231 124t84 343q0 143 -66.5 210t-207.5 67q-23 0 -34 -8.5t-13 -30.5q-12 -61 -47 -271l178 2l10 -14l-24 -111h-185q-31 -201 -31 -237z" />
<glyph unicode="&#x112;" horiz-adv-x="1181" d="M10 -20l33 137q84 12 118 49t44 125l98 782q8 68 -1 89.5t-48 21.5l-61 -4l-11 18l31 121q217 -6 365 -6q422 0 606 24l12 -20q-57 -180 -90 -371l-184 -12q16 72 16 117q0 61 -45 78.5t-191 17.5q-70 0 -87 -10.5t-25 -57.5l-53 -323q18 0 85.5 -1t98.5 -1l231 16 l13 -16l-50 -174q-158 6 -256 6q-47 0 -151 -13q-47 -322 -47 -340q0 -49 22.5 -62t94.5 -13q182 0 238 39t97 194l170 15l13 -21q-59 -182 -103 -379l-22 -20q-367 14 -613 14q-78 0 -165 -5t-135 -10zM465 1483l47 155q188 -2 303 -2l252 13l14 -29l-45 -158l-278 -2 l-275 -2z" />
<glyph unicode="&#x113;" horiz-adv-x="1013" d="M18 -16l27 118q68 10 95.5 40t35.5 100l76 583q6 51 -2 68.5t-39 17.5l-47 -2l-12 17l26 104q193 -6 324 -6q336 0 499 20l13 -18q-47 -150 -74 -299l-172 -10q14 53 14 86q0 47 -35.5 60.5t-146.5 13.5q-51 0 -65.5 -8.5t-18.5 -41.5l-41 -231h148l186 12l12 -16 l-41 -150q-127 4 -205 4q-59 0 -124 -10q-6 -35 -15.5 -90t-14.5 -91t-5 -54q0 -37 18.5 -48.5t71.5 -11.5q139 0 183 31t75 147l160 13l12 -19q-49 -145 -82 -305l-23 -18q-293 10 -509 10q-68 0 -144 -4t-118 -8zM344 1192l47 156q188 -2 303 -2l252 12l15 -29l-46 -158 l-278 -2l-275 -2z" />
<glyph unicode="&#x114;" horiz-adv-x="1181" d="M10 -20l33 137q84 12 118 49t44 125l98 782q8 68 -1 89.5t-48 21.5l-61 -4l-11 18l31 121q217 -6 365 -6q422 0 606 24l12 -20q-57 -180 -90 -371l-184 -12q16 72 16 117q0 61 -45 78.5t-191 17.5q-70 0 -87 -10.5t-25 -57.5l-53 -323q18 0 85.5 -1t98.5 -1l231 16 l13 -16l-50 -174q-158 6 -256 6q-47 0 -151 -13q-47 -322 -47 -340q0 -49 22.5 -62t94.5 -13q182 0 238 39t97 194l170 15l13 -21q-59 -182 -103 -379l-22 -20q-367 14 -613 14q-78 0 -165 -5t-135 -10zM471 1704l64 70l36 8q37 -140 188.5 -140t221.5 140l37 -8l45 -70 q-41 -109 -125 -182.5t-201 -73.5q-119 0 -184.5 73.5t-81.5 182.5z" />
<glyph unicode="&#x115;" horiz-adv-x="1013" d="M18 -16l27 118q68 10 95.5 40t35.5 100l76 583q6 51 -2 68.5t-39 17.5l-47 -2l-12 17l26 104q193 -6 324 -6q336 0 499 20l13 -18q-47 -150 -74 -299l-172 -10q14 53 14 86q0 47 -35.5 60.5t-146.5 13.5q-51 0 -65.5 -8.5t-18.5 -41.5l-41 -231h148l186 12l12 -16 l-41 -150q-127 4 -205 4q-59 0 -124 -10q-6 -35 -15.5 -90t-14.5 -91t-5 -54q0 -37 18.5 -48.5t71.5 -11.5q139 0 183 31t75 147l160 13l12 -19q-49 -145 -82 -305l-23 -18q-293 10 -509 10q-68 0 -144 -4t-118 -8zM356 1376l68 72l35 6q38 -121 188 -121q154 0 223 121 l33 -6l47 -72q-41 -100 -124 -168.5t-201.5 -68.5t-185 68.5t-83.5 168.5z" />
<glyph unicode="&#x116;" horiz-adv-x="1181" d="M10 -20l33 137q84 12 118 49t44 125l98 782q8 68 -1 89.5t-48 21.5l-61 -4l-11 18l31 121q217 -6 365 -6q422 0 606 24l12 -20q-57 -180 -90 -371l-184 -12q16 72 16 117q0 61 -45 78.5t-191 17.5q-70 0 -87 -10.5t-25 -57.5l-53 -323q18 0 85.5 -1t98.5 -1l231 16 l13 -16l-50 -174q-158 6 -256 6q-47 0 -151 -13q-47 -322 -47 -340q0 -49 22.5 -62t94.5 -13q182 0 238 39t97 194l170 15l13 -21q-59 -182 -103 -379l-22 -20q-367 14 -613 14q-78 0 -165 -5t-135 -10zM621 1565q0 80 52 132t132 52q59 0 92 -35t33 -92q0 -80 -51 -132 t-129 -52q-63 0 -96 33.5t-33 93.5z" />
<glyph unicode="&#x117;" horiz-adv-x="1013" d="M18 -16l27 118q68 10 95.5 40t35.5 100l76 583q6 51 -2 68.5t-39 17.5l-47 -2l-12 17l26 104q193 -6 324 -6q336 0 499 20l13 -18q-47 -150 -74 -299l-172 -10q14 53 14 86q0 47 -35.5 60.5t-146.5 13.5q-51 0 -65.5 -8.5t-18.5 -41.5l-41 -231h148l186 12l12 -16 l-41 -150q-127 4 -205 4q-59 0 -124 -10q-6 -35 -15.5 -90t-14.5 -91t-5 -54q0 -37 18.5 -48.5t71.5 -11.5q139 0 183 31t75 147l160 13l12 -19q-49 -145 -82 -305l-23 -18q-293 10 -509 10q-68 0 -144 -4t-118 -8zM500 1274q0 80 52 132t132 52q59 0 92 -34.5t33 -92.5 q0 -80 -51 -132t-129 -52q-63 0 -96 33.5t-33 93.5z" />
<glyph unicode="&#x118;" horiz-adv-x="1181" d="M10 -20l33 137q84 12 118 49t44 125l98 782q8 68 -1 89.5t-48 21.5l-61 -4l-11 18l31 121q217 -6 365 -6q422 0 606 24l12 -20q-57 -180 -90 -371l-184 -12q16 72 16 117q0 61 -45 78.5t-191 17.5q-70 0 -87 -10.5t-25 -57.5l-53 -323q18 0 85.5 -1t98.5 -1l231 16 l13 -16l-50 -174q-158 6 -256 6q-47 0 -151 -13q-47 -322 -47 -340q0 -49 22.5 -62t94.5 -13q182 0 238 39t97 194l170 15l13 -21q-59 -182 -103 -379l-22 -20q-31 2 -80 4q-92 -100 -124 -151.5t-32 -100.5q0 -37 22.5 -60.5t61.5 -23.5q31 0 68 12t58 25l22 12l30 -59 q-117 -102 -219 -138q-100 0 -158.5 44t-58.5 122q0 70 49 142.5t160 179.5q-188 6 -412 6q-78 0 -165 -5t-135 -10z" />
<glyph unicode="&#x119;" horiz-adv-x="1013" d="M18 -16l27 118q68 10 95.5 40t35.5 100l76 583q6 51 -2 68.5t-39 17.5l-47 -2l-12 17l26 104q193 -6 324 -6q336 0 499 20l13 -18q-47 -150 -74 -299l-172 -10q14 53 14 86q0 47 -35.5 60.5t-146.5 13.5q-51 0 -65.5 -8.5t-18.5 -41.5l-41 -231h148l186 12l12 -16 l-41 -150q-127 4 -205 4q-59 0 -124 -10q-6 -35 -15.5 -90t-14.5 -91t-5 -54q0 -37 18.5 -48.5t71.5 -11.5q139 0 183 31t75 147l160 13l12 -19q-49 -145 -82 -305l-23 -18q-20 2 -53 2q-94 -100 -125.5 -152.5t-31.5 -101.5q0 -37 22.5 -60.5t61.5 -23.5q31 0 67.5 12 t57.5 25l22 12l31 -59q-117 -102 -219 -138q-100 0 -159 44t-59 122q0 70 50.5 142.5t162.5 181.5q-201 4 -337 4q-68 0 -144 -4t-118 -8z" />
<glyph unicode="&#x11a;" horiz-adv-x="1181" d="M10 -20l33 137q84 12 118 49t44 125l98 782q8 68 -1 89.5t-48 21.5l-61 -4l-11 18l31 121q217 -6 365 -6q422 0 606 24l12 -20q-57 -180 -90 -371l-184 -12q16 72 16 117q0 61 -45 78.5t-191 17.5q-70 0 -87 -10.5t-25 -57.5l-53 -323q18 0 85.5 -1t98.5 -1l231 16 l13 -16l-50 -174q-158 6 -256 6q-47 0 -151 -13q-47 -322 -47 -340q0 -49 22.5 -62t94.5 -13q182 0 238 39t97 194l170 15l13 -21q-59 -182 -103 -379l-22 -20q-367 14 -613 14q-78 0 -165 -5t-135 -10zM453 1679l57 84l35 9q18 -8 119.5 -60.5t115.5 -58.5q16 6 130 58 t137 61l30 -9l41 -84l-346 -254h-39q-209 195 -280 254z" />
<glyph unicode="&#x11b;" horiz-adv-x="1013" d="M18 -16l27 118q68 10 95.5 40t35.5 100l76 583q6 51 -2 68.5t-39 17.5l-47 -2l-12 17l26 104q193 -6 324 -6q336 0 499 20l13 -18q-47 -150 -74 -299l-172 -10q14 53 14 86q0 47 -35.5 60.5t-146.5 13.5q-51 0 -65.5 -8.5t-18.5 -41.5l-41 -231h148l186 12l12 -16 l-41 -150q-127 4 -205 4q-59 0 -124 -10q-6 -35 -15.5 -90t-14.5 -91t-5 -54q0 -37 18.5 -48.5t71.5 -11.5q139 0 183 31t75 147l160 13l12 -19q-49 -145 -82 -305l-23 -18q-293 10 -509 10q-68 0 -144 -4t-118 -8zM328 1389l57 84l35 8q18 -8 119.5 -60.5t115.5 -58.5 q16 6 130 58.5t137 60.5l30 -8l41 -84l-346 -254h-39q-209 195 -280 254z" />
<glyph unicode="&#x11c;" horiz-adv-x="1288" d="M66 524q0 371 205.5 592t551.5 221q74 0 174.5 -12t164.5 -25l65 -12l8 -26q-61 -156 -100 -371l-199 -14q18 88 18 127q0 141 -202 141q-174 0 -270.5 -150.5t-96.5 -431.5q0 -195 68.5 -297t199.5 -102q51 0 101.5 13t73.5 27l24 13l22 195q6 59 -8 78.5t-65 19.5h-103 l-8 16l39 144h9q9 0 25.5 -1t38.5 -1h48q27 0 52.5 -1t53.5 -1h50q37 0 85 2t78.5 4t30.5 4l4 -78q-72 -45 -90 -168q-35 -178 -35 -278l2 -68l-20 -25q-20 -10 -56 -23t-156 -37t-247 -24q-250 0 -393 146.5t-143 402.5zM463 1536q37 31 122 109.5t151 142.5l67 63h41 q199 -248 264 -315l-70 -84l-32 -8q-12 10 -105.5 86t-105.5 84q-6 -4 -250 -170l-33 8z" />
<glyph unicode="&#x11d;" horiz-adv-x="1095" d="M68 410q0 295 167.5 464.5t456.5 169.5q61 0 146.5 -10t139.5 -20l54 -10l10 -23q-51 -123 -86 -297l-186 -12q18 70 18 100q0 102 -157 102q-131 0 -202 -110.5t-71 -327.5q0 -289 199 -289q39 0 76 9.5t54 18.5l18 9l18 138q4 45 -7 59t-50 14h-76l-10 17l34 120h234 q164 0 164 9l4 -72q-61 -35 -76 -127q-29 -158 -29 -223v-56l-18 -20q-141 -61 -385 -61q-207 0 -323.5 112.5t-116.5 315.5zM336 1245q37 31 122 110t151 142l67 64h41q199 -248 264 -316l-70 -84l-32 -8q-12 10 -105.5 86t-105.5 84q-6 -4 -250 -170l-33 8z" />
<glyph unicode="&#x11e;" horiz-adv-x="1288" d="M66 524q0 371 205.5 592t551.5 221q74 0 174.5 -12t164.5 -25l65 -12l8 -26q-61 -156 -100 -371l-199 -14q18 88 18 127q0 141 -202 141q-174 0 -270.5 -150.5t-96.5 -431.5q0 -195 68.5 -297t199.5 -102q51 0 101.5 13t73.5 27l24 13l22 195q6 59 -8 78.5t-65 19.5h-103 l-8 16l39 144h9q9 0 25.5 -1t38.5 -1h48q27 0 52.5 -1t53.5 -1h50q37 0 85 2t78.5 4t30.5 4l4 -78q-72 -45 -90 -168q-35 -178 -35 -278l2 -68l-20 -25q-20 -10 -56 -23t-156 -37t-247 -24q-250 0 -393 146.5t-143 402.5zM524 1700l68 72l35 6q38 -121 188 -121 q154 0 223 121l33 -6l47 -72q-41 -100 -124 -169t-201.5 -69t-185 68.5t-83.5 169.5z" />
<glyph unicode="&#x11f;" horiz-adv-x="1095" d="M68 410q0 295 167.5 464.5t456.5 169.5q61 0 146.5 -10t139.5 -20l54 -10l10 -23q-51 -123 -86 -297l-186 -12q18 70 18 100q0 102 -157 102q-131 0 -202 -110.5t-71 -327.5q0 -289 199 -289q39 0 76 9.5t54 18.5l18 9l18 138q4 45 -7 59t-50 14h-76l-10 17l34 120h234 q164 0 164 9l4 -72q-61 -35 -76 -127q-29 -158 -29 -223v-56l-18 -20q-141 -61 -385 -61q-207 0 -323.5 112.5t-116.5 315.5zM387 1386l68 72l34 6q39 -121 189 -121q154 0 223 121l33 -6l47 -72q-41 -100 -124 -168.5t-201.5 -68.5t-185.5 68.5t-83 168.5z" />
<glyph unicode="&#x120;" horiz-adv-x="1288" d="M66 524q0 371 205.5 592t551.5 221q74 0 174.5 -12t164.5 -25l65 -12l8 -26q-61 -156 -100 -371l-199 -14q18 88 18 127q0 141 -202 141q-174 0 -270.5 -150.5t-96.5 -431.5q0 -195 68.5 -297t199.5 -102q51 0 101.5 13t73.5 27l24 13l22 195q6 59 -8 78.5t-65 19.5h-103 l-8 16l39 144h9q9 0 25.5 -1t38.5 -1h48q27 0 52.5 -1t53.5 -1h50q37 0 85 2t78.5 4t30.5 4l4 -78q-72 -45 -90 -168q-35 -178 -35 -278l2 -68l-20 -25q-20 -10 -56 -23t-156 -37t-247 -24q-250 0 -393 146.5t-143 402.5zM676 1565q0 80 52 132t132 52q59 0 92 -35t33 -92 q0 -80 -51 -132t-129 -52q-63 0 -96 33.5t-33 93.5z" />
<glyph unicode="&#x121;" horiz-adv-x="1095" d="M68 410q0 295 167.5 464.5t456.5 169.5q61 0 146.5 -10t139.5 -20l54 -10l10 -23q-51 -123 -86 -297l-186 -12q18 70 18 100q0 102 -157 102q-131 0 -202 -110.5t-71 -327.5q0 -289 199 -289q39 0 76 9.5t54 18.5l18 9l18 138q4 45 -7 59t-50 14h-76l-10 17l34 120h234 q164 0 164 9l4 -72q-61 -35 -76 -127q-29 -158 -29 -223v-56l-18 -20q-141 -61 -385 -61q-207 0 -323.5 112.5t-116.5 315.5zM541 1274q0 80 52 132t132 52q59 0 92 -34.5t33 -92.5q0 -80 -51 -132t-129 -52q-63 0 -96 33.5t-33 93.5z" />
<glyph unicode="&#x122;" horiz-adv-x="1288" d="M66 524q0 371 205.5 592t551.5 221q74 0 174.5 -12t164.5 -25l65 -12l8 -26q-61 -156 -100 -371l-199 -14q18 88 18 127q0 141 -202 141q-174 0 -270.5 -150.5t-96.5 -431.5q0 -195 68.5 -297t199.5 -102q51 0 101.5 13t73.5 27l24 13l22 195q6 59 -8 78.5t-65 19.5h-103 l-8 16l39 144h9q9 0 25.5 -1t38.5 -1h48q27 0 52.5 -1t53.5 -1h50q37 0 85 2t78.5 4t30.5 4l4 -78q-72 -45 -90 -168q-35 -178 -35 -278l2 -68l-20 -25q-20 -10 -56 -23t-156 -37t-247 -24q-250 0 -393 146.5t-143 402.5zM354 -555q61 43 100.5 100.5t39.5 108.5 q0 84 -72 141l6 29q90 72 162 72q61 0 101 -48.5t40 -128.5q0 -102 -85 -200.5t-216 -169.5l-76 61v35z" />
<glyph unicode="&#x123;" horiz-adv-x="1095" d="M68 410q0 295 167.5 464.5t456.5 169.5q61 0 146.5 -10t139.5 -20l54 -10l10 -23q-51 -123 -86 -297l-186 -12q18 70 18 100q0 102 -157 102q-131 0 -202 -110.5t-71 -327.5q0 -289 199 -289q39 0 76 9.5t54 18.5l18 9l18 138q4 45 -7 59t-50 14h-76l-10 17l34 120h234 q164 0 164 9l4 -72q-61 -35 -76 -127q-29 -158 -29 -223v-56l-18 -20q-141 -61 -385 -61q-207 0 -323.5 112.5t-116.5 315.5zM285 -555q61 43 100 100.5t39 108.5q0 84 -72 141l6 29q90 72 162 72q61 0 101.5 -48.5t40.5 -128.5q0 -102 -85 -200.5t-217 -169.5l-75 61v35z " />
<glyph unicode="&#x124;" horiz-adv-x="1474" d="M12 -18l31 131q94 20 125 58t43 148l92 758q8 66 -3 86.5t-54 20.5l-60 -2l-8 16l29 119q156 -4 237 -4l301 16l-26 -135q-76 -12 -99.5 -38t-35.5 -109l-49 -295q86 0 249 -4q123 0 232 14l41 315q8 61 -4.5 84t-53.5 23l-61 -2l-8 16l31 119q-2 0 54 -1t125.5 -2 t98.5 -1l266 16l-24 -133q-74 -10 -101 -32t-37 -81q-39 -221 -82.5 -512.5t-43.5 -349.5q0 -51 15 -70.5t52 -19.5l74 6q0 -2 3 -6t5 -8l-33 -129q-137 6 -243 6h-82l-242 -4l33 133q82 2 115.5 40t48.5 148l32 265q-139 2 -211 2l-278 -21l-29 -225q-18 -121 -14 -150 q2 -33 15.5 -45t45.5 -12l72 6l8 -14l-33 -129q-168 6 -241 6q-57 0 -133 -3t-130.5 -8t-54.5 -7zM551 1589q37 31 122 110t151 142l67 64h41q199 -248 264 -316l-70 -84l-32 -8q-12 10 -105.5 86t-105.5 84q-6 -4 -250 -170l-33 8z" />
<glyph unicode="&#x125;" horiz-adv-x="1251" d="M20 -12l25 112q76 14 100.5 43t34.5 109l72 577q6 51 -4 66.5t-45 15.5h-47l-9 15l25 102q131 -4 199 -4l270 12l-23 -116q-59 -8 -78.5 -28t-29.5 -79l-37 -217q61 0 189 -4q84 0 176 10l30 227q6 49 -4 65.5t-45 16.5h-49l-8 15l24 102q4 -4 252 -4q227 12 228 12 l-23 -114q-61 -10 -83 -26.5t-30 -61.5q-96 -553 -96 -650q0 -70 58 -69l55 4l8 -13l-29 -110q-106 4 -200 4h-70q-29 0 -89 -1t-89 -1h-41l27 113q66 2 94 31.5t37 109.5l24 192h-153l-217 -14l-23 -172q-12 -74 -10 -98q2 -27 13 -37t36 -10l57 4l8 -13l-28 -108 q-154 4 -217 4q-45 0 -109.5 -3t-108.5 -5t-47 -4zM403 1298q37 31 122 110t152 142l66 64h41q199 -248 265 -316l-70 -84l-33 -8q-12 10 -105 86t-106 84q-6 -4 -250 -170l-32 8z" />
<glyph unicode="&#x126;" horiz-adv-x="1474" d="M12 -18l31 131q94 20 125 58t43 148l72 586h-185l-20 21l16 98q88 -2 203 -2l6 55q8 66 -3 86.5t-54 20.5l-60 -2l-8 16l29 119q156 -4 237 -4l301 16l-26 -135q-76 -12 -99.5 -38t-35.5 -109l-4 -25h276h193l8 55q8 61 -4.5 84t-53.5 23l-61 -2l-8 16l31 119q-2 0 54 -1 t125.5 -2t98.5 -1l266 16l-24 -133q-74 -10 -101 -32t-37 -81l-10 -55l166 4l29 -28l-10 -95h-205q-96 -590 -96 -688q0 -51 15 -70.5t52 -19.5l74 6q0 -2 3 -6t5 -8l-33 -129q-137 6 -243 6h-82l-242 -4l33 133q82 2 115.5 40t48.5 148l32 265q-139 2 -211 2l-278 -21 l-29 -225q-18 -121 -14 -150q2 -33 15.5 -45t45.5 -12l72 6l8 -14l-33 -129q-168 6 -241 6q-57 0 -133 -3t-130.5 -8t-54.5 -7zM535 752q86 0 249 -4q123 0 232 14l18 145h-227h-248z" />
<glyph unicode="&#x127;" horiz-adv-x="1251" d="M20 -12l25 112q76 14 100.5 43t34.5 109l56 450h-150l-16 15l12 82q72 -2 166 -2l4 32q6 51 -4 66.5t-45 15.5h-47l-9 15l25 102q131 -4 199 -4l270 12l-23 -116q-59 -8 -78.5 -28t-29.5 -79l-4 -16h215h143l4 32q6 49 -4 65.5t-45 16.5h-49l-8 15l24 102q4 -4 252 -4 q227 12 228 12l-23 -114q-61 -10 -83 -26.5t-30 -61.5l-6 -33l133 4l25 -23l-6 -75h-168q-74 -453 -74 -522.5t58 -69.5l55 4l8 -13l-29 -110q-106 4 -200 4h-70q-29 0 -89 -1t-89 -1h-41l27 113q66 2 94 31.5t37 109.5l24 192h-153l-217 -14l-23 -172q-12 -74 -10 -98 q2 -27 13 -37t36 -10l57 4l8 -13l-28 -108q-154 4 -217 4q-45 0 -109.5 -3t-108.5 -5t-47 -4zM473 596q61 0 189 -4q84 0 176 10l14 103h-172h-188z" />
<glyph unicode="&#x128;" horiz-adv-x="722" d="M10 -18l31 131q88 18 122 53t44 119l96 792q8 63 -3 85t-54 22l-68 -2l-8 16l29 119q23 0 123 -2t153 -2l285 16l-29 -135q-76 -10 -103.5 -32t-37.5 -79q-129 -748 -129 -870q0 -47 14 -64.5t49 -17.5l86 6l6 -14l-32 -129q-205 6 -293 6q-49 0 -120 -4t-116 -9z M131 1536l2 23l180 206l33 9q35 0 149.5 -34t141.5 -34q20 0 55 28.5t61 57.5l25 29h23l73 -76l-4 -21l-180 -208l-33 -9q-35 0 -148.5 35t-139.5 35q-23 0 -59 -28.5t-60 -57.5l-25 -29h-22z" />
<glyph unicode="&#x129;" horiz-adv-x="634" d="M20 -12l25 112q72 14 98.5 41t32.5 92l76 596q6 49 -4 65.5t-45 16.5h-53q-6 12 -7 15l23 102q25 0 109.5 -2t127.5 -2l248 12l-24 -116q-61 -8 -82 -24.5t-29 -61.5q-100 -541 -100 -658q0 -37 11 -50t38 -13l67 4l7 -13l-29 -108q-176 4 -250 4zM55 1245l2 23l181 207 l32 8q35 0 150 -34t141 -34q20 0 55 29t61 57l25 29h23l74 -76l-4 -20l-181 -209l-32 -8q-35 0 -149 34.5t-140 34.5q-23 0 -58.5 -28.5t-60.5 -57.5l-24 -29h-23z" />
<glyph unicode="&#x12a;" horiz-adv-x="722" d="M10 -18l31 131q88 18 122 53t44 119l96 792q8 63 -3 85t-54 22l-68 -2l-8 16l29 119q23 0 123 -2t153 -2l285 16l-29 -135q-76 -10 -103.5 -32t-37.5 -79q-129 -748 -129 -870q0 -47 14 -64.5t49 -17.5l86 6l6 -14l-32 -129q-205 6 -293 6q-49 0 -120 -4t-116 -9z M195 1483l47 155q188 -2 303 -2l252 13l14 -29l-45 -158l-279 -2l-274 -2z" />
<glyph unicode="&#x12b;" horiz-adv-x="634" d="M20 -12l25 112q72 14 98.5 41t32.5 92l76 596q6 49 -4 65.5t-45 16.5h-53q-6 12 -7 15l23 102q25 0 109.5 -2t127.5 -2l248 12l-24 -116q-61 -8 -82 -24.5t-29 -61.5q-100 -541 -100 -658q0 -37 11 -50t38 -13l67 4l7 -13l-29 -108q-176 4 -250 4zM119 1192l47 156 q188 -2 303 -2l252 12l14 -29l-45 -158l-278 -2l-275 -2z" />
<glyph unicode="&#x12c;" horiz-adv-x="722" d="M10 -18l31 131q88 18 122 53t44 119l96 792q8 63 -3 85t-54 22l-68 -2l-8 16l29 119q23 0 123 -2t153 -2l285 16l-29 -135q-76 -10 -103.5 -32t-37.5 -79q-129 -748 -129 -870q0 -47 14 -64.5t49 -17.5l86 6l6 -14l-32 -129q-205 6 -293 6q-49 0 -120 -4t-116 -9z M211 1688l68 71l34 6q39 -120 189 -120q154 0 223 120l33 -6l47 -71q-41 -100 -124 -169t-202 -69t-185.5 68.5t-82.5 169.5z" />
<glyph unicode="&#x12d;" horiz-adv-x="634" d="M20 -12l25 112q72 14 98.5 41t32.5 92l76 596q6 49 -4 65.5t-45 16.5h-53q-6 12 -7 15l23 102q25 0 109.5 -2t127.5 -2l248 12l-24 -116q-61 -8 -82 -24.5t-29 -61.5q-100 -541 -100 -658q0 -37 11 -50t38 -13l67 4l7 -13l-29 -108q-176 4 -250 4zM133 1376l68 72l35 6 q38 -121 188 -121q154 0 223 121l33 -6l47 -72q-41 -100 -124 -168.5t-201.5 -68.5t-185 68.5t-83.5 168.5z" />
<glyph unicode="&#x12e;" horiz-adv-x="722" d="M10 -18l31 131q88 18 122 53t44 119l96 792q8 63 -3 85t-54 22l-68 -2l-8 16l29 119q23 0 123 -2t153 -2l285 16l-29 -135q-76 -10 -103.5 -31.5t-37.5 -79.5q-129 -748 -129 -870q0 -47 14 -64.5t49 -17.5l86 6l6 -14l-32 -129q-41 2 -90 4q-98 -106 -131 -158.5 t-33 -103.5q0 -37 22.5 -60.5t61.5 -23.5q31 0 67.5 12t58.5 25l21 12l31 -59q-117 -102 -219 -138q-100 0 -158.5 44t-58.5 122q0 70 51 143.5t168 186.5h-84q-49 0 -120 -4t-116 -9z" />
<glyph unicode="&#x12f;" horiz-adv-x="634" d="M20 -12l25 112q72 14 98.5 41t32.5 92l76 596q6 49 -4 65.5t-45 16.5h-53q-6 12 -7 15l23 102q25 0 109.5 -2t127.5 -2l248 12l-24 -116q-61 -8 -82 -24.5t-29 -61.5q-100 -541 -100 -658q0 -37 11 -50t38 -13l67 4l7 -13l-29 -108q-29 2 -61 2q-100 -106 -135 -160.5 t-35 -105.5q0 -35 22.5 -58.5t58.5 -23.5q29 0 66 11t58 24l22 12l31 -57q-115 -100 -218 -136q-98 0 -155.5 43t-57.5 121q0 72 52.5 146.5t173.5 185.5h-72z" />
<glyph unicode="&#x130;" horiz-adv-x="722" d="M10 -18l31 131q88 18 122 53t44 119l96 792q8 63 -3 85t-54 22l-68 -2l-8 16l29 119q23 0 123 -2t153 -2l285 16l-29 -135q-76 -10 -103.5 -32t-37.5 -79q-129 -748 -129 -870q0 -47 14 -64.5t49 -17.5l86 6l6 -14l-32 -129q-205 6 -293 6q-49 0 -120 -4t-116 -9z M350 1565q0 80 52.5 132t132.5 52q59 0 91.5 -35t32.5 -92q0 -80 -51 -132t-129 -52q-63 0 -96 33.5t-33 93.5z" />
<glyph unicode="&#x131;" horiz-adv-x="634" d="M20 -12l25 112q72 14 98.5 41t32.5 92l76 596q6 49 -4 65.5t-45 16.5h-53q-6 12 -7 15l23 102q25 0 109.5 -2t127.5 -2l248 12l-24 -116q-61 -8 -82 -24.5t-29 -61.5q-100 -541 -100 -658q0 -37 11 -50t38 -13l67 4l7 -13l-29 -108q-176 4 -250 4z" />
<glyph unicode="&#x132;" horiz-adv-x="1378" d="M10 -18l31 131q88 18 122 53t44 119l96 792q8 63 -3 85t-54 22l-68 -2l-8 16l29 119q23 0 123 -2t153 -2l285 16l-29 -135q-76 -10 -103.5 -32t-37.5 -79q-129 -748 -129 -870q0 -47 14 -64.5t49 -17.5l86 6l6 -14l-32 -129q-205 6 -293 6q-49 0 -120 -4t-116 -9z M637 -231l8 22q131 84 183 177.5t77 283.5l103 825q8 66 -2.5 86.5t-51.5 20.5l-86 -6l-6 16l29 119l246 2q61 0 137 4t121 8l45 4l-29 -137q-66 -12 -86 -31.5t-31 -79.5q-80 -457 -131 -874q-27 -205 -141.5 -329t-337.5 -193z" />
<glyph unicode="&#x133;" horiz-adv-x="1181" d="M20 -12l25 112q72 14 98.5 41t32.5 92l76 596q6 49 -4 65.5t-45 16.5h-53q-6 12 -7 15l23 102q25 0 109.5 -2t127.5 -2l248 12l-24 -116q-61 -8 -82 -24.5t-29 -61.5q-100 -541 -100 -658q0 -37 11 -50t38 -13l67 4l7 -13l-29 -108q-176 4 -250 4zM602 -182l6 20 q109 68 151 139.5t62 223.5l78 628q6 51 -2 67.5t-41 16.5l-68 -6l-8 17l25 100l211 2l266 12l-25 -118q-53 -10 -69.5 -24.5t-24.5 -61.5q-49 -268 -104 -678q-20 -158 -118.5 -255.5t-293.5 -150.5z" />
<glyph unicode="&#x134;" horiz-adv-x="657" d="M-86 -231l8 22q131 84 183 177.5t77 283.5l103 825q8 66 -3.5 86.5t-50.5 20.5l-86 -6l-6 16l29 119l246 2q61 0 137 4t121 8l45 4l-29 -137q-66 -12 -86 -31.5t-31 -79.5q-80 -457 -131 -874q-27 -205 -141.5 -329t-337.5 -193zM162 1536q37 31 122 109.5t151 142.5 l67 63h41q199 -248 264 -315l-70 -84l-32 -8q-12 10 -105.5 86t-105.5 84q-6 -4 -250 -170l-33 8z" />
<glyph unicode="&#x135;" horiz-adv-x="581" d="M-61 -182l6 20q109 68 151 139.5t62 223.5l78 628q6 51 -2.5 67.5t-40.5 16.5l-68 -6l-8 17l24 100l211 2l266 12l-24 -118q-53 -10 -69.5 -24.5t-24.5 -61.5q-49 -268 -105 -678q-20 -158 -118.5 -255.5t-292.5 -150.5zM88 1245q37 31 122 110t151 142l67 64h41 q199 -248 264 -316l-69 -84l-33 -8q-12 10 -105.5 86t-105.5 84q-6 -4 -250 -170l-33 8z" />
<glyph unicode="&#x136;" horiz-adv-x="1308" d="M12 -6l35 129q88 14 119 45t41 117l96 792q8 66 -3 86.5t-54 20.5l-60 -2l-8 16l31 121q211 -6 266 -6l277 16l-27 -135q-76 -14 -104.5 -39t-36.5 -80l-119 -805q-10 -82 1 -110.5t58 -28.5l78 6l8 -14l-35 -129q-199 6 -284 6zM379 -555q61 43 100 100.5t39 108.5 q0 84 -72 141l7 29q90 72 161 72q61 0 101.5 -48.5t40.5 -128.5q0 -102 -85 -200.5t-216 -169.5l-76 61v35zM551 647l10 43l322 324q72 72 71 116q0 49 -94 56l-6 14l31 125q166 -12 248 -12l233 10l10 -23l-28 -114q-70 -27 -125.5 -71t-145.5 -140l-250 -264l209 -414 q47 -94 92.5 -135t108.5 -45l12 -17l-28 -106q-201 -25 -236 -25q-117 0 -199 172z" />
<glyph unicode="&#x137;" horiz-adv-x="1128" d="M20 -4l29 108q72 12 96.5 36.5t30.5 92.5l76 596q6 51 -4 66.5t-45 15.5h-47l-9 15l27 102q188 -4 229 -4l244 12l-24 -116q-63 -14 -86 -33t-27 -60l-90 -604q-8 -66 1 -88t44 -22l61 4l11 -13l-29 -108q-176 4 -248 4zM315 -555q61 43 100.5 100.5t39.5 108.5 q0 84 -72 141l6 29q90 72 162 72q61 0 101 -48.5t40 -128.5q0 -102 -85 -200.5t-216 -169.5l-76 61v35zM481 504l11 39l245 235q59 55 59.5 92t-73.5 43l-6 13l24 106q143 -8 213 -8l205 8l8 -18l-24 -99q-59 -27 -108.5 -64.5t-119.5 -111.5l-176 -182l158 -311 q37 -72 73 -103.5t87 -38.5l12 -16l-27 -94q-176 -18 -208 -19q-55 0 -93.5 31t-70.5 103z" />
<glyph unicode="&#x138;" horiz-adv-x="1128" d="M20 -4l29 108q72 12 96.5 36.5t30.5 92.5l76 596q6 51 -4 66.5t-45 15.5h-47l-9 15l27 102q188 -4 229 -4l244 12l-24 -116q-63 -14 -86 -33t-27 -60l-90 -604q-8 -66 1 -88t44 -22l61 4l11 -13l-29 -108q-176 4 -248 4zM481 504l11 39l245 235q59 55 59.5 92t-73.5 43 l-6 13l24 106q143 -8 213 -8l205 8l8 -18l-24 -99q-59 -27 -108.5 -64.5t-119.5 -111.5l-176 -182l158 -311q37 -72 73 -103.5t87 -38.5l12 -16l-27 -94q-176 -18 -208 -19q-55 0 -93.5 31t-70.5 103z" />
<glyph unicode="&#x139;" horiz-adv-x="1052" d="M20 -20l33 137q78 12 110 49t42 125l98 786q8 63 -4 85t-55 22l-60 -2l-8 16l31 119q20 0 119.5 -2t148.5 -2l309 16l-30 -141q-96 -12 -126 -38t-46 -116q-31 -164 -74 -451.5t-43 -340.5q0 -49 22.5 -66.5t85.5 -17.5q139 0 192.5 56t98.5 253l172 16l13 -18 q-59 -221 -111 -461l-23 -20q-317 16 -550 16q-78 0 -164 -5t-133 -10zM293 1542l457 213l26 -10l51 -158l-10 -26q-236 -59 -469 -134l-26 19z" />
<glyph unicode="&#x13a;" horiz-adv-x="917" d="M25 -16l28 118q63 10 89 40t34 100l74 587q6 51 -4 66.5t-45 15.5h-47l-9 15l25 102q25 0 108.5 -2t124.5 -2l277 12l-27 -125q-82 -10 -107.5 -28.5t-37.5 -77.5q-90 -489 -90 -602q0 -35 17.5 -48.5t64.5 -13.5q106 0 148 45t77 201l160 16l10 -16q-47 -182 -88 -381 l-21 -18q-257 12 -462 12q-68 0 -143 -4t-115 -8zM190 1251l457 213l27 -10l51 -158l-10 -26q-236 -59 -469 -133l-27 18z" />
<glyph unicode="&#x13b;" horiz-adv-x="1052" d="M20 -20l33 137q78 12 110 49t42 125l98 786q8 63 -4 85t-55 22l-60 -2l-8 16l31 119q20 0 119.5 -2t148.5 -2l309 16l-30 -141q-96 -12 -126 -38t-46 -116q-31 -164 -74 -451.5t-43 -340.5q0 -49 22.5 -66.5t85.5 -17.5q139 0 192.5 56t98.5 253l172 16l13 -18 q-59 -221 -111 -461l-23 -20q-317 16 -550 16q-78 0 -164 -5t-133 -10zM264 -555q61 43 100 100.5t39 108.5q1 84 -71 141l6 29q90 72 162 72q61 0 101 -48.5t40 -128.5q0 -102 -85 -200.5t-216 -169.5l-76 61v35z" />
<glyph unicode="&#x13c;" horiz-adv-x="917" d="M25 -16l28 118q63 10 89 40t34 100l74 587q6 51 -4 66.5t-45 15.5h-47l-9 15l25 102q25 0 108.5 -2t124.5 -2l277 12l-27 -125q-82 -10 -107.5 -28.5t-37.5 -77.5q-90 -489 -90 -602q0 -35 17.5 -48.5t64.5 -13.5q106 0 148 45t77 201l160 16l10 -16q-47 -182 -88 -381 l-21 -18q-257 12 -462 12q-68 0 -143 -4t-115 -8zM209 -555q61 43 100 100.5t39 108.5q0 84 -72 141l7 29q90 72 161 72q61 0 101.5 -48.5t40.5 -128.5q0 -102 -85 -200.5t-216 -169.5l-76 61v35z" />
<glyph unicode="&#x13d;" horiz-adv-x="1091" d="M20 -20l33 137q78 12 110 49t42 125l98 786q8 63 -4 85t-55 22l-60 -2l-8 16l31 119q20 0 119.5 -2t148.5 -2l309 16l-30 -141q-96 -12 -126 -38t-46 -116q-31 -164 -74 -451.5t-43 -340.5q0 -49 22.5 -66.5t85.5 -17.5q139 0 192.5 56t98.5 253l172 16l13 -18 q-59 -221 -111 -461l-23 -20q-317 16 -550 16q-78 0 -164 -5t-133 -10zM915 1282l205 29l17 -21q-31 -223 -78 -442l-98 -39l-31 8q2 104 -1 220t-8 181z" />
<glyph unicode="&#x13e;" horiz-adv-x="972" d="M25 -16l28 118q63 10 89 40t34 100l74 587q6 51 -4 66.5t-45 15.5h-47l-9 15l25 102q25 0 108.5 -2t124.5 -2l277 12l-27 -125q-82 -10 -107.5 -28.5t-37.5 -77.5q-90 -489 -90 -602q0 -35 17.5 -48.5t64.5 -13.5q106 0 148 45t77 201l160 16l10 -16q-47 -182 -88 -381 l-21 -18q-257 12 -462 12q-68 0 -143 -4t-115 -8zM776 1001l185 23l12 -16q-23 -174 -64 -346l-90 -35l-26 8q0 82 -4.5 173t-8.5 142z" />
<glyph unicode="&#x13f;" horiz-adv-x="1112" d="M20 -20l33 137q78 12 110 49t42 125l98 786q8 63 -4 85t-55 22l-60 -2l-8 16l31 119q20 0 119.5 -2t148.5 -2l309 16l-30 -141q-96 -12 -126 -38t-46 -116q-31 -164 -74 -451.5t-43 -340.5q0 -49 22.5 -66.5t85.5 -17.5q139 0 192.5 56t98.5 253l172 16l13 -18 q-59 -221 -111 -461l-23 -20q-317 16 -550 16q-78 0 -164 -5t-133 -10zM821 944q0 82 51.5 136.5t133.5 54.5q63 0 98 -36t35 -98q0 -84 -52.5 -137t-134.5 -53q-66 0 -98.5 36t-32.5 97z" />
<glyph unicode="&#x140;" horiz-adv-x="1021" d="M25 -16l28 118q63 10 89 40t34 100l74 587q6 51 -4 66.5t-45 15.5h-47l-9 15l25 102q25 0 108.5 -2t124.5 -2l277 12l-27 -125q-82 -10 -107.5 -28.5t-37.5 -77.5q-90 -489 -90 -602q0 -35 17.5 -48.5t64.5 -13.5q106 0 148 45t77 201l160 16l10 -16q-47 -182 -88 -381 l-21 -18q-257 12 -462 12q-68 0 -143 -4t-115 -8zM698 692q0 80 49.5 131t129.5 51q59 0 93 -34.5t34 -91.5q0 -80 -49.5 -132.5t-129.5 -52.5q-63 0 -95 35t-32 94z" />
<glyph unicode="&#x141;" horiz-adv-x="1052" d="M20 -20l33 137q78 12 110 49t42 125l33 260l-144 -70l-18 4l-37 127l219 109l45 356q8 63 -4 85t-55 22l-60 -2l-8 16l31 119q20 0 119.5 -2t148.5 -2l309 16l-30 -141q-96 -12 -126 -38t-46 -116q-16 -78 -35 -196l227 112l17 -8l36 -125l-307 -153q-55 -346 -55 -422 q0 -49 22.5 -66.5t85.5 -17.5q139 0 192.5 56t98.5 253l172 16l13 -18q-59 -221 -111 -461l-23 -20q-317 16 -550 16q-78 0 -164 -5t-133 -10z" />
<glyph unicode="&#x142;" horiz-adv-x="933" d="M41 -16l29 118q63 10 88.5 40t34.5 100l20 166l-94 -46l-19 5l-34 114l165 80l35 268q6 51 -4 66.5t-45 15.5h-47l-8 15l24 102q25 0 109 -2t125 -2l278 12l-28 -125q-82 -10 -107.5 -28.5t-36.5 -77.5q0 -2 -26 -143l178 83l14 -6l37 -114l-254 -121q-41 -250 -41 -301 q0 -35 17.5 -48.5t64.5 -13.5q106 0 149.5 46t75.5 200l160 16l12 -16q-49 -182 -90 -381l-20 -18q-256 12 -463 12q-68 0 -142.5 -4t-115.5 -8z" />
<glyph unicode="&#x143;" horiz-adv-x="1441" d="M25 -16l32 135q117 14 133 129l125 813q8 66 -20.5 91.5t-124.5 35.5l-12 20l26 115q131 -10 232 -10l190 8q203 -438 420 -850h21l71 625q8 88 -53 88q-16 0 -41 -1t-27 -1l-6 16l29 123q168 -8 256 -8l235 12l-26 -135q-66 -10 -98.5 -39t-40.5 -90l-160 -1092 l-217 -26q-241 513 -459 923h-18l-82 -645q-6 -51 6 -71.5t51 -20.5l84 4l10 -12l-35 -129q-170 8 -256 8q-47 0 -108.5 -4t-99.5 -8zM625 1542l456 213l27 -10l51 -158l-10 -26q-236 -59 -469 -134l-27 19z" />
<glyph unicode="&#x144;" horiz-adv-x="1230" d="M29 -12l28 116q98 12 109 101l96 610q8 51 -15.5 70.5t-101.5 27.5l-12 19l23 100q111 -8 202 -8l172 8q156 -316 326 -616h16l52 428q6 70 -45 69q-12 0 -33 -1t-23 -1l-6 13l25 108q150 -8 227 -8q37 0 87 2t83 4t33 4l-21 -116q-55 -8 -80.5 -31t-33.5 -70l-125 -831 l-211 -21q-188 366 -355 656h-18l-55 -435q-4 -41 7 -57t44 -16l63 2l11 -11l-29 -110q-152 6 -221 6zM461 1251l457 213l26 -10l51 -158l-10 -26q-236 -59 -469 -133l-27 18z" />
<glyph unicode="&#x145;" horiz-adv-x="1441" d="M25 -16l32 135q117 14 133 129l125 813q8 66 -20.5 91.5t-124.5 35.5l-12 20l26 115q131 -10 232 -10l190 8q203 -438 420 -850h21l71 625q8 88 -53 88q-16 0 -41 -1t-27 -1l-6 16l29 123q168 -8 256 -8l235 12l-26 -135q-66 -10 -98.5 -39t-40.5 -90l-160 -1092 l-217 -26q-241 513 -459 923h-18l-82 -645q-6 -51 6 -71.5t51 -20.5l84 4l10 -12l-35 -129q-170 8 -256 8q-47 0 -108.5 -4t-99.5 -8zM428 -555q61 43 100 100.5t39 108.5q1 84 -71 141l6 29q90 72 162 72q61 0 101 -48.5t40 -128.5q0 -102 -85 -200.5t-216 -169.5l-76 61 v35z" />
<glyph unicode="&#x146;" horiz-adv-x="1230" d="M29 -12l28 116q98 12 109 101l96 610q8 51 -15.5 70.5t-101.5 27.5l-12 19l23 100q111 -8 202 -8l172 8q156 -316 326 -616h16l52 428q6 70 -45 69q-12 0 -33 -1t-23 -1l-6 13l25 108q150 -8 227 -8q37 0 87 2t83 4t33 4l-21 -116q-55 -8 -80.5 -31t-33.5 -70l-125 -831 l-211 -21q-188 366 -355 656h-18l-55 -435q-4 -41 7 -57t44 -16l63 2l11 -11l-29 -110q-152 6 -221 6zM350 -555q61 43 100 100.5t39 108.5q1 84 -71 141l6 29q90 72 162 72q61 0 101 -48.5t40 -128.5q0 -102 -85 -200.5t-216 -169.5l-76 61v35z" />
<glyph unicode="&#x147;" horiz-adv-x="1441" d="M25 -16l32 135q117 14 133 129l125 813q8 66 -20.5 91.5t-124.5 35.5l-12 20l26 115q131 -10 232 -10l190 8q203 -438 420 -850h21l71 625q8 88 -53 88q-16 0 -41 -1t-27 -1l-6 16l29 123q168 -8 256 -8l235 12l-26 -135q-66 -10 -98.5 -39t-40.5 -90l-160 -1092 l-217 -26q-241 513 -459 923h-18l-82 -645q-6 -51 6 -71.5t51 -20.5l84 4l10 -12l-35 -129q-170 8 -256 8q-47 0 -108.5 -4t-99.5 -8zM553 1679l57 84l35 9q18 -8 119.5 -60.5t116.5 -58.5q16 6 129.5 58t136.5 61l31 -9l41 -84l-347 -254h-38q-209 195 -281 254z" />
<glyph unicode="&#x148;" horiz-adv-x="1230" d="M29 -12l28 116q98 12 109 101l96 610q8 51 -15.5 70.5t-101.5 27.5l-12 19l23 100q111 -8 202 -8l172 8q156 -316 326 -616h16l52 428q6 70 -45 69q-12 0 -33 -1t-23 -1l-6 13l25 108q150 -8 227 -8q37 0 87 2t83 4t33 4l-21 -116q-55 -8 -80.5 -31t-33.5 -70l-125 -831 l-211 -21q-188 366 -355 656h-18l-55 -435q-4 -41 7 -57t44 -16l63 2l11 -11l-29 -110q-152 6 -221 6zM412 1389l57 84l35 8q18 -8 119.5 -60.5t115.5 -58.5q16 6 130 58.5t137 60.5l30 -8l41 -84l-346 -254h-39q-209 195 -280 254z" />
<glyph unicode="&#x14a;" horiz-adv-x="1439" d="M27 -16l32 133q63 8 93 42t45 113l118 791q8 66 -20.5 90.5t-122.5 36.5l-12 20l26 115q152 -10 226 -10l194 8q180 -401 422 -856h19l75 631q4 47 -8 67.5t-47 20.5l-70 -2l-4 12l29 127q197 -8 258 -8l231 12l-24 -135q-70 -8 -100.5 -38t-40.5 -91l-129 -887 q-33 -205 -146 -324.5t-334 -185.5l-49 84l8 23q178 80 246 235q-102 215 -210.5 431t-165.5 324l-56 107h-18l-82 -649q-6 -51 6 -71.5t51 -20.5l84 4l10 -12l-35 -129q-166 8 -290 8z" />
<glyph unicode="&#x14b;" horiz-adv-x="1228" d="M33 -12l28 112q51 6 76 32t35 85l92 600q6 51 -16.5 71.5t-100.5 29.5l-12 16l23 100q130 -8 200 -8l170 6q63 -131 146.5 -287.5t133.5 -246.5l50 -90h19l51 438q4 39 -7.5 54t-39.5 15l-54 -2l-6 13l25 106q176 -6 227 -6l199 8l-23 -114q-55 -8 -80.5 -30t-31.5 -71 l-101 -682q-27 -160 -123 -255t-286 -146l-45 69l6 19q145 66 194 180q-80 158 -163.5 314.5t-128.5 234.5l-44 78h-18l-59 -447q-4 -41 7 -57t44 -16l67 4l9 -13l-29 -108q-143 6 -256 6z" />
<glyph unicode="&#x14c;" horiz-adv-x="1329" d="M66 522q0 365 198.5 590t523.5 225q242 0 383.5 -143t141.5 -395q0 -365 -202.5 -594.5t-526.5 -229.5q-236 0 -377 147.5t-141 399.5zM379 535q0 -180 68.5 -282.5t189.5 -102.5q164 0 260 160.5t96 449.5q0 180 -70.5 282.5t-193.5 102.5q-162 0 -256 -162t-94 -448z M498 1483l47 155q188 -2 303 -2l252 13l14 -29l-45 -158l-278 -2l-275 -2z" />
<glyph unicode="&#x14d;" horiz-adv-x="1128" d="M66 414q0 289 159.5 459.5t431.5 170.5q205 0 322 -111.5t117 -314.5q0 -289 -163 -462.5t-433 -173.5q-201 0 -317.5 114.5t-116.5 317.5zM354 420q0 -139 49.5 -211t139.5 -72q123 0 191.5 117t68.5 336q0 139 -51.5 210.5t-143.5 71.5q-119 0 -186.5 -116.5 t-67.5 -335.5zM362 1192l48 156q188 -2 303 -2l252 12l14 -29l-45 -158l-279 -2l-274 -2z" />
<glyph unicode="&#x14e;" horiz-adv-x="1329" d="M66 522q0 365 198.5 590t523.5 225q242 0 383.5 -143t141.5 -395q0 -365 -202.5 -594.5t-526.5 -229.5q-236 0 -377 147.5t-141 399.5zM379 535q0 -180 68.5 -282.5t189.5 -102.5q164 0 260 160.5t96 449.5q0 180 -70.5 282.5t-193.5 102.5q-162 0 -256 -162t-94 -448z M487 1714l64 70l37 8q37 -139 188.5 -139t220.5 139l37 -8l45 -70q-41 -109 -125 -182.5t-200 -73.5q-119 0 -184.5 74t-82.5 182z" />
<glyph unicode="&#x14f;" horiz-adv-x="1128" d="M66 414q0 289 159.5 459.5t431.5 170.5q205 0 322 -111.5t117 -314.5q0 -289 -163 -462.5t-433 -173.5q-201 0 -317.5 114.5t-116.5 317.5zM354 420q0 -139 49.5 -211t139.5 -72q123 0 191.5 117t68.5 336q0 139 -51.5 210.5t-143.5 71.5q-119 0 -186.5 -116.5 t-67.5 -335.5zM379 1376l67 72l35 6q39 -121 189 -121q154 0 223 121l33 -6l47 -72q-41 -100 -124 -168.5t-202 -68.5t-185.5 68.5t-82.5 168.5z" />
<glyph unicode="&#x150;" horiz-adv-x="1329" d="M66 522q0 365 198.5 590t523.5 225q242 0 383.5 -143t141.5 -395q0 -365 -202.5 -594.5t-526.5 -229.5q-236 0 -377 147.5t-141 399.5zM379 535q0 -180 68.5 -282.5t189.5 -102.5q164 0 260 160.5t96 449.5q0 180 -70.5 282.5t-193.5 102.5q-162 0 -256 -162t-94 -448z M438 1481q309 274 310 274l24 -2l88 -127l-2 -24q-174 -94 -346 -201l-27 10zM782 1470q309 274 310 275l24 -4l88 -123l-4 -25q-172 -94 -344 -200l-27 8z" />
<glyph unicode="&#x151;" horiz-adv-x="1128" d="M66 414q0 289 159.5 459.5t431.5 170.5q205 0 322 -111.5t117 -314.5q0 -289 -163 -462.5t-433 -173.5q-201 0 -317.5 114.5t-116.5 317.5zM301 1190l309 274l25 -2l88 -127l-2 -24q-174 -94 -346 -201l-27 10zM354 420q0 -139 49.5 -211t139.5 -72q123 0 191.5 117 t68.5 336q0 139 -51.5 210.5t-143.5 71.5q-119 0 -186.5 -116.5t-67.5 -335.5zM645 1180l309 274l25 -4l88 -123l-4 -24q-172 -94 -344 -201l-27 8z" />
<glyph unicode="&#x152;" horiz-adv-x="1853" d="M66 524q0 362 193.5 583.5t514.5 221.5q61 0 217 -13t246 -13q348 0 621 36l14 -22q-57 -182 -92 -373l-189 -12q16 72 17 115q0 61 -45 78.5t-189 17.5q-70 0 -86 -10.5t-22 -57.5l-54 -317l181 -2l233 16l14 -18l-51 -176q-158 6 -254 6l-153 -13l-39 -286 q-10 -82 8 -102.5t102 -20.5q176 0 233.5 40t96.5 193l174 15l12 -21q-57 -184 -100 -381l-22 -22q-371 18 -619 18q-94 0 -242.5 -13.5t-203.5 -13.5q-236 0 -376 147.5t-140 399.5zM385 528q0 -182 62.5 -280t181.5 -98q127 0 190.5 61t81.5 203l66 516q14 123 -37 171 t-197 48q-156 0 -252 -168t-96 -453z" />
<glyph unicode="&#x153;" horiz-adv-x="1533" d="M55 416q0 287 155 453.5t425 166.5q49 0 178 -10t205 -10q297 0 516 28l12 -18q-47 -150 -73 -297l-173 -12q12 53 13 86q0 45 -35 59.5t-148 14.5q-51 0 -64 -8.5t-17 -41.5l-43 -231l147 -2l188 14l13 -18l-41 -148q-125 4 -205 4l-125 -10l-31 -200q-8 -63 6.5 -79 t79.5 -16q139 0 183.5 31t74.5 147l160 13l10 -19q-45 -145 -80 -305l-22 -18q-297 14 -514 14q-74 0 -194.5 -11t-166.5 -11q-199 0 -316.5 115.5t-117.5 318.5zM342 414q0 -283 184 -283q94 0 141.5 44t61.5 144l49 398q10 90 -28.5 127t-147.5 37q-119 0 -189.5 -124 t-70.5 -343z" />
<glyph unicode="&#x154;" horiz-adv-x="1277" d="M10 -12l35 135q86 12 119 46t43 120l98 794q6 59 -4 80t-45 21l-70 -4l-10 16l33 123q170 -6 248 -6l286 10q211 0 330 -81t119 -226q0 -283 -303 -432l133 -293q45 -94 91 -135t108 -41l12 -19l-27 -106l-239 -23q-129 0 -195 191l-123 360h-149l-31 -231 q-14 -102 6.5 -129t114.5 -29l6 -12l-35 -125q-176 6 -264 6zM514 1542l457 213l26 -10l52 -158l-11 -26q-236 -59 -469 -134l-26 19zM526 696l176 -20q201 82 201 293q0 190 -268 190q-20 0 -27.5 -8t-13.5 -37q-29 -154 -68 -418z" />
<glyph unicode="&#x155;" horiz-adv-x="1103" d="M18 -12l29 118q68 8 94.5 36t36.5 96l74 598q6 43 -2 59t-37 16l-57 -2l-11 15l29 104q147 -4 211 -4l250 10q184 0 286.5 -64.5t102.5 -183.5q0 -215 -244 -335l103 -209q68 -137 157 -138l13 -20l-25 -92l-211 -17q-113 0 -164 148l-94 268h-115l-22 -158 q-10 -78 6 -98t96 -22l4 -11l-28 -108q-162 4 -232 4zM375 1251l456 213l27 -10l51 -158l-10 -26q-236 -59 -469 -133l-27 18zM467 551l139 -16q53 18 102.5 69t49.5 139q0 141 -207 142q-16 0 -22.5 -7.5t-10.5 -29.5q-35 -178 -51 -297z" />
<glyph unicode="&#x156;" horiz-adv-x="1277" d="M10 -12l35 135q86 12 119 46t43 120l98 794q6 59 -4 80t-45 21l-70 -4l-10 16l33 123q170 -6 248 -6l286 10q211 0 330 -81t119 -226q0 -283 -303 -432l133 -293q45 -94 91 -135t108 -41l12 -19l-27 -106l-239 -23q-129 0 -195 191l-123 360h-149l-31 -231 q-14 -102 6.5 -129t114.5 -29l6 -12l-35 -125q-176 6 -264 6zM346 -555q61 43 100 100.5t39 108.5q1 84 -71 141l6 29q90 72 162 72q61 0 101 -48.5t40 -128.5q0 -102 -85 -200.5t-216 -169.5l-76 61v35zM526 696l176 -20q201 82 201 293q0 190 -268 190q-20 0 -27.5 -8 t-13.5 -37q-29 -154 -68 -418z" />
<glyph unicode="&#x157;" horiz-adv-x="1103" d="M18 -12l29 118q68 8 94.5 36t36.5 96l74 598q6 43 -2 59t-37 16l-57 -2l-11 15l29 104q147 -4 211 -4l250 10q184 0 286.5 -64.5t102.5 -183.5q0 -215 -244 -335l103 -209q68 -137 157 -138l13 -20l-25 -92l-211 -17q-113 0 -164 148l-94 268h-115l-22 -158 q-10 -78 6 -98t96 -22l4 -11l-28 -108q-162 4 -232 4zM285 -555q61 43 100 100.5t39 108.5q0 84 -72 141l6 29q90 72 162 72q61 0 101.5 -48.5t40.5 -128.5q0 -102 -85 -200.5t-217 -169.5l-75 61v35zM467 551l139 -16q53 18 102.5 69t49.5 139q0 141 -207 142 q-16 0 -22.5 -7.5t-10.5 -29.5q-35 -178 -51 -297z" />
<glyph unicode="&#x158;" horiz-adv-x="1277" d="M10 -12l35 135q86 12 119 46t43 120l98 794q6 59 -4 80t-45 21l-70 -4l-10 16l33 123q170 -6 248 -6l286 10q211 0 330 -81t119 -226q0 -283 -303 -432l133 -293q45 -94 91 -135t108 -41l12 -19l-27 -106l-239 -23q-129 0 -195 191l-123 360h-149l-31 -231 q-14 -102 6.5 -129t114.5 -29l6 -12l-35 -125q-176 6 -264 6zM442 1679l58 84l35 9q18 -8 119.5 -60.5t115.5 -58.5q16 6 130 58t136 61l31 -9l41 -84l-346 -254h-39q-209 195 -281 254zM526 696l176 -20q201 82 201 293q0 190 -268 190q-20 0 -27.5 -8t-13.5 -37 q-29 -154 -68 -418z" />
<glyph unicode="&#x159;" horiz-adv-x="1103" d="M18 -12l29 118q68 8 94.5 36t36.5 96l74 598q6 43 -2 59t-37 16l-57 -2l-11 15l29 104q147 -4 211 -4l250 10q184 0 286.5 -64.5t102.5 -183.5q0 -215 -244 -335l103 -209q68 -137 157 -138l13 -20l-25 -92l-211 -17q-113 0 -164 148l-94 268h-115l-22 -158 q-10 -78 6 -98t96 -22l4 -11l-28 -108q-162 4 -232 4zM326 1389l57 84l35 8q18 -8 119.5 -60.5t115.5 -58.5q16 6 130 58.5t137 60.5l30 -8l41 -84l-346 -254h-39q-209 195 -280 254zM467 551l139 -16q53 18 102.5 69t49.5 139q0 141 -207 142q-16 0 -22.5 -7.5t-10.5 -29.5 q-35 -178 -51 -297z" />
<glyph unicode="&#x15a;" horiz-adv-x="1069" d="M20 82q55 176 78 346l170 14q-20 -166 18 -227t163 -61q98 0 160.5 48t62.5 126q0 61 -53.5 106t-159.5 103q-63 35 -92 51t-81.5 54t-77 69.5t-46 81t-21.5 104.5q0 190 158 315t403 125q196 0 353 -53l12 -27q-55 -164 -90 -350l-154 -12l-16 12q14 70 14 107 q0 74 -41 105.5t-131 31.5t-148.5 -47t-58.5 -117q0 -86 144 -172q20 -12 99 -53t112.5 -64.5t86 -67.5t75 -95.5t22.5 -114.5q0 -199 -160 -322t-426 -123q-92 0 -182 19.5t-134 39.5l-44 19zM455 1542l456 213l27 -10l51 -158l-10 -26q-236 -59 -469 -134l-27 19z" />
<glyph unicode="&#x15b;" horiz-adv-x="923" d="M29 68q45 143 63 268l156 12q-14 -117 17.5 -163t125.5 -46q76 0 122 32t46 85q0 45 -43 78t-131 76q-63 33 -95 51t-78 54t-66.5 80t-20.5 97q0 156 134 254t345 98q74 0 148.5 -10t112.5 -21l38 -12l10 -24q-45 -129 -73 -275l-144 -10l-14 10q10 49 10 74 q0 100 -135 101q-68 0 -113 -32t-45 -81q0 -61 121 -125q16 -8 66.5 -32.5t76 -39t65.5 -42t60.5 -52t37 -62.5t16.5 -79q0 -160 -134.5 -255t-361.5 -95q-80 0 -155.5 15t-112.5 31l-37 15zM336 1251l457 213l26 -10l51 -158l-10 -26q-236 -59 -469 -133l-26 18z" />
<glyph unicode="&#x15c;" horiz-adv-x="1069" d="M20 82q55 176 78 346l170 14q-20 -166 18 -227t163 -61q98 0 160.5 48t62.5 126q0 61 -53.5 106t-159.5 103q-63 35 -92 51t-81.5 54t-77 69.5t-46 81t-21.5 104.5q0 190 158 315t403 125q196 0 353 -53l12 -27q-55 -164 -90 -350l-154 -12l-16 12q14 70 14 107 q0 74 -41 105.5t-131 31.5t-148.5 -47t-58.5 -117q0 -86 144 -172q20 -12 99 -53t112.5 -64.5t86 -67.5t75 -95.5t22.5 -114.5q0 -199 -160 -322t-426 -123q-92 0 -182 19.5t-134 39.5l-44 19zM360 1536q37 31 122 109.5t152 142.5l66 63h41q199 -248 265 -315l-70 -84 l-33 -8q-12 10 -105 86t-106 84q-6 -4 -250 -170l-32 8z" />
<glyph unicode="&#x15d;" horiz-adv-x="923" d="M29 68q45 143 63 268l156 12q-14 -117 17.5 -163t125.5 -46q76 0 122 32t46 85q0 45 -43 78t-131 76q-63 33 -95 51t-78 54t-66.5 80t-20.5 97q0 156 134 254t345 98q74 0 148.5 -10t112.5 -21l38 -12l10 -24q-45 -129 -73 -275l-144 -10l-14 10q10 49 10 74 q0 100 -135 101q-68 0 -113 -32t-45 -81q0 -61 121 -125q16 -8 66.5 -32.5t76 -39t65.5 -42t60.5 -52t37 -62.5t16.5 -79q0 -160 -134.5 -255t-361.5 -95q-80 0 -155.5 15t-112.5 31l-37 15zM252 1245q37 31 122 110t151 142l67 64h41q199 -248 264 -316l-70 -84l-32 -8 q-12 10 -105.5 86t-105.5 84q-6 -4 -250 -170l-33 8z" />
<glyph unicode="&#x15e;" horiz-adv-x="1069" d="M20 82q55 176 78 346l170 14q-20 -166 18 -227t163 -61q98 0 160.5 48t62.5 126q0 61 -53.5 106t-159.5 103q-63 35 -92 51t-81.5 54t-77 69.5t-46 81t-21.5 104.5q0 190 158 315t403 125q196 0 353 -53l12 -27q-55 -164 -90 -350l-154 -12l-16 12q14 70 14 107 q0 74 -41 105.5t-131 31.5t-148.5 -47t-58.5 -117q0 -86 144 -172q20 -12 99 -53t112.5 -64.5t86 -67.5t75 -95.5t22.5 -114.5q0 -180 -132 -300t-360 -140l-26 -70q172 -104 172 -189q0 -82 -92 -145t-203 -63q-53 0 -100 24.5t-47 61.5q0 35 94 135h16q-4 -55 19.5 -85 t68.5 -30q37 0 61.5 18.5t24.5 47.5q1 49 -153 139l59 151q-199 4 -348 78z" />
<glyph unicode="&#x15f;" horiz-adv-x="923" d="M29 68q45 143 63 268l156 12q-14 -117 17.5 -163t125.5 -46q76 0 122 32t46 85q0 45 -43 78t-131 76q-63 33 -95 51t-78 54t-66.5 80t-20.5 97q0 156 134 254t345 98q74 0 148.5 -10t112.5 -21l38 -12l10 -24q-45 -129 -73 -275l-144 -10l-14 10q10 49 10 74 q0 100 -135 101q-68 0 -113 -32t-45 -81q0 -61 121 -125q16 -8 66.5 -32.5t76 -39t65.5 -42t60.5 -52t37 -62.5t16.5 -79q0 -139 -105.5 -231.5t-287.5 -112.5l-31 -78q172 -104 172 -189q0 -82 -92 -145t-203 -63q-53 0 -100.5 24.5t-47.5 61.5q0 35 95 135h16 q-4 -55 19.5 -85t68.5 -30q37 0 61.5 18.5t24.5 47.5q1 49 -153 139l61 158q-176 2 -299 61z" />
<glyph unicode="&#x160;" horiz-adv-x="1069" d="M20 82q55 176 78 346l170 14q-20 -166 18 -227t163 -61q98 0 160.5 48t62.5 126q0 61 -53.5 106t-159.5 103q-63 35 -92 51t-81.5 54t-77 69.5t-46 81t-21.5 104.5q0 190 158 315t403 125q196 0 353 -53l12 -27q-55 -164 -90 -350l-154 -12l-16 12q14 70 14 107 q0 74 -41 105.5t-131 31.5t-148.5 -47t-58.5 -117q0 -86 144 -172q20 -12 99 -53t112.5 -64.5t86 -67.5t75 -95.5t22.5 -114.5q0 -199 -160 -322t-426 -123q-92 0 -182 19.5t-134 39.5l-44 19zM383 1679l57 84l35 9q18 -8 119.5 -60.5t116.5 -58.5q16 6 129.5 58t136.5 61 l31 -9l41 -84l-347 -254h-38q-209 195 -281 254z" />
<glyph unicode="&#x161;" horiz-adv-x="923" d="M29 68q45 143 63 268l156 12q-14 -117 17.5 -163t125.5 -46q76 0 122 32t46 85q0 45 -43 78t-131 76q-63 33 -95 51t-78 54t-66.5 80t-20.5 97q0 156 134 254t345 98q74 0 148.5 -10t112.5 -21l38 -12l10 -24q-45 -129 -73 -275l-144 -10l-14 10q10 49 10 74 q0 100 -135 101q-68 0 -113 -32t-45 -81q0 -61 121 -125q16 -8 66.5 -32.5t76 -39t65.5 -42t60.5 -52t37 -62.5t16.5 -79q0 -160 -134.5 -255t-361.5 -95q-80 0 -155.5 15t-112.5 31l-37 15zM274 1389l58 84l35 8q18 -8 119.5 -60.5t115.5 -58.5q16 6 130 58.5t136 60.5 l31 -8l41 -84l-346 -254h-39q-209 195 -281 254z" />
<glyph unicode="&#x162;" horiz-adv-x="1128" d="M59 879q47 238 76 436l27 22l192 -22h619l207 22l18 -22q-22 -202 -33 -424l-170 -12q2 190 -26.5 232t-173.5 48q-29 -160 -81 -514t-52 -407q0 -55 21.5 -80t70.5 -25l108 6l6 -10l-34 -137q-158 6 -275 8l-35 -90q172 -104 172 -189q0 -82 -92 -145t-203 -63 q-53 0 -100 24.5t-47 61.5q0 35 94 135h17q-4 -55 19.5 -85t68.5 -30q37 0 61.5 18.5t24.5 47.5q0 49 -154 139l68 176l-299 -12l32 133q131 12 169 49t55 168l100 821q-57 -2 -91 -5t-64.5 -16.5t-45 -26.5t-31 -49t-25.5 -70t-24 -101z" />
<glyph unicode="&#x163;" horiz-adv-x="976" d="M59 662q39 199 60 362l22 20l170 -18h510l178 18l17 -20l-29 -352l-156 -10q2 150 -21.5 183.5t-125.5 37.5q-98 -582 -98 -686q0 -80 76 -80l88 4l4 -8l-29 -121q-123 6 -219 8l-35 -90q172 -104 172 -189q0 -82 -92 -145t-203 -63q-53 0 -100 24.5t-47 61.5 q0 35 94 135h16q-4 -55 19.5 -85t68.5 -30q37 0 61.5 18.5t24.5 47.5q1 49 -153 139l67 176l-260 -12l27 118q106 8 138 37t44 121l76 619q-109 -4 -141.5 -38t-65.5 -173z" />
<glyph unicode="&#x164;" horiz-adv-x="1128" d="M59 879q47 238 76 436l27 22l192 -22h619l207 22l18 -22q-22 -202 -33 -424l-170 -12q2 190 -26.5 232t-173.5 48q-29 -160 -81 -514t-52 -407q0 -55 21.5 -80t70.5 -25l108 6l6 -10l-34 -137q-242 8 -347 8l-333 -12l32 133q131 12 169.5 49t54.5 168l100 821 q-57 -2 -91 -5t-64.5 -16.5t-45 -26.5t-31 -49t-25.5 -70t-24 -101zM391 1679l58 84l34 9q18 -8 120 -60.5t116 -58.5q16 6 130 58t136 61l31 -9l41 -84l-346 -254h-39q-209 195 -281 254z" />
<glyph unicode="&#x165;" horiz-adv-x="976" d="M59 662q39 199 60 362l22 20l170 -18h510l178 18l17 -20l-29 -352l-156 -10q2 150 -21.5 183.5t-125.5 37.5q-98 -582 -98 -686q0 -80 76 -80l88 4l4 -8l-29 -121q-207 8 -295 8l-291 -12l27 118q106 8 138 37t44 121l76 619q-109 -4 -141.5 -38t-65.5 -173zM279 1389 l57 84l35 8q18 -8 119.5 -60.5t115.5 -58.5q16 6 130 58.5t136 60.5l31 -8l41 -84l-346 -254h-39q-209 195 -280 254z" />
<glyph unicode="&#x166;" horiz-adv-x="1128" d="M59 879q47 238 76 436l27 22l192 -22h619l207 22l18 -22q-22 -202 -33 -424l-170 -12q2 190 -26.5 232t-173.5 48q-29 -150 -76 -475l155 6l29 -28l-8 -95h-195q-39 -279 -38 -329q0 -55 21.5 -80t70.5 -25l108 6l6 -10l-34 -137q-242 8 -347 8l-333 -12l32 133 q131 12 169.5 49t54.5 168l26 227h-170l-20 19l14 98l191 -2l59 479q-57 -2 -91 -5t-64.5 -16.5t-45 -26.5t-31 -49t-25.5 -70t-24 -101z" />
<glyph unicode="&#x167;" horiz-adv-x="976" d="M59 662q39 199 60 362l22 20l170 -18h510l178 18l17 -20l-29 -352l-156 -10q2 150 -21.5 183.5t-125.5 37.5q-51 -311 -61 -383l161 6l29 -29l-8 -94l-199 -2q-20 -150 -20 -184q0 -80 76 -80l88 4l4 -8l-29 -121q-207 8 -295 8l-291 -12l27 118q106 8 138 37t44 121 l14 115h-188l-20 20l16 99l207 -2l47 387q-109 -4 -141.5 -38t-65.5 -173z" />
<glyph unicode="&#x168;" horiz-adv-x="1288" d="M123 1188l35 131q168 -6 282 -6l238 14l-31 -137q-63 -8 -89 -32t-34 -77l-88 -596q-4 -57 -4 -82q-2 -121 51.5 -183t155.5 -62q238 0 270 270l74 645q6 68 -3 89.5t-46 21.5l-66 -4l-4 8l33 131q156 -6 229 -6l240 14l-29 -135q-76 -14 -98 -32.5t-29 -69.5l-80 -641 q-29 -231 -171 -352.5t-386 -121.5q-420 0 -419 363q0 39 6 82l82 653q8 68 -2.5 89.5t-51.5 21.5l-61 -4zM434 1536l2 23l180 206l33 9q35 0 149.5 -34t141.5 -34q20 0 55 28.5t61 57.5l25 29h23l74 -76l-4 -21l-181 -208l-32 -9q-35 0 -149 35t-140 35q-23 0 -58.5 -28.5 t-60.5 -57.5l-25 -29h-22z" />
<glyph unicode="&#x169;" horiz-adv-x="1091" d="M106 915l29 115q145 -6 248 -6l203 10l-27 -119q-51 -6 -71.5 -23t-26.5 -58l-68 -463q-4 -20 -4 -60q0 -170 154 -170q176 0 200 189q57 496 58 495q4 53 -3 69.5t-36 16.5l-51 -2l-2 6l28 115q129 -6 191 -6l209 10l-27 -116q-59 -14 -77.5 -27.5t-22.5 -50.5l-60 -482 q-49 -377 -461 -376q-356 0 -356 278q0 31 6 64l62 501q6 53 -2.5 69.5t-38.5 16.5l-51 -2zM303 1245l2 23l180 207l33 8q35 0 149.5 -34t141.5 -34q20 0 55 29t61 57l25 29h23l74 -76l-5 -20l-180 -209l-33 -8q-35 0 -148.5 34.5t-139.5 34.5q-23 0 -59 -28.5t-60 -57.5 l-25 -29h-22z" />
<glyph unicode="&#x16a;" horiz-adv-x="1288" d="M123 1188l35 131q168 -6 282 -6l238 14l-31 -137q-63 -8 -89 -32t-34 -77l-88 -596q-4 -57 -4 -82q-2 -121 51.5 -183t155.5 -62q238 0 270 270l74 645q6 68 -3 89.5t-46 21.5l-66 -4l-4 8l33 131q156 -6 229 -6l240 14l-29 -135q-76 -14 -98 -32.5t-29 -69.5l-80 -641 q-29 -231 -171 -352.5t-386 -121.5q-420 0 -419 363q0 39 6 82l82 653q8 68 -2.5 89.5t-51.5 21.5l-61 -4zM510 1483l47 155q188 -2 303 -2l252 13l14 -29l-45 -158l-278 -2l-275 -2z" />
<glyph unicode="&#x16b;" horiz-adv-x="1091" d="M106 915l29 115q145 -6 248 -6l203 10l-27 -119q-51 -6 -71.5 -23t-26.5 -58l-68 -463q-4 -20 -4 -60q0 -170 154 -170q176 0 200 189q57 496 58 495q4 53 -3 69.5t-36 16.5l-51 -2l-2 6l28 115q129 -6 191 -6l209 10l-27 -116q-59 -14 -77.5 -27.5t-22.5 -50.5l-60 -482 q-49 -377 -461 -376q-356 0 -356 278q0 31 6 64l62 501q6 53 -2.5 69.5t-38.5 16.5l-51 -2zM375 1192l47 156q188 -2 303 -2l252 12l14 -29l-45 -158l-278 -2l-275 -2z" />
<glyph unicode="&#x16c;" horiz-adv-x="1288" d="M123 1188l35 131q168 -6 282 -6l238 14l-31 -137q-63 -8 -89 -32t-34 -77l-88 -596q-4 -57 -4 -82q-2 -121 51.5 -183t155.5 -62q238 0 270 270l74 645q6 68 -3 89.5t-46 21.5l-66 -4l-4 8l33 131q156 -6 229 -6l240 14l-29 -135q-76 -14 -98 -32.5t-29 -69.5l-80 -641 q-29 -231 -171 -352.5t-386 -121.5q-420 0 -419 363q0 39 6 82l82 653q8 68 -2.5 89.5t-51.5 21.5l-61 -4zM504 1724l63 70l37 8q37 -139 188.5 -139t221.5 139l37 -8l45 -70q-41 -109 -125 -182.5t-201 -73.5q-119 0 -184.5 74t-81.5 182z" />
<glyph unicode="&#x16d;" horiz-adv-x="1091" d="M106 915l29 115q145 -6 248 -6l203 10l-27 -119q-51 -6 -71.5 -23t-26.5 -58l-68 -463q-4 -20 -4 -60q0 -170 154 -170q176 0 200 189q57 496 58 495q4 53 -3 69.5t-36 16.5l-51 -2l-2 6l28 115q129 -6 191 -6l209 10l-27 -116q-59 -14 -77.5 -27.5t-22.5 -50.5l-60 -482 q-49 -377 -461 -376q-356 0 -356 278q0 31 6 64l62 501q6 53 -2.5 69.5t-38.5 16.5l-51 -2zM367 1376l67 72l35 6q38 -121 188 -121q154 0 224 121l32 -6l48 -72q-41 -100 -124 -168.5t-202 -68.5t-185.5 68.5t-82.5 168.5z" />
<glyph unicode="&#x16e;" horiz-adv-x="1288" d="M123 1188l35 131q168 -6 282 -6l238 14l-31 -137q-63 -8 -89 -32t-34 -77l-88 -596q-4 -57 -4 -82q-2 -121 51.5 -183t155.5 -62q238 0 270 270l74 645q6 68 -3 89.5t-46 21.5l-66 -4l-4 8l33 131q156 -6 229 -6l240 14l-29 -135q-76 -14 -98 -32.5t-29 -69.5l-80 -641 q-29 -231 -171 -352.5t-386 -121.5q-420 0 -419 363q0 39 6 82l82 653q8 68 -2.5 89.5t-51.5 21.5l-61 -4zM631 1548q0 94 62.5 157.5t156.5 63.5q80 0 119 -44t39 -109q0 -90 -62 -158.5t-160 -68.5q-76 0 -115.5 44t-39.5 115zM735 1573q0 -37 24.5 -56.5t53.5 -19.5 q90 0 90 86q0 74 -82 74q-41 0 -63.5 -23.5t-22.5 -60.5z" />
<glyph unicode="&#x16f;" horiz-adv-x="1091" d="M106 915l29 115q145 -6 248 -6l203 10l-27 -119q-51 -6 -71.5 -23t-26.5 -58l-68 -463q-4 -20 -4 -60q0 -170 154 -170q176 0 200 189q57 496 58 495q4 53 -3 69.5t-36 16.5l-51 -2l-2 6l28 115q129 -6 191 -6l209 10l-27 -116q-59 -14 -77.5 -27.5t-22.5 -50.5l-60 -482 q-49 -377 -461 -376q-356 0 -356 278q0 31 6 64l62 501q6 53 -2.5 69.5t-38.5 16.5l-51 -2zM496 1257q0 94 62.5 158t156.5 64q80 0 118.5 -44t38.5 -110q0 -90 -61.5 -158.5t-159.5 -68.5q-76 0 -115.5 44t-39.5 115zM600 1282q0 -37 24.5 -56.5t53.5 -19.5q90 0 90 86 q0 74 -82 74q-41 0 -63.5 -23.5t-22.5 -60.5z" />
<glyph unicode="&#x170;" horiz-adv-x="1288" d="M123 1188l35 131q168 -6 282 -6l238 14l-31 -137q-63 -8 -89 -32t-34 -77l-88 -596q-4 -57 -4 -82q-2 -121 51.5 -183t155.5 -62q238 0 270 270l74 645q6 68 -3 89.5t-46 21.5l-66 -4l-4 8l33 131q156 -6 229 -6l240 14l-29 -135q-76 -14 -98 -32.5t-29 -69.5l-80 -641 q-29 -231 -171 -352.5t-386 -121.5q-420 0 -419 363q0 39 6 82l82 653q8 68 -2.5 89.5t-51.5 21.5l-61 -4zM483 1481q309 274 310 274l24 -2l88 -127l-2 -24q-174 -94 -346 -201l-27 10zM827 1470q309 274 310 275l24 -4l88 -123l-4 -25q-172 -94 -344 -200l-27 8z" />
<glyph unicode="&#x171;" horiz-adv-x="1091" d="M106 915l29 115q145 -6 248 -6l203 10l-27 -119q-51 -6 -71.5 -23t-26.5 -58l-68 -463q-4 -20 -4 -60q0 -170 154 -170q176 0 200 189q57 496 58 495q4 53 -3 69.5t-36 16.5l-51 -2l-2 6l28 115q129 -6 191 -6l209 10l-27 -116q-59 -14 -77.5 -27.5t-22.5 -50.5l-60 -482 q-49 -377 -461 -376q-356 0 -356 278q0 31 6 64l62 501q6 53 -2.5 69.5t-38.5 16.5l-51 -2zM334 1190l309 274l25 -2l88 -127l-2 -24q-174 -94 -346 -201l-27 10zM678 1180l309 274l25 -4l88 -123l-4 -24q-172 -94 -344 -201l-27 8z" />
<glyph unicode="&#x172;" horiz-adv-x="1288" d="M123 1188l35 131q168 -6 282 -6l238 14l-31 -137q-63 -8 -89 -31.5t-34 -77.5l-88 -596q-4 -61 -4 -82q-4 -246 207 -245q238 0 270 270l74 645q6 70 -3 90.5t-46 20.5l-66 -4l-4 8l33 131q156 -6 229 -6l240 14l-29 -135q-78 -16 -100.5 -34.5t-26.5 -67.5l-80 -641 q-27 -207 -174 -367q-137 -147 -187 -219t-50 -125q0 -37 23.5 -60.5t60.5 -23.5q31 0 67.5 12t58.5 25l21 12l31 -59q-117 -102 -217 -138q-102 0 -160.5 44t-58.5 122q0 66 45 139.5t151 182.5q-74 -18 -168 -19q-420 0 -419 363q0 39 6 82l82 653q8 70 -2.5 90.5 t-51.5 20.5l-61 -4z" />
<glyph unicode="&#x173;" horiz-adv-x="1091" d="M106 915l31 115q145 -6 248 -6l203 10l-27 -119q-51 -6 -72.5 -23.5t-27.5 -57.5l-66 -463q-4 -23 -4 -60q0 -170 154 -170q174 0 200 189l56 495q4 53 -3 69.5t-34 16.5l-51 -2l-4 6l30 115q129 -6 191 -6l209 10l-27 -116q-59 -14 -77.5 -27.5t-22.5 -50.5l-60 -482 q-20 -170 -145 -297q-186 -193 -186 -262q0 -27 18 -44t47 -17q25 0 54.5 10t47.5 20l19 9l27 -53q-96 -82 -181 -109q-86 0 -136 35t-50 96q0 94 160 248q-61 -12 -135 -12q-354 0 -357 278q0 31 6 64l62 501q6 55 -2 70.5t-39 15.5l-51 -2z" />
<glyph unicode="&#x174;" horiz-adv-x="1910" d="M78 1198l31 121q156 -6 237 -6q72 0 154 5t128 9l46 4l8 -16l-25 -123q-96 -8 -127.5 -27.5t-31.5 -68.5l71 -832h29q31 74 96.5 234.5t118.5 288.5t92 219q4 55 -6 86q-4 51 -33.5 70.5t-99.5 21.5l-8 14l33 121q178 -6 268 -6l325 18l9 -16l-25 -123 q-100 -8 -131 -27.5t-31 -68.5l74 -832h29q344 803 344 873q0 27 -20.5 38t-69.5 11h-74l-8 14l30 125q162 -12 283 -12l219 6l-28 -133q-47 -8 -69 -28.5t-48 -78.5l-473 -1069l-326 -41l-78 740h-20l-287 -699l-328 -41q-84 696 -145 1088q-12 66 -41 94.5t-84 32.5z M791 1540l344 254h41q0 2 53 -47t125.5 -115.5t101.5 -91.5l-59 -84l-35 -8q-14 6 -117.5 59.5t-118.5 59.5q-16 -6 -129.5 -58.5t-136.5 -60.5l-31 8z" />
<glyph unicode="&#x175;" horiz-adv-x="1626" d="M76 926l26 104q129 -6 201 -6l281 12l6 -12l-21 -106q-68 -6 -97.5 -63.5t-29.5 -111.5q0 -90 12.5 -220t25.5 -214l14 -84h26q35 80 119 286t115 277v60q-4 37 -26.5 51t-80.5 14l-6 13l27 104q154 -6 233 -6l279 12l8 -12l-23 -106q-78 -8 -102.5 -22.5t-24.5 -55.5 l54 -615h26q258 598 258 652q0 20 -14 27t-53 7h-56l-8 15l27 106q137 -8 233 -8l187 4l-25 -115q-35 -6 -53.5 -22.5t-38.5 -59.5l-365 -823l-313 -33l-57 541h-17l-213 -508l-313 -33q-74 573 -117 836q-10 53 -31.5 75.5t-64.5 26.5zM614 1249l344 254h41q0 2 53.5 -47 t126 -115.5t101.5 -91.5l-59 -84l-35 -8q-14 6 -117.5 59.5t-118.5 59.5q-16 -6 -129.5 -58.5t-136.5 -60.5l-31 8z" />
<glyph unicode="&#x176;" horiz-adv-x="1191" d="M70 1190l32 129q176 -6 254 -6l320 16l8 -18l-27 -117q-72 -4 -97 -18.5t-25 -47.5q0 -63 114 -423h17l198 344q39 66 39 102.5t-94 42.5l-4 10l31 117q20 0 116.5 -4t145.5 -4l205 8l6 -14l-31 -123q-82 -27 -136.5 -81t-133.5 -181l-234 -367q-6 -10 -12 -21.5 t-11.5 -20.5t-9.5 -23.5t-7 -22.5t-6 -25.5t-5 -26.5t-5 -32t-4 -33t-5 -39.5t-7 -42.5q-10 -76 5.5 -105.5t70.5 -29.5l99 6l6 -10l-35 -137q-227 8 -326 8q-51 0 -130 -6t-132 -11l-53 -6l31 138q117 16 154.5 53t47.5 141l9 64q12 102 -31 211l-146 389 q-37 102 -74.5 145t-121.5 62zM436 1540l344 254h41q0 2 53.5 -47t126 -115.5t101.5 -91.5l-60 -84l-34 -8q-14 6 -118 59.5t-118 59.5q-16 -6 -130 -58.5t-136 -60.5l-31 8z" />
<glyph unicode="&#x177;" horiz-adv-x="1048" d="M72 915l28 113q158 -4 222 -4l270 12l8 -16l-22 -100q-53 -2 -74 -13.5t-21 -36.5q0 -18 86 -301h19l141 242q33 55 33 76q0 31 -74 31l-4 10l25 102q25 0 106.5 -3t122.5 -3l172 6l6 -12l-26 -109q-63 -23 -109.5 -67.5t-108.5 -134.5l-188 -285q-18 -27 -28.5 -59.5 t-13.5 -55t-11 -86.5q-8 -59 5 -81.5t58 -22.5l82 4l6 -8l-28 -121q-203 8 -289 8l-279 -16l27 118q98 10 130 38t42 106l4 43q8 74 -27 157l-126 308q-27 68 -60 101.5t-98 51.5zM326 1249l344 254h41q0 2 53 -47t126 -115.5t101 -91.5l-59 -84l-35 -8q-14 6 -117.5 59.5 t-117.5 59.5q-16 -6 -130 -58.5t-137 -60.5l-30 8z" />
<glyph unicode="&#x178;" horiz-adv-x="1191" d="M70 1190l32 129q176 -6 254 -6l320 16l8 -18l-27 -117q-72 -4 -97 -18.5t-25 -47.5q0 -63 114 -423h17l198 344q39 66 39 102.5t-94 42.5l-4 10l31 117q20 0 116.5 -4t145.5 -4l205 8l6 -14l-31 -123q-82 -27 -136.5 -81t-133.5 -181l-234 -367q-6 -10 -12 -21.5 t-11.5 -20.5t-9.5 -23.5t-7 -22.5t-6 -25.5t-5 -26.5t-5 -32t-4 -33t-5 -39.5t-7 -42.5q-10 -76 5.5 -105.5t70.5 -29.5l99 6l6 -10l-35 -137q-227 8 -326 8q-51 0 -130 -6t-132 -11l-53 -6l31 138q117 16 154.5 53t47.5 141l9 64q12 102 -31 211l-146 389 q-37 102 -74.5 145t-121.5 62zM467 1552q0 68 43 112t111 44q51 0 78.5 -28.5t27.5 -77.5q0 -68 -43 -112t-111 -44q-106 0 -106 106zM821 1552q0 68 44 112t110 44q51 0 78.5 -28.5t27.5 -77.5q0 -68 -42.5 -112t-110.5 -44q-51 0 -79 28.5t-28 77.5z" />
<glyph unicode="&#x179;" horiz-adv-x="1148" d="M-10 80l825 1087l-252 -16q-125 -8 -176 -61.5t-80 -198.5l-172 -12q59 252 86 440l25 20l350 -22l580 -8l24 -82q-377 -446 -844 -1082l310 23q98 8 160.5 82t105.5 235l172 15q-76 -268 -107 -467l-39 -39l-778 12l-153 -16zM518 1542l457 213l26 -10l52 -158l-11 -26 q-236 -59 -469 -134l-26 19z" />
<glyph unicode="&#x17a;" horiz-adv-x="989" d="M4 70l664 825l-187 -14q-100 -8 -139 -47t-61 -148l-160 -12q49 207 69 356l21 14l289 -16l495 -4l25 -72q-313 -350 -678 -821l233 21q82 8 130.5 63t80.5 176l160 15q-61 -221 -86 -379l-33 -31l-659 8l-127 -12zM391 1251l457 213l26 -10l52 -158l-11 -26 q-236 -59 -469 -133l-26 18z" />
<glyph unicode="&#x17b;" horiz-adv-x="1148" d="M-10 80l825 1087l-252 -16q-125 -8 -176 -61.5t-80 -198.5l-172 -12q59 252 86 440l25 20l350 -22l580 -8l24 -82q-377 -446 -844 -1082l310 23q98 8 160.5 82t105.5 235l172 15q-76 -268 -107 -467l-39 -39l-778 12l-153 -16zM606 1565q0 80 52.5 132t132.5 52 q59 0 91.5 -35t32.5 -92q0 -80 -51 -132t-129 -52q-63 0 -96 33.5t-33 93.5z" />
<glyph unicode="&#x17c;" horiz-adv-x="989" d="M4 70l664 825l-187 -14q-100 -8 -139 -47t-61 -148l-160 -12q49 207 69 356l21 14l289 -16l495 -4l25 -72q-313 -350 -678 -821l233 21q82 8 130.5 63t80.5 176l160 15q-61 -221 -86 -379l-33 -31l-659 8l-127 -12zM492 1274q0 80 52 132t132 52q59 0 92 -34.5t33 -92.5 q0 -80 -51 -132t-129 -52q-63 0 -96 33.5t-33 93.5z" />
<glyph unicode="&#x17d;" horiz-adv-x="1148" d="M-10 80l825 1087l-252 -16q-125 -8 -176 -61.5t-80 -198.5l-172 -12q59 252 86 440l25 20l350 -22l580 -8l24 -82q-377 -446 -844 -1082l310 23q98 8 160.5 82t105.5 235l172 15q-76 -268 -107 -467l-39 -39l-778 12l-153 -16zM438 1679l58 84l34 9q18 -8 120 -60.5 t116 -58.5q16 6 130 58t136 61l31 -9l41 -84l-346 -254h-39q-209 195 -281 254z" />
<glyph unicode="&#x17e;" horiz-adv-x="989" d="M4 70l664 825l-187 -14q-100 -8 -139 -47t-61 -148l-160 -12q49 207 69 356l21 14l289 -16l495 -4l25 -72q-313 -350 -678 -821l233 21q82 8 130.5 63t80.5 176l160 15q-61 -221 -86 -379l-33 -31l-659 8l-127 -12zM322 1389l57 84l35 8q18 -8 119.5 -60.5t115.5 -58.5 q16 6 130 58.5t136 60.5l31 -8l41 -84l-346 -254h-39q-209 195 -280 254z" />
<glyph unicode="&#x192;" horiz-adv-x="829" d="M-92 -246q0 37 21.5 102.5t41.5 90.5h29q16 -55 56 -92t89 -37q101 0 109 182l33 541q-2 49 -30 62t-124 13l-6 13l14 94l158 25l10 116q6 139 135 250t287 111q74 0 134.5 -18.5t60.5 -43.5q0 -31 -20.5 -102.5t-37.5 -95.5l-30 -2q-90 111 -176 110q-47 0 -74 -30.5 t-35 -70.5t-14 -114l-11 -115l250 2l8 -10l-20 -125l-248 4l-41 -538q-10 -164 -121.5 -285t-267.5 -121q-63 0 -121.5 27t-58.5 57z" />
<glyph unicode="&#x1fa;" horiz-adv-x="1243" d="M-80 -6l31 135q88 14 145 137l471 1037l322 34l22 -10q95 -707 158 -1059q12 -74 41 -103.5t94 -37.5l8 -14l-28 -119q-158 6 -244 6l-338 -16l-8 16l24 121q98 8 130 24.5t32 61.5q0 14 -4 59l-18 158q-53 4 -178 4q-96 0 -191 -14l-65 -158q-20 -49 -21 -76 q0 -53 80 -53h86l6 -12l-29 -127q-162 12 -286 12zM461 584h137q55 0 145 8l-57 457h-29zM565 1810l410 191l24 -8l48 -144l-11 -22q-211 -53 -422 -121l-24 16zM602 1505q0 86 56.5 143.5t142.5 57.5q72 0 106.5 -40t34.5 -99q0 -82 -55.5 -143.5t-143.5 -61.5 q-68 0 -104.5 39t-36.5 104zM696 1528q0 -33 21.5 -50.5t48.5 -17.5q82 0 82 78q0 66 -74 66q-37 0 -57.5 -20.5t-20.5 -55.5z" />
<glyph unicode="&#x1fb;" horiz-adv-x="1085" d="M-45 -4l27 115q70 12 112 100l375 805l311 28l19 -12q84 -569 131 -811q8 -57 31.5 -81.5t70.5 -28.5l8 -13l-24 -102q-131 4 -209 4l-287 -12l-8 12l20 109q80 6 103.5 17t23.5 44q0 27 -2 41l-12 104q-6 0 -66.5 1t-74.5 1q-92 0 -150 -8l-45 -108q-16 -33 -16 -51 q0 -37 59 -37h66l6 -13l-23 -108q-139 8 -241 8zM416 463h106q55 0 111 6l-43 332h-27zM424 1520l410 190l24 -8l47 -143l-10 -23q-211 -53 -422 -121l-24 17zM477 1225q0 86 56.5 143t142.5 57q72 0 106.5 -39.5t34.5 -99.5q0 -82 -55.5 -143.5t-143.5 -61.5 q-68 0 -104.5 39t-36.5 105zM571 1247q0 -33 21.5 -50t48.5 -17q82 0 82 77q0 66 -74 66q-37 0 -57.5 -20.5t-20.5 -55.5z" />
<glyph unicode="&#x1fc;" horiz-adv-x="1732" d="M-57 -6l6 121q23 4 61.5 46t75.5 105l508 873q-6 45 -45 45l-62 -4l-12 18l33 123q0 -6 487 -6q477 0 639 24l15 -22q-57 -180 -93 -371l-186 -14q16 72 16 117q0 59 -46 77.5t-193 18.5q-63 0 -85 -12.5t-22 -45.5l9 -372l192 24l195 39l18 -22l-45 -170l-182 -13 l-176 -22l8 -254q2 -72 29.5 -104.5t91.5 -32.5q162 0 214 40t93 193l174 15l14 -19q-59 -184 -102 -381l-23 -22q2 2 -98 5t-263 6t-296 3q-72 0 -151.5 -4t-123.5 -8l-43 -4l-8 16l23 123q174 14 176 129q4 41 4 70v188l-174 -21l-170 -32l-109 -201q-31 -59 -30 -84 q0 -27 21.5 -35t80.5 -8l62 -10l-29 -131q-2 2 -60.5 4t-139.5 5t-132 3zM526 649l123 8l125 17l2 370h-31zM866 1518q170 163 344 350l27 -2l111 -144l-2 -28q-197 -123 -388 -264l-30 8z" />
<glyph unicode="&#x1fd;" horiz-adv-x="1495" d="M-25 -4l7 108q47 10 110 109l391 659q-2 39 -37 39l-47 -2l-12 15l27 106q223 -4 442 -4q403 0 541 18l10 -18q-43 -150 -72 -299l-176 -12q14 55 15 86q0 45 -36 59t-149 14q-80 0 -80 -43l11 -264l145 21l164 35l18 -23l-39 -147l-153 -15l-133 -16l8 -172 q2 -109 92 -109q123 0 163 32t72 149l162 12l13 -19q-49 -147 -84 -307l-21 -18q2 0 -30.5 1t-89 3t-124 3t-152.5 2t-159 1l-268 -12l-8 12l20 109q74 8 104.5 29.5t32.5 62.5q4 33 4 51v129l-139 -16l-137 -31l-72 -133q-25 -43 -24 -58q0 -29 86 -28l39 -11l-25 -112 l-21 1q-22 1 -56 2t-71.5 2t-75.5 2t-63 1zM471 508l94 8l97 12l2 269h-31zM678 1227q170 163 344 350l27 -2l110 -143l-2 -29q-197 -123 -387 -264l-31 8z" />
<glyph unicode="&#x1fe;" horiz-adv-x="1329" d="M66 522q0 365 198.5 590t523.5 225q100 0 191 -28l111 184l124 -59l7 -27l-103 -168q195 -143 195 -440q0 -365 -203 -594.5t-526 -229.5q-104 0 -195 31l-137 -225l-123 59l-6 21l133 217q-190 145 -190 444zM379 535q0 -115 29 -205l450 776q-59 39 -129 39 q-162 0 -256 -161.5t-94 -448.5zM502 193q55 -43 135 -43q164 0 260 160.5t96 449.5q0 123 -35 215zM520 1552l457 213l27 -10l51 -158l-11 -26q-236 -59 -469 -133l-26 18z" />
<glyph unicode="&#x1ff;" horiz-adv-x="1128" d="M66 414q0 289 159.5 459.5t431.5 170.5q92 0 160 -20l105 154l122 -62l3 -22l-95 -140q143 -111 144 -336q0 -289 -163 -462.5t-433 -173.5q-84 0 -162 22l-123 -182l-119 63l-4 17l115 170q-141 115 -141 342zM348 1311l457 213l26 -11l52 -157l-11 -27 q-236 -59 -469 -133l-26 18zM354 420q0 -68 8 -109l340 537q-39 25 -94 24q-119 0 -186.5 -116.5t-67.5 -335.5zM446 166q42 -29 97 -29q123 0 191.5 117t68.5 336q0 68 -12 117z" />
<glyph unicode="&#x218;" horiz-adv-x="1069" d="M20 82q55 176 78 346l170 14q-20 -166 18 -227t163 -61q98 0 160.5 48t62.5 126q0 61 -53.5 106t-159.5 103q-63 35 -92 51t-81.5 54t-77 69.5t-46 81t-21.5 104.5q0 190 158 315t403 125q196 0 353 -53l12 -27q-55 -164 -90 -350l-154 -12l-16 12q14 70 14 107 q0 74 -41 105.5t-131 31.5t-148.5 -47t-58.5 -117q0 -86 144 -172q20 -12 99 -53t112.5 -64.5t86 -67.5t75 -95.5t22.5 -114.5q0 -199 -160 -322t-426 -123q-92 0 -182 19.5t-134 39.5l-44 19zM190 -555q61 43 100.5 100.5t39.5 108.5q0 84 -72 141l6 29q90 72 162 72 q61 0 101 -48.5t40 -128.5q0 -102 -85 -200.5t-216 -169.5l-76 61v35z" />
<glyph unicode="&#x219;" horiz-adv-x="923" d="M29 68q45 143 63 268l156 12q-14 -117 17.5 -163t125.5 -46q76 0 122 32t46 85q0 45 -43 78t-131 76q-63 33 -95 51t-78 54t-66.5 80t-20.5 97q0 156 134 254t345 98q74 0 148.5 -10t112.5 -21l38 -12l10 -24q-45 -129 -73 -275l-144 -10l-14 10q10 49 10 74 q0 100 -135 101q-68 0 -113 -32t-45 -81q0 -61 121 -125q16 -8 66.5 -32.5t76 -39t65.5 -42t60.5 -52t37 -62.5t16.5 -79q0 -160 -134.5 -255t-361.5 -95q-80 0 -155.5 15t-112.5 31l-37 15zM154 -555q61 43 100 100.5t39 108.5q0 84 -72 141l6 29q90 72 162 72 q61 0 101 -48.5t40 -128.5q0 -102 -85 -200.5t-216 -169.5l-75 61v35z" />
<glyph unicode="&#x21a;" horiz-adv-x="1128" d="M59 879q47 238 76 436l27 22l192 -22h619l207 22l18 -22q-22 -202 -33 -424l-170 -12q2 190 -26.5 232t-173.5 48q-29 -160 -81 -514t-52 -407q0 -55 21.5 -80t70.5 -25l108 6l6 -10l-34 -137q-242 8 -347 8l-333 -12l32 133q131 12 169.5 49t54.5 168l100 821 q-57 -2 -91 -5t-64.5 -16.5t-45 -26.5t-31 -49t-25.5 -70t-24 -101zM242 -555q61 43 100 100.5t39 108.5q0 84 -72 141l6 29q90 72 162 72q61 0 101 -48.5t40 -128.5q0 -102 -84.5 -200.5t-216.5 -169.5l-75 61v35z" />
<glyph unicode="&#x21b;" horiz-adv-x="976" d="M59 662q39 199 60 362l22 20l170 -18h510l178 18l17 -20l-29 -352l-156 -10q2 150 -21.5 183.5t-125.5 37.5q-98 -582 -98 -686q0 -80 76 -80l88 4l4 -8l-29 -121q-207 8 -295 8l-291 -12l27 118q106 8 138 37t44 121l76 619q-109 -4 -141.5 -38t-65.5 -173zM197 -555 q61 43 100 100.5t39 108.5q0 84 -72 141l6 29q90 72 162 72q61 0 101 -48.5t40 -128.5q0 -102 -85 -200.5t-216 -169.5l-75 61v35z" />
<glyph unicode="&#x237;" horiz-adv-x="581" d="M-61 -182l6 20q109 68 151 139.5t62 223.5l78 628q6 51 -2.5 67.5t-40.5 16.5l-68 -6l-8 17l24 100l211 2l266 12l-24 -118q-53 -10 -69.5 -24.5t-24.5 -61.5q-49 -268 -105 -678q-20 -158 -118.5 -255.5t-292.5 -150.5z" />
<glyph unicode="&#x2c6;" d="M158 1180q37 31 122 109.5t151 142.5l67 63h41q199 -248 264 -315l-70 -84l-33 -9q-12 10 -105 86t-106 84q-6 -4 -249 -170l-33 9z" />
<glyph unicode="&#x2c7;" d="M176 1391l72 86l33 6q86 -78 215 -174q178 115 258 174l28 -6l52 -86q-72 -63 -159 -144.5t-138 -130.5l-52 -49h-41q-141 181 -268 324z" />
<glyph unicode="&#x2d8;" d="M209 1376l63 70l37 8q37 -139 188.5 -139t221.5 139l37 -8l45 -70q-41 -109 -125 -182.5t-201 -73.5q-119 0 -184.5 74t-81.5 182z" />
<glyph unicode="&#x2d9;" d="M344 1300q0 82 52.5 134.5t129.5 52.5q61 0 94 -35t33 -92q0 -80 -52 -132t-130 -52q-61 0 -94 33.5t-33 90.5z" />
<glyph unicode="&#x2da;" d="M307 1272q0 94 62.5 157.5t156.5 63.5q80 0 119 -44t39 -110q0 -90 -61.5 -158.5t-159.5 -68.5q-76 0 -116 44t-40 116zM412 1296q0 -37 24 -56t53 -19q88 0 89 86q0 74 -80 73q-86 0 -86 -84z" />
<glyph unicode="&#x2db;" horiz-adv-x="788" d="M70 -328q0 82 68.5 168t242.5 246h111q-156 -164 -202 -226.5t-46 -121.5q0 -37 22.5 -60.5t61.5 -23.5q31 0 67.5 12t58.5 25l21 12l31 -59q-117 -102 -219 -138q-100 0 -158.5 44t-58.5 122z" />
<glyph unicode="&#x2dc;" d="M123 1178l2 22l180 207l33 8q35 0 149.5 -33.5t141.5 -33.5q20 0 55 28.5t60 57.5l26 28h23l73 -76l-4 -20l-180 -209l-33 -8q-35 0 -148.5 35t-140.5 35q-23 0 -58.5 -29t-59.5 -57l-25 -29h-22z" />
<glyph unicode="&#x2dd;" d="M113 1147l256 340l22 2l117 -103l2 -22q-154 -131 -303 -277l-29 3zM410 1147l254 340l24 2l117 -103l2 -22q-154 -131 -305 -277l-27 3z" />
<glyph unicode="&#x323;" horiz-adv-x="622" d="M59 -301q0 84 52.5 137t134.5 53q66 0 99.5 -35.5t33.5 -97.5q0 -82 -51 -135t-135 -53q-63 0 -98.5 36t-35.5 95z" />
<glyph unicode="&#x394;" horiz-adv-x="1204" d="M-35 27l580 1278l338 34h18q106 -799 205 -1325l-19 -14h-1103zM279 195h493l-96 868h-33z" />
<glyph unicode="&#x2206;" horiz-adv-x="1204" d="M-35 27l580 1278l338 34h18q106 -799 205 -1325l-19 -14h-1103zM279 195h493l-96 868h-33z" />
<glyph unicode="&#x3a9;" horiz-adv-x="1695" d="M12 29q8 74 14.5 172t9.5 159l3 62l147 14q-4 -143 28 -202.5t116 -63.5l141 -8q-209 205 -209 502q0 287 201 481t493 194q244 0 394.5 -136t150.5 -355q0 -197 -98 -374t-277 -314l160 10q82 4 128 59.5t79 192.5l149 14q-50 -239 -73 -407l-39 -39l-539 22l-114 -16 l-21 100q166 147 242 312t76 368q0 174 -66 269.5t-184 95.5q-164 0 -258.5 -145.5t-94.5 -415.5q0 -313 168 -482l-47 -104l-110 18l-539 -22z" />
<glyph unicode="&#x2126;" horiz-adv-x="1695" d="M12 29q8 74 14.5 172t9.5 159l3 62l147 14q-4 -143 28 -202.5t116 -63.5l141 -8q-209 205 -209 502q0 287 201 481t493 194q244 0 394.5 -136t150.5 -355q0 -197 -98 -374t-277 -314l160 10q82 4 128 59.5t79 192.5l149 14q-50 -239 -73 -407l-39 -39l-539 22l-114 -16 l-21 100q166 147 242 312t76 368q0 174 -66 269.5t-184 95.5q-164 0 -258.5 -145.5t-94.5 -415.5q0 -313 168 -482l-47 -104l-110 18l-539 -22z" />
<glyph unicode="&#x3c0;" horiz-adv-x="1230" d="M18 825l2 17l173 178l32 14q125 0 378 -10t298 -10q63 0 151.5 5t144.5 10l56 5l11 -14l-45 -143l-15 -15q-113 0 -150.5 -20.5t-54.5 -91.5q-73 -353 -73 -433q0 -72 32.5 -100.5t112.5 -28.5l16 -30q-4 -27 -84.5 -105t-105.5 -78q-131 0 -184.5 65.5t-34.5 203.5 l70 512q8 68 -8.5 84t-92.5 16q-70 0 -88 -14.5t-29 -75.5q-61 -389 -100 -698l-18 -203l-19 -21l-246 -45l-12 29q12 27 79 455t67 495q0 37 -11.5 51.5t-42.5 14.5q-55 0 -141 -103l-16 -2z" />
<glyph unicode="&#x1e80;" horiz-adv-x="1910" d="M78 1198l31 121q156 -6 237 -6q72 0 154 5t128 9l46 4l8 -16l-25 -123q-96 -8 -127.5 -27.5t-31.5 -68.5l71 -832h29q31 74 96.5 234.5t118.5 288.5t92 219q4 55 -6 86q-4 51 -33.5 70.5t-99.5 21.5l-8 14l33 121q178 -6 268 -6l325 18l9 -16l-25 -123 q-100 -8 -131 -27.5t-31 -68.5l74 -832h29q344 803 344 873q0 27 -20.5 38t-69.5 11h-74l-8 14l30 125q162 -12 283 -12l219 6l-28 -133q-47 -8 -69 -28.5t-48 -78.5l-473 -1069l-326 -41l-78 740h-20l-287 -699l-328 -41q-84 696 -145 1088q-12 66 -41 94.5t-84 32.5z M801 1587l51 158l27 10q236 -117 456 -213l-26 -96l-29 -19q-233 74 -469 134z" />
<glyph unicode="&#x1e81;" horiz-adv-x="1626" d="M76 926l26 104q129 -6 201 -6l281 12l6 -12l-21 -106q-68 -6 -97.5 -63.5t-29.5 -111.5q0 -90 12.5 -220t25.5 -214l14 -84h26q35 80 119 286t115 277v60q-4 37 -26.5 51t-80.5 14l-6 13l27 104q154 -6 233 -6l279 12l8 -12l-23 -106q-78 -8 -102.5 -22.5t-24.5 -55.5 l54 -615h26q258 598 258 652q0 20 -14 27t-53 7h-56l-8 15l27 106q137 -8 233 -8l187 4l-25 -115q-35 -6 -53.5 -22.5t-38.5 -59.5l-365 -823l-313 -33l-57 541h-17l-213 -508l-313 -33q-74 573 -117 836q-10 53 -31.5 75.5t-64.5 26.5zM641 1296l51 158l27 10 q236 -117 457 -213l-27 -96l-29 -18q-233 73 -469 133z" />
<glyph unicode="&#x1e82;" horiz-adv-x="1910" d="M78 1198l31 121q156 -6 237 -6q72 0 154 5t128 9l46 4l8 -16l-25 -123q-96 -8 -127.5 -27.5t-31.5 -68.5l71 -832h29q31 74 96.5 234.5t118.5 288.5t92 219q4 55 -6 86q-4 51 -33.5 70.5t-99.5 21.5l-8 14l33 121q178 -6 268 -6l325 18l9 -16l-25 -123 q-100 -8 -131 -27.5t-31 -68.5l74 -832h29q344 803 344 873q0 27 -20.5 38t-69.5 11h-74l-8 14l30 125q162 -12 283 -12l219 6l-28 -133q-47 -8 -69 -28.5t-48 -78.5l-473 -1069l-326 -41l-78 740h-20l-287 -699l-328 -41q-84 696 -145 1088q-12 66 -41 94.5t-84 32.5z M897 1542l457 213l26 -10l52 -158l-11 -26q-236 -59 -469 -134l-26 19z" />
<glyph unicode="&#x1e83;" horiz-adv-x="1626" d="M76 926l26 104q129 -6 201 -6l281 12l6 -12l-21 -106q-68 -6 -97.5 -63.5t-29.5 -111.5q0 -90 12.5 -220t25.5 -214l14 -84h26q35 80 119 286t115 277v60q-4 37 -26.5 51t-80.5 14l-6 13l27 104q154 -6 233 -6l279 12l8 -12l-23 -106q-78 -8 -102.5 -22.5t-24.5 -55.5 l54 -615h26q258 598 258 652q0 20 -14 27t-53 7h-56l-8 15l27 106q137 -8 233 -8l187 4l-25 -115q-35 -6 -53.5 -22.5t-38.5 -59.5l-365 -823l-313 -33l-57 541h-17l-213 -508l-313 -33q-74 573 -117 836q-10 53 -31.5 75.5t-64.5 26.5zM698 1251l457 213l27 -10l51 -158 l-10 -26q-236 -59 -469 -133l-27 18z" />
<glyph unicode="&#x1e84;" horiz-adv-x="1910" d="M78 1198l31 121q156 -6 237 -6q72 0 154 5t128 9l46 4l8 -16l-25 -123q-96 -8 -127.5 -27.5t-31.5 -68.5l71 -832h29q31 74 96.5 234.5t118.5 288.5t92 219q4 55 -6 86q-4 51 -33.5 70.5t-99.5 21.5l-8 14l33 121q178 -6 268 -6l325 18l9 -16l-25 -123 q-100 -8 -131 -27.5t-31 -68.5l74 -832h29q344 803 344 873q0 27 -20.5 38t-69.5 11h-74l-8 14l30 125q162 -12 283 -12l219 6l-28 -133q-47 -8 -69 -28.5t-48 -78.5l-473 -1069l-326 -41l-78 740h-20l-287 -699l-328 -41q-84 696 -145 1088q-12 66 -41 94.5t-84 32.5z M819 1552q0 68 43 112t111 44q51 0 78.5 -28.5t27.5 -77.5q0 -68 -42.5 -112t-110.5 -44q-106 0 -107 106zM1174 1552q0 68 44 112t109 44q51 0 79 -28.5t28 -77.5q0 -68 -43 -112t-111 -44q-51 0 -78.5 28.5t-27.5 77.5z" />
<glyph unicode="&#x1e85;" horiz-adv-x="1626" d="M76 926l26 104q129 -6 201 -6l281 12l6 -12l-21 -106q-68 -6 -97.5 -63.5t-29.5 -111.5q0 -90 12.5 -220t25.5 -214l14 -84h26q35 80 119 286t115 277v60q-4 37 -26.5 51t-80.5 14l-6 13l27 104q154 -6 233 -6l279 12l8 -12l-23 -106q-78 -8 -102.5 -22.5t-24.5 -55.5 l54 -615h26q258 598 258 652q0 20 -14 27t-53 7h-56l-8 15l27 106q137 -8 233 -8l187 4l-25 -115q-35 -6 -53.5 -22.5t-38.5 -59.5l-365 -823l-313 -33l-57 541h-17l-213 -508l-313 -33q-74 573 -117 836q-10 53 -31.5 75.5t-64.5 26.5zM645 1272q0 68 43 111.5t111 43.5 q51 0 78.5 -28.5t27.5 -77.5q0 -68 -42.5 -112t-110.5 -44q-106 0 -107 107zM999 1272q0 68 44 111.5t110 43.5q51 0 79 -28.5t28 -77.5q0 -68 -43 -112t-111 -44q-51 0 -79 29t-28 78z" />
<glyph unicode="&#x1ef2;" horiz-adv-x="1191" d="M70 1190l32 129q176 -6 254 -6l320 16l8 -18l-27 -117q-72 -4 -97 -18.5t-25 -47.5q0 -63 114 -423h17l198 344q39 66 39 102.5t-94 42.5l-4 10l31 117q20 0 116.5 -4t145.5 -4l205 8l6 -14l-31 -123q-82 -27 -136.5 -81t-133.5 -181l-234 -367q-6 -10 -12 -21.5 t-11.5 -20.5t-9.5 -23.5t-7 -22.5t-6 -25.5t-5 -26.5t-5 -32t-4 -33t-5 -39.5t-7 -42.5q-10 -76 5.5 -105.5t70.5 -29.5l99 6l6 -10l-35 -137q-227 8 -326 8q-51 0 -130 -6t-132 -11l-53 -6l31 138q117 16 154.5 53t47.5 141l9 64q12 102 -31 211l-146 389 q-37 102 -74.5 145t-121.5 62zM436 1587l51 158l27 10q236 -117 457 -213l-27 -96l-29 -19q-233 74 -469 134z" />
<glyph unicode="&#x1ef3;" horiz-adv-x="1048" d="M72 915l28 113q158 -4 222 -4l270 12l8 -16l-22 -100q-53 -2 -74 -13.5t-21 -36.5q0 -18 86 -301h19l141 242q33 55 33 76q0 31 -74 31l-4 10l25 102q25 0 106.5 -3t122.5 -3l172 6l6 -12l-26 -109q-63 -23 -109.5 -67.5t-108.5 -134.5l-188 -285q-18 -27 -28.5 -59.5 t-13.5 -55t-11 -86.5q-8 -59 5 -81.5t58 -22.5l82 4l6 -8l-28 -121q-203 8 -289 8l-279 -16l27 118q98 10 130 38t42 106l4 43q8 74 -27 157l-126 308q-27 68 -60 101.5t-98 51.5zM334 1296l51 158l27 10q236 -117 456 -213l-26 -96l-29 -18q-233 73 -469 133z" />
<glyph unicode="&#x2000;" horiz-adv-x="1000" />
<glyph unicode="&#x2001;" horiz-adv-x="2001" />
<glyph unicode="&#x2002;" horiz-adv-x="1000" />
<glyph unicode="&#x2003;" horiz-adv-x="2001" />
<glyph unicode="&#x2004;" horiz-adv-x="667" />
<glyph unicode="&#x2005;" horiz-adv-x="500" />
<glyph unicode="&#x2006;" horiz-adv-x="333" />
<glyph unicode="&#x2007;" horiz-adv-x="333" />
<glyph unicode="&#x2008;" horiz-adv-x="250" />
<glyph unicode="&#x2009;" horiz-adv-x="400" />
<glyph unicode="&#x200a;" horiz-adv-x="111" />
<glyph unicode="&#x2010;" horiz-adv-x="638" d="M63 422l35 160l326 39l149 20l17 -27l-37 -163l-473 -54z" />
<glyph unicode="&#x2011;" horiz-adv-x="638" d="M63 422l35 160l326 39l149 20l17 -27l-37 -163l-473 -54z" />
<glyph unicode="&#x2012;" horiz-adv-x="638" d="M63 422l35 160l326 39l149 20l17 -27l-37 -163l-473 -54z" />
<glyph unicode="&#x2013;" horiz-adv-x="894" d="M-18 461l41 155h475q311 1 420 9l10 -31l-39 -158q-168 0 -491.5 -1t-403.5 -1z" />
<glyph unicode="&#x2014;" horiz-adv-x="1724" d="M-18 461l41 155h862q770 1 860 9l12 -31l-41 -158q-324 0 -946.5 -1t-775.5 -1z" />
<glyph unicode="&#x2018;" horiz-adv-x="438" d="M125 967q0 102 85 200.5t216 171.5l76 -61v-35q-61 -41 -100.5 -99.5t-39.5 -111.5q0 -82 72 -139l-6 -29q-90 -72 -162 -71q-61 0 -101 47t-40 127z" />
<glyph unicode="&#x2019;" horiz-adv-x="438" d="M84 854v35q61 41 100 98t39 111q1 86 -71 141l6 29q92 72 161 71q61 0 101.5 -48t40.5 -128q0 -102 -85 -200.5t-216 -169.5z" />
<glyph unicode="&#x201a;" horiz-adv-x="468" d="M-51 -190q66 45 106.5 108.5t40.5 124.5q0 84 -61 150l4 28q92 70 162 70q61 0 100 -49t39 -133q0 -106 -90 -213t-223 -183l-78 62v35z" />
<glyph unicode="&#x201c;" horiz-adv-x="806" d="M248 967q0 102 85 200.5t216 171.5l76 -61v-35q-61 -41 -100.5 -99.5t-39.5 -111.5q0 -82 72 -139l-6 -29q-90 -72 -162 -71q-61 0 -101 47t-40 127zM614 967q0 102 85 200.5t216 171.5l76 -61v-35q-61 -41 -100 -99.5t-39 -111.5q0 -82 72 -139l-6 -29q-90 -72 -162 -71 q-61 0 -101.5 47t-40.5 127z" />
<glyph unicode="&#x201d;" horiz-adv-x="806" d="M215 854v35q61 41 100 98t39 111q1 86 -71 141l6 29q92 72 162 71q61 0 101 -48t40 -128q0 -102 -85 -200.5t-216 -169.5zM582 854v35q61 41 100 98t39 111q0 86 -72 141l6 29q92 72 162 71q61 0 101 -48t40 -128q0 -102 -85 -200.5t-216 -169.5z" />
<glyph unicode="&#x201e;" horiz-adv-x="835" d="M-39 -160q61 41 100 99.5t39 111.5q1 83 -69 142l4 28q92 70 162 70q61 0 101 -47t40 -127q0 -102 -85 -200.5t-216 -172.5l-76 61v35zM332 -160q61 41 100 99.5t39 111.5q0 83 -70 142l5 28q92 70 161 70q61 0 101.5 -47t40.5 -127q0 -102 -85 -200.5t-216 -172.5 l-76 61v35z" />
<glyph unicode="&#x2020;" horiz-adv-x="983" d="M102 672l33 159h316l43 367l186 14l14 -16l-47 -365l314 5l16 -23l-35 -164h-319l-101 -823l-180 -12l-16 18l102 817h-313z" />
<glyph unicode="&#x2021;" horiz-adv-x="980" d="M45 203l33 159l313 3l41 323h-311l-15 23l33 159h316l39 328l186 14l14 -16l-43 -326l314 2l16 -20l-35 -164h-319l-39 -323l317 2l15 -21l-35 -164h-320l-43 -356l-180 -12l-16 18l43 350h-312z" />
<glyph unicode="&#x2022;" horiz-adv-x="671" d="M96 438q0 125 78 207t201 82q96 0 150.5 -57.5t54.5 -151.5q0 -123 -78 -205t-201 -82q-98 0 -151.5 56.5t-53.5 150.5z" />
<glyph unicode="&#x2024;" horiz-adv-x="471" d="M35 111q0 84 52 137t134 53q63 0 98 -36t35 -97q0 -82 -52 -136.5t-134 -54.5q-66 0 -99.5 36t-33.5 98z" />
<glyph unicode="&#x2025;" horiz-adv-x="907" d="M35 111q0 84 52 137t134 53q63 0 98 -36t35 -97q0 -82 -52 -136.5t-134 -54.5q-66 0 -99.5 36t-33.5 98zM479 111q0 84 52.5 137t134.5 53q63 0 98 -36t35 -97q0 -82 -52.5 -136.5t-134.5 -54.5q-66 0 -99.5 36t-33.5 98z" />
<glyph unicode="&#x2026;" horiz-adv-x="1341" d="M39 111q0 84 52 137t134 53q63 0 98 -36t35 -97q0 -82 -52 -136.5t-134 -54.5q-66 0 -99.5 36t-33.5 98zM473 111q0 84 52.5 137t133.5 53q63 0 98.5 -36t35.5 -97q0 -82 -52.5 -136.5t-134.5 -54.5q-66 0 -99.5 36t-33.5 98zM911 111q0 84 52.5 137t134.5 53 q63 0 98 -36t35 -97q0 -82 -52.5 -136.5t-134.5 -54.5q-66 0 -99.5 36t-33.5 98z" />
<glyph unicode="&#x202f;" horiz-adv-x="400" />
<glyph unicode="&#x2030;" horiz-adv-x="2078" d="M90 915q0 190 99.5 307t256.5 117q119 0 184.5 -76.5t65.5 -201.5q0 -188 -96 -308t-256 -120q-117 0 -185.5 74.5t-68.5 207.5zM145 -106q248 369 424 647l537 848l127 -52l14 -39q-360 -547 -545 -833q-414 -655 -413 -655l-133 55zM223 973q0 -70 44 -103.5t118 -33.5 q176 0 176 155q0 63 -42 100t-122 37q-174 0 -174 -155zM788 258q0 190 99.5 307t257.5 117q119 0 184.5 -77t65.5 -202q0 -188 -97.5 -308t-257.5 -120q-117 0 -184.5 76t-67.5 207zM920 317q-1 -137 163 -137q176 0 177 154q0 66 -42 102.5t-122 36.5q-84 0 -130 -41 t-46 -115zM1452 258q0 190 99.5 307t254.5 117q119 0 185.5 -77t66.5 -202q0 -188 -97 -308t-257 -120q-117 0 -184.5 76t-67.5 207zM1583 317q0 -137 162 -137q176 0 176 154q0 66 -41 102.5t-121 36.5q-84 0 -130 -41t-46 -115z" />
<glyph unicode="&#x2039;" horiz-adv-x="524" d="M27 440l4 43q292 277 366 359l80 -51l4 -33q-14 -23 -106 -149t-103 -140q6 -18 68.5 -148.5t69.5 -146.5l-13 -33l-90 -51q-55 82 -280 350z" />
<glyph unicode="&#x203a;" horiz-adv-x="524" d="M45 174q10 16 60.5 84t94.5 129.5t50 75.5q-4 12 -33 73.5t-62.5 134t-39.5 85.5l12 32l90 54q25 -37 95.5 -125t128.5 -158l59 -70l-6 -40q-291 -277 -367 -359l-80 51z" />
<glyph unicode="&#x2044;" horiz-adv-x="317" d="M-477 -106q248 369 424 647l536 848l127 -52l15 -39q-360 -547 -545 -833l-414 -655l-133 55z" />
<glyph unicode="&#x205f;" horiz-adv-x="500" />
<glyph unicode="&#x2070;" horiz-adv-x="698" d="M57 991q0 223 102.5 361.5t266.5 138.5q113 0 173 -82t60 -229q0 -225 -101 -363.5t-265 -138.5q-115 0 -175.5 82t-60.5 231zM197 1049q0 -166 141 -166q178 0 178 229q0 168 -143 168q-176 0 -176 -231z" />
<glyph unicode="&#x2074;" horiz-adv-x="671" d="M2 893l16 106l396 490l10 2l145 -14l-53 -453h98l11 -18l-29 -127l-96 4l-15 -174l-12 -15l-186 -14l-13 14q20 100 33 193zM174 1024h152l24 213h-14z" />
<glyph unicode="&#x2075;" horiz-adv-x="606" d="M10 834l29 24q49 -23 113 -22q74 0 120.5 31.5t46.5 80.5q0 45 -52 69.5t-169 33.5l-8 14l70 383l14 10l266 8q39 0 57.5 11.5t32.5 42.5l91 6l-64 -215l-25 -19q-119 10 -256 11l-20 -109q147 -20 215 -70.5t68 -136.5q0 -117 -135.5 -213t-290.5 -96q-61 0 -84 36 t-19 120z" />
<glyph unicode="&#x2076;" horiz-adv-x="655" d="M39 930q0 121 55.5 223t134 161.5t156.5 101.5t133 59l55 16l15 -8l20 -86q-23 -8 -57.5 -24.5t-114.5 -78t-127 -137.5l4 -12q70 35 101 41q90 0 141 -56.5t51 -144.5q0 -135 -92 -221t-240 -86q-109 0 -172 69.5t-63 182.5zM227 928q0 -119 80 -119q104 0 105 139 q0 103 -78 103q-47 0 -94 -31q-12 -66 -13 -92z" />
<glyph unicode="&#x2077;" horiz-adv-x="604" d="M63 1182q39 164 62 293l8 6q78 -6 160 -6h289l53 -76q-143 -248 -305 -551l-66 -168h-26l-138 43l-12 35l344 557l-149 -10q-61 -6 -83 -27t-42 -88z" />
<glyph unicode="&#x2078;" horiz-adv-x="665" d="M37 856q0 135 160 203q-98 72 -99 176q0 106 88 181t215 75q94 0 159 -48t65 -126q0 -123 -136 -191q104 -66 105 -172q0 -115 -94 -195.5t-228 -80.5q-102 0 -168.5 49t-66.5 129zM211 895q0 -43 24.5 -70.5t67.5 -27.5t70.5 26.5t27.5 67.5q0 25 -20.5 47.5t-39.5 34.5 t-67 37q-63 -55 -63 -115zM289 1282q0 -33 27.5 -56.5t82.5 -51.5q49 49 50 110q0 80 -72 80q-39 0 -63.5 -23.5t-24.5 -58.5z" />
<glyph unicode="&#x2079;" horiz-adv-x="653" d="M61 774q8 2 21.5 8t52.5 26.5t75 46.5t79 68t73 91l-4 12q-63 -33 -100 -41q-92 0 -142 55.5t-50 145.5q0 135 91 220t240 85q106 0 171 -68.5t65 -181.5q0 -121 -55.5 -223.5t-134 -162.5t-156.5 -102t-133 -58l-56 -15l-14 6zM258 1223q0 -103 78 -103q41 0 92 29 q14 49 14 94q0 119 -80 119q-104 0 -104 -139z" />
<glyph unicode="&#x207f;" horiz-adv-x="755" d="M51 1210l15 93l276 12l18 -25q-39 -119 -55 -233h8q102 217 195 274q80 0 126 -37t46 -100q0 -37 -42 -169t-46 -155l4 -4q14 0 80 62l29 -6l24 -54q-98 -104 -154.5 -145t-101.5 -41q-76 0 -76 68q0 33 44 174t44 174q0 43 -32 43q-29 0 -80 -87t-103 -225l-10 -86 q-4 -23 -56 -41t-110 -18l-22 27q63 377 71 444q6 55 -49 55h-43z" />
<glyph unicode="&#x2080;" horiz-adv-x="698" d="M57 49q0 225 102.5 363.5t266.5 138.5q113 0 173 -82t60 -229q0 -225 -101 -363.5t-265 -138.5q-115 0 -175.5 81t-60.5 230zM197 109q0 -168 141 -168q178 0 178 229q0 170 -143 170q-84 0 -130 -59.5t-46 -171.5z" />
<glyph unicode="&#x2081;" horiz-adv-x="526" d="M6 -260l23 94q63 6 93 28.5t36 69.5l49 404q6 45 -5.5 59.5t-47.5 14.5l-66 -4l-8 10l18 86q63 6 168 20l207 29l12 -49q-42 -33 -65 -101q-16 -63 -44 -253.5t-28 -231.5q0 -63 45 -63l62 4l4 -9l-31 -100q-125 6 -195 6z" />
<glyph unicode="&#x2082;" horiz-adv-x="700" d="M12 -160l185 178q184 195 184 287q0 66 -74 66q-90 0 -180 -109h-23l-12 127q61 74 141 118t154 44q98 0 159.5 -48t61.5 -126q0 -86 -68.5 -186.5t-248.5 -280.5l6 -10h106q55 0 82 25.5t47 94.5l127 11q-49 -158 -69 -271l-23 -18q-311 12 -440 12l-113 -12z" />
<glyph unicode="&#x2083;" horiz-adv-x="618" d="M20 -109l27 25q55 -20 115 -20q74 0 121 31.5t47 80.5q0 80 -160 80l-14 16v101l88 16q102 45 102 125q0 25 -17.5 40t-43.5 15q-63 0 -148 -55h-18l-21 113q53 33 131 62.5t136 29.5q88 0 140 -40t52 -105q0 -61 -46 -114.5t-122 -82.5l-2 -12q164 -57 164 -174 q0 -106 -137.5 -195.5t-294.5 -89.5q-61 0 -82 33.5t-17 119.5z" />
<glyph unicode="&#x2084;" horiz-adv-x="671" d="M2 -49l16 108l396 488l10 4l145 -16l-53 -453h98l11 -16l-29 -127l-96 2q-14 -172 -15 -172l-12 -15l-186 -14l-13 12q20 102 33 195zM174 82h152l24 213h-14z" />
<glyph unicode="&#x2085;" horiz-adv-x="606" d="M10 -109l29 25q51 -20 113 -20q74 0 120.5 31.5t46.5 80.5q0 45 -52 67.5t-169 33.5l-8 16l70 381l14 10l266 8q66 2 90 54l91 6l-64 -213l-25 -21q-119 10 -256 10l-20 -106q150 -23 216.5 -72t66.5 -135q0 -117 -135.5 -213t-290.5 -96q-61 0 -84 34.5t-19 118.5z" />
<glyph unicode="&#x2086;" horiz-adv-x="655" d="M39 -10q0 121 55.5 223t134 161.5t156.5 101.5t133 59l55 16l15 -8l20 -88q-23 -8 -57.5 -23.5t-114.5 -78t-127 -138.5l4 -12q55 33 101 41q90 0 141 -55.5t51 -143.5q0 -135 -92 -221t-240 -86q-109 0 -172 68.5t-63 183.5zM227 -12q0 -121 80 -121q104 0 105 139 q0 103 -78 103q-47 0 -94 -31q-12 -66 -13 -90z" />
<glyph unicode="&#x2087;" horiz-adv-x="604" d="M63 242q39 162 62 293l8 6q78 -6 160 -6h289l53 -76q-143 -248 -305 -551l-66 -168h-26l-138 41l-12 35l344 559l-149 -13q-61 -4 -83 -24.5t-42 -87.5z" />
<glyph unicode="&#x2088;" horiz-adv-x="665" d="M37 -86q0 135 160 203q-98 76 -99 178q0 106 89 181t214 75q94 0 159 -49t65 -125q0 -123 -136 -191q104 -70 105 -172q0 -117 -94 -196.5t-228 -79.5q-102 0 -168.5 49t-66.5 127zM211 -45q0 -43 24.5 -70.5t67.5 -27.5t70.5 25.5t27.5 66.5q0 25 -21.5 48t-38.5 33.5 t-67 37.5q-63 -49 -63 -113zM289 342q0 -55 110 -109q49 49 50 111q0 80 -72 80q-39 0 -63.5 -23.5t-24.5 -58.5z" />
<glyph unicode="&#x2089;" horiz-adv-x="653" d="M61 -166q23 8 58 23.5t114.5 77t128.5 139.5l-4 10q-72 -33 -100 -41q-90 0 -141 56.5t-51 144.5q0 135 91 221t240 86q106 0 171 -69.5t65 -182.5q0 -121 -55.5 -223.5t-134 -162.5t-156.5 -102t-133 -58l-56 -15l-14 8zM258 281q0 -47 20.5 -75t57.5 -28t92 31 q14 49 14 92q0 121 -80 121q-104 0 -104 -141z" />
<glyph unicode="&#x20a3;" horiz-adv-x="935" d="M29 -18l26 122q74 10 97.5 39t37.5 117h-124l-11 12l25 90h123l59 469q6 49 -1 65.5t-36 16.5l-53 -2l-10 21l26 102q143 -4 267 -4h104q217 0 422 21l16 -21q-43 -147 -69 -291l-176 -10q12 59 12 86q0 39 -31 52.5t-121 13.5q-10 0 -20 -1t-14 -1q-8 0 -14.5 -3.5 t-11.5 -9.5t-8 -10t-6 -14.5t-5.5 -15.5t-5.5 -17t-4 -17.5t-3 -17.5t-2 -16l-24 -150q43 -2 143 -2l178 15l14 -21l-41 -143q-102 6 -174 6l-145 -10l-14 -91q49 0 118.5 1.5t77.5 1.5l11 -15l-21 -90h-180l-27 -41q-6 -51 5.5 -68.5t47.5 -17.5l101 8l12 -24l-33 -121h-41 q-28 0 -88.5 1t-89.5 1q-23 0 -61.5 1t-53.5 1q-45 0 -96 -5t-80 -9z" />
<glyph unicode="&#x20ac;" horiz-adv-x="1130" d="M-6 352l24 97h138q4 72 14 122h-137l-10 15l24 96h154q68 172 215 267t358 95q61 0 144 -10t137 -20l53 -10l8 -23q-49 -133 -82 -303l-168 -12q14 78 15 108q0 111 -164 111q-193 0 -262 -203h6l297 8l12 -18l-22 -99l-316 -2q-8 -49 -8 -122h8l297 8l12 -19l-22 -98 l-287 -2q37 -201 211 -201q86 0 138.5 49.5t86.5 167.5l168 13q-45 -168 -67 -304l-19 -18q-147 -63 -350 -63q-186 0 -302 93t-138 263h-156z" />
<glyph unicode="&#x2122;" horiz-adv-x="1126" d="M16 1128q16 104 29 187l10 6l86 -8h250l92 8l9 -6q-14 -180 -15 -180l-88 -7q2 72 -7 89.5t-50 19.5q-43 -258 -43 -311q0 -37 35 -37l43 2l2 -6l-15 -64q-106 4 -151 4l-152 -6l15 62q51 6 66.5 18t21.5 53l34 285q-43 -2 -56 -19.5t-30 -82.5zM449 819l14 62 q43 6 53 53l64 297q0 18 -52 24l-4 7l15 55q80 -4 110 -4l109 4q14 -133 41 -268h10q59 135 113 266h127q76 2 75 2l6 -2l-12 -58q-35 -2 -45 -9t-14 -29q-6 -43 -12 -267q-2 -39 4 -52t24 -13l23 2l6 -6l-17 -60q-49 2 -81 2q-129 0 -140 -6l13 64q47 2 49 37l16 204h-8 q-65 -131 -137 -303l-84 -6q-43 231 -62 309h-8q-37 -207 -37 -217q0 -23 23 -22l24 2q4 -4 7 -4l-19 -60q-78 2 -104 2z" />
<glyph unicode="&#x212e;" horiz-adv-x="1632" d="M82 653q0 283 221 481.5t535 198.5q311 0 532 -198.5t221 -481.5v-16h-1222q-10 0 -11 -8v-371q0 -20 19 -43q186 -199 463 -199q295 0 485 224h111q-104 -123 -262 -194t-336 -71q-311 0 -533.5 199t-222.5 479zM358 684q0 -10 11 -10h938q10 0 10 10v373q0 25 -21 45 q-190 190 -456 190q-270 0 -461 -196q-20 -20 -21 -47v-365z" />
<glyph unicode="&#x2202;" horiz-adv-x="1007" d="M45 365q0 238 138.5 409.5t324.5 171.5q18 -4 46 -16t46 -23l18 -10l7 10q-94 268 -441 484l80 114l29 13q307 -141 488.5 -382t181.5 -536q0 -274 -152 -450.5t-389 -176.5q-182 0 -279.5 107.5t-97.5 284.5zM319 379q0 -115 43.5 -181.5t123 -66.5t137 128t57.5 312 q0 70 -4 136q-59 59 -144 59q-96 0 -154.5 -104.5t-58.5 -282.5z" />
<glyph unicode="&#x220f;" horiz-adv-x="1409" d="M8 -18l31 133q88 18 121 52t43 120q100 797 100 821q0 39 -13.5 53.5t-47.5 14.5l-68 -2l-8 16l33 133q197 -8 276 -8h649q61 0 192.5 6t133.5 8l-29 -143q-76 -10 -103.5 -32t-37.5 -79q-127 -748 -127 -858q0 -49 14.5 -66.5t49.5 -17.5l83 6l7 -14l-33 -131 q-207 6 -295 6q-49 0 -116.5 -4t-111.5 -9l-44 -5l28 133q82 18 113 52t41 120q10 88 36.5 273t44 321.5t17.5 201.5q0 55 -37 66.5t-172 11.5q-104 0 -140 -19.5t-46 -80.5q-127 -739 -127 -846q0 -70 35 -76q25 -6 45 -6l57 6l10 -14l-34 -131l-43 1q-43 1 -106.5 3 t-98.5 2q-84 0 -202 -7t-120 -11z" />
<glyph unicode="&#x2211;" horiz-adv-x="1124" d="M-53 68l497 559l-317 606l41 78q0 -2 2 -2q8 0 23.5 1t23.5 1l506 6q14 0 354 22l19 -20q-18 -182 -29 -412l-168 -26q8 135 -32 195.5t-156 70.5l-256 20l245 -473l-6 -59l-426 -488l338 31q98 6 158.5 77t99.5 216l176 14q-71 -259 -98 -452l-41 -39l-772 12l-137 -18z " />
<glyph unicode="&#x2212;" horiz-adv-x="999" d="M31 444l51 185q285 -2 461 -2l432 12l10 -25l-45 -188l-448 -2l-449 -2z" />
<glyph unicode="&#x221a;" horiz-adv-x="997" d="M31 809l30 121q125 8 197 14l137 14l13 -16q-2 -57 16 -233.5t37 -324.5l18 -148h23l487 1251l47 33h164l-618 -1512l-287 -33q-96 570 -127 730q-12 57 -42 77.5t-89 18.5z" />
<glyph unicode="&#x221e;" horiz-adv-x="1017" d="M23 457q0 160 96 272.5t221 112.5q150 0 227 -162q100 168 242 168q90 0 144.5 -76t54.5 -186q0 -166 -99.5 -279.5t-230.5 -113.5q-152 0 -223 167q-96 -162 -232 -161q-90 0 -145 74.5t-55 183.5zM166 502q0 -51 30 -83t83 -32q68 0 139 76q-29 88 -58.5 134t-80.5 46 q-47 0 -80 -39t-33 -102zM610 584q18 -53 27.5 -76t28 -56.5t39 -47t47.5 -13.5q51 0 85.5 40t34.5 106q0 55 -32.5 90t-89.5 35q-76 0 -140 -78z" />
<glyph unicode="&#x222b;" horiz-adv-x="845" d="M-74 -244q0 37 20.5 102.5t41.5 88.5h28q16 -55 56.5 -92t89.5 -37q106 0 108 182l35 872q4 133 135 244t287 111q70 0 127 -18.5t57 -43.5q0 -31 -20.5 -103.5t-36.5 -94.5l-33 -4q-80 111 -164 110q-106 0 -114 -139l-51 -854q-8 -174 -123 -292t-265 -118 q-63 0 -120.5 27t-57.5 59z" />
<glyph unicode="&#x2248;" horiz-adv-x="999" d="M25 238l2 20l209 209l38 8q49 0 215 -40t207 -40q25 0 66 30t69 58l29 29h23l61 -78l-2 -20l-207 -209l-41 -8q-49 0 -215 39.5t-207 39.5q-25 0 -65.5 -29.5t-69.5 -58.5l-28 -28h-23zM70 606l2 23l209 207l38 8q51 0 216 -40t206 -40q25 0 66 29.5t70 58.5l28 29h23 l63 -78l-4 -21l-207 -209l-39 -8q-49 0 -215 40t-207 40q-25 0 -66.5 -28.5t-70.5 -57.5l-28 -29h-23z" />
<glyph unicode="&#x2260;" horiz-adv-x="999" d="M4 264l51 185q172 -2 332 -3l53 162l-379 -2l-12 23l51 184q227 -2 400 -2l86 266l145 8l12 -18l-84 -256l334 12l11 -24l-43 -189q-59 0 -180.5 -1t-182.5 -1l-53 -162l405 13l8 -25l-43 -188q-63 0 -190 -1t-190 -1h-52l-82 -248l-145 -12l-8 18l76 242l-308 -2z" />
<glyph unicode="&#x2264;" horiz-adv-x="962" d="M-29 -174l41 156h455q86 0 176 2t142.5 3t50.5 3l10 -31l-41 -158q-154 0 -452 -2t-369 -2zM74 463l26 199l396 167q367 156 366 156l23 -16l24 -156q-211 -78 -372 -145l-250 -103l-2 -14l247 -123l304 -147q4 -20 4 -31l-101 -133l-34 17q-35 17 -106 53t-124 63 l-65 31l-324 155z" />
<glyph unicode="&#x2265;" horiz-adv-x="962" d="M-33 -174l41 156h455q86 0 176 2t142 3t50 3l13 -31l-41 -158q-154 0 -453 -2t-368 -2zM74 289q211 76 372 143l250 103v14l-245 123l-304 147q-6 31 -6 33l103 133q129 -68 264 -133l65 -33q265 -128 322 -153l12 -27l-24 -201l-398 -168l-362 -153l-27 14z" />
<glyph unicode="&#x25ca;" horiz-adv-x="1038" d="M106 526l9 72l190 348l211 379l203 8l20 -14l117 -373l113 -330l-11 -77l-184 -336l-217 -385l-201 -11l-24 15l-111 364zM295 561l82 -262l92 -287h14l140 262l157 299l-84 269l-92 288h-14l-144 -266z" />
<glyph unicode="&#xe000;" horiz-adv-x="1035" d="M0 1035h1035v-1035h-1035v1035z" />
<glyph unicode="&#xfb01;" horiz-adv-x="1550" d="M18 -18l27 120q68 10 94.5 39t36.5 101l76 583q6 51 -2 68.5t-39 17.5l-47 -2l-12 17l26 104q193 -6 324 -6q305 0 459 20l14 -18q-43 -154 -70 -299l-170 -10q12 53 13 86q0 45 -30 59.5t-118 14.5q-51 0 -65.5 -8.5t-18.5 -41.5l-45 -258l147 -2l175 15l10 -19 l-39 -149q-119 4 -193 4q-10 0 -125 -8l-24 -170q-8 -57 4 -79t53 -22l103 11l14 -21l-33 -135q-176 6 -258 6q-59 0 -131 -4t-114 -9zM936 -12l25 112q72 14 98 41t33 92l75 596q6 49 -4 65.5t-45 16.5h-53q-6 12 -6 15l22 102q25 0 110 -2t128 -2l248 12l-25 -116 q-61 -8 -81.5 -24.5t-28.5 -61.5q-100 -541 -101 -658q0 -37 11.5 -50t37.5 -13l68 4l6 -13l-29 -108q-176 4 -249 4z" />
<glyph unicode="&#xfb02;" horiz-adv-x="1832" d="M18 -18l27 120q68 10 94.5 39t36.5 101l76 583q6 51 -2 68.5t-39 17.5l-47 -2l-12 17l26 104q193 -6 324 -6q305 0 459 20l14 -18q-43 -154 -70 -299l-170 -10q12 53 13 86q0 45 -30 59.5t-118 14.5q-51 0 -65.5 -8.5t-18.5 -41.5l-45 -258l147 -2l175 15l10 -19 l-39 -149q-119 4 -193 4q-10 0 -125 -8l-24 -170q-8 -57 4 -79t53 -22l103 11l14 -21l-33 -135q-176 6 -258 6q-59 0 -131 -4t-114 -9zM940 -16l29 118q63 10 88.5 40t34.5 100l73 587q6 51 -4 66.5t-45 15.5h-47l-8 15l24 102q25 0 109 -2t125 -2l276 12l-26 -125 q-82 -10 -107.5 -28.5t-38.5 -77.5q-90 -489 -90 -602q0 -35 17.5 -48.5t64.5 -13.5q106 0 148.5 45t76.5 201l160 16l10 -16q-47 -182 -88 -381l-20 -18q-258 12 -463 12q-68 0 -142.5 -4t-115.5 -8z" />
<glyph d="M231 1542l457 213l27 -10l51 -158l-10 -26q-236 -59 -469 -134l-27 19z" />
<glyph d="M242 1638l67 72l35 6q38 -121 188 -121q154 0 224 121l32 -6l48 -72q-41 -100 -124 -168.5t-202 -68.5t-185.5 68.5t-82.5 168.5z" />
<glyph d="M190 1540l345 254h40q0 2 53.5 -47t126 -115.5t101.5 -91.5l-59 -84l-35 -8q-14 6 -117.5 59.5t-118.5 59.5q-16 -6 -129.5 -58.5t-136.5 -60.5l-31 8z" />
<glyph d="M221 1552q0 68 43 112t111 44q51 0 78.5 -28.5t27.5 -77.5q0 -68 -42.5 -112t-110.5 -44q-106 0 -107 106zM575 1552q0 68 44.5 112t109.5 44q51 0 79 -28.5t28 -77.5q0 -68 -43 -112t-111 -44q-51 0 -79 28.5t-28 77.5z" />
<glyph d="M119 1587l51 158l27 10q236 -117 456 -213l-26 -96l-29 -19q-233 74 -469 134z" />
<glyph d="M223 1483l47 155q188 -2 303 -2l252 13l15 -29l-45 -158l-279 -2l-274 -2z" />
<glyph d="M342 1548q0 94 62.5 157.5t156.5 63.5q80 0 119 -44t39 -109q0 -90 -61.5 -158.5t-159.5 -68.5q-76 0 -116 44t-40 115zM446 1573q0 -37 24.5 -56.5t53.5 -19.5q90 0 90 86q0 74 -82 74q-41 0 -63.5 -23.5t-22.5 -60.5z" />
<glyph d="M162 1483l2 22l180 197l33 8q35 0 148.5 -35t140.5 -35q47 0 141 107h22l72 -76l-2 -20l-180 -199l-35 -8q-33 0 -145.5 34.5t-141.5 34.5q-49 0 -141 -106h-23z" />
<glyph d="M209 1679l57 84l35 9q18 -8 119.5 -60.5t116.5 -58.5q16 6 129.5 58t136.5 61l31 -9l40 -84l-346 -254h-39q-209 195 -280 254z" />
<glyph d="M375 1565q0 80 52 132t132 52q59 0 92 -35t33 -92q0 -80 -51 -132t-129 -52q-63 0 -96 33.5t-33 93.5z" />
<glyph d="M61 -555q61 43 100.5 100.5t39.5 108.5q0 84 -72 141l6 29q90 72 162 72q61 0 101 -48.5t40 -128.5q0 -102 -85 -200.5t-216 -169.5l-76 61v35z" />
<glyph d="M143 1481q309 274 310 274l24 -2l88 -127l-2 -24q-174 -94 -346 -201l-27 10zM487 1470q309 274 310 275l24 -4l88 -123l-4 -25q-172 -94 -344 -200l-26 8z" />
<glyph horiz-adv-x="1009" d="M66 459q0 338 157.5 552t401.5 214q166 0 259 -128t93 -352q0 -340 -155.5 -555t-399.5 -215q-170 0 -263 128t-93 356zM250 537q0 -141 62 -221t173 -80q141 0 223.5 109.5t82.5 303.5q0 141 -62.5 222t-175.5 81q-143 0 -223 -110.5t-80 -304.5z" />
<glyph horiz-adv-x="722" d="M-2 -23l33 129q94 8 140 43t54 115l80 651q8 72 -9 94.5t-75 22.5l-100 -10l-10 14l26 119q82 4 242 29q86 12 155.5 22.5t97.5 14.5l27 4l17 -60q-39 -31 -60.5 -65.5t-35.5 -95.5q-27 -123 -71 -419t-44 -358q0 -51 17.5 -72.5t56.5 -21.5l96 6l4 -10l-39 -137 q-184 8 -285 8q-57 0 -136 -6t-130 -11z" />
<glyph horiz-adv-x="978" d="M-6 96l260 260q322 352 321 527q0 111 -124 110q-154 0 -289 -184h-27l-16 164q82 111 203.5 181.5t232.5 70.5q143 0 229 -70t86 -186q0 -129 -108.5 -292t-399.5 -468l9 -16h202q90 0 132.5 37.5t76.5 148.5l158 14q-72 -221 -104 -387l-33 -24q-463 18 -651 18 l-152 -20z" />
<glyph horiz-adv-x="860" d="M16 184l31 29q84 -27 166 -27q123 0 205 57.5t82 145.5q0 150 -267 150l-18 20v125l133 31q78 35 125 92t47 121q0 45 -28.5 72.5t-75.5 27.5q-106 0 -228 -88h-26l-23 145q74 45 187.5 92.5t199.5 47.5q121 0 195 -60.5t74 -156.5q0 -94 -70 -177t-184 -133l-2 -18 q240 -76 239 -260q0 -106 -94 -211t-240.5 -169.5t-291.5 -64.5q-84 0 -114 47t-22 162z" />
<glyph horiz-adv-x="929" d="M-18 326l22 137l610 760l15 4l172 -23l-86 -704h157l15 -25l-39 -168l-156 4q-25 -293 -24 -293l-17 -16l-239 -25l-15 21q31 174 52 319zM213 500h258l47 368h-20z" />
<glyph horiz-adv-x="847" d="M-2 184l33 29q80 -27 166 -27q125 0 205.5 59.5t80.5 151.5q0 80 -83 122t-263 54l-14 23l104 565l19 17l395 14q57 4 85 20.5t48 61.5l115 8l-90 -301l-29 -25q-186 16 -399 17l-39 -211q223 -27 326.5 -101.5t103.5 -207.5q0 -117 -94.5 -228.5t-240.5 -180.5t-292 -69 q-82 0 -112.5 47.5t-24.5 161.5z" />
<glyph horiz-adv-x="917" d="M43 354q0 438 437 711q183 114 356 160l18 -11l27 -112q-14 -4 -37 -14.5t-88.5 -47t-124 -81t-127 -120t-113.5 -161.5l6 -14q123 68 174 75q139 0 217 -87t78 -218q0 -197 -137 -328t-350 -131q-158 0 -247 104.5t-89 274.5zM289 354q0 -100 38 -156.5t107 -56.5 q88 0 134 62.5t46 173.5q0 80 -37.5 131t-105.5 51q-76 0 -162 -57q-20 -111 -20 -148z" />
<glyph horiz-adv-x="843" d="M84 780q59 233 92 418l12 10q117 -8 240 -8h430l66 -98q-215 -373 -490 -893l-92 -234h-35l-178 58l-14 51l549 903l-263 -14q-92 -8 -126.5 -41t-65.5 -139z" />
<glyph horiz-adv-x="946" d="M45 240q0 213 258 329q-158 113 -158 273q0 156 128 269.5t311 113.5q133 0 226 -71t93 -187q0 -197 -213 -305q168 -111 168 -271q0 -172 -137 -294t-334 -122q-147 0 -244.5 73t-97.5 192zM274 297q0 -72 44 -121t114 -49q74 0 127 50t53 124q0 33 -14 60.5t-53 56 t-59.5 42t-79.5 46.5q-131 -86 -132 -209zM391 913q0 -59 45 -99t137 -91q98 80 99 195q0 70 -35 107.5t-92 37.5q-66 0 -110 -44.5t-44 -105.5z" />
<glyph horiz-adv-x="917" d="M70 98q14 4 36.5 14.5t88 47.5t124 82t127 120.5t113.5 161.5l-6 15q-117 -68 -174 -76q-139 0 -216 87t-77 218q0 197 136 328t349 131q156 0 247 -105.5t91 -273.5q0 -439 -435 -712q-184 -115 -357 -161l-21 13zM336 823q0 -80 38 -130t105.5 -50t159.5 55 q20 80 20 148q0 100 -36.5 156.5t-104.5 56.5q-90 0 -136 -62.5t-46 -173.5z" />
<glyph horiz-adv-x="931" d="M51 453q0 340 150.5 556t386.5 216q158 0 245 -126t87 -349q0 -340 -150 -557.5t-383 -217.5q-160 0 -248 126t-88 352zM233 532q0 -139 57 -217.5t161 -78.5q133 0 207.5 110.5t74.5 304.5q0 141 -56 221t-161 80q-133 0 -208 -111.5t-75 -308.5z" />
<glyph horiz-adv-x="931" d="M61 -23l33 129q109 8 162 43t63 115l84 651q8 72 -16.5 94.5t-87.5 22.5l-119 -10l-10 14l25 119q90 4 274 29q100 12 175 22.5t100 14.5l26 4l14 -60q-81 -57 -106 -161q-31 -119 -75 -413t-44 -362q0 -51 21.5 -73.5t70.5 -22.5l115 6l4 -10l-39 -137q-207 8 -323 8 q-61 0 -147.5 -6t-142.5 -11z" />
<glyph horiz-adv-x="931" d="M-16 96l258 260q305 356 305 527q0 111 -119 110q-145 0 -276 -184h-27l-16 164q80 111 198.5 181.5t224.5 70.5q141 0 224.5 -70t83.5 -184q0 -131 -104.5 -293t-385.5 -469l6 -16h191q86 0 126 37.5t75 148.5l159 14q-72 -221 -104 -387l-33 -24q-449 18 -631 18 l-149 -20z" />
<glyph horiz-adv-x="931" d="M33 184l30 29q86 -27 177 -27q131 0 218 57.5t87 145.5q0 150 -289 150l-16 20v125l139 31q82 35 132 93t50 120q0 47 -30.5 73.5t-81.5 26.5q-119 0 -240 -88h-29l-22 145q63 43 186 91.5t215 48.5q125 0 202 -60.5t77 -158.5q0 -92 -73 -175t-194 -133l-2 -18 q256 -76 256 -260q0 -162 -209.5 -303.5t-441.5 -141.5q-86 0 -116.5 47t-24.5 162z" />
<glyph horiz-adv-x="931" d="M-18 326l22 137l610 760l15 4l172 -23l-86 -704h159l13 -25l-39 -168l-156 4q-23 -293 -22 -293l-19 -16l-239 -25l-15 21q31 174 52 319zM215 500h256l47 368h-20z" />
<glyph horiz-adv-x="931" d="M16 184l33 29q86 -27 174 -27q137 0 225.5 59.5t88.5 149.5q0 82 -89.5 124t-283.5 54l-17 23q57 274 105 565l20 17l416 14q61 4 91 20.5t50 61.5l117 8l-92 -301l-29 -25q-201 16 -428 17l-41 -211q240 -27 349.5 -102.5t109.5 -208.5q0 -115 -99.5 -226.5t-252 -180.5 t-303.5 -69q-84 0 -116 47.5t-28 161.5z" />
<glyph horiz-adv-x="931" d="M47 354q0 437 437 710q186 116 362 161l16 -11l29 -112q-14 -4 -38 -14.5t-90.5 -47t-125.5 -81t-128 -120t-114 -161.5l6 -14q131 68 179 75q139 0 216.5 -87t77.5 -218q0 -197 -137 -328t-350 -131q-160 0 -250 104.5t-90 274.5zM293 354q0 -100 38 -156.5t109 -56.5 q88 0 136.5 62.5t48.5 173.5q0 80 -39 131t-109 51q-78 0 -164 -57q-20 -92 -20 -148z" />
<glyph horiz-adv-x="931" d="M106 780q59 233 93 418l14 10q125 -8 256 -8h453l67 -98q-311 -504 -524 -893l-92 -234h-33l-182 58l-17 51l586 903l-289 -14q-100 -8 -136 -41t-69 -139z" />
<glyph horiz-adv-x="931" d="M41 240q0 215 256 329q-156 111 -156 273q0 156 127 269.5t307 113.5q133 0 225.5 -71t92.5 -187q0 -197 -211 -305q166 -113 166 -271q0 -172 -136.5 -294t-330.5 -122q-145 0 -242.5 73t-97.5 192zM268 297q0 -72 44 -121t114 -49q74 0 125 50t51 124q0 33 -13.5 60.5 t-54 58.5t-56 40t-79.5 46q-131 -86 -131 -209zM385 913q0 -59 44 -99t136 -91q96 78 97 195q0 70 -34 107.5t-91 37.5q-66 0 -109 -44.5t-43 -105.5z" />
<glyph horiz-adv-x="931" d="M74 98q14 4 37.5 14.5t89 47.5t125 82t129 120.5t114.5 161.5l-6 15q-123 -70 -178 -76q-139 0 -218 87t-79 218q0 197 137 328t353 131q158 0 249 -105.5t91 -275.5q0 -437 -438 -710q-186 -116 -361 -161l-19 13zM338 823q0 -80 38.5 -130t108.5 -50q66 0 164 55 q20 80 21 148q0 100 -38 156.5t-108 56.5q-90 0 -138 -62.5t-48 -173.5z" />
<glyph horiz-adv-x="911" d="M31 397q0 283 147.5 465t374.5 182q164 0 254 -112.5t90 -306.5q0 -285 -146.5 -467.5t-375.5 -182.5q-164 0 -254 113t-90 309zM201 477q0 -109 63 -171t176 -62q133 0 209 76.5t76 209.5q0 109 -64.5 172.5t-179.5 63.5q-131 0 -205.5 -78t-74.5 -211z" />
<glyph horiz-adv-x="911" d="M57 -23l29 129q119 10 167 49.5t60 139.5l56 440q8 70 -15.5 93.5t-87.5 23.5l-116 -10l-11 14l27 117q188 20 272 31q98 12 172 22t100 14l25 4l15 -61q-45 -29 -67 -61.5t-40 -98.5q-94 -424 -94 -583q0 -57 20.5 -82t67.5 -25l115 6l4 -10l-39 -137q-205 8 -320 8 q-59 0 -145 -6t-140 -11z" />
<glyph horiz-adv-x="911" d="M-33 49l162 170q180 193 258 308.5t82 191.5q4 109 -100 108q-117 0 -230 -157h-26l-19 151q197 223 410 223q125 0 199.5 -64.5t74.5 -170.5q0 -104 -76.5 -217t-345.5 -385l6 -17h166q88 0 129 39t72 148l158 14q-68 -219 -101 -385l-30 -24q-473 18 -656 18l-127 -18z " />
<glyph horiz-adv-x="911" d="M-25 4l31 29q74 -27 172 -27q139 0 232.5 60.5t93.5 152.5q0 145 -283 146l-16 20v127l137 29q80 35 130 92t50 117q0 45 -31.5 71.5t-82.5 26.5q-106 0 -238 -100q-4 0 -12 -1.5t-13 -1.5l-24 146q66 47 186.5 100t214.5 53q127 0 202 -58t75 -157q0 -92 -73 -174 t-191 -129l-3 -16q254 -68 254 -246q0 -109 -102 -219.5t-260 -180t-309 -69.5q-84 0 -115 47t-25 162z" />
<glyph horiz-adv-x="911" d="M-39 150q2 23 10.5 68.5t12.5 68.5l608 753q2 0 6 2t6 2l174 -22l-86 -700h156l14 -23l-39 -170q-61 2 -153 6l-25 -297l-16 -18l-240 -25l-14 21q31 178 51 325q-303 9 -465 9zM195 322h256l43 364h-19z" />
<glyph horiz-adv-x="911" d="M-45 4l31 29q78 -27 176 -27q143 0 240.5 60.5t97.5 152.5q0 72 -83 115t-284 72l-16 22l108 553l19 16l403 15q59 4 88 20.5t51 61.5l115 8l-90 -301l-31 -27q-186 16 -411 17l-37 -189q223 -39 335.5 -110.5t112.5 -196.5q0 -123 -106.5 -240.5t-266 -188.5t-311.5 -71 q-82 0 -115.5 46t-25.5 163z" />
<glyph horiz-adv-x="911" d="M41 354q0 135 44 257t113.5 207t153.5 158t168 117t153.5 75.5t113.5 43.5l44 13l17 -11l29 -112q-14 -4 -37 -14.5t-88.5 -47t-123 -82t-126 -121t-113.5 -161.5l6 -12q2 0 74 35.5t100 39.5q137 0 214 -87t77 -218q0 -197 -136 -328t-347 -131q-158 0 -247 104.5 t-89 274.5zM287 354q0 -100 37.5 -156.5t105.5 -56.5q88 0 134 62.5t46 173.5q0 80 -37.5 131t-105.5 51q-74 0 -160 -57q-20 -88 -20 -148z" />
<glyph horiz-adv-x="911" d="M80 598q57 233 90 420l14 10q123 -8 250 -8h449l69 -98q-307 -504 -518 -895l-92 -232h-33l-180 55l-18 52l575 905l-278 -16q-100 -8 -136 -41t-69 -140z" />
<glyph horiz-adv-x="911" d="M37 238q0 217 250 331q-152 115 -152 271q0 158 129 271.5t309 113.5q129 0 217.5 -71t88.5 -187q0 -197 -207 -305q162 -113 162 -269q0 -174 -137.5 -296t-329.5 -122q-143 0 -236.5 72t-93.5 191zM264 297q0 -72 42 -121t110 -49q72 0 122 50t50 124q0 31 -12.5 57.5 t-45 53t-52 40t-69.5 42.5q-13 7 -20 12q-125 -84 -125 -209zM381 913q0 -59 43 -99t131 -91q94 78 94 197q0 68 -33.5 105.5t-89.5 37.5q-63 0 -104 -44.5t-41 -105.5z" />
<glyph horiz-adv-x="911" d="M45 -82q14 4 36.5 14.5t88.5 47t124 80.5t125.5 120t110.5 162l-6 14q-2 0 -72.5 -35.5t-99.5 -39.5q-137 0 -214 87t-77 218q0 197 136.5 327.5t347.5 130.5q158 0 247 -104t89 -274q0 -135 -44 -257t-114 -208t-154 -158t-168 -117t-153.5 -75.5t-113.5 -44.5l-44 -13 l-18 12zM309 641q0 -80 39 -130t105 -50q74 0 159 55q20 80 21 148q0 100 -37 157.5t-104 57.5q-88 0 -135.5 -63.5t-47.5 -174.5z" />
<glyph d="M367 1006q35 235 43 467l206 28l13 -20q-57 -223 -129 -443l-105 -41z" />
<glyph horiz-adv-x="698" d="M57 829q0 225 101.5 362.5t267.5 137.5q113 0 173 -81t60 -230q0 -225 -101 -362.5t-265 -137.5q-115 0 -175.5 81t-60.5 230zM197 887q0 -166 141 -166q178 0 178 229q0 170 -143 170q-84 0 -130 -60.5t-46 -172.5z" />
<glyph horiz-adv-x="526" d="M6 520l23 94q61 4 92 27t37 70l49 403q6 47 -5.5 61.5t-47.5 14.5l-66 -4l-8 10l18 86q63 6 168 21l207 26l12 -47q-42 -32 -65 -100q-16 -63 -44 -254t-28 -232q0 -63 45 -63l62 4l4 -8l-31 -101q-125 6 -195 7z" />
<glyph horiz-adv-x="700" d="M12 621l185 178q184 195 184 286q0 66 -74 66q-90 0 -180 -109h-23l-12 127q59 72 139 116t156 44q98 0 159.5 -47t61.5 -125q0 -86 -68.5 -186.5t-248.5 -280.5l6 -12h106q55 0 82 25.5t47 95.5l127 10q-49 -158 -69 -268l-23 -21q-311 14 -440 15l-113 -13z" />
<glyph horiz-adv-x="618" d="M20 672l27 24q51 -23 115 -22q72 0 120 31.5t48 82.5q0 80 -160 80l-14 17v98l88 18q102 45 102 123q0 27 -16.5 42.5t-44.5 15.5q-63 0 -148 -56h-18l-21 111q53 33 131 62.5t136 29.5q88 0 140 -39t52 -104q0 -61 -46 -114.5t-122 -82.5l-2 -14q164 -53 164 -172 q0 -106 -137.5 -195.5t-294.5 -89.5q-61 0 -82 34t-17 120z" />
<glyph horiz-adv-x="671" d="M2 731l16 107l396 489l10 2l145 -14l-53 -453h98l11 -18l-29 -125l-96 2q-14 -172 -15 -172l-12 -14l-186 -17l-13 14q20 102 33 195zM174 862h152l24 213h-14z" />
<glyph horiz-adv-x="606" d="M10 672l29 24q49 -23 113 -22q74 0 120.5 32.5t46.5 81.5q0 45 -52 68t-169 33l-8 16l70 381l14 10l266 9q39 0 57.5 11t32.5 42l91 6l-64 -213l-25 -21q-119 10 -256 11l-20 -109q150 -20 216.5 -69.5t66.5 -135.5q0 -119 -135.5 -214t-290.5 -95q-61 0 -84 35t-19 119z " />
<glyph horiz-adv-x="655" d="M39 768q0 121 55.5 223.5t134 162.5t156.5 102t133 58l55 15l15 -8l20 -86q-23 -8 -57.5 -23.5t-114.5 -78t-127 -138.5l4 -12q70 35 101 41q90 0 141 -55.5t51 -143.5q0 -135 -92 -221t-240 -86q-109 0 -172 68.5t-63 181.5zM227 768q0 -121 80 -121q104 0 105 139 q0 103 -78 103q-47 0 -94 -31q-12 -66 -13 -90z" />
<glyph horiz-adv-x="604" d="M63 1022q39 162 62 291l8 6q78 -6 160 -6h289l53 -76q-143 -246 -305 -549l-66 -168h-26l-138 41l-12 35l344 559l-149 -12q-61 -6 -83 -26.5t-42 -86.5z" />
<glyph horiz-adv-x="665" d="M37 694q0 135 160 203q-98 76 -99 178q0 106 88 180t215 74q94 0 159 -48t65 -124q0 -125 -136 -192q104 -66 105 -172q0 -115 -94 -195t-228 -80q-102 0 -168.5 49t-66.5 127zM211 733q0 -43 24.5 -70.5t67.5 -27.5t70.5 26.5t27.5 67.5q0 25 -20.5 47.5t-39.5 34.5 t-67 37q-63 -49 -63 -115zM289 1122q0 -35 27.5 -58.5t82.5 -49.5q49 49 50 110q0 80 -72 80q-37 0 -62.5 -24.5t-25.5 -57.5z" />
<glyph horiz-adv-x="653" d="M61 614q8 2 21.5 8.5t52.5 27t75 45t79 66.5t73 91l-4 12q-78 -37 -100 -41q-90 0 -141 56.5t-51 144.5q0 135 91 220t240 85q106 0 171 -68.5t65 -181.5q0 -121 -55.5 -223t-134 -162.5t-156.5 -102.5t-133 -57l-56 -16l-14 8zM258 1061q0 -47 20.5 -75t57.5 -28 q41 0 92 29q14 49 14 94q0 121 -80 121q-104 0 -104 -141z" />
<glyph horiz-adv-x="698" d="M57 295q0 225 102.5 363.5t266.5 138.5q113 0 173 -82t60 -230q0 -225 -101 -363t-265 -138q-115 0 -175.5 80.5t-60.5 230.5zM197 354q0 -168 141 -168q178 0 178 230q0 170 -143 170q-84 0 -130 -59.5t-46 -172.5z" />
<glyph horiz-adv-x="526" d="M6 -14l23 94q63 6 93 28.5t36 69.5l49 404q6 45 -5.5 59t-47.5 14l-66 -4l-8 11l18 86q63 6 168 20l207 29l12 -49q-42 -33 -65 -101q-16 -63 -44 -253.5t-28 -231.5q0 -63 45 -64l62 4l4 -8l-31 -100q-125 6 -195 6z" />
<glyph horiz-adv-x="700" d="M12 86l185 178q184 195 184 287q0 66 -74 65q-90 0 -180 -108h-23l-12 127q61 74 141 118t154 44q98 0 159.5 -48.5t61.5 -125.5q0 -86 -68.5 -186.5t-248.5 -280.5l6 -11h106q55 0 82 26t47 95l127 10q-49 -158 -69 -270l-23 -18q-311 12 -440 12l-113 -12z" />
<glyph horiz-adv-x="618" d="M20 137l27 25q55 -20 115 -21q74 0 121 32t47 81q0 80 -160 80l-14 16v101l88 16q102 45 102 125q0 25 -17.5 40t-43.5 15q-63 0 -148 -55h-18l-21 113q53 33 131 62.5t136 29.5q88 0 140 -40t52 -106q0 -61 -46 -114.5t-122 -81.5l-2 -13q164 -57 164 -174 q0 -106 -137.5 -195t-294.5 -89q-61 0 -82 33.5t-17 119.5z" />
<glyph horiz-adv-x="671" d="M2 197l16 108l396 488l10 4l145 -17l-53 -452h98l11 -17l-29 -127l-96 2q-14 -172 -15 -172l-12 -14l-186 -14l-13 12q20 102 33 195zM174 328h152l24 213h-14z" />
<glyph horiz-adv-x="606" d="M10 137l29 25q51 -20 113 -21q74 0 120.5 32t46.5 81q0 45 -52 67.5t-169 32.5l-8 17l70 381l14 10l266 8q66 2 90 53l91 6l-64 -213l-25 -20q-119 10 -256 10l-20 -106q150 -23 216.5 -72t66.5 -135q0 -117 -135.5 -213t-290.5 -96q-61 0 -84 34.5t-19 118.5z" />
<glyph horiz-adv-x="655" d="M39 236q0 121 55.5 223t134 161.5t156.5 101.5t133 58l55 17l15 -9l20 -88q-23 -8 -57.5 -23t-114.5 -77.5t-127 -138.5l4 -12q55 33 101 40q90 0 141 -55t51 -143q0 -135 -92 -221t-240 -86q-109 0 -172 68.5t-63 183.5zM227 233q0 -121 80 -120q104 0 105 139 q0 102 -78 102q-47 0 -94 -30q-12 -66 -13 -91z" />
<glyph horiz-adv-x="604" d="M63 487q39 162 62 293l8 6q78 -6 160 -6h289l53 -75q-143 -248 -305 -551l-66 -168h-26l-138 41l-12 34l344 560l-149 -13q-61 -4 -83 -24.5t-42 -87.5z" />
<glyph horiz-adv-x="665" d="M37 160q0 135 160 202q-98 76 -99 179q0 106 89 181t214 75q94 0 159 -49.5t65 -124.5q0 -123 -136 -191q104 -70 105 -172q0 -117 -94 -196.5t-228 -79.5q-102 0 -168.5 49t-66.5 127zM211 201q0 -43 24.5 -71t67.5 -28t70.5 26t27.5 67q0 25 -21.5 48t-38.5 33.5 t-67 36.5q-63 -49 -63 -112zM289 588q0 -55 110 -109q49 49 50 111q0 80 -72 80q-39 0 -63.5 -23.5t-24.5 -58.5z" />
<glyph horiz-adv-x="653" d="M61 80q23 8 58 23.5t114.5 77t128.5 138.5l-4 11q-72 -33 -100 -41q-90 0 -141 56t-51 144q0 135 91 221.5t240 86.5q106 0 171 -70t65 -182q0 -121 -55.5 -223.5t-134 -163t-156.5 -102.5t-133 -57l-56 -15l-14 8zM258 526q0 -47 20.5 -74.5t57.5 -27.5t92 31 q14 49 14 92q0 121 -80 121q-104 0 -104 -142z" />
<glyph horiz-adv-x="729" d="M39 881q0 160 106.5 298t227.5 138l110 -23l9 29l20 10l139 -16l11 -27q-60 -229 -89 -424l5 -4q10 0 81 62l27 -2l25 -56q-104 -111 -157.5 -149.5t-100.5 -38.5q-63 0 -64 59q0 31 41 195l-12 2q-106 -188 -201 -256q-84 0 -131 54t-47 149zM242 961q-1 -105 24 -105 q27 0 82 94t96 211q-59 37 -112 37q-33 0 -61.5 -75.5t-28.5 -161.5z" />
<glyph horiz-adv-x="722" d="M57 778q117 702 117 748q0 47 -49 47h-45l14 92l281 12l20 -22q-72 -330 -116 -598h10q104 195 194 264q88 0 140.5 -58.5t52.5 -160.5q0 -168 -106.5 -294t-245.5 -126q-151 0 -248 66zM274 850q4 0 22.5 -9.5t40 -16.5t38.5 -7q41 0 71.5 66.5t30.5 160.5q0 45 -9.5 80 t-21.5 35q-27 0 -78 -93t-94 -216z" />
<glyph horiz-adv-x="552" d="M43 913q0 168 107.5 292t250.5 124q82 0 140 -31l6 -20l-64 -148l-45 -2q-35 66 -88 66q-47 0 -79.5 -68.5t-32.5 -162.5q0 -129 73 -129q68 0 117 104l25 -4l57 -64q-35 -80 -111.5 -136t-152.5 -56q-92 0 -147.5 64.5t-55.5 170.5z" />
<glyph horiz-adv-x="731" d="M39 881q0 160 106.5 298t227.5 138l94 -21l31 220q6 57 -47 57h-43l12 92l282 12l19 -22q-107 -529 -148 -789l5 -4q8 0 81 62l27 -2l25 -56q-106 -111 -158.5 -149.5t-99.5 -38.5q-63 0 -64 59q0 27 41 195l-12 2q-102 -182 -201 -256q-84 0 -131 54t-47 149zM242 958 q-1 -102 24 -102q27 0 81 92t97 213q-63 37 -112 37q-33 0 -61.5 -75.5t-28.5 -164.5z" />
<glyph horiz-adv-x="593" d="M45 918q0 164 108.5 287.5t252.5 123.5q76 0 118.5 -36t42.5 -99q0 -88 -75.5 -146.5t-255.5 -113.5q0 -100 79 -100q76 0 131 98l29 -2l55 -64q-37 -80 -117.5 -134t-162.5 -54q-94 0 -149.5 65.5t-55.5 174.5zM240 1026q158 55 157 129q0 39 -41 39q-43 0 -74.5 -45 t-41.5 -123z" />
<glyph horiz-adv-x="452" d="M-180 449q25 78 80 157h26q6 -106 97 -106q39 0 64.5 28.5t27.5 77.5l4 119l35 471l-15 12l-98 2l-4 7l8 71l117 17l8 77q12 117 125 208t237 91q88 0 146 -20l6 -14l-68 -146l-26 -4q-78 51 -125 51t-70.5 -28.5t-32.5 -94.5l-14 -122h178l9 -7l-15 -86h-172l-12 -6 l-60 -545q-12 -111 -102 -197.5t-188 -86.5q-57 0 -104.5 21.5t-61.5 52.5z" />
<glyph horiz-adv-x="696" d="M-84 561l4 14q39 23 225 121l2 11q-92 41 -92 182q0 156 105.5 293t224.5 137l109 -25l10 29l20 10l138 -16l18 -29q-57 -119 -72 -237q-2 -25 -10 -154t-12 -168q-14 -113 -157.5 -233.5t-262.5 -120.5q-113 -2 -185.5 53t-64.5 133zM100 586q0 -29 41 -50.5t92 -21.5 q76 0 124.5 46t58.5 130l28 246l-12 4q-124 -205 -192 -250q-139 -94 -140 -104zM254 969q0 -107 33 -107q25 0 74 89t94 212q-70 35 -111 35q-33 0 -61.5 -73.5t-28.5 -155.5z" />
<glyph horiz-adv-x="739" d="M55 711q113 715 125 807q6 55 -47 55h-45l14 92l283 12l18 -24q-76 -328 -116 -596h8q102 217 194 274q80 0 127.5 -38t47.5 -99q0 -39 -43.5 -170t-47.5 -154l5 -4q14 0 79 62l29 -6l25 -54q-98 -104 -154.5 -145t-101.5 -41q-76 0 -76 68q0 33 44 174t44 174 q0 43 -31 43q-29 0 -80 -87t-104 -223l-10 -88q-4 -23 -56.5 -41t-109.5 -18z" />
<glyph horiz-adv-x="436" d="M49 1210l14 93l277 12l20 -23q-59 -211 -88 -426l4 -4q12 0 82 62l27 -2l25 -56q-94 -104 -151.5 -146t-102.5 -42q-23 0 -26 14.5t2 75.5q12 159 11 322v73q0 47 -51 47h-43zM170 1532q0 59 38 96t97 37q90 0 90 -88q0 -61 -37 -99t-96 -38q-43 0 -67.5 24.5t-24.5 67.5 z" />
<glyph horiz-adv-x="423" d="M-68 416l7 16q74 55 106.5 119.5t46.5 189.5q68 379 68 422q0 47 -51 47h-43l16 93l276 12l19 -23q-62 -239 -111 -575q-14 -111 -91 -202t-198 -146zM188 1532q0 61 37 97t99 36q90 0 90 -88q0 -61 -38 -99t-97 -38q-90 0 -91 92z" />
<glyph horiz-adv-x="681" d="M55 711q127 768 127 815t-49 47h-45l14 92l283 12l18 -24q-76 -328 -116 -596h8q100 215 194 274q84 0 133.5 -38t49.5 -101q0 -127 -170 -240l129 -221l-4 -24l-178 -33l-17 8l-94 268l10 25q129 61 129 131q0 35 -33 35q-31 0 -84 -86t-108 -226l-10 -86 q-4 -23 -56.5 -41t-109.5 -18z" />
<glyph horiz-adv-x="417" d="M61 754q0 18 60.5 384.5t60.5 387.5q0 47 -49 47h-45l14 92l281 12l20 -22q-116 -545 -149 -789l6 -4q8 0 82 62l27 -2l24 -56q-96 -104 -152.5 -146t-103.5 -42q-76 0 -76 76z" />
<glyph horiz-adv-x="1095" d="M51 1210l15 93l276 12l18 -25q-39 -119 -55 -233h6q106 221 195 274q78 0 124 -37t46 -98q0 -16 -7 -51t-15 -62l-7 -26h6q102 217 197 274q80 0 126 -37t46 -98q0 -39 -44 -174.5t-48 -151.5l4 -4q12 0 82 62l28 -6l23 -54q-98 -104 -154.5 -145t-101.5 -41 q-76 0 -76 68q0 31 45 173t45 175q0 43 -30.5 43t-87 -92.5t-115.5 -235.5l-8 -70q-4 -23 -56.5 -41t-109.5 -18l-21 27q86 340 86 391q0 39 -32 39q-27 0 -77 -86t-104 -224l-10 -88q-4 -23 -56 -41t-110 -18l-22 27q63 377 71 444q6 55 -49 55h-43z" />
<glyph horiz-adv-x="665" d="M49 928q0 176 98.5 289.5t249.5 113.5q104 0 160.5 -61.5t56.5 -175.5q0 -182 -97 -299t-251 -117q-102 0 -159.5 65.5t-57.5 184.5zM248 961q-1 -160 69 -160q96 0 97 241q0 154 -70 154q-43 0 -69.5 -65.5t-26.5 -169.5z" />
<glyph horiz-adv-x="741" d="M-51 381l16 90q35 4 52.5 22.5t27.5 65.5q18 88 56 325.5t38 278.5q0 47 -49 47h-45l16 93l277 12l18 -23q-37 -106 -55 -223h8q102 193 193 262q92 0 143 -56t51 -155q0 -158 -104.5 -293t-220.5 -135l-131 25l-25 -166q-4 -39 7 -52.5t50 -13.5h62v-8l-17 -86zM295 864 q74 -37 119 -37q31 0 57.5 77t26.5 157q0 108 -33 108q-23 0 -74 -88t-96 -217z" />
<glyph horiz-adv-x="700" d="M39 887q0 156 106.5 293t227.5 137l108 -23l23 64l22 12l138 -16l8 -27q-14 -25 -80 -363.5t-66 -435.5q0 -25 7.5 -34t27.5 -9h41l2 -6l-16 -88l-361 -16l19 92q61 4 81.5 20.5t28.5 67.5l39 203l35 174l-12 2q-109 -190 -195 -256q-84 0 -134 56.5t-50 152.5zM242 963 q-1 -107 28 -107q25 0 77 90t97 215q-74 37 -112 37q-33 0 -61.5 -74.5t-28.5 -160.5z" />
<glyph horiz-adv-x="575" d="M51 1210l15 93l276 12l18 -25q-33 -104 -49 -203l8 3q39 94 96.5 166.5t94.5 72.5q70 -49 70 -147q0 -31 -19 -80l-20 -10q-23 20 -62 20q-111 0 -207 -260l-12 -109q-4 -23 -56 -41t-110 -18l-22 27q72 403 71 450q0 49 -49 49h-43z" />
<glyph horiz-adv-x="559" d="M14 762q17 93 72 156l31 -3q2 -47 35.5 -76.5t80.5 -29.5q68 0 68 47q0 23 -20.5 40t-67.5 44q-41 25 -62.5 40t-44 49t-22.5 75q0 98 80 162.5t196 64.5q115 0 185 -55q-35 -84 -74 -152h-31q-29 74 -92 74q-23 0 -39 -13.5t-16 -33.5q0 -29 41 -55q4 -2 51 -30 t63.5 -42t38 -47t21.5 -70q0 -96 -85 -162.5t-208 -66.5q-76 0 -132 23.5t-69 60.5z" />
<glyph horiz-adv-x="468" d="M53 1217l8 71l101 17l20 151l197 45l14 -14q-25 -88 -45 -184h139l9 -7l-13 -86h-139l-16 -8l-58 -303q-6 -41 27 -41q30 0 96 72l27 -6l24 -56q-147 -190 -213 -190q-78 0 -116.5 42t-30.5 111l63 367l-10 10l-80 2z" />
<glyph horiz-adv-x="741" d="M63 1210l15 93l278 12l19 -23q-109 -336 -109 -389q0 -35 27 -35q29 0 82 88t108 230l19 121l22 10l127 -4l23 -25q-59 -227 -90 -422l6 -4q10 0 82 62l26 -2l25 -56q-104 -111 -158.5 -149.5t-99.5 -38.5q-63 0 -64 57q0 8 45 211h-10q-102 -205 -186 -264 q-82 0 -130 36t-48 97q0 37 42 179.5t42 170.5q0 45 -50 45h-43z" />
<glyph horiz-adv-x="669" d="M16 1208l9 88l256 25l16 -12q23 -197 22 -455h19q115 223 115 295q0 70 -72 96l14 51l209 35q41 -37 41 -123q0 -143 -268 -518l-189 -10l-22 22q-12 240 -53 465q-8 43 -43 43z" />
<glyph horiz-adv-x="989" d="M16 1208l9 88l256 25l16 -12q22 -197 22 -455h19q76 150 111 250l-31 170l12 20l166 37q41 -37 41 -117q0 -35 -19 -90l23 -270h21q111 221 110 295q0 70 -67 96l12 51l209 35q41 -45 41 -127q0 -139 -267 -514l-159 -10l-23 22l-20 205h-15q-51 -111 -116 -217l-179 -10 l-22 22q-12 246 -53 465q-8 43 -43 43z" />
<glyph horiz-adv-x="704" d="M-14 729q35 94 77 174h31q10 -82 53 -82q51 0 115 150q-41 133 -57.5 171t-36.5 38q-27 0 -78 -58h-16l-31 64q145 145 231 145q45 0 71 -37t61 -151q88 188 192 188q61 0 115 -49q-49 -115 -78 -170h-31q-18 74 -57 74q-49 0 -111 -142q37 -129 55.5 -171t38.5 -42 q18 0 84 56h17l28 -62q-82 -82 -133 -114.5t-98 -32.5q-45 0 -72.5 39t-62.5 155q-88 -195 -193 -194q-74 0 -114 51z" />
<glyph horiz-adv-x="681" d="M-166 449q18 88 70 163l30 -2q4 -43 32 -69.5t67 -26.5q74 0 166 113q-39 360 -76 540q-8 43 -45 43l-47 -2l6 88l258 25l14 -12q14 -174 19 -471h16q121 219 121 311q0 65 -70 96l13 51l210 35q39 -39 39 -123q0 -147 -260 -503q-133 -180 -227 -256t-186 -76 q-53 0 -97.5 21.5t-52.5 54.5z" />
<glyph horiz-adv-x="632" d="M0 739l371 416l-82 2q-57 0 -86 -19.5t-45 -70.5l-84 -8q37 139 55 258l47 14q172 -39 266 -39q53 0 76 29l33 35l82 -62l6 -26q-190 -190 -383 -402l33 6q18 0 72.5 -7t76.5 -7q74 0 90 105l37 -2q20 -37 21 -107q0 -74 -47 -125t-117 -51q-41 0 -118 29.5t-120 29.5 q-78 0 -153 -47z" />
<glyph horiz-adv-x="1603" d="M205 43v866q0 164 164 164h866q164 0 164 -164v-866q0 -164 -164 -164h-866q-164 0 -164 164zM391 190h152v369q0 25 49 25q88 0 88 -115v-279h151v365q0 66 -44.5 108t-114.5 42l-99 -58q-12 -8 -18 -8q-12 0 -12 18v238h-152v-705zM891 618h53q20 0 21 -20v-270 q0 -66 45 -108t114 -42l129 76v51q-25 -8 -53 -8q-84 0 -84 117v184q0 20 21 20h118v74h-118q-20 0 -21 21v57h-43l-182 -115v-37z" />
<glyph horiz-adv-x="913" d="M-55 0l116 946h914l-115 -946h-915z" />
<glyph horiz-adv-x="1269" d="M-55 0l161 1315h1268l-160 -1315h-1269z" />
</font>
</defs>
</svg>
