<?xml version="1.0" standalone="no"?>
<!DOCTYPE svg PUBLIC "-//W3C//DTD SVG 1.1//EN" "http://www.w3.org/Graphics/SVG/1.1/DTD/svg11.dtd" >
<svg xmlns="http://www.w3.org/2000/svg">
<metadata></metadata>
<defs>
<font id="RosarioRegular" horiz-adv-x="1011" >
<font-face units-per-em="2048" ascent="1638" descent="-410" />
<missing-glyph horiz-adv-x="471" />
<glyph unicode="&#xfb01;" horiz-adv-x="1163" d="M195 889h-154v106q23 0 38 3l33 6q46 10 64 28q20 25 25 49q23 125 22 146q66 348 406 348q123 0 221 -59.5t139 -172.5l-170 -51q-14 72 -64 114t-122 42q-270 0 -271 -430h635v-1020h-168v891h-464v-891h-170v891z" />
<glyph unicode="&#xfb02;" horiz-adv-x="1163" d="M195 889h-154v106l49 4q94 8 109 78q10 43 22 150q31 166 133.5 257t260 91t241.5 -64l133 54v-1567h-168v1302q0 68 -60.5 108t-127 40t-113.5 -18.5t-74 -54.5q-60 -78 -71.5 -167.5t-12.5 -189.5h293l-37 -129h-256v-891h-167v891z" />
<glyph horiz-adv-x="0" />
<glyph horiz-adv-x="2048" />
<glyph unicode="&#xd;" horiz-adv-x="681" />
<glyph unicode=" "  horiz-adv-x="471" />
<glyph unicode="&#x09;" horiz-adv-x="471" />
<glyph unicode="&#xa0;" horiz-adv-x="471" />
<glyph unicode="!" horiz-adv-x="673" d="M243 13q-40 40 -40 96.5t39 95.5t95 39t96 -40t40 -95.5t-40 -95.5t-95 -40t-95 40zM276 444l-59 1016q0 29 35 29h168q37 0 37 -31l-60 -1014h-121z" />
<glyph unicode="&#x22;" horiz-adv-x="751" d="M141 1139v364h170v-364q0 -6 -8 -37l-18 -74q-29 -115 -29 -125h-59q0 10 -29 125l-18 74q-9 31 -9 37zM440 1139v364h172v-364l-47 -193q-2 -10 -4 -20.5t-4 -15.5t-2 -7h-59q0 10 -29 125l-18 74q-9 31 -9 37z" />
<glyph unicode="#" horiz-adv-x="1310" d="M365 483h-259v133h277l33 248h-256v135h274l64 478h149l-67 -478h229l63 478h146l-66 -478h252v-135h-268l-35 -248h254v-133h-272l-68 -493h-145l67 493h-227l-70 -493h-143zM561 864l-33 -248h228l35 248h-230z" />
<glyph unicode="$" horiz-adv-x="927" d="M137 59l76 125q115 -82 207 -82t152.5 34t60.5 104.5t-49 116.5t-120 78t-140.5 68t-118.5 97.5t-49 144.5q0 135 97 212t239 85l20 213h147l-65 -219q117 -18 194 -65l-59 -131q-96 74 -186 73.5t-150.5 -34t-60.5 -100t49 -111.5t119.5 -75t141.5 -64.5t120 -96 t49 -149.5q0 -141 -91 -220t-235 -92l-18 -209h-150l64 211q-115 12 -244 86z" />
<glyph unicode="%" horiz-adv-x="1767" d="M188.5 784.5q-94.5 120.5 -94.5 284.5t87 279.5t249 115.5h887l-727 -1491h-131l671 1373h-458q92 -117 92 -275t-89 -282.5t-240.5 -124.5t-246 120.5zM248 1059q0 -96 49 -185.5t139 -89.5q61 0 103 52q70 86 69.5 206.5t-44.5 212t-132 91.5t-136 -95.5t-48 -191.5z M1117 110.5q-93 120.5 -93 285.5t86 278.5t244.5 113.5t249 -118.5t90.5 -275t-88 -280.5t-242 -124t-247 120.5zM1225 577.5q-49 -94.5 -49 -191.5t50 -186t140 -89q61 0 101 51t54.5 110.5t14.5 116.5t-15.5 117.5t-56.5 113t-102 52.5q-88 0 -137 -94.5z" />
<glyph unicode="&#x26;" horiz-adv-x="1390" d="M104 379q0 238 312 428q-61 86 -90 157.5t-29 163.5q0 123 93 198t214 75t208 -68.5t87 -181.5t-71.5 -196t-190.5 -162l309 -373q70 139 88 305l127 -29q-27 -217 -127 -381q25 -27 56.5 -64.5t43.5 -48.5q43 -44 78 -50q88 -10 152 -11v-141h-125q-152 0 -313 170 q-184 -197 -412 -197q-166 0 -288 120t-122 286zM279 393q0 -115 77.5 -186.5t205.5 -71.5t276 133l-179 219l-174 220q-206 -136 -206 -314zM463 1133q0 -96 100 -238q176 117 176 246q0 61 -37.5 102t-99 41t-100.5 -44t-39 -107z" />
<glyph unicode="'" horiz-adv-x="462" d="M145 1147v364h172v-364q0 -6 -8 -37l-39 -156q-6 -30 -8 -35.5t-2 -7.5h-59q0 10 -29 125l-18 74q-9 31 -9 37z" />
<glyph unicode="(" horiz-adv-x="626" d="M446 -283q-356 414 -356 904.5t356 900.5l138 -21q-313 -389 -313.5 -882.5t313.5 -882.5z" />
<glyph unicode=")" horiz-adv-x="626" d="M180 -283l-137 19q315 391 315 882.5t-315 882.5l137 21q356 -410 356 -900.5t-356 -904.5z" />
<glyph unicode="*" horiz-adv-x="1044" d="M426 1118l-279 43l43 156l263 -125zM365 780l-125 92l194 213l70 -55zM475 1210l-41 287h160l-35 -287h-84zM674 776l-139 254l67 47l201 -203zM614 1108l-26 86l248 131l59 -160z" />
<glyph unicode="+" horiz-adv-x="1314" d="M578 440h-439v140h439v438h143v-438h440v-140h-440v-440h-143v440z" />
<glyph unicode="," horiz-adv-x="481" d="M145 25q-51 51 -51 105t37 89t99.5 35t103.5 -51t41 -123q0 -182 -209 -340q-37 33 -70 70q68 68 84.5 97.5t16.5 48.5t-17 36z" />
<glyph unicode="-" horiz-adv-x="641" d="M557 459h-473v153h473v-153z" />
<glyph unicode="." horiz-adv-x="466" d="M126 19.5q-40 39.5 -40 96t39 95.5t95 39t96 -40t40 -95.5t-40 -95t-95 -39.5t-95 39.5z" />
<glyph unicode="/" horiz-adv-x="667" d="M131 -18h-141l551 1507h137z" />
<glyph unicode="0" horiz-adv-x="1183" d="M234.5 127q-134.5 154 -134.5 382t134.5 380.5t359.5 152.5t359 -153.5t134 -380.5t-134 -381t-359 -154t-359.5 154zM285 507.5q0 -405.5 308 -405.5t308 405.5t-308 405.5t-308 -405.5z" />
<glyph unicode="1" horiz-adv-x="792" d="M90 752l-37 96l350 170h103v-881h231v-139h-641v139h240v690z" />
<glyph unicode="2" horiz-adv-x="960" d="M870 -2h-800v108l475 476q88 88 88 184q0 61 -40 104t-101 43q-129 0 -291 -133l-84 94q74 74 183.5 121t227 47t208.5 -72.5t91 -201.5q0 -170 -219 -354l-319 -275h622z" />
<glyph unicode="3" horiz-adv-x="839" d="M409.5 593.5q112.5 106.5 112.5 214t-104 107.5q-53 0 -121 -31.5t-113 -70.5l-96 80q111 84 188.5 116.5t190.5 32.5t177.5 -58t64.5 -159.5t-84 -197t-191 -164.5l27 2q16 2 31 2q111 0 180 -84t69 -228.5t-80.5 -258t-209.5 -175.5q-262 -123 -545 -122l-19 110 q203 0 420 111q106 53 177 139t71 188q0 184 -190 185q-74 0 -142 -23l-55 115q129 63 241.5 169.5z" />
<glyph unicode="4" horiz-adv-x="1017" d="M623 0h-598v82l567 938h201v-879h206l-36 -141h-170v-379h-170v379zM623 817l-410 -676h410v676z" />
<glyph unicode="5" horiz-adv-x="772" d="M20 -428l-32 106q453 141 452 474q0 131 -108.5 245.5t-249.5 182.5l186 438h484l-50 -174h-362l-72 -172q156 -78 256.5 -212t100.5 -296q0 -236 -178.5 -393.5t-426.5 -198.5z" />
<glyph unicode="6" horiz-adv-x="1097" d="M100 481q0 276 151.5 506t403.5 385q160 98 265 127l43 -104q-233 -98 -405.5 -271.5t-235.5 -398.5q127 104 293.5 104t275 -121.5t108.5 -304t-124.5 -306.5t-323.5 -124t-325 149.5t-126 358.5zM289 514v-39q0 -145 67.5 -259t198.5 -114t194.5 91.5t63.5 213 t-67.5 202.5t-180.5 81q-141 0 -274 -137q-2 -14 -2 -39z" />
<glyph unicode="7" horiz-adv-x="870" d="M631 864h-600l41 154h757v-86l-569 -1311h-182z" />
<glyph unicode="8" horiz-adv-x="1007" d="M172 569q39 51 74 85t100 85l33 27q-18 20 -78.5 80.5t-83 89.5t-47.5 87t-25 124q0 143 107.5 244.5t254 101.5t248 -89t101.5 -242.5t-133 -280.5l-98 -97l94 -90q186 -178 186 -347t-118.5 -269.5t-288.5 -100.5t-286 95.5t-116 248t76 248.5zM264 330 q0 -90 64.5 -160t161 -70t161 68t64.5 177.5t-162 254.5l-74 68l-102 -90q-113 -113 -113 -248zM380 1308.5q-44 -63.5 -44 -153.5t127 -213l57 -57q172 145 172 282q0 84 -50 144.5t-134 60.5t-128 -63.5z" />
<glyph unicode="9" horiz-adv-x="1097" d="M216 311q-112 125 -112 300t129 303t329 128t321 -144t121 -363q0 -276 -154 -493.5t-414 -367.5q-160 -90 -268 -118l-43 114q543 225 657 621q-127 -104 -290.5 -104.5t-275.5 124.5zM358.5 820q-67.5 -95 -67.5 -214t67.5 -199.5t180.5 -80.5q141 0 274 137q4 29 4 39 v39q0 154 -65.5 264t-195.5 110t-197.5 -95z" />
<glyph unicode=":" horiz-adv-x="677" d="M197 108.5q0 55.5 39.5 95.5t95 40t95.5 -40t40 -95.5t-40 -95.5t-95.5 -40t-95 40t-39.5 95.5zM197 753.5q0 55.5 39.5 95.5t95 40t95.5 -40t40 -95.5t-40 -95.5t-95.5 -40t-95 40t-39.5 95.5z" />
<glyph unicode=";" horiz-adv-x="684" d="M238 25q-51 51 -51.5 105t36.5 89t99.5 35t103.5 -51t41 -123q0 -182 -209 -340q-37 33 -70 70q68 68 84.5 97.5t16.5 48.5t-17 36zM197 753.5q0 55.5 39.5 95.5t95 40t95.5 -40t40 -96.5t-39 -95.5t-95.5 -39t-96 40t-39.5 95.5z" />
<glyph unicode="&#x3c;" horiz-adv-x="1290" d="M1155 -8l-1020 446v150l1020 442v-158l-829 -362l829 -363v-155z" />
<glyph unicode="=" horiz-adv-x="1290" d="M1161 231h-1022v144h1022v-144zM1161 627h-1022v143h1022v-143z" />
<glyph unicode="&#x3e;" horiz-adv-x="1290" d="M1155 438l-1020 -446v155l830 363l-830 362v158l1020 -442v-150z" />
<glyph unicode="?" horiz-adv-x="897" d="M160 1298l-56 117q88 66 263.5 66t300.5 -91.5t125 -254.5q0 -123 -84 -230.5t-205 -144.5q-35 -12 -42 -21.5t-7 -42.5v-252h-133v400q117 18 203.5 92t86.5 183.5t-74.5 173t-191 63t-186.5 -57.5zM286 13q-40 40 -40 96.5t39 95.5t95 39t96 -40t40 -95.5t-40 -95.5 t-95 -40t-95 40z" />
<glyph unicode="@" horiz-adv-x="1701" d="M995 231l-4 2q-43 -61 -107.5 -96t-127.5 -35q-127 0 -187.5 85t-60.5 204t46 230.5t144.5 195.5t214 84t179.5 -74l18 29l14 31h76l-57 -381l-13 -94q-12 -86 -12 -111q0 -106 94 -106q125 0 203 134t78 308q0 248 -162 393.5t-390 145.5t-397 -118t-253 -294t-84 -371 q0 -244 153.5 -406.5t389.5 -162.5q78 0 163 22l25 -84q-92 -25 -188 -24q-281 0 -463.5 187.5t-182.5 467.5q0 215 97.5 410.5t290 327t455.5 131.5t455.5 -168t192.5 -457q0 -207 -107.5 -369t-279.5 -162q-70 0 -120 28t-66 51.5t-25 45.5h-2zM784 203q135 0 195 207 q45 154 65 325q-61 66 -138 66t-136 -76q-111 -137 -111 -329.5t125 -192.5z" />
<glyph unicode="A" horiz-adv-x="1292" d="M209 0h-172l518 1491h186l516 -1491h-210l-173 512h-491zM631 1241l-201 -590h397z" />
<glyph unicode="B" horiz-adv-x="1257" d="M145 1491h498q453 0 453 -346q0 -121 -69 -217.5t-183 -114.5q150 -25 234.5 -133.5t84.5 -261.5q0 -289 -254 -373q-135 -45 -329 -45h-406v1356q-2 6 -4 20l-10 45l-8 45q-5 21 -7 25zM365 733v-592h227q176 0 272.5 67.5t96.5 225.5t-109 228.5t-260 70.5h-227z M365 1350v-476h219q152 0 232.5 60.5t80.5 206.5q0 209 -260 209h-272z" />
<glyph unicode="C" horiz-adv-x="1277" d="M94 750q0 332 186.5 546.5t512.5 214.5q121 0 249.5 -42t196.5 -119l-106 -119q-59 63 -155.5 100t-206 37t-206 -54t-151.5 -147q-111 -188 -111 -434t111 -418q57 -88 154.5 -137t208 -49t210.5 34t168 93l88 -137q-80 -68 -210 -106t-245 -38q-217 0 -377.5 107.5 t-238.5 281t-78 386.5z" />
<glyph unicode="D" horiz-adv-x="1431" d="M147 1491h383q807 0 807 -750q0 -338 -171 -539.5t-504 -201.5h-486v1356q-2 6 -4 20l-8 45l-12 45q-3 11 -5 25zM367 1350v-1209h270q262 0 382 166t120 438q0 317 -155 461t-468 144h-149z" />
<glyph unicode="E" horiz-adv-x="1124" d="M147 1491h895v-141h-675v-514h524v-140h-524v-555h675v-141h-866v1356q-2 6 -4 20l-8 45l-12 45q-3 11 -5 25z" />
<glyph unicode="F" horiz-adv-x="1044" d="M147 1491h826v-141h-606v-514h481v-140h-481v-696h-191v1356q-2 6 -4 20l-8 45l-12 45q-3 11 -5 25z" />
<glyph unicode="G" horiz-adv-x="1447" d="M96 727q0 344 179.5 564t512.5 220q131 0 271.5 -43t218.5 -127l-109 -127q-104 84 -182 117t-203 33t-223 -51t-153 -142q-111 -176 -111 -421t104 -426q51 -90 146.5 -143.5t237 -53.5t239.5 103.5t98 263.5v135h-366l24 139h535v-428q0 -82 8 -191.5t10 -148.5h-102 l-66 156q-90 -96 -192.5 -138.5t-237.5 -42.5q-207 0 -354 107q-285 203 -285 645z" />
<glyph unicode="H" horiz-adv-x="1462" d="M150 1491h219v-647h725v647h190v-1491h-190v705h-725v-705h-191v1356q-2 6 -4 20l-10 45l-8 45q-4 21 -6 25z" />
<glyph unicode="I" horiz-adv-x="548" d="M150 1491h219v-1491h-191v1356q-2 6 -4 20l-10 45l-8 45q-4 21 -6 25z" />
<glyph unicode="J" horiz-adv-x="548" d="M-23 -432l-24 106q154 25 194 170q33 113 33 269v1243l-30 135h221v-1366q0 -193 -34 -287t-77 -143q-95 -107 -283 -127z" />
<glyph unicode="K" horiz-adv-x="1193" d="M147 1491h220v-666l591 666h199l-588 -664l625 -827h-238l-589 776v-776h-191v1356q-2 6 -4 20l-8 45l-12 45q-3 11 -5 25z" />
<glyph unicode="L" horiz-adv-x="1052" d="M147 1491h220v-1350h626v-141h-817v1356q-2 6 -4 20l-8 45l-12 45q-3 11 -5 25z" />
<glyph unicode="M" horiz-adv-x="1716" d="M182 1356l-30 135h276l434 -1161l428 1161h248v-1491h-188v1219l-449 -1221h-115l-448 1221v-1219h-156v1356z" />
<glyph unicode="N" horiz-adv-x="1462" d="M150 1491h253l725 -1116v1116h156v-1501h-121l-829 1270v-1260h-156v1356q-2 6 -4 20l-10 45l-8 45q-4 21 -6 25z" />
<glyph unicode="O" horiz-adv-x="1509" d="M94 743q0 453 291 660q154 109 370 108.5t368.5 -109t222 -278.5t69.5 -381t-70.5 -380.5t-223 -277.5t-367.5 -108q-315 0 -487.5 220t-172.5 546zM320.5 965.5q-23.5 -105.5 -23.5 -223t23.5 -223t74.5 -199t143.5 -148.5t217.5 -55t218 55t144 147q98 180 98.5 423 t-100.5 423q-51 92 -143 147.5t-217 55.5t-217.5 -55.5t-143.5 -148.5t-74.5 -198.5z" />
<glyph unicode="P" horiz-adv-x="1177" d="M176 1356l-31 135h447q233 0 367.5 -110.5t134.5 -333t-140.5 -340t-359.5 -117.5h-227v-590h-191v1356zM367 1350v-621h223q141 0 223 85t82 229.5t-79 225.5t-224 81h-225z" />
<glyph unicode="Q" horiz-adv-x="1509" d="M94 743q0 453 291 660q154 109 370 108.5t367 -110.5q293 -209 293 -658q0 -238 -100.5 -433t-304.5 -281q6 -6 30 -15l246 -120q451 -217 699 -218q139 0 348 64l32 -98q-127 -49 -223 -73t-227 -24q-195 0 -543 148l-475 221q-72 33 -131 45l-137 31 q-274 63 -404.5 263.5t-130.5 489.5zM311.5 922q-14.5 -86 -14.5 -191.5t24.5 -212t76 -199t143.5 -147.5t215 -55t216 54t144 146q100 180 100.5 425t-100.5 425q-51 92 -144 146.5t-205 54.5t-191.5 -37t-131 -97t-85 -143t-48 -169z" />
<glyph unicode="R" horiz-adv-x="1210" d="M145 1491h445q504 0 504 -412q0 -123 -83 -228.5t-202 -141.5l418 -709h-221l-385 674q-45 -4 -74 -4h-182v-670h-191v1356q-2 6 -4 20l-10 45l-8 45q-5 21 -7 25zM365 1350v-541h163q170 0 268.5 62.5t98.5 220.5q0 123 -89 190.5t-216 67.5h-225z" />
<glyph unicode="S" horiz-adv-x="1056" d="M66 86l73 168q68 -59 163 -95t199.5 -36t195.5 64.5t91 181t-70.5 190.5t-171 118t-199.5 92t-170 136t-71 217q0 182 139.5 285.5t336 103.5t376.5 -110l-94 -137q-141 102 -275 102t-206 -57.5t-72 -173t135 -195.5q59 -35 133 -67.5t147 -72.5t132.5 -89t97 -127 t37.5 -178q0 -209 -146.5 -320t-356 -111t-424.5 111z" />
<glyph unicode="T" horiz-adv-x="1183" d="M492 1350h-443v141h1086v-141h-449v-1350h-194v1350z" />
<glyph unicode="U" horiz-adv-x="1447" d="M176 1356l-31 135h226v-991q0 -182 88 -282.5t271 -100.5t282.5 111.5t99.5 299.5v963h158v-963q0 -264 -143.5 -408.5t-405.5 -144.5t-403.5 133.5t-141.5 391.5v856z" />
<glyph unicode="V" horiz-adv-x="1234" d="M557 -6l-514 1497h203l385 -1159l397 1161h164l-516 -1499h-119z" />
<glyph unicode="W" horiz-adv-x="1830" d="M457 -10l-414 1501h201l309 -1143l307 1143h152l307 -1143l309 1143h160l-408 -1501h-157l-305 1118l-304 -1118h-157z" />
<glyph unicode="X" horiz-adv-x="1198" d="M201 0h-176l473 762l-435 729h220l327 -547l340 547h178l-434 -690l480 -801h-224l-366 614z" />
<glyph unicode="Y" horiz-adv-x="1196" d="M510 737l-444 754h221l346 -580l321 580h179l-428 -754v-737h-195v737z" />
<glyph unicode="Z" horiz-adv-x="1169" d="M1083 0h-1011v137l774 1213h-729v141h956v-137l-774 -1213h801z" />
<glyph unicode="[" horiz-adv-x="718" d="M573 -262h-426v1757h426v-100h-260v-1557h260v-100z" />
<glyph unicode="\" horiz-adv-x="667" d="M537 0l-543 1491h141l539 -1491h-137z" />
<glyph unicode="]" horiz-adv-x="716" d="M406 1395h-261v100h426v-1755h-424v100h259v1555z" />
<glyph unicode="^" horiz-adv-x="1265" d="M272 0h-157l440 1018h152l444 -1018h-156l-362 829z" />
<glyph unicode="_" horiz-adv-x="1021" d="M-18 -258v123h1060v-123h-1060z" />
<glyph unicode="`" horiz-adv-x="575" d="M350 1180l-287 311h252l195 -311h-160z" />
<glyph unicode="a" d="M1020 43q-143 -61 -197 -61q-121 0 -145 139q-137 -143 -307 -144q-125 0 -203 72t-78 197q0 350 584 350v109q0 205 -170 204q-80 0 -162 -31.5t-131 -89.5l-84 121q170 133 391 133q160 0 243 -87t83 -248v-508q0 -41 9 -59.5t36 -18.5l16 4l29 10l33 8q16 4 18 7z M264 252q0 -131 162 -131q104 0 176 85t72 191v66q-221 0 -309 -49q-41 -20 -71 -61.5t-30 -100.5z" />
<glyph unicode="b" horiz-adv-x="1142" d="M139 1561h199v-635q125 113 287 112q201 0 312.5 -157.5t111.5 -373.5t-117 -375t-318.5 -159t-312.5 131l-37 -106h-102l4 72q2 25 2 69v1303l-12 57q-4 25 -10.5 42.5t-6.5 19.5zM338 780v-372q0 -139 61.5 -223.5t194.5 -84.5q96 0 160 72q113 121 112 336 q0 156 -70.5 270.5t-209.5 114.5t-248 -113z" />
<glyph unicode="c" horiz-adv-x="921" d="M218 136q-128 163 -128 383t130 371.5t358 151.5q154 0 294 -104l-92 -119q-59 51 -107 70.5t-122 19.5q-133 0 -206 -120.5t-73 -238.5t28 -208t96.5 -158.5t153.5 -68.5t136 20.5t123 69.5l78 -129q-92 -57 -162 -80t-174 -23q-205 0 -333 163z" />
<glyph unicode="d" horiz-adv-x="1142" d="M202.5 131q-110.5 158 -110.5 376t118 375.5t337 157.5q154 0 256 -90v490l-29 121h197v-1268q0 -178 63 -289l-180 -22q-31 72 -39 139q-115 -147 -308.5 -147.5t-304 157.5zM344 237.5q72 -114.5 221 -114.5q119 0 238 135v344q0 131 -62.5 215t-189.5 84 q-78 0 -134.5 -35t-84.5 -92q-59 -117 -59.5 -269.5t71.5 -267z" />
<glyph unicode="e" d="M216 121.5q-126 148.5 -126 372t116 386t326 162.5q178 0 287 -105.5t109 -281.5q0 -131 -105 -131h-553v-20q0 -147 79 -267t218 -120q68 0 141.5 25.5t122.5 68.5l76 -123q-137 -115 -351 -115t-340 148.5zM283 651h428q23 0 28.5 9.5t5.5 33.5q0 92 -53 155.5 t-147 63.5t-169 -81t-93 -181z" />
<glyph unicode="f" horiz-adv-x="589" d="M195 891h-154v106l49 4q94 8 109 78q6 25 22 129q31 168 133.5 268.5t266.5 100.5q113 0 198 -51l-47 -127q-61 51 -146 51q-170 0 -223 -152q-41 -119 -41 -280h293l-37 -127h-256v-891h-167v891z" />
<glyph unicode="g" horiz-adv-x="976" d="M418 156l198 6q319 0 320 -215q0 -143 -80 -242q-145 -176 -446 -176q-199 0 -306 106q-61 61 -61 152q0 133 158 242q-94 51 -95 149q0 12 11.5 25.5t13.5 17.5l64 88q27 39 53 88q-74 49 -116 127t-42 164q0 147 106.5 250.5t254.5 103.5q41 0 114.5 -14t141 -14 t294.5 30l-36 -147h-220q68 -86 68 -220t-106.5 -237.5t-253.5 -103.5l-78 8q-29 0 -55.5 -40t-26.5 -73.5t21.5 -52t43 -20.5t60.5 -2zM219 -178q0 -68 71.5 -111t175 -43t208 54.5t104.5 164.5q0 76 -71 97q-86 25 -383 10q-43 -31 -74 -79t-31 -93zM268 690 q0 -96 54.5 -163.5t129 -67.5t129 66.5t54.5 162.5t-54.5 164t-129 68t-129 -67t-54.5 -163z" />
<glyph unicode="h" horiz-adv-x="1120" d="M168 1440l-27 121h195v-664q158 147 309 147q309 0 309 -362v-682h-168v627q0 197 -75 243q-37 23 -95 23q-119 0 -280 -135v-758h-168v1440z" />
<glyph unicode="i" horiz-adv-x="514" d="M131 1360q0 51 36 88t87 37t88 -37t37 -89t-36 -88t-88 -36t-88 37t-36 88zM172 897l-25 121h195v-1018h-170v897z" />
<glyph unicode="j" horiz-adv-x="514" d="M172 897l-27 121h197v-967q0 -481 -291 -518l-28 82q119 63 141 227q8 74 8 185v870zM169 1271q-36 36 -36 88t37 89t88 37t88 -37t37 -89t-36 -88t-89 -36t-89 36z" />
<glyph unicode="k" horiz-adv-x="950" d="M166 1440l-27 121h197v-963l381 420h182l-391 -428l446 -590h-202l-416 553v-553h-170v1440z" />
<glyph unicode="l" horiz-adv-x="514" d="M172 1442l-27 119h197v-1561h-170v1442z" />
<glyph unicode="m" horiz-adv-x="1697" d="M98 1012l187 20q31 -78 39 -141q152 152 297 151q201 0 280 -170q170 170 323.5 170t229.5 -97t76 -265v-680h-170v625q0 197 -78 243q-37 23 -92 23q-123 0 -262 -139q4 -45 4 -72v-680h-170v625q0 197 -78 243q-37 23 -92 23q-90 0 -203 -90l-55 -45v-756h-170v739 q0 171 -66 273z" />
<glyph unicode="n" horiz-adv-x="1120" d="M96 1010l187 24q31 -78 39 -145q154 154 315.5 153.5t237 -97.5t75.5 -265v-680h-168v625q0 156 -41 211t-131 55q-135 0 -278 -135v-756h-168v721q0 191 -68 289z" />
<glyph unicode="o" horiz-adv-x="1097" d="M212 130q-122 157 -122 376t123 377.5t338 158.5t337 -155.5t122 -378.5t-122 -379t-338 -156t-338 157zM293.5 691q-23.5 -87 -23.5 -180t27 -181t93.5 -158t162.5 -70t162.5 68t90 155t23.5 183t-24.5 183t-91 154.5t-164.5 67.5t-165 -67.5t-90.5 -154.5z" />
<glyph unicode="p" horiz-adv-x="1138" d="M102 1010l181 22q31 -72 39 -139q117 147 309 147t302.5 -157.5t110.5 -375.5t-119.5 -376t-336.5 -158q-158 0 -254 90v-385l28 -120h-196v1163q-1 189 -64 289zM334 756v-344q0 -133 61.5 -216t188.5 -83q211 0 266 252q14 66 14 137q0 160 -71.5 274.5t-223.5 114.5 q-120 0 -235 -135z" />
<glyph unicode="q" horiz-adv-x="1138" d="M971 -322l26 -120h-196v530q-125 -113 -273.5 -113t-248.5 82q-188 154 -189 445q0 225 116 382.5t319.5 157.5t312.5 -133l36 109h103l-4 -72q-2 -23 -2 -69v-1199zM272 508q0 -156 71 -270.5t214 -114.5q66 0 133.5 30.5t110.5 82.5v370q0 139 -61.5 223t-194.5 84 q-96 0 -160 -69q-113 -121 -113 -336z" />
<glyph unicode="r" horiz-adv-x="714" d="M100 1014l185 22q39 -92 47 -190q55 86 144 138t190 52l-41 -180q-166 0 -289 -180v-676h-170v737q0 181 -66 277z" />
<glyph unicode="s" horiz-adv-x="880" d="M104 59l72 125q119 -82 210 -82t152.5 33t61.5 103.5t-49 116.5t-120 78t-140.5 67t-118.5 97t-49 148q0 143 105.5 220t257 77t268.5 -71l-60 -131q-96 74 -185 73.5t-150.5 -33t-61.5 -100t49 -113.5t120 -78t141.5 -68t119.5 -99.5t49 -151.5q0 -154 -104.5 -225.5 t-255 -71.5t-312.5 86z" />
<glyph unicode="t" horiz-adv-x="669" d="M193 889h-152v102q119 4 167 105.5t71 212.5h129q-45 -184 -46 -291h267l-37 -129h-230v-651q0 -66 24 -97.5t78 -31.5t136 20l29 -115q-111 -37 -219 -37q-217 0 -217 265v647z" />
<glyph unicode="u" horiz-adv-x="1132" d="M164 897l-27 121h197v-627q0 -193 78 -244q37 -23 92 -22q115 0 196.5 72.5t81.5 187.5v512l-26 121h196v-819q0 -41 9.5 -59.5t35.5 -18.5q7 0 15 4l32 10l31 8q14 4 19 7l34 -107q-143 -61 -196 -61q-119 0 -144 139q-143 -147 -308 -147.5t-240.5 97t-75.5 265.5v561z " />
<glyph unicode="v" horiz-adv-x="931" d="M387 -12l-362 1030h180l272 -774l271 774h159l-364 -1030h-156z" />
<glyph unicode="w" horiz-adv-x="1347" d="M328 -12l-301 1030h176l207 -696l217 696h121l208 -696l215 696h152l-322 -1030h-122l-207 704l-219 -704h-125z" />
<glyph unicode="x" horiz-adv-x="913" d="M188 -2h-168l340 522l-317 498h195l223 -352l235 352h166l-315 -479l346 -541h-195l-252 395z" />
<glyph unicode="y" horiz-adv-x="933" d="M397 8l-372 1010h184l270 -774l271 774h159l-360 -1022q-150 -440 -393 -440h-78v137h22q121 0 195 110q59 84 102 205z" />
<glyph unicode="z" horiz-adv-x="911" d="M823 0h-757v96l526 791h-479v131h708v-98l-528 -791h553z" />
<glyph unicode="{" horiz-adv-x="714" d="M119 569v93q131 0 131 198v314q0 334 303 333h45v-96q-115 0 -148.5 -35t-33.5 -145v-348q0 -223 -135 -269q135 -51 135 -266v-364q0 -98 40 -131t142 -33v-96h-51q-297 0 -297 333v336q0 176 -131 176z" />
<glyph unicode="|" horiz-adv-x="481" d="M313 -219h-145v1751h145v-1751z" />
<glyph unicode="}" horiz-adv-x="714" d="M119 -276v96q111 0 145.5 35.5t34.5 144.5v348q0 215 135 266q-135 45 -135 269v364q0 100 -38 132t-142 32v96h14q174 0 253 -77.5t79 -255.5v-336q0 -176 133 -176v-93q-80 0 -106.5 -55t-26.5 -143v-314q0 -334 -301 -333h-45z" />
<glyph unicode="~" horiz-adv-x="1357" d="M281 412l-109 90q39 86 116 146.5t165 60.5t245 -70l105 -49q49 -23 97 -23t99.5 41t79.5 99l107 -97q-49 -78 -131 -137t-163 -59t-221.5 70.5t-217.5 70.5q-100 0 -172 -143z" />
<glyph unicode="&#xa1;" horiz-adv-x="673" d="M241 1026q-40 39 -40 95.5t41 96t96 39.5t95 -39.5t39 -95t-40 -95.5t-95 -40t-96 39zM219 -225l60 1009h118l62 -1013q0 -29 -37 -29h-166q-37 0 -37 33z" />
<glyph unicode="&#xa2;" horiz-adv-x="921" d="M170 177q-86 142 -86 344t114.5 350.5t325.5 166.5l21 215h151l-61 -219q135 -25 231 -98l-90 -119q-66 53 -109.5 71.5t-121.5 18.5q-133 0 -206 -120.5t-73 -238.5t28 -208t96.5 -158.5t154.5 -68.5t137 20.5t121 69.5l78 -131q-147 -100 -322 -101h-31l-20 -213h-148 l64 230q-168 47 -254 189z" />
<glyph unicode="&#xa3;" horiz-adv-x="1189" d="M1096 0h-981v141h190v594h-155v139h155v242q0 186 111.5 290.5t298.5 104.5q111 0 205 -53t153 -147l-153 -86q-74 145 -207 145q-104 0 -159.5 -70.5t-55.5 -179.5v-246h264v-139h-264v-594h598v-141z" />
<glyph unicode="&#xa4;" horiz-adv-x="1097" d="M96 334l115 115q-63 106 -63.5 230t65.5 232l-117 117l101 100l110 -112q102 86 236.5 86t236.5 -84l113 110l100 -100l-119 -117q68 -111 68 -232.5t-68 -232.5l119 -114l-100 -99l-111 109q-102 -86 -237 -86t-240 86l-108 -109l-50 50q-24 26 -51 51zM368.5 890 q-71.5 -87 -71.5 -213t73.5 -211t175 -85t175.5 84t74 212t-72 214t-177.5 86t-177 -87z" />
<glyph unicode="&#xa5;" horiz-adv-x="1028" d="M322 651l-256 365h186l276 -387l258 387h156l-248 -365h201v-96h-266l-37 -51v-72h303v-98h-303v-334h-166v334h-299v98h299v72l-37 51h-262v96h195z" />
<glyph unicode="&#xa6;" horiz-adv-x="487" d="M311 -236h-139v713h139v-713zM311 805h-139v715h139v-715z" />
<glyph unicode="&#xa7;" horiz-adv-x="1017" d="M109 729q0 102 61 168t164 92q-57 66 -83 113t-26 119q0 125 93.5 201.5t222.5 76.5q205 0 315 -176l-111 -82q-96 137 -210 137q-59 0 -102.5 -39t-43.5 -95t56.5 -120.5t137.5 -129t160.5 -133t136 -154.5t56.5 -177.5t-56.5 -160t-150.5 -99.5q109 -123 109 -254 t-98.5 -211.5t-219.5 -80.5q-231 0 -375 188l123 96l47 -57q94 -106 191 -107q70 0 116 44t46 103.5t-41 119t-103.5 114t-135.5 119t-135.5 123.5t-103 129t-40.5 133zM264 762q0 -100 275 -332l96 -78q53 8 98 49t45 95q0 109 -106 198l-246 209q-55 0 -108.5 -41 t-53.5 -100z" />
<glyph unicode="&#xa8;" horiz-adv-x="565" d="M0 1278q0 47 34 82t82 35t81.5 -34t33.5 -82t-34.5 -83t-81.5 -35t-81 35t-34 82zM334 1278q0 47 33.5 82t82 35t82 -34t33.5 -82t-34.5 -83t-82 -35t-81 35t-33.5 82z" />
<glyph unicode="&#xa9;" horiz-adv-x="1300" d="M90 512q0 229 164 393t393.5 164t393 -164t163.5 -393t-163.5 -393t-393 -164t-393.5 164t-164 393zM170 512q0 -197 140.5 -337t337 -140t336.5 140t140 337t-140 337t-336.5 140t-337 -140t-140.5 -337zM431 275.5q-81 95.5 -81 239.5t86 238.5t232 94.5q94 0 194 -68 l-61 -78q-66 55 -150 55.5t-130 -72.5t-46 -164t47 -169t131 -78t166 58l53 -88q-109 -63 -234.5 -63.5t-206.5 95z" />
<glyph unicode="&#xaa;" horiz-adv-x="645" d="M72.5 842q-52.5 49 -52.5 137t60.5 144.5t134.5 72.5t166 16v56q0 117 -92 116q-47 0 -98.5 -24.5t-84.5 -61.5l-67 103q113 94 258 94q213 0 213 -225v-314q0 -47 14 -47l70 21l31 -90q-41 -16 -75 -30.5t-67 -14.5q-70 0 -94 75q-82 -78 -173 -77.5t-143.5 49.5z M530 571h-448v103h448v-103zM156 983q0 -74 98 -74q47 0 87 51.5t40 110.5v29q-160 0 -205 -53q-20 -27 -20 -64z" />
<glyph unicode="&#xab;" horiz-adv-x="954" d="M416 354l-303 334l295 334l124 -23l-237 -311l244 -315zM721 354l-305 334l297 334l125 -23l-238 -311l242 -315z" />
<glyph unicode="&#xac;" horiz-adv-x="1306" d="M1032 571h-885v123h1010v-512h-125v389z" />
<glyph unicode="&#xad;" horiz-adv-x="1302" d="M1155 442h-1008v125h1008v-125z" />
<glyph unicode="&#xae;" horiz-adv-x="940" d="M68 1235q0 168 118.5 286.5t285.5 118.5t288 -119.5t121 -285.5t-121 -286t-288 -120t-285.5 119t-118.5 287zM135 1235q0 -139 99.5 -238.5t239.5 -99.5t239.5 99.5t99.5 238.5t-99.5 238.5t-239.5 99.5t-239.5 -99.5t-99.5 -238.5zM410 1008h-103v460h180 q160 0 160 -131q0 -82 -94 -116l149 -213h-122l-134 196h-36v-196zM410 1393v-113h49q86 0 86 61q0 51 -72 52h-63z" />
<glyph unicode="&#xaf;" horiz-adv-x="561" d="M592 1221h-623v131h623v-131z" />
<glyph unicode="&#xb0;" horiz-adv-x="794" d="M90 1214q0 127 90 217.5t217 90.5t217.5 -90.5t90.5 -217.5t-90.5 -217t-217.5 -90t-217 90t-90 217zM217 1214.5q0 -75.5 51 -130t129 -54.5t128 54.5t50 130t-50 130t-128 54.5t-129 -54.5t-51 -130z" />
<glyph unicode="&#xb1;" horiz-adv-x="1294" d="M1161 -2h-1022v143h1022v-143zM578 537h-439v143h439v336h143v-336h440v-143h-440v-338h-143v338z" />
<glyph unicode="&#xb2;" horiz-adv-x="935" d="M791 889h-672v78q139 111 258 231q258 258 258 430q0 68 -43 111t-123 43t-178 -56q-43 -23 -76 -53l-65 96q39 37 94 66q127 66 271 66t218 -77t74 -184q0 -193 -229 -421q-102 -100 -228 -191h479z" />
<glyph unicode="&#xb3;" horiz-adv-x="935" d="M410 1391l-52 -2q-6 -2 -20 -3l-16 97q283 57 282 203q0 96 -132 96t-269 -103l-66 95q70 55 170.5 91t200.5 36t177 -43t77 -133.5t-57.5 -147.5t-137.5 -86q102 -12 171 -73.5t69 -163t-86 -203t-299 -152.5q-119 -29 -272 -33l-21 105q248 12 381 84.5t133 185.5 q0 150 -233 150z" />
<glyph unicode="&#xb4;" horiz-adv-x="575" d="M223 1169h-160l197 312h250z" />
<glyph unicode="&#xb6;" horiz-adv-x="1024" d="M82 1065q0 201 126 303t331 102h393v-110h-115v-1340q0 -92 -67.5 -159.5t-159.5 -67.5q-6 0 -35 4q-66 -121 -201 -121q-92 0 -159.5 68t-67.5 160t67.5 159.5t159.5 67.5v-111q-47 0 -81.5 -34.5t-34.5 -81.5t34.5 -82t81.5 -35t81 35t34 82v776q-162 0 -274.5 110.5 t-112.5 274.5zM582 1360v-1456h8q47 0 82 34.5t35 81.5v1340h-125z" />
<glyph unicode="&#xb7;" horiz-adv-x="600" d="M206 438q-40 39 -40 95.5t39 96.5t95 40t96 -41t40 -96.5t-40 -94.5t-95 -39t-95 39z" />
<glyph unicode="&#xb8;" horiz-adv-x="573" d="M66 -393l49 94q90 -47 129 -47t65.5 22.5t26.5 57.5q0 72 -78 71h-96q-27 0 -27 37l98 176h97l-60 -112h23q84 0 148.5 -41t64.5 -125q0 -190 -266 -191q-84 1 -174 58z" />
<glyph unicode="&#xb9;" horiz-adv-x="935" d="M176 1696l-20 49q176 59 346 135h102v-870h205v-121h-623v121h254v706l-247 -71z" />
<glyph unicode="&#xba;" horiz-adv-x="679" d="M111 910.5q-84 101.5 -84 248t85 248.5t229 102t228 -101t84 -248.5t-84 -249t-229 -101.5t-229 101.5zM565 571h-448v103h448v-103zM210 1328q-42 -75 -42 -166t45 -169t129 -78t126 76t42 168t-42 168t-129 76t-129 -75z" />
<glyph unicode="&#xbb;" horiz-adv-x="954" d="M233 350l-120 17l241 317l-237 309l125 25l297 -334zM539 350l-123 17l243 317l-237 309l125 25l295 -334z" />
<glyph unicode="&#xbc;" horiz-adv-x="2240" d="M176 1315l-20 49q176 59 346 135h102v-870h205v-121h-623v121h254v706l-247 -71zM862 -45h-127l631 1587h129zM1696 225h-469v82l469 682h164v-643h153l-35 -121h-118v-225h-164v225zM1565 586l-164 -240h295v301l4 62v59q2 18 2 47q-33 -61 -64 -110z" />
<glyph unicode="&#xbd;" horiz-adv-x="2279" d="M176 1315l-20 49q176 59 346 135h102v-870h205v-121h-623v121h254v706l-247 -71zM862 -45h-127l631 1587h129zM2054 0h-672v78q2 0 41 33l84 73q152 131 271.5 284t119.5 265q0 68 -44 109t-119.5 41t-150.5 -37t-103 -66l-66 99l47 34q145 98 305 98.5t235 -75.5 t75 -178.5t-58.5 -208t-142.5 -189.5q-147 -147 -244 -213h461q-8 -25 -20 -73z" />
<glyph unicode="&#xbe;" horiz-adv-x="2203" d="M408 1008l-50 -2q-6 -2 -20 -2l-16 96q276 55 276 205q0 94 -137 94q-61 0 -135 -31t-123 -72l-66 95q70 55 170.5 91t200.5 36t177 -43t77 -133.5t-58.5 -147.5t-138.5 -86q104 -12 173 -73.5t69 -163t-86 -203t-299 -152.5q-119 -29 -272 -33l-21 105q246 12 379 84.5 t133 185.5q0 150 -233 150zM807 -45h-127l631 1587h127zM1642 225h-468v82l466 682h166v-643h154l-18 -59l-17 -62h-119v-225h-164v225zM1511 588l-165 -242h296v301l5 62v59q2 18 2 47q-46 -88 -138 -227z" />
<glyph unicode="&#xbf;" horiz-adv-x="882" d="M98 88q0 123 84 230.5t205 144.5q35 12 42 21.5t7 41.5v252h133v-399q-121 -23 -205.5 -93.5t-84.5 -181t74.5 -174t191.5 -63.5t186 57l55 -117q-88 -66 -263 -65.5t-300 91.5t-125 255zM375 1114q0 55 40 95t95 40t95 -40t40 -96t-39 -95t-95 -39t-96 40t-40 95z" />
<glyph unicode="&#xc0;" horiz-adv-x="1292" d="M209 0h-172l518 1372h186l516 -1372h-210l-168 465h-498zM604 1477l-287 311h252l195 -311h-160zM631 1137l-197 -533h393z" />
<glyph unicode="&#xc1;" horiz-adv-x="1292" d="M219 0h-172l518 1372h187l516 -1372h-211l-168 465h-498zM641 1137l-197 -533h394zM725 1466h-160l197 310h250z" />
<glyph unicode="&#xc2;" horiz-adv-x="1292" d="M209 0h-172l518 1372h186l516 -1372h-210l-168 465h-498zM487 1425h-137l209 318h170l217 -318h-143l-160 168zM631 1137l-197 -533h393z" />
<glyph unicode="&#xc3;" horiz-adv-x="1292" d="M209 0h-172l518 1372h186l516 -1372h-210l-168 465h-498zM440 1460h-102q14 84 64.5 144.5t119 60.5t164.5 -40t141 -40t64 53h98q-8 -80 -53 -141t-112.5 -61t-166 40t-135.5 40q-68 -1 -82 -56zM631 1137l-197 -533h393z" />
<glyph unicode="&#xc4;" horiz-adv-x="1292" d="M209 0h-172l518 1372h186l516 -1372h-210l-168 465h-498zM369 1585q0 47 34.5 82t81.5 35t82 -35t35 -82t-35 -82t-82 -35t-81.5 35t-34.5 82zM631 1137l-197 -533h393zM702 1585q0 47 35 82t82 35t82 -35t35 -82t-35 -82t-82 -35t-82 35t-35 82z" />
<glyph unicode="&#xc5;" horiz-adv-x="1292" d="M209 0h-172l502 1331q-98 53 -99 174q0 86 58.5 144.5t144.5 58.5t142.5 -58.5t56.5 -144.5q0 -115 -88 -168l503 -1337h-210l-168 463h-498zM631 1135l-197 -533h393zM543 1505q0 -41 28.5 -69.5t69.5 -28.5t69.5 28.5t28.5 69.5t-28.5 70t-69.5 29t-69.5 -29t-28.5 -70 z" />
<glyph unicode="&#xc6;" horiz-adv-x="1626" d="M199 0h-174l616 1358l-29 133h918v-139h-543v-512h479v-148h-479v-547h543v-145h-731v508h-367zM799 1313l-301 -658h301v658z" />
<glyph unicode="&#xc7;" horiz-adv-x="1277" d="M608 -170l4 12l78 140q-186 25 -323 135q-272 219 -273 633q0 332 186.5 546.5t512.5 214.5q121 0 249.5 -42t196.5 -119l-106 -119q-59 63 -155.5 100t-206 37t-206 -54t-151.5 -147q-111 -188 -111 -434t111 -418q57 -88 154.5 -137t208 -49t210.5 34t168 93l88 -137 q-80 -68 -210 -106t-249 -38l-36 -69h24q84 0 148.5 -41t64.5 -125q0 -190 -266 -191q-86 0 -176 58l51 94q82 -47 125 -47t69.5 22.5t26.5 57.5q0 72 -78 71h-98q-31 0 -31 25z" />
<glyph unicode="&#xc8;" horiz-adv-x="1124" d="M176 1235q-4 12 -4 22l-8 41l-12 45q-2 8 -5 25h895v-139h-673v-459h522v-143h-522v-486h673v-141h-866v1235zM553 1477l-287 311h250l195 -311h-158z" />
<glyph unicode="&#xc9;" horiz-adv-x="1124" d="M176 1235q-4 12 -4 22l-8 41l-12 45q-2 8 -5 25h895v-139h-673v-459h522v-143h-522v-486h673v-141h-866v1235zM690 1468h-160l195 312h252z" />
<glyph unicode="&#xca;" horiz-adv-x="1124" d="M152 1343q0 10 -5 27h895v-139h-673v-459h522v-143h-522v-488h673v-141h-866v1237q-4 12 -4 20l-8 43zM453 1425h-138l209 318h172l217 -318h-143l-160 168z" />
<glyph unicode="&#xcb;" horiz-adv-x="1124" d="M147 1343q0 10 -4 27h895v-139h-673v-459h522v-143h-522v-488h673v-141h-866v1237q-4 12 -4 20l-8 43zM372 1510.5q-34 33.5 -34 81.5t35 83t82 35t80.5 -35t33.5 -82t-33.5 -81.5t-81.5 -34.5t-82 33.5zM705.5 1510.5q-33.5 33.5 -33.5 81.5t34.5 83t82 35t82 -35 t34.5 -82t-34.5 -81.5t-83 -34.5t-82 33.5z" />
<glyph unicode="&#xcc;" horiz-adv-x="548" d="M213 1473l-287 311h250l195 -311h-158zM176 1233q-4 12 -4 20l-8 45l-12 45q-2 8 -5 25h224v-1368h-195v1233z" />
<glyph unicode="&#xcd;" horiz-adv-x="552" d="M303 1466h-160l195 310h252zM176 1235l-31 135h224v-1370h-193v1235z" />
<glyph unicode="&#xce;" horiz-adv-x="552" d="M109 1425h-140l209 318h172l217 -318h-143l-160 168zM176 1233l-31 135h226v-1368h-195v1233z" />
<glyph unicode="&#xcf;" horiz-adv-x="552" d="M-14 1593q0 47 34.5 82t82 35t82 -35t34.5 -82t-34.5 -81.5t-82 -34.5t-82 34.5t-34.5 81.5zM174 1233q-4 12 -4 20l-10 45l-8 45q-6 20 -7 25h224v-1368h-195v1233zM319 1593q0 47 35 82t82 35t82 -35t35 -83t-34 -81.5t-82 -33.5t-83 34.5t-35 81.5z" />
<glyph unicode="&#xd0;" horiz-adv-x="1462" d="M182 1356q-4 12 -4 20l-10 45l-8 45q-6 20 -6 25h383q807 0 806 -750q0 -338 -171 -539.5t-504 -201.5h-486v678h-166v131h166v547zM373 678v-537h270q262 0 382 166t120 438q0 317 -154.5 461t-468.5 144h-149v-541h317v-131h-317z" />
<glyph unicode="&#xd1;" horiz-adv-x="1462" d="M178 1233q-4 12 -4 20l-10 45l-8 45q-6 20 -6 25h253l725 -999v999h156v-1380h-121l-827 1153v-1141h-158v1233zM532 1460h-100q8 82 60.5 143.5t121 61.5t164.5 -41t142.5 -41t64.5 53h96q-8 -80 -53 -141t-112.5 -61t-166 39.5t-149 39.5t-68.5 -53z" />
<glyph unicode="&#xd2;" horiz-adv-x="1509" d="M282.5 181q-186.5 208 -186.5 500t185.5 500t474 208t474 -208t185.5 -500t-185.5 -500t-473 -208t-474 208zM297 682q0 -141 49 -268t156.5 -214t253.5 -87q215 0 336.5 173t121.5 396t-121.5 395t-335.5 172t-337 -172t-123 -395zM682 1475l-287 311h252l195 -311h-160 z" />
<glyph unicode="&#xd3;" horiz-adv-x="1509" d="M281.5 183q-185.5 208 -185.5 500t185.5 500t474 208t474 -208t185.5 -500t-185.5 -500t-474 -208t-474 208zM297 682q0 -223 123 -395t337 -172t335.5 172t121.5 395t-121.5 396t-336.5 173q-145 0 -253 -87t-157 -214t-49 -268zM793 1470h-160l194 312h252z" />
<glyph unicode="&#xd4;" horiz-adv-x="1509" d="M282.5 181q-186.5 208 -186.5 500t185.5 500t474 208t474 -208t185.5 -500t-185.5 -500t-473 -208t-474 208zM297 682q0 -141 49 -268t156.5 -214t253.5 -87q215 0 336.5 173t121.5 396t-121.5 395t-335.5 172t-337 -172t-123 -395zM590 1421h-137l209 318h169l218 -318 h-142l-162 168z" />
<glyph unicode="&#xd5;" horiz-adv-x="1507" d="M279.5 183q-185.5 208 -185.5 500t185.5 500t474 208t474 -208t185.5 -500t-185.5 -500t-474 -208t-474 208zM295 682q0 -223 123 -395t337 -172t335.5 172t121.5 395t-121.5 396t-336.5 173q-145 0 -253 -87t-157 -214t-49 -268zM543 1462h-101q8 82 61.5 143.5 t121 61.5t165 -40t142.5 -40t63 53h99q-8 -78 -55.5 -140t-114 -62t-164.5 40t-144 39.5t-73 -55.5z" />
<glyph unicode="&#xd6;" horiz-adv-x="1509" d="M281.5 183q-185.5 208 -185.5 500t185.5 500t474 208t474 -208t185.5 -500t-185.5 -500t-474 -208t-474 208zM297 682q0 -223 123 -395t337 -172t335.5 172t121.5 395t-121.5 396t-336.5 173q-145 0 -253 -87t-157 -214t-49 -268zM467 1585q0 47 35 82t82 35t81.5 -35 t34.5 -82t-34.5 -82t-81.5 -35t-82 35t-35 82zM801 1585q0 47 34.5 82t82 35t82 -35t34.5 -82t-34.5 -82t-82 -35t-82 35t-34.5 82z" />
<glyph unicode="&#xd7;" horiz-adv-x="1093" d="M236 102l-91 91l314 311l-314 311l91 90l311 -311l311 311l90 -90l-313 -311l313 -311l-90 -91l-311 312z" />
<glyph unicode="&#xd8;" horiz-adv-x="1507" d="M291 160q-197 211 -197 563t172 568t494 216q195 0 344 -94l102 158l111 -64l-113 -172q209 -217 209 -596q0 -449 -299 -657q-154 -109 -363.5 -109t-363.5 107l-129 -197l-106 68zM393 324l312 475l309 479q-102 90 -242 90q-269 0 -373 -191.5t-104 -438t98 -414.5z M1104 1178l-629 -959q115 -106 283 -106q123 0 215 54t141 144q98 178 98.5 437.5t-108.5 429.5z" />
<glyph unicode="&#xd9;" horiz-adv-x="1447" d="M145 1368h226v-870q0 -182 88 -282.5t270 -100.5t282.5 113.5t100.5 297.5v842h158v-842q0 -264 -143.5 -408.5t-405.5 -144.5t-403.5 133.5t-141.5 391.5v737q0 10 -14 63l-10 45q-7 21 -7 25zM670 1477l-287 309h250l194 -309h-157z" />
<glyph unicode="&#xda;" horiz-adv-x="1447" d="M145 1370h226v-870q0 -182 88 -282.5t270 -100.5t282.5 113.5t100.5 297.5v842h158v-842q0 -264 -143.5 -408.5t-405.5 -144.5t-403.5 133.5t-141.5 391.5v737q0 8 -14 66l-10 43q-7 22 -7 24zM803 1468h-158l195 310h250z" />
<glyph unicode="&#xdb;" horiz-adv-x="1447" d="M145 1370h226v-870q0 -182 88 -282.5t270 -100.5t282.5 113.5t100.5 297.5v842h158v-842q0 -264 -143.5 -408.5t-405.5 -144.5t-403.5 133.5t-141.5 391.5v737q0 8 -14 66l-10 43q-7 22 -7 24zM578 1425h-140l209 316h172l213 -316h-139l-160 166z" />
<glyph unicode="&#xdc;" horiz-adv-x="1447" d="M145 1370h226v-870q0 -182 88 -282.5t270 -100.5t282.5 113.5t100.5 297.5v842h158v-842q0 -264 -143.5 -408.5t-406.5 -144.5t-403.5 132.5t-140.5 392.5v737q0 8 -14 66l-10 43q-7 22 -7 24zM463 1585q0 47 33.5 82t81 35t82 -35t34.5 -82t-34.5 -82t-82 -35t-81 35 t-33.5 82zM797 1585q0 47 34.5 82t82 35t81 -35t33.5 -82t-33.5 -82t-81 -35t-82 35t-34.5 82z" />
<glyph unicode="&#xdd;" horiz-adv-x="1196" d="M508 614l-442 756h219l346 -582l321 582h181l-431 -756v-614h-194v614zM705 1468h-158l194 310h250z" />
<glyph unicode="&#xde;" horiz-adv-x="1177" d="M182 1356l-30 135h223v-240h203q236 0 375 -103.5t139 -324.5t-145.5 -334.5t-366.5 -113.5h-207v-373h-191v1354zM373 1110v-596h219q137 0 218 84t81 221t-76 214t-221 77h-221z" />
<glyph unicode="&#xdf;" horiz-adv-x="1130" d="M209 889h-152v112q92 0 125 33t54 129q39 170 131 262.5t256.5 92.5t256 -83t91.5 -229.5t-78 -218.5q-45 -39 -139 -93.5t-95 -66.5q0 -18 93 -63l125 -64q219 -119 219 -323q0 -182 -108.5 -292t-289.5 -110q-109 0 -215 41l58 119q88 -27 141 -26q92 0 162.5 65.5 t70.5 157.5t-42 150.5t-101 95t-119 69.5q-143 80 -143 165t141 167q51 31 95.5 87t44.5 126q0 182 -164 182q-74 0 -126 -39t-77 -102q-45 -119 -45 -262v-971h-170v889z" />
<glyph unicode="&#xe0;" horiz-adv-x="1005" d="M1020 43q-143 -61 -197 -61q-121 0 -145 139q-137 -143 -307 -144q-125 0 -203 72t-78 197q0 350 584 350v109q0 205 -170 204q-80 0 -162 -31.5t-131 -89.5l-84 121q170 133 391 133q160 0 243 -87t83 -248v-508q0 -41 9 -59.5t36 -18.5q8 4 16 4l29 10l33 8q16 4 18 7z M442 1180l-286 311h252l194 -311h-160zM264 252q0 -131 162 -131q104 0 176 85t72 191v66q-221 0 -309 -49q-41 -20 -71 -61.5t-30 -100.5z" />
<glyph unicode="&#xe1;" d="M1020 43q-143 -61 -197 -61q-121 0 -145 139q-137 -143 -307 -144q-125 0 -203 72t-78 197q0 350 584 350v109q0 205 -170 204q-80 0 -162 -31.5t-131 -89.5l-84 121q170 133 391 133q160 0 243 -87t83 -248v-508q0 -41 9 -59.5t36 -18.5q8 4 16 4l29 10l33 8q16 4 18 7z M264 252q0 -131 162 -131q104 0 176 85t72 191v66q-221 0 -309 -49q-41 -20 -71 -61.5t-30 -100.5zM580 1182h-160l196 311h250z" />
<glyph unicode="&#xe2;" d="M1020 43q-143 -61 -197 -61q-121 0 -145 139q-137 -143 -307 -144q-125 0 -203 72t-78 197q0 350 584 350v109q0 205 -170 204q-80 0 -162 -31.5t-131 -89.5l-84 121q170 133 391 133q160 0 243 -87t83 -248v-508q0 -41 9 -59.5t36 -18.5q8 4 16 4l29 10l33 8q16 4 18 7z M340 1178h-137l209 315h170l217 -317h-142l-161 167zM264 252q0 -131 162 -131q104 0 176 85t72 191v66q-221 0 -309 -49q-41 -20 -71 -61.5t-30 -100.5z" />
<glyph unicode="&#xe3;" d="M1020 43q-143 -61 -197 -61q-121 0 -145 139q-137 -143 -307 -144q-125 0 -203 72t-78 197q0 350 584 350v109q0 205 -170 204q-80 0 -162 -31.5t-131 -89.5l-84 121q170 133 391 133q160 0 243 -87t83 -248v-508q0 -41 9 -59.5t36 -18.5q8 4 16 4l29 10l33 8q16 4 18 7z M295 1198h-100q8 82 61 143.5t120.5 61.5t163 -40t142.5 -40t66 53h96q-8 -80 -53.5 -141t-113 -61t-165.5 39.5t-144 39.5t-73 -55zM264 252q0 -131 162 -131q104 0 176 85t72 191v66q-221 0 -309 -49q-41 -20 -71 -61.5t-30 -100.5z" />
<glyph unicode="&#xe4;" d="M1020 43q-143 -61 -197 -61q-121 0 -145 139q-137 -143 -307 -144q-125 0 -203 72t-78 197q0 350 584 350v109q0 205 -170 204q-80 0 -162 -31.5t-131 -89.5l-84 121q170 133 391 133q160 0 243 -87t83 -248v-508q0 -41 9 -59.5t36 -18.5q8 4 16 4l29 10l33 8q16 4 18 7z M231 1278q0 47 34 82t82 35t82 -34t34 -82t-35 -83t-82 -35t-81 35t-34 82zM264 252q0 -131 162 -131q104 0 176 85t72 191v66q-221 0 -309 -49q-41 -20 -71 -61.5t-30 -100.5zM565 1278q0 47 34 82t82 35t82 -34t34 -82t-35 -83t-82 -35t-81 35t-34 82z" />
<glyph unicode="&#xe5;" horiz-adv-x="1032" d="M1020 43q-143 -61 -197 -61q-121 0 -145 139q-137 -143 -307 -144q-125 0 -203 72t-78 197q0 350 584 350v109q0 205 -170 204q-80 0 -162 -31.5t-131 -89.5l-84 121q170 133 391 133q160 0 243 -87t83 -248v-508q0 -41 9 -59.5t36 -18.5q8 4 16 4l29 10l33 8q16 4 18 7z M264 252q0 -131 162 -131q104 0 176 85t72 191v66q-221 0 -309 -49q-41 -20 -71 -61.5t-30 -100.5zM315 1331q0 82 60.5 143.5t144.5 61.5t142.5 -59.5t58.5 -143.5t-60.5 -144.5t-142.5 -60.5t-142.5 60.5t-60.5 142.5zM420 1331q0 -41 28.5 -69.5t69.5 -28.5t69.5 28.5 t28.5 69.5t-28.5 70t-69.5 29t-69.5 -29t-28.5 -70z" />
<glyph unicode="&#xe6;" horiz-adv-x="1536" d="M84 250q0 90 38 158q68 120 218.5 166.5t329.5 46.5q2 8 2 24v25q0 240 -172 239q-80 0 -162 -31.5t-133 -89.5l-84 119q53 61 173 98t214 37q201 0 283 -133q55 61 137 97t164 36q188 0 285.5 -102t97.5 -291q0 -76 -27 -115.5t-98 -39.5h-521v-35q0 -129 82 -235.5 t209 -106.5q70 0 144.5 24.5t121.5 67.5l82 -125q-141 -111 -340 -111q-246 0 -393 201q-74 -106 -157.5 -152.5t-211.5 -46.5t-205 73t-77 202zM298 376q-38 -48 -38 -115.5t45 -103.5t115 -36q115 0 181.5 89t66.5 208v71h-29q-127 0 -215 -32.5t-126 -80.5zM842 621h418 q29 0 39 8t10 37q0 106 -47.5 176.5t-155 70.5t-177 -86.5t-87.5 -205.5z" />
<glyph unicode="&#xe7;" horiz-adv-x="921" d="M90 508q0 231 130 382.5t358 151.5q154 0 294 -104l-92 -119q-59 51 -107 70.5t-122 19.5q-133 0 -206 -120.5t-73 -238.5t28 -208t96.5 -158.5t153.5 -68.5t136 20.5t123 69.5l78 -129q-94 -59 -163 -81t-175 -22l-37 -67h25q84 0 148.5 -41t64.5 -125q0 -190 -261 -191 q-90 0 -180 58l49 94q90 -47 129 -47t66 22.5t27 57.5q0 72 -78 71h-96q-33 0 -33 25l4 12l80 142q-166 35 -266.5 188.5t-100.5 335.5z" />
<glyph unicode="&#xe8;" d="M216 121.5q-126 148.5 -126 372t116 386t326 162.5q178 0 287 -105.5t109 -281.5q0 -131 -105 -131h-553v-20q0 -147 79 -267t218 -120q68 0 141.5 25.5t122.5 68.5l76 -123q-137 -115 -351 -115t-340 148.5zM473 1180l-287 311h252l195 -311h-160zM283 651h428 q23 0 28.5 9.5t5.5 33.5q0 92 -53 155.5t-147 63.5t-169 -81t-93 -181z" />
<glyph unicode="&#xe9;" d="M216 121.5q-126 148.5 -126 372t116 386t326 162.5q178 0 287 -105.5t109 -281.5q0 -131 -105 -131h-553v-20q0 -147 79 -267t218 -120q68 0 141.5 25.5t122.5 68.5l76 -123q-137 -115 -351 -115t-340 148.5zM283 651h428q23 0 28.5 9.5t5.5 33.5q0 92 -53 155.5 t-147 63.5t-169 -81t-93 -181zM608 1180h-159l196 311h250z" />
<glyph unicode="&#xea;" d="M216 121.5q-126 148.5 -126 372t116 386t326 162.5q178 0 287 -105.5t109 -281.5q0 -131 -105 -131h-553v-20q0 -147 79 -267t218 -120q68 0 141.5 25.5t122.5 68.5l76 -123q-137 -115 -351 -115t-340 148.5zM373 1176h-137l208 315h170l217 -317h-141l-162 167zM283 651 h428q23 0 28.5 9.5t5.5 33.5q0 92 -53 155.5t-147 63.5t-169 -81t-93 -181z" />
<glyph unicode="&#xeb;" d="M216 121.5q-126 148.5 -126 372t116 386t326 162.5q178 0 287 -105.5t109 -281.5q0 -131 -105 -131h-553v-20q0 -147 79 -267t218 -120q68 0 141.5 25.5t122.5 68.5l76 -123q-137 -115 -351 -115t-340 148.5zM262 1278q0 47 34 82t82 35t82 -34t34 -82t-35 -83t-82 -35 t-81 35t-34 82zM283 651h428q23 0 28.5 9.5t5.5 33.5q0 92 -53 155.5t-147 63.5t-169 -81t-93 -181zM596 1278q0 47 34 82t82 35t81.5 -34t33.5 -82t-34.5 -83t-81.5 -35t-81 35t-34 82z" />
<glyph unicode="&#xec;" horiz-adv-x="512" d="M188 1180l-286 311h252l194 -311h-160zM172 897l-25 121h195v-1018h-170v897z" />
<glyph unicode="&#xed;" horiz-adv-x="512" d="M299 1180h-160l197 311h250zM172 897l-25 121h195v-1018h-170v897z" />
<glyph unicode="&#xee;" horiz-adv-x="512" d="M94 1178h-137l209 315h170l217 -317h-141l-162 167zM172 897l-25 121h195v-1018h-170v897z" />
<glyph unicode="&#xef;" horiz-adv-x="512" d="M-25 1278q0 47 34 82t82 35t82 -34t34 -82t-35 -83t-82 -35t-81 35t-34 82zM172 897l-25 121h195v-1018h-170v897zM309 1278q0 47 34 82t82 35t82 -34t34 -82t-35 -83t-82 -35t-81 35t-34 82z" />
<glyph unicode="&#xf0;" horiz-adv-x="1097" d="M92 506q0 221 124 374.5t333 153.5q70 0 137 -26q-84 164 -197 303l-215 -119l-63 82l213 119l-59 65l-58 55l113 68l55 -53q37 -35 68 -70l219 121l57 -86l-207 -115q393 -471 394 -872q0 -221 -122 -373.5t-335 -152.5t-335 152.5t-122 373.5zM294.5 684 q-22.5 -86 -22.5 -179t22.5 -178t89.5 -155t165 -70t164.5 69t89 155t22.5 180t-22.5 180t-89 155.5t-164.5 69.5t-165 -70.5t-89.5 -156.5z" />
<glyph unicode="&#xf1;" horiz-adv-x="1120" d="M96 1010l187 24q31 -78 39 -145q154 154 315.5 153.5t237 -97.5t75.5 -265v-680h-168v625q0 156 -41 211t-131 55q-135 0 -278 -135v-756h-168v721q0 191 -68 289zM342 1198h-102q14 84 64 144.5t119 60.5t165 -40t137 -40t70 53h96q-8 -80 -53 -141t-113 -61t-166 39.5 t-133 39.5q-70 0 -84 -55z" />
<glyph unicode="&#xf2;" horiz-adv-x="1097" d="M212 130q-122 157 -122 376t123 377.5t338 158.5t337 -155.5t122 -378.5t-122 -379t-338 -156t-338 157zM483 1178l-286 311h249l197 -311h-160zM293.5 691q-23.5 -87 -23.5 -180t27 -181t93.5 -158t162.5 -70t162.5 68t90 155t23.5 183t-24.5 183t-91 154.5t-164.5 67.5 t-165 -67.5t-90.5 -154.5z" />
<glyph unicode="&#xf3;" horiz-adv-x="1097" d="M212 130q-122 157 -122 376t123 377.5t338 158.5t337 -155.5t122 -378.5t-122 -379t-338 -156t-338 157zM293.5 691q-23.5 -87 -23.5 -180t27 -181t93.5 -158t162.5 -70t162.5 68t90 155t23.5 183t-24.5 183t-91 154.5t-164.5 67.5t-165 -67.5t-90.5 -154.5zM629 1178 h-160l195 311h251z" />
<glyph unicode="&#xf4;" horiz-adv-x="1097" d="M212 130q-122 157 -122 376t123 377.5t338 158.5t337 -155.5t122 -378.5t-122 -379t-338 -156t-338 157zM391 1174h-137l209 315h170l217 -318h-141l-162 168zM293.5 691q-23.5 -87 -23.5 -180t27 -181t93.5 -158t162.5 -70t162.5 68t90 155t23.5 183t-24.5 183 t-91 154.5t-164.5 67.5t-165 -67.5t-90.5 -154.5z" />
<glyph unicode="&#xf5;" horiz-adv-x="1097" d="M212 130q-122 157 -122 376t123 377.5t338 158.5t337 -155.5t122 -378.5t-122 -379t-338 -156t-338 157zM348 1198h-100q8 82 61 143.5t121 61.5t163 -40t142 -40t66 53h96q-8 -80 -53 -141t-112.5 -61t-166 39.5t-144.5 39.5t-73 -55zM293.5 691q-23.5 -87 -23.5 -180 t27 -181t93.5 -158t162.5 -70t162.5 68t90 155t23.5 183t-24.5 183t-91 154.5t-164.5 67.5t-165 -67.5t-90.5 -154.5z" />
<glyph unicode="&#xf6;" horiz-adv-x="1097" d="M212 130q-122 157 -122 376t123 377.5t338 158.5t337 -155.5t122 -378.5t-122 -379t-338 -156t-338 157zM293.5 691q-23.5 -87 -23.5 -180t27 -181t93.5 -158t162.5 -70t162.5 68t90 155t23.5 183t-24.5 183t-91 154.5t-164.5 67.5t-165 -67.5t-90.5 -154.5zM272 1278 q0 47 35 82t82 35t81 -35t34 -82t-34 -82t-81 -35t-82 35t-35 82zM606 1278q0 47 35 82t82 35t82 -35t35 -82t-35 -82t-82 -35t-82 35t-35 82z" />
<glyph unicode="&#xf7;" horiz-adv-x="1290" d="M1161 432h-1022v143h1022v-143zM522 164q0 51 37 87t88 36t87 -36t36 -87t-36 -87t-87 -36t-88 36t-37 87zM522 846q0 51 37 88t88 37t87 -37t36 -88t-36 -87t-87 -36t-88 36t-37 87z" />
<glyph unicode="&#xf8;" horiz-adv-x="1099" d="M231 109q-141 150 -141 383t123 391.5t336 158.5q117 0 221 -55l90 146l103 -56l-101 -164q147 -150 147.5 -389t-121.5 -395t-339 -156q-127 0 -227 62l-115 -176l-96 63zM289.5 691q-25.5 -87 -25.5 -206.5t60 -224.5l370 604q-66 49 -155.5 49t-156.5 -67.5 t-92.5 -154.5zM774 768l-377 -606q66 -59 159 -59.5t161 67.5q117 119 117 338q-1 149 -60 260z" />
<glyph unicode="&#xf9;" horiz-adv-x="1132" d="M164 897l-27 121h197v-627q0 -193 78 -244q37 -23 92 -22q115 0 196.5 72.5t81.5 187.5v512l-26 121h196v-819q0 -41 9.5 -59.5t35.5 -18.5q7 0 15 4l32 10l31 8q14 4 19 7l34 -107q-143 -61 -196 -61q-119 0 -144 139q-143 -147 -308 -147.5t-240.5 97t-75.5 265.5v561z M481 1178l-286 311h251l195 -311h-160z" />
<glyph unicode="&#xfa;" horiz-adv-x="1132" d="M164 897l-27 121h197v-627q0 -193 78 -244q37 -23 92 -22q115 0 196.5 72.5t81.5 187.5v512l-26 121h196v-819q0 -41 9.5 -59.5t35.5 -18.5q7 0 15 4l32 10l31 8q14 4 19 7l34 -107q-143 -61 -196 -61q-119 0 -144 139q-143 -147 -308 -147.5t-240.5 97t-75.5 265.5v561z M623 1178h-158l194 311h250z" />
<glyph unicode="&#xfb;" horiz-adv-x="1132" d="M164 897l-27 121h197v-627q0 -193 78 -244q37 -23 92 -22q115 0 196.5 72.5t81.5 187.5v512l-26 121h196v-819q0 -41 9.5 -59.5t35.5 -18.5q7 0 15 4l32 10l31 8q14 4 19 7l34 -107q-143 -61 -196 -61q-119 0 -144 139q-143 -147 -308 -147.5t-240.5 97t-75.5 265.5v561z M385 1159h-139l209 316h172l217 -318h-144l-159 168z" />
<glyph unicode="&#xfc;" horiz-adv-x="1132" d="M164 897l-27 121h197v-627q0 -193 78 -244q37 -23 92 -22q115 0 196.5 72.5t81.5 187.5v512l-26 121h196v-819q0 -41 9.5 -59.5t35.5 -18.5q7 0 15 4l32 10l31 8q14 4 19 7l34 -107q-143 -61 -196 -61q-119 0 -144 139q-143 -147 -308 -147.5t-240.5 97t-75.5 265.5v561z M299 1196q-35 35 -35 83t34 82t82 34t82 -35t34 -82t-34 -82t-81 -35t-82 35zM633 1196q-35 35 -35 83t34 82t82 34t82.5 -35t34.5 -82t-34.5 -82t-81.5 -35t-82 35z" />
<glyph unicode="&#xfd;" horiz-adv-x="933" d="M397 8l-372 1010h184l270 -774l271 774h159l-360 -1022q-150 -440 -393 -440h-78v137h22q121 0 195 110q59 84 102 205zM567 1169h-159l196 312h250z" />
<glyph unicode="&#xfe;" horiz-adv-x="1140" d="M172 1442q-4 12 -4 20l-8 37q-16 53 -17 62h197v-664q135 135 316.5 135t286 -154.5t104.5 -369.5t-120 -373t-325 -158q-158 0 -262 111v-522h-168v1876zM340 762v-344q0 -135 68.5 -226.5t176 -91.5t173.5 72q109 119 108 338q0 152 -65.5 269.5t-204.5 117.5 t-256 -135z" />
<glyph unicode="&#xff;" horiz-adv-x="933" d="M397 8l-372 1010h184l270 -774l271 774h159l-360 -1022q-150 -440 -393 -440h-78v137h22q121 0 195 110q59 84 102 205zM201 1286q0 47 34.5 82t83 35t82 -34t33.5 -82t-34.5 -83t-82 -35t-82 35t-34.5 82zM537 1286q0 47 33.5 82t81.5 35t82 -34t34 -82t-35 -83t-82 -35 t-80.5 35t-33.5 82z" />
<glyph unicode="&#x152;" horiz-adv-x="2146" d="M272 197.5q-168 222.5 -168 551t172.5 544.5t478.5 216t472 -213v195h864v-143h-674v-508h522v-148h-522v-547h674v-145h-866v193q-176 -217 -480.5 -217.5t-472.5 222zM328.5 967.5q-23.5 -105.5 -23.5 -223t23.5 -223t75 -199t143.5 -148.5t217 -55t218 55t144 150 q98 178 98.5 420.5t-100.5 422.5q-51 92 -143 147.5t-217 55.5t-217 -55t-143.5 -148.5t-75 -199z" />
<glyph unicode="&#x153;" horiz-adv-x="1724" d="M213 130q-123 157 -123 376t125 377.5t336 158.5q244 0 371 -202q57 94 149 148t201 54q172 0 277.5 -107.5t105.5 -279.5q0 -131 -96 -131h-547q0 -166 77.5 -286.5t235.5 -120.5q61 0 131 27.5t119 68.5l72 -125q-131 -115 -342 -115q-119 0 -221.5 51.5t-163.5 147.5 q-125 -199 -369 -199q-215 0 -338 157zM291.5 691q-25.5 -87 -25.5 -180t28 -182t95.5 -158t164.5 -69t163 68q117 117 117 337t-117 339q-68 68 -167 67.5t-166 -68t-92.5 -154.5zM1026 651h414q33 0 41 9.5t8 27.5q0 96 -53.5 160.5t-149.5 64.5t-169 -80t-91 -182z" />
<glyph unicode="&#x178;" horiz-adv-x="1196" d="M508 614l-442 756h219l346 -582l321 582h181l-431 -756v-614h-194v614zM334 1585q0 49 33.5 83t83 34t83 -34t33.5 -83t-33.5 -83t-83 -34t-83 34t-33.5 83zM668 1585q0 47 34.5 82t83 35t82 -34t33.5 -83t-33.5 -83t-82 -34t-83 35t-34.5 82z" />
<glyph unicode="&#x2c6;" horiz-adv-x="563" d="M121 1159h-137l209 316h169l218 -318h-142l-162 168z" />
<glyph unicode="&#x2dc;" horiz-adv-x="722" d="M133 1198h-100q8 82 61 143.5t121 61.5t163 -40t142 -40t66 53h96q-8 -80 -53 -141t-112.5 -61t-166 39.5t-144.5 39.5t-73 -55z" />
<glyph unicode="&#x2000;" horiz-adv-x="950" />
<glyph unicode="&#x2001;" horiz-adv-x="1901" />
<glyph unicode="&#x2002;" horiz-adv-x="950" />
<glyph unicode="&#x2003;" horiz-adv-x="1901" />
<glyph unicode="&#x2004;" horiz-adv-x="633" />
<glyph unicode="&#x2005;" horiz-adv-x="475" />
<glyph unicode="&#x2006;" horiz-adv-x="316" />
<glyph unicode="&#x2007;" horiz-adv-x="316" />
<glyph unicode="&#x2008;" horiz-adv-x="237" />
<glyph unicode="&#x2009;" horiz-adv-x="380" />
<glyph unicode="&#x200a;" horiz-adv-x="105" />
<glyph unicode="&#x2010;" horiz-adv-x="641" d="M557 459h-473v153h473v-153z" />
<glyph unicode="&#x2011;" horiz-adv-x="641" d="M557 459h-473v153h473v-153z" />
<glyph unicode="&#x2012;" horiz-adv-x="641" d="M557 459h-473v153h473v-153z" />
<glyph unicode="&#x2013;" horiz-adv-x="1028" d="M1010 471h-994v127h994v-127z" />
<glyph unicode="&#x2014;" horiz-adv-x="1744" d="M1726 471h-1710v125h1710v-125z" />
<glyph unicode="&#x2018;" horiz-adv-x="585" d="M145 1161q0 182 209 340q37 -33 70 -69q-68 -68 -84 -97.5t-16 -49t16 -36.5l35 -32q51 -51 51 -105.5t-36 -89.5t-98.5 -35t-104.5 51t-42 123z" />
<glyph unicode="&#x2019;" horiz-adv-x="585" d="M205 1272q-51 51 -51 105.5t36.5 89t99 34.5t103.5 -51t41 -123q0 -182 -209 -340q-37 33 -69 70q68 68 84 97.5t16 48t-16 34.5z" />
<glyph unicode="&#x201a;" horiz-adv-x="565" d="M193 25q-51 51 -51.5 105t36.5 89t99.5 35t103.5 -51t41 -123q0 -182 -209 -340q-37 33 -70 70q68 68 84.5 97.5t16.5 48.5t-17 36z" />
<glyph unicode="&#x201c;" horiz-adv-x="997" d="M145 1161q0 182 209 340q37 -33 70 -69q-68 -68 -84 -97.5t-16 -49t16 -36.5l35 -32q51 -51 51 -105.5t-36 -89.5t-98.5 -35t-104.5 51t-42 123zM545 1161q0 182 209 340q37 -33 69 -69q-68 -68 -84 -97.5t-16 -49t16 -36.5l35 -32q51 -51 51 -105.5t-35.5 -89.5t-98 -35 t-104.5 51t-42 123z" />
<glyph unicode="&#x201d;" horiz-adv-x="997" d="M213 1272q-51 51 -51 105.5t37 89t99 34.5t103 -51t41 -123q0 -182 -209 -340q-37 33 -69 70q68 68 84 97.5t16 48t-16 34.5zM563 1057q101 101 101 145q0 19 -17 35l-35 35q-51 51 -51 105.5t37 89t99.5 34.5t103.5 -51t41 -123q0 -182 -209 -340q-37 33 -70 70z" />
<glyph unicode="&#x201e;" horiz-adv-x="976" d="M205 25q-51 51 -51 105t36.5 89t99 35t103.5 -51t41 -123q0 -182 -209 -340q-37 33 -69 70q68 68 84 97.5t16 48.5t-16 36zM592 25q-51 51 -51 105t36.5 89t99 35t103.5 -51t41 -123q0 -182 -209 -340q-37 33 -69 70q68 68 84 97.5t16 48.5t-16 36z" />
<glyph unicode="&#x2022;" horiz-adv-x="903" d="M123 731q0 137 96 233.5t233.5 96.5t232.5 -96.5t95 -233.5t-95 -233.5t-232.5 -96.5t-233.5 96.5t-96 233.5z" />
<glyph unicode="&#x2026;" horiz-adv-x="1462" d="M208 13q-40 40 -40 96.5t39 95.5t95 39t96 -40t40 -95.5t-40 -95.5t-95 -40t-95 40zM640 13q-40 40 -40 96.5t39 95.5t95.5 39t96 -40t39.5 -95.5t-39.5 -95.5t-95 -40t-95.5 40zM1072 13q-40 40 -40 96.5t39 95.5t95.5 39t96.5 -40t40 -95.5t-40 -95.5t-95.5 -40 t-95.5 40z" />
<glyph unicode="&#x202f;" horiz-adv-x="380" />
<glyph unicode="&#x2039;" horiz-adv-x="610" d="M397 350l-305 332l297 336l125 -25l-238 -311l242 -315z" />
<glyph unicode="&#x203a;" horiz-adv-x="673" d="M246 346l-123 16l244 316l-238 311l125 25l295 -336z" />
<glyph unicode="&#x205f;" horiz-adv-x="475" />
<glyph unicode="&#x20ac;" horiz-adv-x="1073" d="M221 362h-194l18 87h162q-4 25 -4 36v68q0 23 2 33h-129l18 86h123q41 176 174 282.5t338 106.5q106 0 217 -35l-31 -133q-74 41 -186 41q-264 0 -330 -262h467l-18 -86h-465q-2 -8 -2 -25v-41q0 -27 4 -71h432l-18 -87h-396q33 -115 117 -183t202 -68t196 39l45 -130 q-113 -41 -230 -40q-207 0 -338 104t-174 278z" />
<glyph unicode="&#x2122;" horiz-adv-x="1163" d="M246 1395h-146v75h396v-75h-148v-383h-102v383zM627 1010h-86v460h135l112 -296l113 296h131v-460h-100v309l-121 -309h-61l-123 317v-317z" />
<glyph unicode="&#xe000;" horiz-adv-x="1013" d="M0 1014h1014v-1014h-1014v1014z" />
</font>
</defs>
</svg>
