<?xml version="1.0" standalone="no"?>
<!DOCTYPE svg PUBLIC "-//W3C//DTD SVG 1.1//EN" "http://www.w3.org/Graphics/SVG/1.1/DTD/svg11.dtd" >
<svg xmlns="http://www.w3.org/2000/svg">
<metadata></metadata>
<defs>
<font id="RosarioBoldItalic" horiz-adv-x="1118" >
<font-face units-per-em="2048" ascent="1638" descent="-410" />
<missing-glyph horiz-adv-x="409" />
<glyph horiz-adv-x="0" />
<glyph unicode="&#xd;" horiz-adv-x="0" />
<glyph unicode=" "  horiz-adv-x="409" />
<glyph unicode="&#x09;" horiz-adv-x="409" />
<glyph unicode="&#xa0;" horiz-adv-x="409" />
<glyph unicode="!" horiz-adv-x="507" d="M72 19q-45 44 -45 106.5t45 108t107.5 45.5t107.5 -44.5t45 -108t-45 -107.5t-107.5 -44t-107.5 44zM317 428l-180 27l74 954q4 37 18.5 53.5t44 16.5t168.5 -21q70 -10 70 -65q0 -20 -2 -27z" />
<glyph unicode="&#x22;" horiz-adv-x="669" d="M352 1145l-106 -225h-43q0 6 -14.5 73t-22.5 117l-6 35l49 354h192zM653 1145l-106 -225h-45q0 10 -21 116l-20 109l49 354h192z" />
<glyph unicode="#" horiz-adv-x="1183" d="M291 426h-217v182h241l37 262h-225v183h250l59 446h182l-59 -446h193l59 446h182l-59 -446h209v-183h-234l-37 -262h218v-182h-242l-57 -426h-183l58 426h-193l-57 -426h-183zM535 870l-37 -262h192l37 262h-192z" />
<glyph unicode="$" horiz-adv-x="835" d="M-16 59l106 168q127 -82 202 -82t123 38t48 98.5t-38 92.5t-93.5 53.5t-110.5 47t-93 77.5t-38 128q0 164 119 260t276 104l50 234h139l-90 -238q129 -16 204 -59l-102 -172q-80 70 -184 70q-57 0 -103.5 -31t-46.5 -84t38 -83t93.5 -51.5t110.5 -47t93 -79.5t38 -134 q0 -162 -102.5 -272.5t-282.5 -123.5l-51 -229h-142l93 231q-150 14 -256 84z" />
<glyph unicode="%" horiz-adv-x="1710" d="M191.5 713q-74.5 90 -74.5 229t42 252t137 189.5t228 76.5q86 0 142 -28h696l-868 -1457h-138l805 1346h-383q41 -76 41 -186q0 -205 -106.5 -358.5t-300.5 -153.5q-146 0 -220.5 90zM434 784q66 0 107 70q68 111 67.5 277.5t-106.5 166.5q-66 0 -107 -69 q-66 -109 -65.5 -277t104.5 -168zM920 322q0 205 105 356t300 151q147 0 221 -89t74 -238q0 -205 -105.5 -357.5t-300.5 -152.5q-147 0 -220.5 90t-73.5 240zM1235 154q66 0 108 69q66 111 66 278t-104 167q-66 0 -109 -70q-66 -109 -65.5 -276.5t104.5 -167.5z" />
<glyph unicode="&#x26;" horiz-adv-x="1497" d="M1223 414q-181 -439 -625 -439q-219 0 -338 101.5t-119 296.5q0 268 230 446q-43 80 -43 162q0 145 88 248q164 193 479 192q113 0 221.5 -41t177.5 -118l-123 -125q-51 51 -125.5 87t-140.5 36q-139 0 -237.5 -82t-98.5 -217q0 -25 2 -31q113 39 196 39t134 -12.5 t93 -51.5t42 -102q0 -88 -97 -138.5t-218 -50.5t-217 64q-92 -125 -92 -256q0 -252 241 -252q217 0 330 156q31 49 31 73q0 51 -58 52q-25 0 -44 -16.5t-23 -41.5h-160q0 104 67.5 153.5t176.5 49.5l258 -25q31 0 54.5 19.5t25.5 48.5h159q0 -225 -247 -225zM639 797 q43 -37 84 -37t79 10t38 31q0 33 -67.5 33t-133.5 -37z" />
<glyph unicode="'" horiz-adv-x="368" d="M352 1145l-106 -225h-43q0 6 -14.5 73t-22.5 117l-6 35l49 354h192z" />
<glyph unicode="(" horiz-adv-x="630" d="M53 455q0 555 502 1067l182 -33q-229 -246 -341.5 -505t-112.5 -587.5t221 -662.5l-191 -33q-260 357 -260 754z" />
<glyph unicode=")" horiz-adv-x="630" d="M72 -299l-183 33q227 240 341 501t114 589.5t-219 664.5l188 33q260 -356 260 -754q0 -293 -136 -565.5t-365 -501.5z" />
<glyph unicode="*" horiz-adv-x="952" d="M444 1087l-307 43l90 220l267 -152l-15 320h228l-97 -320l297 160l54 -221l-330 -56l203 -217l-201 -141l-107 289l-184 -283l-158 131z" />
<glyph unicode="+" horiz-adv-x="1159" d="M473 418h-420v180h420v420h180v-418h420v-180h-420v-420h-180v418z" />
<glyph unicode="," horiz-adv-x="477" d="M37 -274l-68 84q115 102 115 157q0 12 -37 56.5t-37 105.5t48 108.5t117 47.5t112 -45t43 -113q0 -113 -89 -220t-204 -181z" />
<glyph unicode="-" horiz-adv-x="679" d="M539 430h-453l27 195h452z" />
<glyph unicode="." horiz-adv-x="471" d="M56 21.5q-46 46.5 -46 113t46 112.5t111.5 46t113 -47t47.5 -112.5t-46 -112t-113 -46.5t-113 46.5z" />
<glyph unicode="/" horiz-adv-x="677" d="M174 0h-190l551 1499h192z" />
<glyph unicode="0" horiz-adv-x="1165" d="M53 403q0 301 159 471t425 170q215 0 328.5 -111.5t113.5 -316.5q0 -274 -144 -457.5t-439 -183.5q-213 0 -328 112.5t-115 315.5zM305 387q0 -246 213 -246q88 0 151.5 45t96.5 121q59 141 59 314q0 258 -211 258q-88 0 -152.5 -48.5t-96.5 -125.5q-60 -148 -60 -318z " />
<glyph unicode="1" horiz-adv-x="798" d="M668 0h-650l27 203h211l74 571l-217 -59l-25 131l358 174h152l-106 -817h202z" />
<glyph unicode="2" horiz-adv-x="962" d="M772 0h-776v111q94 92 273.5 277t213.5 220q82 82 82 156q0 47 -28.5 72.5t-73.5 25.5q-113 0 -260 -135l-101 131q223 190 453 191q123 0 209 -61.5t86 -178.5q0 -152 -139 -285q-94 -89 -367 -321h510z" />
<glyph unicode="3" horiz-adv-x="978" d="M-90 -406l-8 144q221 8 426 90q113 47 183.5 139t70.5 214t-121 122q-63 0 -139 -29l-52 148q123 55 237 164.5t114 220.5q0 70 -64 70q-86 0 -205 -101l-94 115q68 74 179.5 115t213 41t174 -44.5t72.5 -151t-115.5 -217t-253.5 -177.5q45 4 62 4q123 0 195.5 -58.5 t72.5 -173.5q0 -158 -89 -283.5t-232 -199.5q-291 -152 -611 -152h-16z" />
<glyph unicode="4" horiz-adv-x="1073" d="M502 -2h-553v119l676 903h254l-107 -817h203l-35 -205h-195l-49 -375h-243zM590 674l-350 -471h288z" />
<glyph unicode="5" horiz-adv-x="780" d="M-12 -424l-43 127q434 139 434 455q0 123 -107.5 232.5t-238.5 168.5l198 461h539l-68 -248h-364l-43 -102q150 -86 246 -214t96 -272q0 -269 -208 -424t-441 -184z" />
<glyph unicode="6" horiz-adv-x="1089" d="M165 95q-114 120 -114 299q0 340 223 599q203 233 492 383q176 90 289 119l37 -133q-199 -72 -386.5 -228.5t-299.5 -347.5q121 76 235 76q164 0 263.5 -97t99.5 -261q0 -211 -148.5 -370t-362.5 -159t-328 120zM338 578q-25 -98 -25 -189.5t44 -167.5t147.5 -76 t169 103.5t65.5 210t-43 167t-129 60.5q-120 1 -229 -108z" />
<glyph unicode="7" horiz-adv-x="894" d="M612 791h-561l62 227h792v-129l-555 -1276h-264z" />
<glyph unicode="8" horiz-adv-x="1007" d="M356 766q-86 86 -127 155.5t-41 168.5q0 184 128 296.5t286 112.5t255 -74.5t97 -220.5t-84 -241q-37 -41 -58.5 -65t-121.5 -103l12 -15q117 -117 155 -205t38 -161q0 -193 -133 -316t-348 -123q-158 0 -266.5 85t-108.5 239q0 84 18.5 129t27.5 69.5t34.5 54.5t38 45 t47.5 46t46 40t53 42t52 41zM258 315q0 -78 44 -126t126 -48t143.5 70t61.5 160q0 49 -17.5 78.5t-24.5 44t-28.5 39t-28 31.5t-30.5 34l-27 29l-78 -62q-141 -111 -141 -250zM567 934q55 45 83 70.5t56.5 78t28.5 111.5q0 143 -119 143q-70 0 -115.5 -62.5t-46 -145 t112.5 -195.5z" />
<glyph unicode="9" horiz-adv-x="1062" d="M-12 -438l-35 133q203 68 392.5 212t297.5 329q-121 -76 -235 -76q-164 0 -263.5 97t-99.5 259q0 223 161 377t362.5 154t315 -121t113.5 -313.5t-88 -367.5t-233 -306q-297 -268 -688 -377zM375.5 771.5q-64.5 -105.5 -64.5 -212.5q0 -223 172 -223q117 0 230 108 q23 86 22.5 183.5t-44.5 173.5t-147.5 76t-168 -105.5z" />
<glyph unicode=":" horiz-adv-x="526" d="M77 21.5q-46 46.5 -46 113t46 112.5t111.5 46t112.5 -47t47 -112.5t-46 -112t-112.5 -46.5t-112.5 46.5zM123 725q0 66 46 112t112.5 46t112.5 -46t46 -113t-46 -113t-111.5 -46t-112.5 47t-47 113z" />
<glyph unicode=";" horiz-adv-x="528" d="M59 -274l-67 84q115 102 114 157q0 12 -36.5 56.5t-36.5 105.5t48 108.5t116.5 47.5t111.5 -45t43 -113q0 -113 -89 -220t-204 -181zM121 725q0 66 46 112t112.5 46t112.5 -46t46 -113t-46 -113t-111.5 -46t-112.5 47t-47 113z" />
<glyph unicode="&#x3c;" horiz-adv-x="1212" d="M1065 -25l-1020 482v106l1020 479v-184l-754 -348l754 -354v-181z" />
<glyph unicode="=" horiz-adv-x="1327" d="M1157 223h-1020v180h1020v-180zM1157 618h-1020v181h1020v-181z" />
<glyph unicode="&#x3e;" horiz-adv-x="1212" d="M1135 457l-1020 -482v181l753 354l-753 348v184l1020 -479v-106z" />
<glyph unicode="?" horiz-adv-x="827" d="M72 127q0 61 45 106.5t106.5 45.5t107.5 -45.5t46 -106.5t-46 -106.5t-107.5 -45.5t-106.5 45.5t-45 106.5zM177 537.5q-75 72.5 -75 171t51.5 164t124 105.5t144.5 75q176 84 176 192q0 39 -36 63.5t-97.5 24.5t-163.5 -47l-51 172q147 41 270 41t226.5 -69.5 t103.5 -198.5q0 -100 -53.5 -178t-128 -123t-150.5 -80t-129 -72t-53 -80q0 -59 76.5 -81.5t152.5 -22.5h31l-53 -191q-106 6 -198.5 34t-167.5 100.5z" />
<glyph unicode="@" horiz-adv-x="1644" d="M59 393q0 162 59.5 317.5t164 281.5t265.5 204t349 78q289 0 485.5 -172t196.5 -465q0 -205 -111.5 -369t-279.5 -164t-232 115q-41 -55 -107.5 -86t-125.5 -31q-129 0 -195.5 92.5t-66.5 244t116.5 307t303.5 155.5q111 0 176 -76l35 62h96q-37 -238 -57.5 -356.5 t-20.5 -198.5q0 -113 76 -113q115 0 188.5 128t73.5 290q0 244 -157.5 385t-393.5 141q-158 0 -294 -67.5t-224 -178t-138.5 -246.5t-50.5 -278q0 -240 149.5 -399.5t379.5 -159.5q86 0 172 25l31 -109q-92 -27 -203 -26q-287 0 -473.5 191t-186.5 478zM647 422 q0 -190 111 -191q111 0 164 166q41 117 71 318q-63 59 -129.5 59t-120.5 -67q-96 -123 -96 -285z" />
<glyph unicode="A" horiz-adv-x="1239" d="M176 0h-254l705 1499h221l303 -1499h-287l-84 430h-401zM473 631h264q-10 55 -69 512q-16 -43 -83 -227.5t-112 -284.5z" />
<glyph unicode="B" horiz-adv-x="1202" d="M551 0h-498l185 1374l-13 125h508q164 0 283 -55q139 -66 139 -238q0 -145 -97 -256.5t-243 -132.5q135 -25 221 -119t86 -229q0 -225 -169 -347t-402 -122zM418 711l-68 -508h209q127 0 206 81t79 197.5t-80 173t-195 56.5h-151zM496 1296l-52 -383h199q96 0 159.5 68 t63.5 164q0 152 -178 151h-192z" />
<glyph unicode="C" horiz-adv-x="1245" d="M76 600q0 240 91 448.5t276.5 344t428.5 135.5q121 0 248 -37t195 -109l-166 -188q-45 63 -128 99t-185.5 36t-199.5 -63.5t-153.5 -166t-85 -216t-28.5 -228t28.5 -219t108.5 -186.5t199 -82q180 0 352 154l96 -195q-129 -78 -240.5 -115t-248.5 -37q-285 0 -436.5 168 t-151.5 457z" />
<glyph unicode="D" horiz-adv-x="1398" d="M559 0h-506l185 1374l-15 125h539q281 0 437.5 -161.5t156.5 -446.5q0 -238 -93.5 -438.5t-277.5 -326.5t-426 -126zM496 1296l-146 -1093h225q125 0 222.5 60.5t152.5 158.5q115 201 115 444q0 188 -84 309t-264 121h-221z" />
<glyph unicode="E" horiz-adv-x="1064" d="M920 0h-867l185 1374l-15 125h897l-26 -203h-600l-58 -424h459l-27 -202h-458l-62 -467h598z" />
<glyph unicode="F" horiz-adv-x="966" d="M322 0h-269l185 1374l-13 125h834l-27 -203h-536l-58 -424h416l-27 -202h-415z" />
<glyph unicode="G" horiz-adv-x="1415" d="M213 144q-137 167 -137 429.5t93 473t285.5 344t450.5 133.5q133 0 269.5 -40t207.5 -122l-163 -168q-92 80 -160 108.5t-189.5 28.5t-225 -64.5t-161.5 -168.5q-119 -211 -118 -467q0 -115 26.5 -212t102 -171t203.5 -74t224.5 94t114.5 224l17 126h-295l22 181h568 q-80 -545 -101 -801h-139l-43 156q-106 -92 -210.5 -134.5t-238.5 -42.5q-266 0 -403 167z" />
<glyph unicode="H" horiz-adv-x="1406" d="M322 0h-269l185 1374l-13 125h295l-84 -627h598l84 627h271l-201 -1499h-270l90 670h-598z" />
<glyph unicode="I" horiz-adv-x="538" d="M322 0h-269l185 1374l-13 125h295z" />
<glyph unicode="J" horiz-adv-x="538" d="M-440 -381l127 170q66 -74 151 -74q180 0 228 381l172 1278l-13 125h295l-176 -1333q-39 -297 -84 -387q-66 -137 -141 -180q-113 -70 -270.5 -70t-288.5 90z" />
<glyph unicode="K" horiz-adv-x="1142" d="M322 0h-269l185 1374l-13 125h295l-96 -715l522 715h289l-528 -706l378 -793h-315l-346 772z" />
<glyph unicode="L" horiz-adv-x="978" d="M881 0h-828l185 1374l-11 125h295l-172 -1296h557z" />
<glyph unicode="M" horiz-adv-x="1726" d="M276 0h-223l183 1374l-11 125h393l189 -862q14 -66 17 -145.5t5 -102.5q49 170 86 240l410 870h383l-201 -1499h-268l135 1016q4 29 15.5 80t13.5 67q-8 -16 -29.5 -67.5t-36.5 -79.5l-483 -1018h-180l-223 1018q-20 57 -29 147q-6 -125 -8 -147z" />
<glyph unicode="N" horiz-adv-x="1423" d="M274 0h-221l183 1374l-11 125h326l442 -899l60 -135q4 27 4 80t4 78l117 876h227l-203 -1509h-219q-39 82 -248 508t-317 657q-6 -135 -6 -137z" />
<glyph unicode="O" horiz-adv-x="1497" d="M228.5 149.5q-150.5 172.5 -150.5 433.5t89 466.5t271.5 339t425.5 133.5q285 0 438.5 -168t153.5 -455q0 -240 -91 -446.5t-276.5 -341t-447.5 -134.5t-412.5 172.5zM440.5 298q75.5 -126 249.5 -126q127 0 224.5 70.5t150.5 183.5q102 219 102 463q0 121 -26.5 213 t-102 158.5t-198.5 66.5t-220.5 -70.5t-150.5 -183.5q-104 -217 -104 -433t75.5 -342z" />
<glyph unicode="P" horiz-adv-x="1124" d="M322 0h-269l185 1374l-13 125h453q201 0 331 -96t130 -295q0 -246 -162 -376t-418 -130h-158zM496 1296l-66 -495h164q121 0 190.5 89t69.5 197q0 209 -192 209h-166z" />
<glyph unicode="Q" horiz-adv-x="1495" d="M76 594q0 240 90 448.5t275.5 345t428.5 136.5q281 0 432.5 -176.5t151.5 -448.5t-117.5 -500.5t-337.5 -343.5q152 -86 259.5 -139t271.5 -109.5t273.5 -56.5t379.5 72l49 -150q-111 -39 -176 -59q-174 -55 -315.5 -55t-277.5 41t-231 86t-246.5 122.5t-200 101 t-87.5 35t-90 22.5t-76 18q-456 108 -456 610zM392.5 839.5q-27.5 -118.5 -27.5 -218t16 -172t51 -137t101.5 -101.5t174 -37t204 69.5t149.5 178.5q109 217 108 463q0 117 -26.5 211t-103 162.5t-197.5 68.5t-218.5 -71.5t-150.5 -184.5t-80.5 -231.5z" />
<glyph unicode="R" horiz-adv-x="1196" d="M322 0h-269l185 1374l-13 125h490q180 0 304 -94t124 -260t-100.5 -281.5t-256.5 -152.5l340 -711h-303l-305 668h-106zM494 1294l-56 -426h123q297 0 297 256q0 82 -56.5 126t-139.5 44h-168z" />
<glyph unicode="S" horiz-adv-x="1099" d="M-14 100l129 222q135 -150 321 -150q111 0 192 68.5t81 177.5q0 61 -40 113.5t-99.5 85t-130 75.5t-130 85t-99.5 114t-40 162q0 236 162 353.5t409 117.5q82 0 191.5 -36t169.5 -87l-121 -189q-49 49 -135 82t-168 33t-147.5 -54t-65.5 -147q0 -59 40 -109t99.5 -82 t129 -75t129 -86t99 -116.5t39.5 -165.5q0 -231 -165.5 -374t-414.5 -143t-435 125z" />
<glyph unicode="T" horiz-adv-x="1112" d="M506 1296h-393l26 203h1075l-28 -203h-400l-174 -1296h-278z" />
<glyph unicode="U" horiz-adv-x="1366" d="M106 442q0 70 9 127l108 807l-14 123h305l-133 -1001q-4 -37 -4 -56q0 -127 73.5 -198.5t210 -71.5t232.5 96.5t115 233.5l135 997h219l-125 -930q-39 -287 -189.5 -439.5t-451.5 -152.5q-233 0 -361.5 117t-128.5 348z" />
<glyph unicode="V" horiz-adv-x="1200" d="M412 -2l-289 1501h285l161 -856q4 -23 9.5 -75t7.5 -70l6 -88l33 106q37 117 63 174l371 809h254l-692 -1501h-209z" />
<glyph unicode="W" horiz-adv-x="1863" d="M326 -4l-191 1503h281l108 -866q4 -23 7.5 -79t5.5 -83l6 -98l30 127q37 143 64 209l317 790h244l111 -870q6 -41 10 -160l4 -96l35 127q53 166 69 209l312 790h229l-582 -1503h-274l-106 852l-7 129q-2 31 -2 100q-70 -244 -108 -338l-293 -743h-270z" />
<glyph unicode="X" horiz-adv-x="1169" d="M199 0h-299l561 772l-316 727h310l200 -455l312 455h297l-504 -698l342 -801h-309l-232 532z" />
<glyph unicode="Y" horiz-adv-x="1114" d="M424 676l-305 823h299l196 -532l351 532h266l-539 -829l-90 -670h-266z" />
<glyph unicode="Z" horiz-adv-x="1120" d="M989 0h-1018v168l807 1128h-606l27 203h956v-149l-813 -1147h676z" />
<glyph unicode="[" horiz-adv-x="600" d="M434 -270h-424l238 1769h424l-17 -121h-192l-205 -1528h193z" />
<glyph unicode="\" horiz-adv-x="1064" d="M727 0l-551 1499h191l553 -1499h-193z" />
<glyph unicode="]" horiz-adv-x="600" d="M350 -270h-424l17 120h192l203 1528h-191l15 121h424z" />
<glyph unicode="^" horiz-adv-x="1265" d="M279 0h-181l482 1020h106l481 -1020h-186l-348 754z" />
<glyph unicode="_" horiz-adv-x="1441" d="M1112 -293h-1040l26 197h1041z" />
<glyph unicode="`" horiz-adv-x="507" d="M317 1208l-309 338h297l223 -338h-211z" />
<glyph unicode="a" d="M121 99q-88 124 -88 294t61.5 313.5t190.5 239.5t299 96q57 0 126.5 -25.5t118.5 -76.5l48 84h129l-111 -758q-4 -29 -4 -43q0 -74 51 -73q35 0 98 24l35 -129q-96 -63 -217 -63q-61 0 -108.5 39.5t-59.5 99.5h-8q-109 -145 -291 -145.5t-270 123.5zM281 403 q0 -258 149 -258q72 0 128 57.5t91 162.5q63 193 94 428q-82 82 -168 81.5t-145 -52.5t-90 -130q-59 -150 -59 -289z" />
<glyph unicode="b" horiz-adv-x="1060" d="M35 82l184 1378l-10 113h260l-84 -631q111 102 274.5 102t250.5 -115.5t87 -293.5t-75.5 -321.5t-227 -240t-349 -96t-310.5 104.5zM287 201q0 -55 86 -56q168 0 272.5 167t104.5 363.5t-146 196.5q-57 0 -127.5 -45t-120.5 -102l-67 -504q-2 -6 -2 -20z" />
<glyph unicode="c" horiz-adv-x="884" d="M33 403q0 266 155.5 453.5t407.5 187.5q74 0 158 -27.5t139 -70.5l-141 -162q-86 90 -172 90t-142.5 -47t-85.5 -118q-61 -145 -61 -273q0 -281 198 -280q109 0 226 92l76 -176q-182 -96 -357.5 -96.5t-288 121.5t-112.5 306z" />
<glyph unicode="d" horiz-adv-x="1148" d="M33 403q0 252 143 445.5t387 193.5q139 0 207 -65l64 485l-11 113h260l-188 -1307q-4 -29 -4 -43q0 -74 51 -73q35 0 98 24l35 -131q-96 -63 -217 -63q-61 0 -109.5 38.5t-64.5 100.5q-109 -145 -292 -145.5t-271 123.5t-88 304zM283 410q0 -264 149 -265q61 0 110.5 42 t80 101.5t62.5 178t60 326.5q-82 82 -167.5 81.5t-145 -51.5t-90.5 -127q-59 -149 -59 -286z" />
<glyph unicode="e" horiz-adv-x="972" d="M176 831q70 94 180.5 153.5t245.5 59.5t223 -61t88 -188t-127 -250q-66 -63 -193.5 -104.5t-301.5 -43.5q8 -117 66.5 -179t142.5 -62q131 0 295 125l86 -170q-45 -39 -109 -68q-139 -68 -315 -68t-301 117t-125 329.5t145 409.5zM305 571q160 4 258.5 71t98.5 161 q0 70 -74 69.5t-162 -76t-121 -225.5z" />
<glyph unicode="f" horiz-adv-x="686" d="M-330 -381l99 135q27 -25 70.5 -44t78.5 -19q137 0 174 237l125 920h-162l21 170h162q33 266 148.5 418.5t363.5 152.5q168 0 294 -88l-100 -162q-90 82 -201 82q-207 0 -270 -403h242l-23 -170h-241l-127 -944q-55 -375 -373 -375q-76 0 -159 22.5t-122 67.5z" />
<glyph unicode="g" horiz-adv-x="1062" d="M-23 -356l115 166q16 -27 90 -72t144.5 -45t133 47t101.5 113q78 135 88 225h-8q-109 -102 -270.5 -102.5t-249.5 123.5t-88 295t61.5 313.5t194.5 239.5t313 97q117 0 209 -40l201 63l-125 -932q-39 -276 -176.5 -441t-372.5 -165q-129 0 -223.5 38t-137.5 77zM283 410 q0 -264 149 -265q111 0 175.5 119t92 258.5t50.5 304.5q-94 45 -168 45t-137.5 -51t-96.5 -127q-65 -151 -65 -284z" />
<glyph unicode="h" horiz-adv-x="1017" d="M260 0h-233l194 1464l-8 111h258l-90 -653q162 125 293 125t191.5 -62.5t60.5 -191.5q0 -55 -6 -105l-78 -577l6 -111h-258l90 664q6 37 6 73q0 111 -102 111q-45 0 -118 -37t-108 -72z" />
<glyph unicode="i" horiz-adv-x="458" d="M283 0h-254l121 907l-7 111h254l-121 -905zM219 1271q-37 40 -37 102.5t51.5 116.5t114 54t98 -39t35.5 -101.5t-51 -117.5t-112.5 -55t-98.5 40z" />
<glyph unicode="j" horiz-adv-x="456" d="M-449 -385l113 164q61 -86 178 -86q137 0 185 317q4 14 4 21l119 878l-9 109h258l-129 -948q-31 -233 -79.5 -338t-112.5 -144q-94 -59 -240 -59t-287 86zM216 1271q-38 40 -38 101.5t52.5 116.5t114 55t98 -39t36.5 -101.5t-51 -117.5t-112.5 -55t-99.5 40z" />
<glyph unicode="k" horiz-adv-x="925" d="M264 0h-237l194 1464l-10 111h264l-137 -1024l342 467h262l-367 -471l275 -547h-270l-246 522z" />
<glyph unicode="l" horiz-adv-x="462" d="M287 0h-260l194 1464l-6 111h262l-196 -1464z" />
<glyph unicode="m" horiz-adv-x="1568" d="M266 0h-233l98 729q6 57 6 146.5t-28 134.5l247 30q16 -49 17 -131q164 135 315 135q178 0 221 -149q156 150 336 149q233 0 234 -247q0 -59 -9 -103l-77 -585l6 -109h-254l90 680q4 37 4 76t-24.5 65.5t-84.5 26.5q-90 0 -210 -107l-99 -741h-235l92 686q4 33 4 49 q0 113 -104 113q-49 0 -108.5 -33t-102.5 -76z" />
<glyph unicode="n" horiz-adv-x="1026" d="M266 0h-233l98 729q6 57 6 146.5t-28 134.5l247 30q16 -49 17 -131q160 137 300 137.5t200.5 -62t60.5 -191.5q0 -55 -6 -105l-78 -577l6 -111h-256l88 664q6 37 6 73q0 111 -102 111q-45 0 -118 -37t-107 -72z" />
<glyph unicode="o" horiz-adv-x="1052" d="M33 416q0 248 153.5 438t395.5 190q190 0 297.5 -122.5t107.5 -300t-65.5 -319.5t-193.5 -234.5t-304 -92.5t-283.5 123t-107.5 318zM289 403.5q0 -67.5 12 -122t53 -98.5t113 -44t128 51.5t85 131.5q51 152 51 303q0 252 -172 252q-74 0 -129 -50.5t-84 -128t-43 -152.5 t-14 -142.5z" />
<glyph unicode="p" horiz-adv-x="1077" d="M231 -461h-260l160 1190q8 51 8 137t-26 142l239 30q18 -68 21 -123q47 57 128 93t158 36q174 0 262.5 -123.5t88.5 -304.5q0 -252 -143.5 -445.5t-387.5 -193.5q-139 0 -207 66l-51 -391zM297 227q82 -82 176 -82q61 0 113 35q90 61 132 189.5t42 238.5q0 264 -150 264 q-82 0 -153 -75q-99 -104 -160 -570z" />
<glyph unicode="q" horiz-adv-x="1064" d="M121 99q-88 124 -88 294t61.5 313.5t190.5 239.5t287.5 96t258.5 -100l89 158h96l-191 -1446l11 -113h-261l72 539q-111 -104 -274.5 -104.5t-251.5 123.5zM281 403q0 -258 149 -258q72 0 128 57.5t91 162.5q63 193 94 428q-82 82 -168 81.5t-145 -52.5t-90 -130 q-59 -150 -59 -289z" />
<glyph unicode="r" horiz-adv-x="681" d="M268 0h-233l98 743q8 35 8 129.5t-32 145.5l249 20q20 -70 21 -155v-31q0 -18 -2 -29q66 88 160 151.5t190 63.5l-72 -243h-8q-154 0 -297 -189z" />
<glyph unicode="s" horiz-adv-x="796" d="M-33 66l107 167q2 -2 20.5 -13t22.5 -14t20.5 -13.5t23.5 -13.5t22.5 -10t24.5 -10l21 -7q20 -6 70.5 -6.5t98.5 42.5t48 105.5t-58 103.5t-126.5 65.5t-127 85t-58.5 152.5q0 170 121.5 257t289.5 87t287 -63l-106 -172q-63 63 -183 63q-61 0 -104 -29.5t-43 -79.5 t38 -82t92 -55.5t108.5 -53t92.5 -85t38 -135.5q0 -180 -125 -278.5t-298.5 -98t-316.5 90.5z" />
<glyph unicode="t" horiz-adv-x="684" d="M193 848h-142l23 170h141l39 278h260l-63 -278h235l-24 -170h-236l-74 -563q-4 -37 -4 -58q0 -80 68 -80q84 0 153 21l23 -141q-133 -47 -260 -47t-177.5 47t-50.5 141q0 33 7 70z" />
<glyph unicode="u" horiz-adv-x="1077" d="M57 227q0 35 6 72l82 629l-10 90h260l-88 -672q-4 -37 -4 -55q0 -119 100 -119q63 0 114.5 47t94.5 155.5t64 254.5l39 299l-13 90h263l-111 -752q-4 -29 -4 -43q0 -74 51 -73q35 0 98 24l35 -129q-96 -63 -221 -63q-61 0 -108.5 38.5t-59.5 100.5h-8 q-51 -66 -142.5 -105t-179.5 -39q-258 0 -258 250z" />
<glyph unicode="v" horiz-adv-x="919" d="M274 -8l-217 1026h250l109 -537q4 -18 20 -172q41 145 53 172l238 537h240l-475 -1026h-218z" />
<glyph unicode="w" horiz-adv-x="1384" d="M217 -8l-151 1026h249l68 -473q4 -33 4 -99v-45q0 -31 -2 -47q25 113 49 174l207 490h229l68 -473q4 -29 4 -107v-45q0 -27 -2 -39l23 90q6 27 26 84l199 490h235l-448 -1026h-203l-78 536q-4 33 -4 90v68l-12 -59q-10 -55 -23 -82l-235 -553h-203z" />
<glyph unicode="x" horiz-adv-x="921" d="M172 0h-266l424 541l-246 477h270l125 -270l195 270h264l-367 -471l275 -547h-273l-155 338z" />
<glyph unicode="y" horiz-adv-x="925" d="M-250 -231q86 -76 165 -76q141 0 232 112q72 84 127 197l-215 1016h250q98 -475 106.5 -527.5t14.5 -191.5q39 131 67.5 197.5t241.5 521.5h230l-477 -1024q-129 -271 -255 -368t-300.5 -97t-290.5 82z" />
<glyph unicode="z" horiz-adv-x="874" d="M750 0h-785v125l553 723h-412l23 170h713v-127l-559 -719h489z" />
<glyph unicode="{" horiz-adv-x="620" d="M143 408q0 133 -104 137l16 125q68 0 105 54t45 128l41 313q20 160 102 254t230 94h114l-18 -127q-100 0 -141 -34.5t-54 -137.5l-45 -340q-23 -207 -141 -268q76 -49 76 -178q0 -45 -7 -88l-45 -340q-6 -45 -6 -91t28 -63.5t107 -17.5h21l-18 -129h-89q-270 0 -270 262 q0 43 6 88l45 326q2 6 2 33z" />
<glyph unicode="|" horiz-adv-x="552" d="M379 -238h-201v1764h201v-1764z" />
<glyph unicode="}" horiz-adv-x="620" d="M12 -301h-88l17 127q111 0 144.5 29.5t49.5 144.5l45 340q20 203 142 266q-76 49 -76 178q0 47 6 90l45 340q4 20 4 31v31q0 61 -30.5 84.5t-110.5 23.5h-13l19 129h113q246 0 245 -264q0 -41 -6 -84l-43 -313q-2 -6 -2 -23v-24q0 -131 102 -133l-16 -125 q-61 0 -100 -51.5t-47 -120.5l-43 -326q-25 -172 -110 -261t-247 -89z" />
<glyph unicode="~" horiz-adv-x="1107" d="M174 387l-129 113q39 92 118 158.5t171 66.5t231.5 -71.5t186.5 -71.5q96 0 172 149l123 -119q-51 -84 -133.5 -149.5t-163 -65.5t-215 72t-194.5 72t-101 -47.5t-66 -106.5z" />
<glyph unicode="&#xa1;" horiz-adv-x="509" d="M-12 -178q0 6 4 26l192 936l181 -24l-74 -957q-7 -69 -57 -69q-23 0 -175 22q-71 13 -71 66zM170 1087.5q0 63.5 45 107.5t107.5 44t107.5 -45t45 -107.5t-45 -106.5t-107.5 -44t-107.5 44t-45 107.5z" />
<glyph unicode="&#xa2;" horiz-adv-x="952" d="M53 401q0 252 140.5 434.5t384.5 206.5l49 232h143l-84 -234q131 -16 227 -94l-137 -155q-90 80 -183 79.5t-159 -79.5q-121 -143 -121 -363q0 -119 49.5 -200t147.5 -81t227 101l74 -176q-178 -96 -344 -97h-29l-53 -237h-141l96 252q-145 35 -216 144t-71 267z" />
<glyph unicode="&#xa3;" horiz-adv-x="1153" d="M999 0h-1013l28 205h181l65 495h-149l26 203h152l26 199q25 199 160 310.5t326 111.5q240 0 350 -236l-207 -110q-49 150 -172 149q-82 0 -131 -54t-59 -143l-31 -227h252l-27 -203h-254l-65 -495h571z" />
<glyph unicode="&#xa4;" horiz-adv-x="1187" d="M272 213l-141 141l115 113q-51 96 -51 213t51 213l-115 117l141 141l107 -109q96 70 221 70t221 -70l109 109l141 -141l-117 -117q53 -102 53.5 -212t-53.5 -212l117 -115l-141 -141l-107 104q-96 -70 -223 -69.5t-223 69.5zM447.5 866.5q-58.5 -73.5 -58.5 -191.5 t65.5 -186.5t149.5 -68.5t146.5 66.5t62.5 186.5t-57.5 193.5t-153.5 73.5t-154.5 -73.5z" />
<glyph unicode="&#xa5;" horiz-adv-x="1044" d="M371 332h-330l14 100h330v10l-51 113h-264l14 100h207l-162 363h285l137 -338l223 338h240l-246 -363h195l-15 -100h-252l-75 -113v-10h313l-14 -100h-314l-43 -332h-235z" />
<glyph unicode="&#xa6;" horiz-adv-x="552" d="M379 -238h-201v723h201v-723zM379 803h-201v723h201v-723z" />
<glyph unicode="&#xa7;" horiz-adv-x="935" d="M-84 -428l66 154q94 -35 135 -35q127 0 127 198q0 166 -12.5 289t-40 378t-27.5 364q0 178 66.5 285.5t230.5 123.5q55 258 346 258q76 0 197 -43l-60 -160q-82 37 -145 37q-137 0 -137 -237q0 -115 28 -328q55 -553 55 -715q0 -315 -288 -352q-25 -129 -119 -194.5 t-215 -65.5t-207 43zM379 928q0 -47 27 -340l32 -312q16 -174 23 -313q66 45 65.5 187.5t-34.5 494.5l-29 250q-14 141 -17 250q-67 -47 -67 -217z" />
<glyph unicode="&#xa8;" horiz-adv-x="565" d="M4 1276q0 49 34 83t83 34t83 -34t34 -83t-34 -83t-83 -34t-83 34t-34 83zM332 1276q0 47 34.5 82t83 35t83 -34t34.5 -83t-34.5 -83t-83 -34t-83 35t-34.5 82z" />
<glyph unicode="&#xa9;" horiz-adv-x="1277" d="M55 512q0 233 167 400t400.5 167t400.5 -167t167 -400t-167 -400t-400.5 -167t-400.5 167t-167 400zM137 512q0 -201 142.5 -343t343 -142t343 142t142.5 343t-142.5 343t-343 142t-343 -142t-142.5 -343zM303 442q0 178 109.5 299t285.5 121q106 0 199 -71l-104 -115 q-66 55 -125 55q-82 0 -127 -89t-45 -181q0 -168 129 -168q70 0 145 67l59 -131q-141 -66 -259.5 -65.5t-192.5 73t-74 205.5z" />
<glyph unicode="&#xaa;" horiz-adv-x="845" d="M129 1038q0 166 100.5 296t266.5 130q96 0 163 -67l31 55h86l-74 -504q-2 -6 -2 -28q0 -49 33 -50q23 0 66 17l24 -86q-72 -43 -129 -43t-88 26.5t-39 67.5h-8q-76 -98 -193.5 -98t-177 81.5t-59.5 202.5zM664 516h-465l16 119h465zM541 1016q39 121 61 282 q-57 53 -120.5 53.5t-108.5 -61.5q-78 -100 -78 -261t99.5 -160.5t146.5 147.5z" />
<glyph unicode="&#xab;" horiz-adv-x="952" d="M340 332l-270 348l360 352l154 -28l-289 -324l203 -326zM684 332l-270 348l360 352l158 -28l-293 -324l207 -326z" />
<glyph unicode="&#xac;" horiz-adv-x="1280" d="M950 547h-844v170h1020v-555h-176v385z" />
<glyph unicode="&#xad;" horiz-adv-x="694" d="M559 430h-453v195h453v-195z" />
<glyph unicode="&#xae;" horiz-adv-x="1017" d="M162 1249q0 178 126 305t304 127t305 -127t127 -305t-127 -305t-305 -127t-304 127t-126 305zM233 1249.5q0 -149.5 105.5 -254t253 -104.5t254 105.5t106.5 253t-106.5 253t-254 105.5t-253 -104.5t-105.5 -254zM508 1018h-123l68 481h190q152 0 152 -113 q0 -106 -107 -149l121 -219h-147l-105 196h-22zM561 1403l-12 -92h39q82 0 82 57q0 35 -56 35h-53z" />
<glyph unicode="&#xaf;" horiz-adv-x="565" d="M618 1219h-675v131h675v-131z" />
<glyph unicode="&#xb0;" horiz-adv-x="718" d="M141 1214.5q0 122.5 87 209.5t210 87t211 -87t88 -209.5t-87 -209.5t-211 -87t-211 87t-87 209.5zM279 1214.5q0 -67.5 46 -116.5t113.5 -49t114.5 49t47 116.5t-47 116.5t-114.5 49t-113.5 -49t-46 -116.5z" />
<glyph unicode="&#xb1;" horiz-adv-x="1247" d="M1100 2h-1020v174h1020v-174zM500 545h-420v174h420v299h180v-297h420v-174h-420v-301h-180v299z" />
<glyph unicode="&#xb2;" horiz-adv-x="837" d="M887 1686q0 -285 -461 -592l-2 -2h422l-78 -195h-668v104q160 125 277 236q279 270 278 412q0 47 -29.5 75.5t-76.5 28.5q-106 0 -258 -119l-68 135q41 33 111 72q135 74 273 74t209 -64.5t71 -164.5z" />
<glyph unicode="&#xb3;" horiz-adv-x="796" d="M424 1376l-49 -2q-6 -2 -19 -2l-6 119q205 47 256 115q27 37 27 73q0 74 -86 74q-133 0 -266 -102l-68 125q82 59 188.5 99t205 40t172 -39t73.5 -127q0 -170 -197 -238q180 -37 181 -196q0 -100 -74 -201q-45 -63 -120 -112.5t-212 -87t-317 -44.5l-11 142 q238 12 373 82.5t135 176t-186 105.5z" />
<glyph unicode="&#xb4;" horiz-adv-x="481" d="M254 1208h-211l270 338h297z" />
<glyph unicode="&#xb5;" horiz-adv-x="1171" d="M236 -383h-240l172 1292l-6 109h256l-86 -637q-6 -37 -6 -76q0 -135 106 -135q115 0 217 96l86 643l-8 109h258l-98 -750q-4 -29 -4 -47q0 -59 37 -59q4 0 96 24l20 -149q-180 -55 -236.5 -55t-91 36.5t-38.5 98.5q-131 -139 -258 -140q-68 0 -123 31z" />
<glyph unicode="&#xb6;" horiz-adv-x="991" d="M45 -419q-55 54 -55 149.5t78.5 173.5t183.5 78l-16 -111q-55 0 -95.5 -39t-40.5 -88t30 -77.5t76 -28.5t84 34.5t44 81.5l141 1020q-145 0 -240.5 91t-95.5 237q0 217 148.5 340t369.5 123h394l-17 -111h-114l-222 -1583q-12 -92 -86.5 -159.5t-167.5 -67.5q-10 0 -38 4 q-82 -121 -220 -121q-86 0 -141 54zM684 1454l-238 -1700h9q49 0 88 35t45 82l221 1583h-125z" />
<glyph unicode="&#xb7;" horiz-adv-x="477" d="M115 418q-45 45 -45 109.5t45 109.5t109.5 45t109.5 -45t45 -109.5t-45 -109.5t-109.5 -45t-109.5 45z" />
<glyph unicode="&#xb8;" horiz-adv-x="468" d="M104 -451l-32 127q113 14 134 37t21 46.5t-26.5 38t-89.5 34.5l133 195h155l-73 -113q102 -49 102 -143q0 -175 -324 -222z" />
<glyph unicode="&#xb9;" horiz-adv-x="817" d="M182 1751q197 61 367 141h166l-109 -833h209l-20 -162h-691l21 162h260l82 620l-254 -71z" />
<glyph unicode="&#xba;" horiz-adv-x="794" d="M211 828.5q-72 78.5 -72 231t102.5 278.5t270.5 126q133 0 204.5 -78.5t71.5 -232t-102 -278.5t-272 -125q-131 0 -203 78.5zM614 516h-464l16 119h465zM432 862q66 0 109 60q74 96 73.5 263t-118.5 167q-68 0 -111 -60q-74 -98 -74 -264t121 -166z" />
<glyph unicode="&#xbb;" horiz-adv-x="948" d="M180 332l-153 22l297 326l-201 324l164 28l262 -352zM524 332l-151 22l295 326l-199 324l162 28l262 -352z" />
<glyph unicode="&#xbc;" horiz-adv-x="2037" d="M782 504h-688l21 162h258l82 620l-252 -72l-29 144q23 6 135.5 45t231.5 96h164l-111 -833h209zM768 -55h-162l817 1597h164zM1559 207h-424v106l530 682h219l-84 -626h139l-22 -162h-137l-27 -207h-221zM1526 580l-162 -211h215l33 239q6 37 20 107l19 76 q-43 -105 -125 -211z" />
<glyph unicode="&#xbd;" horiz-adv-x="2113" d="M776 504h-688l21 162h258l82 620l-252 -72l-29 144q23 6 135.5 45t231.5 96h163l-110 -833h209zM762 -55h-162l817 1597h164zM1911 0h-662v106l21 17q109 88 214 183t209.5 225.5t104.5 207.5q0 47 -29.5 73t-81 26t-123 -33t-126.5 -74l-68 141q199 145 393 146 q125 0 205 -57.5t80 -174.5q0 -150 -130 -302t-298 -267h373z" />
<glyph unicode="&#xbe;" horiz-adv-x="1947" d="M399 983l-49 -2q-6 -2 -18 -2l-6 119q201 47 256 114q27 37 26 74q0 74 -88 74q-63 0 -137 -30t-127 -73l-68 125q80 59 187.5 99.5t206 40.5t171 -39t72.5 -125q0 -170 -192 -240q176 -37 176 -196q0 -100 -58.5 -181.5t-132 -130.5t-212 -88t-318.5 -45l-12 141 q242 12 375 82t133 179q-1 104 -185 104zM678 -55h-162l815 1597h164zM1466 207h-424v106l531 682h219l-84 -626h141l-22 -162h-139l-27 -207h-221zM1434 580l-160 -211h213l33 239q2 27 22 105l19 78q-51 -111 -127 -211z" />
<glyph unicode="&#xbf;" horiz-adv-x="835" d="M-20 -2q0 100 53 178t129 123t150.5 80t128 71.5t53.5 87t-72 74t-148 23.5h-41l54 190q106 -6 198.5 -33.5t167 -100.5t74.5 -171t-51 -163.5t-124 -105.5t-146 -75q-174 -84 -175 -192q0 -39 36 -63.5t75 -24.5q96 0 186 47l52 -172q-147 -41 -270.5 -41t-226.5 69.5 t-103 198.5zM453 1101.5q0 61.5 46 106.5t107.5 45t106.5 -45t45 -106.5t-45 -106.5t-106.5 -45t-107.5 45t-46 106.5z" />
<glyph unicode="&#xc0;" horiz-adv-x="1239" d="M176 0h-254l705 1499h221l303 -1499h-287l-84 430h-401zM655 1579l-309 338h297l223 -338h-211zM473 631h264q-10 55 -69 512q-16 -43 -83 -227.5t-112 -284.5z" />
<glyph unicode="&#xc1;" horiz-adv-x="1239" d="M176 0h-254l705 1499h221l303 -1499h-287l-84 430h-401zM473 631h264q-10 55 -69 512q-16 -43 -83 -227.5t-112 -284.5zM813 1579h-211l270 338h297z" />
<glyph unicode="&#xc2;" horiz-adv-x="1239" d="M176 0h-254l705 1499h221l303 -1499h-287l-84 430h-401zM594 1579h-156l238 297h201l161 -297h-159l-123 152zM473 631h264q-10 55 -69 512q-16 -43 -83 -227.5t-112 -284.5z" />
<glyph unicode="&#xc3;" horiz-adv-x="1239" d="M176 0h-254l705 1499h221l303 -1499h-287l-84 430h-401zM369 1628q104 156 266 156q61 0 143 -29t113 -29t110 56l95 -64q-98 -154 -248 -153q-61 0 -146.5 29.5t-126 29.5t-104.5 -51zM473 631h264q-10 55 -69 512q-16 -43 -83 -227.5t-112 -284.5z" />
<glyph unicode="&#xc4;" horiz-adv-x="1239" d="M176 0h-254l705 1499h221l303 -1499h-287l-84 430h-401zM457 1679.5q0 49.5 33.5 83t83 33.5t83 -33.5t33.5 -83t-33.5 -83t-83 -33.5t-83 33.5t-33.5 83zM473 631h264q-10 55 -69 512q-16 -43 -83 -227.5t-112 -284.5zM784 1679q0 47 35 82t83 35t83 -33.5t35 -83 t-35 -83t-83 -33.5t-83 34.5t-35 81.5z" />
<glyph unicode="&#xc5;" horiz-adv-x="1239" d="M176 0h-254l705 1499h221l303 -1499h-287l-84 430h-401zM473 631h264q-10 55 -69 512q-16 -43 -83 -227.5t-112 -284.5zM541 1782q0 90 64.5 154.5t154.5 64.5t155.5 -64.5t65.5 -154.5t-65.5 -154.5t-155.5 -64.5t-154.5 64.5t-64.5 154.5zM676 1782q0 -35 24.5 -59.5 t59.5 -24.5t58.5 24.5t23.5 59.5t-24.5 58.5t-58.5 23.5t-58.5 -23.5t-24.5 -58.5z" />
<glyph unicode="&#xc6;" horiz-adv-x="1759" d="M137 0h-250l887 1372l-10 127h1053l-29 -203h-547l-59 -424h440l-29 -202h-440l-66 -467h547l-28 -203h-830l62 430h-420zM879 1151l-330 -520h315l90 665z" />
<glyph unicode="&#xc7;" horiz-adv-x="1245" d="M207 168q-131 164 -131 418t91 462.5t276.5 344t428.5 135.5q121 0 248 -37t195 -109l-166 -188q-45 63 -128 99t-185.5 36t-199.5 -63.5t-153.5 -166t-85 -216t-28.5 -228t28.5 -219t108.5 -186.5t199 -82q180 0 352 154l96 -195q-213 -129 -408 -147l-43 -66 q102 -49 103 -143q0 -174 -324 -222l-32 127q113 14 134 37t21 46.5t-26.5 38t-90.5 34.5l101 148q-250 24 -381 188z" />
<glyph unicode="&#xc8;" horiz-adv-x="1064" d="M920 0h-867l185 1374l-15 125h897l-26 -203h-600l-58 -424h459l-27 -202h-458l-62 -467h598zM625 1579l-310 338h297l224 -338h-211z" />
<glyph unicode="&#xc9;" horiz-adv-x="1064" d="M920 0h-867l185 1374l-15 125h897l-26 -203h-600l-58 -424h459l-27 -202h-458l-62 -467h598zM795 1579h-211l270 338h297z" />
<glyph unicode="&#xca;" horiz-adv-x="1064" d="M920 0h-867l185 1374l-15 125h897l-26 -203h-600l-58 -424h459l-27 -202h-458l-62 -467h598zM561 1579h-155l237 297h201l162 -297h-160l-123 152z" />
<glyph unicode="&#xcb;" horiz-adv-x="1064" d="M920 0h-867l185 1374l-15 125h897l-26 -203h-600l-58 -424h459l-27 -202h-458l-62 -467h598zM422 1681.5q0 49.5 33.5 83t83 33.5t83 -33.5t33.5 -83t-33.5 -83t-83 -33.5t-83 33.5t-33.5 83zM750 1681.5q0 47.5 34.5 82t82.5 34.5t83 -33.5t35 -83t-35 -83t-83 -33.5 t-82.5 34.5t-34.5 82z" />
<glyph unicode="&#xcc;" horiz-adv-x="538" d="M313 1579l-309 338h297l223 -338h-211zM322 0h-269l185 1374l-13 125h295z" />
<glyph unicode="&#xcd;" horiz-adv-x="538" d="M322 0h-269l185 1374l-13 125h295zM471 1579h-211l270 338h297z" />
<glyph unicode="&#xce;" horiz-adv-x="538" d="M322 0h-269l185 1374l-13 125h295zM250 1579h-156l238 297h200l162 -297h-159l-123 152z" />
<glyph unicode="&#xcf;" horiz-adv-x="538" d="M322 0h-269l185 1374l-13 125h295zM119 1679.5q0 49.5 33.5 83t83 33.5t83 -33.5t33.5 -83t-33.5 -83t-83 -33.5t-83 33.5t-33.5 83zM446 1679q0 47 35 82t83 35t83 -33.5t35 -83t-35 -83t-83 -33.5t-83 34.5t-35 81.5z" />
<glyph unicode="&#xd0;" horiz-adv-x="1431" d="M268 1376l-14 123h539q285 0 440.5 -164t155.5 -444q0 -193 -71 -380t-212 -316q-215 -195 -514 -195h-506l88 664h-160l23 180h162zM442 664l-61 -461h227q160 0 275 100q215 190 215 561q0 190 -84 311t-264 121h-224l-59 -452h293l-25 -180h-293z" />
<glyph unicode="&#xd1;" horiz-adv-x="1423" d="M274 0h-221l183 1374l-11 125h326l442 -899l60 -135q4 27 4 80t4 78l117 876h227l-203 -1509h-219q-39 82 -248 508t-317 657q-6 -135 -6 -137zM504 1626q104 156 266 156q61 0 143 -29t113 -29t111 56l94 -64q-98 -154 -248 -153q-61 0 -146 29.5t-126 29.5t-105 -51z " />
<glyph unicode="&#xd2;" horiz-adv-x="1492" d="M226.5 149.5q-150.5 172.5 -150.5 433.5t89 466.5t271 339t426 133.5q285 0 438.5 -168t153.5 -455q0 -240 -91 -446.5t-276.5 -341t-447.5 -134.5t-412.5 172.5zM438 298q76 -126 250 -126q127 0 224.5 70.5t148.5 183.5q104 219 104 463q0 121 -26.5 213t-102 158.5 t-198.5 66.5t-220.5 -70.5t-150.5 -183.5q-104 -217 -104.5 -433t75.5 -342zM799 1579l-310 338h297l224 -338h-211z" />
<glyph unicode="&#xd3;" horiz-adv-x="1492" d="M226.5 149.5q-150.5 172.5 -150.5 433.5t89 466.5t271 339t426 133.5q285 0 438.5 -168t153.5 -455q0 -240 -91 -446.5t-276.5 -341t-447.5 -134.5t-412.5 172.5zM438 298q76 -126 250 -126q127 0 224.5 70.5t148.5 183.5q104 219 104 463q0 121 -26.5 213t-102 158.5 t-198.5 66.5t-220.5 -70.5t-150.5 -183.5q-104 -217 -104.5 -433t75.5 -342zM989 1579h-211l271 338h297z" />
<glyph unicode="&#xd4;" horiz-adv-x="1492" d="M226.5 149.5q-150.5 172.5 -150.5 433.5t89 466.5t271 339t426 133.5q285 0 438.5 -168t153.5 -455q0 -240 -91 -446.5t-276.5 -341t-447.5 -134.5t-412.5 172.5zM438 298q76 -126 250 -126q127 0 224.5 70.5t148.5 183.5q104 219 104 463q0 121 -26.5 213t-102 158.5 t-198.5 66.5t-220.5 -70.5t-150.5 -183.5q-104 -217 -104.5 -433t75.5 -342zM748 1579h-156l237 297h201l162 -297h-160l-123 152z" />
<glyph unicode="&#xd5;" horiz-adv-x="1492" d="M226.5 149.5q-150.5 172.5 -150.5 433.5t89 466.5t271 339t426 133.5q285 0 438.5 -168t153.5 -455q0 -240 -91 -446.5t-276.5 -341t-447.5 -134.5t-412.5 172.5zM438 298q76 -126 250 -126q127 0 224.5 70.5t148.5 183.5q104 219 104 463q0 121 -26.5 213t-102 158.5 t-198.5 66.5t-220.5 -70.5t-150.5 -183.5q-104 -217 -104.5 -433t75.5 -342zM512 1628q104 156 266 156q61 0 143.5 -29t113 -29t110.5 56l94 -64q-98 -154 -248 -153q-61 0 -146 29.5t-126 29.5t-105 -51z" />
<glyph unicode="&#xd6;" horiz-adv-x="1492" d="M226.5 149.5q-150.5 172.5 -150.5 433.5t89 466.5t271 339t426 133.5q285 0 438.5 -168t153.5 -455q0 -240 -91 -446.5t-276.5 -341t-447.5 -134.5t-412.5 172.5zM438 298q76 -126 250 -126q127 0 224.5 70.5t148.5 183.5q104 219 104 463q0 121 -26.5 213t-102 158.5 t-198.5 66.5t-220.5 -70.5t-150.5 -183.5q-104 -217 -104.5 -433t75.5 -342zM621 1679.5q0 49.5 33.5 83t82.5 33.5t83 -33.5t34 -83t-34 -83t-83 -33.5t-82.5 33.5t-33.5 83zM948 1679q0 47 35 82t83 35t83 -33.5t35 -83t-35 -83t-83 -33.5t-83 34.5t-35 81.5z" />
<glyph unicode="&#xd7;" horiz-adv-x="1046" d="M211 86l-127 127l297 295l-297 297l127 127l297 -295l297 295l127 -127l-297 -297l297 -295l-127 -127l-297 295z" />
<glyph unicode="&#xd8;" horiz-adv-x="1497" d="M203 -135l-146 112l152 195q-131 162 -131 417t89 460.5t271.5 339t405.5 133.5t356 -84l111 139l145 -113l-119 -151q119 -158 119 -406t-91 -454.5t-277.5 -341t-432.5 -134.5q-176 0 -307 74zM365 610.5q0 -116.5 26 -204.5l662 843q-82 78 -209 78t-224.5 -70.5 t-150.5 -182t-78.5 -229.5t-25.5 -234.5zM1147 1071l-653 -833q78 -66 200.5 -66t220 70.5t150.5 183.5q102 219 102 463q0 100 -20 182z" />
<glyph unicode="&#xd9;" horiz-adv-x="1361" d="M104 442q0 70 9 127l108 807l-14 123h305l-133 -1001q-4 -37 -4 -56q0 -127 73.5 -198.5t210 -71.5t232.5 96.5t115 233.5l135 997h219l-125 -930q-39 -287 -189.5 -439.5t-451.5 -152.5q-233 0 -361.5 117t-128.5 348zM743 1579l-309 338h297l223 -338h-211z" />
<glyph unicode="&#xda;" horiz-adv-x="1361" d="M104 442q0 70 9 127l108 807l-14 123h305l-133 -1001q-4 -37 -4 -56q0 -127 73.5 -198.5t210 -71.5t232.5 96.5t115 233.5l135 997h219l-125 -930q-39 -287 -189.5 -439.5t-451.5 -152.5q-233 0 -361.5 117t-128.5 348zM928 1579h-211l270 338h297z" />
<glyph unicode="&#xdb;" horiz-adv-x="1361" d="M104 442q0 70 9 127l108 807l-14 123h305l-133 -1001q-4 -37 -4 -56q0 -127 73.5 -198.5t210 -71.5t232.5 96.5t115 233.5l135 997h219l-125 -930q-39 -287 -189.5 -439.5t-451.5 -152.5q-233 0 -361.5 117t-128.5 348zM688 1579h-156l238 297h201l162 -297h-160 l-123 152z" />
<glyph unicode="&#xdc;" horiz-adv-x="1361" d="M104 442q0 70 9 127l108 807l-14 123h305l-133 -1001q-4 -37 -4 -56q0 -127 73.5 -198.5t210 -71.5t232.5 96.5t115 233.5l135 997h219l-125 -930q-39 -287 -189.5 -439.5t-451.5 -152.5q-233 0 -361.5 117t-128.5 348zM563 1685.5q0 49.5 34 83t83 33.5t83 -33.5t34 -83 t-34 -83t-83 -33.5t-83 33.5t-34 83zM891 1685.5q0 47.5 35 82t83 34.5t82.5 -33.5t34.5 -83t-34.5 -83t-82.5 -33.5t-83 34.5t-35 82z" />
<glyph unicode="&#xdd;" horiz-adv-x="1153" d="M442 676l-305 823h299l197 -532l350 532h266l-538 -829l-90 -670h-267zM807 1581h-211l270 338h297z" />
<glyph unicode="&#xde;" d="M236 1374l-11 125h297l-30 -235h151q465 0 465 -369q0 -258 -171 -393t-409 -135h-159l-50 -367h-266zM463 1061l-66 -496h164q115 0 186.5 84t71.5 215q0 197 -190 197h-166z" />
<glyph unicode="&#xdf;" horiz-adv-x="1196" d="M-250 -207q80 -80 158 -80t116.5 41t55.5 156l125 921h-148l25 187h147l2 10q29 227 166.5 361.5t347.5 134.5q154 0 255.5 -73t101.5 -218q0 -90 -33 -156.5t-79 -101.5t-92 -58.5t-79 -44t-33 -43t34 -43t82 -43t97.5 -55.5t83 -93t33.5 -142q0 -205 -138 -341.5 t-343 -136.5q-127 0 -246 62l98 158q88 -35 148 -35q94 0 154.5 74.5t60.5 158.5t-53.5 134.5t-116 74t-115.5 66.5t-53 101t34 102t82 75t97 62q115 78 115 194q0 49 -35 86t-84 37q-205 0 -258 -375l-139 -1036q-25 -182 -128.5 -283.5t-273.5 -101.5q-106 0 -201 45 q-45 25 -67 47z" />
<glyph unicode="&#xe0;" d="M121 99q-88 124 -88 294t61.5 313.5t190.5 239.5t299 96q57 0 126.5 -25.5t118.5 -76.5l48 84h129l-111 -758q-4 -29 -4 -43q0 -74 51 -73q35 0 98 24l35 -129q-96 -63 -217 -63q-61 0 -108.5 39.5t-59.5 99.5h-8q-109 -145 -291 -145.5t-270 123.5zM508 1212l-309 338 h297l223 -338h-211zM281 403q0 -258 149 -258q72 0 128 57.5t91 162.5q63 193 94 428q-82 82 -168 81.5t-145 -52.5t-90 -130q-59 -150 -59 -289z" />
<glyph unicode="&#xe1;" d="M121 99q-88 124 -88 294t61.5 313.5t190.5 239.5t299 96q57 0 126.5 -25.5t118.5 -76.5l48 84h129l-111 -758q-4 -29 -4 -43q0 -74 51 -73q35 0 98 24l35 -129q-96 -63 -217 -63q-61 0 -108.5 39.5t-59.5 99.5h-8q-109 -145 -291 -145.5t-270 123.5zM281 403 q0 -258 149 -258q72 0 128 57.5t91 162.5q63 193 94 428q-82 82 -168 81.5t-145 -52.5t-90 -130q-59 -150 -59 -289zM713 1212h-211l270 338h297z" />
<glyph unicode="&#xe2;" d="M121 99q-88 124 -88 294t61.5 313.5t190.5 239.5t299 96q57 0 126.5 -25.5t118.5 -76.5l48 84h129l-111 -758q-4 -29 -4 -43q0 -74 51 -73q35 0 98 24l35 -129q-96 -63 -217 -63q-61 0 -108.5 39.5t-59.5 99.5h-8q-109 -145 -291 -145.5t-270 123.5zM281 403 q0 -258 149 -258q72 0 128 57.5t91 162.5q63 193 94 428q-82 82 -168 81.5t-145 -52.5t-90 -130q-59 -150 -59 -289zM504 1212h-156l238 297h200l162 -297h-160l-122 152z" />
<glyph unicode="&#xe3;" d="M121 99q-88 124 -88 294t61.5 313.5t190.5 239.5t299 96q57 0 126.5 -25.5t118.5 -76.5l48 84h129l-111 -758q-4 -29 -4 -43q0 -74 51 -73q35 0 98 24l35 -129q-96 -63 -217 -63q-61 0 -108.5 39.5t-59.5 99.5h-8q-109 -145 -291 -145.5t-270 123.5zM281 403 q0 -258 149 -258q72 0 128 57.5t91 162.5q63 193 94 428q-82 82 -168 81.5t-145 -52.5t-90 -130q-59 -150 -59 -289zM293 1247q104 156 266 156q61 0 143 -28.5t113 -28.5t111 55l94 -64q-98 -154 -248 -153q-61 0 -146 29.5t-126 29.5t-105 -51z" />
<glyph unicode="&#xe4;" d="M121 99q-88 124 -88 294t61.5 313.5t190.5 239.5t299 96q57 0 126.5 -25.5t118.5 -76.5l48 84h129l-111 -758q-4 -29 -4 -43q0 -74 51 -73q35 0 98 24l35 -129q-96 -63 -217 -63q-61 0 -108.5 39.5t-59.5 99.5h-8q-109 -145 -291 -145.5t-270 123.5zM281 403 q0 -258 149 -258q72 0 128 57.5t91 162.5q63 193 94 428q-82 82 -168 81.5t-145 -52.5t-90 -130q-59 -150 -59 -289zM342 1296.5q0 49.5 34 83t83 33.5t82.5 -33.5t33.5 -83t-33.5 -83t-82.5 -33.5t-83 33.5t-34 83zM670 1296q0 47 34.5 82t83 35t83 -33.5t34.5 -83 t-34.5 -83t-83 -33.5t-83 34.5t-34.5 81.5z" />
<glyph unicode="&#xe5;" d="M121 99q-88 124 -88 294t61.5 313.5t190.5 239.5t299 96q57 0 126.5 -25.5t118.5 -76.5l48 84h129l-111 -758q-4 -29 -4 -43q0 -74 51 -73q35 0 98 24l35 -129q-96 -63 -217 -63q-61 0 -108.5 39.5t-59.5 99.5h-8q-109 -145 -291 -145.5t-270 123.5zM281 403 q0 -258 149 -258q72 0 128 57.5t91 162.5q63 193 94 428q-82 82 -168 81.5t-145 -52.5t-90 -130q-59 -150 -59 -289zM451 1370q0 90 64.5 154.5t154.5 64.5t155.5 -64.5t65.5 -154.5t-65.5 -154.5t-155.5 -64.5t-154.5 64.5t-64.5 154.5zM586 1370q0 -35 24.5 -59.5 t59.5 -24.5t59.5 24.5t24.5 59.5t-26 58.5t-59.5 23.5t-58 -23.5t-24.5 -58.5z" />
<glyph unicode="&#xe6;" horiz-adv-x="1589" d="M121 99q-88 124 -88 294t61.5 313.5t190.5 239.5t299 96q211 0 313 -170q145 172 356 172q131 0 204 -59t73 -187t-125 -253q-66 -63 -194 -104.5t-302 -43.5q8 -117 65.5 -179t141.5 -62q131 0 295 125l86 -170q-45 -39 -108 -68q-139 -68 -297 -68q-236 0 -349 172 q-150 -172 -360 -172q-174 0 -262 124zM281 403q0 -258 149 -258q72 0 128 57.5t91 162.5q63 193 94 428q-82 82 -168 81.5t-145 -52.5t-90 -130q-59 -150 -59 -289zM922 571q160 4 258 71t98 161q0 70 -74 69.5t-161.5 -76t-120.5 -225.5z" />
<glyph unicode="&#xe7;" horiz-adv-x="884" d="M33 403q0 266 155.5 453.5t407.5 187.5q74 0 158 -27.5t139 -70.5l-141 -162q-86 90 -171 90q-159 0 -229 -165q-59 -139 -59 -269q0 -285 196 -284q102 0 228 92l74 -176q-137 -74 -271 -92l-43 -66q102 -49 103 -143q0 -174 -324 -222l-33 127q113 14 134.5 37 t21.5 46.5t-26.5 38t-90.5 34.5l103 150q-152 25 -242 142t-90 279z" />
<glyph unicode="&#xe8;" horiz-adv-x="972" d="M176 831q70 94 180.5 153.5t245.5 59.5t223 -61t88 -188t-127 -250q-66 -63 -193.5 -104.5t-301.5 -43.5q8 -117 66.5 -179t142.5 -62q131 0 295 125l86 -170q-45 -39 -109 -68q-139 -68 -315 -68t-301 117t-125 329.5t145 409.5zM463 1212l-309 338h297l223 -338h-211z M305 571q160 4 258.5 71t98.5 161q0 70 -74 69.5t-162 -76t-121 -225.5z" />
<glyph unicode="&#xe9;" horiz-adv-x="972" d="M176 831q70 94 180.5 153.5t245.5 59.5t223 -61t88 -188t-127 -250q-66 -63 -193.5 -104.5t-301.5 -43.5q8 -117 66.5 -179t142.5 -62q131 0 295 125l86 -170q-45 -39 -109 -68q-139 -68 -315 -68t-301 117t-125 329.5t145 409.5zM305 571q160 4 258.5 71t98.5 161 q0 70 -74 69.5t-162 -76t-121 -225.5zM690 1212h-211l271 338h297z" />
<glyph unicode="&#xea;" horiz-adv-x="972" d="M176 831q70 94 180.5 153.5t245.5 59.5t223 -61t88 -188t-127 -250q-66 -63 -193.5 -104.5t-301.5 -43.5q8 -117 66.5 -179t142.5 -62q131 0 295 125l86 -170q-45 -39 -109 -68q-139 -68 -315 -68t-301 117t-125 329.5t145 409.5zM440 1212h-155l237 297h201l162 -297 h-160l-123 152zM305 571q160 4 258.5 71t98.5 161q0 70 -74 69.5t-162 -76t-121 -225.5z" />
<glyph unicode="&#xeb;" horiz-adv-x="972" d="M176 831q70 94 180.5 153.5t245.5 59.5t223 -61t88 -188t-127 -250q-66 -63 -193.5 -104.5t-301.5 -43.5q8 -117 66.5 -179t142.5 -62q131 0 295 125l86 -170q-45 -39 -109 -68q-139 -68 -315 -68t-301 117t-125 329.5t145 409.5zM301 1296.5q0 49.5 34 83t83 33.5 t83 -33.5t34 -83t-34 -83t-83 -33.5t-83 33.5t-34 83zM305 571q160 4 258.5 71t98.5 161q0 70 -74 69.5t-162 -76t-121 -225.5zM629 1296q0 47 34.5 82t83 35t83 -33.5t34.5 -83t-34.5 -83t-83 -33.5t-83 34.5t-34.5 81.5z" />
<glyph unicode="&#xec;" horiz-adv-x="458" d="M219 1212l-309 338h297l223 -338h-211zM283 0h-254l121 907l-7 111h256l-123 -905z" />
<glyph unicode="&#xed;" horiz-adv-x="458" d="M283 0h-254l121 907l-7 111h254l-121 -905zM362 1212h-210l270 338h297z" />
<glyph unicode="&#xee;" horiz-adv-x="458" d="M143 1212h-155l237 297h201l162 -297h-160l-123 152zM283 0h-254l121 907l-7 111h254l-121 -905z" />
<glyph unicode="&#xef;" horiz-adv-x="458" d="M16 1276q0 49 34 83t83 34t83 -34t34 -83t-34 -83t-83 -34t-83 34t-34 83zM281 0h-254l123 907l-9 111h256l-121 -905zM344 1276q0 47 35 82t83 35t83 -34t35 -83t-35 -83t-83 -34t-83 35t-35 82z" />
<glyph unicode="&#xf0;" horiz-adv-x="1056" d="M559 1604q2 -2 94 -113l209 113l62 -123l-193 -105q258 -399 258 -747q0 -270 -151.5 -461t-397.5 -191q-193 0 -300 124t-107 321q0 252 157.5 437t391.5 185q25 0 61 -4q-55 135 -111 228l-194 -105l-72 119l193 104l-86 111zM291 406q0 -258 172 -259q84 0 141.5 55.5 t83.5 141.5q43 147 43 283q0 250 -172 250q-80 0 -137 -57.5t-84 -143.5q-47 -149 -47 -270z" />
<glyph unicode="&#xf1;" horiz-adv-x="1026" d="M266 0h-233l98 729q6 57 6 146.5t-28 134.5l247 30q16 -49 17 -131q160 137 300 137.5t200.5 -62t60.5 -191.5q0 -55 -6 -105l-78 -577l6 -111h-256l88 664q6 25 6 73q0 111 -102 111q-45 0 -118 -37t-107 -72zM215 1247q104 156 266 156q61 0 143.5 -28.5t113 -28.5 t110.5 55l94 -64q-98 -154 -248 -153q-61 0 -146 29.5t-128 29.5t-103 -51z" />
<glyph unicode="&#xf2;" horiz-adv-x="1052" d="M33 416q0 248 153.5 438t395.5 190q190 0 297.5 -122.5t107.5 -300t-65.5 -319.5t-193.5 -234.5t-304 -92.5t-283.5 123t-107.5 318zM483 1212l-309 338h297l223 -338h-211zM289 403.5q0 -67.5 12 -122t53 -98.5t113 -44t128 51.5t85 131.5q51 152 51 303q0 252 -172 252 q-74 0 -129 -50.5t-84 -128t-43 -152.5t-14 -142.5z" />
<glyph unicode="&#xf3;" horiz-adv-x="1052" d="M33 416q0 248 153.5 438t395.5 190q190 0 297.5 -122.5t107.5 -300t-65.5 -319.5t-193.5 -234.5t-304 -92.5t-283.5 123t-107.5 318zM289 403.5q0 -67.5 12 -122t53 -98.5t113 -44t128 51.5t85 131.5q51 152 51 303q0 252 -172 252q-74 0 -129 -50.5t-84 -128t-43 -152.5 t-14 -142.5zM680 1210h-211l270 338h297z" />
<glyph unicode="&#xf4;" horiz-adv-x="1052" d="M33 416q0 248 153.5 438t395.5 190q190 0 297.5 -122.5t107.5 -300t-65.5 -319.5t-193.5 -234.5t-304 -92.5t-283.5 123t-107.5 318zM289 403.5q0 -67.5 12 -122t53 -98.5t113 -44t128 51.5t85 131.5q51 152 51 303q0 252 -172 252q-74 0 -129 -50.5t-84 -128t-43 -152.5 t-14 -142.5zM471 1210h-156l238 297h201l161 -297h-159l-123 152z" />
<glyph unicode="&#xf5;" horiz-adv-x="1052" d="M33 416q0 248 153.5 438t395.5 190q190 0 297.5 -122.5t107.5 -300t-65.5 -319.5t-193.5 -234.5t-304 -92.5t-283.5 123t-107.5 318zM244 1247q104 156 266 156q61 0 143 -28.5t113 -28.5t111 55l94 -64q-98 -154 -248 -153q-61 0 -146 29.5t-128 29.5t-103 -51z M289 403.5q0 -67.5 12 -122t53 -98.5t113 -44t128 51.5t85 131.5q51 152 51 303q0 252 -172 252q-74 0 -129 -50.5t-84 -128t-43 -152.5t-14 -142.5z" />
<glyph unicode="&#xf6;" horiz-adv-x="1052" d="M33 416q0 248 153.5 438t395.5 190q190 0 297.5 -122.5t107.5 -300t-65.5 -319.5t-193.5 -234.5t-304 -92.5t-283.5 123t-107.5 318zM289 403.5q0 -67.5 12 -122t53 -98.5t113 -44t128 51.5t85 131.5q51 152 51 303q0 252 -172 252q-74 0 -129 -50.5t-84 -128t-43 -152.5 t-14 -142.5zM338 1296.5q0 49.5 34 83t83 33.5t82.5 -33.5t33.5 -83t-33.5 -83t-82.5 -33.5t-83 33.5t-34 83zM666 1296q0 47 34.5 82t82.5 35t83 -33.5t35 -83t-35 -83t-83 -33.5t-82.5 34.5t-34.5 81.5z" />
<glyph unicode="&#xf7;" horiz-adv-x="1169" d="M1077 418h-1020v180h1020v-180zM410 135.5q0 65.5 46 111.5t112.5 46t112.5 -46t46 -112.5t-46 -113t-111.5 -46.5t-112.5 47.5t-47 113zM410 882.5q0 65.5 46 112.5t111.5 47t111.5 -47t46 -112.5t-46 -111.5t-111.5 -46t-111.5 46t-46 111.5z" />
<glyph unicode="&#xf8;" horiz-adv-x="1052" d="M104 -150l-137 91l148 190q-82 115 -82 285q0 248 153.5 438t395.5 190q113 0 202 -47l109 142l137 -90l-125 -162q82 -115 82 -279t-65.5 -306t-193.5 -234.5t-290 -92.5q-117 0 -200 48zM289 403v-45l373 482q-41 37 -109 37t-123 -50.5t-84 -128.5q-57 -156 -57 -295z M731 662l-375 -484q43 -39 113 -39t126 51.5t85 131.5q51 152 51 303v37z" />
<glyph unicode="&#xf9;" horiz-adv-x="1077" d="M57 227q0 35 6 72l82 629l-10 90h260l-88 -672q-4 -20 -4 -27v-28q0 -119 100 -119q63 0 114.5 47t94.5 155.5t64 254.5l39 299l-13 90h263l-111 -752q-4 -12 -4 -20v-23q0 -74 51 -73q35 0 98 24l35 -129q-96 -63 -221 -63q-61 0 -108.5 38.5t-59.5 100.5h-8 q-51 -66 -142.5 -105t-179.5 -39q-258 0 -258 250zM455 1212l-310 338h297l224 -338h-211z" />
<glyph unicode="&#xfa;" horiz-adv-x="1077" d="M57 227q0 35 6 72l82 629l-10 90h260l-88 -672q-4 -37 -4 -55q0 -119 100 -119q63 0 114.5 47t94.5 155.5t64 254.5l39 299l-13 90h263l-111 -752q-4 -29 -4 -43q0 -74 51 -73q35 0 98 24l35 -129q-96 -63 -221 -63q-61 0 -108.5 38.5t-59.5 100.5h-8 q-51 -66 -142.5 -105t-179.5 -39q-258 0 -258 250zM676 1210h-211l270 338h297z" />
<glyph unicode="&#xfb;" horiz-adv-x="1077" d="M57 227q0 35 6 72l82 629l-10 90h260l-88 -672q-4 -37 -4 -55q0 -119 100 -119q63 0 114.5 47t94.5 155.5t64 254.5l39 299l-13 90h263l-111 -752q-4 -29 -4 -43q0 -74 51 -73q35 0 98 24l35 -129q-96 -63 -221 -63q-61 0 -108.5 38.5t-59.5 100.5h-8 q-51 -66 -142.5 -105t-179.5 -39q-258 0 -258 250zM422 1210h-156l238 297h201l161 -297h-159l-123 152z" />
<glyph unicode="&#xfc;" horiz-adv-x="1077" d="M57 227q0 35 6 72l82 629l-10 90h260l-88 -672q-4 -37 -4 -55q0 -119 100 -119q63 0 114.5 47t94.5 155.5t64 254.5l39 299l-13 90h263l-111 -752q-4 -29 -4 -43q0 -74 51 -73q35 0 98 24l35 -129q-96 -63 -221 -63q-61 0 -108.5 38.5t-59.5 100.5h-8 q-51 -66 -142.5 -105t-179.5 -39q-258 0 -258 250zM289 1296.5q0 49.5 33.5 83t83 33.5t83 -33.5t33.5 -83t-33.5 -83t-83 -33.5t-83 33.5t-33.5 83zM616 1296q0 47 35 82t83 35t83 -33.5t35 -83t-35 -83t-83 -33.5t-83 34.5t-35 81.5z" />
<glyph unicode="&#xfd;" horiz-adv-x="925" d="M-250 -231q86 -76 165 -76q141 0 232 112q72 84 127 197l-215 1016h250q98 -475 106.5 -527.5t14.5 -191.5q39 131 67.5 197.5t241.5 521.5h230l-477 -1024q-129 -271 -255 -368t-300.5 -97t-290.5 82zM633 1212h-211l270 338h297z" />
<glyph unicode="&#xfe;" horiz-adv-x="1067" d="M217 1464l-6 109h254l-84 -637q131 104 289.5 104t242.5 -126t84 -306q0 -260 -141 -446.5t-391 -186.5q-121 0 -201 62l-63 -481h-234zM309 385v-33q0 -90 41 -149.5t121 -59.5t135.5 52.5t81.5 128.5q51 145 51 255.5t-43 191.5t-141 81t-197 -98l-45 -334 q-4 -21 -4 -35z" />
<glyph unicode="&#xff;" horiz-adv-x="925" d="M-250 -231q86 -76 165 -76q141 0 232 112q72 84 127 197l-215 1016h250q98 -475 106.5 -527.5t14.5 -191.5q39 131 67.5 197.5t241.5 521.5h230l-477 -1024q-129 -271 -255 -368t-300.5 -97t-290.5 82zM260 1296.5q0 49.5 34 83t83 33.5t83 -33.5t34 -83t-34 -83 t-83 -33.5t-83 33.5t-34 83zM588 1296q0 47 34.5 82t83 35t83 -33.5t34.5 -83t-34.5 -83t-83 -33.5t-83 34.5t-34.5 81.5z" />
<glyph unicode="&#x152;" horiz-adv-x="2072" d="M228.5 149.5q-150.5 172.5 -150.5 433.5t89 466.5t271.5 339t422 133.5t382.5 -156l19 133h866l-27 -203h-600l-57 -424h459l-27 -202h-459l-61 -467h598l-27 -203h-866l18 139q-94 -90 -193.5 -126t-228.5 -36q-278 0 -428.5 172.5zM440.5 298q75.5 -126 249.5 -126 q127 0 224.5 70.5t150.5 183.5q102 219 102 463q0 121 -26.5 213t-102 158.5t-198.5 66.5t-220.5 -70.5t-150.5 -183.5q-104 -217 -104 -433t75.5 -342z" />
<glyph unicode="&#x153;" horiz-adv-x="1660" d="M33 416q0 248 153.5 438t384 190t338.5 -161q162 162 379 161q137 0 225.5 -61t88.5 -187t-125 -251q-66 -63 -194 -104.5t-302 -43.5q8 -117 65.5 -179t141.5 -62q131 0 295 125l86 -170q-45 -39 -109 -68q-139 -68 -297 -68q-236 0 -356 158q-152 -158 -355.5 -158 t-311 123t-107.5 318zM289 403.5q0 -67.5 12 -122t53 -98.5t113 -44t128 51.5t85 131.5q51 152 51 303q0 252 -172 252q-74 0 -129 -50.5t-84 -128t-43 -152.5t-14 -142.5zM993 571q160 4 258.5 71t98.5 161q0 70 -74 69.5t-162 -76t-121 -225.5z" />
<glyph unicode="&#x178;" horiz-adv-x="1153" d="M442 676l-305 823h299l197 -532l350 532h266l-538 -829l-90 -670h-267zM442 1685.5q0 49.5 34 83t83 33.5t83 -33.5t34 -83t-34 -83t-83 -33.5t-83 33.5t-34 83zM770 1685.5q0 47.5 35 82t83 34.5t83 -33.5t35 -83t-35 -83t-83 -33.5t-83 34.5t-35 82z" />
<glyph unicode="&#x2c6;" horiz-adv-x="520" d="M119 1204h-156l238 297h200l162 -297h-160l-122 152z" />
<glyph unicode="&#x2dc;" horiz-adv-x="557" d="M-86 1245q104 156 266 156q61 0 143.5 -29t113 -29t110.5 56l94 -64q-98 -154 -248 -153q-61 0 -146 29.5t-126 29.5t-105 -51z" />
<glyph unicode="&#x2000;" horiz-adv-x="1000" />
<glyph unicode="&#x2001;" horiz-adv-x="2001" />
<glyph unicode="&#x2002;" horiz-adv-x="1000" />
<glyph unicode="&#x2003;" horiz-adv-x="2001" />
<glyph unicode="&#x2004;" horiz-adv-x="667" />
<glyph unicode="&#x2005;" horiz-adv-x="500" />
<glyph unicode="&#x2006;" horiz-adv-x="333" />
<glyph unicode="&#x2007;" horiz-adv-x="333" />
<glyph unicode="&#x2008;" horiz-adv-x="250" />
<glyph unicode="&#x2009;" horiz-adv-x="400" />
<glyph unicode="&#x200a;" horiz-adv-x="111" />
<glyph unicode="&#x2010;" horiz-adv-x="679" d="M539 430h-453l27 195h452z" />
<glyph unicode="&#x2011;" horiz-adv-x="679" d="M539 430h-453l27 195h452z" />
<glyph unicode="&#x2012;" horiz-adv-x="679" d="M539 430h-453l27 195h452z" />
<glyph unicode="&#x2013;" horiz-adv-x="1200" d="M1059 432h-975l29 193h974z" />
<glyph unicode="&#x2014;" horiz-adv-x="1916" d="M1776 432h-1692l29 193h1691z" />
<glyph unicode="&#x2018;" horiz-adv-x="462" d="M133 1114q0 113 86 219.5t203 177.5l72 -81q-35 -23 -75 -74t-40 -84q0 -12 37 -56.5t37 -105.5t-48.5 -107.5t-115 -46.5t-111.5 45t-45 113z" />
<glyph unicode="&#x2019;" horiz-adv-x="458" d="M211 956l-72 80q39 33 77 80t38 80q0 12 -37 56t-37 104.5t49.5 107.5t117 47t110.5 -45t43 -112q0 -113 -86 -219.5t-203 -178.5z" />
<glyph unicode="&#x201a;" horiz-adv-x="477" d="M37 -274l-68 84q115 102 115 157q0 12 -37 56.5t-37 105.5t48 108.5t115 47.5t112 -45t45 -113q0 -113 -89 -220t-204 -181z" />
<glyph unicode="&#x201c;" horiz-adv-x="849" d="M131 1114q0 113 86 219.5t203 177.5l72 -81q-35 -23 -75 -74t-40 -84q0 -12 37 -56.5t37 -105.5t-48.5 -107.5t-115 -46.5t-111.5 45t-45 113zM520 1114q0 113 86 219.5t203 177.5l72 -81q-35 -23 -75 -74t-40 -84q0 -12 37 -56.5t37 -105.5t-48.5 -107.5t-115 -46.5 t-111.5 45t-45 113z" />
<glyph unicode="&#x201d;" horiz-adv-x="847" d="M211 956l-72 80q39 33 77 80t38 80q0 12 -37 56t-37 104.5t49.5 107.5t117 47t110.5 -45t43 -112q0 -113 -86 -219.5t-203 -178.5zM600 956l-72 80q39 33 77 80t38 80q0 12 -37 56t-37 104.5t49.5 107.5t117 47t110.5 -45t43 -112q0 -113 -86 -219.5t-203 -178.5z" />
<glyph unicode="&#x201e;" horiz-adv-x="866" d="M41 -270l-72 80q39 33 77 80t38 79q0 10 -37 55.5t-37 105.5t49.5 107.5t115 47.5t110.5 -45t45 -113q0 -113 -86 -219t-203 -178zM430 -270l-72 80q39 33 77 80t38 79q0 10 -37 55.5t-37 105.5t49.5 107.5t115 47.5t110.5 -45t45 -113q0 -113 -86 -219t-203 -178z" />
<glyph unicode="&#x2022;" horiz-adv-x="870" d="M220 504q-93 92 -93 225t94 227.5t227.5 94.5t225.5 -92.5t92 -227.5t-92 -227t-226.5 -92t-227.5 92z" />
<glyph unicode="&#x2026;" horiz-adv-x="1484" d="M56 21.5q-46 46.5 -46 113t46 112.5t111.5 46t113 -47t47.5 -112.5t-46 -112t-113 -46.5t-113 46.5zM518 133.5q0 65.5 46 112.5t111.5 47t112 -47t46.5 -112.5t-46.5 -112t-112 -46.5t-111.5 46.5t-46 112zM1024 133.5q0 65.5 47 112.5t112.5 47t111.5 -46t46 -112.5 t-46 -113t-112.5 -46.5t-112.5 46.5t-46 112z" />
<glyph unicode="&#x202f;" horiz-adv-x="400" />
<glyph unicode="&#x2039;" horiz-adv-x="604" d="M340 332l-270 348l360 352l154 -28l-289 -324l203 -326z" />
<glyph unicode="&#x203a;" horiz-adv-x="602" d="M178 332l-151 22l297 326l-201 324l162 28l262 -352z" />
<glyph unicode="&#x205f;" horiz-adv-x="500" />
<glyph unicode="&#x20ac;" horiz-adv-x="1077" d="M182 354h-151l14 97h139q4 63 19 127h-142l13 96h155q68 180 205 275t312.5 95t293.5 -98l-137 -155q-90 80 -175 79.5t-147.5 -58.5t-93.5 -138h330l-12 -96h-348q-16 -82 -17 -127h348l-14 -97h-330q12 -92 64.5 -149.5t125.5 -57.5t118 24t112 77l76 -176 q-186 -96 -356 -96.5t-279 98t-123 280.5z" />
<glyph unicode="&#x2122;" horiz-adv-x="1181" d="M362 1405h-145l12 94h418l-12 -94h-150l-53 -387h-125zM711 1018h-107l68 481h151l66 -278l145 278h150l-68 -481h-121l35 262q-4 -8 -139 -262h-74l-69 274z" />
<glyph unicode="&#xe000;" horiz-adv-x="1013" d="M0 1014h1014v-1014h-1014v1014z" />
<glyph unicode="&#xfb01;" horiz-adv-x="1120" d="M-330 -381l99 135q27 -25 70.5 -44t78.5 -19q137 0 174 237l125 920h-162l21 170h162q33 252 133 401q115 170 364 170q88 0 195 -57q55 -31 101 -93.5t63 -146.5l-230 -63q0 70 -39 131t-102 61q-186 0 -250 -403h588l-121 -905l4 -113h-254l115 848h-354l-127 -944 q-55 -375 -373 -375q-76 0 -159 22.5t-122 67.5z" />
<glyph unicode="&#xfb02;" horiz-adv-x="1128" d="M-330 -381l99 135q27 -25 70.5 -44t78.5 -19q137 0 174 237l125 920h-162l21 170h162q33 266 148.5 418.5t363.5 152.5q102 0 194 -63l199 49l-197 -1464l6 -111h-260l168 1264q2 6 2 16v16q0 125 -119 125q-207 0 -270 -403h242l-23 -170h-241l-127 -944 q-55 -375 -373 -375q-76 0 -159 22.5t-122 67.5z" />
</font>
</defs>
</svg>
