<?xml version="1.0" standalone="no"?>
<!DOCTYPE svg PUBLIC "-//W3C//DTD SVG 1.1//EN" "http://www.w3.org/Graphics/SVG/1.1/DTD/svg11.dtd" >
<svg xmlns="http://www.w3.org/2000/svg">
<metadata></metadata>
<defs>
<font id="RosarioBold" horiz-adv-x="997" >
<font-face units-per-em="2048" ascent="1638" descent="-410" />
<missing-glyph horiz-adv-x="425" />
<glyph horiz-adv-x="0" />
<glyph horiz-adv-x="2048" />
<glyph unicode="&#xd;" horiz-adv-x="681" />
<glyph unicode=" "  horiz-adv-x="425" />
<glyph unicode="&#x09;" horiz-adv-x="425" />
<glyph unicode="&#xa0;" horiz-adv-x="425" />
<glyph unicode="!" horiz-adv-x="512" d="M149.5 19q-45.5 44 -45.5 106.5t45.5 108t107.5 45.5t107.5 -44.5t45.5 -108t-45.5 -107.5t-107.5 -44t-107.5 44zM164 449l-60 968v6q0 61 78 62h146q80 0 80 -72l-60 -964h-184z" />
<glyph unicode="&#x22;" horiz-adv-x="677" d="M102 1110l-10 35v354h193v-354l-74 -225h-43q-50 137 -66 190zM467 920l-74 225v354h193v-354l-74 -225h-45z" />
<glyph unicode="#" horiz-adv-x="1200" d="M283 426h-217v182h241l37 262h-225v183h250l59 446h182l-59 -446h192l60 446h182l-59 -446h209v-183h-234l-37 -262h217v-182h-241l-58 -426h-182l57 426h-192l-57 -426h-183zM526 870l-37 -262h193l37 262h-193z" />
<glyph unicode="$" horiz-adv-x="872" d="M61 59l89 168q143 -82 219.5 -82t121 34t44.5 93.5t-46.5 95t-112 59.5t-132 53.5t-112.5 91t-46 153.5q0 145 106.5 228t258.5 91l20 234h147l-63 -238q137 -16 225 -59l-86 -172q-90 70 -202 70q-57 0 -98.5 -27t-41.5 -80t46 -87t113 -56.5t132.5 -53t111.5 -96 t46 -162.5q0 -145 -103.5 -238t-251.5 -106l-20 -229h-150l66 231q-162 14 -281 84z" />
<glyph unicode="%" horiz-adv-x="1785" d="M63 1042.5q0 184.5 91.5 301t271.5 116.5q92 0 152 -28h729l-709 -1457h-137l659 1346h-407q76 -113 75.5 -288t-92.5 -292.5t-271 -117.5t-270.5 117.5t-91.5 302zM426 1298q-139 0 -139 -257t139 -257t139 257t-139 257zM995 411.5q0 184.5 91.5 301t271.5 116.5 t271 -116.5t91 -301t-91 -302t-271 -117.5t-271.5 117.5t-91.5 302zM1358 668q-139 0 -139 -257t139 -257t139 257t-139 257z" />
<glyph unicode="&#x26;" horiz-adv-x="1513" d="M170 379q0 242 266 416q-111 152 -110.5 288t106 233t249.5 97t239.5 -74.5t95.5 -212.5q0 -102 -64.5 -181t-173.5 -154q80 -86 246 -281q66 141 66 270l159 -39q0 -188 -96 -376q94 -109 135 -129.5t154 -20.5h55v-215h-151q-102 0 -175 39t-157 123 q-176 -186 -406 -187q-186 0 -312 110t-126 294zM561 645q-152 -113 -151.5 -218t65 -160.5t176 -55.5t221.5 94zM541 1116q0 -84 106 -190q47 31 71.5 50t52.5 59t28 91.5t-33 87t-89 35.5t-96 -39t-40 -94z" />
<glyph unicode="'" horiz-adv-x="376" d="M102 1110l-10 35v354h193v-354l-74 -225h-43q-50 137 -66 190z" />
<glyph unicode="(" horiz-adv-x="659" d="M457 -299q-391 430 -391 907t391 914l194 -33q-176 -209 -258 -415t-82 -465t82 -461.5t258 -413.5z" />
<glyph unicode=")" horiz-adv-x="659" d="M203 -299l-195 33q176 211 258 413.5t82 461.5t-82 465t-258 415l195 33q391 -436 391 -913.5t-391 -907.5z" />
<glyph unicode="*" horiz-adv-x="956" d="M383 1087l-313 43l61 220l287 -152l-60 320h228l-51 -320l274 160l84 -221l-324 -56l236 -217l-182 -141l-146 289l-145 -283l-176 131z" />
<glyph unicode="+" horiz-adv-x="1142" d="M481 418h-420v180h420v420h181v-418h419v-180h-419v-420h-181v418z" />
<glyph unicode="," horiz-adv-x="473" d="M131 27q-49 49 -49 111.5t41 104.5t108.5 42t112.5 -56.5t45 -134.5q0 -207 -223 -368q-41 41 -80 84q94 94 94 149q0 16 -16 33z" />
<glyph unicode="-" horiz-adv-x="690" d="M571 430h-452v195h452v-195z" />
<glyph unicode="." horiz-adv-x="475" d="M80 133.5q0 65.5 46 112.5t111.5 47t111.5 -47t46 -112.5t-46 -112t-111.5 -46.5t-111.5 46.5t-46 112z" />
<glyph unicode="/" horiz-adv-x="872" d="M256 0h-190l550 1499h193z" />
<glyph unicode="0" horiz-adv-x="1208" d="M212 116.5q-140 141.5 -140 396.5t137 393t394 138t395.5 -139t138.5 -393t-140.5 -395.5t-392.5 -141.5t-392 141.5zM340 510q0 -207 68.5 -288t195.5 -81q162 0 217 117q45 94 45 252q0 369 -263 369t-263 -369z" />
<glyph unicode="1" horiz-adv-x="831" d="M102 715l-43 131l355 174h159v-817h213v-203h-684v203h224v571z" />
<glyph unicode="2" horiz-adv-x="1003" d="M911 0h-845v111q80 84 230 256t214 241q68 68 68 130.5t-35 93t-88 30.5q-123 0 -258 -135l-123 131q207 190 450 191q141 0 244.5 -73t103.5 -204t-112 -248q-66 -72 -190 -184.5t-150 -136.5h534z" />
<glyph unicode="3" horiz-adv-x="1024" d="M51 -406l-28 144q221 4 423 86q106 43 171 128t65 200q0 152 -147 151q-68 0 -144 -29l-72 148q117 53 216.5 156.5t99.5 212.5q0 86 -76 86q-98 0 -203 -101l-114 115q61 74 171.5 115t223.5 41t198 -52.5t85 -163t-104.5 -211t-229.5 -163.5q45 4 63 4q143 0 231.5 -71 t88.5 -202t-58.5 -233t-151.5 -168t-214 -111q-225 -82 -463 -82h-31z" />
<glyph unicode="4" horiz-adv-x="1116" d="M625 -2h-598v119l585 903h269v-817h219l-58 -205h-161v-375h-256v375zM625 674l-306 -471h306v471z" />
<glyph unicode="5" horiz-adv-x="903" d="M68 -424l-45 127q180 55 319.5 163t138.5 292q0 123 -113.5 232.5t-250.5 168.5l209 461h567l-72 -248h-385l-45 -102q360 -201 361 -502q0 -166 -109 -299q-200 -246 -575 -293z" />
<glyph unicode="6" horiz-adv-x="1132" d="M70 500q0 285 173 507t449 369q158 86 289 119l57 -133q-199 -72 -376 -229.5t-267 -346.5q119 76 238 76q190 0 313 -118.5t123 -312t-145.5 -325t-358.5 -131.5t-354 147t-141 378zM346 475q0 -125 57.5 -227.5t169 -102.5t166 83t54.5 193.5t-54.5 187.5t-170 77 t-214.5 -108q-8 -40 -8 -103z" />
<glyph unicode="7" horiz-adv-x="950" d="M627 791h-590l65 227h834v-129l-584 -1276h-278z" />
<glyph unicode="8" horiz-adv-x="1044" d="M160 592q37 41 52 56.5t68.5 60.5t67.5 57l-24 22q-76 68 -111 107t-63.5 107.5t-28.5 154.5q0 158 124 250t288.5 92t275.5 -89t111 -253q0 -125 -63.5 -202t-162.5 -160l33 -31q63 -59 94 -91t72 -87q76 -100 76 -238q0 -180 -133.5 -276.5t-316.5 -96.5t-313 99.5 t-130 260.5t84 257zM357.5 200.5q54.5 -59.5 145.5 -59.5t140 58.5t49 143.5t-71 163q-43 47 -81 79.5t-46 41.5q-18 -18 -60 -52q-75 -60 -103 -111.5t-28 -127.5t54.5 -135.5zM425 1065q28 -37 40 -51.5t43 -43t39 -36.5l8 8q66 51 100.5 98t34.5 119t-37 125t-108.5 53 t-109.5 -51t-38 -117.5t28 -103.5z" />
<glyph unicode="9" horiz-adv-x="1099" d="M175 278.5q-122 118.5 -122 312t144.5 325t357.5 131.5t354.5 -147.5t141.5 -377.5q0 -180 -80 -344t-213 -284q-276 -248 -629 -332l-55 133q205 68 383 212t268 329q-119 -76 -238 -76q-190 0 -312 118.5zM382 794q-54 -83 -54 -192.5t55 -187.5t171 -78t214 108 q6 51 6 103q0 127 -57.5 228.5t-169 101.5t-165.5 -83z" />
<glyph unicode=":" horiz-adv-x="532" d="M155 21.5q-46 46.5 -46 113t46 112.5t111.5 46t112.5 -47t47 -112.5t-46 -112t-112.5 -46.5t-112.5 46.5zM109 725q0 66 46 112t112.5 46t112.5 -46t46 -113t-46 -113t-111.5 -46t-112.5 47t-47 113z" />
<glyph unicode=";" horiz-adv-x="528" d="M104 725q0 66 46.5 112t112 46t111.5 -46t46 -112t-46 -113t-111.5 -47t-112 47t-46.5 113zM160 27q-49 49 -49 111.5t41 104.5t108.5 42t112.5 -56.5t45 -134.5q0 -207 -223 -368q-41 41 -80 84q94 94 94 149q0 16 -16 33z" />
<glyph unicode="&#x3c;" horiz-adv-x="1171" d="M1077 -25l-1020 482v106l1020 479v-184l-753 -348l753 -354v-181z" />
<glyph unicode="=" horiz-adv-x="1280" d="M1151 223h-1020v180h1020v-180zM1151 618h-1020v181h1020v-181z" />
<glyph unicode="&#x3e;" horiz-adv-x="1171" d="M1114 457l-1020 -482v181l754 354l-754 348v184l1020 -479v-106z" />
<glyph unicode="?" horiz-adv-x="907" d="M154 1208l-95 181q139 90 326.5 90t323 -96.5t135.5 -254t-83 -245.5t-229 -152q-27 -12 -26 -43v-244h-219v420q109 8 201 71.5t92 156t-63.5 140.5t-160 48t-202.5 -72zM238 133.5q0 65.5 46 112.5t111.5 47t111.5 -47t46 -112.5t-46 -112t-111.5 -46.5t-111.5 46.5 t-46 112z" />
<glyph unicode="@" horiz-adv-x="1665" d="M82 393q0 162 59.5 317.5t164 281.5t265 204t349.5 78q289 0 485.5 -172t196.5 -465q0 -205 -112 -369t-280 -164t-231 115q-41 -55 -107.5 -86t-126.5 -31q-129 0 -195.5 92.5t-66.5 244t117 307t303 155.5q111 0 176 -76l35 62h96q-37 -238 -57 -356.5t-20 -198.5 q0 -113 75 -113q115 0 188.5 128t73.5 290q0 244 -157.5 385t-392.5 141q-158 0 -294.5 -67.5t-224.5 -178t-138 -246.5t-50 -278q0 -240 149.5 -399.5t378.5 -159.5q86 0 172 25l31 -109q-92 -27 -203 -26q-287 0 -473 191t-186 478zM670 422q0 -190 110 -191 q111 0 166 166q39 117 70 318q-63 59 -130 59t-120 -67q-96 -123 -96 -285z" />
<glyph unicode="A" horiz-adv-x="1288" d="M240 0h-238l530 1499h224l530 -1499h-303l-147 430h-443zM463 631h305q-104 324 -156 512q-83 -301 -149 -512z" />
<glyph unicode="B" horiz-adv-x="1251" d="M135 1374l-29 125h533q197 0 332 -67q157 -78 157 -298q0 -114 -88 -207t-217 -110q158 -27 266.5 -136.5t108.5 -260t-82 -248.5q-145 -172 -457 -172h-524v1374zM418 711v-508h223q117 0 188.5 65.5t71.5 187.5t-94 188.5t-229 66.5h-160zM418 1296v-383h211 q88 0 145 54.5t57 145.5t-56 137t-152 46h-205z" />
<glyph unicode="C" horiz-adv-x="1300" d="M251 192.5q-185 217.5 -185 559.5t194.5 559t523.5 217q127 0 266.5 -37t219.5 -109l-148 -188q-55 63 -146 99t-181 36q-152 0 -251.5 -86t-136 -207t-36.5 -244.5t25.5 -225t74.5 -192.5t135 -148.5t193 -57.5q190 0 350 154l129 -195q-127 -80 -238.5 -116t-257.5 -36 q-346 0 -531 217.5z" />
<glyph unicode="D" horiz-adv-x="1456" d="M100 1499h568q340 0 530.5 -204.5t190.5 -548t-203 -545t-520 -201.5h-533v1374q-25 107 -33 125zM416 1296v-1093h237q113 0 199 44t135 122q98 152 98 370q0 322 -184 473q-100 84 -252 84h-233z" />
<glyph unicode="E" horiz-adv-x="1103" d="M133 1374l-31 125h942v-203h-630v-424h483v-202h-483v-467h630v-203h-911v1374z" />
<glyph unicode="F" horiz-adv-x="1005" d="M133 1374l-29 125h879v-203h-565v-424h436v-202h-436v-670h-285v1374z" />
<glyph unicode="G" horiz-adv-x="1472" d="M238 191.5q-172 214.5 -172 558.5t198.5 559t550.5 215q137 0 288.5 -41t237.5 -121l-149 -168q-104 80 -179 108.5t-217.5 28.5t-248 -85t-145.5 -209t-40 -254t24 -227t70 -185t130 -142.5t190 -54.5q147 0 235.5 86t88.5 232v126h-312l27 181h569q-4 -250 -4 -437.5 t11 -363.5h-146l-69 156q-102 -94 -205 -135.5t-242 -41.5q-319 0 -491 214.5z" />
<glyph unicode="H" horiz-adv-x="1460" d="M133 1374l-29 125h312v-627h628v627h283v-1499h-283v670h-628v-670h-283v1374z" />
<glyph unicode="I" horiz-adv-x="548" d="M133 1374l-29 125h312v-1499h-283v1374z" />
<glyph unicode="J" horiz-adv-x="548" d="M133 1374l-29 125h312v-1298q0 -229 -36 -338t-85 -162q-113 -121 -336 -129l-41 160q141 16 182 131q33 92 33 233v1278z" />
<glyph unicode="K" horiz-adv-x="1191" d="M133 1374l-29 125h312v-670l499 670h263l-488 -655l531 -844h-328l-477 760v-760h-283v1374z" />
<glyph unicode="L" horiz-adv-x="1017" d="M135 1374l-26 125h311v-1296h588v-203h-873v1374z" />
<glyph unicode="M" horiz-adv-x="1734" d="M131 1374l-29 125h394l319 -860q23 -61 59 -248q6 27 21.5 111t34.5 129l313 868h361v-1497h-277v1016q0 70 10 147l-49 -147l-366 -1018h-152l-377 1018l-49 147l10 -147v-1016h-223v1372z" />
<glyph unicode="N" horiz-adv-x="1462" d="M133 1372l-29 125h336l590 -897q57 -88 84 -135q-12 102 -12 158v874h227v-1507h-221l-674 1028q-63 98 -86 137q12 -94 12 -137v-1018h-227v1372z" />
<glyph unicode="O" horiz-adv-x="1562" d="M66 752q0 340 188 555t526 215t527.5 -214t189.5 -556t-195.5 -558.5t-528.5 -216.5t-520 217.5t-187 557.5zM387.5 961.5q-20.5 -95.5 -20.5 -203t20.5 -204.5t65.5 -186t130 -142.5t198.5 -53.5t197.5 50t129 134t65.5 179.5t20.5 204t-20.5 205.5t-65.5 186.5 t-130 142.5t-198.5 53t-197.5 -50t-129 -135t-65.5 -180.5z" />
<glyph unicode="P" horiz-adv-x="1161" d="M102 1499h476q246 0 395 -105.5t149 -335t-156.5 -343t-383.5 -113.5h-168v-602h-281v1374q0 6 -13.5 61.5t-17.5 63.5zM416 1296v-495h172q113 0 174 68.5t61 182t-59 179t-174 65.5h-174z" />
<glyph unicode="Q" horiz-adv-x="1560" d="M242 1286q86 109 225 173.5t315 64.5t315.5 -64.5t225.5 -173.5q174 -223 174 -541q0 -215 -90 -400t-283 -290l25 -12q166 -80 274.5 -129t293 -106.5t323.5 -57.5t364 72l47 -156q-256 -86 -331.5 -97t-171 -11t-199.5 22.5t-229 69.5t-209 82t-224.5 99.5t-188.5 87 t-255 65.5q-297 61 -437 267t-140 508t176 527zM407.5 1022q-38.5 -127 -38.5 -277.5t38.5 -274.5t135 -210t240 -86t239.5 86t135 210t39 275.5t-39 277.5t-135 215t-239.5 89t-240 -89t-135 -216z" />
<glyph unicode="R" horiz-adv-x="1239" d="M102 1499h514q227 0 366.5 -96t139.5 -313q0 -127 -96 -238t-223 -141l459 -711h-320l-416 668h-112v-668h-281v1374q0 6 -13.5 61.5t-17.5 63.5zM414 1294v-426h131q281 0 280 224q0 98 -67.5 150t-167.5 52h-176z" />
<glyph unicode="S" horiz-adv-x="1099" d="M37 94l96 228q164 -150 359 -150q104 0 178.5 57.5t74.5 145.5t-49 145.5t-121.5 90t-158.5 76.5t-159 89t-122 128t-49 192q0 211 146.5 319.5t390.5 108.5q90 0 210.5 -37t186.5 -86l-141 -176q-115 102 -283 102q-86 0 -148.5 -45t-62.5 -122t49 -131t122 -87t159 -78 t158.5 -91t121.5 -132t49 -201q0 -217 -152.5 -341t-373.5 -124q-282 0 -481 119z" />
<glyph unicode="T" horiz-adv-x="1163" d="M432 1296h-416v203h1131v-203h-422v-1296h-293v1296z" />
<glyph unicode="U" horiz-adv-x="1421" d="M121 1376l-33 123h322v-997q0 -152 90 -241t241.5 -89t239.5 88t88 242v997h231v-930q0 -307 -159.5 -449.5t-438 -142.5t-430 153t-151.5 439v807z" />
<glyph unicode="V" horiz-adv-x="1239" d="M518 -4l-516 1501h299q29 -86 133.5 -388t147.5 -433t71 -268q29 141 80 280l277 809h227l-518 -1501h-201z" />
<glyph unicode="W" horiz-adv-x="1923" d="M430 -4l-412 1503h283q217 -784 233.5 -850.5t51.5 -275.5q23 154 71 336l215 790h238q25 -92 99.5 -349t118.5 -433t65 -344q25 170 69 336l217 790h228l-416 -1503h-254q-190 682 -226 829.5t-46 251.5q-25 -174 -70 -338l-203 -743h-262z" />
<glyph unicode="X" horiz-adv-x="1204" d="M248 0h-264l469 760l-441 739h326l280 -469l291 469h265l-424 -692l481 -807h-328l-317 545z" />
<glyph unicode="Y" horiz-adv-x="1153" d="M440 682l-438 817h303l299 -557l307 557h246l-444 -817v-682h-273v682z" />
<glyph unicode="Z" horiz-adv-x="1183" d="M1126 0h-1091v168l719 1130h-670v201h1030v-149l-733 -1147h770z" />
<glyph unicode="[" horiz-adv-x="626" d="M580 -270h-447v1769h447v-121h-203v-1528h203v-120z" />
<glyph unicode="\" horiz-adv-x="870" d="M612 0l-551 1499h191l553 -1499h-193z" />
<glyph unicode="]" horiz-adv-x="626" d="M47 -270v120h203v1528h-203v121h447v-1769h-447z" />
<glyph unicode="^" horiz-adv-x="1265" d="M322 0h-181l482 1020h106l481 -1020h-186l-348 754z" />
<glyph unicode="_" horiz-adv-x="1454" d="M207 -293v197h1040v-197h-1040z" />
<glyph unicode="`" horiz-adv-x="575" d="M317 1208l-309 338h297l223 -338h-211z" />
<glyph unicode="a" d="M123 47q-82 70 -82 183.5t51 188.5t139 109q164 68 365 68v133q0 80 -34 111.5t-113 31.5q-109 0 -263 -118l-100 161q186 127 414 127q166 0 254 -84t88 -247v-445q0 -102 49 -102q10 0 102 24l43 -149q-180 -55 -239.5 -55t-102.5 37.5t-57 99.5q-102 -143 -307 -144 q-125 0 -207 70zM297 264q0 -45 36 -71.5t83 -26.5q80 0 130 66.5t50 148.5v47q-299 0 -299 -164z" />
<glyph unicode="b" horiz-adv-x="1114" d="M98 1513l-14 60h274v-496q0 -49 -2 -93t-2 -48q125 104 289 104q195 0 305.5 -161.5t110.5 -375.5t-130 -371t-351 -157q-188 0 -304 142l-43 -119h-127q8 63 9 135v1327q-3 6 -15 53zM358 754v-334q0 -117 51.5 -197t161.5 -80q61 0 107.5 36t69.5 93q43 109 43 208.5 t-20.5 174t-76 136t-135.5 61.5q-113 0 -201 -98z" />
<glyph unicode="c" horiz-adv-x="925" d="M55 510q0 240 144.5 387t382.5 147q76 0 161.5 -26.5t147.5 -71.5l-123 -155q-106 80 -217 79.5t-168 -113t-57 -224t23.5 -190.5t85 -137.5t157.5 -58.5t211 101l104 -176q-98 -51 -175 -74t-179 -23q-238 0 -368 147.5t-130 387.5z" />
<glyph unicode="d" horiz-adv-x="1118" d="M758 977l-2 59v426l-31 111h276v-1282q0 -190 52 -285l-248 -24q-18 47 -31 122q-45 -59 -124 -94t-158 -35q-205 0 -321 157t-116 380t124 376.5t351 153.5q150 1 228 -65zM342 668.5q-18 -74.5 -18 -183t57 -218t180 -109.5q55 0 109.5 29.5t85.5 76.5v334 q0 117 -47 193.5t-143.5 76.5t-151 -62.5t-72.5 -137z" />
<glyph unicode="e" horiz-adv-x="1005" d="M192.5 119.5q-137.5 142.5 -137.5 376t129 392.5t339 159t321.5 -120t111.5 -325q0 -123 -104 -123h-537q0 -131 70 -234.5t202 -103.5t240 109l105 -164q-66 -53 -168 -81t-197 -28q-237 0 -374.5 142.5zM322 641h344q35 0 34 45q0 84 -42 138.5t-123.5 54.5t-145 -76 t-67.5 -162z" />
<glyph unicode="f" horiz-adv-x="675" d="M184 854h-168v145q156 0 172 91l19 92q33 168 88 239q27 35 67 74q106 94 281 94q123 0 203 -47l-66 -166q-63 45 -132 45q-144 0 -185 -131q-33 -102 -33 -243v-29h250l-47 -164h-203v-856h-246v856z" />
<glyph unicode="g" horiz-adv-x="995" d="M16 -209q0 82 51.5 151.5t129.5 104.5v8q-37 10 -66 51t-29 89q0 16 21 38q94 92 135 162q-182 100 -182 301q0 154 114.5 253.5t272.5 99.5q45 0 114.5 -15.5t136 -15.5t333.5 22l-46 -170h-174q-23 0 -47 11q66 -84 66 -183q0 -156 -116 -255t-277 -99q-39 0 -68 -25.5 t-29 -66.5q0 -66 168 -66h94q207 0 287 -55t80 -186t-88 -232q-164 -184 -471 -184q-141 0 -264 49q-146 55 -146 213zM295 -71q-29 -48 -29 -105t59.5 -88t154.5 -31t183.5 43t88.5 150q0 102 -199 102h-186q-43 -23 -72 -71zM332 690q0 -88 34.5 -145.5t94 -57.5 t95.5 57.5t36 145.5t-36 146.5t-95.5 58.5t-94 -58.5t-34.5 -146.5z" />
<glyph unicode="h" horiz-adv-x="1056" d="M111 1464l-25 111h268v-653q152 125 306.5 125t223 -92.5t68.5 -266.5v-688h-247v664q0 57 -6.5 92t-36 65.5t-81 30.5t-122 -38t-105.5 -75v-739h-243v1464z" />
<glyph unicode="i" horiz-adv-x="468" d="M80 1388.5q0 65.5 46 110.5t111.5 45t110.5 -45t45 -110.5t-45 -111.5t-110.5 -46t-111.5 46t-46 111.5zM113 907l-23 111h268v-1018h-245v907z" />
<glyph unicode="j" horiz-adv-x="471" d="M113 909l-25 109h270v-883q0 -223 -59 -379q-70 -186 -297 -215l-45 113q111 57 137 190q18 98 19 238v827zM78 1388.5q0 65.5 46 110.5t111.5 45t110.5 -45t45 -110.5t-45 -111.5t-110.5 -46t-111.5 46t-46 111.5z" />
<glyph unicode="k" horiz-adv-x="960" d="M111 1464l-27 111h278v-977l316 420h240l-330 -430l389 -588h-277l-338 522v-522h-251v1464z" />
<glyph unicode="l" horiz-adv-x="471" d="M111 1464l-23 111h272v-1575h-249v1464z" />
<glyph unicode="m" horiz-adv-x="1638" d="M55 1010l258 30q25 -53 35 -131q80 68 150.5 101.5t163.5 33.5q188 0 253 -149q150 150 320 149.5t234.5 -92.5t64.5 -258v-694h-246v680q0 84 -28.5 128t-114.5 44t-197 -111v-741h-248v686q0 166 -129 166q-49 0 -108.5 -35t-97.5 -78v-739h-246v729q-1 205 -64 281z " />
<glyph unicode="n" horiz-adv-x="1067" d="M55 1010l258 30q25 -53 35 -131q152 137 314.5 137.5t231.5 -92t69 -266.5v-688h-248v664q0 57 -6.5 92t-36 65.5t-80.5 30.5t-122 -38t-105 -75v-739h-246v729q-1 205 -64 281z" />
<glyph unicode="o" horiz-adv-x="1101" d="M55 510q0 227 136.5 380.5t360.5 153.5t359.5 -153.5t135.5 -380.5t-135.5 -381t-360.5 -154t-360.5 154t-135.5 381zM326 507.5q0 -61.5 9 -118.5t32.5 -116.5t70.5 -96.5t113.5 -37t114 36t70 95.5t31.5 116.5t9 120.5t-9 121t-31.5 117t-70 95.5t-114 36t-113.5 -37 t-70.5 -96.5t-32.5 -117t-9 -119z" />
<glyph unicode="p" horiz-adv-x="1122" d="M365 -2l2 -72v-258l12 -53q8 -33 16 -59h-276v1175q0 188 -60 279l256 30q20 -55 31 -122q43 59 124 94t159 35q207 0 322.5 -156t115.5 -380t-125 -377.5t-352 -153.5q-147 0 -228 65q1 -33 3 -47zM367 758v-334q0 -117 47 -193.5t143 -76.5t152 63q90 104 90 293 q0 135 -57.5 244.5t-180.5 109.5q-55 0 -109 -29.5t-85 -76.5z" />
<glyph unicode="q" horiz-adv-x="1114" d="M1001 -332l27 -112h-274v372q0 51 2 94.5t2 61.5q-125 -106 -303.5 -106.5t-289 161.5t-110.5 376t129 370.5t351 156.5q188 0 303 -139l43 115h127q-6 -68 -7 -131v-1219zM339 669q-17 -79 -17 -163t20 -158t75.5 -133t135.5 -59q115 0 201 100v344q0 117 -51.5 197 t-146.5 80t-147.5 -64.5t-69.5 -143.5z" />
<glyph unicode="r" horiz-adv-x="706" d="M53 1018l260 20q45 -94 49 -215q51 90 145.5 152.5t192.5 62.5l-41 -243h-8q-90 0 -156.5 -50.5t-129.5 -138.5v-606h-246v743q0 187 -66 275z" />
<glyph unicode="s" horiz-adv-x="827" d="M39 59l88 168q143 -82 220 -82t121 34t44 93.5t-46 96.5t-112.5 59.5t-132 52t-112 91t-46.5 153.5q0 152 118 235.5t283 83.5t294 -63l-86 -172q-90 70 -203 70q-57 0 -98 -27t-41 -80t46 -87t111.5 -56.5t132 -53t112.5 -96t46 -162.5q0 -158 -118.5 -252t-292.5 -94 t-328 88z" />
<glyph unicode="t" horiz-adv-x="706" d="M186 856h-168v135q207 8 281 324h178q-41 -174 -41 -297h248l-49 -162h-199v-563q0 -137 86 -137q47 0 133 20l29 -153q-137 -43 -256 -43q-242 0 -242 258v618z" />
<glyph unicode="u" horiz-adv-x="1128" d="M1147 39q-166 -55 -233.5 -55t-110.5 37.5t-55 99.5q-145 -150 -324.5 -150t-248.5 93.5t-69 265.5v577l-22 111h272v-645q0 -150 62 -189q29 -16 71 -16q90 0 154 55.5t64 143.5v540l-25 111h274v-748q0 -106 52 -106q4 0 96 24z" />
<glyph unicode="v" horiz-adv-x="944" d="M360 -8l-358 1026h264l187 -537q4 -10 43 -172q27 145 34 172l191 537h221l-360 -1026h-222z" />
<glyph unicode="w" horiz-adv-x="1421" d="M317 -8l-303 1026h258l138 -461q14 -43 32 -203q25 172 35 203l148 461h227l137 -461q18 -55 33 -201q18 156 33 201l145 461h211l-324 -1026h-190q-16 53 -86 271.5t-102 410.5q-31 -182 -107 -409.5t-90 -272.5h-195z" />
<glyph unicode="x" horiz-adv-x="950" d="M231 0h-241l356 535l-311 483h276l176 -273l179 273h243l-305 -457l357 -561h-275l-223 348z" />
<glyph unicode="y" horiz-adv-x="952" d="M373 2l-369 1016h264q102 -276 199 -565q12 -41 29 -154q23 131 39 184.5t49 147.5q40 116 137 387h225l-362 -1024q-152 -446 -445 -447h-76v174q25 -6 67 -6t85 26q90 55 158 261z" />
<glyph unicode="z" horiz-adv-x="911" d="M846 0h-813v125l479 723h-428v170h762v-127l-486 -721h514z" />
<glyph unicode="{" horiz-adv-x="649" d="M49 545v125q131 0 131 182v313q0 160 73 254t228 94h121v-127q-106 0 -143 -33.5t-37 -138.5v-340q0 -211 -113 -268q111 -57 111 -266v-340q0 -113 33.5 -142.5t148.5 -29.5v-129h-94q-326 0 -326 350v326q0 68 -33.5 119t-99.5 51z" />
<glyph unicode="|" horiz-adv-x="466" d="M334 -238h-201v1764h201v-1764z" />
<glyph unicode="}" horiz-adv-x="649" d="M47 -301v127q119 0 149.5 29.5t30.5 144.5v340q0 209 113 266q-111 57 -111 268v340q0 102 -37.5 136t-144.5 34v129h121q156 0 227.5 -94t71.5 -254v-313q0 -74 32.5 -127t100.5 -53v-125q-66 0 -98.5 -51.5t-32.5 -120.5v-326q0 -350 -328 -350h-94z" />
<glyph unicode="~" horiz-adv-x="1177" d="M197 387l-134 113q39 90 123 157.5t180.5 67.5t244 -71.5t194.5 -71.5q94 0 182 149l129 -119q-55 -84 -141 -149.5t-170 -65.5t-226.5 72t-222 72t-159.5 -154z" />
<glyph unicode="&#xa1;" horiz-adv-x="512" d="M102 1103.5q0 63.5 45.5 107.5t107.5 44t107.5 -45t45.5 -107.5t-45.5 -106.5t-107.5 -44t-107.5 44t-45.5 107.5zM104 -182l60 964h182l62 -970q0 -66 -78 -66h-146q-80 0 -80 72z" />
<glyph unicode="&#xa2;" horiz-adv-x="989" d="M163 170q-91 141 -91 352t125 355.5t344 164.5l18 232h152l-58 -234q135 -12 254 -94l-123 -155q-106 80 -216.5 79.5t-168 -113t-57.5 -224t23.5 -190.5t85 -137.5t158 -58.5t210.5 101l105 -176q-109 -57 -192 -77t-189 -20l-23 -237h-147l65 252q-184 39 -275 180z " />
<glyph unicode="&#xa3;" horiz-adv-x="1206" d="M1135 0h-1067v205h190v495h-158v203h158v199q0 199 125 310.5t328 111.5q254 0 401 -236l-201 -110q-76 150 -202 149q-84 0 -129 -54t-45 -143v-227h266v-203h-266v-495h600v-205z" />
<glyph unicode="&#xa4;" horiz-adv-x="1144" d="M244 213l-142 141l115 113q-51 96 -51 213t51 213l-115 117l142 141l106 -109q96 70 221 70t222 -70l108 109l141 -141l-116 -117q53 -102 53 -212t-53 -212l116 -115l-141 -141l-106 104q-96 -70 -223.5 -69.5t-223.5 69.5zM418.5 866.5q-58.5 -73.5 -58.5 -191.5 t66 -186.5t149.5 -68.5t146 66.5t62.5 186.5t-57 193.5t-153.5 73.5t-155 -73.5z" />
<glyph unicode="&#xa5;" horiz-adv-x="1087" d="M299 655l-219 363h299l192 -338l187 338h252l-209 -363h205v-100h-265l-65 -113v-10h330v-100h-330v-332h-248v332h-346v100h346v10l-70 113h-276v100h217z" />
<glyph unicode="&#xa6;" horiz-adv-x="471" d="M336 -238h-201v723h201v-723zM336 803h-201v723h201v-723z" />
<glyph unicode="&#xa7;" horiz-adv-x="1048" d="M70 731q0 168 161 275q-57 78 -57 184q0 170 127 250t324 80q98 0 194 -31t142 -66l-119 -178q-98 78 -230 78q-80 0 -132 -29.5t-52 -85t57.5 -95.5t138.5 -72.5t161.5 -73.5t138 -122t57.5 -196q0 -172 -164 -274q59 -72 60 -185q0 -170 -127 -249.5t-324 -79.5 q-100 0 -198.5 30.5t-137.5 65.5l119 178q98 -78 229 -78q80 0 132.5 30t52.5 85t-57.5 95t-138.5 72t-162 74t-138 122.5t-57 195.5zM540 545q87 -37 117 -51q72 43 72 125.5t-66.5 130t-152.5 84t-119 53.5q-70 -45 -69.5 -128t66 -130t152.5 -84z" />
<glyph unicode="&#xa8;" horiz-adv-x="565" d="M4 1276q0 49 34 83t83 34t83 -34t34 -83t-34 -83t-83 -34t-83 34t-34 83zM332 1276q0 47 34.5 82t83 35t83 -34t34.5 -83t-34.5 -83t-83 -34t-83 35t-34.5 82z" />
<glyph unicode="&#xa9;" horiz-adv-x="1261" d="M63 512q0 233 167 400t400.5 167t400.5 -167t167 -400t-167 -400t-400.5 -167t-400.5 167t-167 400zM145 512q0 -201 142.5 -343t343 -142t343 142t142.5 343t-142.5 343t-343 142t-343 -142t-142.5 -343zM397 259q-84 95 -84 252t94.5 254t247.5 97q113 0 209 -71 l-90 -115q-70 55 -136.5 55t-100 -69.5t-33.5 -152.5t37 -149.5t112.5 -66.5t143.5 67l77 -131q-127 -66 -237 -65q-156 0 -240 95z" />
<glyph unicode="&#xaa;" horiz-adv-x="811" d="M141.5 841q-55.5 50 -55.5 127q0 147 120 194.5t265 47.5v76q0 94 -109 94q-86 0 -180 -77l-67 106q127 84 272 84q242 0 242 -219v-291q0 -70 43 -70q27 0 59 17l29 -99q-80 -37 -146 -36q-92 0 -116 90q-94 -94 -197.5 -94t-159 50zM643 557h-489v119h489v-119z M254 991q0 -33 20.5 -54.5t67.5 -21.5t88 41t41 101v43q-217 0 -217 -109z" />
<glyph unicode="&#xab;" horiz-adv-x="960" d="M387 332l-319 348l311 352l158 -28l-244 -324l250 -326zM731 332l-319 348l311 352l160 -28l-246 -324l252 -326z" />
<glyph unicode="&#xac;" horiz-adv-x="1243" d="M954 547h-843v170h1019v-555h-176v385z" />
<glyph unicode="&#xad;" horiz-adv-x="690" d="M571 430h-452v195h452v-195z" />
<glyph unicode="&#xae;" horiz-adv-x="1009" d="M74 1249q0 178 126 305t304 127t305 -127t127 -305t-127 -305t-305 -127t-304 127t-126 305zM145 1249.5q0 -149.5 105.5 -254t253 -104.5t254 105.5t106.5 253t-106.5 253t-254 105.5t-253 -104.5t-105.5 -254zM453 1018h-123v481h190q170 0 170 -141q0 -78 -88 -121 l152 -219h-146l-135 196h-20v-196zM453 1403v-92h39q76 0 75 51q0 41 -61 41h-53z" />
<glyph unicode="&#xaf;" horiz-adv-x="561" d="M582 1190h-605v151h605v-151z" />
<glyph unicode="&#xb0;" horiz-adv-x="722" d="M63 1214.5q0 122.5 87.5 209.5t210 87t210.5 -87t88 -209.5t-87 -209.5t-210.5 -87t-211 87t-87.5 209.5zM201 1214.5q0 -67.5 46 -116.5t113.5 -49t114.5 49t47 116.5t-47 116.5t-114.5 49t-113.5 -49t-46 -116.5z" />
<glyph unicode="&#xb1;" horiz-adv-x="1212" d="M1116 2h-1020v178h1020v-178zM516 545h-420v174h420v299h180v-297h420v-174h-420v-301h-180v299z" />
<glyph unicode="&#xb2;" horiz-adv-x="890" d="M774 897h-715v104q141 115 246 224q248 256 248 401q0 59 -36 93t-106.5 34t-141 -46t-99.5 -73l-90 135q35 31 106 72q129 74 286 74t240 -77t83 -191q0 -197 -205 -390q-90 -90 -203 -165h442z" />
<glyph unicode="&#xb3;" horiz-adv-x="843" d="M344 1376l-51 -2q-6 -2 -21 -2l-22 119q74 14 123 30.5t98 58.5t49 89q0 84 -100 84q-68 0 -141.5 -29.5t-124.5 -72.5l-88 125q76 59 183 99t215.5 40t193.5 -44t85 -149q0 -145 -174 -211q219 -37 219 -237q0 -104 -75 -193q-166 -195 -627 -211l-31 142 q242 12 371 76.5t129 166.5q0 121 -211 121z" />
<glyph unicode="&#xb4;" horiz-adv-x="575" d="M279 1208h-211l223 338h297z" />
<glyph unicode="&#xb6;" horiz-adv-x="985" d="M66 1065q0 201 125.5 303t330.5 102h393v-110h-114v-1340q0 -92 -67.5 -159.5t-160.5 -67.5q-6 0 -34 4q-66 -121 -201 -121q-92 0 -159.5 68t-67.5 160t67.5 159.5t159.5 67.5v-111q-47 0 -82 -34.5t-35 -81.5t35 -82t82 -35t81 35t34 82v776q-162 0 -274.5 110.5 t-112.5 274.5zM565 1360v-1456h8q47 0 82 34.5t35 81.5v1340h-125z" />
<glyph unicode="&#xb7;" horiz-adv-x="485" d="M133 418q-45 45 -45 109.5t45 109.5t109.5 45t109.5 -45t45 -109.5t-45 -109.5t-109.5 -45t-109.5 45z" />
<glyph unicode="&#xb8;" horiz-adv-x="573" d="M51 -389l58 102q82 -45 126 -45t67.5 19.5t23.5 48.5q0 59 -68 59h-96q-39 0 -39 35q0 10 6 20l98 168h121l-65 -116h8q94 0 159.5 -37t65.5 -123q0 -193 -276 -193q-85 1 -189 62z" />
<glyph unicode="&#xb9;" horiz-adv-x="864" d="M35 1751q197 61 366 141h174v-833h220v-162h-725v162h272v620l-256 -71z" />
<glyph unicode="&#xba;" horiz-adv-x="833" d="M80 1147q0 158 91 258t246.5 100t246 -100t90.5 -258t-91.5 -257t-247 -99t-245.5 99t-90 257zM659 557h-489v119h489v-119zM262 1147q0 -244 154.5 -244t154.5 244q0 96 -34.5 171t-120.5 75t-120 -75t-34 -171z" />
<glyph unicode="&#xbb;" horiz-adv-x="960" d="M229 332l-157 22l252 326l-246 324l160 28l311 -352zM573 332l-155 22l250 326l-244 324l158 28l311 -352z" />
<glyph unicode="&#xbc;" horiz-adv-x="2140" d="M82 1358q197 61 367 141h174v-833h219v-162h-725v162h272v620l-256 -72zM905 -55h-170l637 1597h172zM1700 207h-461v106l463 682h231v-626h148l-51 -162h-97v-207h-233v207zM1614 580l-139 -211h225v239q0 51 8 107l8 76q-34 -107 -102 -211z" />
<glyph unicode="&#xbd;" horiz-adv-x="2215" d="M70 1358q197 61 366 141h174v-833h219v-162h-725v162h273v620l-256 -72zM893 -55h-170l637 1597h172zM2093 0h-711v106l19 17q260 242 366.5 377t106.5 221q0 53 -37 85t-92 32q-109 0 -252 -107l-90 141q188 145 395 146q143 0 238.5 -67.5t95.5 -207t-115.5 -284 t-259.5 -242.5h393z" />
<glyph unicode="&#xbe;" horiz-adv-x="2043" d="M373 983l-51 -2q-6 -2 -21 -2l-22 119q74 14 123 30.5t98 58.5t49 89q0 84 -100 84q-68 0 -142 -30t-125 -73l-88 125q76 59 183.5 99.5t216 40.5t193.5 -44t85 -149q0 -145 -174 -211q219 -37 219 -237q0 -104 -76 -193q-166 -195 -626 -211l-31 141q242 12 371 77 t129 167q0 121 -211 121zM809 -55h-170l637 1597h172zM1604 207h-461v106l463 682h231v-626h148l-52 -162h-96v-207h-233v207zM1518 580l-140 -211h226v239q0 51 8 107l8 76q-34 -107 -102 -211z" />
<glyph unicode="&#xbf;" horiz-adv-x="907" d="M66 115q0 262 311 383q27 10 26 43v243h220v-419q-109 -8 -201 -71t-92 -155t63.5 -141t159.5 -49t203 71l94 -180q-139 -90 -327.5 -90t-322.5 95.5t-134 269.5zM354 1095.5q0 65.5 47.5 111.5t113 46t111.5 -46t46 -111.5t-46 -111.5t-111.5 -46t-113 46t-47.5 111.5z " />
<glyph unicode="&#xc0;" horiz-adv-x="1288" d="M240 0h-238l526 1393h228l530 -1393h-295l-145 389h-459zM569 1468l-309 338h299l223 -338h-213zM463 590h305q-61 182 -152 514q-61 -229 -153 -514z" />
<glyph unicode="&#xc1;" horiz-adv-x="1288" d="M240 0h-238l526 1393h228l530 -1393h-295l-145 389h-459zM463 590h305q-61 182 -152 514q-61 -229 -153 -514zM711 1468h-213l223 336h299z" />
<glyph unicode="&#xc2;" horiz-adv-x="1288" d="M240 0h-238l526 1393h228l530 -1393h-295l-145 389h-459zM496 1462h-156l197 295h200l203 -297h-160l-143 152zM463 590h305q-61 182 -152 514q-61 -229 -153 -514z" />
<glyph unicode="&#xc3;" horiz-adv-x="1288" d="M240 0h-238l526 1393h228l530 -1393h-295l-145 389h-459zM432 1481h-133q0 102 58.5 170.5t158.5 68.5q61 0 147.5 -41t119 -41t58 16.5t25.5 45.5h133q0 -102 -59 -171t-160 -69q-61 0 -146 41t-118 41t-58.5 -16t-25.5 -45zM463 590h305q-61 182 -152 514 q-61 -229 -153 -514z" />
<glyph unicode="&#xc4;" horiz-adv-x="1288" d="M240 0h-238l526 1393h228l530 -1393h-295l-145 389h-459zM398.5 1539q-33.5 34 -33.5 82t33.5 83t82.5 35t83 -35t34 -83t-34 -82t-83 -34t-82.5 34zM463 590h305q-61 182 -152 514q-61 -229 -153 -514zM727 1539q-35 34 -35 82t35 83t83 35t83 -34t35 -83t-35 -83 t-83 -34t-83 34z" />
<glyph unicode="&#xc5;" horiz-adv-x="1284" d="M238 0h-238l514 1360q-94 66 -94 167t63.5 162.5t154.5 61.5t155.5 -60.5t64.5 -162t-92 -166.5l518 -1362h-295l-145 389h-459zM461 590h305q-61 182 -152 514q-61 -229 -153 -514zM578.5 1597.5q-23.5 -24.5 -23.5 -58.5t23.5 -58.5t58.5 -24.5t59.5 24.5t24.5 58.5 t-24.5 58.5t-59.5 24.5t-58.5 -24.5z" />
<glyph unicode="&#xc6;" horiz-adv-x="1851" d="M221 0h-250l695 1372l-29 127h1155v-203h-629v-424h482v-202h-482v-467h629v-203h-911v430h-441zM881 1296l-336 -665h336v665z" />
<glyph unicode="&#xc7;" horiz-adv-x="1300" d="M220.5 231q-154.5 213 -154.5 538t194.5 542t523.5 217q127 0 266.5 -37t219.5 -109l-148 -188q-55 63 -146 99t-181 36q-152 0 -251.5 -86t-136 -207t-36.5 -244.5t25.5 -225t74.5 -192.5t135 -148.5t193 -57.5q190 0 350 154l129 -195q-127 -82 -238.5 -117t-261.5 -35 l-41 -73h8q90 0 158 -38t68 -122q0 -193 -277 -193q-84 0 -188 62l57 102q82 -45 126 -45t67.5 19.5t23.5 48.5q0 59 -67 59h-97q-39 0 -38 35q0 10 6 20l78 134q-287 34 -441.5 247z" />
<glyph unicode="&#xc8;" horiz-adv-x="1118" d="M135 1255l-29 125h941v-202h-629v-377h481v-203h-481v-395h629v-203h-912v1255zM535 1468l-310 336h297l223 -336h-210z" />
<glyph unicode="&#xc9;" horiz-adv-x="1118" d="M135 1255l-29 125h941v-202h-629v-377h481v-203h-481v-395h629v-203h-912v1255zM653 1468h-213l224 336h299z" />
<glyph unicode="&#xca;" horiz-adv-x="1118" d="M135 1255l-29 125h941v-202h-629v-377h481v-203h-481v-395h629v-203h-912v1255zM457 1468h-156l197 297h200l203 -297h-160l-143 152z" />
<glyph unicode="&#xcb;" horiz-adv-x="1118" d="M135 1255l-29 125h941v-202h-629v-377h481v-203h-481v-395h629v-203h-912v1255zM359.5 1539q-33.5 34 -33.5 82t33.5 83t83 35t83 -35t33.5 -83t-33.5 -82t-83 -34t-83 34zM687 1539q-34 34 -34 82t34 83t83 35t84 -34t35 -83t-35 -83t-84 -34t-83 34z" />
<glyph unicode="&#xcc;" horiz-adv-x="552" d="M205 1468l-309 336h297l223 -336h-211zM135 1255l-29 125h312v-1380h-283v1255z" />
<glyph unicode="&#xcd;" horiz-adv-x="550" d="M303 1466h-211l223 338h297zM133 1255l-29 125h312v-1380h-283v1255z" />
<glyph unicode="&#xce;" horiz-adv-x="569" d="M129 1462h-156l197 295h201l202 -297h-159l-144 152zM133 1255l-29 125h312v-1380h-283v1255z" />
<glyph unicode="&#xcf;" horiz-adv-x="552" d="M25.5 1539q-33.5 34 -33.5 82t33.5 83t83 35t83 -35t33.5 -83t-33.5 -82t-83 -34t-83 34zM135 1255l-29 125h312v-1380h-283v1255zM354 1539q-35 34 -35 82t35 83t83 35t83 -34t35 -83t-35 -83t-83 -34t-83 34z" />
<glyph unicode="&#xd0;" horiz-adv-x="1492" d="M170 664h-170v180h170v532q-4 6 -17.5 62.5t-15.5 60.5h568q340 0 530 -204.5t190 -548t-202.5 -545t-520.5 -201.5h-532v664zM453 664v-461h237q113 0 199 44t135 122q98 152 98 370q0 322 -184 473q-100 84 -252 84h-233v-452h307v-180h-307z" />
<glyph unicode="&#xd1;" horiz-adv-x="1466" d="M135 1255l-29 125h302l624 -827q2 -2 84 -135q-12 102 -12 157v805h227v-1390h-205l-690 909q-18 23 -47 72t-39 65q12 -94 12 -137v-899h-227v1255zM541 1481h-133q0 102 58 170.5t159 68.5q61 0 146 -41t118 -41t58.5 16.5t25.5 45.5h133q0 -102 -58.5 -171t-158.5 -69 q-61 0 -146.5 41t-118 41t-58 -16t-25.5 -45z" />
<glyph unicode="&#xd2;" horiz-adv-x="1562" d="M66 688.5q0 321.5 195.5 517t519 195.5t520 -195.5t196.5 -517t-196.5 -517.5t-519 -196t-519 196t-196.5 517.5zM670 1468l-310 336h297l224 -336h-211zM459 332q49 -74 131 -117t188 -43q209 0 313.5 149.5t104.5 368.5t-103.5 367.5t-311.5 148.5t-312 -149.5 t-104 -362t94 -362.5z" />
<glyph unicode="&#xd3;" horiz-adv-x="1562" d="M66 688.5q0 321.5 195.5 517t519 195.5t520 -195.5t196.5 -517t-196.5 -517.5t-519 -196t-519 196t-196.5 517.5zM459 332q49 -74 131 -117t188 -43q209 0 313.5 149.5t104.5 368.5t-103.5 367.5t-311.5 148.5t-312 -149.5t-104 -362t94 -362.5zM885 1464h-211l223 336 h297z" />
<glyph unicode="&#xd4;" horiz-adv-x="1562" d="M66 688.5q0 321.5 195.5 517t519 195.5t520 -195.5t196.5 -517t-196.5 -517.5t-519 -196t-519 196t-196.5 517.5zM459 332q49 -74 131 -117t188 -43q209 0 313.5 149.5t104.5 368.5t-103.5 367.5t-311.5 148.5t-312 -149.5t-104 -362t94 -362.5zM633 1468h-156l197 297 h200l203 -297h-159l-144 152z" />
<glyph unicode="&#xd5;" horiz-adv-x="1562" d="M66 688.5q0 321.5 195.5 517t519 195.5t520 -195.5t196.5 -517t-196.5 -517.5t-519 -196t-519 196t-196.5 517.5zM459 332q49 -74 131 -117t188 -43q209 0 313.5 149.5t104.5 368.5t-103.5 367.5t-311.5 148.5t-312 -149.5t-104 -362t94 -362.5zM580 1481h-134 q0 102 59.5 170.5t160.5 68.5q61 0 146 -41t118 -41t58.5 16.5t25.5 45.5h133q0 -102 -58.5 -171t-158.5 -69q-61 0 -147.5 41t-119 41t-58 -15t-25.5 -46z" />
<glyph unicode="&#xd6;" horiz-adv-x="1562" d="M66 688.5q0 321.5 195.5 517t519 195.5t520 -195.5t196.5 -517t-196.5 -517.5t-519 -196t-519 196t-196.5 517.5zM459 332q49 -74 131 -117t188 -43q209 0 313.5 149.5t104.5 368.5t-103.5 367.5t-311.5 148.5t-312 -149.5t-104 -362t94 -362.5zM526.5 1539 q-34.5 34 -34.5 82t34.5 83t82.5 35t82 -35t34 -83t-34 -82t-82 -34t-82.5 34zM854 1539q-35 34 -35 82t35 83t83 35t83 -34t35 -83t-35 -83t-83 -34t-83 34z" />
<glyph unicode="&#xd7;" horiz-adv-x="999" d="M203 86l-127 127l297 295l-297 297l127 127l297 -295l297 295l127 -127l-297 -297l297 -295l-127 -127l-297 295z" />
<glyph unicode="&#xd8;" horiz-adv-x="1560" d="M66 752q0 340 187 555t521 215q205 0 367 -84l100 153l109 -67l-105 -158q250 -211 250 -618q0 -338 -195.5 -554.5t-527.5 -216.5q-207 0 -371 95l-120 -187l-109 64l129 198q-235 206 -235 605zM449 375l565 870q-96 82 -222 82q-240 0 -339 -184q-86 -164 -86 -392.5 t82 -375.5zM1100 1143l-572 -875q104 -96 234 -96q245 0 344 184q86 160 86 395.5t-92 391.5z" />
<glyph unicode="&#xd9;" horiz-adv-x="1421" d="M121 1257l-33 123h322v-878q0 -152 90 -241t241.5 -89t239.5 88t88 242v878h231v-829q0 -295 -159.5 -434.5t-438 -139.5t-430 153t-151.5 439v688zM653 1466l-309 338h297l223 -338h-211z" />
<glyph unicode="&#xda;" horiz-adv-x="1421" d="M121 1257l-33 123h322v-878q0 -152 90 -241t241.5 -89t239.5 88t88 242v878h231v-829q0 -295 -159.5 -434.5t-438 -139.5t-430 153t-151.5 439v688zM852 1466h-213l223 338h299z" />
<glyph unicode="&#xdb;" horiz-adv-x="1421" d="M121 1257l-33 123h322v-878q0 -152 90 -241t241.5 -89t239.5 88t88 242v878h231v-829q0 -295 -159.5 -434.5t-438 -139.5t-430 153t-151.5 439v688zM596 1470h-156l197 297h201l202 -297h-159l-144 152z" />
<glyph unicode="&#xdc;" horiz-adv-x="1421" d="M121 1257l-33 123h322v-878q0 -152 90 -241t241.5 -89t239.5 88t88 242v878h231v-829q0 -295 -159.5 -434.5t-438 -139.5t-430 153t-151.5 439v688zM492.5 1539q-33.5 34 -33.5 82t33.5 83t83 35t83 -35t33.5 -83t-33.5 -82t-83 -34t-83 34zM821 1539q-35 34 -35 82 t35 83t83 35t83 -34t35 -83t-35 -83t-83 -34t-83 34z" />
<glyph unicode="&#xdd;" horiz-adv-x="1153" d="M438 561l-438 819h303l299 -559l307 559h246l-444 -819v-561h-273v561zM719 1466h-211l223 338h297z" />
<glyph unicode="&#xde;" horiz-adv-x="1157" d="M133 1374l-27 125h312v-235h160q246 0 395 -105.5t149 -335t-156.5 -343t-383.5 -113.5h-168v-367h-281v1374zM416 1061v-496h172q113 0 174 68.5t61 182.5t-59 179.5t-174 65.5h-174z" />
<glyph unicode="&#xdf;" horiz-adv-x="1245" d="M178 852h-153v176q152 0 168 76q94 422 458 422q178 0 299 -88t121 -260q0 -92 -44 -154.5t-95 -86.5t-95 -50.5t-44 -51t29.5 -43t74.5 -34t97.5 -45t97.5 -67.5t74.5 -105.5t29.5 -153.5q0 -186 -127 -298t-317 -112q-133 0 -267 62l80 158q96 -35 166 -35t130.5 56 t60.5 131t-22.5 122t-86.5 82q-16 8 -82.5 39t-106.5 51.5t-77 60t-37 90t29.5 92.5t71.5 67.5t85 54.5q100 66 101 180q0 55 -44 97t-100 42q-223 0 -223 -375v-952h-252v852z" />
<glyph unicode="&#xe0;" d="M123 47q-82 70 -82 183.5t51 188.5t139 109q164 68 365 68v133q0 80 -34 111.5t-113 31.5q-109 0 -263 -118l-100 161q186 127 414 127q166 0 254 -84t88 -247v-445q0 -102 49 -102q10 0 102 24l43 -149q-180 -55 -239.5 -55t-102.5 37.5t-57 99.5q-102 -143 -307 -144 q-125 0 -207 70zM403 1208l-309 338h297l223 -338h-211zM297 264q0 -45 36 -71.5t83 -26.5q80 0 130 66.5t50 148.5v47q-299 0 -299 -164z" />
<glyph unicode="&#xe1;" d="M123 47q-82 70 -82 183.5t51 188.5t139 109q164 68 365 68v133q0 80 -34 111.5t-113 31.5q-109 0 -263 -118l-100 161q186 127 414 127q166 0 254 -84t88 -247v-445q0 -102 49 -102q10 0 102 24l43 -149q-180 -55 -239.5 -55t-102.5 37.5t-57 99.5q-102 -143 -307 -144 q-125 0 -207 70zM297 264q0 -45 36 -71.5t83 -26.5q80 0 130 66.5t50 148.5v47q-299 0 -299 -164zM604 1208h-211l223 338h297z" />
<glyph unicode="&#xe2;" d="M123 47q-82 70 -82 183.5t51 188.5t139 109q164 68 365 68v133q0 80 -34 111.5t-113 31.5q-109 0 -263 -118l-100 161q186 127 414 127q166 0 254 -84t88 -247v-445q0 -102 49 -102q10 0 102 24l43 -149q-180 -55 -239.5 -55t-102.5 37.5t-57 99.5q-102 -143 -307 -144 q-125 0 -207 70zM354 1204h-155l196 297h201l203 -297h-160l-143 152zM297 264q0 -45 36 -71.5t83 -26.5q80 0 130 66.5t50 148.5v47q-299 0 -299 -164z" />
<glyph unicode="&#xe3;" d="M123 47q-82 70 -82 183.5t51 188.5t139 109q164 68 365 68v133q0 80 -34 111.5t-113 31.5q-109 0 -263 -118l-100 161q186 127 414 127q166 0 254 -84t88 -247v-445q0 -102 49 -102q10 0 102 24l43 -149q-180 -55 -239.5 -55t-102.5 37.5t-57 99.5q-102 -143 -307 -144 q-125 0 -207 70zM283 1178h-133q0 102 58 170.5t159 68.5q61 0 146 -41t118 -41t58.5 16.5t27.5 45.5h131q0 -102 -58.5 -171t-158.5 -69q-61 0 -146.5 41t-118 41t-58 -16t-25.5 -45zM297 264q0 -45 36 -71.5t83 -26.5q80 0 130 66.5t50 148.5v47q-299 0 -299 -164z" />
<glyph unicode="&#xe4;" d="M123 47q-82 70 -82 183.5t51 188.5t139 109q164 68 365 68v133q0 80 -34 111.5t-113 31.5q-109 0 -263 -118l-100 161q186 127 414 127q166 0 254 -84t88 -247v-445q0 -102 49 -102q10 0 102 24l43 -149q-180 -55 -239.5 -55t-102.5 37.5t-57 99.5q-102 -143 -307 -144 q-125 0 -207 70zM207 1290q0 49 33.5 83t83 34t83 -34t33.5 -83t-33.5 -82.5t-83 -33.5t-83 33.5t-33.5 82.5zM297 264q0 -45 36 -71.5t83 -26.5q80 0 130 66.5t50 148.5v47q-299 0 -299 -164zM535 1290q0 47 34.5 82t82.5 35t83 -34t35 -83t-35 -82.5t-83 -33.5t-82.5 34.5 t-34.5 81.5z" />
<glyph unicode="&#xe5;" d="M123 47q-82 70 -82 183.5t51 188.5t139 109q164 68 365 68v133q0 80 -34 111.5t-113 31.5q-109 0 -263 -118l-100 161q186 127 414 127q166 0 254 -84t88 -247v-445q0 -102 49 -102q10 0 102 24l43 -149q-180 -55 -239.5 -55t-102.5 37.5t-57 99.5q-102 -143 -307 -144 q-125 0 -207 70zM272 1347.5q0 90.5 64.5 155t155 64.5t156 -64.5t65.5 -155t-65.5 -155t-156 -64.5t-155 64.5t-64.5 155zM297 264q0 -45 36 -71.5t83 -26.5q80 0 130 66.5t50 148.5v47q-299 0 -299 -164zM408 1345.5q0 -34.5 23.5 -58t58 -23.5t59 23.5t24.5 58 t-24.5 59.5t-59 25t-58 -25t-23.5 -59.5z" />
<glyph unicode="&#xe6;" horiz-adv-x="1538" d="M125 55q-84 78 -84 191.5t51 189.5t137 113q158 70 367 69v111q0 80 -34 111.5t-113 31.5q-109 0 -263 -118l-100 161q186 127 396 127t290 -108q51 53 132 83t161 30q207 0 315.5 -128t108.5 -339q0 -123 -105 -123h-536q0 -125 71.5 -220.5t201.5 -95.5t239 109 l104 -164q-63 -53 -166.5 -81t-197.5 -28q-270 0 -400 173q-119 -172 -370 -173q-121 0 -205 78zM418 166q178 0 178 291q-98 0 -168 -27q-131 -45 -131 -154.5t121 -109.5zM854 618h344q33 0 33 46q0 213 -162 213q-92 0 -153.5 -82.5t-61.5 -176.5z" />
<glyph unicode="&#xe7;" horiz-adv-x="925" d="M153.5 162q-98.5 139 -98.5 363.5t144.5 371.5t382.5 147q76 0 161.5 -26.5t147.5 -71.5l-123 -155q-106 80 -217 79.5t-168 -113t-57 -224t23.5 -190.5t85 -137.5t157.5 -58.5t211 101l104 -176q-180 -96 -356 -97l-41 -73h8q90 0 157.5 -38t67.5 -122q0 -193 -276 -193 q-84 0 -188 62l57 102q82 -45 126 -45t67.5 19.5t23.5 48.5q0 59 -68 59h-96q-39 0 -39 35q0 10 6 20l80 136q-184 37 -282.5 176z" />
<glyph unicode="&#xe8;" horiz-adv-x="1005" d="M192.5 119.5q-137.5 142.5 -137.5 376t129 392.5t339 159t321.5 -120t111.5 -325q0 -123 -104 -123h-537q0 -131 70 -234.5t202 -103.5t240 109l105 -164q-66 -53 -168 -81t-197 -28q-237 0 -374.5 142.5zM444 1208l-309 338h299l223 -338h-213zM322 641h344q35 0 34 45 q0 84 -42 138.5t-123.5 54.5t-145 -76t-67.5 -162z" />
<glyph unicode="&#xe9;" horiz-adv-x="1005" d="M192.5 119.5q-137.5 142.5 -137.5 376t129 392.5t339 159t321.5 -120t111.5 -325q0 -123 -104 -123h-537q0 -131 70 -234.5t202 -103.5t240 109l105 -164q-66 -53 -168 -81t-197 -28q-237 0 -374.5 142.5zM322 641h344q35 0 34 45q0 84 -42 138.5t-123.5 54.5t-145 -76 t-67.5 -162zM662 1208h-211l223 338h297z" />
<glyph unicode="&#xea;" horiz-adv-x="1005" d="M192.5 119.5q-137.5 142.5 -137.5 376t129 392.5t339 159t321.5 -120t111.5 -325q0 -123 -104 -123h-537q0 -131 70 -234.5t202 -103.5t240 109l105 -164q-66 -53 -168 -81t-197 -28q-237 0 -374.5 142.5zM416 1206h-156l197 295h200l203 -297h-160l-143 152zM322 641 h344q35 0 34 45q0 84 -42 138.5t-123.5 54.5t-145 -76t-67.5 -162z" />
<glyph unicode="&#xeb;" horiz-adv-x="1005" d="M192.5 119.5q-137.5 142.5 -137.5 376t129 392.5t339 159t321.5 -120t111.5 -325q0 -123 -104 -123h-537q0 -131 70 -234.5t202 -103.5t240 109l105 -164q-66 -53 -168 -81t-197 -28q-237 0 -374.5 142.5zM264 1288q0 49 35 83t83 34t82 -34t34 -83t-34 -83t-82 -34 t-83 34t-35 83zM322 641h344q35 0 34 45q0 84 -42 138.5t-123.5 54.5t-145 -76t-67.5 -162zM592 1288q0 47 35 82t83 35t82.5 -34t34.5 -83t-34.5 -83t-82.5 -34t-83 35t-35 82z" />
<glyph unicode="&#xec;" horiz-adv-x="468" d="M147 1208l-309 338h297l223 -338h-211zM113 907l-23 111h268v-1018h-245v907z" />
<glyph unicode="&#xed;" horiz-adv-x="468" d="M113 907l-23 111h268v-1018h-245v907zM303 1208h-211l223 338h297z" />
<glyph unicode="&#xee;" horiz-adv-x="468" d="M90 1204h-156l197 297h201l203 -297h-160l-144 152zM113 907l-23 111h268v-1018h-245v907z" />
<glyph unicode="&#xef;" horiz-adv-x="468" d="M-45 1290q0 49 34 83t83 34t82.5 -34t33.5 -83t-33.5 -82.5t-82.5 -33.5t-83 33.5t-34 82.5zM113 907l-23 111h268v-1018h-245v907zM283 1290q0 47 34.5 82t83 35t83 -34t34.5 -83t-34.5 -82.5t-83 -33.5t-83 34.5t-34.5 81.5z" />
<glyph unicode="&#xf0;" horiz-adv-x="1105" d="M55 510q0 227 136.5 380.5t359.5 153.5q20 0 65 -4q-90 154 -147 228l-190 -105l-93 119l189 104l-107 111l181 107q53 -51 114 -113l205 113l82 -123l-186 -105q383 -461 383 -866q0 -227 -135.5 -380t-360.5 -153t-360.5 153t-135.5 380zM335 626.5q-9 -57.5 -9 -131 t15 -147.5t69.5 -137.5t131 -63.5t124 34t70 91.5t31.5 114.5t9 120.5t-9 121t-31.5 117t-70 95.5t-114 36t-113.5 -37t-70.5 -96.5t-32.5 -117z" />
<glyph unicode="&#xf1;" horiz-adv-x="1067" d="M55 1010l258 30q25 -53 35 -131q152 137 314.5 137.5t231.5 -92t69 -266.5v-688h-248v664q0 57 -6.5 92t-36 65.5t-80.5 30.5t-122 -38t-105 -75v-739h-246v729q-1 205 -64 281zM350 1190h-133q0 102 58.5 171t158.5 69q61 0 146.5 -41t117 -41t58 16t28.5 45h131 q0 -102 -58 -171t-159 -69q-61 0 -146 41t-118 41t-58.5 -16t-25.5 -45z" />
<glyph unicode="&#xf2;" horiz-adv-x="1101" d="M55 510q0 227 136.5 380.5t360.5 153.5t359.5 -153.5t135.5 -380.5t-135.5 -381t-360.5 -154t-360.5 154t-135.5 381zM457 1208l-310 338h297l224 -338h-211zM326 507.5q0 -61.5 9 -118.5t32.5 -116.5t70.5 -96.5t113.5 -37t114 36t70 95.5t31.5 116.5t9 120.5t-9 121 t-31.5 117t-70 95.5t-114 36t-113.5 -37t-70.5 -96.5t-32.5 -117t-9 -119z" />
<glyph unicode="&#xf3;" horiz-adv-x="1101" d="M55 510q0 227 136.5 380.5t360.5 153.5t359.5 -153.5t135.5 -380.5t-135.5 -381t-360.5 -154t-360.5 154t-135.5 381zM326 507.5q0 -61.5 9 -118.5t32.5 -116.5t70.5 -96.5t113.5 -37t114 36t70 95.5t31.5 116.5t9 120.5t-9 121t-31.5 117t-70 95.5t-114 36t-113.5 -37 t-70.5 -96.5t-32.5 -117t-9 -119zM664 1208h-211l223 338h297z" />
<glyph unicode="&#xf4;" horiz-adv-x="1101" d="M55 510q0 227 136.5 380.5t360.5 153.5t359.5 -153.5t135.5 -380.5t-135.5 -381t-360.5 -154t-360.5 154t-135.5 381zM403 1206h-155l196 295h201l203 -297h-160l-143 152zM326 507.5q0 -61.5 9 -118.5t32.5 -116.5t70.5 -96.5t113.5 -37t114 36t70 95.5t31.5 116.5 t9 120.5t-9 121t-31.5 117t-70 95.5t-114 36t-113.5 -37t-70.5 -96.5t-32.5 -117t-9 -119z" />
<glyph unicode="&#xf5;" horiz-adv-x="1101" d="M55 510q0 227 136.5 380.5t360.5 153.5t359.5 -153.5t135.5 -380.5t-135.5 -381t-360.5 -154t-360.5 154t-135.5 381zM352 1178h-133q0 102 58.5 170.5t158.5 68.5q61 0 146.5 -41t118 -41t58 16.5t27.5 45.5h132q0 -102 -58.5 -171t-159.5 -69q-61 0 -146 41t-118 41 t-58.5 -16t-25.5 -45zM326 507.5q0 -61.5 9 -118.5t32.5 -116.5t70.5 -96.5t113.5 -37t114 36t70 95.5t31.5 116.5t9 120.5t-9 121t-31.5 117t-70 95.5t-114 36t-113.5 -37t-70.5 -96.5t-32.5 -117t-9 -119z" />
<glyph unicode="&#xf6;" horiz-adv-x="1101" d="M55 510q0 227 136.5 380.5t360.5 153.5t359.5 -153.5t135.5 -380.5t-135.5 -381t-360.5 -154t-360.5 154t-135.5 381zM266 1288q0 49 34 83t83 34t83 -34t34 -83t-34 -83t-83 -34t-83 34t-34 83zM326 507.5q0 -61.5 9 -118.5t32.5 -116.5t70.5 -96.5t113.5 -37t114 36 t70 95.5t31.5 116.5t9 120.5t-9 121t-31.5 117t-70 95.5t-114 36t-113.5 -37t-70.5 -96.5t-32.5 -117t-9 -119zM594 1288q0 47 35 82t83 35t82.5 -34t34.5 -83t-34.5 -83t-82.5 -34t-83 35t-35 82z" />
<glyph unicode="&#xf7;" horiz-adv-x="1167" d="M1094 418h-1020v180h1020v-180zM426 135.5q0 65.5 46 111.5t112.5 46t112.5 -46t46 -112.5t-46 -113t-111.5 -46.5t-112.5 47.5t-47 113zM426 882.5q0 65.5 46 112.5t111.5 47t111.5 -47t46 -112.5t-46 -111.5t-111.5 -46t-111.5 46t-46 111.5z" />
<glyph unicode="&#xf8;" horiz-adv-x="1101" d="M223 96q-168 154 -168 397.5t137.5 397t360.5 153.5q123 0 227 -51l111 176l100 -53l-117 -186q174 -150 175 -420q0 -229 -135.5 -382t-360.5 -153q-133 0 -236 56l-133 -217l-92 69zM337 626.5q-9 -57.5 -9 -149.5t26 -170l326 522q-49 47 -121 47.5t-119 -36.5 t-70.5 -96.5t-32.5 -117zM748 723l-328 -528q55 -55 128 -55q140 -1 189 130q39 111 39.5 239t-28.5 214z" />
<glyph unicode="&#xf9;" horiz-adv-x="1128" d="M1147 39q-166 -55 -233.5 -55t-110.5 37.5t-55 99.5q-145 -150 -324.5 -150t-248.5 93.5t-69 265.5v577l-22 111h272v-645q0 -150 62 -189q29 -16 71 -16q90 0 154 55.5t64 143.5v540l-25 111h274v-748q0 -106 52 -106q4 0 96 24zM418 1208l-309 338h297l223 -338h-211z " />
<glyph unicode="&#xfa;" horiz-adv-x="1128" d="M1147 39q-166 -55 -233.5 -55t-110.5 37.5t-55 99.5q-145 -150 -324.5 -150t-248.5 93.5t-69 265.5v577l-22 111h272v-645q0 -150 62 -189q29 -16 71 -16q90 0 154 55.5t64 143.5v540l-25 111h274v-748q0 -106 52 -106q4 0 96 24zM627 1208h-211l223 338h297z" />
<glyph unicode="&#xfb;" horiz-adv-x="1128" d="M1147 39q-166 -55 -233.5 -55t-110.5 37.5t-55 99.5q-145 -150 -324.5 -150t-248.5 93.5t-69 265.5v577l-22 111h272v-645q0 -150 62 -189q29 -16 71 -16q90 0 154 55.5t64 143.5v540l-25 111h274v-748q0 -106 52 -106q4 0 96 24zM381 1206h-156l197 297h201l202 -297 h-159l-144 152z" />
<glyph unicode="&#xfc;" horiz-adv-x="1128" d="M1147 39q-166 -55 -233.5 -55t-110.5 37.5t-55 99.5q-145 -150 -324.5 -150t-248.5 93.5t-69 265.5v577l-22 111h272v-645q0 -150 62 -189q29 -16 71 -16q90 0 154 55.5t64 143.5v540l-25 111h274v-748q0 -106 52 -106q4 0 96 24zM256 1296.5q0 49.5 34 83t83 33.5 t82.5 -33.5t33.5 -83t-33.5 -83t-82.5 -33.5t-83 33.5t-34 83zM584 1296q0 47 34.5 82t83 35t83 -33.5t34.5 -83t-34.5 -83t-83 -33.5t-83 34.5t-34.5 81.5z" />
<glyph unicode="&#xfd;" horiz-adv-x="952" d="M373 2l-369 1016h264q102 -276 199 -565q12 -41 29 -154q23 131 39 184.5t49 147.5q40 116 137 387h225l-362 -1024q-152 -446 -445 -447h-76v174q25 -6 67 -6t85 26q90 55 158 261zM606 1208h-211l223 338h297z" />
<glyph unicode="&#xfe;" horiz-adv-x="1112" d="M111 1464l-23 109h268v-637q125 104 285 104q195 0 305.5 -161.5t110.5 -375.5t-130 -371t-352 -157q-127 0 -219 62v-481h-245v1908zM356 754v-334q0 -117 51.5 -197t161.5 -80q61 0 107.5 36t79 119t32.5 182.5t-20 174t-75.5 136t-135.5 61.5q-113 0 -201 -98z" />
<glyph unicode="&#xff;" horiz-adv-x="952" d="M373 2l-369 1016h264q102 -276 199 -565q12 -41 29 -154q23 131 39 184.5t49 147.5q40 116 137 387h225l-362 -1024q-152 -446 -445 -447h-76v174q25 -6 67 -6t85 26q90 55 158 261zM229 1300.5q0 49.5 34 83t83 33.5t83 -33.5t34 -83t-34 -83t-83 -33.5t-83 33.5t-34 83 zM557 1300.5q0 47.5 35 82t83 34.5t83 -33.5t35 -83t-35 -83t-83 -33.5t-83 34.5t-35 82z" />
<glyph unicode="&#x152;" horiz-adv-x="2185" d="M66 749.5q0 337.5 190 555t524 217.5q254 0 434 -129v106h912v-203h-631v-424h483v-202h-483v-467h631v-203h-912v111q-182 -133 -434 -134q-334 0 -524 217.5t-190 555zM388.5 950.5q-21.5 -96.5 -21.5 -203t20.5 -201.5t65.5 -180t129 -135.5t197.5 -50.5t197.5 50.5 t129 135.5t66.5 180t21.5 203.5t-20.5 204t-65.5 180.5t-129 135t-197.5 50t-197.5 -51t-129 -136t-66.5 -181.5z" />
<glyph unicode="&#x153;" horiz-adv-x="1726" d="M55 510q0 227 136.5 380.5t360.5 153.5t357 -151q127 154 336 154t320.5 -120t111.5 -325q0 -123 -104 -123h-537q0 -131 69 -231.5t202 -100.5t241 109l105 -170q-66 -53 -168.5 -81t-196.5 -28q-244 0 -381 150q-131 -150 -356 -150t-360.5 153t-135.5 380zM335 626.5 q-9 -57.5 -9 -131t15 -147.5t69.5 -137.5t131 -63.5t124 34t70 91.5t31.5 114.5t9 120.5t-9 121t-31.5 117t-70 95.5t-114 36t-113.5 -37t-70.5 -96.5t-32.5 -117zM1042 641h344q35 0 35 45q0 84 -42 138.5t-123.5 54.5t-145.5 -76t-68 -162z" />
<glyph unicode="&#x178;" horiz-adv-x="1153" d="M438 561l-438 819h303l299 -559l307 559h246l-444 -819v-561h-273v561zM359.5 1539q-33.5 34 -33.5 82t33.5 83t83 35t83 -35t33.5 -83t-33.5 -82t-83 -34t-83 34zM687 1539q-34 34 -34 82t34 83t83 35t84 -34t35 -83t-35 -83t-84 -34t-83 34z" />
<glyph unicode="&#x2c6;" horiz-adv-x="563" d="M139 1204h-155l196 297h201l203 -297h-160l-143 152z" />
<glyph unicode="&#x2dc;" horiz-adv-x="722" d="M150 1178h-134q0 102 58.5 170.5t158.5 68.5q61 0 146.5 -41t117 -41t58.5 16.5t29 45.5h131q0 -102 -58.5 -171t-158.5 -69q-61 0 -146.5 41t-118 41t-58 -16t-25.5 -45z" />
<glyph unicode="&#x2000;" horiz-adv-x="957" />
<glyph unicode="&#x2001;" horiz-adv-x="1915" />
<glyph unicode="&#x2002;" horiz-adv-x="957" />
<glyph unicode="&#x2003;" horiz-adv-x="1915" />
<glyph unicode="&#x2004;" horiz-adv-x="638" />
<glyph unicode="&#x2005;" horiz-adv-x="478" />
<glyph unicode="&#x2006;" horiz-adv-x="319" />
<glyph unicode="&#x2007;" horiz-adv-x="319" />
<glyph unicode="&#x2008;" horiz-adv-x="239" />
<glyph unicode="&#x2009;" horiz-adv-x="383" />
<glyph unicode="&#x200a;" horiz-adv-x="106" />
<glyph unicode="&#x2010;" horiz-adv-x="690" d="M571 430h-452v195h452v-195z" />
<glyph unicode="&#x2011;" horiz-adv-x="690" d="M571 430h-452v195h452v-195z" />
<glyph unicode="&#x2012;" horiz-adv-x="690" d="M571 430h-452v195h452v-195z" />
<glyph unicode="&#x2013;" horiz-adv-x="1212" d="M1094 432h-975v193h975v-193z" />
<glyph unicode="&#x2014;" horiz-adv-x="1929" d="M1810 432h-1691v193h1691v-193z" />
<glyph unicode="&#x2018;" horiz-adv-x="454" d="M68 1145q0 207 223 368q41 -41 80 -83q-94 -94 -95 -150q0 -20 15 -35l35 -33q49 -49 49 -111.5t-41 -104.5t-108.5 -42t-112.5 56.5t-45 134.5z" />
<glyph unicode="&#x2019;" horiz-adv-x="452" d="M133 1270q-49 49 -49 111.5t40 103.5t108.5 41t113.5 -56.5t45 -134.5q0 -201 -223 -368q-41 41 -80 84q94 94 94 149q0 23 -14 37z" />
<glyph unicode="&#x201a;" horiz-adv-x="473" d="M131 27q-49 49 -49 111.5t41 104.5t108.5 42t112.5 -56.5t45 -134.5q0 -207 -223 -368q-41 41 -80 84q94 94 94 149q0 16 -16 33z" />
<glyph unicode="&#x201c;" horiz-adv-x="868" d="M68 1145q0 207 223 368q41 -41 80 -83q-94 -94 -95 -150q0 -20 15 -35l35 -33q49 -49 49 -111.5t-41 -104.5t-108.5 -42t-112.5 56.5t-45 134.5zM481 1145q0 207 224 368q41 -41 79 -83q-94 -94 -94 -150q0 -20 15 -35l34 -33q49 -49 49 -111.5t-40.5 -104.5t-108.5 -42 t-113 56.5t-45 134.5z" />
<glyph unicode="&#x201d;" horiz-adv-x="866" d="M133 1270q-49 49 -49 110.5t41 103.5t108.5 42t112.5 -56.5t45 -134.5q0 -201 -223 -368q-41 41 -80 84q94 94 94 149q0 23 -14 37zM547 1270q-49 49 -49 110.5t41 103.5t108.5 42t112.5 -56.5t45 -134.5q0 -201 -223 -368q-41 41 -80 84q94 94 94 149q0 23 -14 37z" />
<glyph unicode="&#x201e;" horiz-adv-x="886" d="M131 27q-49 49 -49 111.5t41 104.5t108.5 42t112.5 -56.5t45 -134.5q0 -207 -223 -368q-41 41 -80 84q94 94 94 149q0 16 -16 33zM545 27q-49 49 -49 111.5t41 104.5t108.5 42t112.5 -56.5t45 -134.5q0 -207 -223 -368q-41 41 -80 84q94 94 94 149q0 16 -16 33z" />
<glyph unicode="&#x2022;" horiz-adv-x="864" d="M206 504q-93 92 -93 225t94 227.5t227 94.5t225.5 -92.5t92.5 -227.5t-92.5 -227t-226.5 -92t-227 92z" />
<glyph unicode="&#x2026;" horiz-adv-x="1490" d="M126 21.5q-46 46.5 -46 113t46 112.5t111.5 46t112.5 -47t47 -112.5t-46 -112t-112.5 -46.5t-112.5 46.5zM588 133.5q0 65.5 46 112.5t111.5 47t111.5 -47t46 -112.5t-46 -112t-111.5 -46.5t-111.5 46.5t-46 112zM1094 133.5q0 65.5 47 112.5t112.5 47t111.5 -46 t46 -112.5t-46 -113t-112.5 -46.5t-112.5 46.5t-46 112z" />
<glyph unicode="&#x202f;" horiz-adv-x="383" />
<glyph unicode="&#x2039;" horiz-adv-x="614" d="M387 332l-319 348l311 352l158 -28l-244 -324l250 -326z" />
<glyph unicode="&#x203a;" horiz-adv-x="612" d="M225 332l-153 22l250 326l-246 324l157 28l312 -352z" />
<glyph unicode="&#x205f;" horiz-adv-x="478" />
<glyph unicode="&#x20ac;" horiz-adv-x="1095" d="M233 373h-178l23 96h141q-2 10 -2 31v63q0 23 2 33h-113l19 96h111q45 174 176 276.5t331 102.5q141 0 261 -47l-43 -190q-90 66 -211 65q-207 0 -252 -207h432l-23 -96h-424v-92q0 -25 2 -35h396l-23 -96h-354q59 -221 250 -221q117 0 207 65l63 -176q-129 -63 -283 -64 q-211 0 -340 107t-168 289z" />
<glyph unicode="&#x2122;" horiz-adv-x="1183" d="M256 1405h-145v96h415v-96h-147v-387h-123v387zM657 1018h-106v483h151l107 -280l104 278h150v-481h-121v262l-104 -262h-74q-55 137 -107 274v-274z" />
<glyph unicode="&#xe000;" horiz-adv-x="1013" d="M0 1014h1014v-1014h-1014v1014z" />
<glyph unicode="&#xfb01;" horiz-adv-x="1150" d="M184 854h-168v141q123 0 160 74q23 45 43 152q45 178 147.5 272t286.5 94q281 0 394 -297l-232 -61q-12 86 -61 139t-110 53q-128 0 -169 -116q-39 -106 -43 -287h608v-1018h-245v854h-363v-854h-248v854z" />
<glyph unicode="&#xfb02;" horiz-adv-x="1153" d="M184 854h-168v141q96 0 135 52.5t68 173.5q41 178 134 271t288 93q96 0 203 -59l198 69v-1595h-249v1262q0 63 -41 111t-115 48q-207 0 -207 -391v-12h250l-47 -164h-203v-854h-246v854z" />
</font>
</defs>
</svg>
