<?xml version="1.0" standalone="no"?>
<!DOCTYPE svg PUBLIC "-//W3C//DTD SVG 1.1//EN" "http://www.w3.org/Graphics/SVG/1.1/DTD/svg11.dtd" >
<svg xmlns="http://www.w3.org/2000/svg">
<metadata>
This is a custom SVG webfont generated by Font Squirrel.
Copyright   : Copyright c 2011 Juan Pablo del Peral juanhuertatipograficacomar with Reserved Font Names Alegreya Alegreya SC
Designer    : Juan Pablo del Peral
Foundry     : Juan Pablo del Peral
Foundry URL : wwwhuertatipograficacomar
</metadata>
<defs>
<font id="AlegreyaSCBlackItalic" horiz-adv-x="790" >
<font-face units-per-em="2048" ascent="1638" descent="-410" />
<missing-glyph horiz-adv-x="280" />
<glyph unicode=" "  horiz-adv-x="280" />
<glyph unicode="&#x09;" horiz-adv-x="280" />
<glyph unicode="&#xa0;" horiz-adv-x="280" />
<glyph unicode="!" horiz-adv-x="563" d="M33 145q0 111 64.5 177.5t170.5 66.5q80 0 124 -44t44 -122q0 -109 -64.5 -175t-168.5 -66q-82 0 -126 43t-44 120zM160 543l30 823l43 49l392 53l45 -53l-256 -880l-217 -33z" />
<glyph unicode="&#x22;" horiz-adv-x="692" d="M106 834q16 109 26.5 230.5t13.5 188.5l4 68l276 29l14 -25q-59 -223 -139 -453l-158 -51zM451 834q14 109 24 230.5t13 188.5l4 68l276 29l14 -25q-59 -223 -139 -453l-156 -51z" />
<glyph unicode="#" horiz-adv-x="1112" d="M-6 322l53 215l184 -2l25 92l16 67h-153l-15 27l54 215l178 -2l61 240l226 18l26 -14l-74 -244h158l62 240l223 18l26 -14l-71 -238l168 6l10 -31l-43 -217l-205 -2l-8 -32l-35 -123l170 6l10 -31l-43 -217l-200 -2l-54 -205l-221 -29l-24 19l61 215h-160l-51 -205 l-221 -29l-25 19l60 213h-154zM465 535h162l24 92l19 69h-164l-6 -32z" />
<glyph unicode="$" horiz-adv-x="909" d="M-16 82q53 164 71 260l234 16q-6 -61 24.5 -102t89.5 -41q94 0 95 51q0 33 -38 56.5t-119 54.5l-15 6q-57 25 -92 45.5t-78 54t-64.5 80.5t-21.5 107q0 145 107.5 242.5t295.5 125.5l70 281l243 29l11 -19l-70 -282q61 -6 121.5 -16.5t90.5 -17.5l30 -7l18 -39 q-49 -135 -80 -279l-217 -14l-20 14q4 31 4 33q0 88 -99 88q-41 0 -66.5 -17.5t-25.5 -46.5q0 -45 115 -94q157 -63 208 -101q105 -78 105 -202q0 -152 -116.5 -245t-327.5 -115l-74 -297l-239 -27l-15 12l76 316q-57 8 -110.5 22.5t-77.5 25.5l-25 11z" />
<glyph unicode="%" horiz-adv-x="1515" d="M49 889q0 219 106.5 340t278.5 121q123 0 189.5 -74t66.5 -219q0 -219 -105.5 -341t-275.5 -122q-123 0 -191.5 74.5t-68.5 220.5zM154 -80q227 328 397 598l547 873l178 -66l20 -49q-367 -567 -553 -852l-387 -610l-190 71zM217 961q1 -84 148 -84q84 0 118.5 23.5 t34.5 74.5q0 84 -147 84q-84 0 -119 -22.5t-35 -75.5zM866 270q0 219 106.5 340t278.5 121q123 0 189.5 -73.5t66.5 -219.5q0 -219 -105.5 -341t-275.5 -122q-123 0 -191.5 75t-68.5 220zM1034 342q1 -84 148 -84q84 0 118.5 23.5t34.5 74.5q0 84 -147 84q-84 0 -119 -22.5 t-35 -75.5z" />
<glyph unicode="&#x26;" horiz-adv-x="1374" d="M45 459q0 213 142.5 371.5t322.5 158.5q70 0 119 -39t49 -88v-22l14 -9q80 117 122 214.5t73 240.5l31 33h108q109 -182 109 -240q0 -29 -33 -78q-348 -469 -725 -675q92 -96 252 -97q238 0 299 197l-25 2q-18 0 -40.5 -9t-36.5 -20l-13 -10h-12l-72 121l2 8l150 135 l34 11q35 0 180.5 -12.5t166.5 -12.5q25 0 58.5 10t53.5 22l21 11h12l68 -119v-10l-146 -135l-39 -12l-119 6q-82 -190 -256 -313.5t-362 -123.5q-231 0 -369.5 133.5t-138.5 350.5zM293 545q0 -39 10 -84q109 66 138.5 98.5t29.5 75.5q0 70 -57 70q-55 0 -88 -42t-33 -118z " />
<glyph unicode="'" horiz-adv-x="350" d="M106 834q16 109 26.5 230.5t13.5 188.5l4 68l276 29l14 -25q-59 -223 -139 -453l-158 -51z" />
<glyph unicode="(" horiz-adv-x="614" d="M78 182.5q-6 71.5 8 151.5l43 354q47 380 306 577q60 45 106 64h37l90 -131l-4 -18q-6 -4 -17.5 -13.5t-43.5 -46.5t-57.5 -84t-52 -132t-38.5 -185l-43 -354q-14 -119 -9 -206t21 -147.5t34.5 -96.5t33.5 -52l14 -17l-2 -22l-144 -123h-24q-4 2 -10.5 5t-28 17.5 t-39.5 32t-46 47t-47.5 64.5t-42 83t-30.5 104.5t-14 128z" />
<glyph unicode=")" horiz-adv-x="622" d="M-47 -168l4 18q6 4 17.5 13.5t43 46.5t57 84t53.5 132t40 185l43 355q14 119 9 205.5t-21.5 147t-35 96.5t-32.5 52l-14 17l2 22l141 123h27q12 -6 32.5 -18.5t70.5 -62.5t85 -114.5t56.5 -181.5t5.5 -256l-45 -354q-47 -380 -307 -577q-60 -45 -105 -64h-35z" />
<glyph unicode="*" horiz-adv-x="712" d="M104 1198q0 111 29 191l23 6q90 -49 215 -144l-19 -100l-18 -14zM141 928l2 24q74 70 201 160l92 -49l6 -19q-127 -201 -127 -200q-106 33 -174 84zM375 1507q106 33 192 33l15 -20q-23 -100 -72 -250l-102 -10l-17 10zM469 1047l76 71h22l150 -184q-63 -92 -135 -139 l-23 10q-43 90 -90 242zM526 1237l9 23q221 84 221 83q68 -90 90 -172l-17 -16q-12 -2 -32.5 -4t-88 -5t-137.5 -3z" />
<glyph unicode="+" horiz-adv-x="1005" d="M18 387l70 277q141 -2 287 -2l41 321l272 27l29 -15q-31 -180 -53 -333l319 12l10 -31l-61 -278l-305 -3l-33 -288l-272 -37l-23 18q18 152 39 307l-305 -2z" />
<glyph unicode="," horiz-adv-x="473" d="M-70 -104q59 43 95 102t36 115q0 89 -59 155l6 29q117 90 209 90q78 0 126 -56.5t48 -150.5q0 -109 -92 -224.5t-250 -205.5l-119 94v52z" />
<glyph unicode="-" horiz-adv-x="643" d="M55 397l47 217l306 35l170 23l18 -37l-53 -221l-467 -54z" />
<glyph unicode="." horiz-adv-x="473" d="M-2 145q0 111 64.5 177.5t170.5 66.5q80 0 123 -44t43 -122q0 -109 -64.5 -175t-168.5 -66q-168 0 -168 163z" />
<glyph unicode="/" horiz-adv-x="653" d="M-78 -195q141 346 256 658l342 919h244l31 -41q-223 -569 -351 -901l-245 -665h-258z" />
<glyph unicode="0" horiz-adv-x="921" d="M16 395q0 299 146.5 479.5t392.5 180.5q174 0 265 -107.5t91 -310.5q0 -303 -144 -482.5t-390 -179.5q-176 0 -268.5 109t-92.5 311zM246 500q0 -133 209 -133q119 0 172 37.5t53 117.5q0 133 -211 133q-223 0 -223 -155z" />
<glyph unicode="1" horiz-adv-x="751" d="M-41 -20l37 165q94 10 139 43t53 97l52 411q8 72 -7.5 94.5t-72.5 22.5l-92 -6l-17 20l35 154q111 10 268 29q82 8 173 20t139 19l47 6l22 -88q-61 -46 -98 -148q-96 -276 -96 -543q0 -96 63 -96l88 4l6 -12l-51 -184q-203 12 -309 12q-41 0 -96.5 -2t-103.5 -5t-90 -6 t-65 -5z" />
<glyph unicode="2" horiz-adv-x="980" d="M-49 -12l2 102l158 158q178 186 241.5 270t67.5 141q12 92 -82 93q-98 0 -211 -129h-37l-24 213q242 219 475 219q147 0 235 -71t88 -185q0 -76 -18.5 -123t-96 -137t-257.5 -258l8 -19h55q74 0 113 42t61 145l240 18q-78 -272 -109 -455l-39 -37q-512 25 -719 25z" />
<glyph unicode="3" horiz-adv-x="894" d="M-47 80l51 47q65 -37 178 -37q104 0 168 35t64 92q0 102 -207 102l-23 31l2 185l133 26q131 53 132 158q0 31 -20.5 49t-55.5 18q-84 0 -217 -98q-6 0 -16.5 -1t-14.5 -1l-41 211q98 68 222 113t216 45q141 0 225.5 -60.5t84.5 -163.5q0 -98 -70 -178t-186 -114l-3 -23 q250 -80 250 -262q0 -111 -104.5 -215.5t-269 -169t-332.5 -64.5q-102 0 -137 59.5t-29 215.5z" />
<glyph unicode="4" horiz-adv-x="978" d="M-45 113l27 204l591 734q2 0 9.5 2t9.5 2l287 -25l-84 -676h135l18 -30l-49 -232q-53 2 -133 4l-18 -243l-25 -23l-340 -25l-16 25q25 141 45 276q-236 7 -457 7zM260 354h184l33 260h-22z" />
<glyph unicode="5" horiz-adv-x="839" d="M-84 80l51 47q68 -37 178 -37q100 0 165 36t65 89t-69.5 83t-239.5 48l-17 23q31 131 61.5 284.5t46.5 240.5l15 87l16 16l398 13q55 2 83.5 19.5t51.5 62.5l162 10l-103 -367l-45 -39q-152 16 -348 17l-29 -107q227 -37 326.5 -106.5t99.5 -192.5q0 -190 -218 -346 t-484 -156q-102 0 -139 61.5t-27 213.5z" />
<glyph unicode="6" horiz-adv-x="942" d="M16 367q0 137 46.5 259t119 207t160.5 155.5t176 113.5t161 72.5t119 40.5l46 12l24 -15l41 -165q-27 -10 -69.5 -30t-150 -94.5t-181.5 -166.5l8 -23l115 43q133 0 208.5 -83t75.5 -224q0 -225 -144 -359.5t-386 -134.5q-172 0 -270.5 105.5t-98.5 286.5zM354 360 q0 -145 88 -145q70 0 96.5 47t26.5 146q0 122 -80 122q-55 0 -112 -34q-18 -106 -19 -136z" />
<glyph unicode="7" horiz-adv-x="866" d="M25 539q61 272 98 489l14 10q117 -8 242 -8h444l99 -143q-162 -289 -418 -789l-113 -293h-57l-242 78l-18 58l479 796l-176 -18q-88 -10 -121 -40t-61 -128z" />
<glyph unicode="8" horiz-adv-x="937" d="M6 254q0 199 217 291q-131 113 -131 276q0 172 146.5 289t349.5 117q150 0 249 -80t99 -197q0 -182 -191 -280q135 -98 136 -256q0 -184 -146.5 -311.5t-357.5 -127.5q-164 0 -267.5 78t-103.5 201zM315 317q0 -53 29 -86.5t76 -33.5q53 0 81.5 27.5t28.5 76.5 q0 27 -23.5 53.5t-46 41t-78.5 47.5q-13 7 -20 12q-47 -63 -47 -138zM440 893q0 -41 34 -70.5t104 -64.5q47 70 47 135q0 96 -86 96q-43 0 -71 -27.5t-28 -68.5z" />
<glyph unicode="9" horiz-adv-x="942" d="M33 561q0 225 144.5 359.5t385.5 134.5q172 0 271.5 -105.5t99.5 -285.5q0 -137 -46 -259t-119 -207t-161 -156t-176 -114t-160.5 -72.5t-118.5 -40.5l-47 -12l-24 15l-41 166q27 10 70 28.5t149.5 94t179.5 167.5l-8 23l-115 -43q-131 0 -207.5 83t-76.5 224zM383 623 q0 -123 80 -123q55 0 110 32q20 70 21 138q0 145 -86 145q-70 0 -97.5 -47t-27.5 -145z" />
<glyph unicode=":" horiz-adv-x="473" d="M8 145q0 111 64.5 177.5t171.5 66.5q80 0 123 -44t43 -122q0 -109 -65 -175t-169 -66q-168 0 -168 163zM74 688q0 111 64.5 177.5t170.5 66.5q80 0 123 -44t43 -122q0 -109 -64.5 -175.5t-168.5 -66.5q-168 0 -168 164z" />
<glyph unicode=";" horiz-adv-x="473" d="M-61 -104q59 43 95 102t36 115q-1 89 -60 155l6 29q117 90 209 90q78 0 126 -56.5t48 -150.5q0 -109 -92 -224.5t-250 -205.5l-118 94v52zM74 688q0 111 64.5 177.5t170.5 66.5q80 0 123 -44t43 -122q0 -109 -64.5 -175.5t-168.5 -66.5q-168 0 -168 164z" />
<glyph unicode="&#x3c;" horiz-adv-x="847" d="M39 408l39 313l371 158l311 143l35 -23l43 -215q-190 -74 -344 -139l-181 -80l-2 -16l183 -100q268 -131 268 -132l14 -43l-137 -188q-121 59 -254 129l-334 162z" />
<glyph unicode="=" horiz-adv-x="1005" d="M-8 182l71 277q276 -2 453 -2l442 12l11 -31l-62 -278l-450 -2l-449 -2zM43 592l70 276q276 -2 454 -2l441 13l10 -31l-60 -279l-452 -2l-449 -2z" />
<glyph unicode="&#x3e;" horiz-adv-x="847" d="M27 324q193 74 344 139l182 80l2 16l-184 100q-268 131 -269 132l-12 43l137 188q119 -59 252 -129l334 -162l12 -31l-37 -313l-370 -158q-159 -67 -314 -143l-32 23z" />
<glyph unicode="?" horiz-adv-x="759" d="M90 145q0 111 64.5 177.5t171.5 66.5q80 0 124 -43t44 -123q0 -109 -65 -175t-169 -66q-82 0 -126 43t-44 120zM164 1206l112 242l37 18q242 -6 396.5 -104t154.5 -244q0 -109 -78.5 -198t-296.5 -222l-6 -12l-4 -141l-20 -29l-246 -41l-29 17l-14 272l10 31l201 96 q109 55 108 127q0 135 -301 151z" />
<glyph unicode="@" horiz-adv-x="1787" d="M14 346q0 201 83 391.5t219.5 330.5t320.5 225t381 85q360 0 568 -177t208 -484q0 -340 -206 -541t-556 -201q-49 0 -79.5 31t-30.5 80q0 27 49 238h-21q-156 -268 -272 -349q-145 0 -227 85t-82 237q0 242 166.5 456t353.5 214l147 -41l11 41l38 24l275 -24l16 -47 q-98 -428 -141 -691l14 -16q141 0 233.5 120t92.5 302q0 246 -166 387t-455 141q-309 -2 -512.5 -215t-203.5 -532q0 -350 215 -535.5t620 -185.5q0 -10 -1 -28.5t-1 -26.5l-76 -132q-459 0 -720 223.5t-261 614.5zM743 424q0 -131 29 -131q35 0 101.5 130t105.5 275 q-78 53 -152 54q-29 0 -56.5 -106.5t-27.5 -221.5z" />
<glyph unicode="A" horiz-adv-x="1353" d="M-68 -4l35 178q74 18 113 113l432 1028l547 33l28 -25q98 -789 127 -1010q8 -70 31 -100.5t66 -36.5l12 -20l-37 -162q-172 4 -282 4l-386 -10l-14 18l33 172q86 10 110.5 22.5t24.5 47.5v117q-133 4 -149 4l-158 -11l-27 -90q-12 -39 -12 -55q0 -31 47 -31h55l15 -20 l-37 -170q-186 6 -307 6zM561 616h98q14 0 101 5l-21 358h-45z" />
<glyph unicode="B" horiz-adv-x="1325" d="M-41 -14l41 184q78 14 110.5 45t41.5 104l92 732q2 15 2 28q0 66 -43 66l-70 -4l-20 24l43 164q279 -4 342 -4l370 14q209 0 325 -74.5t116 -209.5q0 -104 -55.5 -188.5t-178.5 -164.5q213 -90 213 -272q0 -453 -633 -453q-35 6 -157.5 14.5t-169.5 8.5zM551 328 q-2 -10 -2 -19q1 -35 25 -53q30 -23 106 -23q78 0 120 43t42 123q-1 96 -103 133h-153zM623 797q106 -23 151 -23q10 6 27.5 20.5t45 63.5t27.5 105q0 118 -164 118h-3q-33 0 -39 -28z" />
<glyph unicode="C" horiz-adv-x="1196" d="M37 530q0 401 192.5 610.5t561.5 209.5l454 -54l12 -41q-66 -188 -110 -438l-320 -18q23 117 23 153q0 115 -135 115q-113 0 -160 -119t-47 -399q0 -154 31.5 -218.5t107.5 -64.5t112 48t64 190l318 20q-53 -240 -76 -436l-31 -33q-205 -78 -463 -78q-256 0 -395 143.5 t-139 409.5z" />
<glyph unicode="D" horiz-adv-x="1351" d="M-33 -16l41 190q74 12 103.5 47t44.5 123l84 686q4 33 4 55q0 21 -4 32q-8 24 -35 24l-64 -4l-16 28l39 166q223 -6 305 -6l313 12q281 0 430.5 -131t149.5 -383q0 -383 -217.5 -615.5t-573.5 -232.5q-188 25 -313 25zM547 297q0 -37 12 -51.5t41 -14.5q291 0 291 584 q0 145 -42.5 203.5t-146.5 58.5q-20 0 -30 -11t-17 -44q-10 -51 -59 -380t-49 -345z" />
<glyph unicode="E" horiz-adv-x="1200" d="M-41 -20l41 188q76 12 107.5 50t42.5 130l88 686q4 32 4 54t-4 34q-8 22 -41 23l-52 -4l-20 28l39 162q287 -6 471 -6q426 0 618 25l23 -33q-63 -215 -96 -408l-287 -18q16 66 16 100q0 53 -36.5 70.5t-139.5 17.5q-39 0 -52 -10t-19 -45l-41 -231q18 0 75.5 -1t85.5 -1 l219 12l21 -29l-57 -235q-145 6 -236 6q-39 0 -149 -13q-29 -194 -29 -223q0 -45 17.5 -59t64.5 -14q123 0 169 39.5t81 177.5l264 18l22 -31q-61 -199 -108 -422l-35 -32q-324 14 -637 14z" />
<glyph unicode="F" horiz-adv-x="1105" d="M-41 -20l41 188q76 12 106.5 50t43.5 130l88 686q4 32 4 54t-4 34q-8 22 -41 23l-52 -4l-20 28l39 162q287 -6 471 -6q385 0 561 25l23 -33q-53 -219 -84 -408l-287 -16q14 63 14 98q0 51 -27.5 69.5t-101.5 18.5q-39 0 -52 -10t-19 -45l-48 -266l164 -2l209 12l23 -29 l-58 -235q-139 6 -227 6q-46 0 -150 -12l-18 -140q-4 -32 -4 -55q0 -30 7 -43q13 -24 65 -24q27 0 55.5 4t43.5 8l15 4l29 -37l-53 -221q-231 6 -324 6q-94 0 -201.5 -5t-169.5 -10z" />
<glyph unicode="G" horiz-adv-x="1265" d="M37 530q0 401 192.5 610.5t561.5 209.5l454 -54l12 -41q-66 -160 -110 -409l-320 -19q23 94 23 131q0 109 -135 109q-113 0 -160 -119t-47 -399q0 -154 31.5 -218.5t107.5 -64.5l113 25l14 129q2 18 2 32q0 24 -6 34q-10 18 -45 18l-63 -2l-15 28l47 195h307 q221 0 222 10l6 -119q-82 -51 -99 -153q-41 -213 -40 -307l2 -78l-29 -33q-166 -68 -492 -68q-256 0 -395 143.5t-139 409.5z" />
<glyph unicode="H" horiz-adv-x="1466" d="M-35 -10l37 174q80 16 108.5 49t39.5 119l88 708q3 25 3 43q1 28 -7 41q-12 21 -54 21l-51 -2l-14 28l35 154h258l405 10l-37 -184q-63 -12 -85.5 -31.5t-31.5 -75.5l-41 -247l158 -6q109 0 162 6l31 243q3 24 3 42q0 28 -8 41q-12 22 -53 22l-53 -2l-14 28l35 154h381 l301 10l-35 -180q-74 -12 -98.5 -33t-34.5 -78q-27 -131 -70 -423.5t-43 -348.5q0 -90 63 -90l56 6l14 -22l-39 -170q-113 2 -244 4h-100l-336 -2l37 178q70 2 104.5 37t45.5 119l26 209q-59 2 -108 2l-221 -19l-25 -205q-6 -45 -6 -75q0 -37 11 -51.5t40 -14.5l53 6l15 -20 l-39 -172q-248 8 -330 8z" />
<glyph unicode="I" horiz-adv-x="735" d="M-35 -10l37 174q82 18 109.5 50t38.5 118l88 708q3 25 3 43q1 28 -7 41q-12 21 -54 21l-49 -2l-16 28l35 154h325l348 10l-37 -184q-68 -10 -90 -30t-34 -77q-31 -168 -73 -450.5t-42 -337.5q0 -45 11 -61.5t40 -16.5l64 6l12 -20l-39 -172q-250 8 -334 8z" />
<glyph unicode="J" horiz-adv-x="673" d="M-143 -238l8 31q133 96 184 187t78 290l94 770q4 30 4 50q0 23 -5 34q-9 21 -48 21l-72 -4l-14 28l35 156l285 2l387 14l-41 -190q-59 -14 -77 -31.5t-28 -75.5q-63 -322 -131 -870q-29 -197 -169 -319.5t-419 -190.5z" />
<glyph unicode="K" horiz-adv-x="1384" d="M-35 -10l37 174q80 16 110 49t38 119l88 708q3 25 3 43q1 28 -7 41q-12 21 -54 21l-51 -2l-14 28l37 156q289 -2 323 -2l350 10l-37 -184q-78 -20 -103.5 -42t-29.5 -73l-102 -717q-6 -47 -6 -76q0 -25 4 -37q8 -28 47 -28l64 6l14 -20l-39 -172q-252 8 -336 8zM610 649 l19 62l231 256q70 74 70 123q0 27 -16.5 39t-55.5 14l-10 20l39 168q195 -6 287 -6l292 10l15 -30l-37 -154q-160 -88 -295 -260l-123 -162l133 -373q33 -90 71 -132t97 -52l19 -31l-41 -151q-264 -23 -316 -23q-78 0 -120 36t-76 130z" />
<glyph unicode="L" horiz-adv-x="1112" d="M-41 -20l41 188q76 12 107.5 50t42.5 130l86 692q3 25 3 43q1 28 -7 41q-12 21 -54 21l-51 -2l-14 28l34 154h326l422 10l-47 -200q-104 -10 -143 -32t-48 -75q-106 -598 -106 -727q0 -65 57 -65h2q102 0 146.5 64.5t79.5 268.5l266 27l20 -31q-61 -262 -114 -547 l-35 -32q-295 14 -586 14q-92 0 -198.5 -5t-168.5 -10z" />
<glyph unicode="M" horiz-adv-x="1654" d="M-51 -16l39 184q55 6 83.5 37t45.5 98q27 121 92 433.5t65 346.5q0 29 -20.5 40.5t-91.5 19.5l-15 16l41 176q211 -10 295 -10l316 8q14 -305 57 -651h27q137 346 237 643q346 0 379 2l187 10l14 -8l-39 -180q-80 -2 -106.5 -22.5t-34.5 -82.5q-18 -154 -35 -684 q-1 -22 -1 -41q0 -67 11 -98q14 -39 59 -39l60 4l12 -16l-39 -176q-125 4 -219 6q-49 0 -212 -5t-181 -11l47 186q55 6 80.5 28.5t32.5 71.5l53 473h-27q-2 -2 -18.5 -43t-45 -111.5t-64.5 -158.5t-82 -204.5t-89 -229.5l-262 -21q-33 246 -69.5 488t-41.5 280h-26 q-68 -481 -68 -507q0 -55 58 -56l51 4l16 -16l-47 -176q-221 8 -287 8q-37 0 -95 -4t-100 -7t-42 -5z" />
<glyph unicode="N" horiz-adv-x="1470" d="M-25 -16l43 184q59 8 90 38t39 91l111 715q3 21 3 38q1 41 -17 57q-24 23 -117 34l-21 28l31 166q150 -10 299 -10l262 8q57 -147 129 -310t115 -252l43 -89h31l37 375q1 13 1 24q0 31 -8 45q-12 18 -47 19h-61l-8 22l31 166q223 -8 335 -8q281 0 281 6l-33 -184 q-63 -8 -91 -37t-38 -92l-151 -1018l-394 -25q-166 380 -307 670h-31l-36 -364q-2 -19 -2 -34q0 -33 9 -48q13 -23 58 -23l66 8l16 -18l-43 -174q-225 8 -309 8z" />
<glyph unicode="O" horiz-adv-x="1296" d="M37 524q0 397 185.5 611.5t539.5 214.5q262 0 403.5 -136.5t141.5 -398.5q0 -397 -188.5 -618.5t-538.5 -221.5q-256 0 -399.5 142.5t-143.5 406.5zM506 479q0 -246 129 -246q106 0 152.5 137.5t46.5 452.5q0 246 -134 246q-102 0 -148 -138t-46 -452z" />
<glyph unicode="P" horiz-adv-x="1210" d="M-39 -18l41 188q74 12 106.5 50t43.5 124l86 690q4 30 4 51q0 22 -4 35q-8 25 -37 25l-72 -4l-16 24l39 160h286l346 12q150 0 257.5 -34.5t160.5 -93t75.5 -117t22.5 -123.5q0 -217 -173 -380t-390 -163h-170l-12 -98q-4 -32 -4 -56q1 -40 11 -60q16 -32 75 -32l63 4 l9 -16l-41 -176q-246 8 -332 8zM602 678l129 -21q143 51 143 269q0 82 -43 118.5t-133 36.5q-20 0 -26 -8t-10 -37q-44 -243 -60 -358z" />
<glyph unicode="Q" horiz-adv-x="1304" d="M37 524q0 397 185.5 611.5t539.5 214.5q262 0 403.5 -136.5t141.5 -398.5q0 -287 -99.5 -484.5t-289.5 -287.5v-6q90 -84 202.5 -134t210.5 -50q39 0 85 5t73 10l27 5l20 -23l18 -139q-307 -207 -383 -207q-121 0 -233.5 86t-378.5 385q-248 6 -385 147.5t-137 401.5z M506 479q0 -246 129 -246q106 0 152.5 137.5t46.5 452.5q0 246 -134 246q-102 0 -148 -138t-46 -452z" />
<glyph unicode="R" horiz-adv-x="1353" d="M-39 -18l41 188q74 12 106.5 49t43.5 125l88 711q2 21 2 37q0 22 -4 34q-8 20 -37 19l-72 -4l-16 24l41 162q203 -2 284 -2l357 12q258 0 395 -85t137 -251q0 -272 -287 -436l93 -213q80 -180 167 -180l19 -33l-37 -149l-317 -23q-86 0 -132.5 42t-72.5 145l-80 313h-109 l-16 -139q-3 -33 -3 -57q0 -47 12 -63q20 -24 114 -28l8 -16l-41 -172q-248 8 -332 8q-66 0 -153.5 -4t-143.5 -9zM608 725l148 -20q143 55 143 233q0 143 -199 143q-20 0 -27 -8t-11 -37q-40 -209 -54 -311z" />
<glyph unicode="S" horiz-adv-x="1097" d="M-27 100q63 203 86 338l260 19q-2 -21 -2 -40q0 -69 29 -113q37 -56 119 -56q59 0 96 25.5t37 66.5q0 33 -28.5 61.5t-64.5 48t-99 47.5q-11 5 -15 7q-70 33 -112.5 59.5t-95 70.5t-78 103.5t-25.5 132.5q0 217 180 348.5t477 131.5q98 0 196.5 -14.5t148.5 -28.5l51 -15 l20 -45q-59 -172 -96 -356l-242 -17l-22 17q6 47 6 57q0 119 -127 119q-57 0 -93 -28.5t-36 -71.5q0 -39 34.5 -69t104.5 -64q6 -4 66.5 -32t78 -38t67.5 -39t69.5 -52.5t48 -59t40 -78.5t11.5 -93q0 -217 -177.5 -342t-486.5 -125q-104 0 -205.5 22.5t-150.5 44.5l-49 21z " />
<glyph unicode="T" horiz-adv-x="1183" d="M35 782q51 303 82 537l30 29l236 -23h625l247 23l23 -29l-55 -520l-256 -17q4 80 4 136q-1 81 -9 110q-14 49 -85 49q-104 -690 -105 -788q0 -55 20.5 -79t67.5 -24l103 7l8 -13l-41 -192q-293 12 -408 12l-409 -18l39 188q123 10 165 44t54 130l90 733q-74 0 -103.5 -51 t-64.5 -227z" />
<glyph unicode="U" horiz-adv-x="1239" d="M78 1149l43 182q197 -6 356 -6l271 8l-43 -190q-53 -6 -77 -29t-30 -72l-84 -591q-4 -37 -4 -58v-10q0 -147 119 -147h2q72 0 106.5 40.5t48.5 139.5l74 618q4 32 4 53.5t-4 33.5q-8 24 -37 24l-43 -4l-6 8l45 182q166 -6 238 -6l293 6l-39 -184q-63 -20 -82 -36.5 t-23 -53.5l-71 -578q-35 -256 -175.5 -380t-398.5 -124q-236 0 -350.5 86t-114.5 265q0 39 6 82l78 626q4 35 4 57.5t-4 32.5q-8 20 -41 21l-57 -4z" />
<glyph unicode="V" horiz-adv-x="1275" d="M74 1167l37 162q166 -4 274 -4l385 10l12 -18l-32 -172q-82 -10 -109 -31.5t-27 -75.5l13 -694h45q248 682 248 756q0 41 -54 41h-49l-14 20l37 170q186 -6 307 -6l246 2l-35 -178q-35 -10 -52.5 -31.5t-41.5 -81.5l-408 -1028l-573 -35q-84 816 -109 1037 q-10 70 -29.5 100.5t-58.5 36.5z" />
<glyph unicode="W" horiz-adv-x="1988" d="M74 1167l39 162q158 -4 262 -4l370 10l13 -18l-35 -172q-76 -12 -104.5 -35t-28.5 -70l10 -696h43q143 401 229 684q10 45 15 55q4 39 -14.5 51.5t-86.5 12.5l-12 20l39 162q207 -4 326 -4l368 10l15 -18l-35 -172q-80 -8 -107.5 -29.5t-27.5 -75.5l12 -696h43 q66 176 154 452.5t88 309.5q0 23 -9.5 29t-42.5 6h-47l-12 20l37 170q180 -6 295 -6l235 2l-34 -178q-35 -12 -52.5 -33.5t-40.5 -79.5l-385 -1028l-553 -35l-12 584h-29l-178 -549l-553 -35q-78 815 -98 1037q-14 72 -31.5 100.5t-52.5 36.5z" />
<glyph unicode="X" horiz-adv-x="1419" d="M-55 20l30 164q45 23 131.5 104t147.5 161l205 260l-127 247q-33 63 -68 98.5t-62.5 47.5t-82.5 26l-8 13l41 186q135 -2 352 -2l348 12l10 -22l-35 -168q-79 0 -79 -56q0 -11 2 -23.5t7 -28t10 -28t15.5 -33t16.5 -31.5t20.5 -38.5t20.5 -40.5q12 18 36.5 55.5t40 62 t33 52t25.5 47t8 29.5q0 35 -68 35l-4 12l33 164h313l261 6l6 -16l-33 -178q-102 -47 -161.5 -94.5t-119.5 -129.5l-219 -297l135 -249q53 -92 104.5 -133t121.5 -44l-33 -192q-195 6 -270 6l-418 -14l-13 14l35 172q59 4 60 47q0 20 -17 49l-94 181l-84 -129 q-41 -63 -41 -93q0 -51 68 -51l10 -22l-31 -166q-240 12 -303 12l-270 -12z" />
<glyph unicode="Y" horiz-adv-x="1331" d="M82 1141l43 186q238 -4 303 -4l363 14l12 -22l-39 -168q-84 0 -84 -55q0 -68 68 -299h28l103 233q37 68 36 94q0 29 -69 29l-4 12l37 162h317l227 8l7 -16l-37 -178q-150 -84 -250 -258l-225 -373q-39 -72 -54 -191q-4 -25 -4 -45q0 -37 12 -56q19 -28 76 -28l103 7 l8 -13l-41 -192q-301 12 -418 12l-412 -18l39 188q129 10 173 41t55 121l4 33q2 15 2 30q0 68 -35 154l-164 407q-41 109 -172 172z" />
<glyph unicode="Z" horiz-adv-x="1183" d="M-43 104l766 1006l-145 -20q-117 -16 -152 -58.5t-55 -175.5l-262 -18q61 301 90 491l24 23l359 -23h665l37 -110q-281 -334 -778 -996l203 31q96 14 147 80.5t80 210.5l262 18q-82 -319 -111 -524l-47 -45l-858 12l-166 -20z" />
<glyph unicode="[" horiz-adv-x="649" d="M37 -238q92 565 117 770l73 777l514 22l7 -20l-37 -172l-185 -35l-141 -1137l184 -35l6 -22l-36 -170z" />
<glyph unicode="\" horiz-adv-x="653" d="M70 1341l41 41h243l115 -919q39 -311 96 -658l-26 -30h-258q-41 328 -84 665z" />
<glyph unicode="]" horiz-adv-x="649" d="M-86 -240l39 172l184 35l139 1137l-184 35l-6 22l37 170l502 -22q-90 -565 -117 -770l-74 -777l-514 -22z" />
<glyph unicode="^" horiz-adv-x="929" d="M-18 303q92 152 176 309l196 365l314 14l28 -16q72 -240 113 -381l94 -283l-201 -114l-40 18q-51 152 -97 297l-69 209h-15l-98 -184l-176 -340l-207 69z" />
<glyph unicode="_" horiz-adv-x="888" d="M-135 -410l49 215h725l174 5l14 -39l-55 -217q-145 0 -440 -1.5t-449 -1.5z" />
<glyph unicode="`" d="M59 1350l148 206h35q190 -176 383 -342l-84 -124l-45 -15q-94 55 -202 115.5t-169 92.5l-62 32z" />
<glyph unicode="a" horiz-adv-x="1175" d="M-43 -2l29 149q57 16 86 80l344 797l499 27l25 -23q89 -635 107 -772q10 -96 71 -106l12 -19l-32 -135q-145 2 -242 2l-330 -6l-12 14l27 148q70 8 88 16t18 33q0 2 1 9t1 13l2 43l-116 2l-126 -6l-14 -53q-8 -25 -8 -37q0 -18 33 -18h39l14 -19l-31 -143q-160 4 -260 4 h-225zM492 487h73q39 0 76 2l-12 254h-41z" />
<glyph unicode="b" horiz-adv-x="1144" d="M-35 -10l35 155q63 10 89 34t34 79l70 551q2 13 2 24q0 46 -35 46l-58 -2l-18 20l37 139q246 -4 297 -4l323 12q178 0 276.5 -59t98.5 -166q0 -78 -44 -142.5t-142 -127.5q172 -76 172 -215q0 -180 -133 -266t-406 -86q-25 6 -130 12t-146 6zM483 268q-1 -7 -1 -13 q0 -25 18 -37q24 -15 82 -15q121 0 120 110q1 59 -71 88l-123 2zM539 631q55 -18 120 -19q68 49 68 129q0 78 -123 78q-27 0 -33 -18q-6 -23 -13 -61t-12 -70.5t-7 -38.5z" />
<glyph unicode="c" horiz-adv-x="1017" d="M33 422q0 631 618 631q63 0 159.5 -10.5t162.5 -21.5l65 -11l13 -37q-53 -150 -90 -352l-291 -17q18 94 18 123q0 82 -98 82q-78 0 -107.5 -79t-29.5 -284q0 -125 19.5 -169t72.5 -44q55 0 78.5 33t44.5 140l286 18q-41 -195 -57 -354l-27 -27q-174 -59 -391 -59 t-331.5 112.5t-114.5 325.5z" />
<glyph unicode="d" horiz-adv-x="1146" d="M-27 -12l35 162q59 10 84 36.5t35 94.5l63 510q2 20 2 34q0 21 -4 33q-6 18 -26 19l-51 -5l-17 25l33 141q197 -6 264 -6l264 10q483 0 484 -401q0 -303 -178.5 -481t-477.5 -178q-156 18 -262 18zM479 242q0 -41 25 -41q213 0 213 432q0 109 -24.5 146.5t-96.5 37.5 q-27 0 -35 -43q-2 6 -22.5 -126t-40 -267t-19.5 -139z" />
<glyph unicode="e" horiz-adv-x="1028" d="M-35 -16l35 159q61 10 87 40t34 102l67 508q3 24 3 40q0 19 -4 29q-7 18 -31 17l-41 -2l-21 24l33 137q254 -6 414 -6q362 0 516 21l20 -29q-53 -176 -78 -328l-260 -14q14 47 15 72q0 39 -29 53t-107 14q-27 0 -37 -8t-14 -31l-30 -157h131l178 8l18 -27l-47 -198 q-119 4 -190 4q-2 0 -125 -9q-2 -10 -7.5 -41.5t-8.5 -59.5t-3 -42q0 -35 13.5 -46t48.5 -11q90 0 126 30.5t62 133.5l240 16l20 -27q-51 -158 -88 -340l-33 -26q-260 10 -532 10z" />
<glyph unicode="f" horiz-adv-x="956" d="M-35 -16l35 161q61 8 86 38t35 102l67 508q3 24 3 40q0 19 -4 29q-7 17 -31 17l-41 -2l-21 24l33 137q254 -6 414 -6q328 0 465 21l22 -29q-43 -180 -67 -326l-259 -14q10 45 11 70q0 37 -21.5 52t-73.5 15q-27 0 -37 -8t-14 -31l-35 -184l132 -2l174 8l20 -24l-47 -199 q-115 4 -188 4q-8 0 -123 -8l-13 -80q-2 -20 -2 -35q0 -28 7 -40q12 -19 53 -19q25 0 47 3t34 7l11 4l27 -33l-46 -188q-197 4 -272 4z" />
<glyph unicode="g" horiz-adv-x="1075" d="M39 414q0 637 625 637q63 0 160.5 -10.5t161.5 -20.5l65 -10l12 -35q-55 -127 -94 -328l-289 -16q20 76 20 102q0 78 -100 78q-80 0 -110.5 -85t-30.5 -304q0 -109 19.5 -150t72.5 -41l78 13l10 84q4 35 -3 48t-34 13l-45 -2l-14 27l41 161q180 2 262 3q188 0 188 8 l4 -103q-68 -41 -82 -116q-35 -162 -34 -246v-62l-25 -28q-135 -47 -414 -47q-215 0 -329.5 110.5t-114.5 319.5z" />
<glyph unicode="h" horiz-adv-x="1245" d="M-29 -6l31 147q63 12 87 35t32 84l67 539q2 18 2 32q0 23 -6 33q-10 16 -45 15h-41l-12 24l29 129h217l358 6l-31 -155q-51 -10 -68.5 -23.5t-23.5 -48.5l-32 -180l112 -6q80 0 121 4l23 170q1 15 1 26q0 27 -6 39q-10 16 -45 15h-43l-12 24l29 129h336l258 6l-31 -151 q-59 -10 -80 -25.5t-29 -60.5q-18 -78 -52 -305.5t-34 -270.5q0 -69 52 -69h2l41 4q2 -4 7 -10.5t7 -10.5l-33 -141q-88 0 -203 2h-86l-299 -2l31 152q106 2 121 112l20 148q-35 2 -71 2l-170 -15l-19 -153q-2 -10 -3 -23.5t-1 -17.5q0 -31 9.5 -41t31.5 -10l41 4l12 -19 l-30 -143q-223 6 -293 6q-43 0 -115 -2t-118 -3z" />
<glyph unicode="i" horiz-adv-x="641" d="M-27 -6l29 147q68 14 90.5 39t28.5 90l67 529q2 18 2 32q0 23 -6 33q-10 16 -45 15h-37q-6 8 -14 24l29 129h278l303 6l-30 -155q-55 -8 -73 -22.5t-28 -59.5q-20 -106 -54 -325.5t-34 -264.5q0 -35 9.5 -47t31.5 -12l49 4l11 -19l-33 -143q-215 6 -285 6z" />
<glyph unicode="j" horiz-adv-x="591" d="M-119 -186l6 26q113 78 154 147.5t61 227.5l72 584q3 23 3 38q0 19 -4 27q-7 17 -40 17l-55 -4l-15 26l29 129l244 2l338 10l-35 -161q-47 -10 -60.5 -24.5t-21.5 -57.5q-51 -246 -104 -674q-23 -152 -144 -247t-362 -146z" />
<glyph unicode="k" horiz-adv-x="1193" d="M-29 -8l31 145q66 14 89.5 39.5t29.5 93.5l67 529q2 18 2 32q0 23 -6 33q-10 16 -45 15h-41l-12 24l31 131q254 -2 278 -2l307 6l-32 -155q-66 -16 -86.5 -32.5t-22.5 -55.5l-76 -533q-6 -39 -6 -62q0 -17 3 -26q7 -22 38 -22l49 4l15 -19l-33 -143q-219 6 -289 6z M524 506l17 51l172 182q57 57 57 96t-55 42l-8 18l30 141q168 -4 246 -4l256 8l12 -26l-30 -129q-139 -78 -248 -213l-76 -101l98 -278q25 -70 55.5 -102.5t77.5 -43.5l17 -26l-35 -129q-231 -18 -276 -19q-70 0 -104 27t-62 102z" />
<glyph unicode="l" horiz-adv-x="964" d="M-35 -16l33 159q63 10 89 40t34 102l65 514q2 18 2 32q0 23 -6 33q-10 16 -45 15h-41l-12 24l29 129h280l373 6l-41 -170q-86 -8 -121 -23.5t-39 -47.5q-82 -451 -82 -547q0 -47 39 -47q78 0 112 52t60 214l240 23q16 -20 18 -27q-49 -215 -92 -447l-31 -28 q-239 10 -493 10z" />
<glyph unicode="m" horiz-adv-x="1400" d="M-41 -12l33 155q82 8 104 103q10 37 66.5 298t56.5 290q0 20 -13 27t-75 13l-14 15l35 151q182 -8 254 -8l280 6q4 -194 35 -454h24q104 258 170 448q311 0 340 2l152 8l14 -6l-32 -155q-68 -2 -88.5 -16.5t-26.5 -63.5q-10 -84 -23 -510q-1 -18 -1 -34q0 -49 10 -71 q12 -30 49 -30l49 2l12 -15l-33 -147q-104 2 -184 4q-293 0 -346 -12l39 157q47 4 67.5 21.5t24.5 56.5l43 309h-25l-74 -168q-75 -176 -147 -364l-239 -16q-20 150 -40 277.5t-30 190t-12 80.5h-25q-41 -315 -41 -335q0 -43 49 -43l39 2q8 -6 15 -15l-39 -147 q-195 6 -248 6q-31 0 -81 -3t-87 -5t-37 -4z" />
<glyph unicode="n" horiz-adv-x="1255" d="M-20 -12l36 155q49 6 74 30t33 71l84 530q2 16 2 29q1 31 -13 43q-20 18 -96 28l-20 25l26 141q127 -8 263 -8l231 6q43 -102 96.5 -215.5t85.5 -176.5l33 -62h27l22 227q4 41 -5 55.5t-40 14.5h-49l-8 18l24 139q197 -6 295 -6q242 0 242 4l-27 -155q-51 -8 -73.5 -30 t-30.5 -71l-117 -772l-362 -18l-228 454h-28l-21 -211q-1 -12 -1 -22q1 -29 9 -43q12 -18 50 -18l51 6l14 -15l-35 -147q-199 6 -268 6z" />
<glyph unicode="o" horiz-adv-x="1097" d="M33 418q0 635 596 635q458 0 458 -422q0 -315 -151 -482t-444 -167q-219 0 -339 110.5t-120 325.5zM453 391q0 -106 18.5 -147t63.5 -41q74 0 102.5 94t28.5 326q0 106 -19.5 147t-66.5 41q-70 0 -98.5 -94t-28.5 -326z" />
<glyph unicode="p" horiz-adv-x="1046" d="M-33 -14l35 159q57 8 84 39t37 97l65 512q2 18 2 32q0 54 -30 54l-62 -2l-14 20l33 135h245l300 10q131 0 224 -29.5t138 -76.5t63.5 -94t18.5 -97q0 -170 -145.5 -296.5t-327.5 -126.5h-139l-7 -50q-4 -29 -4 -49q0 -31 9 -45q14 -24 65 -24l47 2l4 -8q2 -5 4 -7 l-34 -147q-217 6 -291 6q-31 0 -112 -4t-144 -7zM522 535l99 -15q102 39 102 191q0 57 -30.5 83.5t-98.5 26.5q-14 0 -19.5 -6t-9.5 -31q-4 -23 -12 -71.5t-16.5 -92.5t-14.5 -85z" />
<glyph unicode="q" horiz-adv-x="1103" d="M33 418q0 635 596 635q459 0 458 -424q0 -446 -299 -588v-6q66 -57 158 -94t170 -37q33 0 72 4t61 8l23 4l18 -20l17 -123q-268 -170 -336 -170q-98 0 -189.5 68.5t-310.5 306.5q-211 6 -324.5 115.5t-113.5 320.5zM453 391q0 -106 18.5 -147t63.5 -41q74 0 102.5 94 t28.5 326q0 106 -19.5 147t-66.5 41q-70 0 -98.5 -94t-28.5 -326z" />
<glyph unicode="r" horiz-adv-x="1169" d="M-33 -16l35 159q59 10 86 40t35 98l67 532q1 11 1 21q0 45 -31 45l-62 -2l-14 20l35 137q174 -2 243 -2l310 10q461 0 461 -270q0 -209 -232 -338l70 -145q31 -66 66.5 -102.5t66.5 -36.5l18 -31l-32 -127l-279 -17q-76 0 -115 32t-59 112l-59 231h-82l-11 -86 q-3 -24 -3 -41q0 -36 12 -48q16 -17 96 -21l6 -15l-33 -145q-221 6 -289 6q-57 0 -134 -4t-125 -8zM526 571l117 -16q106 39 107 164q0 53 -36 76.5t-116 23.5q-18 0 -22.5 -6t-8.5 -29q-23 -107 -41 -213z" />
<glyph unicode="s" horiz-adv-x="946" d="M-16 82q53 164 71 260l234 16q-1 -10 -1 -20q0 -48 26 -82q30 -41 89 -41q94 0 95 51q0 33 -38 56.5t-119 54.5l-15 6q-57 25 -92 45.5t-78 54t-64.5 80.5t-21.5 107q0 174 152.5 277.5t410.5 103.5q82 0 166 -11.5t127 -22.5l43 -11l18 -39q-49 -135 -80 -279l-217 -14 l-20 14q4 31 4 33q0 88 -99 88q-41 0 -66.5 -17.5t-25.5 -46.5q0 -45 115 -94q157 -63 208 -101q105 -78 105 -202q0 -172 -150.5 -269t-414.5 -97q-90 0 -176 17t-127 35l-41 17z" />
<glyph unicode="t" horiz-adv-x="1021" d="M29 584q41 252 65 442l27 25l205 -19h520l213 19l20 -25l-47 -430l-229 -12q5 76 5 125q0 44 -4 64q-9 44 -56 44q-76 -551 -76 -579q0 -80 71 -80l84 6l9 -10l-35 -164q-252 10 -350 10l-355 -16l33 161q98 8 134 32.5t44 90.5l70 549q-47 0 -67.5 -43t-47.5 -178z" />
<glyph unicode="u" horiz-adv-x="1046" d="M59 883l35 155q170 -6 312 -6l231 4l-37 -159q-78 -8 -84 -76l-65 -459q-4 -25 -5 -39q0 -100 84 -100q49 0 73 25.5t32 90.5q57 473 57 474q4 27 4 45q0 16 -3 24q-7 18 -29 17l-31 -2l-6 6l39 155q139 -6 198 -6l254 4l-33 -157q-49 -16 -63 -28.5t-18 -37.5l-54 -432 q-29 -205 -144.5 -302t-332.5 -97q-201 0 -298 65.5t-99 202.5q0 29 6 63l59 480q3 27 3 45t-3 26q-6 16 -32 15l-48 -2z" />
<glyph unicode="v" horiz-adv-x="1095" d="M63 899l31 137q139 -4 234 -4l327 6l13 -14l-27 -147q-63 -8 -84.5 -24.5t-21.5 -57.5v-506h40q180 508 181 559q0 27 -37 26h-35l-12 19l30 143q158 -4 259 -4l206 2l-28 -151q-25 -10 -39.5 -26.5t-32.5 -61.5l-317 -789l-525 -26q-72 665 -84 792q-10 57 -23.5 81 t-41.5 28z" />
<glyph unicode="w" horiz-adv-x="1695" d="M63 899l33 137q131 -4 221 -4l318 6l10 -14l-29 -147q-51 -8 -77.5 -111.5t-26.5 -171.5v-305h39q113 315 170 516l18 55q-2 21 -68 21h-12l-10 18l33 137q176 -4 281 -4l315 6l12 -14l-28 -147q-61 -6 -84 -23.5t-23 -58.5l2 -506h39q49 129 111.5 332.5t62.5 230.5 q0 16 -5 19t-30 3h-32l-13 19l31 143q154 -4 248 -4l198 2l-28 -151q-27 -10 -41.5 -28.5t-30.5 -59.5l-295 -789l-504 -26v413h-26l-123 -387l-504 -26q-68 666 -78 792q-12 59 -24.5 80.5t-38.5 28.5zM737 840v8v-8z" />
<glyph unicode="x" horiz-adv-x="1220" d="M-39 18l27 140q33 16 104.5 80.5t116.5 119.5l164 201l-99 170q-29 51 -58.5 79t-49 36t-66.5 20l-8 8l35 162q106 -2 299 -2l299 8l8 -18l-28 -143h-5q-52 0 -53 -41q0 -39 70 -150q98 154 98 168q0 27 -51 25q0 2 -1 5t-3 5l26 139q53 0 140.5 1t130.5 1l225 4l4 -12 l-26 -154q-156 -74 -232 -174l-172 -229l102 -168q86 -137 187 -137l-29 -164q-166 6 -227 6l-359 -10l-10 10l29 148q39 0 39 30q0 10 -13 35l-71 117l-55 -82q-25 -39 -25 -59q0 -39 53 -39l8 -19l-24 -141q-209 10 -262 10l-232 -10z" />
<glyph unicode="y" horiz-adv-x="1163" d="M74 872l37 162q209 -4 260 -4l309 10l12 -18l-33 -143h-6q-55 0 -55 -39q0 -41 47 -201h27l63 152q31 55 31 71q0 20 -53 19l-4 10l30 137q53 0 141.5 1t133.5 1l194 6l4 -12l-30 -154q-127 -78 -201 -198l-184 -291q-31 -59 -39 -123q-2 -15 -2 -28q0 -33 12 -50 q16 -22 61 -22l86 6l9 -10l-35 -164q-264 10 -365 10l-360 -14l33 159q109 6 146.5 29t45.5 90l2 17q1 10 1 20q0 50 -30 117l-143 321q-27 57 -137 125z" />
<glyph unicode="z" horiz-adv-x="1017" d="M-33 88l619 760l-101 -17q-94 -14 -119.5 -44.5t-39.5 -131.5l-236 -14q49 246 72 395l20 17l299 -17l570 2l34 -94q-285 -315 -626 -751l147 26q80 14 119 63.5t59 155.5l236 17q-67 -262 -90 -422l-39 -37l-729 8l-139 -16z" />
<glyph unicode="{" horiz-adv-x="667" d="M51 -35q0 70 77 206t77 177q0 96 -125 133l29 156q72 23 110.5 60.5t38.5 84.5q0 37 -34 147.5t-34 162.5q0 113 109 185.5t274 72.5q37 0 82 -6.5t72 -12.5l27 -6l16 -33l-57 -170q-39 10 -68 11q-53 0 -83 -32t-30 -87q0 -29 12.5 -111t12.5 -115q0 -72 -44 -123 t-124 -71l-2 -10q125 -43 125 -162q0 -49 -47 -174t-47 -166q0 -47 25.5 -73.5t70.5 -26.5l61 10l23 -27l-49 -170q-80 -47 -225 -47q-117 0 -195 62.5t-78 154.5z" />
<glyph unicode="|" horiz-adv-x="573" d="M25 -518q88 717 135 1083l133 1065l233 23l39 -33q-96 -684 -137 -1024l-135 -1124l-242 -23z" />
<glyph unicode="}" horiz-adv-x="667" d="M-86 -195l57 170q39 -10 68 -10q53 0 83 33t30 90q0 31 -11.5 117t-11.5 121q0 152 168 198l2 11q-125 43 -125 161q0 47 46 164t46 156q0 47 -25.5 73.5t-70.5 26.5l-61 -10l-23 27l49 170q80 47 225 47q117 0 195 -62.5t78 -154.5q0 -66 -75 -195t-75 -168 q0 -110 123 -133l-26 -156q-68 -16 -109 -56t-41 -89q0 -37 33 -147.5t33 -161.5q0 -123 -108.5 -201t-276.5 -78q-37 0 -82 6t-72 13l-27 6z" />
<glyph unicode="~" horiz-adv-x="1003" d="M8 424l4 33l246 235l45 8q47 0 199.5 -34.5t191.5 -34.5q27 0 75 29.5t83 59.5l35 30h33l86 -115l-5 -33l-245 -235l-45 -9q-47 0 -200 35t-192 35q-27 0 -74.5 -29.5t-82.5 -59.5l-35 -30h-33z" />
<glyph unicode="&#xa1;" horiz-adv-x="563" d="M-104 -442l256 880l217 33l37 -41l-31 -823l-43 -49l-391 -54zM129 750q0 109 64.5 175t168.5 66q82 0 126 -43t44 -121q0 -111 -64.5 -177t-170.5 -66q-80 0 -124 44t-44 122z" />
<glyph unicode="&#xa2;" horiz-adv-x="804" d="M27 342q0 223 123.5 398t312.5 231l86 348l244 29l10 -19l-88 -352q65 -12 110 -37l9 -37l-105 -264l-88 -2q-51 106 -123 106q-57 0 -95 -91t-38 -230q0 -160 98 -160q84 0 154 152l43 -6l106 -119q-39 -98 -125 -178t-186 -115l-76 -305l-239 -27l-15 12l78 324 q-92 37 -144 126t-52 216z" />
<glyph unicode="&#xa3;" horiz-adv-x="1013" d="M-8 197q168 86 182 215l10 69q2 47 -22.5 62.5t-102.5 19.5l-6 12l35 144l127 18l6 56q20 158 205.5 295t380.5 137q160 0 242 -31l8 -23l-121 -268l-39 -6q-137 88 -217 88q-51 0 -74.5 -28.5t-32.5 -102.5l-18 -117l274 6l9 -14l-43 -174q-111 6 -267 6l-12 -78 q-6 -53 -28.5 -108.5t-49.5 -79.5l123 29q18 0 94 -17.5t105 -17.5q47 0 81 42.5t42 110.5h63q39 -55 39 -186q0 -123 -79 -202t-195 -79q-63 0 -187.5 55.5t-185.5 55.5q-131 0 -289 -88l-29 12z" />
<glyph unicode="&#xa4;" horiz-adv-x="882" d="M-18 438l172 135q-9 33 -9 86q0 86 41 175l-141 147l14 47l236 158q72 -96 111 -158q66 27 131 27q61 0 125 -27l155 162l47 -8l131 -215l-164 -131q10 -47 11 -99q0 -88 -47 -176l137 -137l-14 -47l-234 -158l-111 152q-61 -23 -122 -23q-70 0 -132 29l-157 -162l-47 8z M348 684q0 -57 36 -96t91 -39q66 0 116 50t50 118q0 57 -37 97t-92 40q-66 0 -115 -50t-49 -120z" />
<glyph unicode="&#xa5;" horiz-adv-x="1173" d="M18 250l45 174h289l-16 41l-21 55l-237 -2l-19 17l45 174h117q-6 12 -82 75.5t-80 89.5l19 80l18 80q141 -4 219 -4q309 0 351 12l8 -20l-33 -143q-59 0 -59 -33q0 -20 28 -111l29 -96h16l88 201q6 12 7 26q0 25 -41 25l-11 18l25 119q53 0 142 1t132 1l193 6l8 -12 l-35 -154q-68 -37 -101.5 -64.5t-60.5 -74.5l-10 -18l144 4l14 -21l-35 -176h-256l-39 -63l-22 -31l297 6l14 -20l-35 -176h-348v-19q0 -59 78 -59l86 6l8 -10l-33 -164q-262 10 -358 10l-361 -14l33 159q92 6 129 24.5t51 66.5l-321 -3z" />
<glyph unicode="&#xa6;" horiz-adv-x="573" d="M25 -518q53 448 102 825l231 35l33 -35l-100 -835l-242 -23zM182 756l111 874l233 23l39 -33q-71 -498 -116 -854l-242 -33z" />
<glyph unicode="&#xa7;" horiz-adv-x="962" d="M14 -43q0 131 115 262l55 -4q2 -70 49.5 -119t111 -49t63.5 55q0 35 -37 66t-91.5 59.5t-107.5 62.5t-90 90t-37 128q0 186 244 311q-84 80 -84 180q0 147 133 249t324 102q113 0 198.5 -30t85.5 -71q0 -47 -43 -145t-76 -123h-51q-10 51 -42 84t-68 33 q-27 0 -47.5 -16.5t-20.5 -41.5q0 -31 36 -61.5t87 -63t102 -70.5t87 -96.5t36 -125.5q0 -168 -227 -295q88 -82 76 -191q-18 -141 -156.5 -236.5t-327.5 -95.5q-117 0 -207 46.5t-90 105.5zM379 629q0 -33 13.5 -60.5t47 -54.5t56 -41t73.5 -45q33 39 33 90 q0 33 -13.5 61.5t-44 56.5t-54 44t-70.5 45q-41 -45 -41 -96z" />
<glyph unicode="&#xa8;" d="M133 1282q0 92 54.5 148.5t144.5 56.5q70 0 106.5 -37t36.5 -102q0 -90 -55.5 -146.5t-143.5 -56.5q-143 0 -143 137zM518 1282q0 92 54.5 148.5t144.5 56.5q70 0 106.5 -37t36.5 -102q0 -90 -54 -146.5t-142 -56.5q-145 0 -146 137z" />
<glyph unicode="&#xa9;" horiz-adv-x="1388" d="M98 535q0 281 207 485.5t479 204.5q229 0 382 -163t153 -398q0 -279 -208 -484t-480 -205q-229 0 -381 161t-152 399zM221 547q0 -190 121 -320.5t303 -130.5q219 0 385 166t166 391q0 190 -122 320.5t-304 130.5q-219 0 -384 -166t-165 -391zM397 549q0 399 391 399 q41 0 101.5 -7t101.5 -13l41 -6l8 -25q-33 -94 -57 -221l-182 -10q10 59 10 75q0 53 -61 54q-49 0 -67.5 -50.5t-18.5 -179.5q0 -80 11 -107.5t46 -27.5t50 21.5t28 87.5l180 12q-25 -123 -35 -223l-16 -19q-111 -37 -248 -37t-210 71t-73 206z" />
<glyph unicode="&#xaa;" horiz-adv-x="798" d="M14 874q0 162 116 303.5t247 141.5l96 -27l6 27l31 18l207 -16l12 -35q-51 -219 -78 -383l6 -4q12 0 68 53l35 -6l28 -72q-119 -131 -182 -176t-129 -45q-74 0 -74 72q0 25 31 149h-14q-100 -168 -178 -221q-106 0 -167 58.5t-61 162.5zM293 965q0 -84 18 -84 q23 0 63 81.5t60 170.5q-53 33 -98 32q-14 0 -28.5 -66.5t-14.5 -133.5z" />
<glyph unicode="&#xab;" horiz-adv-x="950" d="M61 449l7 55q196 190 352 360l119 -71l10 -48q-37 -51 -168 -270q49 -150 100 -268l-20 -47l-135 -74q-114 172 -265 363zM475 449l6 55q197 190 353 360l118 -71l11 -48q-37 -51 -168 -270q49 -150 100 -268l-21 -47l-135 -74q-114 172 -264 363z" />
<glyph unicode="&#xac;" horiz-adv-x="1005" d="M25 449l71 276q276 -2 453 -2l383 12l10 -30q-45 -160 -72 -369l-32 -277l-283 -36l-23 18q23 186 50 383h-93l-448 -2z" />
<glyph unicode="&#xad;" horiz-adv-x="643" d="M55 397l47 217l306 35l170 23l18 -37l-53 -221l-467 -54z" />
<glyph unicode="&#xae;" horiz-adv-x="929" d="M125 995q0 186 138 323.5t321 137.5q154 0 256 -108.5t102 -266.5q0 -186 -139 -323t-322 -137q-154 0 -255 108t-101 266zM209 1004q0 -125 81 -211t202 -86q143 0 253.5 109.5t110.5 256.5q0 125 -81 211t-202 86q-143 0 -253.5 -109.5t-110.5 -256.5zM311 848l13 55 q39 8 45 55l26 211q6 37 -10 37l-23 -2l-6 4l13 52h106q43 0 84 4q168 0 168 -103q0 -86 -88 -135l31 -65q8 -20 23.5 -38t27.5 -20l4 -6q-2 -6 -2 -21.5t-5 -17.5t-22.5 -7t-56.5 -7q-45 0 -60.5 9t-25.5 46l-25 96h-32q-8 -57 -9 -59q0 -18 8.5 -22.5t34.5 -6.5v-4 l-12 -53q-68 4 -94 4h-23zM506 1073q4 0 21.5 -1t25.5 -1q43 12 43 70q0 45 -59 45q-11 -1 -13 -17q-2 -12 -9 -45.5t-9 -50.5z" />
<glyph unicode="&#xaf;" d="M186 1186l66 223q188 -2 305 -2l248 12l18 -37l-65 -223l-279 -2l-264 -2z" />
<glyph unicode="&#xb0;" horiz-adv-x="600" d="M100 1044q0 125 92.5 215.5t213.5 90.5q104 0 170.5 -71t66.5 -177q0 -125 -91 -215t-214 -90q-102 0 -170 71.5t-68 175.5zM254 1057q0 -47 27.5 -77t74.5 -30q57 0 95 39t38 98q0 49 -27.5 79t-74.5 30q-57 0 -95 -40t-38 -99z" />
<glyph unicode="&#xb1;" horiz-adv-x="1005" d="M-23 -215l48 215h661l174 4l17 -39l-56 -217q-135 0 -408.5 -1t-418.5 -1zM23 432l71 277q141 -2 287 -2q6 53 20.5 160.5t20.5 160.5l272 27l29 -15q-31 -180 -53 -333l319 12l10 -31l-61 -278q-51 0 -152.5 -1t-152.5 -1l-33 -289l-272 -37l-25 18q20 152 41 308 l-305 -2z" />
<glyph unicode="&#xb2;" horiz-adv-x="755" d="M-4 662l4 149l213 199q133 129 133 188q0 51 -57 51q-76 0 -164 -90h-29l-16 176q156 156 323 156q113 0 180.5 -52.5t67.5 -135.5q0 -96 -63.5 -189.5t-229.5 -243.5l7 -12h53q47 0 73.5 27.5t40.5 97.5l179 12q-53 -190 -74 -315l-29 -27q-324 16 -471 17z" />
<glyph unicode="&#xb3;" horiz-adv-x="659" d="M-8 848l39 35q53 -27 127 -27q59 0 95 20.5t36 55.5q0 53 -131 53l-19 23v135l92 16q84 31 84 98q0 41 -49 41q-53 0 -145 -55h-23l-28 152q72 45 157.5 70.5t149.5 25.5q102 0 160.5 -41t58.5 -111q0 -68 -48 -122t-128 -74v-17q174 -66 174 -184q0 -115 -148.5 -202 t-332.5 -87q-74 0 -99.5 43t-21.5 152z" />
<glyph unicode="&#xb4;" d="M143 1214l383 342h35l148 -206l-4 -35q-221 -115 -433 -240l-45 15z" />
<glyph unicode="&#xb5;" horiz-adv-x="1087" d="M-84 -467q63 287 115 617l82 516q6 51 7 103t-2 79l-3 26l26 58l379 59l21 -45q-39 -61 -82 -289.5t-43 -285.5q0 -96 67 -97q29 0 90 33l43 355q6 63 6.5 110t-4.5 73l-4 25l29 56l404 57l22 -45q-31 -43 -86 -298t-55 -316.5t49 -61.5l63 17l29 -54q-16 -23 -44 -57.5 t-101.5 -102t-132.5 -90.5q-209 0 -218 150l-20 10q-129 -156 -166 -155q-31 0 -53 14l-10 -6l-23 -203l-14 -205l-19 -24l-325 -52z" />
<glyph unicode="&#x3bc;" horiz-adv-x="1087" d="M-84 -467q63 287 115 617l82 516q6 51 7 103t-2 79l-3 26l26 58l379 59l21 -45q-39 -61 -82 -289.5t-43 -285.5q0 -96 67 -97q29 0 90 33l43 355q6 63 6.5 110t-4.5 73l-4 25l29 56l404 57l22 -45q-31 -43 -86 -298t-55 -316.5t49 -61.5l63 17l29 -54q-16 -23 -44 -57.5 t-101.5 -102t-132.5 -90.5q-209 0 -218 150l-20 10q-129 -156 -166 -155q-31 0 -53 14l-10 -6l-23 -203l-14 -205l-19 -24l-325 -52z" />
<glyph unicode="&#xb6;" horiz-adv-x="1140" d="M49 815q0 221 159 370.5t390 149.5q53 0 166 -5t158 -5l329 6l-32 -172l-7 -8q-55 -14 -70.5 -29.5t-25.5 -64.5q-16 -68 -53 -299.5t-53 -368.5q-27 -225 -226.5 -403.5t-421.5 -178.5q-109 0 -188.5 57.5t-79.5 133.5q0 53 39 136t88 142h35q0 -117 44 -184t122 -67 q82 0 123 44t53 148l111 899q4 18 -6.5 24.5t-45.5 6.5q-72 0 -113.5 -106.5t-41.5 -270.5q0 -160 78 -295l-9 -72q-242 0 -382 112t-140 300z" />
<glyph unicode="&#xb7;" horiz-adv-x="473" d="M39 479q0 111 64.5 177.5t170.5 66.5q80 0 123 -44t43 -122q0 -109 -64.5 -175.5t-168.5 -66.5q-168 0 -168 164z" />
<glyph unicode="&#xb8;" horiz-adv-x="800" d="M47 -393q0 43 125 151h16q-4 -55 17.5 -84.5t64.5 -29.5q63 0 64 49q0 47 -158 129l92 252h127l-47 -150q76 -39 136.5 -93t60.5 -114q0 -88 -97.5 -151.5t-232.5 -63.5q-61 0 -114.5 29t-53.5 76z" />
<glyph unicode="&#xb9;" horiz-adv-x="565" d="M-29 655l27 119q125 12 133 90l45 377q6 49 -3 63.5t-48 14.5l-66 -2l-12 14l27 109q8 0 186 20l258 31l19 -66q-43 -28 -70 -96q-12 -31 -43 -224.5t-31 -240.5q0 -66 41 -65l60 2l4 -8l-37 -131q-141 8 -217 8z" />
<glyph unicode="&#xba;" horiz-adv-x="741" d="M31 930q0 188 104.5 297.5t282.5 109.5q129 0 197.5 -68.5t68.5 -199.5q0 -190 -105.5 -303t-281.5 -113q-127 0 -196.5 72t-69.5 205zM301 940q0 -131 47 -131q33 0 47.5 50t14.5 171q0 78 -10.5 104.5t-37.5 26.5q-61 0 -61 -221z" />
<glyph unicode="&#xbb;" horiz-adv-x="950" d="M84 205q72 104 166 270q-49 150 -100 268l20 48l135 73q116 -172 264 -362l-6 -56q-194 -190 -352 -360l-119 72zM498 205q72 104 166 270q-49 150 -101 268l21 48l135 73q116 -172 264 -362l-6 -56q-194 -190 -352 -360l-119 72z" />
<glyph unicode="&#xbc;" horiz-adv-x="1730" d="M-29 506l27 119q125 12 133 90l45 377q6 49 -3 63t-48 14l-66 -2l-12 15l27 108q8 0 186 21q258 31 258 30l19 -65q-43 -28 -70 -96q-12 -31 -43 -224.5t-31 -240.5q0 -66 41 -66l60 2l4 -8l-37 -131q-141 8 -217 8zM195 -80q227 328 397 598l547 873l178 -66l20 -49 q-367 -567 -553 -852l-387 -610l-190 71zM967 174l18 148l397 495l13 4l217 -18l-56 -457h89l14 -20l-37 -166l-86 2l-12 -146l-17 -16l-250 -16l-14 16q16 82 29 170zM1186 346h110l21 166h-17z" />
<glyph unicode="&#xbd;" horiz-adv-x="1796" d="M-29 506l27 119q125 12 133 90l45 377q6 49 -3 63t-48 14l-66 -2l-12 15l27 108q8 0 186 21q258 31 258 30l19 -65q-43 -28 -70 -96q-12 -31 -43 -224.5t-31 -240.5q0 -66 41 -66l60 2l4 -8l-37 -131q-141 8 -217 8zM195 -80q227 328 397 598l547 873l178 -66l20 -49 q-367 -567 -553 -852l-387 -610l-190 71zM1020 -8l4 149l213 199q133 129 133 188q0 51 -57 52q-76 0 -164 -91h-29l-16 177q156 156 323 155q113 0 180.5 -52t67.5 -136q0 -96 -63.5 -189.5t-229.5 -242.5l7 -13h53q47 0 73.5 28t40.5 97l179 13q-53 -190 -74 -316l-29 -26 q-324 16 -471 16z" />
<glyph unicode="&#xbe;" horiz-adv-x="1722" d="M-8 698l39 35q53 -27 127 -26q59 0 95 20.5t36 54.5q0 53 -131 54l-19 22v135l92 17q84 31 84 98q0 41 -49 41q-53 0 -145 -55h-23l-28 151q72 45 157.5 70.5t149.5 25.5q102 0 160.5 -40.5t58.5 -110.5q0 -68 -48 -122t-128 -75v-16q174 -66 174 -184 q0 -115 -148.5 -202t-332.5 -87q-74 0 -99.5 42.5t-21.5 151.5zM186 -80q227 328 398 598l546 873l179 -66l20 -49q-367 -567 -553 -852l-387 -610l-190 71zM958 174l19 148l397 495l12 4l218 -18l-56 -457h88l15 -20l-37 -166l-86 2l-12 -146l-17 -16l-250 -16l-14 16 q16 82 29 170zM1178 346h110l21 166h-17z" />
<glyph unicode="&#xbf;" horiz-adv-x="759" d="M-104 -145q0 106 78.5 196t295.5 223l6 13l5 141l20 29l246 41l28 -17l15 -272l-10 -31l-201 -96q-109 -55 -109 -129q0 -137 301 -150l25 -36l-113 -242l-37 -19q-242 6 -396 104.5t-154 244.5zM266 750q0 109 65 175t169 66q82 0 126 -43t44 -121q0 -111 -64.5 -177 t-171.5 -66q-82 0 -125 44t-43 122z" />
<glyph unicode="&#xc0;" horiz-adv-x="1353" d="M-68 -4l35 178q74 18 113 113l432 1028l547 33l28 -25q98 -789 127 -1010q8 -70 31 -100.5t66 -36.5l12 -20l-37 -162q-172 4 -282 4l-386 -10l-14 18l33 172q86 10 110.5 22.5t24.5 47.5v117q-133 4 -149 4l-158 -11l-27 -90q-12 -39 -12 -55q0 -31 47 -31h55l15 -20 l-37 -170q-186 6 -307 6zM500 1561l73 221l33 10q258 -111 510 -205l-43 -145l-39 -27q-113 29 -242.5 56.5t-203.5 41.5l-74 15zM561 616h98q14 0 101 5l-21 358h-45z" />
<glyph unicode="&#xc1;" horiz-adv-x="1353" d="M-68 -4l35 178q74 18 113 113l432 1028l547 33l28 -25q98 -789 127 -1010q8 -70 31 -100.5t66 -36.5l12 -20l-37 -162q-172 4 -282 4l-386 -10l-14 18l33 172q86 10 110.5 22.5t24.5 47.5v117q-133 4 -149 4l-158 -11l-27 -90q-12 -39 -12 -55q0 -31 47 -31h55l15 -20 l-37 -170q-186 6 -307 6zM512 1587q251 94 510 205l33 -10l73 -221l-14 -33q-266 -49 -520 -113l-39 27zM561 616h98q14 0 101 5l-21 358h-45z" />
<glyph unicode="&#xc2;" horiz-adv-x="1353" d="M-68 -4l35 178q74 18 113 113l432 1028l547 33l28 -25q98 -789 127 -1010q8 -70 31 -100.5t66 -36.5l12 -20l-37 -162q-172 4 -282 4l-386 -10l-14 18l33 172q86 10 110.5 22.5t24.5 47.5v117q-133 4 -149 4l-158 -11l-27 -90q-12 -39 -12 -55q0 -31 47 -31h55l15 -20 l-37 -170q-186 6 -307 6zM438 1577q82 55 179.5 126t153.5 114l56 43h56q0 6 45 -35t129 -118t145 -130l-88 -127l-49 -14q-90 41 -250 104q-102 -37 -274 -104l-45 14zM561 616h98q14 0 101 5l-21 358h-45z" />
<glyph unicode="&#xc3;" horiz-adv-x="1353" d="M-68 -4l35 178q74 18 113 113l432 1028l547 33l28 -25q98 -789 127 -1010q8 -70 31 -100.5t66 -36.5l12 -20l-37 -162q-172 4 -282 4l-386 -10l-14 18l33 172q86 10 110.5 22.5t24.5 47.5v117q-133 4 -149 4l-158 -11l-27 -90q-12 -39 -12 -55q0 -31 47 -31h55l15 -20 l-37 -170q-186 6 -307 6zM418 1493l4 33l190 235l35 8q37 0 152.5 -34.5t144.5 -34.5q23 0 59.5 29.5t63.5 59.5l27 30h32l107 -111l-4 -33l-191 -235l-34 -8q-37 0 -153 34.5t-144 34.5q-23 0 -61 -29.5t-63 -59.5l-26 -30h-33zM561 616h98q14 0 101 5l-21 358h-45z" />
<glyph unicode="&#xc4;" horiz-adv-x="1353" d="M-68 -4l35 178q74 18 113 113l432 1028l547 33l28 -25q98 -789 127 -1010q8 -70 31 -100.5t66 -36.5l12 -20l-37 -162q-172 4 -282 4l-386 -10l-14 18l33 172q86 10 110.5 22.5t24.5 47.5v117q-133 4 -149 4l-158 -11l-27 -90q-12 -39 -12 -55q0 -31 47 -31h55l15 -20 l-37 -170q-186 6 -307 6zM459 1561q0 92 54 148t144 56q68 0 105 -36.5t37 -102.5q0 -90 -54.5 -146.5t-142.5 -56.5q-143 0 -143 138zM561 616h98q14 0 101 5l-21 358h-45zM842 1561q0 92 54 148t144 56q70 0 107 -36.5t37 -102.5q0 -90 -54.5 -146.5t-142.5 -56.5 q-145 0 -145 138z" />
<glyph unicode="&#xc5;" horiz-adv-x="1353" d="M-68 -4l35 178q74 18 113 113l432 1028l547 33l28 -25q98 -789 127 -1010q8 -70 31 -100.5t66 -36.5l12 -20l-37 -162q-172 4 -282 4l-386 -10l-14 18l33 172q86 10 110.5 22.5t24.5 47.5v117q-133 4 -149 4l-158 -11l-27 -90q-12 -39 -12 -55q0 -31 47 -31h55l15 -20 l-37 -170q-186 6 -307 6zM561 616h98q14 0 101 5l-21 358h-45zM614 1579q0 106 71 177t179 71q94 0 138.5 -49t44.5 -125q0 -102 -70.5 -179t-183.5 -77q-86 0 -132.5 49t-46.5 133zM758 1604q-1 -64 67 -64q29 0 53.5 17.5t24.5 60.5q0 61 -69 61q-76 0 -76 -75z" />
<glyph unicode="&#xc6;" horiz-adv-x="1875" d="M-49 -4l16 178q78 18 127 113l412 800q-2 57 -45 58l-51 -4l-23 28l39 162q334 -6 676 -6q545 4 694 25l23 -33q-61 -215 -97 -408l-284 -18q14 66 14 100q0 53 -37 70.5t-139 17.5q-70 0 -70 -49l13 -268l143 26l207 54l30 -35l-51 -238l-196 -24l-127 -25l2 -149 q2 -137 90 -138q109 0 150.5 40t76.5 180l264 18l23 -31q-61 -199 -109 -422l-34 -32q-328 14 -725 14l-345 -12l-12 18l33 172q82 8 110.5 25.5t32.5 62.5q6 61 6 66l7 117l-150 -27l-158 -47l-38 -109q-18 -51 -19 -59q0 -18 17.5 -21.5t89.5 -3.5l6 -20l-35 -170 q-12 6 -397 6zM623 664l82 8l100 18l8 289h-45z" />
<glyph unicode="&#xc7;" horiz-adv-x="1196" d="M37 530q0 401 192.5 610.5t561.5 209.5l454 -54l12 -41q-66 -188 -110 -438l-320 -18q23 117 23 153q0 115 -135 115q-113 0 -160 -119t-47 -399q0 -154 31.5 -218.5t107.5 -64.5t112 48t64 190l318 20q-53 -240 -76 -436l-31 -33q-174 -66 -403 -75l-17 -56 q76 -39 136.5 -93t60.5 -114q0 -88 -97.5 -151.5t-232.5 -63.5q-61 0 -114.5 29t-53.5 76q0 43 125 151h17q-4 -55 17.5 -84.5t64.5 -29.5q63 0 63 49q0 47 -158 129l58 160q-223 18 -343 159.5t-120 388.5z" />
<glyph unicode="&#xc8;" horiz-adv-x="1200" d="M-41 -20l41 188q76 12 107.5 50t42.5 130l88 686q8 66 -0.5 88.5t-40.5 22.5l-52 -4l-20 28l39 162q287 -6 471 -6q426 0 618 25l23 -33q-63 -215 -96 -408l-287 -18q16 66 16 100q0 53 -36.5 70.5t-139.5 17.5q-39 0 -52 -10t-19 -45l-41 -231q18 0 75.5 -1t85.5 -1 l219 12l21 -29l-57 -235q-145 6 -236 6q-39 0 -149 -13q-29 -194 -29 -223q0 -45 17.5 -59t64.5 -14q123 0 169 39.5t81 177.5l264 18l22 -31q-61 -199 -108 -422l-35 -32q-324 14 -637 14zM438 1561l74 221l33 10q258 -111 510 -205l-43 -145l-39 -27q-113 29 -243 56.5 t-204 41.5l-73 15z" />
<glyph unicode="&#xc9;" horiz-adv-x="1200" d="M-41 -20l41 188q76 12 107.5 50t42.5 130l88 686q8 66 -0.5 88.5t-40.5 22.5l-52 -4l-20 28l39 162q287 -6 471 -6q426 0 618 25l23 -33q-63 -215 -96 -408l-287 -18q16 66 16 100q0 53 -36.5 70.5t-139.5 17.5q-39 0 -52 -10t-19 -45l-41 -231q18 0 75.5 -1t85.5 -1 l219 12l21 -29l-57 -235q-145 6 -236 6q-39 0 -149 -13q-29 -194 -29 -223q0 -45 17.5 -59t64.5 -14q123 0 169 39.5t81 177.5l264 18l22 -31q-61 -199 -108 -422l-35 -32q-324 14 -637 14zM440 1587q251 94 510 205l33 -10l74 -221l-15 -33q-266 -49 -520 -113l-39 27z" />
<glyph unicode="&#xca;" horiz-adv-x="1200" d="M-41 -20l41 188q76 12 107.5 50t42.5 130l88 686q8 66 -0.5 88.5t-40.5 22.5l-52 -4l-20 28l39 162q287 -6 471 -6q426 0 618 25l23 -33q-63 -215 -96 -408l-287 -18q16 66 16 100q0 53 -36.5 70.5t-139.5 17.5q-39 0 -52 -10t-19 -45l-41 -231q18 0 75.5 -1t85.5 -1 l219 12l21 -29l-57 -235q-145 6 -236 6q-39 0 -149 -13q-29 -194 -29 -223q0 -45 17.5 -59t64.5 -14q123 0 169 39.5t81 177.5l264 18l22 -31q-61 -199 -108 -422l-35 -32q-324 14 -637 14zM408 1577q82 55 179 126t153 114l57 43h55q0 6 45 -35t129 -118t145 -130l-88 -127 l-49 -14q-90 41 -250 104q-102 -37 -274 -104l-45 14z" />
<glyph unicode="&#xcb;" horiz-adv-x="1200" d="M-41 -20l41 188q76 12 107.5 50t42.5 130l88 686q8 66 -0.5 88.5t-40.5 22.5l-52 -4l-20 28l39 162q287 -6 471 -6q426 0 618 25l23 -33q-63 -215 -96 -408l-287 -18q16 66 16 100q0 53 -36.5 70.5t-139.5 17.5q-39 0 -52 -10t-19 -45l-41 -231q18 0 75.5 -1t85.5 -1 l219 12l21 -29l-57 -235q-145 6 -236 6q-39 0 -149 -13q-29 -194 -29 -223q0 -45 17.5 -59t64.5 -14q123 0 169 39.5t81 177.5l264 18l22 -31q-61 -199 -108 -422l-35 -32q-324 14 -637 14zM428 1561q0 92 54.5 148t144.5 56q68 0 104.5 -36.5t36.5 -102.5 q0 -90 -54.5 -146.5t-142.5 -56.5q-143 0 -143 138zM811 1561q0 92 54.5 148t144.5 56q70 0 106.5 -36.5t36.5 -102.5q0 -90 -54.5 -146.5t-142.5 -56.5q-145 0 -145 138z" />
<glyph unicode="&#xcc;" horiz-adv-x="735" d="M-35 -10l37 174q82 18 109.5 50t38.5 118l88 708q8 63 -4.5 84t-53.5 21l-49 -2l-16 28l35 154h325l348 10l-37 -184q-68 -10 -90 -30t-34 -77q-31 -168 -73 -450.5t-42 -337.5q0 -45 11 -61.5t40 -16.5l64 6l12 -20l-39 -172q-250 8 -334 8zM168 1561l74 221l32 10 q258 -111 510 -205l-43 -145l-39 -27q-113 29 -242.5 56.5t-203.5 41.5l-74 15z" />
<glyph unicode="&#xcd;" horiz-adv-x="735" d="M-35 -10l37 174q82 18 109.5 50t38.5 118l88 708q8 63 -4.5 84t-53.5 21l-49 -2l-16 28l35 154h325l348 10l-37 -184q-68 -10 -90 -30t-34 -77q-31 -168 -73 -450.5t-42 -337.5q0 -45 11 -61.5t40 -16.5l64 6l12 -20l-39 -172q-250 8 -334 8zM197 1587q251 94 510 205 l32 -10l74 -221l-14 -33q-266 -49 -520 -113l-39 27z" />
<glyph unicode="&#xce;" horiz-adv-x="735" d="M-35 -10l37 174q82 18 109.5 50t38.5 118l88 708q8 63 -4.5 84t-53.5 21l-49 -2l-16 28l35 154h325l348 10l-37 -184q-68 -10 -90 -30t-34 -77q-31 -168 -73 -450.5t-42 -337.5q0 -45 11 -61.5t40 -16.5l64 6l12 -20l-39 -172q-250 8 -334 8zM123 1577q82 55 179 126 t154 114l56 43h55q0 6 45 -35t129 -118t146 -130l-88 -127l-49 -14q-90 41 -250 104q-102 -37 -275 -104l-45 14z" />
<glyph unicode="&#xcf;" horiz-adv-x="735" d="M-35 -10l37 174q82 18 109.5 50t38.5 118l88 708q8 63 -4.5 84t-53.5 21l-49 -2l-16 28l35 154h325l348 10l-37 -184q-68 -10 -90 -30t-34 -77q-31 -168 -73 -450.5t-42 -337.5q0 -45 11 -61.5t40 -16.5l64 6l12 -20l-39 -172q-250 8 -334 8zM143 1561q0 92 54.5 148 t144.5 56q68 0 104.5 -36.5t36.5 -102.5q0 -90 -54 -146.5t-142 -56.5q-143 0 -144 138zM526 1561q0 92 54.5 148t144.5 56q70 0 106.5 -36.5t36.5 -102.5q0 -90 -54 -146.5t-142 -56.5q-145 0 -146 138z" />
<glyph unicode="&#xd0;" horiz-adv-x="1392" d="M8 -16l41 190q74 12 103.5 47t44.5 123l24 201h-180l-18 16l49 182h174l35 287q8 63 0.5 87t-35.5 24l-64 -4l-16 28l39 166q223 -6 305 -6l313 12q281 0 430.5 -131t149.5 -383q0 -383 -217.5 -615.5t-573.5 -232.5q-188 25 -313 25zM588 297q0 -37 12 -51.5t41 -14.5 q291 0 291 584q0 145 -42.5 203.5t-146.5 58.5q-20 0 -30.5 -11t-16.5 -44t-45 -277l144 7l14 -21l-37 -184h-149q-35 -227 -35 -250z" />
<glyph unicode="&#xd1;" horiz-adv-x="1470" d="M-25 -16l43 184q59 8 90 38t39 91l111 715q10 72 -14.5 95t-116.5 34l-21 28l31 166q150 -10 299 -10l262 8q57 -147 129 -310t115 -252l43 -89h31l37 375q4 51 -7.5 69.5t-46.5 18.5h-61l-8 22l31 166q223 -8 335 -8q281 0 281 6l-33 -184q-63 -8 -91 -37t-38 -92 l-151 -1018l-394 -25q-166 380 -307 670h-31l-36 -364q-6 -59 7 -82t58 -23l66 8l16 -18l-43 -174q-225 8 -309 8zM485 1493l4 33l191 235l35 8q37 0 152.5 -34.5t144.5 -34.5q23 0 59.5 29.5t63.5 59.5l26 30h33l106 -111l-4 -33l-190 -235l-35 -8q-37 0 -152.5 34.5 t-144.5 34.5q-23 0 -60.5 -29.5t-63.5 -59.5l-25 -30h-33z" />
<glyph unicode="&#xd2;" horiz-adv-x="1296" d="M37 524q0 397 185.5 611.5t539.5 214.5q262 0 403.5 -136.5t141.5 -398.5q0 -397 -188.5 -618.5t-538.5 -221.5q-256 0 -399.5 142.5t-143.5 406.5zM467 1561l74 221l32 10q258 -111 510 -205l-43 -145l-39 -27q-113 29 -242.5 56.5t-203.5 41.5l-74 15zM506 479 q0 -246 129 -246q106 0 152.5 137.5t46.5 452.5q0 246 -134 246q-102 0 -148 -138t-46 -452z" />
<glyph unicode="&#xd3;" horiz-adv-x="1296" d="M37 524q0 397 185.5 611.5t539.5 214.5q262 0 403.5 -136.5t141.5 -398.5q0 -397 -188.5 -618.5t-538.5 -221.5q-256 0 -399.5 142.5t-143.5 406.5zM465 1587q251 94 510 205l33 -10l73 -221l-14 -33q-266 -49 -520 -113l-39 27zM506 479q0 -246 129 -246 q106 0 152.5 137.5t46.5 452.5q0 246 -134 246q-102 0 -148 -138t-46 -452z" />
<glyph unicode="&#xd4;" horiz-adv-x="1296" d="M37 524q0 397 185.5 611.5t539.5 214.5q262 0 403.5 -136.5t141.5 -398.5q0 -397 -188.5 -618.5t-538.5 -221.5q-256 0 -399.5 142.5t-143.5 406.5zM403 1577q82 55 179.5 126t153.5 114l57 43h55q0 6 45 -35t129 -118t145 -130l-88 -127l-49 -14q-90 41 -250 104 q-102 -37 -274 -104l-45 14zM506 479q0 -246 129 -246q106 0 152.5 137.5t46.5 452.5q0 246 -134 246q-102 0 -148 -138t-46 -452z" />
<glyph unicode="&#xd5;" horiz-adv-x="1296" d="M37 524q0 397 185.5 611.5t539.5 214.5q262 0 403.5 -136.5t141.5 -398.5q0 -397 -188.5 -618.5t-538.5 -221.5q-256 0 -399.5 142.5t-143.5 406.5zM383 1493l4 33l191 235l34 8q37 0 153 -34.5t144 -34.5q23 0 60 29.5t63 59.5l27 30h33l106 -111l-4 -33l-190 -235 l-35 -8q-37 0 -153 34.5t-144 34.5q-23 0 -61 -29.5t-63 -59.5l-26 -30h-33zM506 479q0 -246 129 -246q106 0 152.5 137.5t46.5 452.5q0 246 -134 246q-102 0 -148 -138t-46 -452z" />
<glyph unicode="&#xd6;" horiz-adv-x="1296" d="M37 524q0 397 185.5 611.5t539.5 214.5q262 0 403.5 -136.5t141.5 -398.5q0 -397 -188.5 -618.5t-538.5 -221.5q-256 0 -399.5 142.5t-143.5 406.5zM424 1561q0 92 54 148t145 56q68 0 104.5 -36.5t36.5 -102.5q0 -90 -54.5 -146.5t-142.5 -56.5q-143 0 -143 138z M506 479q0 -246 129 -246q106 0 152.5 137.5t46.5 452.5q0 246 -134 246q-102 0 -148 -138t-46 -452zM807 1561q0 92 54 148t145 56q70 0 106.5 -36.5t36.5 -102.5q0 -90 -54.5 -146.5t-142.5 -56.5q-145 0 -145 138z" />
<glyph unicode="&#xd7;" horiz-adv-x="1005" d="M70 272q106 100 219 203l-195 232l10 32l242 170q90 -113 180 -221q118 110 250 244l29 -12l145 -209l-241 -228q197 -219 196 -219l-16 -33l-236 -178l-184 217l-233 -217l-31 6z" />
<glyph unicode="&#xd8;" horiz-adv-x="1296" d="M18 -106l156 229q-137 143 -137 401q0 397 185.5 611.5t539.5 214.5q113 0 209 -29l141 219l199 -110l4 -27l-135 -205q127 -139 127 -383q0 -397 -188.5 -618.5t-538.5 -221.5q-108 0 -197 25l-162 -240l-194 113zM506 479q0 -246 129 -246q106 0 152.5 137.5 t46.5 452.5q0 246 -134 246q-102 0 -148 -138t-46 -452z" />
<glyph unicode="&#xd9;" horiz-adv-x="1239" d="M78 1149l43 182q197 -6 356 -6l271 8l-43 -190q-53 -6 -77 -29t-30 -72l-84 -591q-4 -37 -4 -58q-4 -158 121 -157q72 0 106.5 40.5t48.5 139.5l74 618q8 63 0 87t-37 24l-43 -4l-6 8l45 182q166 -6 238 -6l293 6l-39 -184q-63 -20 -82 -36.5t-23 -53.5l-71 -578 q-35 -256 -175.5 -380t-398.5 -124q-236 0 -350.5 86t-114.5 265q0 39 6 82l78 626q8 70 0 90.5t-41 20.5l-57 -4zM451 1561l73 221l33 10q258 -111 510 -205l-43 -145l-39 -27q-113 29 -243 56.5t-203 41.5l-74 15z" />
<glyph unicode="&#xda;" horiz-adv-x="1239" d="M78 1149l43 182q197 -6 356 -6l271 8l-43 -190q-53 -6 -77 -29t-30 -72l-84 -591q-4 -37 -4 -58q-4 -158 121 -157q72 0 106.5 40.5t48.5 139.5l74 618q8 63 0 87t-37 24l-43 -4l-6 8l45 182q166 -6 238 -6l293 6l-39 -184q-63 -20 -82 -36.5t-23 -53.5l-71 -578 q-35 -256 -175.5 -380t-398.5 -124q-236 0 -350.5 86t-114.5 265q0 39 6 82l78 626q8 70 0 90.5t-41 20.5l-57 -4zM453 1587q251 94 510 205l32 -10l74 -221l-14 -33q-266 -49 -520 -113l-39 27z" />
<glyph unicode="&#xdb;" horiz-adv-x="1239" d="M78 1149l43 182q197 -6 356 -6l271 8l-43 -190q-53 -6 -77 -29t-30 -72l-84 -591q-4 -37 -4 -58q-4 -158 121 -157q72 0 106.5 40.5t48.5 139.5l74 618q8 63 0 87t-37 24l-43 -4l-6 8l45 182q166 -6 238 -6l293 6l-39 -184q-63 -20 -82 -36.5t-23 -53.5l-71 -578 q-35 -256 -175.5 -380t-398.5 -124q-236 0 -350.5 86t-114.5 265q0 39 6 82l78 626q8 70 0 90.5t-41 20.5l-57 -4zM420 1577q82 55 179 126t154 114l56 43h55q0 6 45 -35t129 -118t146 -130l-88 -127l-49 -14q-90 41 -250 104q-102 -37 -275 -104l-45 14z" />
<glyph unicode="&#xdc;" horiz-adv-x="1239" d="M78 1149l43 182q197 -6 356 -6l271 8l-43 -190q-53 -6 -77 -29t-30 -72l-84 -591q-4 -37 -4 -58q-4 -158 121 -157q72 0 106.5 40.5t48.5 139.5l74 618q8 63 0 87t-37 24l-43 -4l-6 8l45 182q166 -6 238 -6l293 6l-39 -184q-63 -20 -82 -36.5t-23 -53.5l-71 -578 q-35 -256 -175.5 -380t-398.5 -124q-236 0 -350.5 86t-114.5 265q0 39 6 82l78 626q8 70 0 90.5t-41 20.5l-57 -4zM440 1561q0 92 54.5 148t144.5 56q68 0 104.5 -36.5t36.5 -102.5q0 -90 -54 -146.5t-142 -56.5q-143 0 -144 138zM823 1561q0 92 54.5 148t144.5 56 q70 0 106.5 -36.5t36.5 -102.5q0 -90 -54 -146.5t-142 -56.5q-145 0 -146 138z" />
<glyph unicode="&#xdd;" horiz-adv-x="1331" d="M82 1141l43 186q238 -4 303 -4l363 14l12 -22l-39 -168q-84 0 -84 -55q0 -68 68 -299h28l103 233q37 68 36 94q0 29 -69 29l-4 12l37 162h317l227 8l7 -16l-37 -178q-150 -84 -250 -258l-225 -373q-39 -72 -54 -191q-10 -72 8.5 -100.5t75.5 -28.5l103 7l8 -13l-41 -192 q-301 12 -418 12l-412 -18l39 188q129 10 173 41t55 121l4 33q10 78 -33 184l-164 407q-41 109 -172 172zM518 1587q251 94 510 205l33 -10l74 -221l-15 -33q-266 -49 -520 -113l-39 27z" />
<glyph unicode="&#xde;" horiz-adv-x="1208" d="M-35 -10l37 174q80 16 109.5 49t38.5 119l88 708q8 63 -4.5 84t-53.5 21l-49 -2l-16 28l35 154h325l348 10l-37 -184q-76 -16 -95 -27.5t-25 -44.5l-2 -10h135q440 0 440 -332q0 -203 -153.5 -327.5t-395.5 -124.5h-141l-6 -47q-4 -37 7 -48.5t48 -11.5l84 6l14 -20 l-39 -172q-266 8 -356 8zM582 524q86 -20 118 -20q115 33 115 201q0 129 -153 129q-40 -1 -46 -46q-4 -29 -17 -129t-17 -135z" />
<glyph unicode="&#xdf;" horiz-adv-x="1892" d="M-16 82q53 164 71 260l234 16q-6 -61 24.5 -102t89.5 -41q94 0 95 51q0 33 -38 56.5t-119 54.5l-15 6q-57 25 -92 45.5t-78 54t-64.5 80.5t-21.5 107q0 174 152.5 277.5t410.5 103.5q82 0 166 -11.5t127 -22.5l43 -11l18 -39q-49 -135 -80 -279l-217 -14l-20 14 q4 31 4 33q0 88 -99 88q-41 0 -66.5 -17.5t-25.5 -46.5q0 -45 115 -94q157 -63 208 -101q105 -78 105 -202q0 -172 -150.5 -269t-414.5 -97q-90 0 -176 17t-127 35l-41 17zM930 82q53 164 71 260l234 16q-6 -61 24.5 -102t90.5 -41q94 0 94 51q0 33 -38 56.5t-118 54.5 q-10 4 -16 6q-57 25 -92 45.5t-78 54t-64.5 80.5t-21.5 107q0 174 152.5 277.5t410.5 103.5q82 0 166 -11.5t127 -22.5l43 -11l18 -39q-49 -135 -80 -279l-217 -14l-20 14q4 31 4 33q0 88 -98 88q-41 0 -66.5 -17.5t-25.5 -46.5q0 -45 114 -94q157 -63 208 -101 q105 -78 106 -202q0 -172 -151 -269t-415 -97q-90 0 -176 17t-127 35l-41 17z" />
<glyph unicode="&#xe0;" horiz-adv-x="1175" d="M-43 -2l29 149q57 16 86 80l344 797l499 27l25 -23q89 -635 107 -772q10 -96 71 -106l12 -19l-32 -135q-145 2 -242 2l-330 -6l-12 14l27 148q70 8 88 16t18 33q0 2 1 9t1 13l2 43l-116 2l-126 -6l-14 -53q-8 -25 -8 -37q0 -18 33 -18h39l14 -19l-31 -143q-160 4 -260 4 h-225zM383 1266l74 221l32 10q258 -111 510 -205l-43 -145l-38 -27q-113 29 -243 56.5t-204 42.5l-74 14zM492 487h73q39 0 76 2l-12 254h-41z" />
<glyph unicode="&#xe1;" horiz-adv-x="1175" d="M-43 -2l29 149q57 16 86 80l344 797l499 27l25 -23q89 -635 107 -772q10 -96 71 -106l12 -19l-32 -135q-145 2 -242 2l-330 -6l-12 14l27 148q70 8 88 16t18 33q0 2 1 9t1 13l2 43l-116 2l-126 -6l-14 -53q-8 -25 -8 -37q0 -18 33 -18h39l14 -19l-31 -143q-160 4 -260 4 h-225zM367 1292q251 94 510 205l32 -10l74 -221l-14 -33q-266 -49 -520 -113l-39 27zM492 487h73q39 0 76 2l-12 254h-41z" />
<glyph unicode="&#xe2;" horiz-adv-x="1175" d="M-43 -2l29 149q57 16 86 80l344 797l499 27l25 -23q89 -635 107 -772q10 -96 71 -106l12 -19l-32 -135q-145 2 -242 2l-330 -6l-12 14l27 148q70 8 88 16t18 33q0 2 1 9t1 13l2 43l-116 2l-126 -6l-14 -53q-8 -25 -8 -37q0 -18 33 -18h39l14 -19l-31 -143q-160 4 -260 4 h-225zM309 1282q82 55 179.5 126t153.5 114l56 43h56q0 6 45 -35t129 -118t145 -130l-88 -127l-49 -14q-90 41 -250 104q-102 -37 -274 -104l-45 14zM492 487h73q39 0 76 2l-12 254h-41z" />
<glyph unicode="&#xe3;" horiz-adv-x="1175" d="M-43 -2l29 149q57 16 86 80l344 797l499 27l25 -23q89 -635 107 -772q10 -96 71 -106l12 -19l-32 -135q-145 2 -242 2l-330 -6l-12 14l27 148q70 8 88 16t18 33q0 2 1 9t1 13l2 43l-116 2l-126 -6l-14 -53q-8 -25 -8 -37q0 -18 33 -18h39l14 -19l-31 -143q-160 4 -260 4 h-225zM287 1198l4 33l190 235l35 9q37 0 152.5 -35t144.5 -35q23 0 59.5 29.5t63.5 59.5l27 30h32l107 -111l-4 -33l-191 -235l-35 -8q-37 0 -152.5 34.5t-144.5 34.5q-23 0 -60.5 -29.5t-62.5 -59.5l-26 -30h-33zM492 487h73q39 0 76 2l-12 254h-41z" />
<glyph unicode="&#xe4;" horiz-adv-x="1175" d="M-43 -2l29 149q57 16 86 80l344 797l499 27l25 -23q89 -635 107 -772q10 -96 71 -106l12 -19l-32 -135q-145 2 -242 2l-330 -6l-12 14l27 148q70 8 88 16t18 33q0 2 1 9t1 13l2 43l-116 2l-126 -6l-14 -53q-8 -25 -8 -37q0 -18 33 -18h39l14 -19l-31 -143q-160 4 -260 4 h-225zM330 1266q0 92 54 148t144 56q68 0 105 -36.5t37 -102.5q0 -90 -54.5 -146.5t-142.5 -56.5q-143 0 -143 138zM492 487h73q39 0 76 2l-12 254h-41zM713 1266q0 92 54 148t144 56q70 0 107 -36.5t37 -102.5q0 -90 -54.5 -146.5t-142.5 -56.5q-145 0 -145 138z" />
<glyph unicode="&#xe5;" horiz-adv-x="1175" d="M-43 -2l29 149q57 16 86 80l344 797l499 27l25 -23q89 -635 107 -772q10 -96 71 -106l12 -19l-32 -135q-145 2 -242 2l-330 -6l-12 14l27 148q70 8 88 16t18 33q0 2 1 9t1 13l2 43l-116 2l-126 -6l-14 -53q-8 -25 -8 -37q0 -18 33 -18h39l14 -19l-31 -143q-160 4 -260 4 h-225zM485 1284q0 106 71 177t179 71q94 0 138.5 -49t44.5 -125q0 -102 -70.5 -179t-183.5 -77q-86 0 -132.5 49t-46.5 133zM492 487h73q39 0 76 2l-12 254h-41zM629 1309q-1 -64 67 -64q29 0 53.5 17.5t24.5 60.5q0 61 -69 61q-76 0 -76 -75z" />
<glyph unicode="&#xe6;" horiz-adv-x="1613" d="M-29 -2l15 152q72 18 102 77l318 604q-2 49 -37 50l-41 -4l-21 24l33 135l80 -1q80 -1 234.5 -2t283.5 -1q451 4 586 19l20 -27q-49 -176 -78 -326l-256 -16q12 49 13 74q0 39 -29 52t-107 13q-51 0 -51 -35l15 -182l108 21l174 45l29 -31l-43 -201l-166 -22l-96 -19 l2 -90q2 -106 69 -106q80 0 112 31.5t60 134.5l238 14l21 -27q-51 -158 -91 -338l-30 -26l-75 2q-75 2 -230.5 5t-309.5 3l-291 -8l-12 14l29 146q68 8 88 18t25 41q4 33 4 49l6 74l-119 -23l-129 -41l-16 -61q-2 -8 -6.5 -16.5t-6.5 -13.5t-2 -9q0 -14 90 -14l-6 -19 l-28 -143q-8 4 -343 4h-135zM543 520l59 6l78 15l6 202h-41z" />
<glyph unicode="&#xe7;" horiz-adv-x="1017" d="M33 422q0 631 618 631q63 0 159.5 -10.5t162.5 -21.5l65 -11l13 -37q-53 -150 -90 -352l-291 -17q18 94 18 123q0 82 -98 82q-78 0 -107.5 -79t-29.5 -284q0 -125 19.5 -169t72.5 -44q55 0 78.5 33t44.5 140l286 18q-41 -195 -57 -354l-27 -27q-139 -47 -321 -57l-19 -62 q76 -39 136.5 -93t60.5 -114q0 -88 -97.5 -151.5t-232.5 -63.5q-61 0 -114.5 29t-53.5 76q0 43 125 151h17q-4 -55 17.5 -84.5t64.5 -29.5q63 0 63 49q0 47 -158 129l60 164q-188 16 -286.5 126.5t-98.5 309.5z" />
<glyph unicode="&#xe8;" horiz-adv-x="1028" d="M-35 -16l35 159q61 10 87 40t34 102l67 508q6 51 -1 68.5t-31 17.5l-41 -2l-21 24l33 137q254 -6 414 -6q362 0 516 21l20 -29q-53 -176 -78 -328l-260 -14q14 47 15 72q0 39 -29 53t-107 14q-27 0 -37 -8t-14 -31l-30 -157h131l178 8l18 -27l-47 -198q-119 4 -190 4 q-2 0 -125 -9q-2 -10 -7.5 -41.5t-8.5 -59.5t-3 -42q0 -35 13.5 -46t48.5 -11q90 0 126 30.5t62 133.5l240 16l20 -27q-51 -158 -88 -340l-33 -26q-260 10 -532 10zM322 1266l73 221l33 10q258 -111 510 -205l-43 -145l-39 -27q-113 29 -243 56.5t-203 42.5l-74 14z" />
<glyph unicode="&#xe9;" horiz-adv-x="1028" d="M-35 -16l35 159q61 10 87 40t34 102l67 508q6 51 -1 68.5t-31 17.5l-41 -2l-21 24l33 137q254 -6 414 -6q362 0 516 21l20 -29q-53 -176 -78 -328l-260 -14q14 47 15 72q0 39 -29 53t-107 14q-27 0 -37 -8t-14 -31l-30 -157h131l178 8l18 -27l-47 -198q-119 4 -190 4 q-2 0 -125 -9q-2 -10 -7.5 -41.5t-8.5 -59.5t-3 -42q0 -35 13.5 -46t48.5 -11q90 0 126 30.5t62 133.5l240 16l20 -27q-51 -158 -88 -340l-33 -26q-260 10 -532 10zM305 1292q251 94 510 205l33 -10l74 -221l-15 -33q-266 -49 -520 -113l-39 27z" />
<glyph unicode="&#xea;" horiz-adv-x="1028" d="M-35 -16l35 159q61 10 87 40t34 102l67 508q6 51 -1 68.5t-31 17.5l-41 -2l-21 24l33 137q254 -6 414 -6q362 0 516 21l20 -29q-53 -176 -78 -328l-260 -14q14 47 15 72q0 39 -29 53t-107 14q-27 0 -37 -8t-14 -31l-30 -157h131l178 8l18 -27l-47 -198q-119 4 -190 4 q-2 0 -125 -9q-2 -10 -7.5 -41.5t-8.5 -59.5t-3 -42q0 -35 13.5 -46t48.5 -11q90 0 126 30.5t62 133.5l240 16l20 -27q-51 -158 -88 -340l-33 -26q-260 10 -532 10zM276 1282q82 55 179.5 126t153.5 114l57 43h55q0 6 45 -35t129 -118t145 -130l-88 -127l-49 -14 q-90 41 -250 104q-102 -37 -274 -104l-45 14z" />
<glyph unicode="&#xeb;" horiz-adv-x="1028" d="M-35 -16l35 159q61 10 87 40t34 102l67 508q6 51 -1 68.5t-31 17.5l-41 -2l-21 24l33 137q254 -6 414 -6q362 0 516 21l20 -29q-53 -176 -78 -328l-260 -14q14 47 15 72q0 39 -29 53t-107 14q-27 0 -37 -8t-14 -31l-30 -157h131l178 8l18 -27l-47 -198q-119 4 -190 4 q-2 0 -125 -9q-2 -10 -7.5 -41.5t-8.5 -59.5t-3 -42q0 -35 13.5 -46t48.5 -11q90 0 126 30.5t62 133.5l240 16l20 -27q-51 -158 -88 -340l-33 -26q-260 10 -532 10zM297 1266q0 92 54.5 148t144.5 56q68 0 104.5 -36.5t36.5 -102.5q0 -90 -54.5 -146.5t-142.5 -56.5 q-143 0 -143 138zM680 1266q0 92 54 148t145 56q70 0 106.5 -36.5t36.5 -102.5q0 -90 -54.5 -146.5t-142.5 -56.5q-145 0 -145 138z" />
<glyph unicode="&#xec;" horiz-adv-x="641" d="M-27 -6l29 147q68 14 90.5 39t28.5 90l67 529q6 49 -4 64.5t-45 15.5h-37q-6 8 -14 24l29 129h278l303 6l-30 -155q-55 -8 -73 -22.5t-28 -59.5q-20 -106 -54 -325.5t-34 -264.5q0 -35 9.5 -47t31.5 -12l49 4l11 -19l-33 -143q-215 6 -285 6zM96 1266l74 221l33 10 q258 -111 510 -205l-43 -145l-39 -27q-113 29 -243 56.5t-204 42.5l-73 14z" />
<glyph unicode="&#xed;" horiz-adv-x="641" d="M-27 -6l29 147q68 14 90.5 39t28.5 90l67 529q6 49 -4 64.5t-45 15.5h-37q-6 8 -14 24l29 129h278l303 6l-30 -155q-55 -8 -73 -22.5t-28 -59.5q-20 -106 -54 -325.5t-34 -264.5q0 -35 9.5 -47t31.5 -12l49 4l11 -19l-33 -143q-215 6 -285 6zM98 1292q251 94 510 205 l33 -10l74 -221l-15 -33q-266 -49 -520 -113l-39 27z" />
<glyph unicode="&#xee;" horiz-adv-x="641" d="M-27 -6l29 147q68 14 90.5 39t28.5 90l67 529q6 49 -4 64.5t-45 15.5h-37q-6 8 -14 24l29 129h278l303 6l-30 -155q-55 -8 -73 -22.5t-28 -59.5q-20 -106 -54 -325.5t-34 -264.5q0 -35 9.5 -47t31.5 -12l49 4l11 -19l-33 -143q-215 6 -285 6zM37 1282q82 55 179 126 t154 114l56 43h55q0 6 45 -35t129 -118t146 -130l-88 -127l-49 -14q-90 41 -250 104q-102 -37 -275 -104l-45 14z" />
<glyph unicode="&#xef;" horiz-adv-x="641" d="M-27 -6l29 147q68 14 90.5 39t28.5 90l67 529q6 49 -4 64.5t-45 15.5h-37q-6 8 -14 24l29 129h278l303 6l-30 -155q-55 -8 -73 -22.5t-28 -59.5q-20 -106 -54 -325.5t-34 -264.5q0 -35 9.5 -47t31.5 -12l49 4l11 -19l-33 -143q-215 6 -285 6zM66 1266q0 92 54 148t144 56 q68 0 105 -36.5t37 -102.5q0 -90 -54.5 -146.5t-142.5 -56.5q-143 0 -143 138zM449 1266q0 92 54 148t144 56q70 0 107 -36.5t37 -102.5q0 -90 -54.5 -146.5t-142.5 -56.5q-145 0 -145 138z" />
<glyph unicode="&#xf0;" horiz-adv-x="1183" d="M10 -12l35 162q59 10 84 36.5t35 94.5l16 133h-141l-14 12l41 158h135l26 207q4 49 -2 67.5t-26 18.5l-52 -5l-16 25l33 141q197 -6 264 -6l264 10q483 0 484 -401q0 -303 -178.5 -481t-477.5 -178q-156 18 -262 18zM516 242q0 -41 25 -41q213 0 213 432 q0 109 -24.5 146.5t-96.5 37.5q-27 0 -35 -43l-1 -2q-1 -2 -2 -8t-2 -14.5t-3 -19.5t-4 -22.5t-5 -27.5t-5.5 -29.5t-5.5 -32t-5 -32.5l99 4l12 -17l-31 -159h-104q-25 -166 -25 -172z" />
<glyph unicode="&#xf1;" horiz-adv-x="1255" d="M-20 -12l36 155q49 6 74 30t33 71l84 530q8 55 -11.5 72.5t-95.5 27.5l-20 25l26 141q127 -8 263 -8l231 6q43 -102 96.5 -215.5t85.5 -176.5l33 -62h27l22 227q4 41 -5 55.5t-40 14.5h-49l-8 18l24 139q197 -6 295 -6q242 0 242 4l-27 -155q-51 -8 -73.5 -30t-30.5 -71 l-117 -772l-362 -18l-228 454h-28l-21 -211q-4 -47 7.5 -65t50.5 -18l51 6l14 -15l-35 -147q-199 6 -268 6zM336 1198l4 33l190 235l35 9q37 0 153 -35t144 -35q23 0 59.5 29.5t63.5 59.5l27 30h32l107 -111l-4 -33l-191 -235l-34 -8q-37 0 -153 34.5t-144 34.5 q-23 0 -61 -29.5t-63 -59.5l-26 -30h-33z" />
<glyph unicode="&#xf2;" horiz-adv-x="1097" d="M33 418q0 635 596 635q459 0 458 -424q0 -313 -151 -480t-444 -167q-219 0 -339 110.5t-120 325.5zM342 1266l74 221l33 10q258 -111 509 -205l-43 -145l-38 -27q-113 29 -243 56.5t-204 42.5l-74 14zM453 391q0 -106 18.5 -147t63.5 -41q74 0 102.5 94t28.5 326 q0 106 -19.5 147t-66.5 41q-70 0 -98.5 -94t-28.5 -326z" />
<glyph unicode="&#xf3;" horiz-adv-x="1097" d="M33 418q0 635 596 635q459 0 458 -424q0 -313 -151 -480t-444 -167q-219 0 -339 110.5t-120 325.5zM319 1292q251 94 510 205l33 -10l74 -221l-14 -33q-266 -49 -521 -113l-39 27zM453 391q0 -106 18.5 -147t63.5 -41q74 0 102.5 94t28.5 326q0 106 -19.5 147t-66.5 41 q-70 0 -98.5 -94t-28.5 -326z" />
<glyph unicode="&#xf4;" horiz-adv-x="1097" d="M33 418q0 635 596 635q459 0 458 -424q0 -313 -151 -480t-444 -167q-219 0 -339 110.5t-120 325.5zM268 1282q82 55 179.5 126t153.5 114l56 43h56q0 6 45 -35t129 -118t145 -130l-88 -127l-49 -14q-90 41 -250 104q-102 -37 -274 -104l-45 14zM453 391q0 -106 18.5 -147 t63.5 -41q74 0 102.5 94t28.5 326q0 106 -19.5 147t-66.5 41q-70 0 -98.5 -94t-28.5 -326z" />
<glyph unicode="&#xf5;" horiz-adv-x="1097" d="M33 418q0 635 596 635q459 0 458 -424q0 -313 -151 -480t-444 -167q-219 0 -339 110.5t-120 325.5zM244 1198l4 33l190 235l35 9q37 0 152.5 -35t144.5 -35q23 0 59.5 29.5t63.5 59.5l27 30h32l107 -111l-4 -33l-191 -235l-35 -8q-37 0 -152.5 34.5t-144.5 34.5 q-23 0 -60.5 -29.5t-62.5 -59.5l-26 -30h-33zM453 391q0 -106 18.5 -147t63.5 -41q74 0 102.5 94t28.5 326q0 106 -19.5 147t-66.5 41q-70 0 -98.5 -94t-28.5 -326z" />
<glyph unicode="&#xf6;" horiz-adv-x="1097" d="M33 418q0 635 596 635q459 0 458 -424q0 -313 -151 -480t-444 -167q-219 0 -339 110.5t-120 325.5zM289 1266q0 92 54 148t144 56q68 0 105 -36.5t37 -102.5q0 -90 -54.5 -146.5t-142.5 -56.5q-143 0 -143 138zM453 391q0 -106 18.5 -147t63.5 -41q74 0 102.5 94 t28.5 326q0 106 -19.5 147t-66.5 41q-70 0 -98.5 -94t-28.5 -326zM672 1266q0 92 54 148t144 56q70 0 107 -36.5t37 -102.5q0 -90 -54.5 -146.5t-142.5 -56.5q-145 0 -145 138z" />
<glyph unicode="&#xf7;" horiz-adv-x="1005" d="M18 387l70 277q276 -2 453 -2l442 12l10 -31l-61 -278l-451 -3l-448 -2zM281 106q0 96 54 152.5t146 56.5q68 0 105 -36.5t37 -104.5q0 -96 -54.5 -152.5t-144.5 -56.5q-70 0 -106.5 37t-36.5 104zM371 846q0 96 54 152.5t148 56.5q68 0 105 -38t37 -104 q0 -94 -55.5 -151t-145.5 -57q-70 0 -106.5 36.5t-36.5 104.5z" />
<glyph unicode="&#xf8;" horiz-adv-x="1097" d="M-8 -66l137 181q-96 109 -96 303q0 635 596 635q100 0 174 -21l143 195l197 -113l2 -22l-137 -187q80 -101 79 -276q0 -313 -151.5 -480t-443.5 -167q-78 0 -154 16l-148 -197l-192 117zM453 391q0 -106 18.5 -147t63.5 -41q74 0 102.5 94t28.5 326q0 106 -19.5 147 t-66.5 41q-70 0 -98.5 -94t-28.5 -326z" />
<glyph unicode="&#xf9;" horiz-adv-x="1046" d="M59 883l35 155q170 -6 312 -6l231 4l-37 -159q-78 -8 -84 -76l-65 -459q-4 -25 -5 -39q0 -100 84 -100q49 0 73 25.5t32 90.5q57 473 57 474q8 51 1 68.5t-29 17.5l-31 -2l-6 6l39 155q139 -6 198 -6l254 4l-33 -157q-49 -16 -63 -28.5t-18 -37.5l-54 -432 q-29 -205 -144.5 -302t-332.5 -97q-201 0 -298 65.5t-99 202.5q0 29 6 63l59 480q6 55 0 70.5t-32 15.5l-48 -2zM326 1266l73 221l33 10q258 -111 510 -205l-43 -145l-39 -27q-113 29 -243 56.5t-203 42.5l-74 14z" />
<glyph unicode="&#xfa;" horiz-adv-x="1046" d="M59 883l35 155q170 -6 312 -6l231 4l-37 -159q-78 -8 -84 -76l-65 -459q-4 -25 -5 -39q0 -100 84 -100q49 0 73 25.5t32 90.5q57 473 57 474q8 51 1 68.5t-29 17.5l-31 -2l-6 6l39 155q139 -6 198 -6l254 4l-33 -157q-49 -16 -63 -28.5t-18 -37.5l-54 -432 q-29 -205 -144.5 -302t-332.5 -97q-201 0 -298 65.5t-99 202.5q0 29 6 63l59 480q6 55 0 70.5t-32 15.5l-48 -2zM301 1292q251 94 510 205l33 -10l74 -221l-15 -33q-266 -49 -520 -113l-39 27z" />
<glyph unicode="&#xfb;" horiz-adv-x="1046" d="M59 883l35 155q170 -6 312 -6l231 4l-37 -159q-78 -8 -84 -76l-65 -459q-4 -25 -5 -39q0 -100 84 -100q49 0 73 25.5t32 90.5q57 473 57 474q8 51 1 68.5t-29 17.5l-31 -2l-6 6l39 155q139 -6 198 -6l254 4l-33 -157q-49 -16 -63 -28.5t-18 -37.5l-54 -432 q-29 -205 -144.5 -302t-332.5 -97q-201 0 -298 65.5t-99 202.5q0 29 6 63l59 480q6 55 0 70.5t-32 15.5l-48 -2zM281 1282q82 55 179 126t153 114l57 43h55q0 6 45 -35t129 -118t145 -130l-88 -127l-49 -14q-90 41 -250 104q-102 -37 -274 -104l-45 14z" />
<glyph unicode="&#xfc;" horiz-adv-x="1046" d="M59 883l35 155q170 -6 312 -6l231 4l-37 -159q-78 -8 -84 -76l-65 -459q-4 -25 -5 -39q0 -100 84 -100q49 0 73 25.5t32 90.5q57 473 57 474q8 51 1 68.5t-29 17.5l-31 -2l-6 6l39 155q139 -6 198 -6l254 4l-33 -157q-49 -16 -63 -28.5t-18 -37.5l-54 -432 q-29 -205 -144.5 -302t-332.5 -97q-201 0 -298 65.5t-99 202.5q0 29 6 63l59 480q6 55 0 70.5t-32 15.5l-48 -2zM301 1266q0 92 54.5 148t144.5 56q68 0 104.5 -36.5t36.5 -102.5q0 -90 -54.5 -146.5t-142.5 -56.5q-143 0 -143 138zM684 1266q0 92 54.5 148t144.5 56 q70 0 106.5 -36.5t36.5 -102.5q0 -90 -54.5 -146.5t-142.5 -56.5q-145 0 -145 138z" />
<glyph unicode="&#xfd;" horiz-adv-x="1163" d="M74 872l37 162q209 -4 260 -4l309 10l12 -18l-33 -143q-61 2 -61 -39t47 -201h27l63 152q31 55 31 71q0 20 -53 19l-4 10l30 137q53 0 141.5 1t133.5 1l194 6l4 -12l-30 -154q-127 -78 -201 -198l-184 -291q-31 -59 -39 -123q-6 -55 10 -77.5t61 -22.5l86 6l9 -10 l-35 -164q-264 10 -365 10l-360 -14l33 159q109 6 146.5 29t45.5 90l2 17q8 55 -29 137l-143 321q-27 57 -137 125zM375 1292q251 94 510 205l33 -10l73 -221l-14 -33q-266 -49 -520 -113l-39 27z" />
<glyph unicode="&#xfe;" horiz-adv-x="1046" d="M-27 -6l31 145q66 14 88.5 39t28.5 92l67 529q6 49 -4 65.5t-45 16.5l-37 -2l-14 24l29 129h278l301 6l-30 -155q-61 -12 -77 -19.5t-20 -27.5h111q373 0 373 -267q0 -160 -127 -255t-330 -95h-117l-4 -33q-2 -23 6 -29.5t39 -6.5l68 6l12 -19l-33 -143q-231 6 -305 6z M506 420q76 -14 92 -14q78 27 78 141q0 88 -111 88q-33 0 -35 -39z" />
<glyph unicode="&#xff;" horiz-adv-x="1163" d="M74 872l37 162q209 -4 260 -4l309 10l12 -18l-33 -143q-61 2 -61 -39t47 -201h27l63 152q31 55 31 71q0 20 -53 19l-4 10l30 137q53 0 141.5 1t133.5 1l194 6l4 -12l-30 -154q-127 -78 -201 -198l-184 -291q-31 -59 -39 -123q-6 -55 10 -77.5t61 -22.5l86 6l9 -10 l-35 -164q-264 10 -365 10l-360 -14l33 159q109 6 146.5 29t45.5 90l2 17q8 55 -29 137l-143 321q-27 57 -137 125zM356 1266q0 92 54.5 148t144.5 56q68 0 104.5 -36.5t36.5 -102.5q0 -90 -54 -146.5t-142 -56.5q-143 0 -144 138zM739 1266q0 92 54.5 148t144.5 56 q70 0 106.5 -36.5t36.5 -102.5q0 -90 -54 -146.5t-142 -56.5q-145 0 -146 138z" />
<glyph unicode="&#x100;" horiz-adv-x="1353" d="M-68 -4l35 178q74 18 113 113l432 1028l547 33l28 -25q98 -789 127 -1010q8 -70 31 -100.5t66 -36.5l12 -20l-37 -162q-172 4 -282 4l-386 -10l-14 18l33 172q86 10 110.5 22.5t24.5 47.5v117q-133 4 -149 4l-158 -11l-27 -90q-12 -39 -12 -55q0 -31 47 -31h55l15 -20 l-37 -170q-186 6 -307 6zM510 1452l65 223q188 -2 306 -2l247 13l19 -37l-66 -224l-278 -2l-264 -2zM561 616h98q14 0 101 5l-21 358h-45z" />
<glyph unicode="&#x101;" horiz-adv-x="1175" d="M-43 -2l29 149q57 16 86 80l344 797l499 27l25 -23q89 -635 107 -772q10 -96 71 -106l12 -19l-32 -135q-145 2 -242 2l-330 -6l-12 14l27 148q70 8 88 16t18 33q0 2 1 9t1 13l2 43l-116 2l-126 -6l-14 -53q-8 -25 -8 -37q0 -18 33 -18h39l14 -19l-31 -143q-160 4 -260 4 h-225zM379 1157l65 223q188 -2 306 -2l247 13l19 -37l-66 -224l-278 -2l-264 -2zM492 487h73q39 0 76 2l-12 254h-41z" />
<glyph unicode="&#x102;" horiz-adv-x="1353" d="M-68 -4l35 178q74 18 113 113l432 1028l547 33l28 -25q98 -789 127 -1010q8 -70 31 -100.5t66 -36.5l12 -20l-37 -162q-172 4 -282 4l-386 -10l-14 18l33 172q86 10 110.5 22.5t24.5 47.5v117q-133 4 -149 4l-158 -11l-27 -90q-12 -39 -12 -55q0 -31 47 -31h55l15 -20 l-37 -170q-186 6 -307 6zM471 1702l98 127l58 14q18 -70 73 -106.5t129 -36.5q162 0 242 143l53 -14l66 -127q-51 -119 -150.5 -199t-243 -80t-224 80t-101.5 199zM561 616h98q14 0 101 5l-21 358h-45z" />
<glyph unicode="&#x103;" horiz-adv-x="1175" d="M-43 -2l29 149q57 16 86 80l344 797l499 27l25 -23q89 -635 107 -772q10 -96 71 -106l12 -19l-32 -135q-145 2 -242 2l-330 -6l-12 14l27 148q70 8 88 16t18 33q0 2 1 9t1 13l2 43l-116 2l-126 -6l-14 -53q-8 -25 -8 -37q0 -18 33 -18h39l14 -19l-31 -143q-160 4 -260 4 h-225zM338 1386l98 127l58 15q18 -70 73 -107t129 -37q162 0 242 144l53 -15l66 -127q-51 -119 -150.5 -198.5t-243 -79.5t-224.5 80t-101 198zM492 487h73q39 0 76 2l-12 254h-41z" />
<glyph unicode="&#x104;" horiz-adv-x="1353" d="M-68 -4l35 178q74 18 113 113l432 1028l547 33l28 -25q98 -788 127 -1010q8 -70 31 -100.5t66 -36.5l12 -20l-37 -162q-43 2 -92 2q-90 -109 -118.5 -157t-28.5 -87q0 -31 18 -50t49 -19q25 0 58.5 13t55.5 25l21 13l43 -82q-127 -111 -225 -148q-115 0 -178.5 44 t-63.5 120q0 70 43 140.5t168 189.5h-32l-386 -10l-14 18l33 172q86 10 110.5 22.5t24.5 47.5v117q-133 4 -149 4l-158 -11l-27 -90q-12 -39 -12 -55q0 -31 47 -31h55l15 -20l-37 -170q-186 6 -307 6zM561 616h98q14 0 101 5l-21 358h-45z" />
<glyph unicode="&#x105;" horiz-adv-x="1175" d="M-43 -2l29 149q57 16 86 80l344 797l499 27l25 -23q88 -635 107 -772q10 -96 71 -106l12 -19l-32 -135q-27 2 -58 2q-92 -109 -120.5 -158t-28.5 -88q0 -31 18.5 -50t48.5 -19q25 0 59 13t55 25l22 13l43 -82q-127 -111 -226 -148q-115 0 -178 44t-63 120q0 70 43 140.5 t168 189.5h-25l-330 -6l-12 14l27 148q70 8 88 16t18 33q0 2 1 9t1 13l2 43l-116 2l-126 -6l-14 -53q-8 -25 -8 -37q0 -18 33 -18h39l14 -19l-31 -143q-160 4 -260 4h-225zM492 487h73q39 0 76 2l-12 254h-41z" />
<glyph unicode="&#x106;" horiz-adv-x="1196" d="M37 530q0 401 192.5 610.5t561.5 209.5l454 -54l12 -41q-66 -188 -110 -438l-320 -18q23 117 23 153q0 115 -135 115q-113 0 -160 -119t-47 -399q0 -154 31.5 -218.5t107.5 -64.5t112 48t64 190l318 20q-53 -240 -76 -436l-31 -33q-205 -78 -463 -78q-256 0 -395 143.5 t-139 409.5zM438 1587q251 94 510 205l33 -10l74 -221l-15 -33q-266 -49 -520 -113l-39 27z" />
<glyph unicode="&#x107;" horiz-adv-x="1017" d="M33 422q0 631 618 631q63 0 159.5 -10.5t162.5 -21.5l65 -11l13 -37q-53 -150 -90 -352l-291 -17q18 94 18 123q0 82 -98 82q-78 0 -107.5 -79t-29.5 -284q0 -125 19.5 -169t72.5 -44q55 0 78.5 33t44.5 140l286 18q-41 -195 -57 -354l-27 -27q-174 -59 -391 -59 t-331.5 112.5t-114.5 325.5zM289 1292q251 94 510 205l32 -10l74 -221l-14 -33q-266 -49 -520 -113l-39 27z" />
<glyph unicode="&#x108;" horiz-adv-x="1196" d="M37 530q0 401 192.5 610.5t561.5 209.5l454 -54l12 -41q-66 -188 -110 -438l-320 -18q23 117 23 153q0 115 -135 115q-113 0 -160 -119t-47 -399q0 -154 31.5 -218.5t107.5 -64.5t112 48t64 190l318 20q-53 -240 -76 -436l-31 -33q-205 -78 -463 -78q-256 0 -395 143.5 t-139 409.5zM416 1593q176 141 372 320h56q156 -178 295 -320l-109 -127l-49 -14q-55 43 -205 141q-147 -82 -235 -141l-47 14z" />
<glyph unicode="&#x109;" horiz-adv-x="1017" d="M33 422q0 631 618 631q63 0 159.5 -10.5t162.5 -21.5l65 -11l13 -37q-53 -150 -90 -352l-291 -17q18 94 18 123q0 82 -98 82q-78 0 -107.5 -79t-29.5 -284q0 -125 19.5 -169t72.5 -44q55 0 78.5 33t44.5 140l286 18q-41 -195 -57 -354l-27 -27q-174 -59 -391 -59 t-331.5 112.5t-114.5 325.5zM279 1298q176 141 372 320h56q156 -178 294 -320l-108 -127l-49 -14q-55 43 -205 141q-147 -82 -236 -141l-47 14z" />
<glyph unicode="&#x10a;" horiz-adv-x="1196" d="M37 530q0 401 192.5 610.5t561.5 209.5l454 -54l12 -41q-66 -188 -110 -438l-320 -18q23 117 23 153q0 115 -135 115q-113 0 -160 -119t-47 -399q0 -154 31.5 -218.5t107.5 -64.5t112 48t64 190l318 20q-53 -240 -76 -436l-31 -33q-205 -78 -463 -78q-256 0 -395 143.5 t-139 409.5zM612 1563q0 111 64.5 177t171.5 66q82 0 125 -43t43 -123q0 -109 -65 -175t-169 -66q-82 0 -126 43t-44 121z" />
<glyph unicode="&#x10b;" horiz-adv-x="1017" d="M33 422q0 631 618 631q63 0 159.5 -10.5t162.5 -21.5l65 -11l13 -37q-53 -150 -90 -352l-291 -17q18 94 18 123q0 82 -98 82q-78 0 -107.5 -79t-29.5 -284q0 -125 19.5 -169t72.5 -44q55 0 78.5 33t44.5 140l286 18q-41 -195 -57 -354l-27 -27q-174 -59 -391 -59 t-331.5 112.5t-114.5 325.5zM469 1268q0 111 64.5 177t171.5 66q82 0 124.5 -43t42.5 -122q0 -109 -64.5 -175.5t-168.5 -66.5q-82 0 -126 43t-44 121z" />
<glyph unicode="&#x10c;" horiz-adv-x="1196" d="M37 530q0 401 192.5 610.5t561.5 209.5l454 -54l12 -41q-66 -188 -110 -438l-320 -18q23 117 23 153q0 115 -135 115q-113 0 -160 -119t-47 -399q0 -154 31.5 -218.5t107.5 -64.5t112 48t64 190l318 20q-53 -240 -76 -436l-31 -33q-205 -78 -463 -78q-256 0 -395 143.5 t-139 409.5zM418 1692l86 127l49 14q47 -23 250 -104q102 37 274 104l45 -14l60 -127q-184 -125 -391 -283h-56q-166 158 -317 283z" />
<glyph unicode="&#x10d;" horiz-adv-x="1017" d="M33 422q0 631 618 631q63 0 159.5 -10.5t162.5 -21.5l65 -11l13 -37q-53 -150 -90 -352l-291 -17q18 94 18 123q0 82 -98 82q-78 0 -107.5 -79t-29.5 -284q0 -125 19.5 -169t72.5 -44q55 0 78.5 33t44.5 140l286 18q-41 -195 -57 -354l-27 -27q-174 -59 -391 -59 t-331.5 112.5t-114.5 325.5zM274 1397l86 127l50 14q47 -23 249 -104q102 37 275 104l45 -14l59 -127q-184 -125 -391 -283h-55q-166 158 -318 283z" />
<glyph unicode="&#x10e;" horiz-adv-x="1351" d="M-33 -16l41 190q74 12 103.5 47t44.5 123l84 686q8 63 0.5 87t-35.5 24l-64 -4l-16 28l39 166q223 -6 305 -6l313 12q281 0 430.5 -131t149.5 -383q0 -383 -217.5 -615.5t-573.5 -232.5q-188 25 -313 25zM422 1692l86 127l49 14q47 -23 250 -104q102 37 274 104l45 -14 l60 -127q-184 -125 -391 -283h-56q-166 158 -317 283zM547 297q0 -37 12 -51.5t41 -14.5q291 0 291 584q0 145 -42.5 203.5t-146.5 58.5q-20 0 -30 -11t-17 -44q-10 -51 -59 -380t-49 -345z" />
<glyph unicode="&#x10f;" horiz-adv-x="1146" d="M-27 -12l35 162q59 10 84 36.5t35 94.5l63 510q4 49 -2 67.5t-26 18.5l-51 -5l-17 25l33 141q197 -6 264 -6l264 10q483 0 484 -401q0 -303 -178.5 -481t-477.5 -178q-156 18 -262 18zM285 1397l86 127l49 14q47 -23 250 -104q102 37 274 104l45 -14l60 -127 q-184 -125 -392 -283h-55q-166 158 -317 283zM479 242q0 -41 25 -41q213 0 213 432q0 109 -24.5 146.5t-96.5 37.5q-27 0 -35 -43q-2 6 -22.5 -126t-40 -267t-19.5 -139z" />
<glyph unicode="&#x110;" horiz-adv-x="1392" d="M8 -16l41 190q74 12 103.5 47t44.5 123l24 201h-180l-18 16l49 182h174l35 287q8 63 0.5 87t-35.5 24l-64 -4l-16 28l39 166q223 -6 305 -6l313 12q281 0 430.5 -131t149.5 -383q0 -383 -217.5 -615.5t-573.5 -232.5q-188 25 -313 25zM588 297q0 -37 12 -51.5t41 -14.5 q291 0 291 584q0 145 -42.5 203.5t-146.5 58.5q-20 0 -30.5 -11t-16.5 -44t-45 -277l144 7l14 -21l-37 -184h-149q-35 -227 -35 -250z" />
<glyph unicode="&#x111;" horiz-adv-x="1183" d="M10 -12l35 162q59 10 84 36.5t35 94.5l16 133h-141l-14 12l41 158h135l26 207q4 49 -2 67.5t-26 18.5l-52 -5l-16 25l33 141q197 -6 264 -6l264 10q483 0 484 -401q0 -303 -178.5 -481t-477.5 -178q-156 18 -262 18zM516 242q0 -41 25 -41q213 0 213 432 q0 109 -24.5 146.5t-96.5 37.5q-27 0 -35 -43l-1 -2q-1 -2 -2 -8t-2 -14.5t-3 -19.5t-4 -22.5t-5 -27.5t-5.5 -29.5t-5.5 -32t-5 -32.5l99 4l12 -17l-31 -159h-104q-25 -166 -25 -172z" />
<glyph unicode="&#x112;" horiz-adv-x="1200" d="M-41 -20l41 188q76 12 107.5 50t42.5 130l88 686q8 66 -0.5 88.5t-40.5 22.5l-52 -4l-20 28l39 162q287 -6 471 -6q426 0 618 25l23 -33q-63 -215 -96 -408l-287 -18q16 66 16 100q0 53 -36.5 70.5t-139.5 17.5q-39 0 -52 -10t-19 -45l-41 -231q18 0 75.5 -1t85.5 -1 l219 12l21 -29l-57 -235q-145 6 -236 6q-39 0 -149 -13q-29 -194 -29 -223q0 -45 17.5 -59t64.5 -14q123 0 169 39.5t81 177.5l264 18l22 -31q-61 -199 -108 -422l-35 -32q-324 14 -637 14zM479 1452l66 223q188 -2 305 -2l248 13l18 -37l-65 -224l-279 -2l-264 -2z" />
<glyph unicode="&#x113;" horiz-adv-x="1028" d="M-35 -16l35 159q61 10 87 40t34 102l67 508q6 51 -1 68.5t-31 17.5l-41 -2l-21 24l33 137q254 -6 414 -6q362 0 516 21l20 -29q-53 -176 -78 -328l-260 -14q14 47 15 72q0 39 -29 53t-107 14q-27 0 -37 -8t-14 -31l-30 -157h131l178 8l18 -27l-47 -198q-119 4 -190 4 q-2 0 -125 -9q-2 -10 -7.5 -41.5t-8.5 -59.5t-3 -42q0 -35 13.5 -46t48.5 -11q90 0 126 30.5t62 133.5l240 16l20 -27q-51 -158 -88 -340l-33 -26q-260 10 -532 10zM348 1157l66 223q188 -2 305 -2l248 13l18 -37l-65 -224l-279 -2l-264 -2z" />
<glyph unicode="&#x114;" horiz-adv-x="1200" d="M-41 -20l41 188q76 12 107.5 50t42.5 130l88 686q8 66 -0.5 88.5t-40.5 22.5l-52 -4l-20 28l39 162q287 -6 471 -6q426 0 618 25l23 -33q-63 -215 -96 -408l-287 -18q16 66 16 100q0 53 -36.5 70.5t-139.5 17.5q-39 0 -52 -10t-19 -45l-41 -231q18 0 75.5 -1t85.5 -1 l219 12l21 -29l-57 -235q-145 6 -236 6q-39 0 -149 -13q-29 -194 -29 -223q0 -45 17.5 -59t64.5 -14q123 0 169 39.5t81 177.5l264 18l22 -31q-61 -199 -108 -422l-35 -32q-324 14 -637 14zM408 1692l96 127l57 14q43 -143 205 -143q164 0 240 143l55 -14l65 -127 q-51 -119 -150 -199t-242.5 -80t-224.5 80t-101 199z" />
<glyph unicode="&#x115;" horiz-adv-x="1028" d="M-35 -16l35 159q61 10 87 40t34 102l67 508q6 51 -1 68.5t-31 17.5l-41 -2l-21 24l33 137q254 -6 414 -6q362 0 516 21l20 -29q-53 -176 -78 -328l-260 -14q14 47 15 72q0 39 -29 53t-107 14q-27 0 -37 -8t-14 -31l-30 -157h131l178 8l18 -27l-47 -198q-119 4 -190 4 q-2 0 -125 -9q-2 -10 -7.5 -41.5t-8.5 -59.5t-3 -42q0 -35 13.5 -46t48.5 -11q90 0 126 30.5t62 133.5l240 16l20 -27q-51 -158 -88 -340l-33 -26q-260 10 -532 10zM297 1386l98 127l58 15q18 -70 73 -107t129 -37q162 0 242 144l53 -15l66 -127q-51 -119 -150.5 -198.5 t-243 -79.5t-224.5 80t-101 198z" />
<glyph unicode="&#x116;" horiz-adv-x="1200" d="M-41 -20l41 188q76 12 107.5 50t42.5 130l88 686q8 66 -0.5 88.5t-40.5 22.5l-52 -4l-20 28l39 162q287 -6 471 -6q426 0 618 25l23 -33q-63 -215 -96 -408l-287 -18q16 66 16 100q0 53 -36.5 70.5t-139.5 17.5q-39 0 -52 -10t-19 -45l-41 -231q18 0 75.5 -1t85.5 -1 l219 12l21 -29l-57 -235q-145 6 -236 6q-39 0 -149 -13q-29 -194 -29 -223q0 -45 17.5 -59t64.5 -14q123 0 169 39.5t81 177.5l264 18l22 -31q-61 -199 -108 -422l-35 -32q-324 14 -637 14zM594 1563q0 111 64.5 177t170.5 66q80 0 124 -43t44 -123q0 -109 -64.5 -175 t-168.5 -66q-82 0 -126 43t-44 121z" />
<glyph unicode="&#x117;" horiz-adv-x="1028" d="M-35 -16l35 159q61 10 87 40t34 102l67 508q6 51 -1 68.5t-31 17.5l-41 -2l-21 24l33 137q254 -6 414 -6q362 0 516 21l20 -29q-53 -176 -78 -328l-260 -14q14 47 15 72q0 39 -29 53t-107 14q-27 0 -37 -8t-14 -31l-30 -157h131l178 8l18 -27l-47 -198q-119 4 -190 4 q-2 0 -125 -9q-2 -10 -7.5 -41.5t-8.5 -59.5t-3 -42q0 -35 13.5 -46t48.5 -11q90 0 126 30.5t62 133.5l240 16l20 -27q-51 -158 -88 -340l-33 -26q-260 10 -532 10zM463 1268q0 111 64.5 177t170.5 66q80 0 124 -43t44 -122q0 -109 -64.5 -175.5t-168.5 -66.5q-82 0 -126 43 t-44 121z" />
<glyph unicode="&#x118;" horiz-adv-x="1200" d="M-41 -20l41 188q76 12 107.5 50t42.5 130l88 686q8 66 -0.5 88.5t-40.5 22.5l-52 -4l-20 28l39 162q287 -6 471 -6q426 0 618 25l23 -33q-63 -215 -96 -408l-287 -18q16 66 16 100q0 53 -36.5 70.5t-139.5 17.5q-39 0 -52 -10t-19 -45l-41 -231q18 0 75.5 -1t85.5 -1 l219 12l21 -29l-57 -235q-145 6 -236 6q-39 0 -149 -13q-29 -195 -29 -223q0 -45 17.5 -59t64.5 -14q123 0 169 39.5t81 177.5l264 18l22 -31q-61 -199 -108 -422l-35 -32q-25 2 -63 4q-88 -104 -115 -151.5t-27 -86.5q0 -31 18.5 -50t49.5 -19q25 0 58.5 13t54.5 25l22 13 l43 -82q-127 -111 -225 -148q-115 0 -178.5 44t-63.5 120q0 70 42 138.5t165 187.5q-176 6 -418 6z" />
<glyph unicode="&#x119;" horiz-adv-x="1028" d="M-35 -16l35 159q61 10 87 40t34 102l67 508q6 51 -1 68.5t-31 17.5l-41 -2l-21 24l33 137q254 -6 414 -6q362 0 516 21l20 -29q-53 -176 -78 -328l-260 -14q14 47 15 72q0 39 -29 53t-107 14q-27 0 -37 -8t-14 -31l-30 -157h131l178 8l18 -27l-47 -198q-119 4 -190 4 q-2 0 -125 -9q-2 -10 -7.5 -41.5t-8.5 -59.5t-3 -42q0 -35 13.5 -46t48.5 -11q90 0 126 30.5t62 133.5l240 16l20 -27q-51 -158 -88 -340l-33 -26q-16 2 -34 2q-88 -106 -116 -153.5t-28 -86.5q0 -31 18.5 -50t49.5 -19q25 0 58.5 13t55.5 25l21 13l43 -82 q-127 -111 -225 -148q-115 0 -178.5 44t-63.5 120q0 70 43 140.5t166 187.5q-193 4 -342 4z" />
<glyph unicode="&#x11a;" horiz-adv-x="1200" d="M-41 -20l41 188q76 12 107.5 50t42.5 130l88 686q8 66 -0.5 88.5t-40.5 22.5l-52 -4l-20 28l39 162q287 -6 471 -6q426 0 618 25l23 -33q-63 -215 -96 -408l-287 -18q16 66 16 100q0 53 -36.5 70.5t-139.5 17.5q-39 0 -52 -10t-19 -45l-41 -231q18 0 75.5 -1t85.5 -1 l219 12l21 -29l-57 -235q-145 6 -236 6q-39 0 -149 -13q-29 -194 -29 -223q0 -45 17.5 -59t64.5 -14q123 0 169 39.5t81 177.5l264 18l22 -31q-61 -199 -108 -422l-35 -32q-324 14 -637 14zM420 1692l86 127l49 14q47 -23 250 -104q102 37 274 104l45 -14l60 -127 q-184 -125 -391 -283h-56q-166 158 -317 283z" />
<glyph unicode="&#x11b;" horiz-adv-x="1028" d="M-35 -16l35 159q61 10 87 40t34 102l67 508q6 51 -1 68.5t-31 17.5l-41 -2l-21 24l33 137q254 -6 414 -6q362 0 516 21l20 -29q-53 -176 -78 -328l-260 -14q14 47 15 72q0 39 -29 53t-107 14q-27 0 -37 -8t-14 -31l-30 -157h131l178 8l18 -27l-47 -198q-119 4 -190 4 q-2 0 -125 -9q-2 -10 -7.5 -41.5t-8.5 -59.5t-3 -42q0 -35 13.5 -46t48.5 -11q90 0 126 30.5t62 133.5l240 16l20 -27q-51 -158 -88 -340l-33 -26q-260 10 -532 10zM287 1397l86 127l49 14q47 -23 250 -104q102 37 274 104l45 -14l60 -127q-184 -125 -392 -283h-55 q-166 158 -317 283z" />
<glyph unicode="&#x11c;" horiz-adv-x="1265" d="M37 530q0 401 192.5 610.5t561.5 209.5l454 -54l12 -41q-66 -160 -110 -409l-320 -19q23 94 23 131q0 109 -135 109q-113 0 -160 -119t-47 -399q0 -154 31.5 -218.5t107.5 -64.5l113 25l14 129q6 49 -4 66.5t-45 17.5l-63 -2l-15 28l47 195h307q221 0 222 10l6 -119 q-82 -51 -99 -153q-41 -213 -40 -307l2 -78l-29 -33q-166 -68 -492 -68q-256 0 -395 143.5t-139 409.5zM430 1593q176 141 373 320h55q156 -178 295 -320l-109 -127l-49 -14q-55 43 -204 141q-147 -82 -236 -141l-47 14z" />
<glyph unicode="&#x11d;" horiz-adv-x="1075" d="M39 414q0 637 625 637q63 0 160.5 -10.5t161.5 -20.5l65 -10l12 -35q-55 -127 -94 -328l-289 -16q20 76 20 102q0 78 -100 78q-80 0 -110.5 -85t-30.5 -304q0 -109 19.5 -150t72.5 -41l78 13l10 84q4 35 -3 48t-34 13l-45 -2l-14 27l41 161q180 2 262 3q188 0 188 8 l4 -103q-68 -41 -82 -116q-35 -162 -34 -246v-62l-25 -28q-135 -47 -414 -47q-215 0 -329.5 110.5t-114.5 319.5zM295 1298q176 141 373 320h55q156 -178 295 -320l-109 -127l-49 -14q-55 43 -205 141q-147 -82 -235 -141l-47 14z" />
<glyph unicode="&#x11e;" horiz-adv-x="1265" d="M37 530q0 401 192.5 610.5t561.5 209.5l454 -54l12 -41q-66 -160 -110 -409l-320 -19q23 94 23 131q0 109 -135 109q-113 0 -160 -119t-47 -399q0 -154 31.5 -218.5t107.5 -64.5l113 25l14 129q6 49 -4 66.5t-45 17.5l-63 -2l-15 28l47 195h307q221 0 222 10l6 -119 q-82 -51 -99 -153q-41 -213 -40 -307l2 -78l-29 -33q-166 -68 -492 -68q-256 0 -395 143.5t-139 409.5zM446 1702l99 127l57 14q18 -70 73.5 -106.5t129.5 -36.5q162 0 242 143l53 -14l65 -127q-51 -119 -150.5 -199t-242.5 -80t-224 80t-102 199z" />
<glyph unicode="&#x11f;" horiz-adv-x="1075" d="M39 414q0 637 625 637q63 0 160.5 -10.5t161.5 -20.5l65 -10l12 -35q-55 -127 -94 -328l-289 -16q20 76 20 102q0 78 -100 78q-80 0 -110.5 -85t-30.5 -304q0 -109 19.5 -150t72.5 -41l78 13l10 84q4 35 -3 48t-34 13l-45 -2l-14 27l41 161q180 2 262 3q188 0 188 8 l4 -103q-68 -41 -82 -116q-35 -162 -34 -246v-62l-25 -28q-135 -47 -414 -47q-215 0 -329.5 110.5t-114.5 319.5zM305 1407l98 127l58 14q18 -70 73.5 -106.5t129.5 -36.5q162 0 241 143l53 -14l66 -127q-51 -119 -150.5 -199t-243 -80t-224 80t-101.5 199z" />
<glyph unicode="&#x120;" horiz-adv-x="1265" d="M37 530q0 401 192.5 610.5t561.5 209.5l454 -54l12 -41q-66 -160 -110 -409l-320 -19q23 94 23 131q0 109 -135 109q-113 0 -160 -119t-47 -399q0 -154 31.5 -218.5t107.5 -64.5l113 25l14 129q6 49 -4 66.5t-45 17.5l-63 -2l-15 28l47 195h307q221 0 222 10l6 -119 q-82 -51 -99 -153q-41 -213 -40 -307l2 -78l-29 -33q-166 -68 -492 -68q-256 0 -395 143.5t-139 409.5zM627 1563q0 111 64.5 177t170.5 66q80 0 124 -43t44 -123q0 -109 -64.5 -175t-168.5 -66q-82 0 -126 43t-44 121z" />
<glyph unicode="&#x121;" horiz-adv-x="1075" d="M39 414q0 637 625 637q63 0 160.5 -10.5t161.5 -20.5l65 -10l12 -35q-55 -127 -94 -328l-289 -16q20 76 20 102q0 78 -100 78q-80 0 -110.5 -85t-30.5 -304q0 -109 19.5 -150t72.5 -41l78 13l10 84q4 35 -3 48t-34 13l-45 -2l-14 27l41 161q180 2 262 3q188 0 188 8 l4 -103q-68 -41 -82 -116q-35 -162 -34 -246v-62l-25 -28q-135 -47 -414 -47q-215 0 -329.5 110.5t-114.5 319.5zM485 1268q0 111 64.5 177t171.5 66q82 0 125 -43t43 -122q0 -109 -65 -175.5t-169 -66.5q-82 0 -126 43t-44 121z" />
<glyph unicode="&#x122;" horiz-adv-x="1265" d="M37 530q0 401 192.5 610.5t561.5 209.5l454 -54l12 -41q-66 -160 -110 -409l-320 -19q23 94 23 131q0 109 -135 109q-113 0 -160 -119t-47 -399q0 -154 31.5 -218.5t107.5 -64.5l113 25l14 129q6 49 -4 66.5t-45 17.5l-63 -2l-15 28l47 195h307q221 0 222 10l6 -119 q-82 -51 -99 -153q-41 -213 -40 -307l2 -78l-29 -33q-166 -68 -492 -68q-256 0 -395 143.5t-139 409.5zM295 -561q59 43 95 102.5t36 114.5q0 90 -59 156l6 28q117 90 209 90q78 0 126 -56t48 -150q0 -109 -92.5 -224.5t-249.5 -206.5l-119 95v51z" />
<glyph unicode="&#x123;" horiz-adv-x="1075" d="M39 414q0 637 625 637q63 0 160.5 -10.5t161.5 -20.5l65 -10l12 -35q-55 -127 -94 -328l-289 -16q20 76 20 102q0 78 -100 78q-80 0 -110.5 -85t-30.5 -304q0 -109 19.5 -150t72.5 -41l78 13l10 84q4 35 -3 48t-34 13l-45 -2l-14 27l41 161q180 2 262 3q188 0 188 8 l4 -103q-68 -41 -82 -116q-35 -162 -34 -246v-62l-25 -28q-135 -47 -414 -47q-215 0 -329.5 110.5t-114.5 319.5zM225 -561q59 43 95 102.5t36 114.5q0 90 -59 156l6 28q117 90 209 90q78 0 126 -56t48 -150q0 -109 -92 -224.5t-250 -206.5l-119 95v51z" />
<glyph unicode="&#x124;" horiz-adv-x="1466" d="M-35 -10l37 174q80 16 108.5 49t39.5 119l88 708q8 63 -4.5 84t-53.5 21l-51 -2l-14 28l35 154h258l405 10l-37 -184q-63 -12 -85.5 -31.5t-31.5 -75.5l-41 -247l158 -6q109 0 162 6l31 243q8 61 -4.5 83t-53.5 22l-53 -2l-14 28l35 154h381l301 10l-35 -180 q-74 -12 -98.5 -33t-34.5 -78q-27 -131 -70 -423.5t-43 -348.5q0 -90 63 -90l56 6l14 -22l-39 -170q-113 2 -244 4h-100l-336 -2l37 178q70 2 104.5 37t45.5 119l26 209q-59 2 -108 2l-221 -19l-25 -205q-6 -45 -6 -75q0 -37 11 -51.5t40 -14.5l53 6l15 -20l-39 -172 q-248 8 -330 8zM504 1647q176 141 373 319h55q156 -178 295 -319l-109 -127l-49 -15q-55 43 -205 142q-147 -82 -235 -142l-47 15z" />
<glyph unicode="&#x125;" horiz-adv-x="1245" d="M-29 -6l31 147q63 12 87 35t32 84l67 539q6 49 -4 64.5t-45 15.5h-41l-12 24l29 129h217l358 6l-31 -155q-51 -10 -68.5 -23.5t-23.5 -48.5l-32 -180l112 -6q80 0 121 4l23 170q4 49 -5.5 64.5t-44.5 15.5h-43l-12 24l29 129h336l258 6l-31 -151q-59 -10 -80 -25.5 t-29 -60.5q-18 -78 -52 -305.5t-34 -270.5q0 -70 54 -69l41 4q2 -4 7 -10.5t7 -10.5l-33 -141q-88 0 -203 2h-86l-299 -2l31 152q106 2 121 112l20 148q-35 2 -71 2l-170 -15l-19 -153q-2 -10 -3 -23.5t-1 -17.5q0 -31 9.5 -41t31.5 -10l41 4l12 -19l-30 -143q-223 6 -293 6 q-43 0 -115 -2t-118 -3zM352 1352q176 141 373 319h55q156 -178 295 -319l-108 -127l-49 -15q-55 43 -205 142q-147 -82 -236 -142l-47 15z" />
<glyph unicode="&#x126;" horiz-adv-x="1466" d="M-35 -10l37 174q80 16 108.5 49t39.5 119l69 561h-166l-22 20l16 119q80 -2 189 -2l2 10q8 63 -4.5 84t-53.5 21l-51 -2l-14 28l35 154h258l405 10l-37 -184q-63 -12 -85.5 -31.5t-31.5 -75.5l-2 -14h207h103l2 10q8 61 -4.5 83t-53.5 22l-53 -2l-14 28l35 154h381 l301 10l-35 -180q-74 -12 -98.5 -33t-34.5 -78l-1 -4l-1 -4q152 4 151 4l31 -30l-10 -113l-197 -2q-86 -520 -86 -623q0 -90 63 -90l56 6l14 -22l-39 -170q-113 2 -244 4h-100l-336 -2l37 178q70 2 104.5 37t45.5 119l26 209q-59 2 -108 2l-221 -19l-25 -205q-6 -45 -6 -75 q0 -37 11 -51.5t40 -14.5l53 6l15 -20l-39 -172q-248 8 -330 8zM618 797l158 -6q109 0 162 6l12 98h-139h-176z" />
<glyph unicode="&#x127;" horiz-adv-x="1245" d="M-29 -6l31 147q63 12 87 35t32 84l53 430h-135l-19 17l13 98q66 -2 155 -2q6 45 -5 60.5t-44 15.5h-41l-12 24l29 129h217l358 6l-31 -155q-51 -10 -68.5 -23.5t-23.5 -48.5l-2 -8h158h68q4 45 -6.5 60.5t-43.5 15.5h-43l-12 24l29 129h336l258 6l-31 -151 q-57 -10 -77.5 -24.5t-29.5 -55.5l121 4l27 -25l-8 -92l-162 -2q-66 -371 -66 -467q0 -70 54 -69l41 4q2 -4 7 -10.5t7 -10.5l-33 -141q-88 0 -203 2h-86l-299 -2l31 152q106 2 121 112l20 148q-35 2 -71 2l-170 -15l-19 -153q-2 -10 -3 -23.5t-1 -17.5q0 -31 9.5 -41 t31.5 -10l41 4l12 -19l-30 -143q-223 6 -293 6q-43 0 -115 -2t-118 -3zM535 631l112 -6q80 0 121 4l8 63h-98h-133z" />
<glyph unicode="&#x128;" horiz-adv-x="735" d="M-35 -10l37 174q82 18 109.5 50t38.5 118l88 708q8 63 -4.5 84t-53.5 21l-49 -2l-16 28l35 154h325l348 10l-37 -184q-68 -10 -90 -30t-34 -77q-31 -168 -73 -450.5t-42 -337.5q0 -45 11 -61.5t40 -16.5l64 6l12 -20l-39 -172q-250 8 -334 8zM100 1544l4 33l191 235l35 9 q37 0 153.5 -35t145.5 -35q20 0 57 29.5t64 59.5l26 30h33l109 -111l-5 -33l-190 -235l-35 -8q-37 0 -153.5 34.5t-145.5 34.5q-23 0 -59.5 -29.5t-62.5 -59.5l-25 -29h-33z" />
<glyph unicode="&#x129;" horiz-adv-x="641" d="M-27 -6l29 147q68 14 90.5 39t28.5 90l67 529q6 49 -4 64.5t-45 15.5h-37q-6 8 -14 24l29 129h278l303 6l-30 -155q-55 -8 -73 -22.5t-28 -59.5q-20 -106 -54 -325.5t-34 -264.5q0 -35 9.5 -47t31.5 -12l49 4l11 -19l-33 -143q-215 6 -285 6zM14 1249l4 33l191 236l35 8 q37 0 153.5 -35t145.5 -35q20 0 57 30t64 59l26 30h33l108 -111l-4 -32l-190 -236l-35 -8q-37 0 -153.5 34.5t-145.5 34.5q-23 0 -59.5 -29.5t-62.5 -59.5l-25 -29h-33z" />
<glyph unicode="&#x12a;" horiz-adv-x="735" d="M-35 -10l37 174q82 18 109.5 50t38.5 118l88 708q8 63 -4.5 84t-53.5 21l-49 -2l-16 28l35 154h325l348 10l-37 -184q-68 -10 -90 -30t-34 -77q-31 -168 -73 -450.5t-42 -337.5q0 -45 11 -61.5t40 -16.5l64 6l12 -20l-39 -172q-250 8 -334 8zM195 1452l65 223 q188 -2 305 -2l248 13l18 -37l-65 -224l-279 -2l-264 -2z" />
<glyph unicode="&#x12b;" horiz-adv-x="641" d="M-27 -6l29 147q68 14 90.5 39t28.5 90l67 529q6 49 -4 64.5t-45 15.5h-37q-6 8 -14 24l29 129h278l303 6l-30 -155q-55 -8 -73 -22.5t-28 -59.5q-20 -106 -54 -325.5t-34 -264.5q0 -35 9.5 -47t31.5 -12l49 4l11 -19l-33 -143q-215 6 -285 6zM109 1157l65 223 q188 -2 305 -2l248 13l18 -37l-65 -224l-279 -2l-264 -2z" />
<glyph unicode="&#x12c;" horiz-adv-x="735" d="M-35 -10l37 174q82 18 109.5 50t38.5 118l88 708q8 63 -4.5 84t-53.5 21l-49 -2l-16 28l35 154h325l348 10l-37 -184q-68 -10 -90 -30t-34 -77q-31 -168 -73 -450.5t-42 -337.5q0 -45 11 -61.5t40 -16.5l64 6l12 -20l-39 -172q-250 8 -334 8zM162 1702l98 127l57 14 q18 -70 73.5 -106.5t129.5 -36.5q162 0 242 143l53 -14l66 -127q-51 -119 -150.5 -199t-243 -80t-224.5 80t-101 199z" />
<glyph unicode="&#x12d;" horiz-adv-x="641" d="M-27 -6l29 147q68 14 90.5 39t28.5 90l67 529q6 49 -4 64.5t-45 15.5h-37q-6 8 -14 24l29 129h278l303 6l-30 -155q-55 -8 -73 -22.5t-28 -59.5q-20 -106 -54 -325.5t-34 -264.5q0 -35 9.5 -47t31.5 -12l49 4l11 -19l-33 -143q-215 6 -285 6zM66 1386l98 127l57 15 q18 -70 73.5 -107t129.5 -37q162 0 242 144l53 -15l65 -127q-51 -119 -150 -198.5t-242.5 -79.5t-224.5 80t-101 198z" />
<glyph unicode="&#x12e;" horiz-adv-x="735" d="M-35 -10l37 174q82 18 109.5 50t38.5 118l88 708q8 63 -4.5 84t-53.5 21l-49 -2l-16 28l35 154h325l348 10l-37 -184q-68 -10 -90 -29.5t-34 -77.5q-31 -168 -73 -450.5t-42 -337.5q0 -45 11 -61.5t40 -16.5l64 6l12 -20l-39 -172q-45 2 -94 4q-90 -109 -119 -157 t-29 -87q0 -31 18.5 -50t49.5 -19q25 0 58.5 13t54.5 25l22 13l43 -82q-127 -111 -225 -148q-115 0 -178.5 44t-63.5 120q0 70 43 140.5t170 191.5h-84z" />
<glyph unicode="&#x12f;" horiz-adv-x="641" d="M-27 -6l29 147q68 14 90.5 39t28.5 90l67 529q6 49 -4 64.5t-45 15.5h-37q-6 8 -14 24l29 129h278l303 6l-30 -155q-55 -8 -72.5 -22.5t-28.5 -59.5q-20 -106 -54 -325.5t-34 -264.5q0 -35 9.5 -47t31.5 -12l49 4l11 -19l-33 -143q-29 2 -64 2q-90 -109 -118.5 -157 t-28.5 -87q0 -31 18.5 -50t48.5 -19q25 0 59 13t55 25l22 13l43 -82q-127 -111 -226 -148q-115 0 -178 44t-63 120q0 70 43 140.5t170 191.5h-66z" />
<glyph unicode="&#x130;" horiz-adv-x="735" d="M-35 -10l37 174q82 18 109.5 50t38.5 118l88 708q8 63 -4.5 84t-53.5 21l-49 -2l-16 28l35 154h325l348 10l-37 -184q-68 -10 -90 -30t-34 -77q-31 -168 -73 -450.5t-42 -337.5q0 -45 11 -61.5t40 -16.5l64 6l12 -20l-39 -172q-250 8 -334 8zM309 1563q0 111 64.5 177 t171.5 66q82 0 125 -43t43 -123q0 -109 -65 -175t-169 -66q-82 0 -126 43t-44 121z" />
<glyph unicode="&#x131;" horiz-adv-x="641" d="M-27 -6l29 147q68 14 90.5 39t28.5 90l67 529q6 49 -4 64.5t-45 15.5h-37q-6 8 -14 24l29 129h278l303 6l-30 -155q-55 -8 -73 -22.5t-28 -59.5q-20 -106 -54 -325.5t-34 -264.5q0 -35 9.5 -47t31.5 -12l49 4l11 -19l-33 -143q-215 6 -285 6z" />
<glyph unicode="&#x132;" horiz-adv-x="1409" d="M-35 -10l37 174q82 18 109.5 50t38.5 118l88 708q8 63 -4.5 84t-53.5 21l-49 -2l-16 28l35 154h325l348 10l-37 -184q-68 -10 -90 -30t-34 -77q-31 -168 -73 -450.5t-42 -337.5q0 -45 11 -61.5t40 -16.5l64 6l12 -20l-39 -172q-250 8 -334 8zM592 -238l8 31 q133 96 184 187t78 290l94 770q8 63 -1 84t-48 21l-71 -4l-15 28l35 156l285 2l387 14l-41 -190q-59 -14 -76.5 -31.5t-28.5 -75.5q-63 -322 -131 -870q-29 -197 -169 -319.5t-418 -190.5z" />
<glyph unicode="&#x133;" horiz-adv-x="1204" d="M-27 -6l29 147q68 14 90.5 39t28.5 90l67 529q6 49 -4 64.5t-45 15.5h-37q-6 8 -14 24l29 129h278l303 6l-30 -155q-55 -8 -73 -22.5t-28 -59.5q-20 -106 -54 -325.5t-34 -264.5q0 -35 9.5 -47t31.5 -12l49 4l11 -19l-33 -143q-215 6 -285 6zM494 -186l6 26 q113 78 154 147.5t61 227.5l71 584q6 49 -1 65.5t-40 16.5l-55 -4l-14 26l29 129l243 2l338 10l-35 -161q-47 -10 -60 -24.5t-22 -57.5q-51 -246 -104 -674q-23 -152 -143.5 -247t-362.5 -146z" />
<glyph unicode="&#x134;" horiz-adv-x="673" d="M-143 -238l8 31q133 96 184 187t78 290l94 770q8 63 -1 84t-48 21l-72 -4l-14 28l35 156l285 2l387 14l-41 -190q-59 -14 -77 -31.5t-28 -75.5q-63 -322 -131 -870q-29 -197 -169 -319.5t-419 -190.5zM135 1593q176 141 373 320h55q156 -178 295 -320l-108 -127l-50 -14 q-55 43 -204 141q-147 -82 -236 -141l-47 14z" />
<glyph unicode="&#x135;" horiz-adv-x="591" d="M-119 -186l6 26q113 78 154 147.5t61 227.5l72 584q6 49 -1 65.5t-40 16.5l-55 -4l-15 26l29 129l244 2l338 10l-35 -161q-47 -10 -60.5 -24.5t-21.5 -57.5q-51 -246 -104 -674q-23 -152 -144 -247t-362 -146zM51 1298q176 141 373 320h55q156 -178 295 -320l-108 -127 l-50 -14q-55 43 -204 141q-147 -82 -236 -141l-47 14z" />
<glyph unicode="&#x136;" horiz-adv-x="1384" d="M-35 -10l37 174q80 16 110 49t38 119l88 708q8 63 -4.5 84t-53.5 21l-51 -2l-14 28l37 156q289 -2 323 -2l350 10l-37 -184q-78 -20 -103.5 -42t-29.5 -73l-102 -717q-10 -84 -2 -112.5t47 -28.5l64 6l14 -20l-39 -172q-252 8 -336 8zM373 -561q59 43 95 102.5t36 114.5 q-1 90 -60 156l7 28q117 90 208 90q78 0 126.5 -56t48.5 -150q0 -109 -92.5 -224.5t-249.5 -206.5l-119 95v51zM610 649l19 62l231 256q70 74 70 123q0 27 -16.5 39t-55.5 14l-10 20l39 168q195 -6 287 -6l292 10l15 -30l-37 -154q-160 -88 -295 -260l-123 -162l133 -373 q33 -90 71 -132t97 -52l19 -31l-41 -151q-264 -23 -316 -23q-78 0 -120 36t-76 130z" />
<glyph unicode="&#x137;" horiz-adv-x="1193" d="M-29 -8l31 145q66 14 89.5 39.5t29.5 93.5l67 529q6 49 -4 64.5t-45 15.5h-41l-12 24l31 131q254 -2 278 -2l307 6l-32 -155q-66 -16 -86.5 -32.5t-22.5 -55.5l-76 -533q-10 -66 -3 -88t38 -22l49 4l15 -19l-33 -143q-219 6 -289 6zM299 -561q59 43 95 102.5t36 114.5 q0 90 -59 156l6 28q117 90 209 90q78 0 126 -56t48 -150q0 -109 -92.5 -224.5t-249.5 -206.5l-119 95v51zM524 506l17 51l172 182q57 57 57 96t-55 42l-8 18l30 141q168 -4 246 -4l256 8l12 -26l-30 -129q-139 -78 -248 -213l-76 -101l98 -278q25 -70 55.5 -102.5 t77.5 -43.5l17 -26l-35 -129q-231 -18 -276 -19q-70 0 -104 27t-62 102z" />
<glyph unicode="&#x138;" horiz-adv-x="1193" d="M-29 -8l31 145q66 14 89.5 39.5t29.5 93.5l67 529q6 49 -4 64.5t-45 15.5h-41l-12 24l31 131q254 -2 278 -2l307 6l-32 -155q-66 -16 -86.5 -32.5t-22.5 -55.5l-76 -533q-10 -66 -3 -88t38 -22l49 4l15 -19l-33 -143q-219 6 -289 6zM524 506l17 51l172 182q57 57 57 96 t-55 42l-8 18l30 141q168 -4 246 -4l256 8l12 -26l-30 -129q-139 -78 -248 -213l-76 -101l98 -278q25 -70 55.5 -102.5t77.5 -43.5l17 -26l-35 -129q-231 -18 -276 -19q-70 0 -104 27t-62 102z" />
<glyph unicode="&#x139;" horiz-adv-x="1112" d="M-41 -20l41 188q76 12 107.5 50t42.5 130l86 692q8 63 -4.5 84t-53.5 21l-51 -2l-14 28l34 154h326l422 10l-47 -200q-104 -10 -143 -32t-48 -75q-106 -598 -106 -727q0 -66 59 -65q102 0 146.5 64.5t79.5 268.5l266 27l20 -31q-61 -262 -114 -547l-35 -32 q-295 14 -586 14q-92 0 -198.5 -5t-168.5 -10zM205 1587q251 94 510 205l33 -10l73 -221l-14 -33q-266 -49 -520 -113l-39 27z" />
<glyph unicode="&#x13a;" horiz-adv-x="964" d="M-35 -16l33 159q63 10 89 40t34 102l65 514q6 49 -4 64.5t-45 15.5h-41l-12 24l29 129h280l373 6l-41 -170q-86 -8 -121 -23.5t-39 -47.5q-82 -451 -82 -547q0 -47 39 -47q78 0 112 52t60 214l240 23q16 -20 18 -27q-49 -215 -92 -447l-31 -28q-239 10 -493 10zM102 1292 q251 94 510 205l33 -10l74 -221l-14 -33q-266 -49 -521 -113l-39 27z" />
<glyph unicode="&#x13b;" horiz-adv-x="1112" d="M-41 -20l41 188q76 12 107.5 50t42.5 130l86 692q8 63 -4.5 84t-53.5 21l-51 -2l-14 28l34 154h326l422 10l-47 -200q-104 -10 -143 -32t-48 -75q-106 -598 -106 -727q0 -66 59 -65q102 0 146.5 64.5t79.5 268.5l266 27l20 -31q-61 -262 -114 -547l-35 -32 q-295 14 -586 14q-92 0 -198.5 -5t-168.5 -10zM199 -561q59 43 95 102.5t36 114.5q-1 90 -60 156l6 28q117 90 209 90q78 0 126 -56t48 -150q0 -109 -92 -224.5t-250 -206.5l-118 95v51z" />
<glyph unicode="&#x13c;" horiz-adv-x="964" d="M-35 -16l33 159q63 10 89 40t34 102l65 514q6 49 -4 64.5t-45 15.5h-41l-12 24l29 129h280l373 6l-41 -170q-86 -8 -121 -23.5t-39 -47.5q-82 -451 -82 -547q0 -47 39 -47q78 0 112 52t60 214l240 23q16 -20 18 -27q-49 -215 -92 -447l-31 -28q-239 10 -493 10zM143 -561 q59 43 95 102.5t36 114.5q0 90 -59 156l6 28q117 90 209 90q78 0 126 -56t48 -150q0 -109 -92 -224.5t-250 -206.5l-119 95v51z" />
<glyph unicode="&#x13d;" horiz-adv-x="1189" d="M-41 -20l41 188q76 12 107.5 50t42.5 130l86 692q8 63 -4.5 84t-53.5 21l-51 -2l-14 28l34 154h326l422 10l-47 -200q-104 -10 -143 -32t-48 -75q-106 -598 -106 -727q0 -66 59 -65q102 0 146.5 64.5t79.5 268.5l266 27l20 -31q-61 -262 -114 -547l-35 -32 q-295 14 -586 14q-92 0 -198.5 -5t-168.5 -10zM961 1296l274 29l18 -25q-33 -223 -86 -452l-149 -51l-39 12q2 109 -3 230.5t-10 189.5z" />
<glyph unicode="&#x13e;" horiz-adv-x="1048" d="M-35 -16l33 159q63 10 89 40t34 102l65 514q6 49 -4 64.5t-45 15.5h-41l-12 24l29 129h280l373 6l-41 -170q-86 -8 -121 -23.5t-39 -47.5q-82 -451 -82 -547q0 -47 39 -47q78 0 112 52t60 214l240 23q16 -20 18 -27q-49 -215 -92 -447l-31 -28q-239 10 -493 10zM809 1012 l242 20l14 -18q-25 -174 -70 -355l-133 -43l-35 11q2 194 -18 385z" />
<glyph unicode="&#x13f;" horiz-adv-x="1234" d="M-41 -20l41 188q76 12 107.5 50t42.5 130l86 692q8 63 -4.5 84t-53.5 21l-51 -2l-14 28l34 154h326l422 10l-47 -200q-104 -10 -143 -32t-48 -75q-106 -598 -106 -727q0 -66 59 -65q102 0 146.5 64.5t79.5 268.5l266 27l20 -31q-61 -262 -114 -547l-35 -32 q-295 14 -586 14q-92 0 -198.5 -5t-168.5 -10zM850 938q0 111 64.5 177.5t170.5 66.5q80 0 123 -44t43 -122q0 -109 -64.5 -175.5t-168.5 -66.5q-168 0 -168 164z" />
<glyph unicode="&#x140;" horiz-adv-x="1110" d="M-35 -16l33 159q63 10 89 40t34 102l65 514q6 49 -4 64.5t-45 15.5h-41l-12 24l29 129h280l373 6l-41 -170q-86 -8 -121 -23.5t-39 -47.5q-82 -451 -82 -547q0 -47 39 -47q78 0 112 52t60 214l240 23q16 -20 18 -27q-49 -215 -92 -447l-31 -28q-239 10 -493 10zM739 721 q0 100 60.5 161.5t156.5 61.5q74 0 113 -40t39 -111q0 -100 -58.5 -161t-154.5 -61q-156 0 -156 150z" />
<glyph unicode="&#x141;" horiz-adv-x="1112" d="M-41 -20l41 188q76 12 107.5 50t42.5 130l14 119l-74 -37l-20 4l-64 193l189 94l41 319q8 63 -4.5 84t-53.5 21l-51 -2l-14 28l34 154h326l422 10l-47 -200q-104 -10 -143 -32t-48 -75l-22 -133l153 78l19 -8l63 -191l-278 -139q-41 -276 -41 -334q0 -66 59 -65 q102 0 146.5 64.5t79.5 268.5l266 27l20 -31q-61 -262 -114 -547l-35 -32q-295 14 -586 14q-92 0 -198.5 -5t-168.5 -10z" />
<glyph unicode="&#x142;" horiz-adv-x="999" d="M0 -16l33 159q63 10 88.5 40t34.5 102l8 61l-53 -24l-19 2l-59 168l157 75l31 232q6 49 -4 64.5t-45 15.5h-41l-12 24l28 129h281l373 6l-41 -170q-86 -8 -121 -23.5t-39 -47.5l-16 -84l106 49l15 -6l59 -166l-217 -103q-29 -186 -29 -237q0 -47 39 -47q78 0 111.5 52 t60.5 214l240 23q14 -20 18 -27q-49 -215 -92 -447l-31 -28q-239 10 -493 10z" />
<glyph unicode="&#x143;" horiz-adv-x="1470" d="M-25 -16l43 184q59 8 90 38t39 91l111 715q10 72 -14.5 95t-116.5 34l-21 28l31 166q150 -10 299 -10l262 8q57 -147 129 -310t115 -252l43 -89h31l37 375q4 51 -7.5 69.5t-46.5 18.5h-61l-8 22l31 166q223 -8 335 -8q281 0 281 6l-33 -184q-63 -8 -91 -37t-38 -92 l-151 -1018l-394 -25q-166 380 -307 670h-31l-36 -364q-6 -59 7 -82t58 -23l66 8l16 -18l-43 -174q-225 8 -309 8zM518 1587q251 94 510 205l33 -10l74 -221l-15 -33q-266 -49 -520 -113l-39 27z" />
<glyph unicode="&#x144;" horiz-adv-x="1255" d="M-20 -12l36 155q49 6 74 30t33 71l84 530q8 55 -11.5 72.5t-95.5 27.5l-20 25l26 141q127 -8 263 -8l231 6q43 -102 96.5 -215.5t85.5 -176.5l33 -62h27l22 227q4 41 -5 55.5t-40 14.5h-49l-8 18l24 139q197 -6 295 -6q242 0 242 4l-27 -155q-51 -8 -73.5 -30t-30.5 -71 l-117 -772l-362 -18l-228 454h-28l-21 -211q-4 -47 7.5 -65t50.5 -18l51 6l14 -15l-35 -147q-199 6 -268 6zM358 1292q251 94 510 205l33 -10l74 -221l-14 -33q-266 -49 -521 -113l-39 27z" />
<glyph unicode="&#x145;" horiz-adv-x="1470" d="M-25 -16l43 184q59 8 90 38t39 91l111 715q10 72 -14.5 95t-116.5 34l-21 28l31 166q150 -10 299 -10l262 8q57 -147 129 -310t115 -252l43 -89h31l37 375q4 51 -7.5 69.5t-46.5 18.5h-61l-8 22l31 166q223 -8 335 -8q281 0 281 6l-33 -184q-63 -8 -91 -37t-38 -92 l-151 -1018l-394 -25q-166 380 -307 670h-31l-36 -364q-6 -59 7 -82t58 -23l66 8l16 -18l-43 -174q-225 8 -309 8zM395 -561q59 43 95 102.5t36 114.5q0 90 -59 156l6 28q117 90 209 90q78 0 126 -56t48 -150q0 -109 -92 -224.5t-250 -206.5l-119 95v51z" />
<glyph unicode="&#x146;" horiz-adv-x="1255" d="M-20 -12l36 155q49 6 74 30t33 71l84 530q8 55 -11.5 72.5t-95.5 27.5l-20 25l26 141q127 -8 263 -8l231 6q43 -102 96.5 -215.5t85.5 -176.5l33 -62h27l22 227q4 41 -5 55.5t-40 14.5h-49l-8 18l24 139q197 -6 295 -6q242 0 242 4l-27 -155q-51 -8 -73.5 -30t-30.5 -71 l-117 -772l-362 -18l-228 454h-28l-21 -211q-4 -47 7.5 -65t50.5 -18l51 6l14 -15l-35 -147q-199 6 -268 6zM313 -561q59 43 95 102.5t36 114.5q0 90 -59 156l6 28q117 90 209 90q78 0 126 -56t48 -150q0 -109 -92 -224.5t-250 -206.5l-119 95v51z" />
<glyph unicode="&#x147;" horiz-adv-x="1470" d="M-25 -16l43 184q59 8 90 38t39 91l111 715q10 72 -14.5 95t-116.5 34l-21 28l31 166q150 -10 299 -10l262 8q57 -147 129 -310t115 -252l43 -89h31l37 375q4 51 -7.5 69.5t-46.5 18.5h-61l-8 22l31 166q223 -8 335 -8q281 0 281 6l-33 -184q-63 -8 -91 -37t-38 -92 l-151 -1018l-394 -25q-166 380 -307 670h-31l-36 -364q-6 -59 7 -82t58 -23l66 8l16 -18l-43 -174q-225 8 -309 8zM518 1692l86 127l49 14q47 -23 250 -104q102 37 275 104l45 -14l59 -127q-184 -125 -391 -283h-55q-166 158 -318 283z" />
<glyph unicode="&#x148;" horiz-adv-x="1255" d="M-20 -12l36 155q49 6 74 30t33 71l84 530q8 55 -11.5 72.5t-95.5 27.5l-20 25l26 141q127 -8 263 -8l231 6q43 -102 96.5 -215.5t85.5 -176.5l33 -62h27l22 227q4 41 -5 55.5t-40 14.5h-49l-8 18l24 139q197 -6 295 -6q242 0 242 4l-27 -155q-51 -8 -73.5 -30t-30.5 -71 l-117 -772l-362 -18l-228 454h-28l-21 -211q-4 -47 7.5 -65t50.5 -18l51 6l14 -15l-35 -147q-199 6 -268 6zM367 1397l86 127l49 14q47 -23 250 -104q102 37 274 104l45 -14l59 -127q-184 -125 -391 -283h-55q-166 158 -317 283z" />
<glyph unicode="&#x14a;" horiz-adv-x="1464" d="M-16 -16l43 176q59 8 88.5 38.5t40.5 94.5l112 729q8 68 -17.5 92.5t-115.5 34.5l-20 29l30 157q184 -10 295 -10l246 8q61 -152 138 -322.5t123 -265.5l46 -94h29l43 414q6 51 -6 69.5t-49 18.5l-62 -2l-6 20l29 162q272 -8 332 -8l268 8l-31 -178q-66 -8 -94.5 -36.5 t-38.5 -92.5l-125 -852q-33 -209 -166 -334t-393 -192l-74 100l8 31q156 80 217 221q-76 172 -155.5 341t-120.5 253l-41 84h-29l-45 -406q-6 -57 8.5 -79.5t57.5 -22.5l69 6l15 -16l-41 -168q-203 8 -365 8z" />
<glyph unicode="&#x14b;" horiz-adv-x="1249" d="M-12 -12l37 147q92 12 104 98l88 549q6 53 -14.5 72.5t-93.5 28.5l-21 24l27 133q160 -8 258 -8l215 6q49 -111 107.5 -232.5t92.5 -187.5l35 -65h25l29 266q4 39 -6.5 53.5t-41.5 14.5h-49l-6 16l23 135q242 -6 290 -6l230 6l-25 -149q-53 -8 -76.5 -29.5t-31.5 -71.5 l-97 -653q-29 -164 -141 -263t-336 -151l-67 82l6 27q127 63 174 168l-244 479h-26l-29 -252q-4 -45 8 -63.5t49 -18.5l56 4l12 -14l-35 -139q-174 6 -317 6z" />
<glyph unicode="&#x14c;" horiz-adv-x="1296" d="M37 524q0 397 185.5 611.5t539.5 214.5q262 0 403.5 -136.5t141.5 -398.5q0 -397 -188.5 -618.5t-538.5 -221.5q-256 0 -399.5 142.5t-143.5 406.5zM475 1452l66 223q188 -2 305 -2l248 13l18 -37l-65 -224l-279 -2l-264 -2zM506 479q0 -246 129 -246q106 0 152.5 137.5 t46.5 452.5q0 246 -134 246q-102 0 -148 -138t-46 -452z" />
<glyph unicode="&#x14d;" horiz-adv-x="1097" d="M33 418q0 635 596 635q459 0 458 -424q0 -313 -151 -480t-444 -167q-219 0 -339 110.5t-120 325.5zM336 1157l65 223q188 -2 306 -2l247 13l19 -37l-66 -224l-278 -2l-264 -2zM453 391q0 -106 18.5 -147t63.5 -41q74 0 102.5 94t28.5 326q0 106 -19.5 147t-66.5 41 q-70 0 -98.5 -94t-28.5 -326z" />
<glyph unicode="&#x14e;" horiz-adv-x="1296" d="M37 524q0 397 185.5 611.5t539.5 214.5q262 0 403.5 -136.5t141.5 -398.5q0 -397 -188.5 -618.5t-538.5 -221.5q-256 0 -399.5 142.5t-143.5 406.5zM403 1692l97 127l57 14q43 -143 205 -143q164 0 239 143l56 -14l65 -127q-51 -119 -150.5 -199t-242.5 -80t-224 80 t-102 199zM506 479q0 -246 129 -246q106 0 152.5 137.5t46.5 452.5q0 246 -134 246q-102 0 -148 -138t-46 -452z" />
<glyph unicode="&#x14f;" horiz-adv-x="1097" d="M33 418q0 635 596 635q459 0 458 -424q0 -313 -151 -480t-444 -167q-219 0 -339 110.5t-120 325.5zM276 1386l99 127l57 15q18 -70 73.5 -107t129.5 -37q162 0 242 144l53 -15l65 -127q-51 -119 -150.5 -198.5t-242.5 -79.5t-224 80t-102 198zM453 391q0 -106 18.5 -147 t63.5 -41q74 0 102.5 94t28.5 326q0 106 -19.5 147t-66.5 41q-70 0 -98.5 -94t-28.5 -326z" />
<glyph unicode="&#x150;" horiz-adv-x="1296" d="M37 524q0 397 185.5 611.5t539.5 214.5q262 0 403.5 -136.5t141.5 -398.5q0 -397 -188.5 -618.5t-538.5 -221.5q-256 0 -399.5 142.5t-143.5 406.5zM336 1489q155 153 305 311l31 2l135 -166v-30q-182 -109 -354 -226l-39 11zM506 479q0 -246 129 -246q106 0 152.5 137.5 t46.5 452.5q0 246 -134 246q-102 0 -148 -138t-46 -452zM741 1489q155 153 306 311l30 2l135 -166v-30q-182 -109 -354 -226l-39 11z" />
<glyph unicode="&#x151;" horiz-adv-x="1097" d="M33 418q0 635 596 635q459 0 458 -424q0 -313 -151 -480t-444 -167q-219 0 -339 110.5t-120 325.5zM211 1194q155 153 305 311l31 2l135 -166v-30q-182 -109 -354 -226l-39 11zM453 391q0 -106 18.5 -147t63.5 -41q74 0 102.5 94t28.5 326q0 106 -19.5 147t-66.5 41 q-70 0 -98.5 -94t-28.5 -326zM616 1194q155 153 306 311l30 2l135 -166v-30q-182 -109 -354 -226l-39 11z" />
<glyph unicode="&#x152;" horiz-adv-x="1812" d="M37 530q0 393 179 597t534 204q57 0 216.5 -12t258.5 -12q311 0 641 43l22 -33q-61 -215 -94 -408l-287 -18q16 66 17 100q0 53 -36 70.5t-142 17.5q-39 0 -52.5 -10t-17.5 -45l-41 -231l160 -2l219 12l22 -29l-57 -235q-145 6 -236 6l-149 -13l-25 -174 q-10 -80 4.5 -101t73.5 -21q123 0 169 39.5t79 177.5l266 18l21 -31q-59 -199 -107 -422l-35 -32q-330 20 -643 20q-80 0 -219 -13t-186 -13q-262 0 -408.5 143t-146.5 407zM502 481q0 -139 30.5 -199.5t100.5 -60.5q127 0 147 180l64 498q23 182 -139 182q-203 0 -203 -600 z" />
<glyph unicode="&#x153;" horiz-adv-x="1525" d="M33 424q0 307 143 458.5t442 151.5q47 0 181.5 -9t216.5 -9q231 0 536 35l21 -27q-51 -176 -76 -326l-258 -16q12 49 12 74q0 39 -27.5 52t-109.5 13q-27 0 -37 -8t-12 -31l-31 -157l129 -2l178 8l21 -25l-47 -198q-117 6 -191 6l-125 -11l-16 -106q-6 -61 4 -77.5 t55 -16.5q90 0 126 30.5t63 133.5l239 14l19 -27q-49 -158 -88 -338l-31 -26q-264 16 -539 16q-61 0 -175.5 -11t-151.5 -11q-225 0 -348 112.5t-123 327.5zM446 383q0 -113 19 -153t70 -40q84 0 96 119l49 381q8 61 -18.5 97t-79.5 36q-135 0 -136 -440z" />
<glyph unicode="&#x154;" horiz-adv-x="1353" d="M-39 -18l41 188q74 12 106.5 49t43.5 125l88 711q6 51 -2.5 70.5t-36.5 19.5l-72 -4l-16 24l41 162q203 -2 284 -2l357 12q258 0 395 -85t137 -251q0 -272 -287 -436l93 -213q80 -180 167 -180l19 -33l-37 -149l-317 -23q-86 0 -132.5 42t-72.5 145l-80 313h-109 l-16 -139q-10 -96 9.5 -120t113.5 -28l8 -16l-41 -172q-248 8 -332 8q-66 0 -153.5 -4t-143.5 -9zM432 1587q251 94 510 205l33 -10l74 -221l-15 -33q-266 -49 -520 -113l-39 27zM608 725l148 -20q143 55 143 233q0 143 -199 143q-20 0 -27 -8t-11 -37q-40 -209 -54 -311z " />
<glyph unicode="&#x155;" horiz-adv-x="1169" d="M-33 -16l35 159q59 10 86 40t35 98l67 532q8 66 -30 66l-62 -2l-14 20l35 137q174 -2 243 -2l310 10q461 0 461 -270q0 -209 -232 -338l70 -145q31 -66 66.5 -102.5t66.5 -36.5l18 -31l-32 -127l-279 -17q-76 0 -115 32t-59 112l-59 231h-82l-11 -86q-8 -72 8.5 -89 t96.5 -21l6 -15l-33 -145q-221 6 -289 6q-57 0 -134 -4t-125 -8zM293 1292q251 94 510 205l33 -10l73 -221l-14 -33q-266 -49 -520 -113l-39 27zM526 571l117 -16q106 39 107 164q0 53 -36 76.5t-116 23.5q-18 0 -22.5 -6t-8.5 -29q-23 -107 -41 -213z" />
<glyph unicode="&#x156;" horiz-adv-x="1353" d="M-39 -18l41 188q74 12 106.5 49t43.5 125l88 711q6 51 -2.5 70.5t-36.5 19.5l-72 -4l-16 24l41 162q203 -2 284 -2l357 12q258 0 395 -85t137 -251q0 -272 -287 -436l93 -213q80 -180 167 -180l19 -33l-37 -149l-317 -23q-86 0 -132.5 42t-72.5 145l-80 313h-109 l-16 -139q-10 -96 9.5 -120t113.5 -28l8 -16l-41 -172q-248 8 -332 8q-66 0 -153.5 -4t-143.5 -9zM324 -561q59 43 95 102.5t36 114.5q-1 90 -60 156l6 28q117 90 209 90q78 0 126 -56t48 -150q0 -109 -92 -224.5t-250 -206.5l-118 95v51zM608 725l148 -20q143 55 143 233 q0 143 -199 143q-20 0 -27 -8t-11 -37q-40 -209 -54 -311z" />
<glyph unicode="&#x157;" horiz-adv-x="1169" d="M-33 -16l35 159q59 10 86 40t35 98l67 532q8 66 -30 66l-62 -2l-14 20l35 137q174 -2 243 -2l310 10q461 0 461 -270q0 -209 -232 -338l70 -145q31 -66 66.5 -102.5t66.5 -36.5l18 -31l-32 -127l-279 -17q-76 0 -115 32t-59 112l-59 231h-82l-11 -86q-8 -72 8.5 -89 t96.5 -21l6 -15l-33 -145q-221 6 -289 6q-57 0 -134 -4t-125 -8zM256 -561q59 43 95 102.5t36 114.5q0 90 -59 156l6 28q117 90 209 90q78 0 126 -56t48 -150q0 -109 -92.5 -224.5t-249.5 -206.5l-119 95v51zM526 571l117 -16q106 39 107 164q0 53 -36 76.5t-116 23.5 q-18 0 -22.5 -6t-8.5 -29q-23 -107 -41 -213z" />
<glyph unicode="&#x158;" horiz-adv-x="1353" d="M-39 -18l41 188q74 12 106.5 49t43.5 125l88 711q6 51 -2.5 70.5t-36.5 19.5l-72 -4l-16 24l41 162q203 -2 284 -2l357 12q258 0 395 -85t137 -251q0 -272 -287 -436l93 -213q80 -180 167 -180l19 -33l-37 -149l-317 -23q-86 0 -132.5 42t-72.5 145l-80 313h-109 l-16 -139q-10 -96 9.5 -120t113.5 -28l8 -16l-41 -172q-248 8 -332 8q-66 0 -153.5 -4t-143.5 -9zM432 1692l86 127l49 14q47 -23 250 -104q102 37 275 104l45 -14l59 -127q-184 -125 -391 -283h-55q-166 158 -318 283zM608 725l148 -20q143 55 143 233q0 143 -199 143 q-20 0 -27 -8t-11 -37q-40 -209 -54 -311z" />
<glyph unicode="&#x159;" horiz-adv-x="1169" d="M-33 -16l35 159q59 10 86 40t35 98l67 532q8 66 -30 66l-62 -2l-14 20l35 137q174 -2 243 -2l310 10q461 0 461 -270q0 -209 -232 -338l70 -145q31 -66 66.5 -102.5t66.5 -36.5l18 -31l-32 -127l-279 -17q-76 0 -115 32t-59 112l-59 231h-82l-11 -86q-8 -72 8.5 -89 t96.5 -21l6 -15l-33 -145q-221 6 -289 6q-57 0 -134 -4t-125 -8zM301 1397l86 127l49 14q47 -23 250 -104q102 37 275 104l45 -14l59 -127q-184 -125 -391 -283h-56q-166 158 -317 283zM526 571l117 -16q106 39 107 164q0 53 -36 76.5t-116 23.5q-18 0 -22.5 -6t-8.5 -29 q-23 -107 -41 -213z" />
<glyph unicode="&#x15a;" horiz-adv-x="1097" d="M-27 100q63 203 86 338l260 19q-10 -98 27 -153.5t119 -55.5q59 0 96 25.5t37 66.5q0 33 -28.5 61.5t-64.5 48t-99 47.5q-11 5 -15 7q-70 33 -112.5 59.5t-95 70.5t-78 103.5t-25.5 132.5q0 217 180 348.5t477 131.5q98 0 196.5 -14.5t148.5 -28.5l51 -15l20 -45 q-59 -172 -96 -356l-242 -17l-22 17q6 47 6 57q0 119 -127 119q-57 0 -93 -28.5t-36 -71.5q0 -39 34.5 -69t104.5 -64q6 -4 66.5 -32t78 -38t67.5 -39t69.5 -52.5t48 -59t40 -78.5t11.5 -93q0 -217 -177.5 -342t-486.5 -125q-104 0 -205.5 22.5t-150.5 44.5l-49 21z M381 1587q251 94 510 205l33 -10l73 -221l-14 -33q-266 -49 -520 -113l-39 27z" />
<glyph unicode="&#x15b;" horiz-adv-x="946" d="M-16 82q53 164 71 260l234 16q-6 -61 24.5 -102t89.5 -41q94 0 95 51q0 33 -38 56.5t-119 54.5l-15 6q-57 25 -92 45.5t-78 54t-64.5 80.5t-21.5 107q0 174 152.5 277.5t410.5 103.5q82 0 166 -11.5t127 -22.5l43 -11l18 -39q-49 -135 -80 -279l-217 -14l-20 14 q4 31 4 33q0 88 -99 88q-41 0 -66.5 -17.5t-25.5 -46.5q0 -45 115 -94q157 -63 208 -101q105 -78 105 -202q0 -172 -150.5 -269t-414.5 -97q-90 0 -176 17t-127 35l-41 17zM272 1292q251 94 510 205l33 -10l74 -221l-15 -33q-266 -49 -520 -113l-39 27z" />
<glyph unicode="&#x15c;" horiz-adv-x="1097" d="M-27 100q63 203 86 338l260 19q-10 -98 27 -153.5t119 -55.5q59 0 96 25.5t37 66.5q0 33 -28.5 61.5t-64.5 48t-99 47.5q-11 5 -15 7q-70 33 -112.5 59.5t-95 70.5t-78 103.5t-25.5 132.5q0 217 180 348.5t477 131.5q98 0 196.5 -14.5t148.5 -28.5l51 -15l20 -45 q-59 -172 -96 -356l-242 -17l-22 17q6 47 6 57q0 119 -127 119q-57 0 -93 -28.5t-36 -71.5q0 -39 34.5 -69t104.5 -64q6 -4 66.5 -32t78 -38t67.5 -39t69.5 -52.5t48 -59t40 -78.5t11.5 -93q0 -217 -177.5 -342t-486.5 -125q-104 0 -205.5 22.5t-150.5 44.5l-49 21z M338 1593q176 141 373 320h55q156 -178 295 -320l-109 -127l-49 -14q-55 43 -205 141q-147 -82 -235 -141l-47 14z" />
<glyph unicode="&#x15d;" horiz-adv-x="946" d="M-16 82q53 164 71 260l234 16q-6 -61 24.5 -102t89.5 -41q94 0 95 51q0 33 -38 56.5t-119 54.5l-15 6q-57 25 -92 45.5t-78 54t-64.5 80.5t-21.5 107q0 174 152.5 277.5t410.5 103.5q82 0 166 -11.5t127 -22.5l43 -11l18 -39q-49 -135 -80 -279l-217 -14l-20 14 q4 31 4 33q0 88 -99 88q-41 0 -66.5 -17.5t-25.5 -46.5q0 -45 115 -94q157 -63 208 -101q105 -78 105 -202q0 -172 -150.5 -269t-414.5 -97q-90 0 -176 17t-127 35l-41 17zM221 1298q176 141 373 320h55q156 -178 295 -320l-108 -127l-50 -14q-55 43 -204 141 q-147 -82 -236 -141l-47 14z" />
<glyph unicode="&#x15e;" horiz-adv-x="1097" d="M-27 100q63 203 86 338l260 19q-10 -98 27 -153.5t119 -55.5q59 0 96 25.5t37 66.5q0 33 -28.5 61.5t-64.5 48t-99 47.5q-11 5 -15 7q-70 33 -112.5 59.5t-95 70.5t-78 103.5t-25.5 132.5q0 217 180 348.5t477 131.5q98 0 196.5 -14.5t148.5 -28.5l51 -15l20 -45 q-59 -172 -96 -356l-242 -17l-22 17q6 47 6 57q0 119 -127 119q-57 0 -93 -28.5t-36 -71.5q0 -39 34.5 -69t104.5 -64q6 -4 66.5 -32t78 -38t67.5 -39t69.5 -52.5t48 -59t40 -78.5t11.5 -93q0 -197 -147.5 -318.5t-409.5 -143.5l-17 -56q76 -39 136.5 -93t60.5 -114 q0 -88 -97 -151.5t-233 -63.5q-61 0 -114.5 29t-53.5 76q0 43 125 151h17q-4 -55 17.5 -84.5t64.5 -29.5q63 0 63 49q0 47 -158 129l56 153q-98 2 -192.5 25t-140.5 43l-46 20z" />
<glyph unicode="&#x15f;" horiz-adv-x="946" d="M-16 82q53 164 71 260l234 16q-6 -61 24.5 -102t89.5 -41q94 0 95 51q0 33 -38 56.5t-119 54.5l-15 6q-57 25 -92 45.5t-78 54t-64.5 80.5t-21.5 107q0 174 152.5 277.5t410.5 103.5q82 0 166 -11.5t127 -22.5l43 -11l18 -39q-49 -135 -80 -279l-217 -14l-20 14 q4 31 4 33q0 88 -99 88q-41 0 -66.5 -17.5t-25.5 -46.5q0 -45 115 -94q157 -63 208 -101q105 -78 105 -202q0 -154 -120.5 -248t-337.5 -112l-19 -64q76 -39 136.5 -93t60.5 -114q0 -88 -97.5 -151.5t-232.5 -63.5q-61 0 -114.5 29t-53.5 76q0 43 125 151h16 q-4 -55 17.5 -84.5t64.5 -29.5q63 0 64 49q0 47 -158 129l57 160q-185 6 -317 69z" />
<glyph unicode="&#x160;" horiz-adv-x="1097" d="M-27 100q63 203 86 338l260 19q-10 -98 27 -153.5t119 -55.5q59 0 96 25.5t37 66.5q0 33 -28.5 61.5t-64.5 48t-99 47.5q-11 5 -15 7q-70 33 -112.5 59.5t-95 70.5t-78 103.5t-25.5 132.5q0 217 180 348.5t477 131.5q98 0 196.5 -14.5t148.5 -28.5l51 -15l20 -45 q-59 -172 -96 -356l-242 -17l-22 17q6 47 6 57q0 119 -127 119q-57 0 -93 -28.5t-36 -71.5q0 -39 34.5 -69t104.5 -64q6 -4 66.5 -32t78 -38t67.5 -39t69.5 -52.5t48 -59t40 -78.5t11.5 -93q0 -217 -177.5 -342t-486.5 -125q-104 0 -205.5 22.5t-150.5 44.5l-49 21z M360 1692l86 127l50 14q47 -23 249 -104q102 37 275 104l45 -14l59 -127q-184 -125 -391 -283h-55q-166 158 -318 283z" />
<glyph unicode="&#x161;" horiz-adv-x="946" d="M-16 82q53 164 71 260l234 16q-6 -61 24.5 -102t89.5 -41q94 0 95 51q0 33 -38 56.5t-119 54.5l-15 6q-57 25 -92 45.5t-78 54t-64.5 80.5t-21.5 107q0 174 152.5 277.5t410.5 103.5q82 0 166 -11.5t127 -22.5l43 -11l18 -39q-49 -135 -80 -279l-217 -14l-20 14 q4 31 4 33q0 88 -99 88q-41 0 -66.5 -17.5t-25.5 -46.5q0 -45 115 -94q157 -63 208 -101q105 -78 105 -202q0 -172 -150.5 -269t-414.5 -97q-90 0 -176 17t-127 35l-41 17zM240 1397l86 127l49 14q47 -23 250 -104q102 37 274 104l45 -14l60 -127q-184 -125 -392 -283h-55 q-166 158 -317 283z" />
<glyph unicode="&#x162;" horiz-adv-x="1183" d="M35 782q51 303 82 537l30 29l236 -23h625l247 23l23 -29l-55 -520l-256 -17q10 197 -4.5 246t-85.5 49q-104 -690 -105 -788q0 -55 20.5 -79t67.5 -24l103 7l8 -13l-41 -192q-203 8 -338 12l-23 -76q76 -39 136.5 -93t60.5 -114q0 -88 -97.5 -151.5t-232.5 -63.5 q-61 0 -114.5 29t-53.5 76q0 43 125 151h17q-4 -55 17.5 -84.5t64.5 -29.5q63 0 63 49q0 47 -158 129l64 178l-348 -18l39 188q123 10 164.5 44t54.5 130l90 733q-74 0 -103.5 -51t-64.5 -227z" />
<glyph unicode="&#x163;" horiz-adv-x="1021" d="M29 584q41 252 65 442l27 25l205 -19h520l213 19l20 -25l-47 -430l-229 -12q10 145 1 189t-56 44q-76 -551 -76 -579q0 -80 71 -80l84 6l9 -10l-35 -164q-160 6 -275 10l-22 -76q76 -39 136 -93t60 -114q0 -88 -97 -151.5t-232 -63.5q-61 0 -114.5 29t-53.5 76 q0 43 125 151h16q-4 -55 17.5 -84.5t64.5 -29.5q63 0 63 49q1 47 -157 129l63 178l-299 -16l33 161q98 8 134 33t44 90l70 549q-47 0 -67.5 -43t-47.5 -178z" />
<glyph unicode="&#x164;" horiz-adv-x="1183" d="M35 782q51 303 82 537l30 29l236 -23h625l247 23l23 -29l-55 -520l-256 -17q10 197 -4.5 246t-85.5 49q-104 -690 -105 -788q0 -55 20.5 -79t67.5 -24l103 7l8 -13l-41 -192q-293 12 -408 12l-409 -18l39 188q123 10 165 44t54 130l90 733q-74 0 -103.5 -51t-64.5 -227z M367 1692l86 127l49 14q47 -23 250 -104q102 37 274 104l45 -14l59 -127q-184 -125 -391 -283h-55q-166 158 -317 283z" />
<glyph unicode="&#x165;" horiz-adv-x="1021" d="M29 584q41 252 65 442l27 25l205 -19h520l213 19l20 -25l-47 -430l-229 -12q10 145 1 189t-56 44q-76 -551 -76 -579q0 -80 71 -80l84 6l9 -10l-35 -164q-252 10 -350 10l-355 -16l33 161q98 8 134 32.5t44 90.5l70 549q-47 0 -67.5 -43t-47.5 -178zM244 1397l86 127 l49 14q47 -23 250 -104q102 37 274 104l45 -14l60 -127q-184 -125 -392 -283h-55q-166 158 -317 283z" />
<glyph unicode="&#x166;" horiz-adv-x="1183" d="M35 782q51 303 82 537l30 29l236 -23h625l247 23l23 -29l-55 -520l-256 -17q10 197 -4.5 246t-85.5 49q-31 -190 -66 -442l150 4l30 -31l-10 -112h-188q-20 -170 -21 -207q0 -55 20.5 -79t67.5 -24l103 7l8 -13l-41 -192q-293 12 -408 12l-409 -18l39 188q123 10 165 44 t54 130l18 150h-160l-22 20l16 119l183 -2l55 446q-74 0 -103.5 -51t-64.5 -227z" />
<glyph unicode="&#x167;" horiz-adv-x="1021" d="M29 584q41 252 65 442l27 25l205 -19h520l213 19l20 -25l-47 -430l-229 -12q10 145 1 189t-56 44l-50 -346l162 4l31 -31l-10 -112h-201q-8 -59 -8 -94q0 -80 71 -80l84 6l9 -10l-35 -164q-252 10 -350 10l-355 -16l33 161q98 8 134 32.5t44 90.5l8 62h-186l-23 20 l17 119l209 -2l45 350q-47 0 -67.5 -43t-47.5 -178z" />
<glyph unicode="&#x168;" horiz-adv-x="1239" d="M78 1149l43 182q197 -6 356 -6l271 8l-43 -190q-53 -6 -77 -29t-30 -72l-84 -591q-4 -37 -4 -58q-4 -158 121 -157q72 0 106.5 40.5t48.5 139.5l74 618q8 63 0 87t-37 24l-43 -4l-6 8l45 182q166 -6 238 -6l293 6l-39 -184q-63 -20 -82 -36.5t-23 -53.5l-71 -578 q-35 -256 -175.5 -380t-398.5 -124q-236 0 -350.5 86t-114.5 265q0 39 6 82l78 626q8 70 0 90.5t-41 20.5l-57 -4zM397 1544l4 33l191 235l35 9q37 0 153.5 -35t145.5 -35q20 0 57 29.5t64 59.5l26 30h33l108 -111l-4 -33l-190 -235l-35 -8q-37 0 -153.5 34.5t-145.5 34.5 q-23 0 -59.5 -29.5t-62.5 -59.5l-25 -29h-33z" />
<glyph unicode="&#x169;" horiz-adv-x="1046" d="M59 883l35 155q170 -6 312 -6l231 4l-37 -159q-78 -8 -84 -76l-65 -459q-4 -25 -5 -39q0 -100 84 -100q49 0 73 25.5t32 90.5q57 473 57 474q8 51 1 68.5t-29 17.5l-31 -2l-6 6l39 155q139 -6 198 -6l254 4l-33 -157q-49 -16 -63 -28.5t-18 -37.5l-54 -432 q-29 -205 -144.5 -302t-332.5 -97q-201 0 -298 65.5t-99 202.5q0 29 6 63l59 480q6 55 0 70.5t-32 15.5l-48 -2zM260 1249l4 33l191 236l34 8q37 0 154 -35t145 -35q20 0 57.5 30t63.5 59l27 30h33l108 -111l-4 -32l-190 -236l-35 -8q-37 0 -153.5 34.5t-145.5 34.5 q-23 0 -59.5 -29.5t-62.5 -59.5l-26 -29h-32z" />
<glyph unicode="&#x16a;" horiz-adv-x="1239" d="M78 1149l43 182q197 -6 356 -6l271 8l-43 -190q-53 -6 -77 -29t-30 -72l-84 -591q-4 -37 -4 -58q-4 -158 121 -157q72 0 106.5 40.5t48.5 139.5l74 618q8 63 0 87t-37 24l-43 -4l-6 8l45 182q166 -6 238 -6l293 6l-39 -184q-63 -20 -82 -36.5t-23 -53.5l-71 -578 q-35 -256 -175.5 -380t-398.5 -124q-236 0 -350.5 86t-114.5 265q0 39 6 82l78 626q8 70 0 90.5t-41 20.5l-57 -4zM492 1452l65 223q188 -2 305 -2l248 13l18 -37l-65 -224l-279 -2l-264 -2z" />
<glyph unicode="&#x16b;" horiz-adv-x="1046" d="M59 883l35 155q170 -6 312 -6l231 4l-37 -159q-78 -8 -84 -76l-65 -459q-4 -25 -5 -39q0 -100 84 -100q49 0 73 25.5t32 90.5q57 473 57 474q8 51 1 68.5t-29 17.5l-31 -2l-6 6l39 155q139 -6 198 -6l254 4l-33 -157q-49 -16 -63 -28.5t-18 -37.5l-54 -432 q-29 -205 -144.5 -302t-332.5 -97q-201 0 -298 65.5t-99 202.5q0 29 6 63l59 480q6 55 0 70.5t-32 15.5l-48 -2zM350 1157l66 223q188 -2 305 -2l248 13l18 -37l-65 -224l-279 -2l-264 -2z" />
<glyph unicode="&#x16c;" horiz-adv-x="1239" d="M78 1149l43 182q197 -6 356 -6l271 8l-43 -190q-53 -6 -77 -29t-30 -72l-84 -591q-4 -37 -4 -58q-4 -158 121 -157q72 0 106.5 40.5t48.5 139.5l74 618q8 63 0 87t-37 24l-43 -4l-6 8l45 182q166 -6 238 -6l293 6l-39 -184q-63 -20 -82 -36.5t-23 -53.5l-71 -578 q-35 -256 -175.5 -380t-398.5 -124q-236 0 -350.5 86t-114.5 265q0 39 6 82l78 626q8 70 0 90.5t-41 20.5l-57 -4zM420 1712l96 127l57 14q43 -143 205 -143q164 0 240 143l55 -14l66 -127q-51 -119 -150.5 -198.5t-243 -79.5t-224.5 79.5t-101 198.5z" />
<glyph unicode="&#x16d;" horiz-adv-x="1046" d="M59 883l35 155q170 -6 312 -6l231 4l-37 -159q-78 -8 -84 -76l-65 -459q-4 -25 -5 -39q0 -100 84 -100q49 0 73 25.5t32 90.5q57 473 57 474q8 51 1 68.5t-29 17.5l-31 -2l-6 6l39 155q139 -6 198 -6l254 4l-33 -157q-49 -16 -63 -28.5t-18 -37.5l-54 -432 q-29 -205 -144.5 -302t-332.5 -97q-201 0 -298 65.5t-99 202.5q0 29 6 63l59 480q6 55 0 70.5t-32 15.5l-48 -2zM297 1386l98 127l58 15q18 -70 73 -107t129 -37q162 0 242 144l53 -15l66 -127q-51 -119 -150.5 -198.5t-243 -79.5t-224.5 80t-101 198z" />
<glyph unicode="&#x16e;" horiz-adv-x="1239" d="M78 1149l43 182q197 -6 356 -6l271 8l-43 -190q-53 -6 -77 -29t-30 -72l-84 -591q-4 -37 -4 -58q-4 -158 121 -157q72 0 106.5 40.5t48.5 139.5l74 618q8 63 0 87t-37 24l-43 -4l-6 8l45 182q166 -6 238 -6l293 6l-39 -184q-63 -20 -82 -36.5t-23 -53.5l-71 -578 q-35 -256 -175.5 -380t-398.5 -124q-236 0 -350.5 86t-114.5 265q0 39 6 82l78 626q8 70 0 90.5t-41 20.5l-57 -4zM596 1579q0 106 70.5 177t179.5 71q94 0 138 -49t44 -125q0 -102 -70.5 -179t-183.5 -77q-86 0 -132 49t-46 133zM739 1604q0 -64 68 -64q29 0 53.5 17.5 t24.5 60.5q0 61 -70 61q-76 0 -76 -75z" />
<glyph unicode="&#x16f;" horiz-adv-x="1046" d="M59 883l35 155q170 -6 312 -6l231 4l-37 -159q-78 -8 -84 -76l-65 -459q-4 -25 -5 -39q0 -100 84 -100q49 0 73 25.5t32 90.5q57 473 57 474q8 51 1 68.5t-29 17.5l-31 -2l-6 6l39 155q139 -6 198 -6l254 4l-33 -157q-49 -16 -63 -28.5t-18 -37.5l-54 -432 q-29 -205 -144.5 -302t-332.5 -97q-201 0 -298 65.5t-99 202.5q0 29 6 63l59 480q6 55 0 70.5t-32 15.5l-48 -2zM457 1284q0 106 70.5 177t179.5 71q94 0 138 -49t44 -125q0 -102 -70.5 -179t-183.5 -77q-86 0 -132 49t-46 133zM600 1309q0 -64 68 -64q29 0 53 17.5t24 60.5 q0 61 -69 61q-76 0 -76 -75z" />
<glyph unicode="&#x170;" horiz-adv-x="1239" d="M78 1149l43 182q197 -6 356 -6l271 8l-43 -190q-53 -6 -77 -29t-30 -72l-84 -591q-4 -37 -4 -58q-4 -158 121 -157q72 0 106.5 40.5t48.5 139.5l74 618q8 63 0 87t-37 24l-43 -4l-6 8l45 182q166 -6 238 -6l293 6l-39 -184q-63 -20 -82 -36.5t-23 -53.5l-71 -578 q-35 -256 -175.5 -380t-398.5 -124q-236 0 -350.5 86t-114.5 265q0 39 6 82l78 626q8 70 0 90.5t-41 20.5l-57 -4zM352 1489q155 153 305 311l31 2l135 -166v-30q-182 -109 -354 -226l-39 11zM758 1489q155 153 305 311l31 2l135 -166v-30q-182 -109 -355 -226l-38 11z" />
<glyph unicode="&#x171;" horiz-adv-x="1046" d="M59 883l35 155q170 -6 312 -6l231 4l-37 -159q-78 -8 -84 -76l-65 -459q-4 -25 -5 -39q0 -100 84 -100q49 0 73 25.5t32 90.5q57 473 57 474q8 51 1 68.5t-29 17.5l-31 -2l-6 6l39 155q139 -6 198 -6l254 4l-33 -157q-49 -16 -63 -28.5t-18 -37.5l-54 -432 q-29 -205 -144.5 -302t-332.5 -97q-201 0 -298 65.5t-99 202.5q0 29 6 63l59 480q6 55 0 70.5t-32 15.5l-48 -2zM219 1194q155 153 305 311l31 2l135 -166v-30q-182 -109 -354 -226l-39 11zM625 1194q155 153 305 311l31 2l135 -166v-30q-182 -109 -355 -226l-39 11z" />
<glyph unicode="&#x172;" horiz-adv-x="1239" d="M78 1149l43 182q197 -6 356 -6l271 8l-43 -190q-53 -6 -77 -28.5t-30 -72.5l-84 -591q-4 -41 -4 -58q-4 -158 121 -157q72 0 106.5 40.5t48.5 139.5l74 618q8 63 0 87t-37 24l-43 -4l-6 8l45 182q166 -6 238 -6l293 6l-39 -184q-63 -20 -82 -36.5t-23 -53.5l-71 -578 q-31 -225 -191 -407q-203 -229 -203 -320q0 -31 18.5 -50t49.5 -19q25 0 58.5 13t55.5 25l21 13l43 -82q-127 -111 -225 -148q-113 0 -177.5 43t-64.5 121q0 72 40 141.5t145 178.5q-66 -12 -144 -13q-236 0 -350.5 86t-114.5 265q0 39 6 82l78 626q8 70 0 90.5t-41 20.5 l-57 -4z" />
<glyph unicode="&#x173;" horiz-adv-x="1046" d="M61 883l37 155q170 -6 312 -6l229 4l-37 -159q-76 -8 -84 -76l-63 -459q-4 -29 -4 -39q0 -100 84 -100q49 0 72.5 25.5t31.5 90.5q57 473 57 474q6 49 0 67.5t-28 18.5l-31 -2l-6 6l39 155q139 -6 198 -6l254 4l-32 -157q-49 -16 -63.5 -27.5t-18.5 -38.5l-54 -432 q-25 -180 -159 -328q-160 -172 -160 -241q0 -23 15.5 -37.5t37.5 -14.5q20 0 48 10.5t45 20.5l18 10l39 -69q-106 -88 -189 -117q-96 0 -151.5 34t-55.5 93q0 57 32 109.5t118 138.5q-47 -8 -115 -8q-201 0 -298 65.5t-99 202.5q0 29 6 63l59 480q6 55 0 70.5t-32 15.5 l-47 -2z" />
<glyph unicode="&#x174;" horiz-adv-x="1988" d="M74 1167l39 162q158 -4 262 -4l370 10l13 -18l-35 -172q-76 -12 -104.5 -35t-28.5 -70l10 -696h43q143 401 229 684q10 45 15 55q4 39 -14.5 51.5t-86.5 12.5l-12 20l39 162q207 -4 326 -4l368 10l15 -18l-35 -172q-80 -8 -107.5 -29.5t-27.5 -75.5l12 -696h43 q66 176 154 452.5t88 309.5q0 23 -9.5 29t-42.5 6h-47l-12 20l37 170q180 -6 295 -6l235 2l-34 -178q-35 -12 -52.5 -33.5t-40.5 -79.5l-385 -1028l-553 -35l-12 584h-29l-178 -549l-553 -35q-78 815 -98 1037q-14 72 -31.5 100.5t-52.5 36.5zM801 1577q82 55 179 126 t154 114l56 43h55q0 6 45 -35t129 -118t146 -130l-88 -127l-50 -14q-90 41 -249 104q-102 -37 -275 -104l-45 14z" />
<glyph unicode="&#x175;" horiz-adv-x="1695" d="M63 899l33 137q131 -4 221 -4l318 6l10 -14l-29 -147q-51 -8 -77.5 -111.5t-26.5 -171.5v-305h39q113 315 170 516l18 55q-2 23 -80 21l-10 18l33 137q176 -4 281 -4l315 6l12 -14l-28 -147q-61 -6 -84 -23.5t-23 -58.5l2 -506h39q49 129 111.5 332.5t62.5 230.5 q0 16 -5 19t-30 3h-32l-13 19l31 143q154 -4 248 -4l198 2l-28 -151q-27 -10 -41.5 -28.5t-30.5 -59.5l-295 -789l-504 -26v413h-26l-123 -387l-504 -26q-68 666 -78 792q-12 59 -24.5 80.5t-38.5 28.5zM610 1282q82 55 179.5 126t153.5 114l56 43h56q0 6 45 -35t129 -118 t145 -130l-88 -127l-49 -14q-90 41 -250 104q-102 -37 -274 -104l-45 14zM737 840v8v-8z" />
<glyph unicode="&#x176;" horiz-adv-x="1331" d="M82 1141l43 186q238 -4 303 -4l363 14l12 -22l-39 -168q-84 0 -84 -55q0 -68 68 -299h28l103 233q37 68 36 94q0 29 -69 29l-4 12l37 162h317l227 8l7 -16l-37 -178q-150 -84 -250 -258l-225 -373q-39 -72 -54 -191q-10 -72 8.5 -100.5t75.5 -28.5l103 7l8 -13l-41 -192 q-301 12 -418 12l-412 -18l39 188q129 10 173 41t55 121l4 33q10 78 -33 184l-164 407q-41 109 -172 172zM465 1577q82 55 179 126t154 114l56 43h55q0 6 45 -35t129 -118t146 -130l-88 -127l-49 -14q-90 41 -250 104q-102 -37 -275 -104l-45 14z" />
<glyph unicode="&#x177;" horiz-adv-x="1163" d="M74 872l37 162q209 -4 260 -4l309 10l12 -18l-33 -143q-61 2 -61 -39t47 -201h27l63 152q31 55 31 71q0 20 -53 19l-4 10l30 137q53 0 141.5 1t133.5 1l194 6l4 -12l-30 -154q-127 -78 -201 -198l-184 -291q-31 -59 -39 -123q-6 -55 10 -77.5t61 -22.5l86 6l9 -10 l-35 -164q-264 10 -365 10l-360 -14l33 159q109 6 146.5 29t45.5 90l2 17q8 55 -29 137l-143 321q-27 57 -137 125zM336 1282q82 55 179 126t154 114l56 43h55q0 6 45 -35t129 -118t146 -130l-88 -127l-49 -14q-90 41 -250 104q-102 -37 -275 -104l-45 14z" />
<glyph unicode="&#x178;" horiz-adv-x="1331" d="M82 1141l43 186q238 -4 303 -4l363 14l12 -22l-39 -168q-84 0 -84 -55q0 -68 68 -299h28l103 233q37 68 36 94q0 29 -69 29l-4 12l37 162h317l227 8l7 -16l-37 -178q-150 -84 -250 -258l-225 -373q-39 -72 -54 -191q-10 -72 8.5 -100.5t75.5 -28.5l103 7l8 -13l-41 -192 q-301 12 -418 12l-412 -18l39 188q129 10 173 41t55 121l4 33q10 78 -33 184l-164 407q-41 109 -172 172zM485 1540q0 92 54.5 148.5t144.5 56.5q68 0 104.5 -37t36.5 -102q0 -90 -54 -146.5t-142 -56.5q-143 0 -144 137zM868 1540q0 92 54.5 148.5t144.5 56.5 q70 0 106.5 -37t36.5 -102q0 -90 -54 -146.5t-142 -56.5q-145 0 -146 137z" />
<glyph unicode="&#x179;" horiz-adv-x="1183" d="M-43 104l766 1006l-145 -20q-117 -16 -152 -58.5t-55 -175.5l-262 -18q61 301 90 491l24 23l359 -23h665l37 -110q-281 -334 -778 -996l203 31q96 14 147 80.5t80 210.5l262 18q-82 -319 -111 -524l-47 -45l-858 12l-166 -20zM451 1587q251 94 510 205l32 -10l74 -221 l-14 -33q-266 -49 -521 -113l-38 27z" />
<glyph unicode="&#x17a;" horiz-adv-x="1017" d="M-33 88l619 760l-101 -17q-94 -14 -119.5 -44.5t-39.5 -131.5l-236 -14q49 246 72 395l20 17l299 -17l570 2l34 -94q-285 -315 -626 -751l147 26q80 14 119 63.5t59 155.5l236 17q-67 -262 -90 -422l-39 -37l-729 8l-139 -16zM330 1292q251 94 510 205l32 -10l74 -221 l-14 -33q-266 -49 -520 -113l-39 27z" />
<glyph unicode="&#x17b;" horiz-adv-x="1183" d="M-43 104l766 1006l-145 -20q-117 -16 -152 -58.5t-55 -175.5l-262 -18q61 301 90 491l24 23l359 -23h665l37 -110q-281 -334 -778 -996l203 31q96 14 147 80.5t80 210.5l262 18q-82 -319 -111 -524l-47 -45l-858 12l-166 -20zM604 1563q0 111 64.5 177t171.5 66 q82 0 125 -43t43 -123q0 -109 -65 -175t-169 -66q-82 0 -126 43t-44 121z" />
<glyph unicode="&#x17c;" horiz-adv-x="1017" d="M-33 88l619 760l-101 -17q-94 -14 -119.5 -44.5t-39.5 -131.5l-236 -14q49 246 72 395l20 17l299 -17l570 2l34 -94q-285 -315 -626 -751l147 26q80 14 119 63.5t59 155.5l236 17q-67 -262 -90 -422l-39 -37l-729 8l-139 -16zM475 1268q0 111 64.5 177t171.5 66 q80 0 124 -43t44 -122q0 -109 -65 -175.5t-169 -66.5q-82 0 -126 43t-44 121z" />
<glyph unicode="&#x17d;" horiz-adv-x="1183" d="M-43 104l766 1006l-145 -20q-117 -16 -152 -58.5t-55 -175.5l-262 -18q61 301 90 491l24 23l359 -23h665l37 -110q-281 -334 -778 -996l203 31q96 14 147 80.5t80 210.5l262 18q-82 -319 -111 -524l-47 -45l-858 12l-166 -20zM430 1692l86 127l49 14q47 -23 250 -104 q102 37 275 104l45 -14l59 -127q-184 -125 -391 -283h-55q-166 158 -318 283z" />
<glyph unicode="&#x17e;" horiz-adv-x="1017" d="M-33 88l619 760l-101 -17q-94 -14 -119.5 -44.5t-39.5 -131.5l-236 -14q49 246 72 395l20 17l299 -17l570 2l34 -94q-285 -315 -626 -751l147 26q80 14 119 63.5t59 155.5l236 17q-67 -262 -90 -422l-39 -37l-729 8l-139 -16zM299 1397l86 127l49 14q47 -23 250 -104 q102 37 274 104l46 -14l59 -127q-184 -125 -391 -283h-56q-166 158 -317 283z" />
<glyph unicode="&#x192;" horiz-adv-x="907" d="M-57 -233q0 41 30.5 124.5t59.5 118.5h37q8 -57 40.5 -93t77.5 -36q53 0 76 48t23 165l-2 420q-4 49 -39 66.5t-135 17.5l-7 12l17 121l170 27v28q0 154 175 296.5t376 142.5q76 0 134 -14.5t58 -32.5q0 -31 -30.5 -124t-51.5 -126l-37 -6q-96 82 -155.5 82t-86 -37 t-32.5 -123l-8 -88h233l11 -17l-21 -141h-233l-19 -395q-12 -211 -139 -375t-324 -164q-68 0 -133 34t-65 69z" />
<glyph unicode="&#x1fa;" horiz-adv-x="1353" d="M-68 -4l35 178q74 18 113 113l432 1028l547 33l28 -25q98 -789 127 -1010q8 -70 31 -100.5t66 -36.5l12 -20l-37 -162q-172 4 -282 4l-386 -10l-14 18l33 172q86 10 110.5 22.5t24.5 47.5v117q-133 4 -149 4l-158 -11l-27 -90q-12 -39 -12 -55q0 -31 47 -31h55l15 -20 l-37 -170q-186 6 -307 6zM561 616h98q14 0 101 5l-21 358h-45zM571 1896q227 86 459 185l31 -8l65 -199l-12 -31q-240 -43 -469 -100l-35 24zM623 1516q0 94 63.5 158.5t161.5 64.5q84 0 124 -45t40 -113q0 -90 -64 -159.5t-164 -69.5q-78 0 -119.5 44t-41.5 120zM752 1538 q0 -57 61 -57q25 0 47.5 15t22.5 54q0 55 -62 56q-70 0 -69 -68z" />
<glyph unicode="&#x1fb;" horiz-adv-x="1175" d="M-43 -2l29 149q57 16 86 80l344 797l499 27l25 -23q89 -635 107 -772q10 -96 71 -106l12 -19l-32 -135q-145 2 -242 2l-330 -6l-12 14l27 148q70 8 88 16t18 33q0 2 1 9t1 13l2 43l-116 2l-126 -6l-14 -53q-8 -25 -8 -37q0 -18 33 -18h39l14 -19l-31 -143q-160 4 -260 4 h-225zM418 1602q227 86 459 184l30 -8l66 -199l-12 -31q-240 -43 -469 -100l-35 25zM483 1241q0 94 63.5 158.5t162.5 64.5q84 0 123.5 -45t39.5 -112q0 -90 -63.5 -160t-163.5 -70q-78 0 -120 44t-42 120zM492 487h73q39 0 76 2l-12 254h-41zM612 1264q1 -58 62 -58 q25 0 47 15.5t22 54.5q0 55 -61 55q-70 0 -70 -67z" />
<glyph unicode="&#x1fc;" horiz-adv-x="1875" d="M-49 -4l16 178q78 18 127 113l412 800q-2 57 -45 58l-51 -4l-23 28l39 162q334 -6 676 -6q545 4 694 25l23 -33q-61 -215 -97 -408l-284 -18q14 66 14 100q0 53 -37 70.5t-139 17.5q-70 0 -70 -49l13 -268l143 26l207 54l30 -35l-51 -238l-196 -24l-127 -25l2 -149 q2 -137 90 -138q109 0 150.5 40t76.5 180l264 18l23 -31q-61 -199 -109 -422l-34 -32q-328 14 -725 14l-345 -12l-12 18l33 172q82 8 110.5 25.5t32.5 62.5q6 61 6 66l7 117l-150 -27l-158 -47l-38 -109q-18 -51 -19 -59q0 -18 17.5 -21.5t89.5 -3.5l6 -20l-35 -170 q-12 6 -397 6zM623 664l82 8l100 18l8 289h-45zM825 1573l383 342h35l148 -207l-5 -35q-221 -115 -432 -239l-45 14z" />
<glyph unicode="&#x1fd;" horiz-adv-x="1613" d="M-29 -2l15 152q72 18 102 77l318 604q-2 49 -37 50l-41 -4l-21 24l33 135l80 -1q80 -1 234.5 -2t283.5 -1q451 4 586 19l20 -27q-49 -176 -78 -326l-256 -16q12 49 13 74q0 39 -29 52t-107 13q-51 0 -51 -35l15 -182l108 21l174 45l29 -31l-43 -201l-166 -22l-96 -19 l2 -90q2 -106 69 -106q80 0 112 31.5t60 134.5l238 14l21 -27q-51 -158 -91 -338l-30 -26l-75 2q-75 2 -230.5 5t-309.5 3l-291 -8l-12 14l29 146q68 8 88 18t25 41q4 33 4 49l6 74l-119 -23l-129 -41l-16 -61q-2 -8 -6.5 -16.5t-6.5 -13.5t-2 -9q0 -14 90 -14l-6 -19 l-28 -143q-8 4 -343 4h-135zM543 520l59 6l78 15l6 202h-41zM633 1278l383 342h35l147 -207l-4 -35q-221 -115 -432 -239l-45 14z" />
<glyph unicode="&#x1fe;" horiz-adv-x="1296" d="M18 -106l156 229q-137 143 -137 401q0 397 185.5 611.5t539.5 214.5q113 0 209 -29l141 219l199 -110l4 -27l-135 -205q127 -139 127 -383q0 -397 -188.5 -618.5t-538.5 -221.5q-108 0 -197 25l-162 -240l-194 113zM414 1608q251 94 510 204l32 -10l74 -221l-14 -33 q-266 -49 -520 -112l-39 26zM506 479q0 -246 129 -246q106 0 152.5 137.5t46.5 452.5q0 246 -134 246q-102 0 -148 -138t-46 -452z" />
<glyph unicode="&#x1ff;" horiz-adv-x="1097" d="M-8 -66l137 181q-96 109 -96 303q0 635 596 635q100 0 174 -21l143 195l197 -113l2 -22l-137 -187q80 -101 79 -276q0 -313 -151.5 -480t-443.5 -167q-78 0 -154 16l-148 -197l-192 117zM211 1360q251 94 510 205l33 -11l73 -221l-14 -33q-266 -49 -520 -112l-39 26z M453 391q0 -106 18.5 -147t63.5 -41q74 0 102.5 94t28.5 326q0 106 -19.5 147t-66.5 41q-70 0 -98.5 -94t-28.5 -326z" />
<glyph unicode="&#x218;" horiz-adv-x="1097" d="M-27 100q63 203 86 338l260 19q-10 -98 27 -153.5t119 -55.5q59 0 96 25.5t37 66.5q0 33 -28.5 61.5t-64.5 48t-99 47.5q-11 5 -15 7q-70 33 -112.5 59.5t-95 70.5t-78 103.5t-25.5 132.5q0 217 180 348.5t477 131.5q98 0 196.5 -14.5t148.5 -28.5l51 -15l20 -45 q-59 -172 -96 -356l-242 -17l-22 17q6 47 6 57q0 119 -127 119q-57 0 -93 -28.5t-36 -71.5q0 -39 34.5 -69t104.5 -64q6 -4 66.5 -32t78 -38t67.5 -39t69.5 -52.5t48 -59t40 -78.5t11.5 -93q0 -217 -177.5 -342t-486.5 -125q-104 0 -205.5 22.5t-150.5 44.5l-49 21z M150 -561q59 43 95 102.5t36 114.5q-1 90 -60 156l6 28q117 90 209 90q78 0 126 -56t48 -150q0 -109 -92 -224.5t-250 -206.5l-118 95v51z" />
<glyph unicode="&#x219;" horiz-adv-x="946" d="M-16 82q53 164 71 260l234 16q-6 -61 24.5 -102t89.5 -41q94 0 95 51q0 33 -38 56.5t-119 54.5l-15 6q-57 25 -92 45.5t-78 54t-64.5 80.5t-21.5 107q0 174 152.5 277.5t410.5 103.5q82 0 166 -11.5t127 -22.5l43 -11l18 -39q-49 -135 -80 -279l-217 -14l-20 14 q4 31 4 33q0 88 -99 88q-41 0 -66.5 -17.5t-25.5 -46.5q0 -45 115 -94q157 -63 208 -101q105 -78 105 -202q0 -172 -150.5 -269t-414.5 -97q-90 0 -176 17t-127 35l-41 17zM109 -561q59 43 95 102.5t36 114.5q-1 90 -60 156l6 28q117 90 209 90q78 0 126 -56t48 -150 q0 -109 -92 -224.5t-250 -206.5l-118 95v51z" />
<glyph unicode="&#x21a;" horiz-adv-x="1183" d="M35 782q51 303 82 537l30 29l236 -23h625l247 23l23 -29l-55 -520l-256 -17q10 197 -4.5 246t-85.5 49q-104 -690 -105 -788q0 -55 20.5 -79t67.5 -24l103 7l8 -13l-41 -192q-293 12 -408 12l-409 -18l39 188q123 10 165 44t54 130l90 733q-74 0 -103.5 -51t-64.5 -227z M209 -561q59 43 95 102.5t36 114.5q0 90 -59 156l6 28q117 90 209 90q78 0 126 -56t48 -150q0 -109 -92.5 -224.5t-249.5 -206.5l-119 95v51z" />
<glyph unicode="&#x21b;" horiz-adv-x="1021" d="M29 584q41 252 65 442l27 25l205 -19h520l213 19l20 -25l-47 -430l-229 -12q10 145 1 189t-56 44q-76 -551 -76 -579q0 -80 71 -80l84 6l9 -10l-35 -164q-252 10 -350 10l-355 -16l33 161q98 8 134 32.5t44 90.5l70 549q-47 0 -67.5 -43t-47.5 -178zM158 -561 q59 43 95 102.5t36 114.5q-1 90 -60 156l7 28q117 90 208 90q78 0 126 -56t48 -150q0 -109 -92 -224.5t-250 -206.5l-118 95v51z" />
<glyph unicode="&#x237;" horiz-adv-x="591" d="M-119 -186l6 26q113 78 154 147.5t61 227.5l72 584q6 49 -1 65.5t-40 16.5l-55 -4l-15 26l29 129l244 2l338 10l-35 -161q-47 -10 -60.5 -24.5t-21.5 -57.5q-51 -246 -104 -674q-23 -152 -144 -247t-362 -146z" />
<glyph unicode="&#x2c6;" d="M125 1237q176 141 373 319h55q156 -178 295 -319l-109 -127l-49 -14q-55 43 -205 141q-147 -82 -235 -141l-47 14z" />
<glyph unicode="&#x2c7;" d="M141 1374l109 127l49 15q63 -51 203 -142q147 82 237 142l45 -15l78 -127q-174 -141 -373 -319h-55q-154 178 -293 319z" />
<glyph unicode="&#x2d8;" d="M145 1374l97 127l57 15q43 -144 205 -144q164 0 239 144l56 -15l65 -127q-51 -119 -150.5 -198.5t-242.5 -79.5t-224 79.5t-102 198.5z" />
<glyph unicode="&#x2d9;" d="M295 1276q0 111 64.5 177.5t170.5 66.5q80 0 124 -43t44 -123q0 -109 -64.5 -175.5t-168.5 -66.5q-82 0 -126 43t-44 121z" />
<glyph unicode="&#x2da;" d="M283 1292q0 104 70.5 176t178.5 72q94 0 138.5 -49t44.5 -125q0 -102 -69.5 -179t-182.5 -77q-88 0 -134 49t-46 133zM426 1317q0 -64 68 -64q29 0 53 17.5t24 60.5q0 61 -67 62q-78 0 -78 -76z" />
<glyph unicode="&#x2db;" horiz-adv-x="794" d="M51 -332q0 80 60.5 165t246.5 253h140q-141 -164 -183.5 -226.5t-42.5 -107.5q0 -31 18.5 -50t49.5 -19q25 0 58.5 13t55.5 25l21 13l43 -82q-127 -111 -225 -148q-115 0 -178.5 44t-63.5 120z" />
<glyph unicode="&#x2dc;" d="M86 1186l4 33l191 235l34 8q37 0 154 -34.5t145 -34.5q20 0 57.5 29.5t63.5 59.5l27 29h33l108 -110l-4 -33l-190 -235l-35 -9q-37 0 -154 35t-145 35q-23 0 -59.5 -29.5t-62.5 -59.5l-26 -30h-32z" />
<glyph unicode="&#x2dd;" d="M-16 1159l221 375l28 10l173 -129l6 -29q-150 -150 -289 -305h-39zM317 1159l222 375l28 10l172 -129l6 -29q-150 -150 -288 -305h-39z" />
<glyph unicode="&#x323;" horiz-adv-x="456" d="M-68 -311q0 111 64.5 177t171.5 66q82 0 125 -44t43 -121q0 -109 -65 -175.5t-169 -66.5q-82 0 -126 43t-44 121z" />
<glyph unicode="&#x394;" horiz-adv-x="1355" d="M-33 27l545 1288l551 35h20q88 -737 193 -1336l-21 -14h-1265zM440 279h340l-32 739h-50z" />
<glyph unicode="&#x2206;" horiz-adv-x="1355" d="M-33 27l545 1288l551 35h20q88 -737 193 -1336l-21 -14h-1265zM440 279h340l-32 739h-50z" />
<glyph unicode="&#x3a9;" horiz-adv-x="1720" d="M-45 39l53 465l219 18q-10 -147 16.5 -215.5t98.5 -77.5l100 -18q-170 188 -170 459q0 297 198 488.5t503 191.5q254 0 407.5 -130t153.5 -348q0 -375 -332 -663l113 20q68 10 110.5 74t73.5 201l219 18q-38 -295 -63 -483l-47 -45l-578 12l-149 -20l-35 166 q100 100 155.5 265t55.5 361q0 156 -32 223.5t-103 67.5q-104 0 -150.5 -134t-46.5 -437q0 -238 78 -346l-74 -166l-143 20l-594 -12z" />
<glyph unicode="&#x2126;" horiz-adv-x="1720" d="M-45 39l53 465l219 18q-10 -147 16.5 -215.5t98.5 -77.5l100 -18q-170 188 -170 459q0 297 198 488.5t503 191.5q254 0 407.5 -130t153.5 -348q0 -375 -332 -663l113 20q68 10 110.5 74t73.5 201l219 18q-38 -295 -63 -483l-47 -45l-578 12l-149 -20l-35 166 q100 100 155.5 265t55.5 361q0 156 -32 223.5t-103 67.5q-104 0 -150.5 -134t-46.5 -437q0 -238 78 -346l-74 -166l-143 20l-594 -12z" />
<glyph unicode="&#x3c0;" horiz-adv-x="1282" d="M-18 848l6 18l200 154l33 14q127 0 381 -10t299 -10l418 20l10 -14l-55 -197l-17 -14q-96 0 -127.5 -20.5t-52.5 -92.5q-12 -45 -31.5 -161.5t-19.5 -161.5q0 -59 26.5 -78t104.5 -19l25 -49q-2 -35 -124 -143.5t-157 -108.5q-143 0 -200.5 64.5t-41.5 204.5l60 469 q6 53 -4 71.5t-45 18.5q-37 0 -49.5 -12.5t-20.5 -63.5l-82 -637l-20 -194l-27 -31l-346 -58l-16 35q12 27 71.5 422t59.5 457q0 55 -33 55q-51 0 -150 -67l-20 -2z" />
<glyph unicode="&#x1e80;" horiz-adv-x="1988" d="M74 1167l39 162q158 -4 262 -4l370 10l13 -18l-35 -172q-76 -12 -104.5 -35t-28.5 -70l10 -696h43q143 401 229 684q10 45 15 55q4 39 -14.5 51.5t-86.5 12.5l-12 20l39 162q207 -4 326 -4l368 10l15 -18l-35 -172q-80 -8 -107.5 -29.5t-27.5 -75.5l12 -696h43 q66 176 154 452.5t88 309.5q0 23 -9.5 29t-42.5 6h-47l-12 20l37 170q180 -6 295 -6l235 2l-34 -178q-35 -12 -52.5 -33.5t-40.5 -79.5l-385 -1028l-553 -35l-12 584h-29l-178 -549l-553 -35q-78 815 -98 1037q-14 72 -31.5 100.5t-52.5 36.5zM831 1561l74 221l33 10 q258 -111 510 -205l-43 -145l-39 -27q-113 29 -243 56.5t-203 41.5l-74 15z" />
<glyph unicode="&#x1e81;" horiz-adv-x="1695" d="M63 899l33 137q131 -4 221 -4l318 6l10 -14l-29 -147q-51 -8 -77.5 -111.5t-26.5 -171.5v-305h39q113 315 170 516l18 55q-2 23 -80 21l-10 18l33 137q176 -4 281 -4l315 6l12 -14l-28 -147q-61 -6 -84 -23.5t-23 -58.5l2 -506h39q49 129 111.5 332.5t62.5 230.5 q0 16 -5 19t-30 3h-32l-13 19l31 143q154 -4 248 -4l198 2l-28 -151q-27 -10 -41.5 -28.5t-30.5 -59.5l-295 -789l-504 -26v413h-26l-123 -387l-504 -26q-68 666 -78 792q-12 59 -24.5 80.5t-38.5 28.5zM657 1266l74 221l33 10q258 -111 510 -205l-43 -145l-39 -27 q-113 29 -243 56.5t-204 42.5l-73 14zM737 840v8v-8z" />
<glyph unicode="&#x1e82;" horiz-adv-x="1988" d="M74 1167l39 162q158 -4 262 -4l370 10l13 -18l-35 -172q-76 -12 -104.5 -35t-28.5 -70l10 -696h43q143 401 229 684q10 45 15 55q4 39 -14.5 51.5t-86.5 12.5l-12 20l39 162q207 -4 326 -4l368 10l15 -18l-35 -172q-80 -8 -107.5 -29.5t-27.5 -75.5l12 -696h43 q66 176 154 452.5t88 309.5q0 23 -9.5 29t-42.5 6h-47l-12 20l37 170q180 -6 295 -6l235 2l-34 -178q-35 -12 -52.5 -33.5t-40.5 -79.5l-385 -1028l-553 -35l-12 584h-29l-178 -549l-553 -35q-78 815 -98 1037q-14 72 -31.5 100.5t-52.5 36.5zM854 1587q251 94 510 205 l33 -10l73 -221l-14 -33q-266 -49 -520 -113l-39 27z" />
<glyph unicode="&#x1e83;" horiz-adv-x="1695" d="M63 899l33 137q131 -4 221 -4l318 6l10 -14l-29 -147q-51 -8 -77.5 -111.5t-26.5 -171.5v-305h39q113 315 170 516l18 55q-2 23 -80 21l-10 18l33 137q176 -4 281 -4l315 6l12 -14l-28 -147q-61 -6 -84 -23.5t-23 -58.5l2 -506h39q49 129 111.5 332.5t62.5 230.5 q0 16 -5 19t-30 3h-32l-13 19l31 143q154 -4 248 -4l198 2l-28 -151q-27 -10 -41.5 -28.5t-30.5 -59.5l-295 -789l-504 -26v413h-26l-123 -387l-504 -26q-68 666 -78 792q-12 59 -24.5 80.5t-38.5 28.5zM649 1292q251 94 510 205l33 -10l74 -221l-15 -33q-266 -49 -520 -113 l-39 27zM737 840v8v-8z" />
<glyph unicode="&#x1e84;" horiz-adv-x="1988" d="M74 1167l39 162q158 -4 262 -4l370 10l13 -18l-35 -172q-76 -12 -104.5 -35t-28.5 -70l10 -696h43q143 401 229 684q10 45 15 55q4 39 -14.5 51.5t-86.5 12.5l-12 20l39 162q207 -4 326 -4l368 10l15 -18l-35 -172q-80 -8 -107.5 -29.5t-27.5 -75.5l12 -696h43 q66 176 154 452.5t88 309.5q0 23 -9.5 29t-42.5 6h-47l-12 20l37 170q180 -6 295 -6l235 2l-34 -178q-35 -12 -52.5 -33.5t-40.5 -79.5l-385 -1028l-553 -35l-12 584h-29l-178 -549l-553 -35q-78 815 -98 1037q-14 72 -31.5 100.5t-52.5 36.5zM821 1540q0 92 54.5 148.5 t144.5 56.5q68 0 104.5 -37t36.5 -102q0 -90 -54 -146.5t-142 -56.5q-143 0 -144 137zM1204 1540q0 92 54.5 148.5t144.5 56.5q70 0 106.5 -37t36.5 -102q0 -90 -54 -146.5t-142 -56.5q-145 0 -146 137z" />
<glyph unicode="&#x1e85;" horiz-adv-x="1695" d="M63 899l33 137q131 -4 221 -4l318 6l10 -14l-29 -147q-51 -8 -77.5 -111.5t-26.5 -171.5v-305h39q113 315 170 516l18 55q-2 23 -80 21l-10 18l33 137q176 -4 281 -4l315 6l12 -14l-28 -147q-61 -6 -84 -23.5t-23 -58.5l2 -506h39q49 129 111.5 332.5t62.5 230.5 q0 16 -5 19t-30 3h-32l-13 19l31 143q154 -4 248 -4l198 2l-28 -151q-27 -10 -41.5 -28.5t-30.5 -59.5l-295 -789l-504 -26v413h-26l-123 -387l-504 -26q-68 666 -78 792q-12 59 -24.5 80.5t-38.5 28.5zM631 1266q0 92 54 148t144 56q68 0 105 -36.5t37 -102.5 q0 -90 -54.5 -146.5t-142.5 -56.5q-143 0 -143 138zM737 840v8v-8zM1014 1266q0 92 54 148t144 56q70 0 107 -36.5t37 -102.5q0 -90 -54.5 -146.5t-142.5 -56.5q-145 0 -145 138z" />
<glyph unicode="&#x1ef2;" horiz-adv-x="1331" d="M82 1141l43 186q238 -4 303 -4l363 14l12 -22l-39 -168q-84 0 -84 -55q0 -68 68 -299h28l103 233q37 68 36 94q0 29 -69 29l-4 12l37 162h317l227 8l7 -16l-37 -178q-150 -84 -250 -258l-225 -373q-39 -72 -54 -191q-10 -72 8.5 -100.5t75.5 -28.5l103 7l8 -13l-41 -192 q-301 12 -418 12l-412 -18l39 188q129 10 173 41t55 121l4 33q10 78 -33 184l-164 407q-41 109 -172 172zM475 1561l74 221l33 10q258 -111 510 -205l-43 -145l-39 -27q-113 29 -243 56.5t-204 41.5l-74 15z" />
<glyph unicode="&#x1ef3;" horiz-adv-x="1163" d="M74 872l37 162q209 -4 260 -4l309 10l12 -18l-33 -143q-61 2 -61 -39t47 -201h27l63 152q31 55 31 71q0 20 -53 19l-4 10l30 137q53 0 141.5 1t133.5 1l194 6l4 -12l-30 -154q-127 -78 -201 -198l-184 -291q-31 -59 -39 -123q-6 -55 10 -77.5t61 -22.5l86 6l9 -10 l-35 -164q-264 10 -365 10l-360 -14l33 159q109 6 146.5 29t45.5 90l2 17q8 55 -29 137l-143 321q-27 57 -137 125zM342 1266l74 221l33 10q258 -111 509 -205l-43 -145l-38 -27q-113 29 -243 56.5t-204 42.5l-74 14z" />
<glyph unicode="&#x2000;" horiz-adv-x="1040" />
<glyph unicode="&#x2001;" horiz-adv-x="2081" />
<glyph unicode="&#x2002;" horiz-adv-x="1040" />
<glyph unicode="&#x2003;" horiz-adv-x="2081" />
<glyph unicode="&#x2004;" horiz-adv-x="693" />
<glyph unicode="&#x2005;" horiz-adv-x="520" />
<glyph unicode="&#x2006;" horiz-adv-x="346" />
<glyph unicode="&#x2007;" horiz-adv-x="346" />
<glyph unicode="&#x2008;" horiz-adv-x="260" />
<glyph unicode="&#x2009;" horiz-adv-x="416" />
<glyph unicode="&#x200a;" horiz-adv-x="115" />
<glyph unicode="&#x2010;" horiz-adv-x="643" d="M55 397l47 217l306 35l170 23l18 -37l-53 -221l-467 -54z" />
<glyph unicode="&#x2011;" horiz-adv-x="643" d="M55 397l47 217l306 35l170 23l18 -37l-53 -221l-467 -54z" />
<glyph unicode="&#x2012;" horiz-adv-x="643" d="M55 397l47 217l306 35l170 23l18 -37l-53 -221l-467 -54z" />
<glyph unicode="&#x2013;" horiz-adv-x="888" d="M-29 444l47 215h484q281 1 416 5l14 -39l-53 -217q-145 0 -441.5 -1t-449.5 -1z" />
<glyph unicode="&#x2014;" horiz-adv-x="1640" d="M-29 444l47 215h803q803 1 846 5l16 -39l-55 -217q-270 0 -811 -1t-829 -1z" />
<glyph unicode="&#x2018;" horiz-adv-x="532" d="M121 920q0 109 92 224.5t250 205.5l119 -95v-51q-59 -43 -95 -102.5t-36 -114.5q0 -90 59 -156l-6 -28q-117 -90 -209 -90q-78 0 -126 56t-48 151z" />
<glyph unicode="&#x2019;" horiz-adv-x="532" d="M84 807v51q59 41 95 100.5t36 116.5q0 90 -59 156l6 29q117 90 209 90q78 0 126 -56.5t48 -150.5q0 -109 -92.5 -224.5t-249.5 -205.5z" />
<glyph unicode="&#x201a;" horiz-adv-x="473" d="M-61 -104q59 43 95 102t36 115q-1 89 -60 155l6 29q117 90 209 90q78 0 126 -56.5t48 -150.5q0 -109 -92 -224.5t-250 -205.5l-118 94v52z" />
<glyph unicode="&#x201c;" horiz-adv-x="964" d="M238 920q0 109 92 224.5t250 205.5l118 -95v-51q-59 -43 -95 -102.5t-36 -114.5q1 -90 60 -156l-6 -28q-117 -90 -209 -90q-78 0 -126 56t-48 151zM672 920q0 109 92 224.5t250 205.5l119 -95v-51q-59 -43 -95.5 -102.5t-36.5 -114.5q1 -90 60 -156l-6 -28 q-117 -90 -209 -90q-78 0 -126 56t-48 151z" />
<glyph unicode="&#x201d;" horiz-adv-x="964" d="M211 807v51q59 41 95 100.5t36 116.5q0 90 -59 156l6 29q117 90 209 90q78 0 126 -56.5t48 -150.5q0 -109 -92.5 -224.5t-249.5 -205.5zM645 807v51q59 41 95 100.5t36 116.5q0 90 -59 156l6 29q117 90 209 90q78 0 126 -56.5t48 -150.5q0 -109 -92 -224.5t-250 -205.5z " />
<glyph unicode="&#x201e;" horiz-adv-x="892" d="M-74 -104q59 43 95 102t36 115q0 89 -59 155l6 29q117 90 209 90q78 0 126 -56.5t48 -150.5q0 -109 -92 -224.5t-250 -205.5l-119 94v52zM354 -104q59 43 95 102t36 115q0 89 -59 155l6 29q117 90 209 90q78 0 126 -56.5t48 -150.5q0 -109 -92 -224.5t-250 -205.5 l-119 94v52z" />
<glyph unicode="&#x2020;" horiz-adv-x="1040" d="M94 643l51 234l301 -3l39 326l250 14l25 -20l-45 -320l307 11l16 -29l-51 -231h-307l-96 -799l-250 -14l-19 18l101 793h-305z" />
<glyph unicode="&#x2021;" horiz-adv-x="1038" d="M35 158l51 233l299 -2l33 246h-305l-17 20l51 234l302 -2l36 313l250 14l25 -20l-43 -307l305 10l18 -29l-51 -231h-307l-31 -248l312 10l16 -28l-51 -232h-307l-37 -313l-250 -14l-19 18l39 307h-303z" />
<glyph unicode="&#x2022;" horiz-adv-x="675" d="M74 442q0 147 84 235.5t227 88.5q104 0 160.5 -57.5t56.5 -161.5q0 -145 -84 -234.5t-223 -89.5q-106 0 -163.5 56.5t-57.5 162.5z" />
<glyph unicode="&#x2024;" horiz-adv-x="473" d="M-2 145q0 111 64.5 177.5t170.5 66.5q80 0 123 -44t43 -122q0 -109 -64.5 -175t-168.5 -66q-168 0 -168 163z" />
<glyph unicode="&#x2025;" horiz-adv-x="931" d="M-14 145q0 111 64.5 177.5t170.5 66.5q80 0 123 -44t43 -122q0 -109 -64.5 -175t-168.5 -66q-168 0 -168 163zM489 145q0 111 64.5 177.5t171.5 66.5q80 0 123 -44t43 -122q0 -109 -65 -175t-169 -66q-168 0 -168 163z" />
<glyph unicode="&#x2026;" horiz-adv-x="1390" d="M8 145q0 111 64.5 177.5t171.5 66.5q80 0 123 -44t43 -122q0 -109 -65 -175t-169 -66q-168 0 -168 163zM467 145q0 111 64.5 177.5t170.5 66.5q80 0 123 -44t43 -122q0 -109 -64.5 -175t-168.5 -66q-168 0 -168 163zM926 145q0 111 64.5 177.5t170.5 66.5q80 0 123 -44 t43 -122q0 -109 -64.5 -175t-168.5 -66q-168 0 -168 163z" />
<glyph unicode="&#x202f;" horiz-adv-x="416" />
<glyph unicode="&#x2030;" horiz-adv-x="2187" d="M49 889q0 219 106.5 340t278.5 121q123 0 189.5 -74t66.5 -219q0 -219 -105.5 -341t-275.5 -122q-123 0 -191.5 74.5t-68.5 220.5zM154 -80q227 328 397 598l547 873l178 -66l20 -49q-367 -567 -553 -852l-387 -610l-190 71zM217 961q1 -84 148 -84q84 0 118.5 23.5 t34.5 74.5q0 84 -147 84q-84 0 -119 -22.5t-35 -75.5zM866 270q0 219 106.5 340t278.5 121q123 0 189.5 -73.5t66.5 -219.5q0 -219 -105.5 -341t-275.5 -122q-123 0 -191.5 75t-68.5 220zM1034 342q1 -84 148 -84q84 0 118.5 23.5t34.5 74.5q0 84 -147 84q-84 0 -119 -22.5 t-35 -75.5zM1538 270q0 219 106.5 340t278.5 121q123 0 189.5 -73.5t66.5 -219.5q0 -219 -105.5 -341t-275.5 -122q-123 0 -191.5 75t-68.5 220zM1706 342q0 -84 147 -84q86 0 120 23.5t34 74.5q0 84 -147 84q-84 0 -119 -22.5t-35 -75.5z" />
<glyph unicode="&#x2039;" horiz-adv-x="536" d="M14 449l6 55q197 190 353 360l119 -71l10 -48q-37 -51 -168 -270q49 -150 100 -268l-20 -47l-135 -74q-114 172 -265 363z" />
<glyph unicode="&#x203a;" horiz-adv-x="536" d="M35 205q72 104 166 270q-49 150 -101 268l21 48l135 73q116 -172 264 -362l-6 -56q-194 -190 -352 -360l-119 72z" />
<glyph unicode="&#x2044;" horiz-adv-x="382" d="M-467 -80q227 328 397 598l547 873l178 -66l21 -49q-367 -567 -553 -852l-387 -610l-191 71z" />
<glyph unicode="&#x205f;" horiz-adv-x="520" />
<glyph unicode="&#x2070;" horiz-adv-x="704" d="M37 967q0 244 101.5 384t277.5 140q242 0 241 -315q0 -244 -99 -383.5t-275 -139.5q-246 0 -246 314zM221 1042q0 -112 115 -112q76 0 105.5 35.5t29.5 126.5q0 59 -27.5 86.5t-89.5 27.5q-72 0 -102.5 -36.5t-30.5 -127.5z" />
<glyph unicode="&#x2074;" horiz-adv-x="731" d="M-16 844l18 147l397 496l13 4l217 -18l-56 -457h89l14 -21l-37 -166l-86 2l-12 -145l-17 -16l-250 -17l-14 17q16 82 29 170zM203 1016h110l21 166h-17z" />
<glyph unicode="&#x2075;" horiz-adv-x="643" d="M-14 848l41 35q47 -27 125 -27q57 0 92 19.5t35 50.5q0 29 -46.5 45t-158.5 30l-11 17l78 422l15 10l288 8q70 0 95 55l120 7l-71 -256l-35 -29q-115 10 -250 10l-10 -53q154 -29 219.5 -81t65.5 -142q0 -125 -145.5 -220.5t-326.5 -95.5q-74 0 -99 43t-21 152z" />
<glyph unicode="&#x2076;" horiz-adv-x="694" d="M12 920q0 312 348 487q121 61 228 84l18 -8l31 -121q-145 -51 -262 -172l6 -16q39 10 70 22q90 0 142 -54.5t52 -152.5q0 -156 -101.5 -246t-271.5 -90q-123 0 -191.5 72t-68.5 195zM262 913q0 -86 51 -86q43 0 58.5 28t15.5 91q0 74 -43 74q-41 0 -70 -19 q-12 -61 -12 -88z" />
<glyph unicode="&#x2077;" horiz-adv-x="638" d="M31 1135q43 188 69 340l9 6q82 -6 165 -6h310l73 -103q-117 -209 -274 -510l-80 -207h-41l-180 56l-12 39l317 516l-108 -13q-61 -8 -83 -26.5t-40 -83.5z" />
<glyph unicode="&#x2078;" horiz-adv-x="686" d="M4 844q0 129 143 186q-88 78 -88 187q0 119 101.5 196.5t245.5 77.5q106 0 177.5 -54.5t71.5 -133.5q0 -121 -127 -183q90 -63 90 -170q0 -127 -102 -212t-250 -85q-117 0 -189.5 54.5t-72.5 136.5zM231 889q0 -76 63.5 -76t63.5 57q0 6 -1 11.5t-5 11.5t-8 10t-11 10.5 t-12.5 9.5t-16.5 10t-16 10t-18.5 10.5t-19.5 11.5q-18 -27 -19 -76zM317 1264q0 -41 89 -80q23 41 22 80q0 55 -53 55q-27 0 -42.5 -15t-15.5 -40z" />
<glyph unicode="&#x2079;" horiz-adv-x="694" d="M37 1155q0 154 102.5 245t272.5 91q121 0 190.5 -71.5t69.5 -194.5q0 -313 -348 -490q-121 -61 -228 -84l-18 11l-31 120q143 49 260 172l-4 17q-61 -20 -70 -25q-90 0 -143 55.5t-53 153.5zM297 1198q0 -76 43 -76q31 0 68 19q14 45 14 90q0 86 -51 86 q-45 0 -59.5 -27.5t-14.5 -91.5z" />
<glyph unicode="&#x207f;" horiz-adv-x="806" d="M33 1184l16 121l326 18l22 -31q-29 -98 -41 -190l11 2q78 186 149 235q106 0 165.5 -39.5t59.5 -109.5q0 -29 -37.5 -148t-39.5 -135l4 -4q10 0 67 53l37 -6l29 -69q-117 -129 -181.5 -176.5t-127.5 -47.5q-100 0 -101 88q0 29 41 162t41 154q0 37 -22 37 q-20 0 -61.5 -81t-84.5 -204l-8 -76q-4 -33 -70.5 -55.5t-154.5 -22.5l-31 35q57 346 72 430q4 33 -5.5 46.5t-37.5 13.5h-37z" />
<glyph unicode="&#x2080;" horiz-adv-x="704" d="M37 51q0 244 101.5 384t277.5 140q242 0 241 -315q0 -244 -99 -383t-275 -139q-246 0 -246 313zM221 127q0 -113 115 -113q76 0 105.5 36t29.5 126q0 59 -27.5 87t-89.5 28q-72 0 -102.5 -37t-30.5 -127z" />
<glyph unicode="&#x2081;" horiz-adv-x="565" d="M-29 -260l27 119q125 12 133 90l45 377q6 49 -3 63t-48 14l-66 -2l-12 15l27 108q8 0 186 21q258 31 258 30l19 -65q-43 -28 -70 -96q-12 -31 -43 -224.5t-31 -240.5q0 -66 41 -66l60 2l4 -8l-37 -131q-141 8 -217 8z" />
<glyph unicode="&#x2082;" horiz-adv-x="755" d="M-4 -254l4 150l213 198q133 129 133 189q0 51 -57 51q-76 0 -164 -90h-29l-16 176q156 156 323 155q113 0 180.5 -52t67.5 -136q0 -96 -63.5 -189.5t-229.5 -242.5l7 -12h53q47 0 73.5 27.5t40.5 97.5l179 12q-53 -190 -74 -316l-29 -26q-324 16 -471 16z" />
<glyph unicode="&#x2083;" horiz-adv-x="659" d="M-8 -68l39 35q53 -27 127 -26q59 0 95 20.5t36 54.5q0 53 -131 54l-19 22v135l92 17q84 31 84 98q0 41 -49 41q-53 0 -145 -55h-23l-28 151q72 45 157.5 70.5t149.5 25.5q102 0 160.5 -40.5t58.5 -110.5q0 -68 -48 -122t-128 -75v-16q174 -66 174 -184 q0 -115 -148.5 -202t-332.5 -87q-74 0 -99.5 42.5t-21.5 151.5z" />
<glyph unicode="&#x2084;" horiz-adv-x="731" d="M-16 -72l18 148l397 495l13 4l217 -18l-56 -457h89l14 -20l-37 -166l-86 2l-12 -145l-17 -17l-250 -16l-14 16q16 82 29 170zM203 100h110l21 166h-17z" />
<glyph unicode="&#x2085;" horiz-adv-x="643" d="M-14 -68l41 35q47 -27 125 -26q57 0 92 19.5t35 49.5q0 29 -46.5 45.5t-158.5 30.5l-11 16l78 422l15 11l288 8q70 0 95 55l120 6l-71 -256l-35 -29q-115 10 -250 11l-10 -54q154 -29 219.5 -81t65.5 -142q0 -125 -145.5 -220t-326.5 -95q-74 0 -99 43t-21 151z" />
<glyph unicode="&#x2086;" horiz-adv-x="694" d="M12 4q0 312 348 488q121 61 228 83l18 -8l31 -121q-145 -51 -262 -172l6 -16q39 10 70 23q90 0 142 -54.5t52 -152.5q0 -156 -101.5 -246t-271.5 -90q-123 0 -191.5 71.5t-68.5 194.5zM262 -2q0 -86 51 -86q43 0 58.5 27.5t15.5 91.5q0 73 -43 73q-41 0 -70 -18 q-12 -61 -12 -88z" />
<glyph unicode="&#x2087;" horiz-adv-x="638" d="M31 219q43 188 69 340l9 6q82 -6 165 -6h310l73 -102q-117 -209 -274 -510l-80 -207h-41l-180 55l-12 39l317 516l-108 -12q-61 -8 -83 -26.5t-40 -84.5z" />
<glyph unicode="&#x2088;" horiz-adv-x="686" d="M4 -72q0 129 143 187q-88 78 -88 186q0 119 101.5 196.5t245.5 77.5q106 0 177.5 -54t71.5 -134q0 -121 -127 -182q90 -63 90 -170q0 -127 -102 -212t-250 -85q-117 0 -189.5 54t-72.5 136zM231 -27q0 -75 63.5 -75t63.5 57q0 6 -1 11t-5 11.5t-8 10.5t-11 10t-12.5 9 t-16.5 10.5t-16 10.5t-18.5 10t-19.5 11q-18 -27 -19 -76zM317 348q0 -41 89 -80q23 41 22 80q0 55 -53 55q-27 0 -42.5 -15t-15.5 -40z" />
<glyph unicode="&#x2089;" horiz-adv-x="694" d="M37 240q0 154 102.5 244.5t272.5 90.5q121 0 190.5 -71.5t69.5 -194.5q0 -313 -348 -489q-121 -61 -228 -84l-18 10l-31 121q143 49 260 172l-4 16q-61 -20 -70 -24q-90 0 -143 55t-53 154zM297 283q0 -76 43 -76q31 0 68 18q14 45 14 90q0 86 -51 86q-45 0 -59.5 -27.5 t-14.5 -90.5z" />
<glyph unicode="&#x20a3;" horiz-adv-x="993" d="M-2 -14l35 157q53 6 76.5 30t37.5 83h-116l-11 10l31 121h115l51 406q6 51 0 68.5t-31 17.5l-41 -2l-20 24l33 135q150 -2 293 -4h114q299 0 475 19l23 -27q-43 -168 -66 -305l-258 -14q12 45 13 63q0 51 -101 53q-29 0 -40 -8t-15 -31l-23 -137q20 0 63.5 -1t65.5 -1 l175 8l18 -24l-39 -185q-123 4 -194 4l-121 -8l-9 -51l212 4l10 -12l-23 -123h-219q-4 -43 8 -58.5t53 -15.5q23 0 44.5 3t31.5 8l10 4l27 -33l-43 -168q-223 4 -299 4q-92 0 -133 -2z" />
<glyph unicode="&#x20ac;" horiz-adv-x="1103" d="M-23 340l35 137h123q0 43 6 82h-121l-14 12l35 138h137q129 342 574 342q61 0 154 -11.5t155 -21.5l61 -10l11 -33q-51 -143 -89 -336l-249 -14q16 88 16 116q0 92 -119 93q-117 0 -157 -125l231 8l14 -17l-30 -139l-242 -2q-4 -49 -4 -82h2l231 8l15 -16l-29 -139 l-211 -2q20 -125 125 -125q66 0 98.5 39t57.5 147l249 17q-43 -186 -61 -338l-25 -25q-166 -59 -376 -59q-188 0 -302 88t-139 256h-147z" />
<glyph unicode="&#x2122;" horiz-adv-x="1140" d="M8 1110q18 121 31 213l12 8l99 -8h251l105 8l8 -8l-20 -207l-115 -6q6 70 2 91.5t-27 21.5q-33 -256 -32 -277q0 -37 34 -37l39 2l4 -6l-16 -76q-123 4 -170 5l-174 -9l16 76q47 4 64.5 16.5t21.5 43.5l31 262q-18 0 -28.5 -21.5t-22.5 -85.5zM453 827l16 74q39 2 51 49 q59 238 60 281q0 14 -43 18l-9 6l19 72q88 -4 123 -4l137 4l14 -217h13q51 125 79 213q139 0 168 2l72 2q2 0 3 -1l3 -1l-16 -74q-31 0 -40 -7t-13 -30q-4 -29 -11 -243q-2 -63 27 -64l24 2l7 -8l-17 -70q-51 2 -90 3q-150 0 -168 -7l19 76q43 2 45 37l20 145h-12 q-62 -145 -103 -254l-118 -8q-10 66 -20.5 132.5t-14.5 93t-4 36.5h-10q-20 -150 -21 -157q0 -23 23 -23l20 2l8 -6l-20 -70q-94 2 -121 3z" />
<glyph unicode="&#x212e;" horiz-adv-x="1632" d="M82 653q0 283 221 481.5t535 198.5q311 0 532 -198.5t221 -481.5v-16h-1222q-10 0 -11 -8v-371q0 -20 19 -43q186 -199 463 -199q295 0 485 224h111q-104 -123 -262 -194t-336 -71q-311 0 -533.5 199t-222.5 479zM358 684q0 -10 11 -10h938q10 0 10 10v373q0 25 -21 45 q-190 190 -456 190q-270 0 -461 -196q-20 -20 -21 -47v-365z" />
<glyph unicode="&#x2202;" horiz-adv-x="1015" d="M12 365q0 248 128 424t304 176l70 -45l10 18q-92 178 -383 395l125 166l35 17q330 -145 514 -389t184 -523q0 -291 -154.5 -462t-418.5 -171q-199 0 -306.5 102.5t-107.5 291.5zM401 342q0 -84 19.5 -118t62.5 -34q41 0 77 129t36 256q0 90 -2 115q-27 20 -62 21 q-61 0 -96 -102.5t-35 -266.5z" />
<glyph unicode="&#x220f;" horiz-adv-x="1427" d="M-35 -10l37 174q80 16 109.5 49t38.5 119q92 707 92 745.5t-13.5 53t-48.5 14.5l-49 -2l-16 28l41 164q242 -10 319 -10h694l347 10l-37 -184q-70 -12 -92.5 -31t-32.5 -76q-31 -168 -73 -451.5t-42 -336.5q0 -45 11.5 -61.5t39.5 -16.5l62 6l14 -20l-39 -172 q-252 8 -334 8l-317 -10l37 174q70 16 94 49t35 119q8 70 32.5 221.5t39 271t14.5 222.5q0 12 -2 23t-4 18.5t-8.5 13.5t-10.5 10t-15 6t-17.5 4t-21.5 2h-25h-30h-32q-49 0 -70.5 -22.5t-32.5 -83.5q-113 -655 -112 -764q0 -43 11 -59.5t36 -16.5q29 0 39 2l8 4l14 -20 l-39 -172q-240 8 -319 8q-25 0 -57.5 -1t-63.5 -1t-62.5 -2t-58 -3t-47 -1t-32.5 -1z" />
<glyph unicode="&#x2211;" horiz-adv-x="1206" d="M-66 125l463 506l-291 608l48 90h96q94 0 278.5 -1t278.5 -1l362 23l21 -23l-39 -453l-250 -34q10 121 -22.5 176t-126.5 71l-179 29l189 -407l-10 -88l-379 -412l307 45q88 10 137 68.5t78 187.5l262 18q-73 -299 -98 -489l-47 -45l-852 12l-170 -20z" />
<glyph unicode="&#x2212;" horiz-adv-x="1005" d="M18 387l70 277q276 -2 453 -2l442 12l10 -31l-61 -278l-451 -3l-448 -2z" />
<glyph unicode="&#x221a;" horiz-adv-x="1001" d="M6 764l43 176q129 10 230 23l192 24l10 -14l19 -676h35l442 1182l61 41h240l-614 -1520l-449 -25q-54 535 -68 680q-10 59 -37.5 81t-99.5 20z" />
<glyph unicode="&#x221e;" horiz-adv-x="1042" d="M8 438q0 176 103.5 302t242.5 126q152 0 242 -145q92 158 235 158q94 0 152.5 -82t58.5 -211q0 -186 -111.5 -314.5t-266.5 -128.5q-154 0 -226 150q-88 -137 -221 -137q-90 0 -149.5 81.5t-59.5 200.5zM215 485q0 -71 76 -71q37 0 90 30q-20 66 -41 100t-53 34 q-72 0 -72 -93zM659 588q46 -121 70 -143q16 -15 35 -15q84 0 84 100q0 43 -24.5 68t-69.5 25q-43 0 -95 -35z" />
<glyph unicode="&#x222b;" horiz-adv-x="905" d="M-109 -233q0 41 31 124.5t60 118.5h36q8 -57 41 -93t78 -36q53 0 76 48t23 165l2 692q0 156 177 297.5t373 141.5q76 0 134.5 -14.5t58.5 -32.5q0 -31 -30.5 -124t-51.5 -126l-37 -6q-96 82 -155 82q-57 0 -85 -37t-34 -123l-35 -641q-10 -223 -145.5 -381t-317.5 -158 q-68 0 -133.5 34t-65.5 69z" />
<glyph unicode="&#x2248;" horiz-adv-x="1005" d="M-20 178l4 33l243 235l45 9q47 0 201 -35t191 -35q29 0 76.5 29.5t81.5 59.5l34 30h33l86 -115l-4 -33l-244 -235l-47 -8q-47 0 -199.5 34.5t-191.5 34.5q-27 0 -75 -29.5t-82 -59.5l-34 -30h-32zM29 588l4 33l246 235l45 8q47 0 199.5 -34.5t191.5 -34.5q27 0 75 29.5 t82 59.5l35 29h33l86 -114l-4 -33l-246 -236l-45 -8q-47 0 -199.5 35t-191.5 35q-27 0 -75 -30t-83 -59l-35 -30h-32z" />
<glyph unicode="&#x2260;" horiz-adv-x="1005" d="M-14 182l71 277q147 -2 299 -2l29 110l-334 -2l-14 27l69 276q190 -2 357 -2l67 254l242 21l10 -17l-67 -256l286 11l11 -31l-60 -279q-53 0 -159.5 -1t-157.5 -1l-29 -110q68 0 155 3t139 6l52 3l11 -31l-62 -278q-51 0 -155.5 -1t-157.5 -1h-64l-57 -221l-244 -23 l-4 18l57 226l-274 -2z" />
<glyph unicode="&#x2264;" horiz-adv-x="929" d="M-20 -215l47 215h438q303 0 315 2l15 -37l-56 -217q-121 0 -366.5 -1t-376.5 -1zM80 408l37 313l370 158q159 67 314 143l33 -23l45 -215q-193 -74 -344 -139l-183 -80l-2 -16l185 -100q268 -131 268 -132l12 -43l-137 -188q-123 59 -258 129l-53 27q-18 8 -118 58 t-157 77zM780 2v2v-2z" />
<glyph unicode="&#x2265;" horiz-adv-x="929" d="M-27 -215l47 215h439q303 0 313 2l16 -37l-55 -217q-121 0 -366.5 -1t-376.5 -1zM68 324q190 74 344 139l180 80l2 16l-182 100q-268 131 -269 132l-14 43l137 188q123 -59 258 -129l56 -27q233 -117 274 -135l12 -31l-39 -313l-370 -158l-312 -143l-34 23zM772 2v2v-2z " />
<glyph unicode="&#x25ca;" horiz-adv-x="1081" d="M82 516l12 100l189 334l200 369l314 14l24 -14l109 -365l112 -327l-16 -105l-176 -313l-211 -385l-313 -14l-29 14l-102 348zM342 557l70 -225l84 -252h16l123 229l143 264l-69 236l-86 254h-17l-129 -238z" />
<glyph unicode="&#xe000;" horiz-adv-x="1040" d="M0 1040h1040v-1040h-1040v1040z" />
<glyph unicode="&#xfb01;" horiz-adv-x="1597" d="M-35 -16l35 161q61 8 86 38t35 102l67 508q6 51 -1 68.5t-31 17.5l-41 -2l-21 24l33 137q254 -6 414 -6q328 0 465 21l22 -29q-43 -180 -67 -326l-259 -14q10 45 11 70q0 37 -21.5 52t-73.5 15q-27 0 -37 -8t-14 -31l-35 -184l132 -2l174 8l20 -24l-47 -199 q-115 4 -188 4q-8 0 -123 -8l-13 -80q-6 -57 5.5 -75.5t52.5 -18.5q25 0 47 3t34 7l11 4l27 -33l-46 -188q-197 4 -272 4zM930 -6l28 147q68 14 90.5 39t28.5 90l68 529q6 49 -4.5 64.5t-44.5 15.5h-37q-6 8 -15 24l29 129h279l303 6l-31 -155q-55 -8 -72.5 -22.5 t-27.5 -59.5q-20 -106 -54 -325.5t-34 -264.5q0 -35 9 -47t32 -12l49 4l10 -19l-33 -143q-215 6 -284 6z" />
<glyph unicode="&#xfb02;" horiz-adv-x="1921" d="M-35 -16l35 161q61 8 86 38t35 102l67 508q6 51 -1 68.5t-31 17.5l-41 -2l-21 24l33 137q254 -6 414 -6q328 0 465 21l22 -29q-43 -180 -67 -326l-259 -14q10 45 11 70q0 37 -21.5 52t-73.5 15q-27 0 -37 -8t-14 -31l-35 -184l132 -2l174 8l20 -24l-47 -199 q-115 4 -188 4q-8 0 -123 -8l-13 -80q-6 -57 5.5 -75.5t52.5 -18.5q25 0 47 3t34 7l11 4l27 -33l-46 -188q-197 4 -272 4zM922 -16l32 159q63 10 89 40t34 102l66 514q6 49 -4.5 64.5t-44.5 15.5h-41l-13 24l29 129h281l372 6l-41 -170q-86 -8 -120.5 -23.5t-38.5 -47.5 q-82 -451 -82 -547q0 -47 39 -47q78 0 111.5 52t60.5 214l239 23q14 -20 19 -27q-49 -215 -92 -447l-31 -28q-240 10 -494 10z" />
<glyph d="M80 1587q251 94 510 205l33 -10l73 -221l-14 -33q-266 -49 -520 -113l-39 27z" />
<glyph d="M180 1620l99 127l57 14q18 -70 73.5 -106.5t129.5 -36.5q162 0 241 143l54 -14l65 -127q-51 -119 -150.5 -199t-243 -80t-224 80t-101.5 199z" />
<glyph d="M143 1577q82 55 179.5 126t153.5 114l56 43h56q0 6 45 -35t129 -118t145 -130l-88 -127l-49 -14q-90 41 -250 104q-102 -37 -274 -104l-45 14z" />
<glyph d="M166 1540q0 92 54 148.5t145 56.5q68 0 104.5 -37t36.5 -102q0 -90 -54.5 -146.5t-142.5 -56.5q-143 0 -143 137zM549 1540q0 92 54 148.5t145 56.5q70 0 106.5 -37t36.5 -102q0 -90 -54.5 -146.5t-142.5 -56.5q-145 0 -145 137z" />
<glyph d="M-2 1561l74 221l32 10q258 -111 510 -205l-43 -145l-39 -27q-113 29 -242.5 56.5t-203.5 41.5l-74 15z" />
<glyph d="M219 1452l66 223q188 -2 305 -2l248 13l18 -37l-65 -224l-279 -2l-264 -2z" />
<glyph d="M322 1579q0 106 70.5 177t178.5 71q94 0 138.5 -49t44.5 -125q0 -102 -70.5 -179t-183.5 -77q-86 0 -132 49t-46 133zM465 1604q-1 -64 67 -64q29 0 53.5 17.5t24.5 60.5q0 61 -69 61q-76 0 -76 -75z" />
<glyph d="M127 1493l4 33l191 235l34 8q37 0 153 -34.5t144 -34.5q23 0 60 29.5t63 59.5l27 30h33l106 -111l-4 -33l-190 -235l-35 -8q-37 0 -153 34.5t-144 34.5q-23 0 -61 -29.5t-63 -59.5l-26 -30h-33z" />
<glyph d="M160 1692l86 127l49 14q47 -23 250 -104q102 37 274 104l45 -14l60 -127q-184 -125 -392 -283h-55q-166 158 -317 283z" />
<glyph d="M328 1563q0 111 64.5 177t170.5 66q80 0 124 -43t44 -123q0 -109 -64.5 -175t-168.5 -66q-82 0 -126 43t-44 121z" />
<glyph d="M14 -561q59 43 95 102.5t36 114.5q0 90 -59 156l6 28q117 90 209 90q78 0 126 -56t48 -150q0 -109 -92 -224.5t-250 -206.5l-119 95v51z" />
<glyph d="M-20 1489q155 153 305 311l30 2l136 -166v-30q-182 -109 -355 -226l-39 11zM385 1489q155 153 305 311l31 2l135 -166v-30q-182 -109 -354 -226l-39 11z" />
<glyph horiz-adv-x="970" d="M49 442q0 360 148.5 571.5t404.5 211.5q170 0 259 -119t89 -348q0 -362 -146.5 -572.5t-400.5 -210.5q-174 0 -264 119t-90 348zM299 549q0 -193 180 -193q117 0 167 64.5t50 216.5q0 195 -180 194q-115 0 -166 -66.5t-51 -215.5z" />
<glyph horiz-adv-x="753" d="M-43 -20l39 165q94 10 139 43t53 97l72 581q8 72 -7 94.5t-71 22.5l-94 -6l-16 20l34 154q121 10 267 29q80 8 171 20t138 19l47 6l23 -88q-66 -52 -99 -148q-20 -61 -66 -352t-46 -361q0 -96 63 -96l88 4l6 -12l-51 -184q-203 12 -309 12q-68 0 -163 -5t-157 -10z" />
<glyph horiz-adv-x="1024" d="M-12 -14l2 200l301 291q219 229 219 332q0 84 -90 84q-117 0 -250 -145h-37l-22 241q100 109 224 172.5t238 63.5q158 0 254.5 -75t96.5 -200q0 -139 -95.5 -283.5t-347.5 -385.5l8 -19h103q74 0 111.5 41t62.5 146l240 18q-76 -272 -109 -455l-39 -37q-469 25 -676 25z " />
<glyph horiz-adv-x="888" d="M-14 250l51 47q74 -37 180 -37q96 0 153.5 36t57.5 95q0 94 -207 94l-24 31l2 184l133 27q131 55 131 162q0 31 -20.5 49t-55.5 18q-82 0 -215 -82l-31 -2l-39 211q98 61 221 101.5t214 40.5q141 0 225 -60.5t84 -163.5q0 -100 -70.5 -181t-185.5 -115l-2 -23 q250 -92 250 -272q0 -168 -213 -301.5t-473 -133.5q-102 0 -138 60.5t-28 214.5z" />
<glyph horiz-adv-x="987" d="M-31 272l27 205l584 744l18 4l287 -25l-84 -686h135l18 -31l-51 -231l-131 4l-18 -233l-25 -23l-338 -25l-18 25q25 133 45 266zM270 514h181l32 270h-22z" />
<glyph horiz-adv-x="868" d="M-25 250l54 47q68 -37 178 -37q92 0 148.5 35t56.5 90q0 51 -71 80t-235 47l-14 23q61 301 113 616l18 16l416 13q57 2 86 19.5t49 62.5l164 10l-102 -367l-45 -39q-172 16 -371 17l-21 -107q221 -41 318.5 -117.5t97.5 -209.5q0 -184 -210 -329t-462 -145 q-100 0 -138 61.5t-30 213.5z" />
<glyph horiz-adv-x="942" d="M16 367q0 137 46.5 259t119 207t160.5 155.5t176 113.5t161 72.5t119 40.5l46 12l24 -15l41 -165q-27 -10 -69.5 -30t-150 -94.5t-181.5 -166.5l8 -23l115 43q133 0 208.5 -83t75.5 -224q0 -225 -144 -359.5t-386 -134.5q-172 0 -270.5 105.5t-98.5 286.5zM354 360 q0 -145 88 -145q70 0 96.5 47t26.5 146q0 122 -80 122q-55 0 -112 -34q-18 -106 -19 -136z" />
<glyph horiz-adv-x="862" d="M45 711q63 272 100 489l13 10q119 -8 241 -8h445l98 -143q-182 -332 -418 -789l-112 -293h-56l-243 78l-17 58l479 796l-178 -18q-88 -10 -120.5 -40t-61.5 -128z" />
<glyph horiz-adv-x="937" d="M6 254q0 199 217 291q-131 113 -131 276q0 172 143.5 289t346.5 117q150 0 252 -80t102 -197q0 -182 -191 -280q135 -98 136 -256q0 -184 -146.5 -311.5t-357.5 -127.5q-164 0 -267.5 78t-103.5 201zM315 317q0 -53 29 -86.5t76 -33.5q53 0 81.5 27.5t28.5 76.5 q0 27 -23.5 53.5t-46 41t-78.5 47.5q-13 7 -20 12q-47 -63 -47 -138zM440 893q0 -41 34 -70.5t104 -64.5q47 70 47 135q0 96 -86 96q-43 0 -71 -27.5t-28 -68.5z" />
<glyph horiz-adv-x="942" d="M53 731q0 223 145.5 358.5t387.5 135.5q172 0 270 -105.5t98 -285.5q0 -137 -46 -259t-118.5 -207t-160.5 -156t-176 -114t-161 -72.5t-119 -40.5l-46 -12l-25 15l-41 166q27 10 70 28.5t149.5 94t180.5 167.5l-6 23l-117 -43q-131 0 -208 83t-77 224zM406 793 q-1 -123 77 -123q55 0 111 32q20 70 20 138q0 145 -86 145q-70 0 -96 -47t-26 -145z" />
<glyph horiz-adv-x="942" d="M45 440q0 360 146.5 572.5t396.5 212.5q168 0 254 -119t86 -346q0 -362 -144.5 -573.5t-392.5 -211.5q-170 0 -258 119t-88 346zM295 549q0 -193 172 -193q113 0 160 64.5t47 216.5q0 195 -172 194q-109 0 -158 -66.5t-49 -215.5z" />
<glyph horiz-adv-x="942" d="M14 -20l39 165q106 10 158.5 43t60.5 97l76 581q8 70 -11.5 93.5t-82.5 23.5l-111 -6l-16 20l33 154l295 29q94 8 189 20t139 18.5t46 6.5l23 -88q-74 -50 -109 -148q-25 -59 -70.5 -346t-45.5 -364q0 -98 80 -99l104 4l6 -12l-49 -184q-225 12 -346 12z" />
<glyph horiz-adv-x="942" d="M-31 -14l4 200l295 291q190 227 191 334q0 82 -78 82q-104 0 -231 -145h-35l-21 241q96 109 215 172.5t228 63.5q152 0 243.5 -75t91.5 -198q0 -139 -89 -283.5t-322 -387.5l6 -19h80q68 0 103.5 41t58.5 146l239 18q-74 -272 -106 -455l-39 -37q-442 25 -643 25z" />
<glyph horiz-adv-x="942" d="M-2 250l51 47q78 -37 187 -37q102 0 164.5 36t62.5 95q0 94 -223 94l-25 31l2 184l137 27q139 55 140 162q0 68 -82 67q-90 0 -224 -82l-32 -2l-39 211q94 59 222 100.5t222 41.5q145 0 231.5 -60.5t86.5 -163.5q0 -98 -73 -180t-192 -116l-2 -23q260 -92 260 -272 q0 -168 -219 -301.5t-485 -133.5q-102 0 -139 60.5t-31 214.5z" />
<glyph horiz-adv-x="942" d="M-39 272l27 205l565 744l18 4l289 -25l-84 -686h129l17 -31l-52 -231l-122 4l-19 -233l-24 -23l-338 -25l-19 25q25 133 45 266zM260 514h166l33 270h-23z" />
<glyph horiz-adv-x="942" d="M-8 250l53 47q71 -37 184 -37q104 0 167 35t63 90q0 51 -77 80t-253 47l-14 23q61 301 112 616l19 16l436 13q59 2 90 19.5t51 62.5l164 10l-102 -367l-45 -39q-184 16 -396 17l-24 -107q236 -41 339 -119t103 -211q0 -182 -218 -326.5t-478 -144.5q-104 0 -143 61.5 t-31 213.5z" />
<glyph horiz-adv-x="942" d="M16 367q0 137 46.5 259t119 207t160.5 155.5t176 113.5t161 72.5t119 40.5l46 12l24 -15l41 -165q-27 -10 -69.5 -30t-150 -94.5t-181.5 -166.5l8 -23l115 43q133 0 208.5 -83t75.5 -224q0 -225 -144 -359.5t-386 -134.5q-172 0 -270.5 105.5t-98.5 286.5zM354 360 q0 -145 88 -145q70 0 96.5 47t26.5 146q0 122 -80 122q-55 0 -112 -34q-18 -106 -19 -136z" />
<glyph horiz-adv-x="942" d="M66 711q63 272 100 489l14 10q125 -8 256 -8h467l101 -143q-287 -473 -451 -789l-113 -293h-55l-248 78l-16 58l514 796l-205 -18q-94 -10 -128 -39t-64 -129z" />
<glyph horiz-adv-x="942" d="M6 254q0 199 219 291q-133 115 -133 276q0 172 144.5 289t347.5 117q150 0 252 -80t102 -197q0 -182 -190 -280q137 -98 137 -256q0 -184 -147.5 -311.5t-358.5 -127.5q-166 0 -269.5 78t-103.5 201zM315 317q0 -53 30 -86.5t77 -33.5q53 0 83 27.5t30 76.5 q0 37 -35 66.5t-112 73.5q-15 10 -23 14q-49 -66 -50 -138zM440 893q0 -41 34 -70.5t106 -64.5q47 70 47 135q0 96 -86 96q-45 0 -73 -27.5t-28 -68.5z" />
<glyph horiz-adv-x="942" d="M53 731q0 223 145.5 358.5t387.5 135.5q172 0 270 -105.5t98 -285.5q0 -137 -46 -259t-118.5 -207t-160.5 -156t-176 -114t-161 -72.5t-119 -40.5l-46 -12l-25 15l-41 166q27 10 70 28.5t149.5 94t180.5 167.5l-6 23l-117 -43q-131 0 -208 83t-77 224zM406 793 q-1 -123 77 -123q55 0 111 32q20 70 20 138q0 145 -86 145q-70 0 -96 -47t-26 -145z" />
<glyph horiz-adv-x="921" d="M16 395q0 299 146.5 479.5t392.5 180.5q174 0 265 -107.5t91 -310.5q0 -303 -144 -482.5t-390 -179.5q-176 0 -268.5 109t-92.5 311zM246 500q0 -133 209 -133q119 0 172 37.5t53 117.5q0 133 -211 133q-223 0 -223 -155z" />
<glyph horiz-adv-x="921" d="M10 -20l35 165q111 8 161 41t60 99l51 411q8 70 -11 93.5t-83 23.5l-108 -6l-17 20l35 154l293 29q96 8 190.5 20t138.5 18.5t46 6.5l22 -88q-67 -44 -106 -148q-100 -248 -101 -520q0 -119 78 -119l105 4l6 -12l-49 -184q-223 12 -342 12q-45 0 -103.5 -2t-108.5 -5 t-95.5 -6t-70.5 -5z" />
<glyph horiz-adv-x="921" d="M-61 -12l4 102l149 158q168 184 228.5 269t64.5 142q12 92 -74 93q-90 0 -200 -129h-35l-25 213q242 219 465 219q141 0 227 -70t86 -184q0 -78 -15 -124t-91 -138.5t-244 -257.5l6 -19h37q70 0 107 43t57 144l240 18q-78 -272 -107 -455l-39 -37q-494 25 -694 25z" />
<glyph horiz-adv-x="921" d="M-43 80l51 47q68 -37 180 -37q109 0 175.5 35t66.5 92q0 102 -215 102l-22 31l2 185l135 26q63 25 100 67t37 91q0 31 -21.5 49t-58.5 18q-86 0 -223 -98q-4 0 -14.5 -1t-16.5 -1l-41 211q96 68 223 113t222 45q143 0 228 -60.5t85 -163.5q0 -98 -71.5 -178t-188.5 -114 l-2 -23q123 -39 188.5 -106.5t65.5 -155.5q0 -109 -106.5 -214.5t-273.5 -170t-337 -64.5q-102 0 -138 60.5t-30 214.5z" />
<glyph horiz-adv-x="921" d="M-55 113q4 35 14 102.5t14 101.5l566 734q2 0 9 2t9 2l291 -25l-84 -676h125l18 -30l-49 -232q-49 2 -125 4l-18 -243l-23 -23l-340 -25l-16 25q25 141 45 276q-227 7 -436 7zM248 354h166l30 260h-20z" />
<glyph horiz-adv-x="921" d="M-68 80l50 47q74 -37 188 -37q111 0 183.5 36t72.5 89t-76 83t-258 48l-18 23q31 131 61.5 284.5t45.5 240.5l16 87l18 16l418 13q59 2 89 19.5t52 62.5l164 10l-104 -367l-46 -39q-164 16 -374 17l-31 -107q240 -37 346.5 -107.5t106.5 -193.5t-105.5 -239.5 t-276.5 -188.5t-350 -72q-104 0 -143 61.5t-29 213.5z" />
<glyph horiz-adv-x="921" d="M12 367q0 137 45 259t117 207t160 155.5t175 113.5t158.5 72.5t116.5 40.5l45 12l25 -15l41 -165q-25 -10 -67 -30t-146 -94.5t-178 -166.5l8 -23l111 43q129 0 203.5 -83t74.5 -224q0 -225 -143.5 -359.5t-382.5 -134.5q-170 0 -266.5 105.5t-96.5 286.5zM348 360 q0 -145 84 -145q68 0 93.5 47t25.5 146q0 122 -76 122q-51 0 -108 -34q-18 -106 -19 -136z" />
<glyph horiz-adv-x="921" d="M39 539q61 272 98 489l15 10q123 -8 251 -8h461l101 -143q-262 -440 -441 -789l-114 -293h-56l-245 78l-19 58l504 796l-195 -18q-92 -10 -125.5 -39t-64.5 -129z" />
<glyph horiz-adv-x="921" d="M2 254q0 201 215 291q-129 111 -129 276q0 172 144.5 289t347.5 117q147 0 245.5 -80t98.5 -197q0 -182 -187 -280q131 -98 131 -256q0 -184 -145 -311.5t-352 -127.5q-164 0 -266.5 78t-102.5 201zM311 317q0 -53 28 -86.5t73 -33.5q51 0 78.5 27.5t27.5 76.5 q0 37 -36 68.5t-109 73.5q-12 7 -19 12q-43 -61 -43 -138zM436 893q0 -43 33 -71.5t100 -63.5q45 66 45 135q0 96 -84 96q-43 0 -68.5 -26.5t-25.5 -69.5z" />
<glyph horiz-adv-x="921" d="M29 561q0 223 143 358.5t381 135.5q170 0 268.5 -105.5t98.5 -285.5q0 -439 -442 -703q-193 -115 -378 -158l-24 15l-39 166q25 10 66.5 28.5t145 94t177.5 167.5l-8 23q-23 -8 -58.5 -22.5t-52.5 -20.5q-129 0 -203.5 83t-74.5 224zM377 623q0 -123 76 -123q53 0 108 32 q20 70 21 138q0 145 -84 145q-70 0 -95.5 -47t-25.5 -145z" />
<glyph d="M334 1038q16 109 26.5 231t13.5 189l3 68l276 28l15 -24q-59 -223 -140 -453l-155 -51z" />
<glyph horiz-adv-x="704" d="M37 817q0 244 101.5 384t277.5 140q242 0 241 -315q0 -244 -99 -383t-275 -139q-246 0 -246 313zM221 893q0 -113 115 -113q76 0 105.5 36t29.5 126q0 59 -27.5 87t-89.5 28q-72 0 -102.5 -37t-30.5 -127z" />
<glyph horiz-adv-x="565" d="M-29 506l27 119q125 12 133 90l45 377q6 49 -3 63t-48 14l-66 -2l-12 15l27 108q8 0 186 21q258 31 258 30l19 -65q-43 -28 -70 -96q-12 -31 -43 -224.5t-31 -240.5q0 -66 41 -66l60 2l4 -8l-37 -131q-141 8 -217 8z" />
<glyph horiz-adv-x="755" d="M-4 512l4 150l213 198q133 129 133 189q0 51 -57 51q-76 0 -164 -90h-29l-16 176q156 156 323 155q113 0 180.5 -52t67.5 -136q0 -96 -63.5 -189.5t-229.5 -242.5l7 -12h53q47 0 73.5 27.5t40.5 97.5l179 12q-53 -190 -74 -316l-29 -26q-324 16 -471 16z" />
<glyph horiz-adv-x="659" d="M-8 698l39 35q53 -27 127 -26q59 0 95 20.5t36 54.5q0 53 -131 54l-19 22v135l92 17q84 31 84 98q0 41 -49 41q-53 0 -145 -55h-23l-28 151q72 45 157.5 70.5t149.5 25.5q102 0 160.5 -40.5t58.5 -110.5q0 -68 -48 -122t-128 -75v-16q174 -66 174 -184 q0 -115 -148.5 -202t-332.5 -87q-74 0 -99.5 42.5t-21.5 151.5z" />
<glyph horiz-adv-x="731" d="M-16 694l18 148l397 495l13 4l217 -18l-56 -457h89l14 -20l-37 -166l-86 2l-12 -145l-17 -17l-250 -16l-14 16q16 82 29 170zM203 866h110l21 166h-17z" />
<glyph horiz-adv-x="643" d="M-14 698l41 35q47 -27 125 -26q57 0 92 19t35 50q0 29 -46.5 45.5t-158.5 30.5l-11 16l78 422l15 10l288 9q70 0 95 55l120 6l-71 -256l-35 -29q-115 10 -250 11l-10 -54q154 -29 219.5 -81t65.5 -142q0 -125 -145.5 -220t-326.5 -95q-74 0 -99 43t-21 151z" />
<glyph horiz-adv-x="694" d="M12 770q0 312 348 488q121 61 228 83l18 -8l31 -121q-145 -51 -262 -172l6 -16q39 10 70 23q90 0 142 -54.5t52 -152.5q0 -156 -101.5 -246t-271.5 -90q-123 0 -191.5 71.5t-68.5 194.5zM262 764q0 -86 51 -86q43 0 58.5 27.5t15.5 91.5q0 73 -43 73q-41 0 -70 -18 q-12 -61 -12 -88z" />
<glyph horiz-adv-x="638" d="M31 985q43 188 69 340l9 6q82 -6 165 -6h310l73 -102q-117 -209 -274 -510l-80 -207h-41l-180 55l-12 39l317 516l-108 -12q-61 -8 -83 -26.5t-40 -84.5z" />
<glyph horiz-adv-x="686" d="M4 694q0 129 143 187q-88 78 -88 186q0 119 101.5 196.5t245.5 77.5q106 0 177.5 -54t71.5 -134q0 -121 -127 -182q90 -63 90 -170q0 -127 -102 -212t-250 -85q-117 0 -189.5 54t-72.5 136zM231 739q0 -75 63.5 -75t63.5 57q0 6 -1 11t-5 11.5t-8 10.5t-11 10t-12.5 9 t-16.5 10.5t-16 10.5t-18.5 10t-19.5 11q-18 -27 -19 -76zM317 1114q0 -41 89 -80q23 41 22 80q0 55 -53 55q-27 0 -42.5 -15t-15.5 -40z" />
<glyph horiz-adv-x="694" d="M37 1006q0 154 102.5 244.5t272.5 90.5q121 0 190.5 -71.5t69.5 -194.5q0 -313 -348 -489q-121 -61 -228 -84l-18 10l-31 121q143 49 260 172l-4 16q-61 -20 -70 -24q-90 0 -143 55t-53 154zM297 1049q0 -76 43 -76q31 0 68 18q14 45 14 90q0 86 -51 86 q-45 0 -59.5 -27.5t-14.5 -90.5z" />
<glyph horiz-adv-x="704" d="M37 297q0 244 101.5 384t277.5 140q242 0 241 -315q0 -244 -99 -383t-275 -139q-246 0 -246 313zM221 373q0 -113 115 -113q76 0 105.5 36t29.5 126q0 59 -27.5 87t-89.5 28q-72 0 -102.5 -37t-30.5 -127z" />
<glyph horiz-adv-x="565" d="M-29 -14l27 118q125 12 133 91l45 376q6 49 -3 63.5t-48 14.5l-66 -2l-12 15l27 108q8 0 186 21q258 31 258 30l19 -65q-43 -29 -70 -97q-12 -31 -43 -224t-31 -240q0 -66 41 -66l60 2l4 -8l-37 -131q-141 8 -217 8z" />
<glyph horiz-adv-x="755" d="M-4 -8l4 149l213 199q133 129 133 188q0 51 -57 52q-76 0 -164 -91h-29l-16 177q156 156 323 155q113 0 180.5 -52t67.5 -136q0 -96 -63.5 -189.5t-229.5 -242.5l7 -13h53q47 0 73.5 28t40.5 97l179 13q-53 -190 -74 -316l-29 -26q-324 16 -471 16z" />
<glyph horiz-adv-x="659" d="M-8 178l39 35q53 -27 127 -27q59 0 95 20.5t36 55.5q0 53 -131 53l-19 23v135l92 16q84 31 84 99q0 41 -49 41q-53 0 -145 -56h-23l-28 152q72 45 157.5 70.5t149.5 25.5q102 0 160.5 -41t58.5 -110q0 -68 -48 -122t-128 -75v-16q174 -66 174 -185q0 -115 -148.5 -201.5 t-332.5 -86.5q-74 0 -99.5 42.5t-21.5 151.5z" />
<glyph horiz-adv-x="731" d="M-16 174l18 148l397 495l13 4l217 -18l-56 -457h89l14 -20l-37 -166l-86 2l-12 -146l-17 -16l-250 -16l-14 16q16 82 29 170zM203 346h110l21 166h-17z" />
<glyph horiz-adv-x="643" d="M-14 178l41 35q47 -27 125 -27q57 0 92 19.5t35 50.5q0 29 -46.5 45t-158.5 31l-11 16l78 422l15 10l288 8q70 0 95 56l120 6l-71 -256l-35 -29q-115 10 -250 10l-10 -53q154 -29 219.5 -81t65.5 -142q0 -125 -145.5 -220t-326.5 -95q-74 0 -99 43t-21 151z" />
<glyph horiz-adv-x="694" d="M12 250q0 312 348 487q121 61 228 84l18 -8l31 -121q-145 -51 -262 -172l6 -16q39 10 70 22q90 0 142 -54t52 -153q0 -156 -101.5 -245.5t-271.5 -89.5q-123 0 -191.5 71.5t-68.5 194.5zM262 244q0 -86 51 -86q43 0 58.5 27.5t15.5 90.5q0 74 -43 74q-41 0 -70 -18 q-12 -61 -12 -88z" />
<glyph horiz-adv-x="638" d="M31 465q43 188 69 340l9 6q82 -6 165 -6h310l73 -103q-117 -209 -274 -509l-80 -207h-41l-180 55l-12 39l317 516l-108 -12q-61 -8 -83 -26.5t-40 -84.5z" />
<glyph horiz-adv-x="686" d="M4 174q0 129 143 186q-88 78 -88 187q0 119 101.5 196.5t245.5 77.5q106 0 177.5 -54t71.5 -134q0 -121 -127 -182q90 -63 90 -170q0 -127 -102 -212t-250 -85q-117 0 -189.5 54t-72.5 136zM231 219q0 -76 63.5 -76t63.5 58q0 6 -1 11t-5 11t-8 10.5t-11 10.5t-12.5 9 t-16.5 10t-16 10t-18.5 10.5t-19.5 11.5q-18 -27 -19 -76zM317 594q0 -41 89 -80q23 41 22 80q0 55 -53 55q-27 0 -42.5 -15t-15.5 -40z" />
<glyph horiz-adv-x="694" d="M37 485q0 154 102.5 245t272.5 91q121 0 190.5 -71.5t69.5 -194.5q0 -313 -348 -489q-121 -61 -228 -84l-18 10l-31 121q143 49 260 172l-4 16q-61 -20 -70 -25q-90 0 -143 55.5t-53 153.5zM297 528q0 -75 43 -75q31 0 68 18q14 45 14 90q0 86 -51 86q-45 0 -59.5 -27.5 t-14.5 -91.5z" />
<glyph horiz-adv-x="798" d="M14 874q0 162 116 303.5t247 141.5l96 -27l6 27l31 18l207 -16l12 -35q-51 -219 -78 -383l6 -4q12 0 68 53l35 -6l28 -72q-119 -131 -182 -176t-129 -45q-74 0 -74 72q0 25 31 149h-14q-100 -168 -178 -221q-106 0 -167 58.5t-61 162.5zM293 965q0 -84 18 -84 q23 0 63 81.5t60 170.5q-53 33 -98 32q-14 0 -28.5 -66.5t-14.5 -133.5z" />
<glyph horiz-adv-x="794" d="M23 778q117 688 116 729q0 43 -47 43h-37l19 121q59 0 142 4t136 9l54 6l24 -29q-66 -324 -108 -559l14 2q98 162 176 215q113 0 174.5 -60.5t61.5 -168.5q0 -176 -119 -306.5t-279 -130.5q-88 0 -164.5 21.5t-109.5 44.5l-33 22zM334 868l21 -18q26 -17 48 -16 q31 0 50.5 56t19.5 144q0 86 -12 86q-23 0 -67 -86t-60 -166z" />
<glyph horiz-adv-x="604" d="M20 903q0 180 119 306t287 126q96 0 158 -32l6 -27l-74 -189h-65q-37 72 -84 72q-37 0 -58.5 -55t-21.5 -146q0 -98 63 -98q53 0 101 101l30 -7l80 -86q-33 -88 -123 -151.5t-180 -63.5q-109 0 -173.5 69t-64.5 181z" />
<glyph horiz-adv-x="800" d="M14 874q0 162 116 303.5t247 141.5l94 -27l29 201q4 33 -5.5 45t-37.5 12h-37l16 121q59 0 143.5 4t137.5 9l53 6l23 -29q-97 -518 -142 -758l6 -4q6 0 68 53l35 -6l28 -72q-121 -131 -183 -176t-128 -45q-74 0 -74 74q0 23 31 147h-14q-96 -164 -178 -221 q-106 0 -167 58.5t-61 162.5zM293 963q0 -82 18 -82q20 0 60.5 79.5t64.5 169.5q-51 25 -51 26q-26 9 -49 9q-14 0 -28.5 -66.5t-14.5 -135.5z" />
<glyph horiz-adv-x="659" d="M23 911q0 176 118.5 300t288.5 124q94 0 149.5 -42.5t55.5 -116.5q0 -94 -79 -152.5t-273 -116.5q12 -49 75 -49q68 0 125 94l33 -4l80 -86q-35 -88 -132 -148.5t-200 -60.5q-109 0 -175 71t-66 187zM287 1026q123 49 123 107q0 26 -33 26q-72 0 -90 -133z" />
<glyph horiz-adv-x="514" d="M-223 426q35 102 104 190h31q6 -61 28.5 -84.5t73.5 -23.5q41 0 66.5 28.5t23.5 84.5q-4 39 -2 51l33 499l-16 15h-107l-4 6l12 96l125 19l7 61q12 117 148 218.5t278 101.5q94 0 159 -21l6 -14l-88 -193l-28 -4q-78 59 -123 59.5t-64.5 -23.5t-27.5 -85l-13 -102h174 l11 -11l-19 -110l-170 2l-10 -6l-53 -506q-12 -117 -129 -226.5t-228 -109.5q-70 0 -126 25.5t-72 62.5z" />
<glyph horiz-adv-x="759" d="M-96 543l6 20q100 51 217 96v11q-111 45 -111 198q0 164 117 308.5t248 144.5l96 -29l6 27l31 18l205 -14l22 -43q-37 -94 -49 -217q-2 -14 -12 -150.5t-16 -187.5q-12 -113 -180.5 -249t-297.5 -138q-135 -2 -213.5 55.5t-68.5 149.5zM145 578q0 -25 36 -40.5t89 -15.5 q145 0 164 150l27 233l-15 4q-147 -221 -198 -254q-31 -16 -67 -43.5t-36 -33.5zM293 961q0 -84 20 -84q23 0 64 85t61 171q-56 28 -82 31q-8 1 -16 1q-16 0 -31.5 -66.5t-15.5 -137.5z" />
<glyph horiz-adv-x="788" d="M23 694q109 678 129 797q4 33 -5.5 46t-37.5 13h-39l18 121q59 0 142 4t138 9l54 6l22 -31q-70 -319 -108 -557l10 2q78 186 150 235q106 0 165.5 -39.5t59.5 -109.5q0 -29 -38 -148t-40 -135l4 -4q10 0 68 53l37 -6l28 -69q-115 -129 -180 -176.5t-129 -47.5 q-100 0 -100 88q0 29 42 162t42 154q0 37 -23 37q-20 0 -62 -80t-85 -205l-9 -76q-4 -33 -69.5 -55.5t-153.5 -22.5z" />
<glyph horiz-adv-x="477" d="M29 1184l18 121l326 18l24 -29q-49 -190 -78 -391l7 -4q8 0 69 53l35 -6l29 -72q-115 -129 -179.5 -175t-127.5 -46q-35 0 -41.5 24.5t-2.5 139.5q4 142 5 254v70q0 43 -45 43h-39zM145 1526q0 80 46.5 125t125.5 45q115 0 115 -111q0 -80 -46 -127t-124 -47 q-117 0 -117 115z" />
<glyph horiz-adv-x="475" d="M-82 391l6 23q74 57 104.5 118.5t45.5 182.5q68 387 67 426q0 43 -45 43h-37l19 121l325 18l25 -29q-47 -180 -113 -606q-12 -100 -103 -199.5t-230 -160.5zM176 1526q0 80 46 125t126 45q115 0 115 -111q0 -80 -46 -127t-124 -47q-117 0 -117 115z" />
<glyph horiz-adv-x="745" d="M23 694q131 766 131 813q0 43 -45 43h-39l18 121q59 0 142 4t138 9l54 6l22 -31q-70 -319 -108 -557l10 2q80 190 150 235q115 0 177 -41t62 -116q0 -125 -149 -240l108 -229l-6 -31l-248 -29l-18 11l-64 280l13 25q4 -2 27.5 9t48 36.5t24.5 56.5q0 27 -24.5 27 t-68.5 -79t-93 -206l-9 -76q-4 -33 -69.5 -55.5t-153.5 -22.5zM371 969l2 2z" />
<glyph horiz-adv-x="458" d="M33 752q0 29 60.5 385t60.5 370q0 43 -45 43h-39l18 121q59 0 142 4t137 9l53 6l24 -29q-116 -572 -143 -758l6 -4q8 0 70 53l35 -6l28 -72q-115 -129 -179 -175t-128 -46q-100 0 -100 99z" />
<glyph horiz-adv-x="1175" d="M33 1184l16 121l326 18l22 -31q-29 -98 -41 -190l11 2q84 193 151 235q102 0 160.5 -39.5t58.5 -109.5l-14 -88l10 2q82 190 150 235q106 0 165.5 -39.5t59.5 -109.5q0 -29 -38 -148t-40 -135l4 -4q6 0 68 53l37 -6l28 -69q-117 -129 -181 -176.5t-128 -47.5 q-98 0 -98 88q0 29 40 162t40 154q0 37 -22.5 37t-71 -85t-97.5 -212l-6 -64q-2 -33 -68.5 -55.5t-156.5 -22.5l-29 35q88 322 88 375q0 29 -24 29q-20 0 -62.5 -80t-85.5 -205l-8 -76q-4 -33 -70.5 -55.5t-154.5 -22.5l-31 35q57 346 72 430q4 33 -5.5 46.5t-37.5 13.5h-37 z" />
<glyph horiz-adv-x="741" d="M31 930q0 188 104.5 297.5t282.5 109.5q129 0 197.5 -68.5t68.5 -199.5q0 -190 -105.5 -303t-281.5 -113q-127 0 -196.5 72t-69.5 205zM301 940q0 -131 47 -131q33 0 47.5 50t14.5 171q0 78 -10.5 104.5t-37.5 26.5q-61 0 -61 -221z" />
<glyph horiz-adv-x="815" d="M-96 344l22 121q41 6 58.5 23.5t27.5 66.5q25 111 58.5 324t33.5 262q0 43 -45 43h-36l18 121l326 18l22 -29q-25 -84 -41 -174l12 2q86 152 172 215q115 0 177.5 -57t62.5 -160q0 -166 -117.5 -307t-246.5 -141l-138 28l-22 -153q-4 -41 7 -54.5t52 -13.5h68v-8 l-23 -117zM354 889l36 -22q33 -15 61 -15q18 0 31.5 69.5t13.5 139.5q-1 78 -13 78q-10 0 -32.5 -31t-50 -91.5t-46.5 -127.5z" />
<glyph horiz-adv-x="768" d="M14 870q0 164 116 306.5t247 142.5l96 -27l19 64l30 18l203 -18l10 -35l-20 -105q-117 -588 -117 -702q0 -23 6 -30t25 -7l33 2l4 -6l-25 -119q-127 0 -233.5 -4t-148.5 -8l-42 -4l25 119q70 4 92.5 18.5t30.5 65.5l36 192l33 141h-14q-98 -166 -180 -221 q-106 0 -166 57.5t-60 159.5zM293 961q0 -80 16 -80q23 0 65 81.5t62 167.5l-43 23q-32 12 -57 12q-14 0 -28.5 -67.5t-14.5 -136.5z" />
<glyph horiz-adv-x="641" d="M33 1184l16 121l326 18l22 -31q-25 -84 -35 -164l11 2q27 80 77 143.5t85 63.5q92 -59 92 -186q0 -39 -27 -107l-29 -14q-29 31 -79 31q-100 0 -185 -238l-10 -86q-4 -33 -70.5 -55.5t-154.5 -22.5l-31 35q74 399 74 447q0 43 -45 43h-37z" />
<glyph horiz-adv-x="620" d="M-6 743q16 101 88 181l41 -2q4 -37 39 -65t76 -28q51 0 51 27q0 6 -2 11t-8.5 9.5t-11.5 8.5t-15 8t-16 7l-20 9q-13 6 -19 9q-39 14 -65 30.5t-48.5 50t-22.5 80.5q0 113 92.5 185.5t235.5 72.5q137 0 219 -57q-43 -106 -92 -186h-39q-29 61 -80 61q-43 0 -43 -33 q0 -23 43 -39q6 -2 35 -14t42 -18.5t37 -21.5t35 -30.5t21.5 -40t10.5 -53.5q0 -111 -98.5 -181.5t-250.5 -70.5q-86 0 -152.5 26t-82.5 64z" />
<glyph horiz-adv-x="516" d="M35 1192l10 96l100 17l19 149l252 49l20 -16q-23 -90 -41 -182h129l11 -11l-17 -110l-129 2l-18 -10l-43 -244q-6 -39 24 -39q25 0 74 57l33 -6l30 -74q-154 -217 -223 -217q-106 0 -158.5 52.5t-41.5 146.5l59 322l-12 12h-74z" />
<glyph horiz-adv-x="798" d="M47 1184l16 121q57 0 139.5 5t135.5 9l53 4l23 -29q-96 -326 -97 -364q0 -29 21 -29q51 0 149 283l15 121l30 18h162l31 -35q-47 -221 -76 -385l6 -4q8 0 68 53l35 -6l30 -72q-121 -131 -184 -176t-127 -45q-76 0 -76 70q0 10 39 176l-12 -2q-88 -199 -154 -240 q-104 0 -162.5 40t-58.5 112q0 35 38 166t38 164q0 45 -45 45h-37z" />
<glyph horiz-adv-x="733" d="M2 1190l10 115l303 20l17 -10q18 -199 18 -430h25q70 197 69 250q0 66 -75 94l18 71l283 37q39 -45 39 -141q0 -151 -279 -524l-264 -19l-27 29q-20 266 -59 469q-8 39 -35 39h-43z" />
<glyph horiz-adv-x="1079" d="M2 1190l10 115l303 20l17 -10q18 -199 18 -430h25q39 106 71 217l-34 162l14 26l231 47q39 -45 39 -131q0 -33 -14 -86l14 -235h27q68 193 68 250q0 66 -74 94l16 71l285 37q37 -47 37 -145q0 -147 -279 -520l-217 -19l-24 29l-17 174h-16q-53 -121 -88 -184l-248 -19 l-27 29q-20 266 -59 469q-8 39 -35 39h-43z" />
<glyph horiz-adv-x="757" d="M-29 707q43 115 99 217h39q20 -72 63 -72t78 86q-39 127 -58.5 167t-41.5 40q-12 0 -33 -14.5t-31 -30.5h-14l-41 84q154 154 260 153q59 0 89 -31.5t62 -131.5q80 163 176 163q76 0 140 -55q-51 -121 -101 -217h-39q-18 76 -61 76t-80 -90q39 -125 58.5 -165t42.5 -40 q12 0 32.5 14t28.5 31h16l39 -84q-154 -154 -260 -154q-59 0 -89 32t-62 130q-78 -162 -170 -162q-80 0 -142 54z" />
<glyph horiz-adv-x="739" d="M-207 432q10 47 41 109.5t62 95.5l38 -2q-2 -55 29 -91t78 -36q57 0 137 82q-68 473 -92 561q-10 39 -43 39h-33l8 115l306 20l14 -10q8 -152 12 -447h21q80 174 80 267q0 67 -74 94l16 71l285 37q37 -47 37 -141q0 -160 -281 -530q-143 -182 -244.5 -255t-209.5 -73 q-63 0 -119 27.5t-68 66.5z" />
<glyph horiz-adv-x="692" d="M-20 727l372 385l-49 2q-61 0 -91 -21.5t-46 -74.5l-111 -6q41 164 66 311l65 14q190 -39 271 -39q70 0 100 33l39 43l100 -98l6 -29q-197 -172 -385 -360l29 4q12 0 60.5 -4t66.5 -4q33 0 57.5 33.5t30.5 87.5h47q27 -45 27 -144q0 -88 -57.5 -147.5t-143.5 -59.5 q-43 0 -120.5 30t-116.5 30q-88 0 -177 -54z" />
<glyph horiz-adv-x="1603" d="M205 43v866q0 164 164 164h866q164 0 164 -164v-866q0 -164 -164 -164h-866q-164 0 -164 164zM391 190h152v369q0 25 49 25q88 0 88 -115v-279h151v365q0 66 -44.5 108t-114.5 42l-99 -58q-12 -8 -18 -8q-12 0 -12 18v238h-152v-705zM891 618h53q20 0 21 -20v-270 q0 -66 45 -108t114 -42l129 76v51q-25 -8 -53 -8q-84 0 -84 117v184q0 20 21 20h118v74h-118q-20 0 -21 21v57h-43l-182 -115v-37z" />
<glyph horiz-adv-x="940" d="M-57 0l118 967h940l-118 -967h-940z" />
<glyph horiz-adv-x="1286" d="M-57 0l161 1325h1287l-162 -1325h-1286z" />
<glyph horiz-adv-x="641" d="M-27 -6l29 147q68 14 90.5 39t28.5 90l67 529q6 49 -4 64.5t-45 15.5h-37q-6 8 -14 24l29 129h278l303 6l-30 -155q-55 -8 -73 -22.5t-28 -59.5q-20 -106 -54 -325.5t-34 -264.5q0 -35 9.5 -47t31.5 -12l49 4l11 -19l-33 -143q-215 6 -285 6zM223 1268q0 111 64.5 177 t171.5 66q82 0 125 -43t43 -122q0 -109 -65 -175.5t-169 -66.5q-82 0 -126 43t-44 121z" />
</font>
</defs>
</svg>
