<?xml version="1.0" standalone="no"?>
<!DOCTYPE svg PUBLIC "-//W3C//DTD SVG 1.1//EN" "http://www.w3.org/Graphics/SVG/1.1/DTD/svg11.dtd" >
<svg xmlns="http://www.w3.org/2000/svg">
<metadata>
This is a custom SVG webfont generated by Font Squirrel.
Copyright   : Copyright c 2011 Juan Pablo del Peral juanhuertatipograficacomar with Reserved Font Names Alegreya Alegreya SC
Designer    : Juan Pablo del Peral
Foundry     : Juan Pablo del Peral
Foundry URL : wwwhuertatipograficacomar
</metadata>
<defs>
<font id="AlegreyaBold" horiz-adv-x="815" >
<font-face units-per-em="2048" ascent="1638" descent="-410" />
<missing-glyph horiz-adv-x="356" />
<glyph unicode=" "  horiz-adv-x="356" />
<glyph unicode="&#x09;" horiz-adv-x="356" />
<glyph unicode="&#xa0;" horiz-adv-x="356" />
<glyph unicode="!" horiz-adv-x="583" d="M102 133q0 74 45.5 121t120.5 47q72 0 112 -42t40 -112q0 -76 -45 -123t-121 -47q-74 0 -113 42t-39 114zM147 1364l25 35l274 45l33 -37l-127 -928l-131 -22l-31 26z" />
<glyph unicode="&#x22;" horiz-adv-x="657" d="M88 1311l205 28l16 -20q-31 -225 -78 -442l-98 -41l-31 8q2 104 -1 221t-8 181zM385 1311l205 28l16 -20q-31 -225 -78 -442l-98 -41l-31 8q2 104 -1 221t-8 181z" />
<glyph unicode="#" horiz-adv-x="1077" d="M18 387l31 141l207 -2l20 107l19 86h-195l-12 22l31 144l203 -2l55 284l149 15l23 -13l-64 -286h97l96 -2l55 286l150 15l22 -13l-63 -286l198 4l11 -25l-29 -143h-213l-10 -57l-27 -134l199 2l10 -24l-29 -141h-209l-53 -275l-145 -22l-21 16l58 281l-115 2l-78 -2 l-53 -275l-146 -22l-20 16l57 281l-196 -3zM416 526h90l106 -2l21 109l16 88h-194l-13 -59z" />
<glyph unicode="$" horiz-adv-x="954" d="M70 68q27 145 30 268l158 12q0 -115 39 -159t137 -44q74 0 117 29t43 76q0 16 -6 31.5t-22.5 30t-28 24.5t-41 24.5t-44 21.5t-52.5 23.5t-52 22.5q-127 57 -196.5 121.5t-69.5 169.5q0 125 100.5 211t266.5 108l32 291l142 19l12 -19l-31 -287q63 -2 125 -12t90 -19 l29 -10l14 -24q-31 -131 -43 -275l-143 -12l-17 12q2 23 3 46q0 66 -37 95t-117 29q-66 0 -108 -27.5t-42 -72.5q0 -27 15.5 -49.5t55.5 -46t64.5 -34.5t86.5 -38q66 -29 107.5 -50.5t90.5 -58t74 -83.5t25 -107q0 -131 -104.5 -216t-285.5 -101l-32 -297l-140 -17l-12 15 l33 295q-151 10 -250 59z" />
<glyph unicode="%" horiz-adv-x="1460" d="M37 971q0 166 88 267t235 101q141 0 215 -91t74 -240q0 -166 -85.5 -270.5t-235.5 -104.5q-137 0 -214 91t-77 247zM156 -106q248 369 424 647l536 848l127 -52l14 -39q-360 -547 -544 -833l-414 -655l-133 55zM166 995q0 -80 52 -119.5t134 -39.5q168 0 168 135 q0 72 -49 114.5t-141 42.5q-164 0 -164 -133zM836 315q0 166 88 266.5t235 100.5q139 0 214 -91t75 -241q0 -166 -86 -270.5t-236 -104.5q-137 0 -213.5 91.5t-76.5 248.5zM963 338q0 -80 52 -119t136 -39q166 0 166 133q0 72 -49 116t-142 44q-80 0 -121.5 -36t-41.5 -99z " />
<glyph unicode="&#x26;" horiz-adv-x="1474" d="M84 334q0 66 26.5 125t63.5 95t74 62.5t63 37.5l27 12v18q-162 168 -162 307q0 156 127 252t330 96q171 0 287 -47l4 -35l-99 -186l-37 -2q-104 94 -215 94q-72 0 -113.5 -35.5t-41.5 -99.5q0 -84 57 -164t213 -213l301 -258q27 76 27 154q0 190 -150 190q-25 0 -52.5 -4 t-41.5 -7l-14 -3l-41 137q53 31 141 35l420 25q164 14 168 22l29 -47l-37 -102q-14 -33 -43 -45.5t-99 -12.5h-170l-6 -14q61 -68 62 -168q0 -121 -86 -250l280 -237v-33q-131 -102 -192 -103q-27 0 -250 201q-190 -156 -389 -156q-215 0 -338 95.5t-123 263.5zM319 385 q0 -104 80 -168.5t209.5 -65t229.5 65.5l-404 371q-115 -74 -115 -203z" />
<glyph unicode="'" horiz-adv-x="360" d="M88 1311l205 28l16 -20q-31 -225 -78 -442l-98 -41l-31 8q2 104 -1 221t-8 181z" />
<glyph unicode="(" horiz-adv-x="632" d="M143 334v354q0 374 252 572q62 49 113 69h22l64 -94l-2 -12q-8 -4 -23.5 -14.5t-54.5 -50.5t-67.5 -91t-53 -144.5t-24.5 -203.5v-354q0 -344 182 -520q29 -28 51 -42v-16l-84 -86h-16q-14 6 -39 18.5t-86.5 62.5t-108.5 114.5t-86 181.5t-39 256z" />
<glyph unicode=")" horiz-adv-x="632" d="M31 1227v16l84 86h16q14 -6 39 -18.5t86 -62.5t108.5 -114.5t86 -181.5t38.5 -256v-354q0 -374 -251 -572q-62 -49 -113 -69h-23l-63 94l2 12q8 4 23.5 14.5t54.5 50.5t67.5 91t53 144.5t24.5 203.5v355q0 344 -182 520q-29 28 -51 41z" />
<glyph unicode="*" horiz-adv-x="843" d="M84 1208q0 92 25 164l18 6q102 -53 211 -135l-16 -84l-15 -12zM127 940v21q82 80 195 157l73 -41l6 -16l-125 -195q-88 29 -149 74zM348 1495q90 29 164 29l14 -17q-23 -113 -65 -241l-86 -11l-15 9zM434 1065l62 59h20l143 -180q-53 -76 -114 -119l-21 6 q-51 102 -90 234zM483 1231l6 20l216 82q55 -76 77 -147l-12 -17q-12 -2 -35.5 -4t-89 -6t-125.5 -4z" />
<glyph unicode="+" horiz-adv-x="1036" d="M35 444l28 185q184 -2 351 -2l2 368l182 23l27 -14q-10 -217 -13 -377l375 12l14 -25l-20 -188l-369 -2l2 -344l-180 -31l-22 17q0 190 2 358l-365 -2z" />
<glyph unicode="," horiz-adv-x="487" d="M8 -190q66 45 107 108.5t41 124.5q-1 82 -64 150l6 28q92 70 162 70q61 0 99 -49t38 -133q0 -106 -90 -213t-223 -183l-76 62v35z" />
<glyph unicode="-" horiz-adv-x="663" d="M72 422l14 160l336 39l151 20l19 -27l-17 -163l-485 -54z" />
<glyph unicode="." horiz-adv-x="487" d="M84 133q0 74 45 121t121 47q72 0 112.5 -42t40.5 -112q0 -76 -45 -123t-120.5 -47t-114.5 42t-39 114z" />
<glyph unicode="/" horiz-adv-x="673" d="M41 -203q104 354 184 666l236 919h166l26 -30q-162 -580 -250 -912l-170 -665h-174z" />
<glyph unicode="0" horiz-adv-x="1026" d="M53 485q0 252 134.5 405.5t353.5 153.5q201 0 316.5 -135t115.5 -370q0 -254 -133.5 -409t-350.5 -155q-203 0 -319.5 136.5t-116.5 373.5zM219 514q0 -123 82 -196.5t221 -73.5q135 0 210 65.5t75 182.5q0 127 -82 200.5t-225 73.5q-131 0 -206 -66.5t-75 -185.5z" />
<glyph unicode="1" horiz-adv-x="747" d="M43 856l12 117q106 10 248 31q88 12 156.5 22t95.5 14l27 4l20 -61q-66 -54 -78 -160q-20 -231 -20 -553q0 -76 19.5 -106.5t70.5 -30.5l100 6l4 -10l-22 -137q-190 8 -293 8q-57 0 -137 -6t-131 -11l-52 -6l17 129q104 10 143 49.5t39 139.5v440q0 72 -22.5 94.5 t-81.5 22.5l-103 -10z" />
<glyph unicode="2" horiz-adv-x="991" d="M31 49l153 170q164 188 233.5 300t69.5 183q0 125 -127 125q-59 0 -121.5 -42t-107.5 -115h-29l-34 151q80 104 185 163.5t214 59.5q143 0 231 -72.5t88 -191.5q0 -96 -77.5 -211.5t-305.5 -361.5l9 -17h196q96 0 136 38t61 149l156 14q-43 -219 -58 -385l-29 -24 q-504 18 -696 18l-131 -18z" />
<glyph unicode="3" horiz-adv-x="882" d="M23 4l28 29q78 -27 174 -27q129 0 214 55.5t85 139.5t-73.5 124t-229.5 40l-18 20l-15 127l134 29q70 31 111.5 85t41.5 111q0 49 -36 80t-89 31q-109 0 -225 -100q-4 0 -12.5 -1.5t-12.5 -1.5l-43 146q61 47 175 100t206 53q137 0 220 -65.5t83 -173.5q0 -84 -61.5 -160 t-163.5 -119v-16q285 -76 285 -270q0 -162 -194.5 -303.5t-418.5 -141.5q-86 0 -121.5 47t-43.5 162z" />
<glyph unicode="4" horiz-adv-x="958" d="M4 150l6 137l543 753q2 0 7 2l5 2l172 -22v-700h168l17 -23l-19 -170q-66 2 -164 6q12 -297 13 -297l-17 -18l-235 -25l-17 21q8 178 13 325q-324 9 -492 9zM219 322h277v364h-21z" />
<glyph unicode="5" horiz-adv-x="874" d="M2 4l27 29q80 -27 176 -27q133 0 221 55.5t88 141.5q0 80 -86 126t-301 77l-18 22l41 553l16 16l395 15q59 4 86 20.5t43 61.5l113 8l-53 -301l-27 -27q-186 16 -408 17l-16 -183q246 -49 365.5 -127t119.5 -215q0 -178 -197.5 -324.5t-420.5 -146.5q-82 0 -119 46 t-45 163z" />
<glyph unicode="6" horiz-adv-x="950" d="M57 418q0 414 404 667q160 100 307 140l20 -11l41 -112q-14 -4 -37.5 -14.5t-88 -47t-120 -82t-118 -121t-96.5 -161.5l10 -12q6 2 40 19t72.5 34.5t61.5 21.5q160 0 253 -101t93 -247q0 -182 -122 -299t-322 -117q-180 0 -289 123t-109 320zM307 416q0 -129 48 -202 t137 -73q78 0 120.5 51.5t42.5 147.5t-49 157.5t-131 61.5q-84 0 -164 -57q-4 -57 -4 -86z" />
<glyph unicode="7" horiz-adv-x="874" d="M51 598q29 233 39 420l12 10q123 -8 250 -8h445l80 -98q-223 -463 -402 -895l-63 -232h-35l-187 55l-22 52l459 905l-275 -16q-96 -8 -127.5 -41t-50.5 -140z" />
<glyph unicode="8" horiz-adv-x="980" d="M78 266q0 201 229 303q-203 127 -203 310q0 141 118 243.5t294 102.5q145 0 249.5 -80t104.5 -207q0 -180 -184 -276q98 -57 155.5 -129t57.5 -177q0 -162 -126 -271.5t-314 -109.5q-162 0 -271.5 80t-109.5 211zM301 319q0 -80 54.5 -136t138.5 -56q74 0 122 45t48 115 q0 66 -55.5 109.5t-164.5 96.5l-26 13q-117 -72 -117 -187zM344 928q0 -47 35 -86t70.5 -59.5t113.5 -59.5q80 68 80 168q0 82 -43 127t-113 45q-63 0 -103 -39t-40 -96z" />
<glyph unicode="9" horiz-adv-x="950" d="M49 629q0 182 123 298.5t322 116.5q180 0 289.5 -122.5t109.5 -319.5q0 -415 -405 -669q-159 -100 -306 -140l-20 12l-41 113q14 4 36.5 14.5t87 47t121 80.5t118 120t96.5 162l-9 14q-4 -2 -39.5 -20.5t-74.5 -35.5t-62 -19q-160 0 -253 100t-93 248zM295 680 q0 -98 48 -158.5t130 -60.5q78 0 164 55q6 43 6 88q0 127 -49 201t-135 74q-78 0 -121 -51.5t-43 -147.5z" />
<glyph unicode=":" horiz-adv-x="487" d="M80 133q0 74 45 121t121 47q72 0 112.5 -42t40.5 -112q0 -76 -45 -123t-120.5 -47t-114.5 42t-39 114zM80 692q0 74 45 121t121 47q72 0 112.5 -42t40.5 -111q0 -76 -45 -123t-120.5 -47t-114.5 42t-39 113z" />
<glyph unicode=";" horiz-adv-x="487" d="M8 -190q66 45 107 108.5t41 124.5q-1 82 -64 150l6 28q92 70 162 70q61 0 99 -49t38 -133q0 -106 -90 -213t-223 -183l-76 62v35zM80 692q0 74 45 121t121 47q72 0 112.5 -42t40.5 -111q0 -76 -45 -123t-120.5 -47t-114.5 42t-39 113z" />
<glyph unicode="&#x3c;" horiz-adv-x="962" d="M57 463l2 199l392 167l362 156l27 -16l41 -156q-209 -78 -369 -145l-252 -103v-14l279 -123q336 -147 335 -147l9 -31l-86 -133q-178 80 -336 151l-387 168z" />
<glyph unicode="=" horiz-adv-x="1036" d="M35 264l28 185q297 -2 480 -3l444 13l14 -25l-20 -188l-465 -2l-467 -2zM35 629l28 184q297 -2 480 -2l444 12l14 -24l-20 -189l-465 -2l-467 -2z" />
<glyph unicode="&#x3e;" horiz-adv-x="962" d="M80 852l86 133q178 -82 336 -154l387 -165l16 -27l-2 -201l-391 -168l-362 -153l-27 14l-41 158q209 76 369 143l251 103v14l-278 123l-336 147z" />
<glyph unicode="?" horiz-adv-x="757" d="M100 1257l76 173l31 14q225 -6 377.5 -107.5t152.5 -249.5q0 -63 -18.5 -112t-63.5 -95t-90 -80t-128 -90q-25 -17 -38 -26l-6 -14l31 -170l-12 -23l-181 -37l-24 13l-49 258l6 28l221 129q106 66 107 148q0 193 -375 213zM158 133q0 74 46 121t122 47q72 0 111.5 -42 t39.5 -112q0 -76 -45 -123t-121 -47q-74 0 -113.5 42t-39.5 114z" />
<glyph unicode="@" horiz-adv-x="1767" d="M49 367q0 184 73 357t195.5 303t298 209t369.5 79q332 0 532.5 -180.5t200.5 -466.5q0 -301 -189 -497t-519 -196q-43 0 -66.5 22.5t-23.5 61.5q0 63 69 336l-16 2q-170 -309 -330 -422q-113 0 -174 80t-61 219q0 250 158.5 465t334.5 215l178 -36l15 45l24 14l164 -29 l16 -35q-109 -418 -157 -741l12 -12q180 0 283.5 121.5t103.5 320.5q0 258 -165 403.5t-447 145.5q-305 0 -501 -212t-196 -519q0 -334 198 -533.5t581 -210.5q0 -4 -1 -16t-1 -16l-64 -103q-420 8 -657.5 235.5t-237.5 590.5zM664 387q0 -72 12.5 -122t32.5 -50 q43 0 137 154.5t174 363.5q-104 59 -180 60q-66 0 -121 -127t-55 -279z" />
<glyph unicode="A" horiz-adv-x="1280" d="M-25 -6l17 137q49 8 78.5 38t54.5 97l364 1039l326 32l23 -10q183 -711 292 -1057q23 -74 58 -104.5t102 -36.5l8 -14l-14 -121q-162 6 -252 6q-78 0 -165 -4t-134 -8l-47 -4l-12 16l10 123q100 8 129 22.5t29 53.5q0 20 -11 67l-40 156q-53 2 -187 2q-80 0 -194 -14 l-52 -154q-12 -43 -12 -63q0 -35 20.5 -48.5t73.5 -13.5h88l9 -14l-15 -129q-168 12 -299 12zM459 586h143q66 0 152 8l-119 450h-29z" />
<glyph unicode="B" horiz-adv-x="1288" d="M74 -20l16 139q88 16 119 49t31 113l2 798q0 57 -14.5 80t-53.5 23l-70 -4l-12 16l19 125q213 -4 284 -4l314 10q213 0 323.5 -81t110.5 -236q0 -199 -219 -314q131 -35 209.5 -110.5t78.5 -194.5q0 -186 -146 -297.5t-388 -111.5q-33 0 -146.5 10t-156.5 10zM506 276 q0 -66 44 -93t148 -27q100 0 155.5 54t55.5 150q0 168 -207 215l-188 -2zM518 756q156 -18 195 -19q6 2 15 6.5t33.5 21.5t43 39.5t34 62.5t15.5 87q0 201 -283 201q-20 0 -27 -8t-9 -29q-13 -161 -17 -362z" />
<glyph unicode="C" horiz-adv-x="1263" d="M57 623q0 328 194.5 522t522.5 194q76 0 174.5 -12t157.5 -25l59 -14l13 -26q-41 -170 -54 -388l-202 -14q4 55 4 109q0 88 -54.5 130t-169.5 42q-325 0 -325 -446q0 -253 90 -390t250 -137q111 0 172 66.5t86 216.5l203 14q-35 -213 -41 -383l-21 -25q-196 -82 -450 -82 q-283 0 -446 173.5t-163 474.5z" />
<glyph unicode="D" horiz-adv-x="1419" d="M78 -20l14 139q88 16 118 52t30 122l2 776q0 66 -13.5 88.5t-52.5 22.5l-67 -4l-13 18l17 127q182 -6 262 -6l325 10q311 0 486.5 -163t175.5 -451q0 -324 -199 -530t-512 -206q-193 25 -309 25zM506 299q0 -88 33.5 -116.5t136.5 -28.5q364 0 364 490q0 263 -109.5 383 t-338.5 120q-33 0 -45 -10.5t-15 -38.5q-26 -539 -26 -781v-18z" />
<glyph unicode="E" horiz-adv-x="1222" d="M74 -20l16 139q84 12 116 50t32 126l2 776q0 68 -13.5 89.5t-54.5 21.5l-61 -4l-15 18l17 125q225 -6 379 -6q434 0 622 24l16 -22q-37 -182 -47 -373l-188 -12q4 53 4 82q0 84 -43 106.5t-215 22.5q-72 0 -89 -11.5t-20 -56.5l-14 -317q18 0 88 -1t103 -1l237 16l17 -18 l-29 -176q-164 6 -266 6q-51 0 -156 -13q-6 -223 -6 -286q0 -82 21.5 -102.5t109.5 -20.5q100 0 153.5 7t90.5 33.5t50 68.5t25 124l174 15l15 -21q-37 -184 -58 -381l-18 -22q-385 14 -639 14q-82 0 -171 -5t-137 -10z" />
<glyph unicode="F" horiz-adv-x="1089" d="M74 -23l16 140q86 16 117 53t31 125l2 776q0 68 -13.5 89.5t-54.5 21.5l-61 -4l-15 18l17 125q225 -6 379 -6q397 0 575 24l14 -22q-31 -186 -41 -375l-186 -12q4 57 4 84q0 84 -38 106.5t-179 22.5q-72 0 -89 -11.5t-20 -56.5l-14 -352l191 -2l215 16l16 -18l-29 -176 q-152 6 -243 6q-74 0 -156 -14l-6 -244q0 -78 17.5 -104.5t70.5 -26.5l133 10l18 -20l-22 -158q-215 8 -320 8q-68 0 -150.5 -6t-130.5 -11z" />
<glyph unicode="G" horiz-adv-x="1339" d="M57 623q0 334 194.5 525t534.5 191q80 0 181.5 -12t162.5 -25l62 -14l14 -26q-41 -164 -53 -377l-203 -13q6 51 6 111q0 86 -50 122t-169 36q-184 0 -273 -110.5t-89 -338.5q0 -252 90 -388t254 -136q120 0 196 53v191q0 59 -17 78.5t-73 19.5h-104l-12 16l22 148 q16 0 118.5 -2t166.5 -2q209 0 209 10l14 -80q-53 -35 -68.5 -98.5t-15.5 -239.5q0 -123 14 -178l-18 -27q-20 -8 -60 -22.5t-166 -37t-257 -22.5q-283 0 -447 173.5t-164 474.5z" />
<glyph unicode="H" horiz-adv-x="1529" d="M76 -18l14 133q90 18 119 52t29 120l2 788q0 63 -14.5 85t-59.5 22l-64 -2l-10 16l17 121q162 -2 243 -2l310 14l-11 -137q-78 -12 -98.5 -38t-24.5 -107l-12 -293l262 -4q127 0 242 14v311q0 63 -14.5 85t-59.5 22l-63 -2l-11 16l17 121q174 -2 262 -2l301 14l-12 -135 q-76 -10 -99.5 -32t-27.5 -81q-25 -471 -25 -809q0 -80 18.5 -108.5t67.5 -28.5l74 6l10 -16l-18 -131q-170 6 -299 6l-285 -4l16 135q86 2 117 40t31 148v261q-147 2 -221 2l-287 -21l-4 -289q0 -84 15.5 -111.5t62.5 -27.5l73 6l11 -14l-19 -131q-172 6 -250 6 q-59 0 -137 -3t-133 -8t-55 -7z" />
<glyph unicode="I" horiz-adv-x="747" d="M74 -18l14 133q90 18 120 53t30 119l2 788q0 63 -14.5 85t-59.5 22l-72 -2l-10 16l14 121q20 0 126 -1t161 -1l291 14l-12 -137q-78 -10 -103 -32t-29 -79q-24 -408 -24 -779v-30q0 -84 15.5 -111.5t62.5 -27.5l88 6l10 -14l-18 -131q-213 6 -306 6q-51 0 -122.5 -4 t-117.5 -9z" />
<glyph unicode="J" horiz-adv-x="681" d="M20 -231l5 22q117 84 155.5 177.5t38.5 283.5v823q0 66 -13 86.5t-59 20.5l-84 -6l-12 16l17 123h254l309 16l-13 -139q-66 -12 -84 -31.5t-22 -79.5q-25 -446 -25 -874q-2 -203 -99 -328t-310 -194z" />
<glyph unicode="K" horiz-adv-x="1349" d="M76 -6l18 131q88 14 116 45t28 117l2 788q0 63 -14.5 85t-59.5 22l-64 -2l-10 16l17 123q217 -4 276 -4l283 14l-13 -137q-76 -16 -101.5 -39t-27.5 -80l-18 -801v-18q0 -70 14 -94q16 -28 64 -27l80 6l8 -14l-19 -131q-207 6 -295 6zM547 647l6 45l301 328q53 53 53 100 q0 57 -108 64l-6 14l16 127q172 -10 256 -10l240 8l14 -23l-16 -116q-63 -27 -122 -77t-147 -157l-211 -237l271 -414q61 -92 113.5 -133t119.5 -45l12 -19l-16 -108q-203 -25 -240 -25q-121 0 -227 172z" />
<glyph unicode="L" horiz-adv-x="1087" d="M86 -20l14 139q78 12 108 50t30 126v780q0 63 -14.5 85t-59.5 22l-62 -2l-10 16l14 121q20 0 123 -1t156 -1l317 14l-16 -145q-100 -12 -125.5 -39t-30.5 -111q-22 -292 -22 -712v-37q0 -78 23.5 -100.5t103.5 -22.5q145 0 193.5 56t68.5 255l174 19l14 -21 q-35 -223 -55 -465l-18 -22q-334 16 -576 16q-82 0 -169 -5t-134 -10z" />
<glyph unicode="M" horiz-adv-x="1722" d="M55 -16l15 137q61 8 88.5 40t34.5 107q10 74 45.5 427.5t35.5 391.5q0 55 -29.5 74t-123.5 29l-10 12l18 123q184 -10 260 -10l223 8q55 -203 119 -414t99 -319l36 -109h17q131 387 268 836q3 0 117 -3q49 -1 81 -1q42 0 54 2l207 12l8 -8l-12 -127q-88 -6 -119 -28.5 t-31 -80.5q0 -186 49 -761q10 -111 30.5 -149t68.5 -38l59 4l8 -12l-18 -133q-125 6 -209 6q-47 0 -168 -6t-131 -10l16 139q59 6 86 29.5t27 70.5l-41 688h-19q-174 -483 -311 -925l-149 -19q-174 557 -314 944h-16q-41 -662 -41 -710q0 -68 66 -68l67 4l12 -12l-22 -133 q-176 8 -244 8z" />
<glyph unicode="N" horiz-adv-x="1492" d="M70 1206l14 119q137 -10 238 -10l196 8q119 -193 255 -403.5t214 -324.5l78 -114h20l-4 613q-2 88 -67 88q-16 0 -42 -1t-28 -1l-8 16l14 127q174 -8 264 -8l242 10l-10 -137q-68 -10 -97.5 -39t-31.5 -90l-27 -1088l-217 -26q-141 225 -289.5 452.5t-227.5 341.5 l-79 115h-20l-2 -631q0 -51 15 -71.5t54 -20.5l88 6l13 -14l-21 -131q-176 8 -264 8q-49 0 -112.5 -4t-101.5 -8l-38 -4l16 137q119 14 121 129l27 809q0 66 -33 91.5t-133 35.5z" />
<glyph unicode="O" horiz-adv-x="1380" d="M57 623q0 324 184.5 520t487.5 196q279 0 436.5 -170t157.5 -471q0 -326 -186.5 -524.5t-491.5 -198.5q-272 0 -430 174.5t-158 473.5zM375 705q0 -268 83.5 -409.5t237.5 -141.5q145 0 226.5 113.5t81.5 322.5q0 270 -86.5 410.5t-245.5 140.5q-141 0 -219 -114 t-78 -322z" />
<glyph unicode="P" horiz-adv-x="1181" d="M80 -16l16 139q84 14 113 49t29 121l2 778q0 66 -13.5 88.5t-52.5 22.5l-72 -4l-10 16l17 123q18 0 113 -1t145 -1l311 10q137 0 237.5 -32.5t154.5 -90t79 -125t25 -147.5q0 -184 -147.5 -324.5t-342.5 -140.5h-174l-2 -152q0 -115 16.5 -147.5t77.5 -32.5l90 6l8 -12 l-20 -133q-180 6 -258 6q-47 0 -131 -4t-146.5 -7t-64.5 -5zM514 647l180 -24q186 39 187 278q0 129 -72 188.5t-229 59.5q-29 0 -36 -5t-9 -32q-13 -180 -21 -465z" />
<glyph unicode="Q" horiz-adv-x="1390" d="M57 623q0 324 184.5 520t487.5 196q279 0 436.5 -170t157.5 -471q0 -233 -112.5 -412.5t-301.5 -254.5v-19q330 -229 549 -229l174 20l17 -14l22 -86q-217 -170 -274 -170q-137 0 -274.5 80.5t-477.5 361.5q-272 0 -430 174.5t-158 473.5zM375 705q0 -268 83.5 -409.5 t237.5 -141.5q145 0 226.5 113.5t81.5 322.5q0 270 -86.5 410.5t-245.5 140.5q-141 0 -219 -114t-78 -322z" />
<glyph unicode="R" horiz-adv-x="1316" d="M74 -12l18 137q86 12 116 46t30 122l2 788q0 59 -13.5 80t-52.5 21l-72 -4l-10 16l17 125q178 -4 258 -4l313 10q236 0 360.5 -91t124.5 -261q0 -248 -274 -391l178 -287q57 -94 110.5 -136t116.5 -42l15 -19l-15 -108l-243 -23q-135 0 -224 191l-176 356h-143l-2 -225 q0 -102 23.5 -129t121.5 -29l9 -12l-21 -127q0 6 -274 6zM516 698l184 -20q174 74 174 256q0 221 -305 221q-20 0 -27 -8t-10 -37q-12 -209 -16 -412z" />
<glyph unicode="S" horiz-adv-x="1105" d="M74 82q31 180 32 348l173 14q0 -168 47 -227t178 -59q96 0 154.5 43t58.5 114q0 23 -7.5 44.5t-27.5 42t-34.5 34t-51.5 33.5t-53.5 28.5t-65.5 32t-63 31.5q-152 74 -238 156t-86 213q0 180 153.5 294.5t393.5 114.5q204 0 352 -55l15 -27q-35 -166 -50 -352l-155 -12 l-19 14q2 33 2 72q0 90 -46 128t-152 38q-84 0 -139.5 -41t-55.5 -105q0 -37 19.5 -68.5t64.5 -62t80 -48t104 -50.5q86 -41 133.5 -67.5t110 -74.5t92 -106.5t29.5 -132.5q0 -188 -155.5 -301t-415.5 -113q-96 0 -186.5 19.5t-132.5 39.5l-42 19z" />
<glyph unicode="T" horiz-adv-x="1165" d="M10 874q18 240 23 441l22 22l207 -22h637l211 22l23 -22l20 -428l-172 -13q-23 190 -58.5 232.5t-189.5 46.5q-22 -320 -22 -832v-45q0 -76 25.5 -107.5t86.5 -31.5l109 6l8 -10l-18 -141q-250 8 -357 8l-344 -12l17 135q135 12 169.5 48t34.5 167v815q-88 -2 -131 -9 t-71.5 -41t-36.5 -76t-21 -140z" />
<glyph unicode="U" horiz-adv-x="1341" d="M37 1186l18 135q176 -6 293 -6l244 12l-14 -139q-63 -8 -87 -30.5t-28 -78.5l-14 -596q0 -154 65.5 -237.5t187.5 -83.5q250 0 250 266l-8 643q-2 68 -14 89.5t-51 21.5l-68 -4l-4 8l16 135q162 -6 240 -6l244 12l-13 -137q-76 -16 -97 -34.5t-21 -68.5v-636 q0 -231 -136.5 -353.5t-392.5 -122.5q-475 0 -475 443v653q0 68 -12.5 89.5t-53.5 21.5l-65 -4z" />
<glyph unicode="V" horiz-adv-x="1280" d="M-14 1196l14 123q170 -4 258 -4q68 0 155 4t140 8l53 4l12 -16l-10 -125q-102 -8 -129.5 -22.5t-27.5 -55.5l186 -844h31q47 121 152.5 464t105.5 388q0 35 -23.5 49.5t-81.5 14.5h-80l-10 14l14 127q172 -10 304 -10l237 4l-14 -135q-49 -8 -69.5 -27.5t-41.5 -79.5 l-377 -1067l-338 -41q-182 703 -299 1086q-18 63 -54 93t-99 34z" />
<glyph unicode="W" horiz-adv-x="1974" d="M-12 1196l14 123q164 -4 250 -4l336 16l10 -16l-10 -125q-98 -10 -126 -23.5t-28 -52.5l182 -846h27q66 176 225 738q-4 41 -16 86q-10 49 -43 68.5t-107 21.5l-10 14l17 123q186 -4 280 -4q68 0 152 4t133 8l49 4l10 -16l-10 -125q-100 -10 -127 -22.5t-27 -55.5 q0 -33 46.5 -244t91.5 -405l45 -195h26q45 123 148.5 468t103.5 390q0 33 -22.5 45.5t-79.5 12.5h-78l-10 14l16 127q168 -10 293 -10l229 4l-14 -135q-47 -8 -66.5 -27.5t-39.5 -79.5l-361 -1067l-326 -41q-33 188 -176 731h-20l-213 -690l-330 -41q-174 702 -289 1086 q-18 63 -53 93t-94 34z" />
<glyph unicode="X" horiz-adv-x="1396" d="M14 12l13 123q119 44 297 275l202 268l-219 328q-55 82 -114.5 118.5t-147.5 53.5l-8 10l16 131q172 -4 326 -4l313 14l10 -18l-10 -119q-123 -6 -123 -62q0 -16 11.5 -40.5t43 -75.5t52 -82t76.5 -113q16 25 47.5 70t55.5 77.5t47.5 70.5t36.5 63.5t13 40.5 q0 45 -100 51l-4 10l12 119q20 0 120.5 -3t149.5 -3l230 6l8 -14l-10 -125q-92 -31 -145.5 -76t-125.5 -143l-221 -306l240 -346q61 -86 123.5 -127t146.5 -45l6 -8l-16 -135q-180 6 -266 6l-369 -16l-10 14l12 125q111 6 111 57q0 27 -31 74l-176 260l-135 -190 q-72 -100 -72 -136q0 -55 100 -61l9 -14l-13 -127q-195 14 -266 14l-237 -10z" />
<glyph unicode="Y" horiz-adv-x="1224" d="M-20 1188l16 131q182 -6 264 -6l328 16l10 -18l-10 -119q-70 -2 -96.5 -16.5t-26.5 -45.5q0 -20 37 -110t86 -198.5t51 -112.5h20l162 338q29 57 29 98t-105 47l-4 10l15 119q20 0 121.5 -4t150.5 -4l209 8l8 -14l-14 -125q-80 -27 -129 -81t-119 -181l-197 -367 q-35 -68 -36 -252v-31v-13q0 -66 18 -91q20 -29 78 -29l102 6l6 -10l-18 -141q-236 8 -338 8l-319 -23l14 142q117 14 150.5 51t33.5 141v62q0 96 -59 209l-201 391q-49 98 -95 142t-136 63z" />
<glyph unicode="Z" horiz-adv-x="1187" d="M39 82l719 1083l-260 -16q-131 -16 -178.5 -67.5t-57.5 -192.5l-174 -12q29 254 35 442l20 20l365 -22l600 -6l37 -84q-313 -416 -739 -1077l319 22q102 8 158.5 83t81.5 232l174 15q-44 -268 -52 -469l-34 -39l-809 12l-154 -16z" />
<glyph unicode="[" horiz-adv-x="649" d="M166 -248q23 565 22 770l-22 776l446 23l9 -16l-15 -117l-213 -41v-1243l219 -43l9 -19l-15 -112z" />
<glyph unicode="\" horiz-adv-x="673" d="M25 1352l24 30h166l236 -919q35 -139 82 -305t75 -263l29 -98l-19 -22h-174q-86 328 -172 665z" />
<glyph unicode="]" horiz-adv-x="649" d="M29 -254l14 115l213 43v1243l-219 41l-8 18l14 115l440 -23q-23 -565 -22 -770l22 -776l-446 -22z" />
<glyph unicode="^" horiz-adv-x="1001" d="M66 225q80 190 153 363l168 391l199 8l26 -16q104 -248 168 -393l156 -336l-133 -86l-33 10q-80 178 -149 334l-123 280h-15l-102 -254q-67 -157 -143 -368l-158 41z" />
<glyph unicode="_" horiz-adv-x="927" d="M-18 -340l22 156q29 0 212 -1t282 -1q90 0 266 4l168 4l16 -29l-22 -158q-176 0 -512 -2t-414 -2z" />
<glyph unicode="`" d="M133 1362l111 143l26 2q176 -184 344 -348l-61 -80l-31 -8q-84 63 -181 129t-152 99l-54 34z" />
<glyph unicode="a" horiz-adv-x="980" d="M55 283q0 63 33 110t86 60l393 92l2 47q0 88 -46 136t-128 48q-53 0 -113.5 -23.5t-93.5 -47.5l-32 -25l-19 10l-37 123q281 158 379 158q172 0 257 -77t85 -204q0 -33 -20.5 -203t-20.5 -217q0 -37 20.5 -59.5t53.5 -22.5l96 35l33 -43q-10 -20 -29.5 -50t-73 -86 t-96.5 -69q-188 0 -206 158l-17 6q-155 -155 -224 -155h-1q-119 0 -200 86t-81 213zM301 307q0 -55 32 -90t81 -35q65 1 145 58l4 192l-215 -59q-47 -14 -47 -66z" />
<glyph unicode="b" horiz-adv-x="1052" d="M-4 1343l10 111l422 66l16 -39q-39 -45 -55 -650q180 133 221 134q180 0 284.5 -122t104.5 -331q0 -233 -144 -382.5t-372 -149.5q-74 0 -154.5 8t-125.5 16l-45 8l-21 21v1190q0 66 -18.5 90t-67.5 24q-12 0 -28.5 -1t-18.5 -1zM379 180q66 -30 144 -30h5 q96 0 150.5 74.5t54.5 209.5q0 154 -54 244t-144 90q-80 0 -150 -66z" />
<glyph unicode="c" horiz-adv-x="884" d="M51 449q0 229 140.5 375.5t359.5 146.5q68 0 133.5 -10.5t95.5 -21.5l31 -11l8 -19q-35 -145 -45 -317l-133 -8v67q0 145 -127 146q-190 0 -190 -271q0 -168 57 -256t166 -88q112 1 217 60l16 -6l33 -107q-20 -16 -55 -42t-117 -69t-137 -43q-211 0 -332 127t-121 347z " />
<glyph unicode="d" horiz-adv-x="1099" d="M51 432q0 231 146.5 382t371.5 151q66 0 103 -4v258q0 66 -18.5 90t-67.5 24l-49 -6l12 125q196 25 409 68l19 -35q-27 -39 -45 -397.5t-19 -815.5q0 -84 66 -84l92 35l33 -43q-10 -18 -28.5 -47t-73 -85t-105.5 -73q-184 0 -205 148l-14 4q-197 -143 -236 -143 q-180 0 -285.5 120.5t-105.5 327.5zM319 508q0 -152 54.5 -242t144.5 -90q33 0 72 16.5t60 33.5l22 18v514q-59 35 -148 35q-98 0 -151.5 -74t-53.5 -211z" />
<glyph unicode="e" horiz-adv-x="948" d="M51 449q0 223 139.5 372.5t348.5 149.5q344 0 344 -353q0 -27 -3 -55t-8 -45l-4 -16l-24 -23h-527v-18q6 -135 74 -210t182 -75q57 0 119 15.5t94 30.5l33 16l17 -7l32 -104q-23 -16 -60.5 -42t-131.5 -68t-160 -42q-217 0 -341 127t-124 347zM317 594l275 14 q23 4 31 12.5t8 34.5q0 152 -129 152q-80 0 -128.5 -54.5t-56.5 -158.5z" />
<glyph unicode="f" horiz-adv-x="700" d="M49 803l17 106l124 21v16q2 264 141.5 419t375.5 155q63 0 121.5 -10.5t85.5 -21.5l28 -11l10 -33q-37 -82 -71 -182l-27 -7q-90 78 -215 78q-106 0 -150.5 -72.5t-46.5 -244.5l-2 -94l262 6l9 -10l-23 -140q-104 4 -250 6l-4 -553q0 -94 84 -94l125 4l6 -10l-18 -137 q-207 6 -297 6l-271 -12l15 127q113 14 112 116v478q-2 47 -28.5 62.5t-104.5 19.5z" />
<glyph unicode="g" horiz-adv-x="1048" d="M80 164q27 29 70 63.5t72 55.5l30 20v14q-154 86 -154 281q0 160 121 267.5t305 107.5q45 0 113 -10.5t96 -10.5q45 4 118 20.5t122 32.5l49 15l12 -10l-26 -158q-74 -10 -150 -12l-8 -13q80 -86 80 -200q0 -160 -125 -263.5t-318 -103.5q-51 0 -127 14q-53 -35 -53 -69 q0 -72 199 -78q274 -8 383.5 -61.5t109.5 -178.5q0 -147 -166.5 -265t-375.5 -118q-168 0 -267.5 79t-99.5 210q25 29 76 67t90 60l39 23v12q-96 16 -155.5 72.5t-59.5 136.5zM346 -209q0 -59 50 -96t134 -37q94 0 164 45t70 104q0 33 -24.5 51.5t-93 34t-224.5 37.5 q-76 -68 -76 -139zM354 616q0 -102 45 -159.5t125 -57.5q152 0 152 199q0 104 -46 161.5t-130 57.5q-70 0 -108 -52t-38 -149z" />
<glyph unicode="h" horiz-adv-x="1114" d="M4 1346l12 108l422 66l15 -39q-41 -49 -58 -688q61 57 146.5 117.5t126.5 60.5q150 0 229.5 -68.5t79.5 -197.5q0 -37 -19.5 -233t-19.5 -249t14.5 -74.5t48.5 -21.5l62 2l4 -8l-18 -127q-143 6 -224 6l-229 -16l12 129q92 23 94 114l9 351q0 178 -131 178 q-72 0 -187 -84q-4 -283 -4 -453q0 -51 14.5 -71.5t47.5 -20.5l51 4l4 -12l-21 -125q-139 6 -223 6l-227 -6l16 127q55 6 75.5 29.5t20.5 80.5v992q0 63 -18 87.5t-68 24.5h-47z" />
<glyph unicode="i" horiz-adv-x="600" d="M51 782l12 121q84 10 182.5 27.5t154.5 28.5l57 12l18 -35q-49 -102 -49 -719q0 -90 63 -90l60 4l4 -8l-21 -129q-141 6 -227 6q-45 0 -108.5 -6t-103.5 -11l-40 -6l17 132q117 20 116 127v438q0 63 -19.5 88.5t-68.5 25.5zM160 1323q0 74 45 119t117 45q68 0 106.5 -39 t38.5 -109q0 -74 -46 -118.5t-118 -44.5q-68 0 -105.5 38.5t-37.5 108.5z" />
<glyph unicode="j" horiz-adv-x="561" d="M14 -438l4 24q88 86 119 187.5t31 300.5v600q0 66 -16.5 90t-57.5 24l-61 -6l12 119q165 25 391 70l19 -35q-45 -96 -45 -965q0 -143 -88 -268t-242 -203zM143 1323q0 74 45 119t119 45q66 0 105 -39t39 -109q0 -74 -45 -118.5t-117 -44.5q-70 0 -108 38.5t-38 108.5z " />
<glyph unicode="k" horiz-adv-x="1062" d="M6 1360l10 94l422 66l15 -39q-27 -33 -46 -391.5t-18 -872.5q0 -51 14.5 -71.5t47.5 -20.5l53 4l4 -12l-23 -125q-141 8 -223 8l-227 -12l14 129q63 8 80.5 39.5t17.5 117.5v949q0 98 -57 110h-80zM420 483l6 45l197 197q43 43 43 70q0 41 -107 41l-6 10l18 104 q143 -4 246 -4l221 8l6 -10l-18 -117q-37 -14 -72.5 -34.5t-83 -62.5t-65 -56.5t-78.5 -75.5l-63 -63l172 -267q98 -143 208 -151l9 -17l-15 -102q-100 -23 -149 -25h-18q-39 0 -72 7q-53 12 -91 46.5t-83 112.5z" />
<glyph unicode="l" horiz-adv-x="542" d="M6 1360l10 94l422 66l15 -39q-27 -33 -46 -392.5t-18 -871.5q0 -51 13.5 -71.5t46.5 -20.5l69 4l4 -12l-20 -123q-154 6 -236 6l-235 -18l16 129q66 14 83 46.5t17 116.5v949q0 98 -57 110h-80z" />
<glyph unicode="m" horiz-adv-x="1718" d="M49 795l12 108l381 68l17 -21q-18 -72 -23 -141l6 -6q205 168 267 168q238 0 290 -172q57 51 146.5 111.5t124.5 60.5q147 0 228 -70t81 -196q0 -37 -18.5 -233t-18.5 -249t15.5 -74.5t50.5 -21.5l61 2l4 -8l-20 -127q-145 6 -226 6l-221 -10l13 131q47 6 66.5 29.5 t21.5 76.5l6 351q0 178 -131 178q-76 0 -172 -74l-27 -459q0 -53 14.5 -74.5t46.5 -21.5l58 2l4 -8l-21 -127q-139 6 -217 6l-229 -16l12 129q92 23 94 114l7 351q0 178 -131 178q-74 0 -177 -78q-20 -369 -20 -457q0 -51 13.5 -71.5t47.5 -20.5l54 4l6 -10l-23 -129 q-135 6 -217 6l-244 -6l17 129q59 4 82.5 27.5t23.5 80.5v431q0 72 -21.5 97t-78.5 25h-27z" />
<glyph unicode="n" horiz-adv-x="1167" d="M49 795l12 108l381 68l17 -21q-18 -72 -23 -141l8 -8q195 170 265 170q145 0 227 -71t82 -195q0 -37 -18.5 -233t-18.5 -249t14.5 -74.5t48.5 -21.5l62 2l4 -8l-18 -127q-145 6 -224 6l-229 -16l12 129q92 23 94 114l7 351q0 178 -131 178q-70 0 -177 -76 q-20 -373 -20 -459q0 -51 13.5 -71.5t47.5 -20.5l54 4l6 -10l-23 -129q-135 6 -217 6l-244 -12l17 131q59 6 82.5 30.5t23.5 81.5v431q0 72 -21.5 97t-78.5 25h-27z" />
<glyph unicode="o" horiz-adv-x="1030" d="M51 444q0 236 137.5 381.5t358.5 145.5q199 0 315.5 -126t116.5 -343q0 -236 -136.5 -381.5t-357.5 -145.5q-197 0 -315.5 128t-118.5 341zM324 516q0 -383 202 -383q176 0 176 275q0 387 -202 387q-176 0 -176 -279z" />
<glyph unicode="p" horiz-adv-x="1101" d="M45 795l10 108q188 29 379 68l19 -21q-16 -70 -23 -129l8 -10q164 152 203 152q184 0 296 -124t112 -327q0 -240 -152 -386t-393 -146l-84 6v-189q0 -84 13 -112.5t61 -28.5q16 0 47.5 2t33.5 2l7 -8l-23 -127q-12 0 -108.5 2t-141.5 2l-250 -12l17 127q57 6 75.5 30.5 t18.5 96.5l10 313v578q0 72 -21.5 97t-78.5 25h-27zM426 178q72 -28 147 -28h5q96 0 150 74.5t54 209.5q0 150 -54 237t-146 87q-63 0 -144 -60q-12 -239 -12 -520z" />
<glyph unicode="q" horiz-adv-x="1058" d="M51 432q0 231 146.5 382t371.5 151q104 0 228 -21l135 55l22 -24q-43 -92 -43 -1182q0 -84 11.5 -108.5t52.5 -24.5l53 2l6 -6l-14 -127h-262l-254 -8l12 127q92 4 119 27.5t29 97.5l8 348q-197 -141 -230 -141q-180 0 -285.5 121.5t-105.5 330.5zM319 508 q0 -154 54.5 -244t144.5 -90q76 0 154 70v514q-59 35 -148 35q-98 0 -151.5 -74t-53.5 -211z" />
<glyph unicode="r" horiz-adv-x="845" d="M55 797l13 106l374 68l21 -19q-20 -102 -23 -190l13 -8q63 94 140 148t148 54l70 -8l8 -16q-33 -207 -41 -375l-133 -8q0 98 -12 130t-47 32q-70 0 -135 -88q-18 -356 -19 -394q0 -53 16.5 -73.5t61.5 -20.5l104 8l7 -12l-23 -139q-170 8 -268 8l-258 -8l16 127 q61 4 83 32.5t22 106.5v406q0 70 -18.5 95t-70.5 25l-38 -2z" />
<glyph unicode="s" horiz-adv-x="837" d="M59 53q18 131 27 269l117 12q0 -207 180 -207q57 0 96 25.5t39 64.5q0 41 -40 74t-162.5 90t-179 121.5t-56.5 152.5q0 139 118.5 227.5t307.5 88.5q59 0 116.5 -9.5t85.5 -18.5l27 -9l13 -23q-27 -129 -39 -266l-119 -6q4 25 4 35q-2 139 -143 139q-53 0 -88 -24.5 t-35 -63.5q0 -74 137 -139q178 -84 240.5 -147.5t62.5 -155.5q0 -129 -122 -218.5t-300 -89.5q-74 0 -142.5 14.5t-100.5 27.5l-31 14z" />
<glyph unicode="t" horiz-adv-x="679" d="M8 807l15 102q178 84 348 221l57 -30q-12 -66 -22 -178l239 6l8 -10l-20 -140l-240 6q-12 -238 -12 -442q0 -86 30.5 -125t100.5 -39q25 0 55.5 7.5t47.5 14.5l18 7l24 -68q-172 -164 -235 -164q-145 0 -214 60.5t-69 191.5v455q0 63 -22.5 86t-87.5 25z" />
<glyph unicode="u" horiz-adv-x="1120" d="M31 782l12 121l375 68l20 -35q-23 -49 -39 -222t-16 -356q0 -165 125 -165h2q57 0 174 75v418q0 59 -17.5 78.5t-70.5 21.5q-6 0 -21 -1l-14 -1l17 119l383 64l20 -35q-23 -47 -39 -238.5t-16 -421.5q0 -84 71 -84l97 35l32 -43q-12 -20 -34.5 -51t-79 -87t-101.5 -67 q-186 0 -209 158l-16 8q-174 -164 -227 -164q-158 0 -240 67t-82 192l15 452q0 100 -68 100z" />
<glyph unicode="v" horiz-adv-x="958" d="M-23 831l15 117q127 -2 194 -2l279 15l4 -11l-16 -121q-63 -6 -82 -16t-19 -37q0 -25 31 -161t62 -261l32 -125h23q182 504 182 549q0 25 -14.5 33t-53.5 8h-55l-8 15l16 114q129 -2 221 -2l187 2l-14 -127q-45 -6 -66 -27.5t-47 -91.5l-258 -702l-268 -31 q-164 596 -213 750q-33 100 -127 102z" />
<glyph unicode="w" horiz-adv-x="1515" d="M-16 831l14 117q125 -2 190 -2q59 0 129 4t109 7l39 4l4 -11l-16 -121q-61 -6 -79 -15t-18 -38l121 -547h21q78 195 166 506q-10 47 -34 65.5t-77 18.5l-6 12l16 117q123 -2 189 -2l272 12l4 -10l-18 -121q-63 -6 -80 -15t-17 -36l121 -547h23q176 498 176 549 q0 25 -13.5 34t-50.5 9h-55l-8 13l16 116q125 -4 217 -4l187 2l-17 -127q-45 -6 -64.5 -27.5t-43.5 -91.5l-254 -702l-258 -31q-4 27 -127 508h-23l-153 -477l-264 -31q-162 596 -209 750q-33 100 -125 102z" />
<glyph unicode="x" horiz-adv-x="1017" d="M2 8l14 98q39 18 71 51t112 130l163 194l-137 191q-57 80 -100 110.5t-111 42.5l-4 9l13 114q121 -2 239 -2l254 8l6 -12l-12 -106q-78 0 -78 -39q0 -33 45 -92l84 -119l94 127q51 70 52 90q0 28 -69 28h-5l-4 9l10 106h184l174 6l7 -12l-13 -111q-90 -47 -176 -151 l-162 -211l158 -213q53 -72 97 -104.5t102 -36.5l6 -9l-19 -108q-135 4 -196 4l-291 -12l-6 10l14 102q80 2 80 37q0 23 -27 60l-120 165q-147 -184 -148 -217q0 -39 74 -41l6 -12l-14 -100q-152 8 -201 8l-160 -6z" />
<glyph unicode="y" horiz-adv-x="952" d="M-47 -328l16 27q270 23 412 283q-188 530 -283 749q-43 86 -123 88l-4 10l15 117h159q63 0 140 3t125.5 6t48.5 6l4 -11l-19 -121q-57 -2 -77.5 -13t-20.5 -36q0 -29 35 -156.5t70 -240.5l34 -113h23q184 475 184 510q0 25 -12 34t-47 9h-66l-6 11l17 118q125 -6 217 -6 h190l-16 -125q-45 -10 -65.5 -29.5t-39.5 -70.5l-262 -633q-131 -315 -244 -450q-112 -132 -245 -132h-4q-29 0 -92.5 67t-63.5 99z" />
<glyph unicode="z" horiz-adv-x="937" d="M41 59l516 754l-184 -12q-109 -10 -146 -45t-45 -135l-104 -11q18 205 22 340l15 15l266 -17l475 -6l27 -61q-289 -381 -533 -752l217 18q88 10 132 65.5t63 176.5l108 10q-34 -219 -34 -368v-8l-33 -33l-613 14l-114 -12z" />
<glyph unicode="{" horiz-adv-x="657" d="M90 494l8 98q166 47 166 151q0 41 -48 169t-48 190q0 102 83 169.5t222 67.5q31 0 69 -4t59 -9l22 -5l14 -21l-27 -114q-51 10 -84 10q-55 0 -84.5 -34t-29.5 -89q0 -37 27.5 -153.5t27.5 -161.5q0 -76 -42 -124t-108 -67v-12q150 -49 150 -199q0 -51 -27.5 -175 t-27.5 -165q0 -57 30.5 -93t89.5 -36l84 13l17 -21l-23 -110q-61 -31 -164 -31q-123 0 -200.5 68.5t-77.5 168.5q0 63 48 189.5t48 163.5q0 125 -174 166z" />
<glyph unicode="|" horiz-adv-x="684" d="M238 -528q0 727 2 1093l2 1065l176 23l33 -23q-12 -694 -13 -1034l2 -1124l-178 -23z" />
<glyph unicode="}" horiz-adv-x="657" d="M23 -223l26 112q49 -10 82 -10q57 0 86 34t29 89q0 39 -28 160t-28 168q0 143 150 188v12q-150 51 -150 201q0 49 28 169t28 159q0 57 -31 93t-88 36l-84 -10l-16 18l22 113q61 31 164 30q123 0 201 -69.5t78 -167.5q0 -63 -48.5 -186t-48.5 -158q0 -66 47 -108t127 -58 l-8 -96q-74 -20 -120 -60.5t-46 -93.5q0 -43 48.5 -170t48.5 -186q0 -109 -84 -178.5t-224 -69.5q-31 0 -67.5 4t-59.5 9l-22 5z" />
<glyph unicode="~" horiz-adv-x="1036" d="M55 440v23l187 207l39 8q53 0 232 -40t222 -40q25 0 64 28.5t64 58.5l26 30h22l72 -78v-21l-186 -208l-39 -9q-53 0 -232.5 40t-222.5 40q-54 0 -153 -114h-23z" />
<glyph unicode="&#xa1;" horiz-adv-x="583" d="M102 -459l127 928l131 23l33 -27l41 -881l-24 -35l-273 -45zM162 801q0 76 45 123t121 47q74 0 113.5 -42t39.5 -114q0 -74 -46 -121t-122 -47q-72 0 -111.5 42t-39.5 112z" />
<glyph unicode="&#xa2;" horiz-adv-x="884" d="M51 449q0 209 117 350t307 166l41 364l143 19l13 -19l-41 -362q49 -4 94 -14.5t66 -17.5l20 -7l8 -19q-35 -145 -45 -317l-133 -8v67q0 145 -127 146q-190 0 -190 -271q0 -168 57 -256t166 -88q112 1 217 60l16 -6l33 -107q-168 -137 -291 -152l-30 -286l-142 -17l-12 15 l33 303q-152 35 -236 154.5t-84 302.5z" />
<glyph unicode="&#xa3;" horiz-adv-x="1060" d="M55 137q188 115 189 279v84q-2 47 -28 62.5t-103 19.5l-9 12l15 106l125 21v43q0 188 139 324.5t330 136.5q152 0 229 -31l10 -23l-65 -196l-39 -6q-139 78 -223 78q-141 0 -144 -195l-6 -139l309 6l9 -10l-23 -140q-139 6 -299 6l-4 -122q-4 -147 -96 -228l116 25 q43 0 145.5 -19.5t141.5 -19.5q127 0 133 154l51 -5q43 -76 43 -170t-56 -154.5t-142 -60.5q-68 0 -227.5 50.5t-233.5 50.5q-109 0 -223 -74l-23 10z" />
<glyph unicode="&#xa4;" horiz-adv-x="909" d="M27 1018l6 35l143 102q98 -106 137 -147q70 37 150 36q78 0 151 -36q139 158 140 157l37 -8l104 -145l-147 -138q43 -74 43 -155.5t-39 -149.5l151 -137l-8 -35l-145 -106l-134 143q-70 -41 -153 -41q-82 0 -158 43q-139 -150 -139 -149l-35 8l-100 145q14 10 145 129 q-37 68 -37 150q0 84 41 153q-154 145 -153 146zM287 719q0 -74 51 -126t125 -52t127 52t53 126t-53 126t-127 52t-125 -52t-51 -126z" />
<glyph unicode="&#xa5;" horiz-adv-x="1163" d="M43 909v49l12 76q133 -6 213 -6q29 0 159 6t138 8l10 -20l-10 -104q-59 -4 -77.5 -12.5t-18.5 -26.5q0 -23 33 -95l18 -47l96 -166l134 265q16 29 16 49q0 14 -11.5 18t-35 6t-41.5 13q2 12 2 41l10 71q20 0 106.5 -3t131.5 -3l180 6l8 -12l-12 -113 q-70 -23 -101.5 -50.5t-76.5 -98.5l-49 -82q164 4 194 4l14 -18l-8 -117h-278l-54 -92q-14 -23 -20 -56q154 2 344 9l14 -21l-10 -117h-371q0 -53 3 -77q4 -37 15 -52.5t40 -17.5q10 -2 39 -2l69 4l6 -12l-16 -119q-203 6 -291 6l-280 -18l12 122q96 12 123 42t31 124 q-84 0 -208 -1t-145 -1l-14 17l16 114h334q-23 55 -35 76l-39 72q-63 0 -153 -1t-107 -1l-14 14l16 115h181q-115 201 -242 235z" />
<glyph unicode="&#xa6;" horiz-adv-x="684" d="M238 -528q0 520 2 852l178 30l20 -20l2 -862l-178 -23zM240 758q0 145 1 436t1 436l176 23l33 -23q-11 -504 -13 -862l-180 -25z" />
<glyph unicode="&#xa7;" horiz-adv-x="1024" d="M57 631q0 168 203 293q-25 49 -24 106q0 129 103 219t253 90q98 0 174 -30.5t76 -71.5q0 -49 -20.5 -121t-41.5 -90h-39q-25 61 -72.5 100t-99.5 39q-39 0 -64.5 -25.5t-25.5 -64.5q0 -51 50.5 -101t123 -95t144 -95.5t122 -122t50.5 -153.5q0 -86 -53.5 -165 t-143.5 -134q23 -49 23 -98q2 -121 -114 -218.5t-280 -97.5q-113 0 -195.5 48t-82.5 112q0 139 55 215l43 -2q14 -90 75.5 -148.5t139.5 -58.5q49 0 82 27.5t33 72.5q0 53 -51 102.5t-124 92.5t-144.5 92t-123 122t-51.5 161zM270 717q0 -59 48.5 -115.5t109.5 -95.5 t144 -95.5t128 -101.5q47 51 48 117q0 57 -47.5 113.5t-108 96.5t-142 96t-126.5 104q-54 -49 -54 -119z" />
<glyph unicode="&#xa8;" d="M94 1276q0 61 38 100t99 39q57 0 90 -34.5t33 -90.5q0 -61 -38 -99t-101 -38q-57 0 -89 34t-32 89zM459 1276q0 61 38 100t101 39q57 0 89 -33.5t32 -91.5q0 -59 -38 -98t-99 -39q-59 0 -91 34t-32 89z" />
<glyph unicode="&#xa9;" horiz-adv-x="1425" d="M88 600q0 258 182.5 441.5t440.5 183.5q260 0 442 -183.5t182 -441.5t-182 -441.5t-442 -183.5q-258 0 -440.5 183.5t-182.5 441.5zM193 600q0 -217 151.5 -370.5t366.5 -153.5q217 0 369.5 153.5t152.5 370.5t-152.5 370.5t-369.5 153.5q-215 0 -366.5 -153.5 t-151.5 -370.5zM375 592q0 166 98 262t272 96q41 0 95.5 -6t88.5 -13l34 -7l6 -15q-23 -88 -29 -207l-125 -6q2 27 2 54q0 84 -100 84q-141 0 -142 -207q0 -246 148 -246q53 0 82 31.5t37 101.5l121 10q-16 -115 -17 -205l-12 -16q-109 -39 -244 -39q-152 0 -233.5 89 t-81.5 239z" />
<glyph unicode="&#xaa;" horiz-adv-x="698" d="M47 893q0 41 22.5 71.5t59.5 41.5l264 53v18q0 51 -29.5 81t-82.5 30q-77 0 -160 -60l-12 7l-29 90q197 106 262 106q127 0 186.5 -52t59.5 -134q0 -23 -13.5 -127.5t-13.5 -128.5q0 -51 43 -51l60 18l20 -33q-74 -127 -137 -145q-133 0 -144 102l-14 4 q-100 -100 -151 -100q-80 0 -135.5 60.5t-55.5 148.5zM238 907q0 -33 18 -54.5t47 -21.5q41 0 84 25l4 121l-125 -31q-29 -8 -28 -39z" />
<glyph unicode="&#xab;" horiz-adv-x="923" d="M31 440v43q188 189 338 359l84 -51l8 -33q-37 -55 -99.5 -155.5t-82.5 -133.5q0 -2 71.5 -117.5t110.5 -177.5l-8 -33l-84 -51q-149 165 -338 350zM410 440v43q188 189 338 359l83 -51l9 -33q-37 -55 -99.5 -155.5t-83.5 -133.5q0 -2 72 -117.5t111 -177.5l-9 -33 l-83 -51q-149 165 -338 350z" />
<glyph unicode="&#xac;" horiz-adv-x="1036" d="M35 473l28 186q297 -2 480 -2l383 13l14 -27q-18 -143 -20 -293l2 -278l-187 -29l-22 14q2 209 2 398h-199l-467 -2z" />
<glyph unicode="&#xad;" horiz-adv-x="663" d="M72 422l14 160l336 39l151 20l19 -27l-17 -163l-485 -54z" />
<glyph unicode="&#xae;" horiz-adv-x="958" d="M61 1038q0 174 122 296t296 122t296 -122t122 -296t-122 -295.5t-296 -121.5t-296 121.5t-122 295.5zM139 1038.5q0 -139.5 100.5 -240t239.5 -100.5t239.5 100.5t100.5 240t-100.5 239.5t-239.5 100t-239.5 -100t-100.5 -239.5zM281 844l6 49q29 4 37 17.5t8 50.5v219 q0 37 -21 37h-22l-4 6l6 43q4 0 37.5 -1t50.5 -1h22q45 4 72 4q176 0 176 -115q0 -78 -86 -125l49 -78q37 -59 74 -61l4 -6q-2 -29 -12 -36t-68 -9q-31 0 -49 12t-35 49l-51 105h-43v-56q0 -35 7 -43t40 -8l4 -6l-6 -45q-51 4 -80 4h-24zM434 1069q6 0 25.5 -2t29.5 -2 q51 18 52 74q0 66 -90 65q-11 0 -11 -16q0 -4 -3 -50t-3 -69z" />
<glyph unicode="&#xaf;" d="M102 1210l29 156q195 -2 315 -2l261 12l16 -28l-25 -156l-288 -2l-285 -2z" />
<glyph unicode="&#xb0;" horiz-adv-x="618" d="M43 1071q0 113 78 190.5t188.5 77.5t188 -77.5t77.5 -190.5q0 -111 -77.5 -188.5t-188 -77.5t-188.5 77.5t-78 188.5zM162 1071.5q0 -63.5 42 -105.5t105.5 -42t105.5 42t42 105.5t-42 106.5t-105.5 43t-105.5 -43t-42 -106.5z" />
<glyph unicode="&#xb1;" horiz-adv-x="1036" d="M35 479l28 187q184 -2 351 -2q0 59 1 178t1 178l182 22l27 -14q-10 -207 -13 -364l375 12l14 -27l-20 -188q-61 0 -185 -1t-184 -1l2 -334l-180 -29l-22 15q0 182 2 348l-365 -2zM49 -174l23 156h475q172 0 256 2q166 4 166 6l16 -31l-22 -158q-170 0 -496 -2t-399 -2z " />
<glyph unicode="&#xb2;" horiz-adv-x="720" d="M45 782l166 179q158 186 156 276q0 76 -86 76q-94 0 -177 -111h-20l-27 129q49 72 128 116t157 44q111 0 178.5 -52.5t67.5 -138.5t-60.5 -185t-212.5 -263l7 -12h116q59 0 85 25.5t36 95.5l125 10q-29 -158 -37 -271l-22 -18q-322 12 -455 12l-113 -10z" />
<glyph unicode="&#xb3;" horiz-adv-x="634" d="M45 834l25 24q55 -23 118 -22q74 0 120 28.5t46 73.5q0 92 -182 92l-14 17l-13 98l91 18q92 41 92 115q0 29 -20.5 47t-53.5 18q-68 0 -148 -57h-16l-35 113q47 33 125 62.5t139 29.5q96 0 154.5 -44t58.5 -116q0 -59 -39.5 -107t-109.5 -73v-14q188 -59 188 -193 q0 -98 -126 -182t-279 -84q-61 0 -88 35t-33 121z" />
<glyph unicode="&#xb4;" d="M236 1159q74 74 159.5 161t133.5 138l49 51l28 -2l111 -143l-2 -29q-197 -123 -387 -264l-31 8z" />
<glyph unicode="&#xb5;" horiz-adv-x="1089" d="M74 -469q27 289 37 619l14 520q0 49 -4 103t-9 84l-6 30l15 35q190 27 272 49l19 -35q-20 -49 -38 -220t-18 -358q0 -166 131 -165q16 0 36 5t36 12t33.5 17.5t28 17.5t21.5 15l11 8v418q0 43 -5 92t-10 78l-5 29l14 35q188 29 283 47l20 -35q-23 -47 -39 -237.5 t-16 -422.5q0 -84 72 -84l96 35l31 -43q-12 -20 -35 -51t-79 -87t-99 -67q-193 0 -209 154l-17 8q-137 -147 -213 -160q-66 0 -110 35l-10 -6l-3 -121v-71l15 -250l-15 -19l-223 -41z" />
<glyph unicode="&#x3bc;" horiz-adv-x="1089" d="M74 -469q27 289 37 619l14 520q0 49 -4 103t-9 84l-6 30l15 35q190 27 272 49l19 -35q-20 -49 -38 -220t-18 -358q0 -166 131 -165q16 0 36 5t36 12t33.5 17.5t28 17.5t21.5 15l11 8v418q0 43 -5 92t-10 78l-5 29l14 35q188 29 283 47l20 -35q-23 -47 -39 -237.5 t-16 -422.5q0 -84 72 -84l96 35l31 -43q-12 -20 -35 -51t-79 -87t-99 -67q-193 0 -209 154l-17 8q-137 -147 -213 -160q-66 0 -110 35l-10 -6l-3 -121v-71l15 -250l-15 -19l-223 -41z" />
<glyph unicode="&#xb6;" horiz-adv-x="1161" d="M49 889q0 186 129 310t336 124q55 0 159.5 -4t135.5 -4l295 6l-12 -127l-5 -8q-76 -6 -100 -23.5t-29 -70.5q-25 -178 -24 -742q0 -248 -123 -401.5t-350 -153.5q-117 0 -202 55.5t-85 143.5q0 47 25.5 112.5t60.5 108.5h33q6 -125 60.5 -194.5t138.5 -69.5 q106 0 145 65.5t39 231.5v903q0 20 -9.5 25.5t-45.5 5.5q-80 0 -121 -78t-41 -217q0 -133 29.5 -226.5t101.5 -191.5v-49q-240 10 -390.5 132t-150.5 337z" />
<glyph unicode="&#xb7;" horiz-adv-x="487" d="M84 485q0 74 45 121t121 47q72 0 112.5 -43t40.5 -112q0 -74 -45 -121t-120.5 -47t-114.5 42t-39 113z" />
<glyph unicode="&#xb8;" d="M182 -397q0 39 76 129h18q2 -55 31 -85t76 -30q35 0 58.5 17.5t23.5 43.5q0 54 -176 146l65 235h107l-43 -149q55 -33 89 -54.5t70.5 -63.5t36.5 -81q0 -80 -82.5 -138t-189.5 -58q-57 0 -108.5 24.5t-51.5 63.5z" />
<glyph unicode="&#xb9;" horiz-adv-x="542" d="M41 1356l8 88q57 6 170 20q57 6 107.5 13.5t73.5 10.5l24 3l18 -47q-43 -35 -53 -101q-16 -127 -16 -460q0 -88 59 -88l62 2l6 -6l-19 -101q-131 4 -200 4l-230 -14l10 96q63 4 92 25.5t29 70.5v404q0 47 -13 61.5t-52 14.5l-68 -4z" />
<glyph unicode="&#xba;" horiz-adv-x="724" d="M47 989q0 156 91 249t243 93q141 0 219 -82t78 -227q0 -156 -90 -250t-242 -94q-137 0 -218 84t-81 227zM260 1042q0 -243 109 -243q94 0 94 155q0 244 -109 244q-94 0 -94 -156z" />
<glyph unicode="&#xbb;" horiz-adv-x="923" d="M84 174q74 115 180 289q-135 221 -180 293l8 32l84 54q66 -74 150 -162t135 -139l51 -52v-40q-189 -189 -336 -359l-84 51zM463 174q74 115 180 289q-135 221 -180 293l8 32l84 54q66 -74 149.5 -162t135.5 -139l51 -52v-40q-189 -189 -336 -359l-84 51z" />
<glyph unicode="&#xbc;" horiz-adv-x="1560" d="M41 1196l8 86q57 6 170 21q57 6 107.5 13t73.5 10l24 3l18 -47q-43 -30 -53 -100q-16 -127 -16 -461q0 -88 59 -88l62 4l6 -8l-19 -101q-131 6 -200 7l-230 -15l10 94q63 4 92 27t29 70v403q0 47 -13 61.5t-52 14.5l-68 -4zM195 -106q248 369 423 647l537 848l127 -52 l14 -39q-360 -547 -544 -833l-414 -655l-133 55zM889 197l4 108l348 488l10 4l146 -17v-452h102l14 -17l-14 -127l-100 2l8 -172l-14 -14l-185 -14l-10 12q6 102 8 195zM1047 328h159v213h-14z" />
<glyph unicode="&#xbd;" horiz-adv-x="1622" d="M41 1196l8 86q57 6 170 21q57 6 107.5 13t73.5 10l24 3l18 -47q-43 -30 -53 -100q-16 -127 -16 -461q0 -88 59 -88l62 4l6 -8l-19 -101q-131 6 -200 7l-230 -15l10 94q63 4 92 27t29 70v403q0 47 -13 61.5t-52 14.5l-68 -4zM195 -106q248 369 423 647l537 848l127 -52 l14 -39q-360 -547 -544 -833l-414 -655l-133 55zM946 86l166 178q158 186 156 279q0 74 -86 73q-96 0 -176 -108h-21l-27 127q49 72 128 117t157 45q111 0 178.5 -53.5t67.5 -139.5q0 -84 -60.5 -184.5t-211.5 -263.5l6 -11h116q59 0 85 26t36 95l125 10q-29 -158 -37 -270 l-22 -18q-322 12 -455 12l-113 -12z" />
<glyph unicode="&#xbe;" horiz-adv-x="1560" d="M45 672l25 24q55 -23 118 -22q74 0 120 28.5t46 73.5q0 92 -182 92l-14 17l-13 98l91 18q92 41 92 115q0 29 -20.5 47.5t-53.5 18.5q-66 0 -148 -56h-16l-35 111q47 33 125 62.5t139 29.5q96 0 154.5 -44t58.5 -116q0 -57 -39.5 -105t-109.5 -75v-14q188 -57 188 -193 q0 -98 -126 -181t-279 -83q-61 0 -88 35t-33 119zM195 -106q248 369 423 647l537 848l127 -52l14 -39q-360 -547 -544 -833l-414 -655l-133 55zM889 197l4 108l348 488l10 4l146 -17v-452h102l14 -17l-14 -127l-100 2l8 -172l-14 -14l-185 -14l-10 12q6 102 8 195zM1047 328 h159v213h-14z" />
<glyph unicode="&#xbf;" horiz-adv-x="757" d="M20 -139q0 63 17.5 111t62.5 94.5t86 77t126 89.5q30 21 46 31l7 15l-31 170l12 22l180 37l25 -12l49 -258l-6 -29l-221 -129q-106 -66 -107 -148q0 -96 99.5 -149t275.5 -64l16 -28l-75 -172l-31 -15q-225 6 -378 107.5t-153 249.5zM281 801q0 76 44.5 123t120.5 47 q74 0 114 -42t40 -114q0 -74 -46 -121t-122 -47q-72 0 -111.5 42t-39.5 112z" />
<glyph unicode="&#xc0;" horiz-adv-x="1280" d="M-25 -6l17 137q49 8 78.5 38t54.5 97l364 1039l326 32l23 -10q183 -711 292 -1057q23 -74 58 -104.5t102 -36.5l8 -14l-14 -121q-162 6 -252 6q-78 0 -165 -4t-134 -8l-47 -4l-12 16l10 123q100 8 129 22.5t29 53.5q0 20 -11 67l-40 156q-53 2 -187 2q-80 0 -194 -14 l-52 -154q-12 -43 -12 -63q0 -35 20.5 -48.5t73.5 -13.5h88l9 -14l-15 -129q-168 12 -299 12zM336 1587l53 158l25 10q236 -117 456 -213l-26 -96l-29 -19q-233 74 -469 134zM459 586h143q66 0 152 8l-119 450h-29z" />
<glyph unicode="&#xc1;" horiz-adv-x="1280" d="M-25 -6l17 137q49 8 78.5 38t54.5 97l364 1039l326 32l23 -10q183 -711 292 -1057q23 -74 58 -104.5t102 -36.5l8 -14l-14 -121q-162 6 -252 6q-78 0 -165 -4t-134 -8l-47 -4l-12 16l10 123q100 8 129 22.5t29 53.5q0 20 -11 67l-40 156q-53 2 -187 2q-80 0 -194 -14 l-52 -154q-12 -43 -12 -63q0 -35 20.5 -48.5t73.5 -13.5h88l9 -14l-15 -129q-168 12 -299 12zM459 586h143q66 0 152 8l-119 450h-29zM471 1542l457 213l24 -10l54 -158l-13 -26q-236 -59 -469 -134l-26 19z" />
<glyph unicode="&#xc2;" horiz-adv-x="1280" d="M-25 -6l17 137q49 8 78.5 38t54.5 97l364 1039l326 32l23 -10q183 -711 292 -1057q23 -74 58 -104.5t102 -36.5l8 -14l-14 -121q-162 6 -252 6q-78 0 -165 -4t-134 -8l-47 -4l-12 16l10 123q100 8 129 22.5t29 53.5q0 20 -11 67l-40 156q-53 2 -187 2q-80 0 -194 -14 l-52 -154q-12 -43 -12 -63q0 -35 20.5 -48.5t73.5 -13.5h88l9 -14l-15 -129q-168 12 -299 12zM309 1540q68 49 149 112.5t127 102.5l46 39h41q0 2 46 -35t129 -103.5t146 -115.5l-49 -84l-33 -8q-102 51 -260 119q-98 -41 -258 -119l-33 8zM459 586h143q66 0 152 8l-119 450 h-29z" />
<glyph unicode="&#xc3;" horiz-adv-x="1280" d="M-25 -6l17 137q49 8 78.5 38t54.5 97l364 1039l326 32l23 -10q183 -711 292 -1057q23 -74 58 -104.5t102 -36.5l8 -14l-14 -121q-162 6 -252 6q-78 0 -165 -4t-134 -8l-47 -4l-12 16l10 123q100 8 129 22.5t29 53.5q0 20 -11 67l-40 156q-53 2 -187 2q-80 0 -194 -14 l-52 -154q-12 -43 -12 -63q0 -35 20.5 -48.5t73.5 -13.5h88l9 -14l-15 -129q-168 12 -299 12zM285 1483v22l159 197l35 8q35 0 156 -35t149 -35q23 0 55.5 27t55.5 53l23 27h22l82 -76v-20l-162 -199l-33 -8q-37 0 -157.5 34.5t-149.5 34.5q-23 0 -55.5 -26.5t-54.5 -52.5 l-23 -27h-22zM459 586h143q66 0 152 8l-119 450h-29z" />
<glyph unicode="&#xc4;" horiz-adv-x="1280" d="M-25 -6l17 137q49 8 78.5 38t54.5 97l364 1039l326 32l23 -10q183 -711 292 -1057q23 -74 58 -104.5t102 -36.5l8 -14l-14 -121q-162 6 -252 6q-78 0 -165 -4t-134 -8l-47 -4l-12 16l10 123q100 8 129 22.5t29 53.5q0 20 -11 67l-40 156q-53 2 -187 2q-80 0 -194 -14 l-52 -154q-12 -43 -12 -63q0 -35 20.5 -48.5t73.5 -13.5h88l9 -14l-15 -129q-168 12 -299 12zM338 1571q0 59 38 98t99 39q57 0 90 -34t33 -89q0 -61 -38 -100t-101 -39q-57 0 -89 33.5t-32 91.5zM459 586h143q66 0 152 8l-119 450h-29zM702 1571q0 59 38 98t102 39 q57 0 89 -34t32 -89q0 -61 -38.5 -100t-99.5 -39q-59 0 -91 33.5t-32 91.5z" />
<glyph unicode="&#xc5;" horiz-adv-x="1280" d="M-25 -6l17 137q49 8 78.5 38t54.5 97l364 1039l326 32l23 -10q183 -711 292 -1057q23 -74 58 -104.5t102 -36.5l8 -14l-14 -121q-162 6 -252 6q-78 0 -165 -4t-134 -8l-47 -4l-12 16l10 123q100 8 129 22.5t29 53.5q0 20 -11 67l-40 156q-53 2 -187 2q-80 0 -194 -14 l-52 -154q-12 -43 -12 -63q0 -35 20.5 -48.5t73.5 -13.5h88l9 -14l-15 -129q-168 12 -299 12zM459 586h143q66 0 152 8l-119 450h-29zM461 1575q0 84 54 139t142 55q92 0 137.5 -51t45.5 -127q0 -84 -54.5 -143t-144.5 -59q-86 0 -133 51t-47 135zM563 1583 q0 -43 28.5 -64.5t63.5 -21.5q82 0 82 74q0 39 -24.5 62.5t-69.5 23.5q-80 0 -80 -74z" />
<glyph unicode="&#xc6;" horiz-adv-x="1783" d="M-8 117q20 4 56 46t67 103l426 871q-8 45 -52 45l-63 -4l-12 18l16 125q227 -6 496 -6q483 0 655 24l16 -22q-37 -182 -47 -373l-186 -12q4 53 4 82q0 84 -45 106.5t-219 22.5q-70 0 -88.5 -10.5t-20.5 -45.5l54 -372l196 24l197 39l22 -20l-26 -172l-187 -15l-180 -20 l41 -252q12 -74 46 -106.5t97 -32.5q172 0 222.5 41t70.5 194l174 15l15 -21q-37 -184 -58 -381l-18 -22l-92 3q-92 3 -245 7t-265 4h-78l-326 -16l-10 16l8 123q104 8 137 27.5t33 70.5q0 27 -8 101l-24 188l-179 -23l-172 -32l-92 -199q-23 -51 -22 -76q0 -29 23.5 -39 t88.5 -10l68 -10l-12 -133q-2 2 -61.5 4t-142.5 5t-136 3l-152 -6zM516 649l133 8l127 17l-47 370h-31z" />
<glyph unicode="&#xc7;" horiz-adv-x="1263" d="M57 623q0 328 194.5 522t522.5 194q76 0 174.5 -12t157.5 -25l59 -14l13 -26q-41 -170 -54 -388l-202 -14q4 55 4 109q0 88 -54.5 130t-169.5 42q-326 0 -325 -449q0 -250 90 -387t250 -137q111 0 172 66.5t86 216.5l203 14q-35 -213 -41 -383l-21 -25q-170 -70 -395 -80 l-19 -67q55 -33 89 -54.5t71 -63.5t37 -81q0 -80 -83 -138t-189 -58q-57 0 -108.5 24.5t-51.5 63.5t76 129h18q2 -55 31 -85t76 -30q35 0 58.5 17.5t23.5 43.5q-1 54 -177 146l43 153q-262 16 -410.5 186.5t-148.5 459.5z" />
<glyph unicode="&#xc8;" horiz-adv-x="1222" d="M74 -20l16 139q84 12 116 50t32 126l2 776q0 68 -13.5 89.5t-54.5 21.5l-61 -4l-15 18l17 125q225 -6 379 -6q434 0 622 24l16 -22q-37 -182 -47 -373l-188 -12q4 53 4 82q0 84 -43 106.5t-215 22.5q-72 0 -89 -11.5t-20 -56.5l-14 -317q18 0 88 -1t103 -1l237 16l17 -18 l-29 -176q-164 6 -266 6q-51 0 -156 -13q-6 -223 -6 -286q0 -82 21.5 -102.5t109.5 -20.5q100 0 153.5 7t90.5 33.5t50 68.5t25 124l174 15l15 -21q-37 -184 -58 -381l-18 -22q-385 14 -639 14q-82 0 -171 -5t-137 -10zM307 1587l53 158l25 10q236 -117 457 -213l-27 -96 l-29 -19q-233 74 -469 134z" />
<glyph unicode="&#xc9;" horiz-adv-x="1222" d="M74 -20l16 139q84 12 116 50t32 126l2 776q0 68 -13.5 89.5t-54.5 21.5l-61 -4l-15 18l17 125q225 -6 379 -6q434 0 622 24l16 -22q-37 -182 -47 -373l-188 -12q4 53 4 82q0 84 -43 106.5t-215 22.5q-72 0 -89 -11.5t-20 -56.5l-14 -317q18 0 88 -1t103 -1l237 16l17 -18 l-29 -176q-164 6 -266 6q-51 0 -156 -13q-6 -223 -6 -286q0 -82 21.5 -102.5t109.5 -20.5q100 0 153.5 7t90.5 33.5t50 68.5t25 124l174 15l15 -21q-37 -184 -58 -381l-18 -22q-385 14 -639 14q-82 0 -171 -5t-137 -10zM473 1542l457 213l24 -10l54 -158l-13 -26 q-236 -59 -469 -134l-26 19z" />
<glyph unicode="&#xca;" horiz-adv-x="1222" d="M74 -20l16 139q84 12 116 50t32 126l2 776q0 68 -13.5 89.5t-54.5 21.5l-61 -4l-15 18l17 125q225 -6 379 -6q434 0 622 24l16 -22q-37 -182 -47 -373l-188 -12q4 53 4 82q0 84 -43 106.5t-215 22.5q-72 0 -89 -11.5t-20 -56.5l-14 -317q18 0 88 -1t103 -1l237 16l17 -18 l-29 -176q-164 6 -266 6q-51 0 -156 -13q-6 -223 -6 -286q0 -82 21.5 -102.5t109.5 -20.5q100 0 153.5 7t90.5 33.5t50 68.5t25 124l174 15l15 -21q-37 -184 -58 -381l-18 -22q-385 14 -639 14q-82 0 -171 -5t-137 -10zM311 1540q68 49 149 112.5t127 102.5l46 39h41 q0 2 46 -35t129 -103.5t146 -115.5l-49 -84l-33 -8q-102 51 -260 119q-98 -41 -258 -119l-33 8z" />
<glyph unicode="&#xcb;" horiz-adv-x="1222" d="M74 -20l16 139q84 12 116 50t32 126l2 776q0 68 -13.5 89.5t-54.5 21.5l-61 -4l-15 18l17 125q225 -6 379 -6q434 0 622 24l16 -22q-37 -182 -47 -373l-188 -12q4 53 4 82q0 84 -43 106.5t-215 22.5q-72 0 -89 -11.5t-20 -56.5l-14 -317q18 0 88 -1t103 -1l237 16l17 -18 l-29 -176q-164 6 -266 6q-51 0 -156 -13q-6 -223 -6 -286q0 -82 21.5 -102.5t109.5 -20.5q100 0 153.5 7t90.5 33.5t50 68.5t25 124l174 15l15 -21q-37 -184 -58 -381l-18 -22q-385 14 -639 14q-82 0 -171 -5t-137 -10zM338 1571q0 59 38 98t99 39q57 0 90 -34t33 -89 q0 -61 -38 -100t-101 -39q-57 0 -89 33.5t-32 91.5zM702 1571q0 59 38 98t102 39q57 0 89 -34t32 -89q0 -61 -38.5 -100t-99.5 -39q-59 0 -91 33.5t-32 91.5z" />
<glyph unicode="&#xcc;" horiz-adv-x="747" d="M37 1587l53 158l25 10q236 -117 456 -213l-26 -96l-29 -19q-233 74 -469 134zM74 -18l14 133q90 18 120 53t30 119l2 788q0 63 -14.5 85t-59.5 22l-72 -2l-10 16l14 121q20 0 126 -1t161 -1l291 14l-12 -137q-78 -10 -103 -32t-29 -79q-25 -424 -24 -809 q0 -84 15.5 -111.5t62.5 -27.5l88 6l10 -14l-18 -131q-213 6 -306 6q-51 0 -122.5 -4t-117.5 -9z" />
<glyph unicode="&#xcd;" horiz-adv-x="747" d="M74 -18l14 133q90 18 120 53t30 119l2 788q0 63 -14.5 85t-59.5 22l-72 -2l-10 16l14 121q20 0 126 -1t161 -1l291 14l-12 -137q-78 -10 -103 -32t-29 -79q-25 -424 -24 -809q0 -84 15.5 -111.5t62.5 -27.5l88 6l10 -14l-18 -131q-213 6 -306 6q-51 0 -122.5 -4 t-117.5 -9zM203 1542l456 213l25 -10l53 -158l-12 -26q-236 -59 -469 -134l-27 19z" />
<glyph unicode="&#xce;" horiz-adv-x="747" d="M39 1540q68 49 148.5 112.5t126.5 102.5l46 39h41q0 2 46.5 -35t129 -103.5t146.5 -115.5l-49 -84l-33 -8q-102 51 -260 119q-98 -41 -258 -119l-33 8zM74 -18l14 133q90 18 120 53t30 119l2 788q0 63 -14.5 85t-59.5 22l-72 -2l-10 16l14 121q20 0 126 -1t161 -1l291 14 l-12 -137q-78 -10 -103 -32t-29 -79q-25 -424 -24 -809q0 -84 15.5 -111.5t62.5 -27.5l88 6l10 -14l-18 -131q-213 6 -306 6q-51 0 -122.5 -4t-117.5 -9z" />
<glyph unicode="&#xcf;" horiz-adv-x="747" d="M68 1571q0 59 37.5 98t99.5 39q57 0 90 -34t33 -89q0 -61 -38.5 -100t-101.5 -39q-57 0 -88.5 33.5t-31.5 91.5zM74 -18l14 133q90 18 120 53t30 119l2 788q0 63 -14.5 85t-59.5 22l-72 -2l-10 16l14 121q20 0 126 -1t161 -1l291 14l-12 -137q-78 -10 -103 -32t-29 -79 q-25 -424 -24 -809q0 -84 15.5 -111.5t62.5 -27.5l88 6l10 -14l-18 -131q-213 6 -306 6q-51 0 -122.5 -4t-117.5 -9zM432 1571q0 59 38 98t101 39q57 0 89 -34t32 -89q0 -61 -38 -100t-99 -39q-59 0 -91 33.5t-32 91.5z" />
<glyph unicode="&#xd0;" horiz-adv-x="1452" d="M16 600l21 123h233v346q0 66 -12 88.5t-51 22.5l-68 -4l-12 18l16 127q180 -6 263 -6l323 10q309 0 486.5 -164t177.5 -450q0 -324 -200 -530t-511 -206q-195 25 -311 25q-47 0 -112.5 -5t-107.5 -10l-42 -5l14 139q92 16 119.5 56t27.5 157v254h-237zM537 299 q0 -88 33.5 -116.5t136.5 -28.5q362 0 362 493q0 260 -109.5 380t-338.5 120q-33 0 -45.5 -10t-14.5 -39l-16 -375l256 4l12 -18l-12 -123h-260z" />
<glyph unicode="&#xd1;" horiz-adv-x="1492" d="M70 1206l14 119q137 -10 238 -10l196 8q119 -193 255 -403.5t214 -324.5l78 -114h20l-4 613q-2 88 -67 88q-16 0 -42 -1t-28 -1l-8 16l14 127q174 -8 264 -8l242 10l-10 -137q-68 -10 -97.5 -39t-31.5 -90l-27 -1088l-217 -26q-141 225 -289.5 452.5t-227.5 341.5 l-79 115h-20l-2 -631q0 -51 15 -71.5t54 -20.5l88 6l13 -14l-21 -131q-176 8 -264 8q-49 0 -112.5 -4t-101.5 -8l-38 -4l16 137q119 14 121 129l27 809q0 66 -33 91.5t-133 35.5zM408 1483v22l159 197l35 8q35 0 156 -35t149 -35q23 0 55.5 27t55.5 53l22 27h23l82 -76v-20 l-162 -199l-33 -8q-37 0 -157.5 34.5t-149.5 34.5q-23 0 -55.5 -26.5t-55.5 -52.5l-22 -27h-23z" />
<glyph unicode="&#xd2;" horiz-adv-x="1380" d="M57 623q0 324 184.5 520t487.5 196q279 0 436.5 -170t157.5 -471q0 -326 -186.5 -524.5t-491.5 -198.5q-272 0 -430 174.5t-158 473.5zM340 1587l53 158l25 10q236 -117 456 -213l-26 -96l-29 -19q-233 74 -469 134zM375 705q0 -268 83.5 -409.5t237.5 -141.5 q145 0 226.5 113.5t81.5 322.5q0 270 -86.5 410.5t-245.5 140.5q-141 0 -219 -114t-78 -322z" />
<glyph unicode="&#xd3;" horiz-adv-x="1380" d="M57 623q0 324 184.5 520t487.5 196q279 0 436.5 -170t157.5 -471q0 -326 -186.5 -524.5t-491.5 -198.5q-272 0 -430 174.5t-158 473.5zM375 705q0 -268 83.5 -409.5t237.5 -141.5q145 0 226.5 113.5t81.5 322.5q0 270 -86.5 410.5t-245.5 140.5q-141 0 -219 -114 t-78 -322zM506 1542l457 213l24 -10l53 -158l-12 -26q-236 -59 -469 -134l-27 19z" />
<glyph unicode="&#xd4;" horiz-adv-x="1380" d="M57 623q0 324 184.5 520t487.5 196q279 0 436.5 -170t157.5 -471q0 -326 -186.5 -524.5t-491.5 -198.5q-272 0 -430 174.5t-158 473.5zM342 1540q68 49 148.5 112.5t126.5 102.5l47 39h41q0 2 46 -35t129 -103.5t146 -115.5l-49 -84l-33 -8q-102 51 -260 119 q-98 -41 -258 -119l-33 8zM375 705q0 -268 83.5 -409.5t237.5 -141.5q145 0 226.5 113.5t81.5 322.5q0 270 -86.5 410.5t-245.5 140.5q-141 0 -219 -114t-78 -322z" />
<glyph unicode="&#xd5;" horiz-adv-x="1380" d="M57 623q0 324 184.5 520t487.5 196q279 0 436.5 -170t157.5 -471q0 -326 -186.5 -524.5t-491.5 -198.5q-272 0 -430 174.5t-158 473.5zM317 1483v22l160 197l35 8q35 0 155.5 -35t149.5 -35q23 0 55.5 27t55.5 53l22 27h23l82 -76v-20l-162 -199l-33 -8 q-37 0 -157.5 34.5t-149.5 34.5q-23 0 -55.5 -26.5t-55.5 -52.5l-22 -27h-23zM375 705q0 -268 83.5 -409.5t237.5 -141.5q145 0 226.5 113.5t81.5 322.5q0 270 -86.5 410.5t-245.5 140.5q-141 0 -219 -114t-78 -322z" />
<glyph unicode="&#xd6;" horiz-adv-x="1380" d="M57 623q0 324 184.5 520t487.5 196q279 0 436.5 -170t157.5 -471q0 -326 -186.5 -524.5t-491.5 -198.5q-272 0 -430 174.5t-158 473.5zM371 1571q0 59 37.5 98t99.5 39q57 0 90 -34t33 -89q0 -61 -38 -100t-101 -39q-57 0 -89 33.5t-32 91.5zM375 705q0 -268 83.5 -409.5 t237.5 -141.5q145 0 226.5 113.5t81.5 322.5q0 270 -86.5 410.5t-245.5 140.5q-141 0 -219 -114t-78 -322zM735 1571q0 59 38 98t101 39q57 0 89 -34t32 -89q0 -61 -38 -100t-99 -39q-59 0 -91 33.5t-32 91.5z" />
<glyph unicode="&#xd7;" horiz-adv-x="1036" d="M106 770l7 29l151 108q135 -139 254 -256l258 275l25 -11l117 -143l-261 -262l269 -250l-11 -27l-147 -118l-254 252l-252 -256l-29 6l-104 147q129 127 244 242z" />
<glyph unicode="&#xd8;" horiz-adv-x="1380" d="M57 623q0 324 184.5 520t487.5 196q135 0 244 -43l121 197l127 -59l6 -27l-117 -186q213 -168 213 -523q0 -326 -186.5 -524.5t-491.5 -198.5q-127 0 -244 43l-143 -237l-123 59l-6 21l141 235q-213 172 -213 527zM375 705q0 -211 53 -347l418 723q-72 59 -174 60 q-141 0 -219 -113.5t-78 -322.5zM520 219q72 -65 176 -65q145 0 226.5 113.5t81.5 322.5q0 219 -60 356z" />
<glyph unicode="&#xd9;" horiz-adv-x="1341" d="M37 1186l18 135q176 -6 293 -6l244 12l-14 -139q-63 -8 -87 -30.5t-28 -78.5l-14 -596q0 -154 65.5 -237.5t187.5 -83.5q250 0 250 266l-8 643q-2 68 -14 89.5t-51 21.5l-68 -4l-4 8l16 135q162 -6 240 -6l244 12l-13 -137q-76 -16 -97 -34.5t-21 -68.5v-636 q0 -231 -136.5 -353.5t-392.5 -122.5q-475 0 -475 443v653q0 68 -12.5 89.5t-53.5 21.5l-65 -4zM352 1587l54 158l24 10q236 -117 457 -213l-27 -96l-29 -19q-233 74 -469 134z" />
<glyph unicode="&#xda;" horiz-adv-x="1341" d="M37 1186l18 135q176 -6 293 -6l244 12l-14 -139q-63 -8 -87 -30.5t-28 -78.5l-14 -596q0 -154 65.5 -237.5t187.5 -83.5q250 0 250 266l-8 643q-2 68 -14 89.5t-51 21.5l-68 -4l-4 8l16 135q162 -6 240 -6l244 12l-13 -137q-76 -16 -97 -34.5t-21 -68.5v-636 q0 -231 -136.5 -353.5t-392.5 -122.5q-475 0 -475 443v653q0 68 -12.5 89.5t-53.5 21.5l-65 -4zM518 1542l457 213l24 -10l54 -158l-13 -26q-236 -59 -469 -134l-26 19z" />
<glyph unicode="&#xdb;" horiz-adv-x="1341" d="M37 1186l18 135q176 -6 293 -6l244 12l-14 -139q-63 -8 -87 -30.5t-28 -78.5l-14 -596q0 -154 65.5 -237.5t187.5 -83.5q250 0 250 266l-8 643q-2 68 -14 89.5t-51 21.5l-68 -4l-4 8l16 135q162 -6 240 -6l244 12l-13 -137q-76 -16 -97 -34.5t-21 -68.5v-636 q0 -231 -136.5 -353.5t-392.5 -122.5q-475 0 -475 443v653q0 68 -12.5 89.5t-53.5 21.5l-65 -4zM356 1540q68 49 149 112.5t127 102.5l46 39h41q0 2 46 -35t129 -103.5t146 -115.5l-49 -84l-33 -8q-102 51 -260 119q-98 -41 -258 -119l-32 8z" />
<glyph unicode="&#xdc;" horiz-adv-x="1341" d="M37 1186l18 135q176 -6 293 -6l244 12l-14 -139q-63 -8 -87 -30.5t-28 -78.5l-14 -596q0 -154 65.5 -237.5t187.5 -83.5q250 0 250 266l-8 643q-2 68 -14 89.5t-51 21.5l-68 -4l-4 8l16 135q162 -6 240 -6l244 12l-13 -137q-76 -16 -97 -34.5t-21 -68.5v-636 q0 -231 -136.5 -353.5t-392.5 -122.5q-475 0 -475 443v653q0 68 -12.5 89.5t-53.5 21.5l-65 -4zM383 1571q0 59 38 98t99 39q57 0 90 -34t33 -89q0 -61 -38 -100t-101 -39q-57 0 -89 33.5t-32 91.5zM748 1571q0 59 37.5 98t101.5 39q57 0 89 -34t32 -89q0 -61 -38.5 -100 t-99.5 -39q-59 0 -90.5 33.5t-31.5 91.5z" />
<glyph unicode="&#xdd;" horiz-adv-x="1224" d="M-20 1188l16 131q182 -6 264 -6l328 16l10 -18l-10 -119q-70 -2 -96.5 -16.5t-26.5 -45.5q0 -20 37 -110t86 -198.5t51 -112.5h20l162 338q29 57 29 98t-105 47l-4 10l15 119q20 0 121.5 -4t150.5 -4l209 8l8 -14l-14 -125q-80 -27 -129 -81t-119 -181l-197 -367 q-35 -68 -36 -252v-31q-2 -76 18 -104.5t78 -28.5l102 6l6 -10l-18 -141q-236 8 -338 8l-319 -23l14 142q117 14 150.5 51t33.5 141v62q0 96 -59 209l-201 391q-49 98 -95 142t-136 63zM483 1542l457 213l25 -10l53 -158l-12 -26q-236 -59 -469 -134l-27 19z" />
<glyph unicode="&#xde;" horiz-adv-x="1173" d="M74 -18l14 133q90 18 120 52t30 120l2 788q0 63 -14.5 85t-59.5 22l-72 -2l-10 16l14 121q20 0 126 -1t161 -1l291 14l-12 -137q-80 -12 -104 -29.5t-28 -64.5q0 -8 -1 -19.5t-2 -17.5t-1 -12h156q465 0 465 -361q0 -168 -143.5 -280.5t-352.5 -112.5h-145v-62 q0 -61 15.5 -80.5t62.5 -19.5l98 6l8 -14l-18 -131q-219 6 -314 6q-51 0 -122.5 -4t-117.5 -9zM510 475q102 -29 170 -29q178 29 178 222q0 113 -69.5 164t-221.5 51q-27 0 -36 -6.5t-11 -22.5q-10 -250 -10 -379z" />
<glyph unicode="&#xdf;" horiz-adv-x="1308" d="M49 803l17 106l124 21q0 279 136.5 434.5t380.5 155.5q168 0 276.5 -82t108.5 -207q0 -70 -36 -132.5t-79 -100t-79 -88t-36 -95.5t45 -85t109.5 -74.5t129 -75.5t109.5 -107.5t45 -153.5q0 -145 -117.5 -244.5t-291.5 -99.5q-104 0 -182.5 35t-90.5 86q2 43 30 115 t59 111l41 -3q4 -82 51 -131t123 -49q51 0 85.5 36t34.5 89q0 51 -44 93t-107.5 77t-127 74t-107.5 101.5t-44 144.5q0 63 37 122.5t80 98.5t80 90t37 98q0 78 -56.5 124t-150.5 46q-106 0 -151.5 -72.5t-45.5 -244.5l-8 -785q-4 -94 68 -94l76 2l6 -8l-19 -137 q-158 6 -231 6q-45 0 -111.5 -3t-113 -5t-46.5 -4l15 127q66 8 89 35.5t23 95.5v463q-4 47 -29.5 63t-103.5 19z" />
<glyph unicode="&#xe0;" horiz-adv-x="980" d="M55 283q0 63 33 110t86 60l393 92l2 47q0 88 -46 136t-128 48q-53 0 -113.5 -23.5t-93.5 -47.5l-32 -25l-19 10l-37 123q281 158 379 158q172 0 257 -77t85 -204q0 -33 -20.5 -203t-20.5 -217q0 -37 20.5 -59.5t53.5 -22.5l96 35l33 -43q-10 -20 -29.5 -50t-73 -86 t-96.5 -69q-188 0 -206 158l-17 6q-156 -156 -225 -155q-119 0 -200 86t-81 213zM188 1364l111 143l27 2q176 -184 344 -348l-62 -80l-30 -8q-84 63 -181.5 129t-151.5 100l-55 33zM301 307q0 -55 32 -90t81 -35q65 1 145 58l4 192l-215 -59q-47 -14 -47 -66z" />
<glyph unicode="&#xe1;" horiz-adv-x="980" d="M55 283q0 63 33 110t86 60l393 92l2 47q0 88 -46 136t-128 48q-53 0 -113.5 -23.5t-93.5 -47.5l-32 -25l-19 10l-37 123q281 158 379 158q172 0 257 -77t85 -204q0 -33 -20.5 -203t-20.5 -217q0 -37 20.5 -59.5t53.5 -22.5l96 35l33 -43q-10 -20 -29.5 -50t-73 -86 t-96.5 -69q-188 0 -206 158l-17 6q-156 -156 -225 -155q-119 0 -200 86t-81 213zM295 1161q74 74 160 161t134 138l48 51l29 -2l110 -143l-2 -29q-197 -123 -387 -264l-31 8zM301 307q0 -55 32 -90t81 -35q65 1 145 58l4 192l-215 -59q-47 -14 -47 -66z" />
<glyph unicode="&#xe2;" horiz-adv-x="980" d="M55 283q0 63 33 110t86 60l393 92l2 47q0 88 -46 136t-128 48q-53 0 -113.5 -23.5t-93.5 -47.5l-32 -25l-19 10l-37 123q281 158 379 158q172 0 257 -77t85 -204q0 -33 -20.5 -203t-20.5 -217q0 -37 20.5 -59.5t53.5 -22.5l96 35l33 -43q-10 -20 -29.5 -50t-73 -86 t-96.5 -69q-188 0 -206 158l-17 6q-156 -156 -225 -155q-119 0 -200 86t-81 213zM137 1180q145 139 312 315h40q164 -176 310 -315l-60 -84l-30 -9q-41 33 -240 170q-145 -94 -240 -170l-32 9zM301 307q0 -55 32 -90t81 -35q65 1 145 58l4 192l-215 -59q-47 -14 -47 -66z " />
<glyph unicode="&#xe3;" horiz-adv-x="980" d="M55 283q0 63 33 110t86 60l393 92l2 47q0 88 -46 136t-128 48q-53 0 -113.5 -23.5t-93.5 -47.5l-32 -25l-19 10l-37 123q281 158 379 158q172 0 257 -77t85 -204q0 -33 -20.5 -203t-20.5 -217q0 -37 20.5 -59.5t53.5 -22.5l96 35l33 -43q-10 -20 -29.5 -50t-73 -86 t-96.5 -69q-188 0 -206 158l-17 6q-156 -156 -225 -155q-119 0 -200 86t-81 213zM92 1180v22l162 207l33 8q37 0 157.5 -33.5t149.5 -33.5q20 0 54 28.5t57 57.5l22 28h23l79 -75v-21l-159 -209l-35 -8q-35 0 -156 35t-149 35q-23 0 -56.5 -29t-55.5 -57l-21 -29h-23z M301 307q0 -55 32 -90t81 -35q65 1 145 58l4 192l-215 -59q-47 -14 -47 -66z" />
<glyph unicode="&#xe4;" horiz-adv-x="980" d="M55 283q0 63 33 110t86 60l393 92l2 47q0 88 -46 136t-128 48q-53 0 -113.5 -23.5t-93.5 -47.5l-32 -25l-19 10l-37 123q281 158 379 158q172 0 257 -77t85 -204q0 -33 -20.5 -203t-20.5 -217q0 -37 20.5 -59.5t53.5 -22.5l96 35l33 -43q-10 -20 -29.5 -50t-73 -86 t-96.5 -69q-188 0 -206 158l-17 6q-156 -156 -225 -155q-119 0 -200 86t-81 213zM152 1278q0 61 37.5 100t99.5 39q57 0 90 -34.5t33 -90.5q0 -59 -38.5 -98t-101.5 -39q-57 0 -88.5 34t-31.5 89zM301 307q0 -55 32 -90t81 -35q65 1 145 58l4 192l-215 -59q-47 -14 -47 -66z M516 1278q0 61 38 100t101 39q57 0 89 -33.5t32 -91.5q0 -59 -38 -98t-99 -39q-59 0 -91 34t-32 89z" />
<glyph unicode="&#xe5;" horiz-adv-x="980" d="M55 283q0 63 33 110t86 60l393 92l2 47q0 88 -46 136t-128 48q-53 0 -113.5 -23.5t-93.5 -47.5l-32 -25l-19 10l-37 123q281 158 379 158q172 0 257 -77t85 -204q0 -33 -20.5 -203t-20.5 -217q0 -37 20.5 -59.5t53.5 -22.5l96 35l33 -43q-10 -20 -29.5 -50t-73 -86 t-96.5 -69q-188 0 -206 158l-17 6q-156 -156 -225 -155q-119 0 -200 86t-81 213zM279 1300.5q0 83.5 54 139t142 55.5q92 0 137 -51t45 -125q0 -84 -53 -144.5t-145 -60.5q-86 0 -133 51.5t-47 135zM301 307q0 -55 32 -90t81 -35q65 1 145 58l4 192l-215 -59 q-47 -14 -47 -66zM381 1311q0 -45 28.5 -66.5t63.5 -21.5q82 0 82 75q0 84 -94 84q-80 0 -80 -71z" />
<glyph unicode="&#xe6;" horiz-adv-x="1372" d="M37 279q0 68 37 116.5t96 61.5l371 78l2 63q0 86 -45 133t-127 47q-53 0 -114.5 -24.5t-95.5 -48.5l-34 -25l-18 10l-37 123q283 158 379 158q172 0 254 -133q121 133 307 133q147 0 231 -91.5t84 -252.5l-4 -60l-20 -24l-525 -90q14 -135 82 -208t182 -73q57 0 119 16.5 t94 32.5l33 17l17 -7l32 -104q-23 -16 -59.5 -42t-126.5 -68t-154 -42q-281 0 -391 201q-186 -176 -287 -192q-121 0 -201.5 85t-80.5 210zM281 301q0 -53 31.5 -88t78.5 -35q74 0 176 84q-26 76 -26 164l-201 -53q-59 -12 -59 -72zM772 561l262 66q35 10 35 30 q0 63 -32.5 102.5t-84.5 39.5q-82 0 -130 -54.5t-50 -146.5v-37z" />
<glyph unicode="&#xe7;" horiz-adv-x="884" d="M51 449q0 229 140.5 375.5t359.5 146.5q68 0 133.5 -10.5t95.5 -21.5l31 -11l8 -19q-35 -145 -45 -317l-133 -8v67q0 145 -127 146q-190 0 -190 -271q0 -168 57 -256t166 -88q112 0 217 60l16 -6l33 -107q-152 -125 -270 -149l-21 -70q55 -33 89 -54.5t71 -63.5t37 -81 q0 -80 -83 -138t-190 -58q-57 0 -108 24.5t-51 63.5t75 129h19q2 -55 30.5 -85t75.5 -30q35 0 58.5 17.5t23.5 43.5q0 54 -176 146l43 156q-182 20 -283.5 144t-101.5 325z" />
<glyph unicode="&#xe8;" horiz-adv-x="948" d="M51 449q0 223 139.5 372.5t348.5 149.5q344 0 344 -353q0 -27 -3 -55t-8 -45l-4 -16l-24 -23h-527v-18q6 -135 74 -210t182 -75q57 0 119 15.5t94 30.5l33 16l17 -7l32 -104q-23 -16 -60.5 -42t-131.5 -68t-160 -42q-217 0 -341 127t-124 347zM233 1362l111 143l27 2 q176 -184 344 -348l-62 -80l-30 -8q-84 63 -181.5 129t-151.5 99l-54 34zM317 594l275 14q23 4 31 12.5t8 34.5q0 152 -129 152q-80 0 -128.5 -54.5t-56.5 -158.5z" />
<glyph unicode="&#xe9;" horiz-adv-x="948" d="M51 449q0 223 139.5 372.5t348.5 149.5q344 0 344 -353q0 -27 -3 -55t-8 -45l-4 -16l-24 -23h-527v-18q6 -135 74 -210t182 -75q57 0 119 15.5t94 30.5l33 16l17 -7l32 -104q-23 -16 -60.5 -42t-131.5 -68t-160 -42q-217 0 -341 127t-124 347zM317 594l275 14 q23 4 31 12.5t8 34.5q0 152 -129 152q-80 0 -128.5 -54.5t-56.5 -158.5zM340 1159q74 74 160 161t134 138l48 51l29 -2l110 -143l-2 -29q-197 -123 -387 -264l-31 8z" />
<glyph unicode="&#xea;" horiz-adv-x="948" d="M51 449q0 223 139.5 372.5t348.5 149.5q344 0 344 -353q0 -27 -3 -55t-8 -45l-4 -16l-24 -23h-527v-18q6 -135 74 -210t182 -75q57 0 119 15.5t94 30.5l33 16l17 -7l32 -104q-23 -16 -60.5 -42t-131.5 -68t-160 -42q-217 0 -341 127t-124 347zM182 1180q145 139 312 315 h41q164 -176 309 -315l-60 -84l-30 -9q-41 33 -240 170q-145 -94 -240 -170l-32 9zM317 594l275 14q23 4 31 12.5t8 34.5q0 152 -129 152q-80 0 -128.5 -54.5t-56.5 -158.5z" />
<glyph unicode="&#xeb;" horiz-adv-x="948" d="M51 449q0 223 139.5 372.5t348.5 149.5q344 0 344 -353q0 -27 -3 -55t-8 -45l-4 -16l-24 -23h-527v-18q6 -135 74 -210t182 -75q57 0 119 15.5t94 30.5l33 16l17 -7l32 -104q-23 -16 -60.5 -42t-131.5 -68t-160 -42q-217 0 -341 127t-124 347zM197 1276q0 61 37.5 100 t99.5 39q57 0 90 -34.5t33 -90.5q0 -61 -38.5 -99t-101.5 -38q-57 0 -88.5 34t-31.5 89zM317 594l275 14q23 4 31 12.5t8 34.5q0 152 -129 152q-80 0 -128.5 -54.5t-56.5 -158.5zM561 1276q0 61 38 100t101 39q57 0 89 -33.5t32 -91.5q0 -59 -38 -98t-99 -39q-59 0 -91 34 t-32 89z" />
<glyph unicode="&#xec;" horiz-adv-x="600" d="M23 1362l110 143l27 2q176 -184 344 -348l-62 -80l-30 -8q-84 63 -181.5 129t-151.5 99l-54 34zM51 782l12 121q84 10 182.5 27.5t154.5 28.5l57 12l18 -35q-49 -102 -49 -719q0 -90 63 -90l60 4l4 -8l-21 -129q-141 6 -227 6q-45 0 -108.5 -6t-103.5 -11l-40 -6l17 132 q117 20 116 127v438q0 63 -19.5 88.5t-68.5 25.5z" />
<glyph unicode="&#xed;" horiz-adv-x="600" d="M51 782l12 121q84 10 182.5 27.5t154.5 28.5l57 12l18 -35q-49 -102 -49 -719q0 -90 63 -90l60 4l4 -8l-21 -129q-141 6 -227 6q-45 0 -108.5 -6t-103.5 -11l-40 -6l17 132q117 20 116 127v438q0 63 -19.5 88.5t-68.5 25.5zM137 1159q74 74 160 161t134 138l48 51l29 -2 l110 -143l-2 -29q-197 -123 -387 -264l-30 8z" />
<glyph unicode="&#xee;" horiz-adv-x="600" d="M-16 1178q145 139 311 315h41q164 -176 309 -315l-59 -84l-31 -9q-41 33 -240 170q-145 -94 -239 -170l-33 9zM51 782l12 121q84 10 182.5 27.5t154.5 28.5l57 12l18 -35q-49 -102 -49 -719q0 -90 63 -90l60 4l4 -8l-21 -129q-141 6 -227 6q-45 0 -108.5 -6t-103.5 -11 l-40 -6l17 132q117 20 116 127v438q0 63 -19.5 88.5t-68.5 25.5z" />
<glyph unicode="&#xef;" horiz-adv-x="600" d="M-4 1276q0 61 38 100t99 39q57 0 90 -34.5t33 -90.5q0 -61 -38 -99t-101 -38q-57 0 -89 34t-32 89zM51 782l12 121q84 10 182.5 27.5t154.5 28.5l57 12l18 -35q-49 -102 -49 -719q0 -90 63 -90l60 4l4 -8l-21 -129q-141 6 -227 6q-45 0 -108.5 -6t-103.5 -11l-40 -6 l17 132q117 20 116 127v438q0 63 -19.5 88.5t-68.5 25.5zM360 1276q0 61 38 100t102 39q57 0 89 -33.5t32 -91.5q0 -59 -38.5 -98t-99.5 -39q-59 0 -91 34t-32 89z" />
<glyph unicode="&#xf0;" horiz-adv-x="1040" d="M59 430q0 219 120 368.5t296 149.5q31 -6 119 -49l6 10q-61 125 -158 217l-264 -131l-18 6l-35 125l203 101q-108 89 -252 166l65 114l27 11q195 -84 346 -195l289 143l18 -10l35 -121l-219 -108q344 -315 344 -715q0 -240 -133 -388.5t-348 -148.5q-203 0 -322 123 t-119 332zM332 477q0 -168 55 -256t158 -88q160 0 160 285q0 162 -31 297q-63 53 -159.5 53t-139.5 -66.5t-43 -224.5z" />
<glyph unicode="&#xf1;" horiz-adv-x="1167" d="M49 795l12 108l381 68l17 -21q-18 -72 -23 -141l8 -8q195 170 265 170q145 0 227 -71t82 -195q0 -37 -18.5 -233t-18.5 -249t14.5 -74.5t48.5 -21.5l62 2l4 -8l-18 -127q-145 6 -224 6l-229 -16l12 129q92 23 94 114l7 351q0 178 -131 178q-70 0 -177 -76 q-20 -373 -20 -459q0 -51 13.5 -71.5t47.5 -20.5l54 4l6 -10l-23 -129q-135 6 -217 6l-244 -12l17 131q59 6 82.5 30.5t23.5 81.5v431q0 72 -21.5 97t-78.5 25h-27zM240 1178v22l161 207l33 8q37 0 158 -33.5t149 -33.5q20 0 54 28.5t57 57.5l22 28h23l80 -76v-20l-160 -209 l-35 -8q-35 0 -155.5 35t-149.5 35q-23 0 -56.5 -29t-54.5 -57l-22 -29h-22z" />
<glyph unicode="&#xf2;" horiz-adv-x="1030" d="M51 444q0 236 137.5 381.5t358.5 145.5q199 0 315.5 -126t116.5 -343q0 -236 -136.5 -381.5t-357.5 -145.5q-197 0 -315.5 128t-118.5 341zM250 1362l110 143l27 2q176 -184 344 -348l-61 -80l-31 -8q-84 63 -181.5 129t-151.5 99l-54 34zM324 520q-1 -387 202 -387 q176 0 176 275q0 387 -202 387q-176 0 -176 -275z" />
<glyph unicode="&#xf3;" horiz-adv-x="1030" d="M51 444q0 236 137.5 381.5t358.5 145.5q199 0 315.5 -126t116.5 -343q0 -236 -136.5 -381.5t-357.5 -145.5q-197 0 -315.5 128t-118.5 341zM324 520q-1 -387 202 -387q176 0 176 275q0 387 -202 387q-176 0 -176 -275zM358 1159q74 74 160 161t134 138l48 51l29 -2 l111 -143l-2 -29q-197 -123 -387 -264l-31 8z" />
<glyph unicode="&#xf4;" horiz-adv-x="1030" d="M51 444q0 236 137.5 381.5t358.5 145.5q199 0 315.5 -126t116.5 -343q0 -236 -136.5 -381.5t-357.5 -145.5q-197 0 -315.5 128t-118.5 341zM201 1180q145 139 311 315h41q164 -176 309 -315l-59 -84l-31 -9q-41 33 -240 170q-145 -94 -239 -170l-33 9zM324 520 q-1 -387 202 -387q176 0 176 275q0 387 -202 387q-176 0 -176 -275z" />
<glyph unicode="&#xf5;" horiz-adv-x="1030" d="M51 444q0 236 137.5 381.5t358.5 145.5q199 0 315.5 -126t116.5 -343q0 -236 -136.5 -381.5t-357.5 -145.5q-197 0 -315.5 128t-118.5 341zM156 1178v22l161 207l33 8q37 0 158 -33.5t149 -33.5q20 0 54 28.5t57 57.5l23 28h22l80 -76v-20l-160 -209l-35 -8 q-35 0 -155.5 35t-149.5 35q-23 0 -56.5 -29t-54.5 -57l-22 -29h-22zM324 520q-1 -387 202 -387q176 0 176 275q0 387 -202 387q-176 0 -176 -275z" />
<glyph unicode="&#xf6;" horiz-adv-x="1030" d="M51 444q0 236 137.5 381.5t358.5 145.5q199 0 315.5 -126t116.5 -343q0 -236 -136.5 -381.5t-357.5 -145.5q-197 0 -315.5 128t-118.5 341zM215 1276q0 61 38 100t99 39q57 0 90 -34.5t33 -90.5q0 -61 -39 -99t-100 -38q-57 0 -89 34t-32 89zM324 520q-1 -387 202 -387 q176 0 176 275q0 387 -202 387q-176 0 -176 -275zM580 1276q0 61 37.5 100t101.5 39q57 0 89 -33.5t32 -91.5q0 -59 -38.5 -98t-99.5 -39q-59 0 -90.5 34t-31.5 89z" />
<glyph unicode="&#xf7;" horiz-adv-x="1036" d="M35 444l28 185q297 -2 480 -2l444 12l14 -25l-20 -188l-465 -2l-467 -2zM362 154q0 70 42 112.5t112 42.5q66 0 102.5 -39t36.5 -102q0 -68 -41.5 -111t-111.5 -43q-68 0 -104 39t-36 101zM362 881q0 70 42 112.5t112 42.5q66 0 102.5 -39t36.5 -102q0 -68 -41.5 -111 t-111.5 -43q-68 0 -104 39t-36 101z" />
<glyph unicode="&#xf8;" horiz-adv-x="1030" d="M49 -160l146 240q-143 127 -144 364q0 236 137.5 381.5t358.5 145.5q76 0 155 -25l138 225l125 -61l6 -25l-133 -217q141 -129 141 -366q0 -236 -136 -381.5t-358 -145.5q-82 0 -161 27l-148 -242l-121 60zM324 520q0 -113 18 -192l254 436q-43 31 -96 31 q-176 -1 -176 -275zM424 168q41 -35 102 -35q176 0 176 275q0 123 -20 198z" />
<glyph unicode="&#xf9;" horiz-adv-x="1120" d="M31 782l12 121l375 68l20 -35q-23 -49 -39 -222t-16 -356q0 -166 127 -165q57 0 174 75v418q0 59 -17.5 78.5t-70.5 21.5q-6 0 -21 -1l-14 -1l17 119l383 64l20 -35q-23 -47 -39 -238.5t-16 -421.5q0 -84 71 -84l97 35l32 -43q-12 -20 -34.5 -51t-79 -87t-101.5 -67 q-186 0 -209 158l-16 8q-174 -164 -227 -164q-158 0 -240 67t-82 192l15 452q0 100 -68 100zM264 1362l111 143l26 2q176 -184 344 -348l-61 -80l-31 -8q-84 63 -181 129t-151 99l-55 34z" />
<glyph unicode="&#xfa;" horiz-adv-x="1120" d="M31 782l12 121l375 68l20 -35q-23 -49 -39 -222t-16 -356q0 -166 127 -165q57 0 174 75v418q0 59 -17.5 78.5t-70.5 21.5q-6 0 -21 -1l-14 -1l17 119l383 64l20 -35q-23 -47 -39 -238.5t-16 -421.5q0 -84 71 -84l97 35l32 -43q-12 -20 -34.5 -51t-79 -87t-101.5 -67 q-186 0 -209 158l-16 8q-174 -164 -227 -164q-158 0 -240 67t-82 192l15 452q0 100 -68 100zM371 1159q74 74 159.5 161t134.5 138l48 51l28 -2l111 -143l-2 -29q-197 -123 -387 -264l-31 8z" />
<glyph unicode="&#xfb;" horiz-adv-x="1120" d="M31 782l12 121l375 68l20 -35q-23 -49 -39 -222t-16 -356q0 -166 127 -165q57 0 174 75v418q0 59 -17.5 78.5t-70.5 21.5q-6 0 -21 -1l-14 -1l17 119l383 64l20 -35q-23 -47 -39 -238.5t-16 -421.5q0 -84 71 -84l97 35l32 -43q-12 -20 -34.5 -51t-79 -87t-101.5 -67 q-186 0 -209 158l-16 8q-174 -164 -227 -164q-158 0 -240 67t-82 192l15 452q0 100 -68 100zM213 1180q145 139 311 315h41q164 -176 309 -315l-59 -84l-31 -9q-41 33 -239 170q-145 -94 -240 -170l-33 9z" />
<glyph unicode="&#xfc;" horiz-adv-x="1120" d="M31 782l12 121l375 68l20 -35q-23 -49 -39 -222t-16 -356q0 -166 127 -165q57 0 174 75v418q0 59 -17.5 78.5t-70.5 21.5q-6 0 -21 -1l-14 -1l17 119l383 64l20 -35q-23 -47 -39 -238.5t-16 -421.5q0 -84 71 -84l97 35l32 -43q-12 -20 -34.5 -51t-79 -87t-101.5 -67 q-186 0 -209 158l-16 8q-174 -164 -227 -164q-158 0 -240 67t-82 192l15 452q0 100 -68 100zM227 1276q0 61 38 100t100 39q57 0 89.5 -34.5t32.5 -90.5q0 -61 -39 -99t-100 -38q-57 0 -89 34t-32 89zM592 1276q0 61 38 100t101 39q57 0 89 -33.5t32 -91.5q0 -59 -38 -98 t-99 -39q-59 0 -91 34t-32 89z" />
<glyph unicode="&#xfd;" horiz-adv-x="952" d="M-47 -328l16 27q270 23 412 283q-188 530 -283 749q-43 86 -123 88l-4 10l15 117h159q63 0 140 3t125.5 6t48.5 6l4 -11l-19 -121q-57 -2 -77.5 -13t-20.5 -36q0 -29 35 -156.5t70 -240.5l34 -113h23q184 475 184 510q0 25 -12 34t-47 9h-66l-6 11l17 118q125 -6 217 -6 h190l-16 -125q-45 -10 -65.5 -29.5t-39.5 -70.5l-262 -633q-131 -315 -244.5 -449.5t-248.5 -132.5q-29 0 -92.5 67t-63.5 99zM340 1159q74 74 160 161t134 138l48 51l29 -2l110 -143l-2 -29q-197 -123 -387 -264l-31 8z" />
<glyph unicode="&#xfe;" horiz-adv-x="1050" d="M0 1360l8 94l422 66l14 -39q-37 -47 -53 -650q156 113 205 127q41 6 59 3q162 -14 254 -133t92 -316q0 -231 -145 -381.5t-371 -150.5q-63 0 -106 6v-61q0 -36 -1 -58.5t-1 -51t2 -46t5 -38t9 -32.5t14.5 -22.5t19.5 -15.5t28 -5l90 4l6 -8l-23 -127q-6 0 -96 2t-129 2 q-57 0 -130 -3t-119 -5t-46 -4l19 127q70 8 86 36.5t18 120.5l8 353v1069q0 66 -18.5 90t-67.5 24q-12 0 -30.5 -2t-20.5 -2q-2 8 -2 27zM381 180q66 -31 149 -30q96 0 150.5 74.5t54.5 209.5q0 154 -54 244t-144 90q-78 0 -152 -68z" />
<glyph unicode="&#xff;" horiz-adv-x="952" d="M-47 -328l16 27q270 23 412 283q-188 530 -283 749q-43 86 -123 88l-4 10l15 117h159q63 0 140 3t125.5 6t48.5 6l4 -11l-19 -121q-57 -2 -77.5 -13t-20.5 -36q0 -29 35 -156.5t70 -240.5l34 -113h23q184 475 184 510q0 25 -12 34t-47 9h-66l-6 11l17 118q125 -6 217 -6 h190l-16 -125q-45 -10 -65.5 -29.5t-39.5 -70.5l-262 -633q-131 -315 -244.5 -449.5t-248.5 -132.5q-29 0 -92.5 67t-63.5 99zM197 1276q0 61 37.5 100t99.5 39q57 0 90 -34.5t33 -90.5q0 -61 -38.5 -99t-101.5 -38q-57 0 -88.5 34t-31.5 89zM561 1276q0 61 38 100t101 39 q57 0 89 -33.5t32 -91.5q0 -59 -38 -98t-99 -39q-59 0 -91 34t-32 89z" />
<glyph unicode="&#x100;" horiz-adv-x="1280" d="M-25 -6l17 137q49 8 78.5 38t54.5 97l364 1039l326 32l23 -10q183 -711 292 -1057q23 -74 58 -104.5t102 -36.5l8 -14l-14 -121q-162 6 -252 6q-78 0 -165 -4t-134 -8l-47 -4l-12 16l10 123q100 8 129 22.5t29 53.5q0 20 -11 67l-40 156q-53 2 -187 2q-80 0 -194 -14 l-52 -154q-12 -43 -12 -63q0 -35 20.5 -48.5t73.5 -13.5h88l9 -14l-15 -129q-168 12 -299 12zM344 1473l29 155q195 -2 315 -2l260 12l17 -28l-25 -158l-289 -2l-284 -2zM459 586h143q66 0 152 8l-119 450h-29z" />
<glyph unicode="&#x101;" horiz-adv-x="980" d="M55 283q0 63 33 110t86 60l393 92l2 47q0 88 -46 136t-128 48q-53 0 -113.5 -23.5t-93.5 -47.5l-32 -25l-19 10l-37 123q281 158 379 158q172 0 257 -77t85 -204q0 -33 -20.5 -203t-20.5 -217q0 -37 20.5 -59.5t53.5 -22.5l96 35l33 -43q-10 -20 -29.5 -50t-73 -86 t-96.5 -69q-188 0 -206 158l-17 6q-156 -156 -225 -155q-119 0 -200 86t-81 213zM158 1212l28 156q195 -2 316 -2l260 12l16 -28l-24 -156l-289 -2l-285 -2zM301 307q0 -55 32 -90t81 -35q65 1 145 58l4 192l-215 -59q-47 -14 -47 -66z" />
<glyph unicode="&#x102;" horiz-adv-x="1280" d="M-25 -6l17 137q49 8 78.5 38t54.5 97l364 1039l326 32l23 -10q183 -711 292 -1057q23 -74 58 -104.5t102 -36.5l8 -14l-14 -121q-162 6 -252 6q-78 0 -165 -4t-134 -8l-47 -4l-12 16l10 123q100 8 129 22.5t29 53.5q0 20 -11 67l-40 156q-53 2 -187 2q-80 0 -194 -14 l-52 -154q-12 -43 -12 -63q0 -35 20.5 -48.5t73.5 -13.5h88l9 -14l-15 -129q-168 12 -299 12zM346 1657l57 72l35 8q56 -123 211.5 -123t210.5 123l35 -8l57 -72q-31 -102 -106.5 -170t-196.5 -68t-196.5 67.5t-106.5 170.5zM459 586h143q66 0 152 8l-119 450h-29z" />
<glyph unicode="&#x103;" horiz-adv-x="980" d="M55 283q0 63 33 110t86 60l393 92l2 47q0 88 -46 136t-128 48q-53 0 -113.5 -23.5t-93.5 -47.5l-32 -25l-19 10l-37 123q281 158 379 158q172 0 257 -77t85 -204q0 -33 -20.5 -203t-20.5 -217q0 -37 20.5 -59.5t53.5 -22.5l96 35l33 -43q-10 -20 -29.5 -50t-73 -86 t-96.5 -69q-188 0 -206 158l-17 6q-156 -156 -225 -155q-119 0 -200 86t-81 213zM164 1378l57 70l35 8q55 -139 211 -139t211 139l35 -8l57 -70q-31 -111 -106.5 -183.5t-196.5 -72.5t-196.5 73t-106.5 183zM301 307q0 -55 32 -90t81 -35q65 1 145 58l4 192l-215 -59 q-47 -14 -47 -66z" />
<glyph unicode="&#x104;" horiz-adv-x="1280" d="M-25 -6l17 137q49 8 78.5 38t54.5 97l364 1039l326 32l23 -10q184 -711 292 -1057q23 -74 58 -104.5t102 -36.5l8 -14l-14 -121q-66 4 -133 6q-80 -96 -110.5 -149.5t-30.5 -100.5q0 -43 28.5 -70.5t73.5 -27.5q33 0 70 12t57 25l21 12l36 -59q-106 -100 -209 -136 q-111 0 -177 50.5t-66 136.5q0 66 45 136.5t141 170.5q-78 0 -164 -4t-133 -8l-47 -4l-12 16l10 123q100 8 129 22.5t29 53.5q0 20 -11 67l-40 156q-53 2 -187 2q-80 0 -194 -14l-52 -154q-12 -43 -12 -63q0 -35 20.5 -48.5t73.5 -13.5h88l9 -14l-15 -129q-168 12 -299 12z M459 586h143q66 0 152 8l-119 450h-29z" />
<glyph unicode="&#x105;" horiz-adv-x="980" d="M55 283q0 63 33 110t86 60l393 92l2 47q0 88 -46 136t-128 48q-53 0 -113.5 -23.5t-93.5 -47.5l-32 -25l-19 10l-37 123q242 135 351 152q33 6 65 2q258 -18 297 -226q10 -41 4 -106q-6 -88 -16 -170t-15.5 -127t-5.5 -68q0 -37 20.5 -59.5t53.5 -22.5l96 35l37 -51 q-283 -324 -282 -422q0 -43 28.5 -70.5t73.5 -27.5q33 0 69.5 12t57.5 25l20 12l39 -57q-109 -102 -209 -138q-115 0 -180 50.5t-65 138.5q0 111 170 289q-119 25 -131 149l-17 6q-156 -156 -225 -155q-119 0 -200 86t-81 213zM301 307q0 -55 32 -90t81 -35q71 1 145 58 l4 192l-215 -59q-47 -14 -47 -66z" />
<glyph unicode="&#x106;" horiz-adv-x="1263" d="M57 623q0 328 194.5 522t522.5 194q76 0 174.5 -12t157.5 -25l59 -14l13 -26q-41 -170 -54 -388l-202 -14q4 55 4 109q0 88 -54.5 130t-169.5 42q-326 0 -325 -449q0 -250 90 -387t250 -137q111 0 172 66.5t86 216.5l203 14q-35 -213 -41 -383l-21 -25q-196 -82 -450 -82 q-283 0 -446 173.5t-163 474.5zM535 1542l456 213l25 -10l53 -158l-12 -26q-236 -59 -469 -134l-27 19z" />
<glyph unicode="&#x107;" horiz-adv-x="884" d="M51 449q0 229 140.5 375.5t359.5 146.5q68 0 133.5 -10.5t95.5 -21.5l31 -11l8 -19q-35 -145 -45 -317l-133 -8v67q0 145 -127 146q-190 0 -190 -271q0 -168 57 -256t166 -88q112 1 217 60l16 -6l33 -107q-20 -16 -55 -42t-117 -69t-137 -43q-211 0 -332 127t-121 347z M348 1159q74 74 160 161t134 138l48 51l29 -2l110 -143l-2 -29q-197 -123 -387 -264l-30 8z" />
<glyph unicode="&#x108;" horiz-adv-x="1263" d="M57 623q0 328 194.5 522t522.5 194q76 0 174.5 -12t157.5 -25l59 -14l13 -26q-41 -170 -54 -388l-202 -14q4 55 4 109q0 88 -54.5 130t-169.5 42q-326 0 -325 -449q0 -250 90 -387t250 -137q111 0 172 66.5t86 216.5l203 14q-35 -213 -41 -383l-21 -25q-196 -82 -450 -82 q-283 0 -446 173.5t-163 474.5zM367 1536q145 139 311 315h41q164 -176 309 -315l-59 -84l-31 -8q-41 33 -240 170q-145 -94 -239 -170l-33 8z" />
<glyph unicode="&#x109;" horiz-adv-x="884" d="M51 449q0 229 140.5 375.5t359.5 146.5q68 0 133.5 -10.5t95.5 -21.5l31 -11l8 -19q-35 -145 -45 -317l-133 -8v67q0 145 -127 146q-190 0 -190 -271q0 -168 57 -256t166 -88q112 1 217 60l16 -6l33 -107q-20 -16 -55 -42t-117 -69t-137 -43q-211 0 -332 127t-121 347z M213 1178q145 139 311 315h41q164 -176 309 -315l-59 -84l-31 -9q-41 33 -239 170q-145 -94 -240 -170l-33 9z" />
<glyph unicode="&#x10a;" horiz-adv-x="1263" d="M57 623q0 328 194.5 522t522.5 194q76 0 174.5 -12t157.5 -25l59 -14l13 -26q-41 -170 -54 -388l-202 -14q4 55 4 109q0 88 -54.5 130t-169.5 42q-326 0 -325 -449q0 -250 90 -387t250 -137q111 0 172 66.5t86 216.5l203 14q-35 -213 -41 -383l-21 -25q-196 -82 -450 -82 q-283 0 -446 173.5t-163 474.5zM561 1585q0 72 45 118t119 46q68 0 105.5 -40t37.5 -107q0 -72 -44.5 -118t-118.5 -46q-70 0 -107 41t-37 106z" />
<glyph unicode="&#x10b;" horiz-adv-x="884" d="M51 449q0 229 140.5 375.5t359.5 146.5q68 0 133.5 -10.5t95.5 -21.5l31 -11l8 -19q-35 -145 -45 -317l-133 -8v67q0 145 -127 146q-190 0 -190 -271q0 -168 57 -256t166 -88q112 1 217 60l16 -6l33 -107q-20 -16 -55 -42t-117 -69t-137 -43q-211 0 -332 127t-121 347z M365 1323q0 72 45 118t118 46q68 0 106 -40t38 -108q0 -72 -45 -117.5t-119 -45.5q-70 0 -106.5 40.5t-36.5 106.5z" />
<glyph unicode="&#x10c;" horiz-adv-x="1263" d="M57 623q0 328 194.5 522t522.5 194q76 0 174.5 -12t157.5 -25l59 -14l13 -26q-41 -170 -54 -388l-202 -14q4 55 4 109q0 88 -54.5 130t-169.5 42q-326 0 -325 -449q0 -250 90 -387t250 -137q111 0 172 66.5t86 216.5l203 14q-35 -213 -41 -383l-21 -25q-196 -82 -450 -82 q-283 0 -446 173.5t-163 474.5zM369 1679l49 84l33 9q102 -51 260 -119q98 41 258 119l32 -9l52 -84q-68 -49 -149 -112.5t-127 -102.5l-46 -39h-41q-170 143 -321 254z" />
<glyph unicode="&#x10d;" horiz-adv-x="884" d="M51 449q0 229 140.5 375.5t359.5 146.5q68 0 133.5 -10.5t95.5 -21.5l31 -11l8 -19q-35 -145 -45 -317l-133 -8v67q0 145 -127 146q-190 0 -190 -271q0 -168 57 -256t166 -88q112 1 217 60l16 -6l33 -107q-20 -16 -55 -42t-117 -69t-137 -43q-211 0 -332 127t-121 347z M180 1391l62 86l30 6q109 -86 248 -174q154 102 244 174l33 -6l61 -86q-68 -63 -147.5 -144.5t-125.5 -130.5l-46 -49h-41q-168 181 -318 324z" />
<glyph unicode="&#x10e;" horiz-adv-x="1419" d="M78 -20l14 139q88 16 118 52t30 122l2 776q0 66 -13.5 88.5t-52.5 22.5l-67 -4l-13 18l17 127q182 -6 262 -6l325 10q311 0 486.5 -163t175.5 -451q0 -324 -199 -530t-512 -206q-193 25 -309 25zM352 1679l49 84l33 9q102 -51 260 -119q98 41 258 119l33 -9l51 -84 q-68 -49 -148.5 -112.5t-126.5 -102.5l-46 -39h-41q-170 143 -322 254zM506 299q0 -88 33.5 -116.5t136.5 -28.5q365 0 364 493q0 260 -109.5 380t-338.5 120q-33 0 -45 -10.5t-15 -38.5q-27 -559 -26 -799z" />
<glyph unicode="&#x10f;" horiz-adv-x="1241" d="M51 432q0 231 146.5 382t371.5 151q66 0 103 -4v258q0 66 -18.5 90t-67.5 24l-49 -6l12 125q196 25 409 68l19 -35q-27 -39 -45.5 -397.5t-18.5 -815.5q0 -84 66 -84l92 35l33 -43q-10 -18 -28.5 -47t-73 -85t-105.5 -73q-184 0 -205 148l-14 4q-197 -143 -236 -143 q-180 0 -285.5 120.5t-105.5 327.5zM319 508q0 -152 54.5 -242t144.5 -90q33 0 72 16.5t60 33.5l22 18v514q-59 35 -148 35q-98 0 -151.5 -74t-53.5 -211zM1055 1407l207 29l16 -21q-31 -223 -78 -442l-98 -39l-31 8q2 104 -2 221t-9 180z" />
<glyph unicode="&#x110;" horiz-adv-x="1452" d="M16 600l21 123h233v346q0 66 -12 88.5t-51 22.5l-68 -4l-12 18l16 127q180 -6 263 -6l323 10q309 0 486.5 -164t177.5 -450q0 -324 -200 -530t-511 -206q-195 25 -311 25q-47 0 -112.5 -5t-107.5 -10l-42 -5l14 139q92 16 119.5 56t27.5 157v254h-237zM537 299 q0 -88 33.5 -116.5t136.5 -28.5q362 0 362 493q0 260 -109.5 380t-338.5 120q-33 0 -45.5 -10t-14.5 -39l-16 -375l256 4l12 -18l-12 -123h-260z" />
<glyph unicode="&#x111;" horiz-adv-x="1099" d="M51 432q0 231 146.5 382t371.5 151q66 0 103 -4v108h-215l-21 21l17 98l219 -2v33q0 66 -18.5 90t-67.5 24l-49 -6l12 125q196 25 409 68l19 -35q-23 -35 -39 -295l141 6l29 -29l-10 -94l-168 -2q-16 -348 -17 -799q0 -84 66 -84l92 35l33 -43q-10 -18 -28.5 -47t-73 -85 t-105.5 -73q-184 0 -205 148l-14 4q-197 -143 -236 -143q-180 0 -285.5 120.5t-105.5 327.5zM319 508q0 -152 54.5 -242t144.5 -90q33 0 72 16.5t60 33.5l22 18v514q-59 35 -148 35q-98 0 -151.5 -74t-53.5 -211z" />
<glyph unicode="&#x112;" horiz-adv-x="1222" d="M74 -20l16 139q84 12 116 50t32 126l2 776q0 68 -13.5 89.5t-54.5 21.5l-61 -4l-15 18l17 125q225 -6 379 -6q434 0 622 24l16 -22q-37 -182 -47 -373l-188 -12q4 53 4 82q0 84 -43 106.5t-215 22.5q-72 0 -89 -11.5t-20 -56.5l-14 -317q18 0 88 -1t103 -1l237 16l17 -18 l-29 -176q-164 6 -266 6q-51 0 -156 -13q-6 -223 -6 -286q0 -82 21.5 -102.5t109.5 -20.5q100 0 153.5 7t90.5 33.5t50 68.5t25 124l174 15l15 -21q-37 -184 -58 -381l-18 -22q-385 14 -639 14q-82 0 -171 -5t-137 -10zM344 1473l29 155q195 -2 315 -2l260 12l17 -28 l-25 -158l-289 -2l-284 -2z" />
<glyph unicode="&#x113;" horiz-adv-x="948" d="M51 449q0 223 139.5 372.5t348.5 149.5q344 0 344 -353q0 -27 -3 -55t-8 -45l-4 -16l-24 -23h-527v-18q6 -135 74 -210t182 -75q57 0 119 15.5t94 30.5l33 16l17 -7l32 -104q-23 -16 -60.5 -42t-131.5 -68t-160 -42q-217 0 -341 127t-124 347zM203 1210l28 156 q195 -2 316 -2l260 12l16 -28l-24 -156l-289 -2l-285 -2zM317 594l275 14q23 4 31 12.5t8 34.5q0 152 -129 152q-80 0 -128.5 -54.5t-56.5 -158.5z" />
<glyph unicode="&#x114;" horiz-adv-x="1222" d="M74 -20l16 139q84 12 116 50t32 126l2 776q0 68 -13.5 89.5t-54.5 21.5l-61 -4l-15 18l17 125q225 -6 379 -6q434 0 622 24l16 -22q-37 -182 -47 -373l-188 -12q4 53 4 82q0 84 -43 106.5t-215 22.5q-72 0 -89 -11.5t-20 -56.5l-14 -317q18 0 88 -1t103 -1l237 16l17 -18 l-29 -176q-164 6 -266 6q-51 0 -156 -13q-6 -223 -6 -286q0 -82 21.5 -102.5t109.5 -20.5q100 0 153.5 7t90.5 33.5t50 68.5t25 124l174 15l15 -21q-37 -184 -58 -381l-18 -22q-385 14 -639 14q-82 0 -171 -5t-137 -10zM367 1724l57 70l35 8q55 -139 210.5 -139t211.5 139 l34 -8l58 -70q-31 -111 -106.5 -183.5t-196.5 -72.5t-197 73t-106 183z" />
<glyph unicode="&#x115;" horiz-adv-x="948" d="M51 449q0 223 139.5 372.5t348.5 149.5q344 0 344 -353q0 -27 -3 -55t-8 -45l-4 -16l-24 -23h-527v-18q6 -135 74 -210t182 -75q57 0 119 15.5t94 30.5l33 16l17 -7l32 -104q-23 -16 -60.5 -42t-131.5 -68t-160 -42q-217 0 -341 127t-124 347zM221 1376l58 70l34 8 q56 -139 211.5 -139t210.5 139l35 -8l57 -70q-31 -111 -106.5 -183.5t-196.5 -72.5t-196.5 73t-106.5 183zM317 594l275 14q23 4 31 12.5t8 34.5q0 152 -129 152q-80 0 -128.5 -54.5t-56.5 -158.5z" />
<glyph unicode="&#x116;" horiz-adv-x="1222" d="M74 -20l16 139q84 12 116 50t32 126l2 776q0 68 -13.5 89.5t-54.5 21.5l-61 -4l-15 18l17 125q225 -6 379 -6q434 0 622 24l16 -22q-37 -182 -47 -373l-188 -12q4 53 4 82q0 84 -43 106.5t-215 22.5q-72 0 -89 -11.5t-20 -56.5l-14 -317q18 0 88 -1t103 -1l237 16l17 -18 l-29 -176q-164 6 -266 6q-51 0 -156 -13q-6 -223 -6 -286q0 -82 21.5 -102.5t109.5 -20.5q100 0 153.5 7t90.5 33.5t50 68.5t25 124l174 15l15 -21q-37 -184 -58 -381l-18 -22q-385 14 -639 14q-82 0 -171 -5t-137 -10zM500 1585q0 72 45 118t119 46q68 0 105.5 -40 t37.5 -107q0 -72 -45 -118t-119 -46q-70 0 -106.5 41t-36.5 106z" />
<glyph unicode="&#x117;" horiz-adv-x="948" d="M51 449q0 223 139.5 372.5t348.5 149.5q344 0 344 -353q0 -27 -3 -55t-8 -45l-4 -16l-24 -23h-527v-18q6 -135 74 -210t182 -75q57 0 119 15.5t94 30.5l33 16l17 -7l32 -104q-23 -16 -60.5 -42t-131.5 -68t-160 -42q-217 0 -341 127t-124 347zM317 594l275 14 q23 4 31 12.5t8 34.5q0 152 -129 152q-80 0 -128.5 -54.5t-56.5 -158.5zM356 1323q0 72 45 118t119 46q68 0 106 -40t38 -108q0 -72 -45 -117.5t-119 -45.5q-70 0 -107 40.5t-37 106.5z" />
<glyph unicode="&#x118;" horiz-adv-x="1222" d="M74 -20l16 139q84 12 116 50t32 126l2 776q0 68 -13.5 89.5t-54.5 21.5l-61 -4l-15 18l17 125q225 -6 379 -6q434 0 622 24l16 -22q-37 -182 -47 -373l-188 -12q4 53 4 82q0 84 -43 106.5t-215 22.5q-72 0 -89 -11.5t-20 -56.5l-14 -317q18 0 88 -1t103 -1l237 16l17 -18 l-29 -176q-164 6 -266 6q-51 0 -156 -13q-6 -223 -6 -286q0 -82 21.5 -102.5t109.5 -20.5q100 0 153.5 7t90.5 33.5t50 68.5t25 124l174 15l15 -21q-37 -184 -58 -381l-18 -22q-33 2 -84 4q-76 -90 -104.5 -141.5t-28.5 -98.5q0 -43 28.5 -70.5t73.5 -27.5q33 0 70 12t57 25 l21 12l37 -59q-106 -100 -209 -136q-111 0 -177.5 50.5t-66.5 136.5q0 63 43 133t137 168q-197 6 -436 6q-82 0 -171 -5t-137 -10z" />
<glyph unicode="&#x119;" horiz-adv-x="948" d="M51 449q0 223 139.5 372.5t348.5 149.5q344 0 344 -353q0 -27 -3 -55t-8 -45l-4 -16l-24 -23h-527v-18q6 -135 74 -210t182 -75q57 0 119 15.5t94 30.5l33 16l17 -7l32 -104q-152 -170 -202 -241.5t-50 -135.5q0 -43 28 -70.5t73 -27.5q33 0 69.5 12t57.5 25l20 12 l39 -57q-106 -102 -209 -138q-113 0 -179 50.5t-66 138.5q0 66 45 134.5t139 168.5q-63 -23 -117 -23q-217 0 -341 127t-124 347zM317 594l275 14q23 4 31 12.5t8 34.5q0 152 -129 152q-80 0 -128.5 -54.5t-56.5 -158.5z" />
<glyph unicode="&#x11a;" horiz-adv-x="1222" d="M74 -20l16 139q84 12 116 50t32 126l2 776q0 68 -13.5 89.5t-54.5 21.5l-61 -4l-15 18l17 125q225 -6 379 -6q434 0 622 24l16 -22q-37 -182 -47 -373l-188 -12q4 53 4 82q0 84 -43 106.5t-215 22.5q-72 0 -89 -11.5t-20 -56.5l-14 -317q18 0 88 -1t103 -1l237 16l17 -18 l-29 -176q-164 6 -266 6q-51 0 -156 -13q-6 -223 -6 -286q0 -82 21.5 -102.5t109.5 -20.5q100 0 153.5 7t90.5 33.5t50 68.5t25 124l174 15l15 -21q-37 -184 -58 -381l-18 -22q-385 14 -639 14q-82 0 -171 -5t-137 -10zM309 1679l49 84l33 9q102 -51 260 -119q98 41 258 119 l33 -9l51 -84q-68 -49 -148.5 -112.5t-126.5 -102.5l-46 -39h-41q-170 143 -322 254z" />
<glyph unicode="&#x11b;" horiz-adv-x="948" d="M51 449q0 223 139.5 372.5t348.5 149.5q344 0 344 -353q0 -27 -3 -55t-8 -45l-4 -16l-24 -23h-527v-18q6 -135 74 -210t182 -75q57 0 119 15.5t94 30.5l33 16l17 -7l32 -104q-23 -16 -60.5 -42t-131.5 -68t-160 -42q-217 0 -341 127t-124 347zM172 1391l61 86l31 6 q109 -86 248 -174q154 102 244 174l32 -6l62 -86q-68 -63 -147.5 -144.5t-125.5 -130.5l-47 -49h-41q-167 181 -317 324zM317 594l275 14q23 4 31 12.5t8 34.5q0 152 -129 152q-80 0 -128.5 -54.5t-56.5 -158.5z" />
<glyph unicode="&#x11c;" horiz-adv-x="1339" d="M57 623q0 334 194.5 525t534.5 191q80 0 181.5 -12t162.5 -25l62 -14l14 -26q-41 -164 -53 -377l-203 -13q6 51 6 111q0 86 -50 122t-169 36q-184 0 -273 -110.5t-89 -338.5q0 -252 90 -388t254 -136q120 0 196 53v191q0 59 -17 78.5t-73 19.5h-104l-12 16l22 148 q16 0 118.5 -2t166.5 -2q209 0 209 10l14 -80q-53 -35 -68.5 -98.5t-15.5 -239.5q0 -123 14 -178l-18 -27q-20 -8 -60 -22.5t-166 -37t-257 -22.5q-283 0 -447 173.5t-164 474.5zM381 1536q145 139 311 315h41q164 -176 309 -315l-59 -84l-31 -8q-41 33 -239 170 q-145 -94 -240 -170l-33 8z" />
<glyph unicode="&#x11d;" horiz-adv-x="1048" d="M80 164q27 29 70 63.5t72 55.5l30 20v14q-154 86 -154 281q0 160 121 267.5t305 107.5q45 0 113 -10.5t96 -10.5q45 4 118 20.5t122 32.5l49 15l12 -10l-26 -158q-74 -10 -150 -12l-8 -13q80 -86 80 -200q0 -160 -125 -263.5t-318 -103.5q-51 0 -127 14q-53 -35 -53 -69 q0 -72 199 -78q274 -8 383.5 -61.5t109.5 -178.5q0 -147 -166.5 -265t-375.5 -118q-168 0 -267.5 79t-99.5 210q25 29 76 67t90 60l39 23v12q-96 16 -155.5 72.5t-59.5 136.5zM221 1178q145 139 311 315h41q164 -176 310 -315l-60 -84l-30 -9q-41 33 -240 170 q-145 -94 -240 -170l-32 9zM346 -209q0 -59 50 -96t134 -37q94 0 164 45t70 104q0 33 -24.5 51.5t-93 34t-224.5 37.5q-76 -68 -76 -139zM354 616q0 -102 45 -159.5t125 -57.5q152 0 152 199q0 104 -46 161.5t-130 57.5q-70 0 -108 -52t-38 -149z" />
<glyph unicode="&#x11e;" horiz-adv-x="1339" d="M57 623q0 334 194.5 525t534.5 191q80 0 181.5 -12t162.5 -25l62 -14l14 -26q-41 -164 -53 -377l-203 -13q6 51 6 111q0 86 -50 122t-169 36q-184 0 -273 -110.5t-89 -338.5q0 -252 90 -388t254 -136q120 0 196 53v191q0 59 -17 78.5t-73 19.5h-104l-12 16l22 148 q16 0 118.5 -2t166.5 -2q209 0 209 10l14 -80q-53 -35 -68.5 -98.5t-15.5 -239.5q0 -123 14 -178l-18 -27q-20 -8 -60 -22.5t-166 -37t-257 -22.5q-283 0 -447 173.5t-164 474.5zM422 1686l57 71l35 8q55 -123 211 -123t211 123l35 -8l57 -71q-31 -102 -106.5 -170 t-196.5 -68t-196.5 67.5t-106.5 170.5z" />
<glyph unicode="&#x11f;" horiz-adv-x="1048" d="M80 164q27 29 70 63.5t72 55.5l30 20v14q-154 86 -154 281q0 160 121 267.5t305 107.5q45 0 113 -10.5t96 -10.5q45 4 118 20.5t122 32.5l49 15l12 -10l-26 -158q-74 -10 -150 -12l-8 -13q80 -86 80 -200q0 -160 -125 -263.5t-318 -103.5q-51 0 -127 14q-53 -35 -53 -69 q0 -72 199 -78q274 -8 383.5 -61.5t109.5 -178.5q0 -147 -166.5 -265t-375.5 -118q-168 0 -267.5 79t-99.5 210q25 29 76 67t90 60l39 23v12q-96 16 -155.5 72.5t-59.5 136.5zM221 1376l58 70l34 8q56 -139 211.5 -139t210.5 139l35 -8l57 -70q-31 -111 -106.5 -183.5 t-196.5 -72.5t-196.5 73t-106.5 183zM346 -209q0 -59 50 -96t134 -37q94 0 164 45t70 104q0 33 -24.5 51.5t-93 34t-224.5 37.5q-76 -68 -76 -139zM354 616q0 -102 45 -159.5t125 -57.5q152 0 152 199q0 104 -46 161.5t-130 57.5q-70 0 -108 -52t-38 -149z" />
<glyph unicode="&#x120;" horiz-adv-x="1339" d="M57 623q0 334 194.5 525t534.5 191q80 0 181.5 -12t162.5 -25l62 -14l14 -26q-41 -164 -53 -377l-203 -13q6 51 6 111q0 86 -50 122t-169 36q-184 0 -273 -110.5t-89 -338.5q0 -252 90 -388t254 -136q120 0 196 53v191q0 59 -17 78.5t-73 19.5h-104l-12 16l22 148 q16 0 118.5 -2t166.5 -2q209 0 209 10l14 -80q-53 -35 -68.5 -98.5t-15.5 -239.5q0 -123 14 -178l-18 -27q-20 -8 -60 -22.5t-166 -37t-257 -22.5q-283 0 -447 173.5t-164 474.5zM575 1585q0 72 45.5 118t118.5 46q68 0 106 -40t38 -107q0 -72 -45 -118t-119 -46 q-70 0 -107 41t-37 106z" />
<glyph unicode="&#x121;" horiz-adv-x="1048" d="M80 164q27 29 70 63.5t72 55.5l30 20v14q-154 86 -154 281q0 160 121 267.5t305 107.5q45 0 113 -10.5t96 -10.5q45 4 118 20.5t122 32.5l49 15l12 -10l-26 -158q-74 -10 -150 -12l-8 -13q80 -86 80 -200q0 -160 -125 -263.5t-318 -103.5q-51 0 -127 14q-53 -35 -53 -69 q0 -72 199 -78q274 -8 383.5 -61.5t109.5 -178.5q0 -147 -166.5 -265t-375.5 -118q-168 0 -267.5 79t-99.5 210q25 29 76 67t90 60l39 23v12q-96 16 -155.5 72.5t-59.5 136.5zM346 -209q0 -59 50 -96t134 -37q94 0 164 45t70 104q0 33 -24.5 51.5t-93 34t-224.5 37.5 q-76 -68 -76 -139zM354 616q0 -102 45 -159.5t125 -57.5q152 0 152 199q0 104 -46 161.5t-130 57.5q-70 0 -108 -52t-38 -149zM371 1323q0 72 45 118t119 46q68 0 105.5 -40t37.5 -108q0 -72 -45 -117.5t-119 -45.5q-70 0 -106.5 40.5t-36.5 106.5z" />
<glyph unicode="&#x122;" horiz-adv-x="1339" d="M57 623q0 334 194.5 525t534.5 191q80 0 181.5 -12t162.5 -25l62 -14l14 -26q-41 -164 -53 -377l-203 -13q6 51 6 111q0 86 -50 122t-169 36q-184 0 -273 -110.5t-89 -338.5q0 -252 90 -388t254 -136q120 0 196 53v191q0 59 -17 78.5t-73 19.5h-104l-12 16l22 148 q16 0 118.5 -2t166.5 -2q209 0 209 10l14 -80q-53 -35 -68.5 -98.5t-15.5 -239.5q0 -123 14 -178l-18 -27q-20 -8 -60 -22.5t-166 -37t-257 -22.5q-283 0 -447 173.5t-164 474.5zM467 -555q61 43 100 100.5t39 108.5q1 84 -71 141l6 29q90 72 161 72q61 0 101.5 -48.5 t40.5 -128.5q0 -102 -85 -200.5t-216 -169.5l-76 61v35z" />
<glyph unicode="&#x123;" horiz-adv-x="1048" d="M80 164q27 29 70 63.5t72 55.5l30 20v14q-154 86 -154 281q0 160 121 267.5t305 107.5q45 0 113 -10.5t96 -10.5q45 4 118 20.5t122 32.5l49 15l12 -10l-26 -158q-74 -10 -150 -12l-8 -13q80 -86 80 -200q0 -160 -125 -263.5t-318 -103.5q-51 0 -127 14q-53 -35 -53 -69 q0 -72 199 -78q274 -8 383.5 -61.5t109.5 -178.5q0 -147 -166.5 -265t-375.5 -118q-168 0 -267.5 79t-99.5 210q25 29 76 67t90 60l39 23v12q-96 16 -155.5 72.5t-59.5 136.5zM346 -209q0 -59 50 -96t134 -37q94 0 164 45t70 104q0 33 -24.5 51.5t-93 34t-224.5 37.5 q-76 -68 -76 -139zM354 616q0 -102 45 -159.5t125 -57.5q152 0 152 199q0 104 -46 161.5t-130 57.5q-70 0 -108 -52t-38 -149zM371 1233q0 102 85 200.5t216 172.5l76 -62v-35q-61 -41 -100.5 -99t-39.5 -112q0 -80 70 -139l-4 -29q-90 -72 -162 -71q-61 0 -101 47t-40 127z " />
<glyph unicode="&#x124;" horiz-adv-x="1529" d="M76 -18l14 133q90 18 119 52t29 120l2 788q0 63 -14.5 85t-59.5 22l-64 -2l-10 16l17 121q162 -2 243 -2l310 14l-11 -137q-78 -12 -98.5 -38t-24.5 -107l-12 -293l262 -4q127 0 242 14v311q0 63 -14.5 85t-59.5 22l-63 -2l-11 16l17 121q174 -2 262 -2l301 14l-12 -135 q-76 -10 -99.5 -32t-27.5 -81q-25 -471 -25 -809q0 -80 18.5 -108.5t67.5 -28.5l74 6l10 -16l-18 -131q-170 6 -299 6l-285 -4l16 135q86 2 117 40t31 148v261q-147 2 -221 2l-287 -21l-4 -289q0 -84 15.5 -111.5t62.5 -27.5l73 6l11 -14l-19 -131q-172 6 -250 6 q-59 0 -137 -3t-133 -8t-55 -7zM434 1589q145 139 311 316h41q164 -176 310 -316l-60 -84l-30 -8q-41 33 -240 170q-145 -94 -240 -170l-32 8z" />
<glyph unicode="&#x125;" horiz-adv-x="1114" d="M-57 1665q145 139 311 315h41q164 -176 309 -315l-59 -84l-31 -8q-41 33 -240 170q-145 -94 -239 -170l-33 8zM4 1346l12 108l422 66l15 -39q-41 -49 -58 -688q61 57 146.5 117.5t126.5 60.5q150 0 229.5 -68.5t79.5 -197.5q0 -37 -19.5 -233t-19.5 -249t14.5 -74.5 t48.5 -21.5l62 2l4 -8l-18 -127q-143 6 -224 6l-229 -16l12 129q92 23 94 114l9 351q0 178 -131 178q-72 0 -187 -84q-4 -283 -4 -453q0 -51 14.5 -71.5t47.5 -20.5l51 4l4 -12l-21 -125q-139 6 -223 6l-227 -6l16 127q55 6 75.5 29.5t20.5 80.5v992q0 63 -18 87.5t-68 24.5 h-47z" />
<glyph unicode="&#x126;" horiz-adv-x="1525" d="M39 926l16 98q78 -2 183 -2v53q0 63 -14.5 85t-59.5 22l-64 -2l-10 16l16 121q162 -2 244 -2l309 14l-10 -137q-78 -12 -98.5 -38t-24.5 -107l-2 -25h293h201v53q0 63 -14.5 85t-59.5 22l-63 -2l-11 16l17 121q174 -2 262 -2l301 14l-12 -135q-76 -10 -99.5 -32 t-27.5 -81l-4 -53l153 4l29 -28l-10 -95h-176q-16 -344 -17 -637q0 -80 18.5 -108.5t67.5 -28.5l74 6l10 -16l-18 -131q-170 6 -299 6l-285 -4l16 135q86 2 117 40t31 148v261q-147 2 -221 2l-287 -21l-4 -289q0 -84 15.5 -111.5t62.5 -27.5l73 6l11 -14l-19 -131 q-172 6 -250 6q-59 0 -137 -3t-133 -8t-55 -7l14 133q90 18 119 52t29 120l2 618h-179zM514 754l262 -4q127 0 242 14v143h-250h-248z" />
<glyph unicode="&#x127;" horiz-adv-x="1120" d="M-27 1073l17 98q78 -2 164 -2v54q0 63 -18.5 87.5t-67.5 24.5h-48l-10 11l13 108l421 66l15 -39q-25 -29 -43 -312l168 11l28 -29l-8 -94h-194q-4 -86 -9 -264q61 57 146.5 117.5t126.5 60.5q150 0 229.5 -68.5t79.5 -197.5q0 -37 -19.5 -233t-19.5 -249t14.5 -74.5 t49.5 -21.5l61 2l4 -8l-18 -127q-143 6 -224 6l-229 -16l12 129q92 23 95 114l8 351q0 178 -131 178q-72 0 -187 -84q-4 -283 -4 -453q0 -51 13.5 -71.5t48.5 -20.5l51 4l4 -12l-20 -125q-139 6 -224 6l-227 -6l16 127q55 6 76 29.5t21 80.5v826l-160 -2z" />
<glyph unicode="&#x128;" horiz-adv-x="747" d="M12 1536v23l162 206l33 9q37 0 157.5 -34t149.5 -34q20 0 54 28.5t57 57.5l22 29h23l80 -76v-21l-160 -208l-35 -9q-35 0 -155.5 35t-149.5 35q-23 0 -56.5 -28.5t-55.5 -57.5l-21 -29h-23zM74 -18l14 133q90 18 120 53t30 119l2 788q0 63 -14.5 85t-59.5 22l-72 -2 l-10 16l14 121q20 0 126 -1t161 -1l291 14l-12 -137q-78 -10 -103 -32t-29 -79q-25 -424 -24 -809q0 -84 15.5 -111.5t62.5 -27.5l88 6l10 -14l-18 -131q-213 6 -306 6q-51 0 -122.5 -4t-117.5 -9z" />
<glyph unicode="&#x129;" horiz-adv-x="600" d="M-68 1178v22l162 207l33 8q37 0 158 -33.5t149 -33.5q20 0 54 28.5t57 57.5l22 28h23l80 -76v-20l-160 -209l-35 -8q-35 0 -155.5 35t-149.5 35q-23 0 -56.5 -29t-55.5 -57l-21 -29h-23zM51 782l12 121q84 10 182.5 27.5t154.5 28.5l57 12l18 -35q-49 -102 -49 -719 q0 -90 63 -90l60 4l4 -8l-21 -129q-141 6 -227 6q-45 0 -108.5 -6t-103.5 -11l-40 -6l17 132q117 20 116 127v438q0 63 -19.5 88.5t-68.5 25.5z" />
<glyph unicode="&#x12a;" horiz-adv-x="747" d="M74 -18l14 133q90 18 120 53t30 119l2 788q0 63 -14.5 85t-59.5 22l-72 -2l-10 16l14 121q20 0 126 -1t161 -1l291 14l-12 -137q-78 -10 -103 -32t-29 -79q-25 -424 -24 -809q0 -84 15.5 -111.5t62.5 -27.5l88 6l10 -14l-18 -131q-213 6 -306 6q-51 0 -122.5 -4 t-117.5 -9zM74 1473l28 155q195 -2 316 -2l260 12l16 -28l-24 -158l-289 -2l-285 -2z" />
<glyph unicode="&#x12b;" horiz-adv-x="600" d="M16 1210l29 156q184 -2 299 -2l246 12l16 -28l-24 -156l-273 -2l-270 -2zM51 782l12 121q84 10 182.5 27.5t154.5 28.5l57 12l18 -35q-49 -102 -49 -719q0 -90 63 -90l60 4l4 -8l-21 -129q-141 6 -227 6q-45 0 -108.5 -6t-103.5 -11l-40 -6l17 132q117 20 116 127v438 q0 63 -19.5 88.5t-68.5 25.5z" />
<glyph unicode="&#x12c;" horiz-adv-x="747" d="M74 -18l14 133q90 18 120 53t30 119l2 788q0 63 -14.5 85t-59.5 22l-72 -2l-10 16l14 121q20 0 126 -1t161 -1l291 14l-12 -137q-78 -10 -103 -32t-29 -79q-25 -424 -24 -809q0 -84 15.5 -111.5t62.5 -27.5l88 6l10 -14l-18 -131q-213 6 -306 6q-51 0 -122.5 -4 t-117.5 -9zM82 1724l57 70l35 8q55 -139 211 -139t211 139l35 -8l57 -70q-31 -111 -106.5 -183.5t-196.5 -72.5t-196.5 73t-106.5 183z" />
<glyph unicode="&#x12d;" horiz-adv-x="600" d="M2 1376l57 70l35 8q56 -139 211.5 -139t210.5 139l35 -8l57 -70q-31 -111 -106.5 -183.5t-196.5 -72.5t-196.5 73t-106.5 183zM51 782l12 121q84 10 182.5 27.5t154.5 28.5l57 12l18 -35q-49 -102 -49 -719q0 -90 63 -90l60 4l4 -8l-21 -129q-141 6 -227 6 q-45 0 -108.5 -6t-103.5 -11l-40 -6l17 132q117 20 116 127v438q0 63 -19.5 88.5t-68.5 25.5z" />
<glyph unicode="&#x12e;" horiz-adv-x="747" d="M74 -18l14 133q90 18 120 53t30 119l2 788q0 63 -14.5 85t-59.5 22l-72 -2l-10 16l14 121q20 0 126 -1t161 -1l291 14l-12 -137q-78 -10 -102.5 -31.5t-29.5 -79.5q-25 -424 -24 -809q0 -84 15.5 -111.5t62.5 -27.5l88 6l10 -14l-18 -131q-49 2 -107 4 q-80 -94 -109.5 -147.5t-29.5 -100.5q0 -43 28.5 -70.5t73.5 -27.5q33 0 70 12t57 25l21 12l37 -59q-106 -100 -209 -136q-111 0 -177.5 50.5t-66.5 136.5q0 66 45 136.5t141 170.5h-80q-51 0 -122.5 -4t-117.5 -9z" />
<glyph unicode="&#x12f;" horiz-adv-x="600" d="M51 782l12 121q84 10 182.5 27.5t154.5 28.5l57 12l18 -35q-49 -102 -49 -719q0 -90 63 -90l60 4l4 -8l-21 -129q-51 2 -108 4q-76 -90 -104.5 -141.5t-28.5 -98.5q0 -43 28.5 -70.5t73.5 -27.5q33 0 70 12.5t57 24.5l21 12l37 -59q-106 -100 -209 -135q-111 0 -177.5 50 t-66.5 136q0 63 43 133t135 166q-45 0 -107.5 -6t-102.5 -11l-40 -6l17 132q117 20 116 127v438q0 63 -19.5 88.5t-68.5 25.5zM160 1323q0 74 45 119t117 45q68 0 106.5 -39t38.5 -109q0 -74 -46 -118.5t-118 -44.5q-68 0 -105.5 38.5t-37.5 108.5z" />
<glyph unicode="&#x130;" horiz-adv-x="747" d="M74 -18l14 133q90 18 120 53t30 119l2 788q0 63 -14.5 85t-59.5 22l-72 -2l-10 16l14 121q20 0 126 -1t161 -1l291 14l-12 -137q-78 -10 -103 -32t-29 -79q-25 -424 -24 -809q0 -84 15.5 -111.5t62.5 -27.5l88 6l10 -14l-18 -131q-213 6 -306 6q-51 0 -122.5 -4 t-117.5 -9zM229 1585q0 72 45 118t119 46q68 0 106 -40t38 -107q0 -72 -45 -118t-119 -46q-70 0 -107 41t-37 106z" />
<glyph unicode="&#x131;" horiz-adv-x="600" d="M51 782l12 121q84 10 182.5 27.5t154.5 28.5l57 12l18 -35q-49 -102 -49 -719q0 -90 63 -90l60 4l4 -8l-21 -129q-141 6 -227 6q-45 0 -108.5 -6t-103.5 -11l-40 -6l17 132q117 20 116 127v438q0 63 -19.5 88.5t-68.5 25.5z" />
<glyph unicode="&#x132;" horiz-adv-x="1429" d="M74 -18l14 133q90 18 120 53t30 119l2 788q0 63 -14.5 85t-59.5 22l-72 -2l-10 16l14 121q20 0 126 -1t161 -1l291 14l-12 -137q-78 -10 -103 -32t-29 -79q-25 -424 -24 -809q0 -84 15.5 -111.5t62.5 -27.5l88 6l10 -14l-18 -131q-213 6 -306 6q-51 0 -122.5 -4 t-117.5 -9zM768 -231l4 22q117 84 156 177.5t39 283.5v823q0 66 -13.5 86.5t-58.5 20.5l-84 -6l-12 16l16 123h254l309 16l-12 -139q-66 -12 -84 -31.5t-22 -79.5q-25 -446 -25 -874q-2 -203 -99.5 -328t-310.5 -194z" />
<glyph unicode="&#x133;" horiz-adv-x="1163" d="M51 782l12 121q84 10 182.5 27.5t154.5 28.5l57 12l18 -35q-49 -102 -49 -719q0 -90 63 -90l60 4l4 -8l-21 -129q-141 6 -227 6q-45 0 -108.5 -6t-103.5 -11l-40 -6l17 132q117 20 116 127v438q0 63 -19.5 88.5t-68.5 25.5zM160 1323q0 74 45 119t117 45q68 0 106.5 -39 t38.5 -109q0 -74 -46 -118.5t-118 -44.5q-68 0 -105.5 38.5t-37.5 108.5zM614 -438l4 24q88 86 119 187.5t31 300.5v600q0 66 -16.5 90t-57.5 24l-61 -6l12 119q165 25 391 70l19 -35q-45 -96 -45 -965q0 -143 -88 -268t-242 -203zM743 1323q0 74 45.5 119t118.5 45 q66 0 105 -39t39 -109q0 -74 -45 -118.5t-117 -44.5q-70 0 -108 38.5t-38 108.5z" />
<glyph unicode="&#x134;" horiz-adv-x="681" d="M20 -231l5 22q117 84 155.5 177.5t38.5 283.5v823q0 66 -13 86.5t-59 20.5l-84 -6l-12 16l17 123h254l309 16l-13 -139q-66 -12 -84 -31.5t-22 -79.5q-25 -446 -25 -874q-2 -203 -99 -328t-310 -194zM25 1536q145 139 311 315h41q164 -176 309 -315l-59 -84l-31 -8 q-41 33 -240 170q-145 -94 -239 -170l-33 8z" />
<glyph unicode="&#x135;" horiz-adv-x="561" d="M-49 1180q145 139 311 315h41q164 -176 309 -315l-59 -84l-31 -9q-41 33 -239 170q-145 -94 -240 -170l-33 9zM14 -438l4 24q88 86 119 187.5t31 300.5v600q0 66 -16.5 90t-57.5 24l-61 -6l12 119q165 25 391 70l19 -35q-45 -96 -45 -965q0 -143 -88 -268t-242 -203z" />
<glyph unicode="&#x136;" horiz-adv-x="1349" d="M76 -6l18 131q88 14 116 45t28 117l2 788q0 63 -14.5 85t-59.5 22l-64 -2l-10 16l17 123q217 -4 276 -4l283 14l-13 -137q-76 -16 -101.5 -39t-27.5 -80l-18 -801q-2 -84 13.5 -111.5t64.5 -27.5l80 6l8 -14l-19 -131q-207 6 -295 6zM492 -555q61 43 100 100.5t39 108.5 q0 84 -72 141l6 29q90 72 162 72q61 0 101 -48.5t40 -128.5q0 -102 -85 -200.5t-216 -169.5l-75 61v35zM547 647l6 45l301 328q53 53 53 100q0 57 -108 64l-6 14l16 127q172 -10 256 -10l240 8l14 -23l-16 -116q-63 -27 -122 -77t-147 -157l-211 -237l271 -414 q61 -92 113.5 -133t119.5 -45l12 -19l-16 -108q-203 -25 -240 -25q-121 0 -227 172z" />
<glyph unicode="&#x137;" horiz-adv-x="1062" d="M6 1360l10 94l422 66l15 -39q-27 -33 -45.5 -391.5t-18.5 -872.5q0 -51 14.5 -71.5t47.5 -20.5l53 4l4 -12l-23 -125q-141 8 -223 8l-227 -12l14 129q63 8 80.5 39.5t17.5 117.5v949q0 98 -57 110h-80zM332 -555q61 43 100 100.5t39 108.5q0 84 -72 141l7 29 q90 72 161 72q61 0 101.5 -48.5t40.5 -128.5q0 -102 -85 -200.5t-216 -169.5l-76 61v35zM420 483l6 45l197 197q43 43 43 70q0 41 -107 41l-6 10l18 104q143 -4 246 -4l221 8l6 -10l-18 -117q-37 -14 -72.5 -34.5t-83 -62.5t-65 -56.5t-78.5 -75.5l-63 -63l172 -267 q98 -143 208 -151l9 -17l-15 -102q-100 -23 -149 -25t-90 7q-53 12 -91 46.5t-83 112.5z" />
<glyph unicode="&#x138;" horiz-adv-x="1099" d="M49 815l12 111l375 45l19 -27q-29 -115 -29 -727q0 -51 14.5 -71.5t46.5 -20.5l54 4l6 -12l-23 -125q-143 8 -223 8l-240 -12l17 129q66 8 86 40.5t20 116.5v418q0 66 -23.5 88.5t-101.5 22.5zM459 483l4 45l199 197q41 43 40 70q0 41 -106 41l-6 10l18 104 q143 -4 246 -4l221 8l6 -10l-18 -117q-37 -14 -73 -34.5t-83 -62.5t-64.5 -56.5t-79 -75.5t-63.5 -63l174 -267q94 -143 207 -151l11 -17l-17 -102q-98 -23 -149 -25q-49 -2 -90 7q-53 12 -91 47.5t-81 111.5z" />
<glyph unicode="&#x139;" horiz-adv-x="1087" d="M86 -20l14 139q78 12 108 50t30 126v780q0 63 -14.5 85t-59.5 22l-62 -2l-10 16l14 121q20 0 123 -1t156 -1l317 14l-16 -145q-100 -12 -125.5 -39t-30.5 -111q-23 -305 -22 -749q0 -78 23.5 -100.5t103.5 -22.5q145 0 193.5 56t68.5 255l174 19l14 -21 q-35 -223 -55 -465l-18 -22q-334 16 -576 16q-82 0 -169 -5t-134 -10zM211 1542l457 213l24 -10l53 -158l-12 -26q-236 -59 -469 -134l-26 19z" />
<glyph unicode="&#x13a;" horiz-adv-x="542" d="M6 1360l10 94l422 66l15 -39q-27 -33 -45.5 -392.5t-18.5 -871.5q0 -51 13.5 -71.5t46.5 -20.5l69 4l4 -12l-20 -123q-154 6 -236 6l-235 -18l16 129q66 14 83 46.5t17 116.5v949q0 98 -57 110h-80zM109 1649q74 74 159.5 160.5t133.5 138.5l49 51l28 -2l111 -144l-2 -28 q-197 -123 -387 -264l-31 8z" />
<glyph unicode="&#x13b;" horiz-adv-x="1087" d="M86 -20l14 139q78 12 108 50t30 126v780q0 63 -14.5 85t-59.5 22l-62 -2l-10 16l14 121q20 0 123 -1t156 -1l317 14l-16 -145q-100 -12 -125.5 -39t-30.5 -111q-23 -305 -22 -749q0 -78 23.5 -100.5t103.5 -22.5q145 0 193.5 56t68.5 255l174 19l14 -21 q-35 -223 -55 -465l-18 -22q-334 16 -576 16q-82 0 -169 -5t-134 -10zM377 -555q61 43 100 100.5t39 108.5q0 84 -72 141l7 29q90 72 161 72q61 0 101.5 -48.5t40.5 -128.5q0 -102 -85 -200.5t-216 -169.5l-76 61v35z" />
<glyph unicode="&#x13c;" horiz-adv-x="542" d="M6 1360l10 94l422 66l15 -39q-27 -33 -45.5 -392.5t-18.5 -871.5q0 -51 13.5 -71.5t46.5 -20.5l69 4l4 -12l-20 -123q-154 6 -236 6l-235 -18l16 129q66 14 83 46.5t17 116.5v949q0 98 -57 110h-80zM45 -555q61 43 100 100.5t39 108.5q1 84 -71 141l6 29q90 72 162 72 q61 0 101 -48.5t40 -128.5q0 -102 -85 -200.5t-216 -169.5l-76 61v35z" />
<glyph unicode="&#x13d;" horiz-adv-x="1099" d="M86 -20l14 139q78 12 108 50t30 126v780q0 63 -14.5 85t-59.5 22l-62 -2l-10 16l14 121q20 0 123 -1t156 -1l317 14l-16 -145q-100 -12 -125.5 -39t-30.5 -111q-23 -305 -22 -749q0 -78 23.5 -100.5t103.5 -22.5q145 0 193.5 56t68.5 255l174 19l14 -21 q-35 -223 -55 -465l-18 -22q-334 16 -576 16q-82 0 -169 -5t-134 -10zM860 1282l207 29l16 -21q-31 -225 -79 -444l-99 -39l-28 8q2 104 -2.5 221t-9.5 182z" />
<glyph unicode="&#x13e;" horiz-adv-x="745" d="M6 1360l10 94l422 66l15 -39q-27 -33 -45.5 -392.5t-18.5 -871.5q0 -51 13.5 -71.5t46.5 -20.5l69 4l4 -12l-20 -123q-154 6 -236 6l-235 -18l16 129q66 14 83 46.5t17 116.5v949q0 98 -57 110h-80zM522 1389l207 28l16 -20q-31 -223 -79 -443l-99 -39l-30 9 q2 104 -1.5 220t-8.5 180z" />
<glyph unicode="&#x13f;" horiz-adv-x="1134" d="M86 -20l14 139q78 12 108 50t30 126v780q0 63 -14.5 85t-59.5 22l-62 -2l-10 16l14 121q20 0 123 -1t156 -1l317 14l-16 -145q-100 -12 -125.5 -39t-30.5 -111q-23 -305 -22 -749q0 -78 23.5 -100.5t103.5 -22.5q145 0 193.5 56t68.5 255l174 19l14 -21 q-35 -223 -55 -465l-18 -22q-334 16 -576 16q-82 0 -169 -5t-134 -10zM774 934q0 74 45 121t121 47q72 0 113 -43t41 -113q0 -74 -45 -121t-121 -47t-115 42t-39 114z" />
<glyph unicode="&#x140;" horiz-adv-x="806" d="M6 1360l10 94l422 66l15 -39q-27 -33 -45.5 -392.5t-18.5 -871.5q0 -51 13.5 -71.5t46.5 -20.5l69 4l4 -12l-20 -123q-154 6 -236 6l-235 -18l16 129q66 14 83 46.5t17 116.5v949q0 98 -57 110h-80zM483 590q0 74 45 121t121 47q72 0 113 -43t41 -113q0 -74 -45 -121 t-121 -47t-115 42t-39 114z" />
<glyph unicode="&#x141;" horiz-adv-x="1159" d="M80 612l182 90v373q0 63 -14.5 85t-59.5 22l-61 -2l-10 16l14 121q20 0 122.5 -1t156.5 -1l317 14l-16 -145q-100 -12 -126 -39t-30 -111q-9 -104 -12 -221l272 137l16 -8l35 -125l-329 -166q-4 -123 -5 -366q0 -78 24 -100.5t103 -22.5q145 0 193.5 56t69.5 255l174 19 l14 -21q-35 -223 -55 -465l-19 -22q-333 16 -575 16q-82 0 -169 -5t-134 -10l-47 -5l14 139q78 12 107.5 50t29.5 126v250l-127 -64l-20 4z" />
<glyph unicode="&#x142;" horiz-adv-x="606" d="M-2 696l178 92v435q0 98 -57 110h-80l-4 27l10 94l422 66l14 -39q-37 -43 -53 -586l123 66l16 -9l37 -125l-180 -94q-6 -238 -6 -516q0 -51 13 -71.5t46 -20.5l70 4l4 -12l-21 -123q-154 6 -235 6l-236 -18l17 129q66 14 83 46.5t17 116.5v355l-123 -64l-18 4z" />
<glyph unicode="&#x143;" horiz-adv-x="1492" d="M70 1206l14 119q137 -10 238 -10l196 8q119 -193 255 -403.5t214 -324.5l78 -114h20l-4 613q-2 88 -67 88q-16 0 -42 -1t-28 -1l-8 16l14 127q174 -8 264 -8l242 10l-10 -137q-68 -10 -97.5 -39t-31.5 -90l-27 -1088l-217 -26q-141 225 -289.5 452.5t-227.5 341.5 l-79 115h-20l-2 -631q0 -51 15 -71.5t54 -20.5l88 6l13 -14l-21 -131q-176 8 -264 8q-49 0 -112.5 -4t-101.5 -8l-38 -4l16 137q119 14 121 129l27 809q0 66 -33 91.5t-133 35.5zM596 1542l457 213l24 -10l53 -158l-12 -26q-236 -59 -469 -134l-26 19z" />
<glyph unicode="&#x144;" horiz-adv-x="1167" d="M49 795l12 108l381 68l17 -21q-18 -72 -23 -141l8 -8q195 170 265 170q145 0 227 -71t82 -195q0 -37 -18.5 -233t-18.5 -249t14.5 -74.5t48.5 -21.5l62 2l4 -8l-18 -127q-145 6 -224 6l-229 -16l12 129q92 23 94 114l7 351q0 178 -131 178q-70 0 -177 -76 q-20 -373 -20 -459q0 -51 13.5 -71.5t47.5 -20.5l54 4l6 -10l-23 -129q-135 6 -217 6l-244 -12l17 131q59 6 82.5 30.5t23.5 81.5v431q0 72 -21.5 97t-78.5 25h-27zM442 1159q74 74 160 161t134 138l48 51l29 -2l111 -143l-2 -29q-197 -123 -387 -264l-31 8z" />
<glyph unicode="&#x145;" horiz-adv-x="1492" d="M70 1206l14 119q137 -10 238 -10l196 8q119 -193 255 -403.5t214 -324.5l78 -114h20l-4 613q-2 88 -67 88q-16 0 -42 -1t-28 -1l-8 16l14 127q174 -8 264 -8l242 10l-10 -137q-68 -10 -97.5 -39t-31.5 -90l-27 -1088l-217 -26q-141 225 -289.5 452.5t-227.5 341.5 l-79 115h-20l-2 -631q0 -51 15 -71.5t54 -20.5l88 6l13 -14l-21 -131q-176 8 -264 8q-49 0 -112.5 -4t-101.5 -8l-38 -4l16 137q119 14 121 129l27 809q0 66 -33 91.5t-133 35.5zM541 -555q61 43 100 100.5t39 108.5q0 84 -72 141l6 29q90 72 162 72q61 0 101.5 -48.5 t40.5 -128.5q0 -102 -85 -200.5t-217 -169.5l-75 61v35z" />
<glyph unicode="&#x146;" horiz-adv-x="1167" d="M49 795l12 108l381 68l17 -21q-18 -72 -23 -141l8 -8q195 170 265 170q145 0 227 -71t82 -195q0 -37 -18.5 -233t-18.5 -249t14.5 -74.5t48.5 -21.5l62 2l4 -8l-18 -127q-145 6 -224 6l-229 -16l12 129q92 23 94 114l7 351q0 178 -131 178q-70 0 -177 -76 q-20 -373 -20 -459q0 -51 13.5 -71.5t47.5 -20.5l54 4l6 -10l-23 -129q-135 6 -217 6l-244 -12l17 131q59 6 82.5 30.5t23.5 81.5v431q0 72 -21.5 97t-78.5 25h-27zM358 -555q61 43 100.5 100.5t39.5 108.5q0 84 -72 141l6 29q90 72 162 72q61 0 101 -48.5t40 -128.5 q0 -102 -85 -200.5t-216 -169.5l-76 61v35z" />
<glyph unicode="&#x147;" horiz-adv-x="1492" d="M70 1206l14 119q137 -10 238 -10l196 8q119 -193 255 -403.5t214 -324.5l78 -114h20l-4 613q-2 88 -67 88q-16 0 -42 -1t-28 -1l-8 16l14 127q174 -8 264 -8l242 10l-10 -137q-68 -10 -97.5 -39t-31.5 -90l-27 -1088l-217 -26q-141 225 -289.5 452.5t-227.5 341.5 l-79 115h-20l-2 -631q0 -51 15 -71.5t54 -20.5l88 6l13 -14l-21 -131q-176 8 -264 8q-49 0 -112.5 -4t-101.5 -8l-38 -4l16 137q119 14 121 129l27 809q0 66 -33 91.5t-133 35.5zM430 1679l49 84l33 9q102 -51 260 -119q98 41 258 119l33 -9l51 -84q-68 -49 -148.5 -112.5 t-126.5 -102.5l-46 -39h-41q-170 143 -322 254z" />
<glyph unicode="&#x148;" horiz-adv-x="1167" d="M49 795l12 108l381 68l17 -21q-18 -72 -23 -141l8 -8q195 170 265 170q145 0 227 -71t82 -195q0 -37 -18.5 -233t-18.5 -249t14.5 -74.5t48.5 -21.5l62 2l4 -8l-18 -127q-145 6 -224 6l-229 -16l12 129q92 23 94 114l7 351q0 178 -131 178q-70 0 -177 -76 q-20 -373 -20 -459q0 -51 13.5 -71.5t47.5 -20.5l54 4l6 -10l-23 -129q-135 6 -217 6l-244 -12l17 131q59 6 82.5 30.5t23.5 81.5v431q0 72 -21.5 97t-78.5 25h-27zM274 1391l62 86l31 6q109 -86 247 -174q154 102 244 174l33 -6l61 -86q-68 -63 -147.5 -144.5 t-125.5 -130.5l-46 -49h-41q-168 181 -318 324z" />
<glyph unicode="&#x14a;" horiz-adv-x="1488" d="M74 1210l14 115q153 -10 229 -10l197 8q106 -178 245.5 -392t225.5 -339l86 -125h19l-3 631q0 88 -67 88l-72 -2l-8 12l16 127q197 -8 263 -8l235 12l-10 -135q-70 -8 -99.5 -38t-31.5 -91l-21 -887q-6 -203 -100 -322.5t-303 -187.5l-55 82l6 23q88 53 134 107t66 130 q-137 215 -279.5 431t-215.5 324l-74 107h-18l-4 -649q2 -53 17 -72.5t54 -19.5l88 4l10 -12l-18 -129q-170 8 -297 8l-211 -16l17 133q66 8 93 42t29 113l25 791q0 63 -33 89t-135 38z" />
<glyph unicode="&#x14b;" horiz-adv-x="1122" d="M49 795l12 108l381 68l17 -21q-18 -72 -23 -141l8 -8q63 61 145.5 115.5t119.5 54.5q145 0 227 -71t82 -195l-33 -515q-16 -215 -106.5 -328.5t-298.5 -176.5l-58 84l4 22q133 82 176 168t48 268l2 351q0 178 -131 178q-74 0 -177 -76q-20 -430 -20 -459 q0 -51 13.5 -71.5t47.5 -20.5l54 4l6 -10l-23 -129q-135 6 -217 6l-244 -12l17 131q59 6 82.5 30.5t23.5 81.5v431q0 72 -21.5 97t-78.5 25h-27z" />
<glyph unicode="&#x14c;" horiz-adv-x="1380" d="M57 623q0 324 184.5 520t487.5 196q279 0 436.5 -170t157.5 -471q0 -326 -186.5 -524.5t-491.5 -198.5q-272 0 -430 174.5t-158 473.5zM375 705q0 -268 83.5 -409.5t237.5 -141.5q145 0 226.5 113.5t81.5 322.5q0 270 -86.5 410.5t-245.5 140.5q-141 0 -219 -114 t-78 -322zM377 1473l29 155q195 -2 315 -2l260 12l16 -28l-24 -158l-289 -2l-285 -2z" />
<glyph unicode="&#x14d;" horiz-adv-x="1030" d="M51 444q0 236 137.5 381.5t358.5 145.5q199 0 315.5 -126t116.5 -343q0 -236 -136.5 -381.5t-357.5 -145.5q-197 0 -315.5 128t-118.5 341zM219 1210l29 156q195 -2 315 -2l260 12l17 -28l-25 -156l-289 -2l-284 -2zM324 520q-1 -387 202 -387q176 0 176 275 q0 387 -202 387q-176 0 -176 -275z" />
<glyph unicode="&#x14e;" horiz-adv-x="1380" d="M57 623q0 324 184.5 520t487.5 196q279 0 436.5 -170t157.5 -471q0 -326 -186.5 -524.5t-491.5 -198.5q-272 0 -430 174.5t-158 473.5zM362 1724l58 70l35 8q55 -139 210.5 -139t211.5 139l34 -8l58 -70q-31 -111 -107 -183.5t-196.5 -72.5t-196.5 73t-107 183zM375 705 q0 -268 83.5 -409.5t237.5 -141.5q145 0 226.5 113.5t81.5 322.5q0 270 -86.5 410.5t-245.5 140.5q-141 0 -219 -114t-78 -322z" />
<glyph unicode="&#x14f;" horiz-adv-x="1030" d="M51 444q0 236 137.5 381.5t358.5 145.5q199 0 315.5 -126t116.5 -343q0 -236 -136.5 -381.5t-357.5 -145.5q-197 0 -315.5 128t-118.5 341zM238 1376l57 70l35 8q55 -139 210.5 -139t211.5 139l34 -8l58 -70q-31 -111 -106.5 -183.5t-196.5 -72.5t-197 73t-106 183z M324 520q-1 -387 202 -387q176 0 176 275q0 387 -202 387q-176 0 -176 -275z" />
<glyph unicode="&#x150;" horiz-adv-x="1380" d="M57 623q0 324 184.5 520t487.5 196q279 0 436.5 -170t157.5 -471q0 -326 -186.5 -524.5t-491.5 -198.5q-272 0 -430 174.5t-158 473.5zM375 705q0 -268 83.5 -409.5t237.5 -141.5q145 0 226.5 113.5t81.5 322.5q0 270 -86.5 410.5t-245.5 140.5q-141 0 -219 -114 t-78 -322zM401 1481q309 274 310 274l24 -2l88 -127l-2 -24q-172 -94 -344 -201l-28 10zM745 1470q309 274 310 275l24 -4l88 -123l-2 -25q-174 -94 -346 -200l-24 8z" />
<glyph unicode="&#x151;" horiz-adv-x="1030" d="M51 444q0 236 137.5 381.5t358.5 145.5q199 0 315.5 -126t116.5 -343q0 -236 -136.5 -381.5t-357.5 -145.5q-197 0 -315.5 128t-118.5 341zM260 1147l254 340l25 2l116 -103v-22q-152 -131 -303 -277l-28 3zM324 520q-1 -387 202 -387q176 0 176 275q0 387 -202 387 q-176 0 -176 -275zM555 1147l256 340l23 2l118 -103v-22q-152 -131 -303 -277l-28 3z" />
<glyph unicode="&#x152;" horiz-adv-x="1925" d="M59 623q0 324 179.5 515t480.5 191q63 0 212.5 -13t244.5 -13q377 0 639 36l16 -22q-37 -182 -47 -373l-187 -12q4 53 5 82q0 84 -45.5 106.5t-217.5 22.5q-72 0 -88 -10.5t-18 -57.5l-14 -317l190 -2l238 16l16 -18l-29 -176q-164 6 -266 6l-158 -13l-4 -286 q0 -82 21.5 -102.5t109.5 -20.5q190 0 244.5 40t75.5 193l174 15l14 -21q-37 -184 -55 -381l-21 -22q-391 18 -643 18q-98 0 -261 -13.5t-222 -13.5q-270 0 -427 173.5t-157 472.5zM373 707q0 -272 81.5 -414.5t235.5 -142.5q137 0 197.5 61t62.5 203l2 516q0 125 -60.5 172 t-213.5 47q-143 0 -224 -115.5t-81 -326.5z" />
<glyph unicode="&#x153;" horiz-adv-x="1579" d="M51 444q0 236 135.5 381.5t354.5 145.5q100 0 187 -51.5t118 -104.5q43 55 137 105.5t186 50.5q176 0 261.5 -90t85.5 -250l-19 -129l-24 -23h-525v-20q10 -135 76.5 -209t179.5 -74q57 0 118.5 15.5t94.5 30.5l33 16l16 -7l33 -104q-23 -16 -60.5 -42t-132 -68 t-159.5 -42q-109 0 -203 48.5t-133 107.5q-39 -53 -134 -104.5t-198 -51.5q-193 0 -310.5 128t-117.5 341zM324 520q-1 -387 196 -387q170 0 170 275q0 387 -196 387q-170 0 -170 -275zM948 592l275 16q23 2 31 11.5t8 35.5q0 152 -129 152q-166 0 -185 -215z" />
<glyph unicode="&#x154;" horiz-adv-x="1316" d="M74 -12l18 137q86 12 116 46t30 122l2 788q0 59 -13.5 80t-52.5 21l-72 -4l-10 16l17 125q178 -4 258 -4l313 10q236 0 360.5 -91t124.5 -261q0 -248 -274 -391l178 -287q57 -94 110.5 -136t116.5 -42l15 -19l-15 -108l-243 -23q-135 0 -224 191l-176 356h-143l-2 -225 q0 -102 23.5 -129t121.5 -29l9 -12l-21 -127q0 6 -274 6zM483 1542l457 213l25 -10l53 -158l-12 -26q-236 -59 -469 -134l-27 19zM516 698l184 -20q174 74 174 256q0 221 -305 221q-20 0 -27 -8t-10 -37q-12 -209 -16 -412z" />
<glyph unicode="&#x155;" horiz-adv-x="845" d="M55 797l13 106l374 68l21 -19q-20 -102 -23 -190l13 -8q63 94 140 148t148 54l70 -8l8 -16q-33 -207 -41 -375l-133 -8q0 98 -12 130t-47 32q-70 0 -135 -88q-18 -356 -19 -394q0 -53 16.5 -73.5t61.5 -20.5l104 8l7 -12l-23 -139q-170 8 -268 8l-258 -8l16 127 q61 4 83 32.5t22 106.5v406q0 70 -18.5 95t-70.5 25l-38 -2zM143 1159q74 74 160 161t134 138l48 51l29 -2l111 -143l-2 -29q-197 -123 -387 -264l-31 8z" />
<glyph unicode="&#x156;" horiz-adv-x="1316" d="M74 -12l18 137q86 12 116 46t30 122l2 788q0 59 -13.5 80t-52.5 21l-72 -4l-10 16l17 125q178 -4 258 -4l313 10q236 0 360.5 -91t124.5 -261q0 -248 -274 -391l178 -287q57 -94 110.5 -136t116.5 -42l15 -19l-15 -108l-243 -23q-135 0 -224 191l-176 356h-143l-2 -225 q0 -102 23.5 -129t121.5 -29l9 -12l-21 -127q0 6 -274 6zM459 -555q61 43 100 100.5t39 108.5q0 84 -72 141l6 29q90 72 162 72q61 0 101.5 -48.5t40.5 -128.5q0 -102 -85 -200.5t-216 -169.5l-76 61v35zM516 698l184 -20q174 74 174 256q0 221 -305 221q-20 0 -27 -8 t-10 -37q-12 -209 -16 -412z" />
<glyph unicode="&#x157;" horiz-adv-x="845" d="M55 797l13 106l374 68l21 -19q-20 -102 -23 -190l13 -8q63 94 140 148t148 54l70 -8l8 -16q-33 -207 -41 -375l-133 -8q0 98 -12 130t-47 32q-70 0 -135 -88q-18 -356 -19 -394q0 -53 16.5 -73.5t61.5 -20.5l104 8l7 -12l-23 -139q-170 8 -268 8l-258 -8l16 127 q61 4 83 32.5t22 106.5v406q0 70 -18.5 95t-70.5 25l-38 -2zM104 -555q61 43 100.5 100.5t39.5 108.5q0 84 -72 141l6 29q90 72 162 72q61 0 101 -48.5t40 -128.5q0 -102 -85 -200.5t-216 -169.5l-76 61v35z" />
<glyph unicode="&#x158;" horiz-adv-x="1316" d="M74 -12l18 137q86 12 116 46t30 122l2 788q0 59 -13.5 80t-52.5 21l-72 -4l-10 16l17 125q178 -4 258 -4l313 10q236 0 360.5 -91t124.5 -261q0 -248 -274 -391l178 -287q57 -94 110.5 -136t116.5 -42l15 -19l-15 -108l-243 -23q-135 0 -224 191l-176 356h-143l-2 -225 q0 -102 23.5 -129t121.5 -29l9 -12l-21 -127q0 6 -274 6zM319 1679l50 84l32 9q102 -51 261 -119q98 41 258 119l32 -9l52 -84q-68 -49 -149 -112.5t-127 -102.5l-46 -39h-41q-170 143 -322 254zM516 698l184 -20q174 74 174 256q0 221 -305 221q-20 0 -27 -8t-10 -37 q-12 -209 -16 -412z" />
<glyph unicode="&#x159;" horiz-adv-x="845" d="M-25 1391l62 86l31 6q109 -86 247 -174q154 102 244 174l33 -6l61 -86q-68 -63 -147.5 -144.5t-125.5 -130.5l-46 -49h-41q-168 181 -318 324zM55 797l13 106l374 68l21 -19q-20 -102 -23 -190l13 -8q63 94 140 148t148 54l70 -8l8 -16q-33 -207 -41 -375l-133 -8 q0 98 -12 130t-47 32q-70 0 -135 -88q-18 -356 -19 -394q0 -53 16.5 -73.5t61.5 -20.5l104 8l7 -12l-23 -139q-170 8 -268 8l-258 -8l16 127q61 4 83 32.5t22 106.5v406q0 70 -18.5 95t-70.5 25l-38 -2z" />
<glyph unicode="&#x15a;" horiz-adv-x="1105" d="M139 82q31 180 33 348l172 14q0 -168 47 -227t178 -59q96 0 154.5 43t58.5 114q0 23 -7 44.5t-27.5 42t-35 34t-51 33.5t-53 28.5t-65.5 32t-64 31.5q-152 74 -237.5 156t-85.5 213q0 180 153.5 294.5t392.5 114.5q204 0 353 -55l14 -27q-35 -166 -49 -352l-156 -12 l-18 14q2 33 2 72q0 90 -46 128t-153 38q-84 0 -139 -41t-55 -105q0 -37 19.5 -68.5t64.5 -62t79.5 -48t104.5 -50.5q86 -41 133 -67.5t109.5 -74.5t92 -106.5t29.5 -132.5q0 -188 -155.5 -301t-415.5 -113q-96 0 -186 19.5t-132 39.5l-42 19zM383 1542l457 213l24 -10 l54 -158l-13 -26q-236 -59 -469 -134l-26 19z" />
<glyph unicode="&#x15b;" horiz-adv-x="837" d="M59 53q18 131 27 269l117 12q0 -207 180 -207q57 0 96 25.5t39 64.5q0 41 -40 74t-162.5 90t-179 121.5t-56.5 152.5q0 139 118.5 227.5t307.5 88.5q59 0 116.5 -9.5t85.5 -18.5l27 -9l13 -23q-27 -129 -39 -266l-119 -6q4 25 4 35q-2 139 -143 139q-53 0 -88 -24.5 t-35 -63.5q0 -74 137 -139q178 -84 240.5 -147.5t62.5 -155.5q0 -129 -122 -218.5t-300 -89.5q-74 0 -142.5 14.5t-100.5 27.5l-31 14zM272 1159q74 74 160 161t134 138l48 51l29 -2l111 -143l-2 -29q-197 -123 -387 -264l-31 8z" />
<glyph unicode="&#x15c;" horiz-adv-x="1105" d="M74 82q31 180 32 348l173 14q0 -168 47 -227t178 -59q96 0 154.5 43t58.5 114q0 23 -7.5 44.5t-27.5 42t-34.5 34t-51.5 33.5t-53.5 28.5t-65.5 32t-63 31.5q-152 74 -238 156t-86 213q0 180 153.5 294.5t393.5 114.5q204 0 352 -55l15 -27q-35 -166 -50 -352l-155 -12 l-19 14q2 33 2 72q0 90 -46 128t-152 38q-84 0 -139.5 -41t-55.5 -105q0 -37 19.5 -68.5t64.5 -62t80 -48t104 -50.5q86 -41 133.5 -67.5t110 -74.5t92 -106.5t29.5 -132.5q0 -188 -155.5 -301t-415.5 -113q-96 0 -186.5 19.5t-132.5 39.5l-42 19zM268 1536q145 139 312 315 h41q164 -176 309 -315l-60 -84l-30 -8q-41 33 -240 170q-145 -94 -240 -170l-32 8z" />
<glyph unicode="&#x15d;" horiz-adv-x="837" d="M59 53q18 131 27 269l117 12q0 -207 180 -207q57 0 96 25.5t39 64.5q0 41 -40 74t-162.5 90t-179 121.5t-56.5 152.5q0 139 118.5 227.5t307.5 88.5q59 0 116.5 -9.5t85.5 -18.5l27 -9l13 -23q-27 -129 -39 -266l-119 -6q4 25 4 35q-2 139 -143 139q-53 0 -88 -24.5 t-35 -63.5q0 -74 137 -139q178 -84 240.5 -147.5t62.5 -155.5q0 -129 -122 -218.5t-300 -89.5q-74 0 -142.5 14.5t-100.5 27.5l-31 14zM98 1180q145 139 312 315h41q164 -176 309 -315l-60 -84l-30 -9q-41 33 -240 170q-145 -94 -240 -170l-32 9z" />
<glyph unicode="&#x15e;" horiz-adv-x="1105" d="M139 82q31 180 33 348l172 14q0 -168 47 -227t178 -59q96 0 154.5 43t58.5 114q0 23 -7 44.5t-27.5 42t-35 34t-51 33.5t-53 28.5t-65.5 32t-64 31.5q-152 74 -237.5 156t-85.5 213q0 180 153.5 294.5t392.5 114.5q204 0 353 -55l14 -27q-35 -166 -49 -352l-156 -12 l-18 14q2 33 2 72q0 90 -46 128t-153 38q-84 0 -139 -41t-55 -105q0 -37 19.5 -68.5t64.5 -62t79.5 -48t104.5 -50.5q86 -41 133 -67.5t109.5 -74.5t92 -106.5t29.5 -132.5q0 -178 -143 -289.5t-383 -122.5l-18 -67q55 -33 89 -54.5t70.5 -63.5t36.5 -81q0 -80 -83 -138 t-189 -58q-57 0 -108.5 24.5t-51.5 63.5t76 129h18q2 -55 31 -85t76 -30q35 0 58.5 17.5t23.5 43.5q0 54 -176 146l43 153q-82 6 -157 24.5t-110 35.5l-34 16z" />
<glyph unicode="&#x15f;" horiz-adv-x="837" d="M59 53q18 131 27 269l117 12q0 -207 180 -207q57 0 96 25.5t39 64.5q0 41 -40 74t-162.5 90t-179 121.5t-56.5 152.5q0 139 118.5 227.5t307.5 88.5q59 0 116.5 -9.5t85.5 -18.5l27 -9l13 -23q-27 -129 -39 -266l-119 -6q4 25 4 35q-2 139 -143 139q-53 0 -88 -24.5 t-35 -63.5q0 -74 137 -139q178 -84 240.5 -147.5t62.5 -155.5q0 -113 -94 -196t-242 -105l-20 -72q55 -33 89 -54.5t70.5 -63.5t36.5 -81q0 -80 -83 -138t-189 -58q-57 0 -108.5 24.5t-51.5 63.5t76 129h18q2 -55 31 -85t76 -30q35 0 58.5 17.5t23.5 43.5q0 54 -176 146 l41 151q-68 2 -131.5 15.5t-92.5 26.5l-28 14z" />
<glyph unicode="&#x160;" horiz-adv-x="1105" d="M139 82q31 180 33 348l172 14q0 -168 47 -227t178 -59q96 0 154.5 43t58.5 114q0 23 -7 44.5t-27.5 42t-35 34t-51 33.5t-53 28.5t-65.5 32t-64 31.5q-152 74 -237.5 156t-85.5 213q0 180 153.5 294.5t392.5 114.5q204 0 353 -55l14 -27q-35 -166 -49 -352l-156 -12 l-18 14q2 33 2 72q0 90 -46 128t-153 38q-84 0 -139 -41t-55 -105q0 -37 19.5 -68.5t64.5 -62t79.5 -48t104.5 -50.5q86 -41 133 -67.5t109.5 -74.5t92 -106.5t29.5 -132.5q0 -188 -155.5 -301t-415.5 -113q-96 0 -186 19.5t-132 39.5l-42 19zM219 1679l49 84l33 9 q102 -51 260 -119q98 41 258 119l33 -9l51 -84q-68 -49 -148.5 -112.5t-126.5 -102.5l-46 -39h-41q-170 143 -322 254z" />
<glyph unicode="&#x161;" horiz-adv-x="837" d="M59 53q18 131 27 269l117 12q0 -207 180 -207q57 0 96 25.5t39 64.5q0 41 -40 74t-162.5 90t-179 121.5t-56.5 152.5q0 139 118.5 227.5t307.5 88.5q59 0 116.5 -9.5t85.5 -18.5l27 -9l13 -23q-27 -129 -39 -266l-119 -6q4 25 4 35q-2 139 -143 139q-53 0 -88 -24.5 t-35 -63.5q0 -74 137 -139q178 -84 240.5 -147.5t62.5 -155.5q0 -129 -122 -218.5t-300 -89.5q-74 0 -142.5 14.5t-100.5 27.5l-31 14zM104 1391l62 86l31 6q109 -86 247 -174q154 102 244 174l33 -6l61 -86q-68 -63 -147.5 -144.5t-125.5 -130.5l-46 -49h-41 q-168 181 -318 324z" />
<glyph unicode="&#x162;" horiz-adv-x="1165" d="M10 874q18 240 23 441l22 22l207 -22h637l211 22l23 -22l20 -428l-172 -13q-23 190 -58.5 232.5t-189.5 46.5q-23 -334 -22 -877q0 -76 25.5 -107.5t86.5 -31.5l109 6l8 -10l-18 -141q-172 6 -293 8l-25 -90q55 -33 89 -54.5t71 -63.5t37 -81q0 -80 -83 -138t-190 -58 q-57 0 -108 24.5t-51 63.5t75 129h19q2 -55 30.5 -85t75.5 -30q35 0 58.5 17.5t23.5 43.5q0 54 -176 146l49 176l-303 -12l17 135q135 12 169.5 48t34.5 167v815q-88 -2 -131 -9t-71.5 -41t-36.5 -76t-21 -140z" />
<glyph unicode="&#x163;" horiz-adv-x="679" d="M8 807l15 102q178 84 348 221l57 -30q-12 -66 -22 -178l239 6l8 -10l-20 -140l-240 6q-12 -238 -12 -442q0 -86 30.5 -125t100.5 -39q25 0 55.5 7.5t47.5 14.5l18 7l24 -68q-170 -160 -233 -164l-18 -65q55 -33 88.5 -54.5t70.5 -63.5t37 -81q0 -80 -83 -138t-189 -58 q-57 0 -108.5 24.5t-51.5 63.5t76 129h18q2 -55 31 -85t76 -30q35 0 58.5 17.5t23.5 43.5q-1 54 -177 146l46 160q-182 37 -183 243v455q0 63 -22.5 86t-87.5 25z" />
<glyph unicode="&#x164;" horiz-adv-x="1165" d="M10 874q18 240 23 441l22 22l207 -22h637l211 22l23 -22l20 -428l-172 -13q-23 190 -58.5 232.5t-189.5 46.5q-23 -334 -22 -877q0 -76 25.5 -107.5t86.5 -31.5l109 6l8 -10l-18 -141q-250 8 -357 8l-344 -12l17 135q135 12 169.5 48t34.5 167v815q-88 -2 -131 -9 t-71.5 -41t-36.5 -76t-21 -140zM248 1679l49 84l33 9q102 -51 260 -119q98 41 258 119l33 -9l51 -84q-68 -49 -149 -112.5t-127 -102.5l-46 -39h-41q-170 143 -321 254z" />
<glyph unicode="&#x165;" horiz-adv-x="897" d="M8 807l15 102q178 84 348 221l57 -30q-12 -66 -22 -178l217 6l8 -10l-21 -140l-217 6q-12 -238 -12 -442q0 -86 30.5 -125t100.5 -39q25 0 55.5 7.5t47.5 14.5l18 7l24 -68q-172 -164 -235 -164q-145 0 -214 60.5t-69 191.5v455q0 63 -22.5 86t-87.5 25zM690 1067l207 29 l16 -21q-31 -223 -77 -442l-99 -39l-30 6q2 104 -2.5 221t-9.5 181z" />
<glyph unicode="&#x166;" horiz-adv-x="1165" d="M10 874q18 240 23 441l22 22l207 -22h637l211 22l23 -22l20 -428l-172 -13q-23 190 -58.5 232.5t-189.5 46.5q-12 -147 -18 -471l151 8l29 -28l-8 -95l-174 -2q-2 -98 -2 -289q0 -76 25.5 -107.5t86.5 -31.5l109 6l8 -10l-18 -141q-250 8 -357 8l-344 -12l17 135 q135 12 169.5 48t34.5 167v227l-176 -2l-20 21l16 98q86 -2 180 -2v473q-88 -2 -131 -9t-71.5 -41t-36.5 -76t-21 -140z" />
<glyph unicode="&#x167;" horiz-adv-x="710" d="M12 481l15 99q59 -2 127 -2v104q0 63 -22.5 86t-88.5 25l-20 14l14 102q178 84 348 221l57 -30q-12 -66 -22 -178l239 6l9 -10l-21 -140l-239 6q-8 -117 -11 -206l215 8l29 -29l-10 -92l-236 -2v-121q0 -86 31 -125t100 -39q25 0 54.5 7.5t48.5 14.5l18 7l25 -68 q-172 -164 -236 -164q-145 0 -213.5 60.5t-68.5 191.5v236l-121 -2z" />
<glyph unicode="&#x168;" horiz-adv-x="1341" d="M37 1186l18 135q176 -6 293 -6l244 12l-14 -139q-63 -8 -87 -30.5t-28 -78.5l-14 -596q0 -154 65.5 -237.5t187.5 -83.5q250 0 250 266l-8 643q-2 68 -14 89.5t-51 21.5l-68 -4l-4 8l16 135q162 -6 240 -6l244 12l-13 -137q-76 -16 -97 -34.5t-21 -68.5v-636 q0 -231 -136.5 -353.5t-392.5 -122.5q-475 0 -475 443v653q0 68 -12.5 89.5t-53.5 21.5l-65 -4zM309 1536v23l162 206l33 9q37 0 157.5 -34t149.5 -34q20 0 54 28.5t57 57.5l22 29h23l80 -76v-21l-160 -208l-35 -9q-35 0 -156 35t-149 35q-23 0 -56.5 -28.5t-55.5 -57.5 l-21 -29h-23z" />
<glyph unicode="&#x169;" horiz-adv-x="1120" d="M31 782l12 121l375 68l20 -35q-23 -49 -39 -222t-16 -356q0 -166 127 -165q57 0 174 75v418q0 59 -17.5 78.5t-70.5 21.5q-6 0 -21 -1l-14 -1l17 119l383 64l20 -35q-23 -47 -39 -238.5t-16 -421.5q0 -84 71 -84l97 35l32 -43q-12 -20 -34.5 -51t-79 -87t-101.5 -67 q-186 0 -209 158l-16 8q-174 -164 -227 -164q-158 0 -240 67t-82 192l15 452q0 100 -68 100zM184 1178v22l162 207l33 8q37 0 157.5 -33.5t149.5 -33.5q20 0 54 28.5t57 57.5l22 28h23l80 -76v-20l-160 -209l-35 -8q-35 0 -155.5 35t-149.5 35q-23 0 -56.5 -29t-55.5 -57 l-21 -29h-23z" />
<glyph unicode="&#x16a;" horiz-adv-x="1341" d="M37 1186l18 135q176 -6 293 -6l244 12l-14 -139q-63 -8 -87 -30.5t-28 -78.5l-14 -596q0 -154 65.5 -237.5t187.5 -83.5q250 0 250 266l-8 643q-2 68 -14 89.5t-51 21.5l-68 -4l-4 8l16 135q162 -6 240 -6l244 12l-13 -137q-76 -16 -97 -34.5t-21 -68.5v-636 q0 -231 -136.5 -353.5t-392.5 -122.5q-475 0 -475 443v653q0 68 -12.5 89.5t-53.5 21.5l-65 -4zM389 1473l29 155q195 -2 315 -2l260 12l17 -28l-25 -158l-289 -2l-284 -2z" />
<glyph unicode="&#x16b;" horiz-adv-x="1120" d="M31 782l12 121l375 68l20 -35q-23 -49 -39 -222t-16 -356q0 -166 127 -165q57 0 174 75v418q0 59 -17.5 78.5t-70.5 21.5q-6 0 -21 -1l-14 -1l17 119l383 64l20 -35q-23 -47 -39 -238.5t-16 -421.5q0 -84 71 -84l97 35l32 -43q-12 -20 -34.5 -51t-79 -87t-101.5 -67 q-186 0 -209 158l-16 8q-174 -164 -227 -164q-158 0 -240 67t-82 192l15 452q0 100 -68 100zM233 1210l29 156q195 -2 316 -2l260 12l16 -28l-25 -156l-288 -2l-285 -2z" />
<glyph unicode="&#x16c;" horiz-adv-x="1341" d="M37 1186l18 135q176 -6 293 -6l244 12l-14 -139q-63 -8 -87 -30.5t-28 -78.5l-14 -596q0 -154 65.5 -237.5t187.5 -83.5q250 0 250 266l-8 643q-2 68 -14 89.5t-51 21.5l-68 -4l-4 8l16 135q162 -6 240 -6l244 12l-13 -137q-76 -16 -97 -34.5t-21 -68.5v-636 q0 -231 -136.5 -353.5t-392.5 -122.5q-475 0 -475 443v653q0 68 -12.5 89.5t-53.5 21.5l-65 -4zM379 1735l57 69l35 8q55 -139 211 -139t211 139l35 -8l57 -69q-31 -111 -106.5 -183.5t-196.5 -72.5t-196.5 72.5t-106.5 183.5z" />
<glyph unicode="&#x16d;" horiz-adv-x="1120" d="M31 782l12 121l375 68l20 -35q-23 -49 -39 -222t-16 -356q0 -166 127 -165q57 0 174 75v418q0 59 -17.5 78.5t-70.5 21.5q-6 0 -21 -1l-14 -1l17 119l383 64l20 -35q-23 -47 -39 -238.5t-16 -421.5q0 -84 71 -84l97 35l32 -43q-12 -20 -34.5 -51t-79 -87t-101.5 -67 q-186 0 -209 158l-16 8q-174 -164 -227 -164q-158 0 -240 67t-82 192l15 452q0 100 -68 100zM254 1376l57 70l35 8q55 -139 211 -139t211 139l35 -8l57 -70q-31 -111 -106.5 -183.5t-196.5 -72.5t-196.5 73t-106.5 183z" />
<glyph unicode="&#x16e;" horiz-adv-x="1341" d="M37 1186l18 135q176 -6 293 -6l244 12l-14 -139q-63 -8 -87 -30.5t-28 -78.5l-14 -596q0 -154 65.5 -237.5t187.5 -83.5q250 0 250 266l-8 643q-2 68 -14 89.5t-51 21.5l-68 -4l-4 8l16 135q162 -6 240 -6l244 12l-13 -137q-76 -16 -97 -34.5t-21 -68.5v-636 q0 -231 -136.5 -353.5t-392.5 -122.5q-475 0 -475 443v653q0 68 -12.5 89.5t-53.5 21.5l-65 -4zM506 1575q0 84 54 139t142 55q92 0 137.5 -51t45.5 -127q0 -84 -54.5 -143t-144.5 -59q-86 0 -133 51t-47 135zM608 1583q0 -43 28.5 -64.5t63.5 -21.5q82 0 82 74 q0 39 -24.5 62.5t-69.5 23.5q-80 0 -80 -74z" />
<glyph unicode="&#x16f;" horiz-adv-x="1120" d="M31 782l12 121l375 68l20 -35q-23 -49 -39 -222t-16 -356q0 -166 127 -165q57 0 174 75v418q0 59 -17.5 78.5t-70.5 21.5q-6 0 -21 -1l-14 -1l17 119l383 64l20 -35q-23 -47 -39 -238.5t-16 -421.5q0 -84 71 -84l97 35l32 -43q-12 -20 -34.5 -51t-79 -87t-101.5 -67 q-186 0 -209 158l-16 8q-174 -164 -227 -164q-158 0 -240 67t-82 192l15 452q0 100 -68 100zM354 1298q0 84 54.5 139.5t142.5 55.5q92 0 137 -51t45 -125q0 -84 -53 -144.5t-145 -60.5q-86 0 -133.5 51t-47.5 135zM457 1309q0 -45 28.5 -66.5t63.5 -21.5q82 0 82 75 q0 84 -94 84q-80 0 -80 -71z" />
<glyph unicode="&#x170;" horiz-adv-x="1341" d="M37 1186l18 135q176 -6 293 -6l244 12l-14 -139q-63 -8 -87 -30.5t-28 -78.5l-14 -596q0 -154 65.5 -237.5t187.5 -83.5q250 0 250 266l-8 643q-2 68 -14 89.5t-51 21.5l-68 -4l-4 8l16 135q162 -6 240 -6l244 12l-13 -137q-76 -16 -97 -34.5t-21 -68.5v-636 q0 -231 -136.5 -353.5t-392.5 -122.5q-475 0 -475 443v653q0 68 -12.5 89.5t-53.5 21.5l-65 -4zM416 1481l309 274l25 -2l88 -127l-2 -24q-172 -94 -344 -201l-29 10zM760 1470q309 274 309 275l25 -4l88 -123l-2 -25q-174 -94 -346 -200l-25 8z" />
<glyph unicode="&#x171;" horiz-adv-x="1120" d="M31 782l12 121l375 68l20 -35q-23 -49 -39 -222t-16 -356q0 -166 127 -165q57 0 174 75v418q0 59 -17.5 78.5t-70.5 21.5q-6 0 -21 -1l-14 -1l17 119l383 64l20 -35q-23 -47 -39 -238.5t-16 -421.5q0 -84 71 -84l97 35l32 -43q-12 -20 -34.5 -51t-79 -87t-101.5 -67 q-186 0 -209 158l-16 8q-174 -164 -227 -164q-158 0 -240 67t-82 192l15 452q0 100 -68 100zM272 1147l254 340l25 2l117 -103v-22q-152 -131 -303 -277l-29 3zM567 1147l256 340l23 2l119 -103v-22q-152 -131 -303 -277l-29 3z" />
<glyph unicode="&#x172;" horiz-adv-x="1341" d="M37 1186l18 135q176 -6 293 -6l244 12l-14 -139q-63 -8 -87 -30.5t-28 -78.5l-14 -596q0 -156 66.5 -238.5t186.5 -82.5q250 0 250 266l-8 643q-2 68 -14 89.5t-51 21.5l-68 -4l-4 8l16 135q162 -6 240 -6l244 12l-13 -137q-76 -16 -97 -34.5t-21 -68.5v-636 q0 -203 -132 -353q-145 -166 -187 -229.5t-42 -118.5q0 -45 27.5 -71.5t75.5 -26.5q31 0 67.5 12t56.5 25l21 12l39 -59q-106 -100 -209 -136q-113 0 -179.5 50.5t-66.5 136.5q0 61 41 129.5t139 173.5q-76 -20 -180 -21q-475 0 -475 443v653q0 68 -12.5 89.5t-53.5 21.5 l-65 -4z" />
<glyph unicode="&#x173;" horiz-adv-x="1120" d="M31 782l12 121l375 68l20 -35q-23 -51 -39 -224t-16 -354q0 -166 127 -165q61 0 174 75v418q0 57 -17.5 76.5t-70.5 23.5q-6 0 -21 -1l-14 -1l17 119l383 64l20 -35q-23 -47 -39 -238.5t-16 -421.5q0 -84 71 -84l97 35l39 -49q-168 -193 -221.5 -272.5t-53.5 -143.5 q0 -47 28.5 -76.5t74.5 -29.5q33 0 69.5 12t56.5 25l21 12l39 -57q-109 -102 -209 -138q-115 0 -180.5 50.5t-65.5 138.5q0 59 32 119.5t120 167.5q-125 25 -142 151l-16 8q-176 -164 -227 -164q-158 0 -240 67t-82 192l15 452q0 100 -68 100z" />
<glyph unicode="&#x174;" horiz-adv-x="1974" d="M-12 1196l14 123q164 -4 250 -4l336 16l10 -16l-10 -125q-98 -10 -126 -23.5t-28 -52.5l182 -846h27q66 176 225 738q-4 41 -16 86q-10 49 -43 68.5t-107 21.5l-10 14l17 123q186 -4 280 -4q68 0 152 4t133 8l49 4l10 -16l-10 -125q-100 -10 -127 -22.5t-27 -55.5 q0 -33 46.5 -244t91.5 -405l45 -195h26q45 123 148.5 468t103.5 390q0 33 -22.5 45.5t-79.5 12.5h-78l-10 14l16 127q168 -10 293 -10l229 4l-14 -135q-47 -8 -66.5 -27.5t-39.5 -79.5l-361 -1067l-326 -41q-33 188 -176 731h-20l-213 -690l-330 -41q-174 702 -289 1086 q-18 63 -53 93t-94 34zM666 1540q68 49 148.5 112.5t126.5 102.5l46 39h41q0 2 46 -35t129 -103.5t147 -115.5l-50 -84l-32 -8q-102 51 -260 119q-98 -41 -258 -119l-33 8z" />
<glyph unicode="&#x175;" horiz-adv-x="1515" d="M-16 831l14 117q125 -2 190 -2q59 0 129 4t109 7l39 4l4 -11l-16 -121q-61 -6 -79 -15t-18 -38l121 -547h21q78 195 166 506q-10 47 -34 65.5t-77 18.5l-6 12l16 117q123 -2 189 -2l272 12l4 -10l-18 -121q-63 -6 -80 -15t-17 -36l121 -547h23q176 498 176 549 q0 25 -13.5 34t-50.5 9h-55l-8 13l16 116q125 -4 217 -4l187 2l-17 -127q-45 -6 -64.5 -27.5t-43.5 -91.5l-254 -702l-258 -31q-4 27 -127 508h-23l-153 -477l-264 -31q-162 596 -209 750q-33 100 -125 102zM438 1180q145 139 312 315h41q164 -176 309 -315l-60 -84l-30 -9 q-41 33 -240 170q-145 -94 -240 -170l-32 9z" />
<glyph unicode="&#x176;" horiz-adv-x="1224" d="M-20 1188l16 131q182 -6 264 -6l328 16l10 -18l-10 -119q-70 -2 -96.5 -16.5t-26.5 -45.5q0 -20 37 -110t86 -198.5t51 -112.5h20l162 338q29 57 29 98t-105 47l-4 10l15 119q20 0 121.5 -4t150.5 -4l209 8l8 -14l-14 -125q-80 -27 -129 -81t-119 -181l-197 -367 q-35 -68 -36 -252v-31q-2 -76 18 -104.5t78 -28.5l102 6l6 -10l-18 -141q-236 8 -338 8l-319 -23l14 142q117 14 150.5 51t33.5 141v62q0 96 -59 209l-201 391q-49 98 -95 142t-136 63zM322 1540q68 49 148.5 112.5t126.5 102.5l46 39h41q0 2 46 -35t129 -103.5t147 -115.5 l-50 -84l-32 -8q-102 51 -260 119q-98 -41 -258 -119l-33 8z" />
<glyph unicode="&#x177;" horiz-adv-x="952" d="M-47 -328l16 27q270 23 412 283q-188 530 -283 749q-43 86 -123 88l-4 10l15 117h159q63 0 140 3t125.5 6t48.5 6l4 -11l-19 -121q-57 -2 -77.5 -13t-20.5 -36q0 -29 35 -156.5t70 -240.5l34 -113h23q184 475 184 510q0 25 -12 34t-47 9h-66l-6 11l17 118q125 -6 217 -6 h190l-16 -125q-45 -10 -65.5 -29.5t-39.5 -70.5l-262 -633q-131 -315 -244.5 -449.5t-248.5 -132.5q-29 0 -92.5 67t-63.5 99zM182 1180q145 139 312 315h41q164 -176 309 -315l-60 -84l-30 -9q-41 33 -240 170q-145 -94 -240 -170l-32 9z" />
<glyph unicode="&#x178;" horiz-adv-x="1224" d="M-20 1188l16 131q182 -6 264 -6l328 16l10 -18l-10 -119q-70 -2 -96.5 -16.5t-26.5 -45.5q0 -20 37 -110t86 -198.5t51 -112.5h20l162 338q29 57 29 98t-105 47l-4 10l15 119q20 0 121.5 -4t150.5 -4l209 8l8 -14l-14 -125q-80 -27 -129 -81t-119 -181l-197 -367 q-35 -68 -36 -252v-31q-2 -76 18 -104.5t78 -28.5l102 6l6 -10l-18 -141q-236 8 -338 8l-319 -23l14 142q117 14 150.5 51t33.5 141v62q0 96 -59 209l-201 391q-49 98 -95 142t-136 63zM348 1571q0 59 38 98t99 39q57 0 90 -34t33 -89q0 -61 -38 -100t-101 -39 q-57 0 -89 33.5t-32 91.5zM713 1571q0 59 39 98t100 39q57 0 89 -34t32 -89q0 -61 -38 -100t-99 -39q-59 0 -91 33.5t-32 91.5z" />
<glyph unicode="&#x179;" horiz-adv-x="1187" d="M39 82l719 1083l-260 -16q-131 -16 -178.5 -67.5t-57.5 -192.5l-174 -12q29 254 35 442l20 20l365 -22l600 -6l37 -84q-313 -416 -739 -1077l319 22q102 8 158.5 83t81.5 232l174 15q-44 -268 -52 -469l-34 -39l-809 12l-154 -16zM459 1542l456 213l25 -10l53 -158 l-12 -26q-236 -59 -469 -134l-27 19z" />
<glyph unicode="&#x17a;" horiz-adv-x="937" d="M41 59l516 754l-184 -12q-109 -10 -146 -45t-45 -135l-104 -11q18 205 22 340l15 15l266 -17l475 -6l27 -61q-289 -381 -533 -752l217 18q88 10 132 65.5t63 176.5l108 10q-35 -225 -34 -376l-33 -33l-613 14l-114 -12zM324 1159q74 74 159.5 161t133.5 138l49 51l28 -2 l111 -143l-2 -29q-197 -123 -387 -264l-31 8z" />
<glyph unicode="&#x17b;" horiz-adv-x="1187" d="M39 82l719 1083l-260 -16q-131 -16 -178.5 -67.5t-57.5 -192.5l-174 -12q29 254 35 442l20 20l365 -22l600 -6l37 -84q-313 -416 -739 -1077l319 22q102 8 158.5 83t81.5 232l174 15q-44 -268 -52 -469l-34 -39l-809 12l-154 -16zM485 1585q0 72 45 118t119 46 q68 0 106 -40t38 -107q0 -72 -45 -118t-119 -46q-70 0 -107 41t-37 106z" />
<glyph unicode="&#x17c;" horiz-adv-x="937" d="M41 59l516 754l-184 -12q-109 -10 -146 -45t-45 -135l-104 -11q18 205 22 340l15 15l266 -17l475 -6l27 -61q-289 -381 -533 -752l217 18q88 10 132 65.5t63 176.5l108 10q-35 -225 -34 -376l-33 -33l-613 14l-114 -12zM340 1323q0 72 45 118t119 46q68 0 105.5 -40 t37.5 -108q0 -72 -45 -117.5t-119 -45.5q-70 0 -106.5 40.5t-36.5 106.5z" />
<glyph unicode="&#x17d;" horiz-adv-x="1187" d="M39 82l719 1083l-260 -16q-131 -16 -178.5 -67.5t-57.5 -192.5l-174 -12q29 254 35 442l20 20l365 -22l600 -6l37 -84q-313 -416 -739 -1077l319 22q102 8 158.5 83t81.5 232l174 15q-44 -268 -52 -469l-34 -39l-809 12l-154 -16zM295 1679l49 84l33 9q102 -51 260 -119 q98 41 258 119l33 -9l51 -84q-68 -49 -148.5 -112.5t-127.5 -102.5l-46 -39h-41q-170 143 -321 254z" />
<glyph unicode="&#x17e;" horiz-adv-x="937" d="M41 59l516 754l-184 -12q-109 -10 -146 -45t-45 -135l-104 -11q18 205 22 340l15 15l266 -17l475 -6l27 -61q-289 -381 -533 -752l217 18q88 10 132 65.5t63 176.5l108 10q-35 -225 -34 -376l-33 -33l-613 14l-114 -12zM156 1391l61 86l31 6q109 -86 248 -174 q154 102 243 174l33 -6l62 -86q-68 -63 -148 -144.5t-126 -130.5l-46 -49h-41q-167 181 -317 324z" />
<glyph unicode="&#x192;" horiz-adv-x="851" d="M-80 -246q0 37 20.5 102.5t41.5 90.5h30q14 -55 55.5 -92t90.5 -37q100 0 106 182l35 541q-2 49 -29.5 62t-124.5 13l-8 13l17 94l155 25l4 47q2 76 35 151q41 121 152.5 200t240.5 79q76 0 136.5 -18.5t60.5 -43.5q0 -33 -20.5 -103.5t-38.5 -94.5l-31 -2 q-86 111 -176 110q-66 0 -89.5 -53t-31.5 -162l-10 -115q63 0 151 1t99 1l8 -10l-21 -125q-31 0 -248 4l-28 -399q-12 -160 -53 -283q-37 -117 -135.5 -189.5t-213.5 -72.5q-63 0 -121.5 27t-58.5 57z" />
<glyph unicode="&#x1fa;" horiz-adv-x="1280" d="M-25 -6l17 137q49 8 78.5 38t54.5 97l364 1039l326 32l23 -10q183 -711 292 -1057q23 -74 58 -104.5t102 -36.5l8 -14l-14 -121q-162 6 -252 6q-78 0 -165 -4t-134 -8l-47 -4l-12 16l10 123q100 8 129 22.5t29 53.5q0 20 -11 67l-40 156q-53 2 -187 2q-80 0 -194 -14 l-52 -154q-12 -43 -12 -63q0 -35 20.5 -48.5t73.5 -13.5h88l9 -14l-15 -129q-168 12 -299 12zM438 1810l412 191l22 -8l48 -144l-11 -22q-213 -53 -422 -121l-24 16zM459 586h143q66 0 152 8l-119 450h-29zM496 1546q0 76 49 126t129 50q84 0 124 -47t40 -114 q0 -74 -48.5 -128.5t-130.5 -54.5q-78 0 -120.5 45t-42.5 123zM588 1554q0 -39 26.5 -58t57.5 -19q74 0 73 65q0 78 -83 78q-74 0 -74 -66z" />
<glyph unicode="&#x1fb;" horiz-adv-x="980" d="M55 283q0 63 33 110t86 60l393 92l2 47q0 88 -46 136t-128 48q-53 0 -113.5 -23.5t-93.5 -47.5l-32 -25l-19 10l-37 123q281 158 379 158q172 0 257 -77t85 -204q0 -33 -20.5 -203t-20.5 -217q0 -37 20.5 -59.5t53.5 -22.5l96 35l33 -43q-10 -20 -29.5 -50t-73 -86 t-96.5 -69q-188 0 -206 158l-17 6q-156 -156 -225 -155q-119 0 -200 86t-81 213zM266 1438l412 190l22 -8l48 -143l-11 -23q-213 -53 -422 -121l-24 17zM301 307q0 -55 32 -90t81 -35q65 1 145 58l4 192l-215 -59q-47 -14 -47 -66zM328 1174q0 76 49 126t129 50 q84 0 124 -47.5t40 -114.5q0 -74 -48 -128t-130 -54q-78 0 -121 45t-43 123zM420 1182q0 -39 26.5 -58.5t57.5 -19.5q74 0 74 65q0 78 -84 78q-74 0 -74 -65z" />
<glyph unicode="&#x1fc;" horiz-adv-x="1783" d="M-8 117q20 4 56 46t67 103l426 871q-8 45 -52 45l-63 -4l-12 18l16 125q227 -6 496 -6q483 0 655 24l16 -22q-37 -182 -47 -373l-186 -12q4 53 4 82q0 84 -45 106.5t-219 22.5q-70 0 -88.5 -10.5t-20.5 -45.5l54 -372l196 24l197 39l22 -20l-26 -172l-187 -15l-180 -20 l41 -252q12 -74 46 -106.5t97 -32.5q172 0 222.5 41t70.5 194l174 15l15 -21q-37 -184 -58 -381l-18 -22l-92 3q-92 3 -245 7t-265 4h-78l-326 -16l-10 16l8 123q104 8 137 27.5t33 70.5q0 27 -8 101l-24 188l-179 -23l-172 -32l-92 -199q-23 -51 -22 -76q0 -29 23.5 -39 t88.5 -10l68 -10l-12 -133q-2 2 -61.5 4t-142.5 5t-136 3l-152 -6zM516 649l133 8l127 17l-47 370h-31zM856 1518q74 74 160 160.5t134 138.5l48 51l29 -2l110 -144l-2 -28q-197 -123 -387 -264l-30 8z" />
<glyph unicode="&#x1fd;" horiz-adv-x="1372" d="M37 279q0 68 37 116.5t96 61.5l371 78l2 63q0 86 -45 133t-127 47q-53 0 -114.5 -24.5t-95.5 -48.5l-34 -25l-18 10l-37 123q283 158 379 158q172 0 254 -133q121 133 307 133q147 0 231 -91.5t84 -252.5l-4 -60l-20 -24l-525 -90q14 -135 82 -208t182 -73q57 0 119 16.5 t94 32.5l33 17l17 -7l32 -104q-23 -16 -59.5 -42t-126.5 -68t-154 -42q-281 0 -391 201q-186 -176 -287 -192q-121 0 -201.5 85t-80.5 210zM281 301q0 -53 31.5 -88t78.5 -35q74 0 176 84q-26 76 -26 164l-201 -53q-59 -12 -59 -72zM551 1159q74 74 160 161t134 138l48 51 l29 -2l110 -143l-2 -29q-197 -123 -387 -264l-31 8zM772 561l262 66q35 10 35 30q0 63 -32.5 102.5t-84.5 39.5q-82 0 -130 -54.5t-50 -146.5v-37z" />
<glyph unicode="&#x1fe;" horiz-adv-x="1380" d="M57 623q0 324 184.5 520t487.5 196q135 0 244 -43l121 197l127 -59l6 -27l-117 -186q213 -168 213 -523q0 -326 -186.5 -524.5t-491.5 -198.5q-127 0 -244 43l-143 -237l-123 59l-6 21l141 235q-213 172 -213 527zM375 705q0 -211 53 -347l418 723q-72 59 -174 60 q-141 0 -219 -113.5t-78 -322.5zM465 1554l457 213l24 -10l53 -158l-12 -26q-236 -59 -469 -133l-26 18zM520 219q72 -65 176 -65q145 0 226.5 113.5t81.5 322.5q0 219 -60 356z" />
<glyph unicode="&#x1ff;" horiz-adv-x="1030" d="M49 -160l146 240q-143 127 -144 364q0 236 137.5 381.5t358.5 145.5q76 0 155 -25l138 225l125 -61l6 -25l-133 -217q141 -129 141 -366q0 -236 -136 -381.5t-358 -145.5q-82 0 -161 27l-148 -242l-121 60zM324 520q0 -113 18 -192l254 436q-43 31 -96 31 q-176 -1 -176 -275zM358 1159q74 74 160 161t134 138l48 51l29 -2l111 -143l-2 -29q-197 -123 -387 -264l-31 8zM424 168q41 -35 102 -35q176 0 176 275q0 123 -20 198z" />
<glyph unicode="&#x218;" horiz-adv-x="1105" d="M139 82q31 180 33 348l172 14q0 -168 47 -227t178 -59q96 0 154.5 43t58.5 114q0 23 -7 44.5t-27.5 42t-35 34t-51 33.5t-53 28.5t-65.5 32t-64 31.5q-152 74 -237.5 156t-85.5 213q0 180 153.5 294.5t392.5 114.5q204 0 353 -55l14 -27q-35 -166 -49 -352l-156 -12 l-18 14q2 33 2 72q0 90 -46 128t-153 38q-84 0 -139 -41t-55 -105q0 -37 19.5 -68.5t64.5 -62t79.5 -48t104.5 -50.5q86 -41 133 -67.5t109.5 -74.5t92 -106.5t29.5 -132.5q0 -188 -155.5 -301t-415.5 -113q-96 0 -186 19.5t-132 39.5l-42 19zM293 -555q61 43 100 100.5 t39 108.5q0 84 -72 141l7 29q90 72 161 72q61 0 101.5 -48.5t40.5 -128.5q0 -102 -85 -200.5t-216 -169.5l-76 61v35z" />
<glyph unicode="&#x219;" horiz-adv-x="837" d="M59 53q18 131 27 269l117 12q0 -207 180 -207q57 0 96 25.5t39 64.5q0 41 -40 74t-162.5 90t-179 121.5t-56.5 152.5q0 139 118.5 227.5t307.5 88.5q59 0 116.5 -9.5t85.5 -18.5l27 -9l13 -23q-27 -129 -39 -266l-119 -6q4 25 4 35q-2 139 -143 139q-53 0 -88 -24.5 t-35 -63.5q0 -74 137 -139q178 -84 240.5 -147.5t62.5 -155.5q0 -129 -122 -218.5t-300 -89.5q-74 0 -142.5 14.5t-100.5 27.5l-31 14zM195 -555q61 43 100 100.5t39 108.5q0 84 -72 141l6 29q90 72 162 72q61 0 101 -48.5t40 -128.5q0 -102 -85 -200.5t-216 -169.5l-75 61 v35z" />
<glyph unicode="&#x21a;" horiz-adv-x="1165" d="M10 874q18 240 23 441l22 22l207 -22h637l211 22l23 -22l20 -428l-172 -13q-23 190 -58.5 232.5t-189.5 46.5q-23 -334 -22 -877q0 -76 25.5 -107.5t86.5 -31.5l109 6l8 -10l-18 -141q-250 8 -357 8l-344 -12l17 135q135 12 169.5 48t34.5 167v815q-88 -2 -131 -9 t-71.5 -41t-36.5 -76t-21 -140zM354 -555q61 43 100.5 100.5t39.5 108.5q0 84 -72 141l6 29q90 72 162 72q61 0 101 -48.5t40 -128.5q0 -102 -85 -200.5t-216 -169.5l-76 61v35z" />
<glyph unicode="&#x21b;" horiz-adv-x="679" d="M8 807l15 102q178 84 348 221l57 -30q-12 -66 -22 -178l239 6l8 -10l-20 -140l-240 6q-12 -238 -12 -442q0 -86 30.5 -125t100.5 -39q25 0 55.5 7.5t47.5 14.5l18 7l24 -68q-172 -164 -235 -164q-145 0 -214 60.5t-69 191.5v455q0 63 -22.5 86t-87.5 25zM156 -555 q61 43 100 100.5t39 108.5q0 84 -72 141l6 29q90 72 162 72q61 0 101 -48.5t40 -128.5q0 -102 -85 -200.5t-216 -169.5l-75 61v35z" />
<glyph unicode="&#x237;" horiz-adv-x="561" d="M14 -438l4 24q88 86 119 187.5t31 300.5v600q0 66 -16.5 90t-57.5 24l-61 -6l12 119q165 25 391 70l19 -35q-45 -96 -45 -965q0 -143 -88 -268t-242 -203z" />
<glyph unicode="&#x2c6;" d="M76 1180q145 139 311 315h41q164 -176 309 -315l-59 -84l-31 -9q-41 33 -239 170q-145 -94 -240 -170l-33 9z" />
<glyph unicode="&#x2c7;" d="M68 1391l61 86l31 6q109 -86 248 -174q154 102 243 174l33 -6l61 -86q-68 -63 -147.5 -144.5t-125.5 -130.5l-46 -49h-41q-167 181 -317 324z" />
<glyph unicode="&#x2d8;" d="M104 1376l58 70l35 8q55 -139 210.5 -139t210.5 139l35 -8l58 -70q-31 -111 -107 -183.5t-196.5 -72.5t-196.5 73t-107 183z" />
<glyph unicode="&#x2d9;" d="M254 1323q0 72 45 118t119 46q68 0 105.5 -40t37.5 -108q0 -72 -45 -117.5t-119 -45.5q-70 0 -106.5 40.5t-36.5 106.5z" />
<glyph unicode="&#x2da;" d="M217 1298q0 84 54.5 139.5t142.5 55.5q92 0 137 -51t45 -125q0 -84 -53.5 -144.5t-145.5 -60.5q-86 0 -133 51t-47 135zM319 1309q0 -45 29 -66.5t64 -21.5q82 0 82 75q0 84 -95 84q-80 0 -80 -71z" />
<glyph unicode="&#x2db;" d="M174 -307q0 78 63.5 164t208.5 229h111q-131 -152 -174 -215.5t-43 -120.5q0 -43 28.5 -70.5t73.5 -27.5q33 0 70 12t57 25l21 12l37 -59q-106 -100 -209 -136q-111 0 -177.5 50.5t-66.5 136.5z" />
<glyph unicode="&#x2dc;" d="M39 1178v22l162 207l32 8q37 0 158 -33.5t150 -33.5q20 0 54 28.5t56 57.5l23 28h22l80 -76v-20l-160 -209l-34 -8q-35 0 -156 35t-150 35q-23 0 -56.5 -29t-54.5 -57l-22 -29h-22z" />
<glyph unicode="&#x2dd;" d="M100 1147l254 340l25 2l117 -103v-22q-152 -131 -303 -277l-29 3zM395 1147l256 340l23 2l119 -103v-22q-152 -131 -304 -277l-28 3z" />
<glyph unicode="&#x323;" horiz-adv-x="657" d="M170 -279q0 74 45 121t121 47q72 0 111.5 -42t39.5 -111q0 -74 -44.5 -121t-120.5 -47q-74 0 -113 42t-39 111z" />
<glyph unicode="&#x394;" horiz-adv-x="1236" d="M20 27l449 1278l328 34h18q201 -799 375 -1325l-16 -14h-1133zM311 195h525l-220 868h-30z" />
<glyph unicode="&#x2206;" horiz-adv-x="1236" d="M20 27l449 1278l328 34h18q201 -799 375 -1325l-16 -14h-1133zM311 195h525l-220 868h-30z" />
<glyph unicode="&#x3a9;" horiz-adv-x="1755" d="M49 422l144 14q16 -145 57 -203.5t129 -62.5l149 -8q-287 248 -286 575q0 258 186 430t467 172q274 0 444 -154.5t170 -402.5q0 -377 -309 -622l170 10q84 4 125 59.5t59 192.5l148 14q-25 -239 -25 -407l-39 -39l-555 22l-114 -16l-35 100q143 125 198.5 251t55.5 335 q0 223 -79 341t-226 118q-152 0 -238 -102.5t-86 -290.5q0 -442 248 -650l-33 -104l-115 18l-548 -22l-37 39q0 74 -6.5 172t-12.5 159z" />
<glyph unicode="&#x2126;" horiz-adv-x="1755" d="M49 422l144 14q16 -145 57 -203.5t129 -62.5l149 -8q-287 248 -286 575q0 258 186 430t467 172q274 0 444 -154.5t170 -402.5q0 -377 -309 -622l170 10q84 4 125 59.5t59 192.5l148 14q-25 -239 -25 -407l-39 -39l-555 22l-114 -16l-35 100q143 125 198.5 251t55.5 335 q0 223 -79 341t-226 118q-152 0 -238 -102.5t-86 -290.5q0 -442 248 -650l-33 -104l-115 18l-548 -22l-37 39q0 74 -6.5 172t-12.5 159z" />
<glyph unicode="&#x3c0;" horiz-adv-x="1271" d="M-25 825l2 17l152 178l31 14q131 0 394 -10t310 -10q66 0 155 5t145 10l57 5l12 -14l-27 -143l-14 -15q-119 0 -156 -20.5t-45 -91.5q-22 -270 -22 -385q0 -100 36.5 -138.5t135.5 -38.5l18 -30q0 -27 -71.5 -105t-94.5 -78q-135 0 -197.5 64.5t-62.5 204.5l6 512 q0 68 -19.5 84t-103.5 16q-72 0 -90 -14.5t-20 -75.5q-16 -410 -17 -698l7 -203l-15 -21l-241 -45l-15 29q10 25 20.5 340t10.5 571q0 61 -13.5 83t-52.5 22q-27 0 -60.5 -25.5t-53.5 -51.5l-21 -26l-16 -2z" />
<glyph unicode="&#x1e80;" horiz-adv-x="1974" d="M-12 1196l14 123q164 -4 250 -4l336 16l10 -16l-10 -125q-98 -10 -126 -23.5t-28 -52.5l182 -846h27q66 176 225 738q-4 41 -16 86q-10 49 -43 68.5t-107 21.5l-10 14l17 123q186 -4 280 -4q68 0 152 4t133 8l49 4l10 -16l-10 -125q-100 -10 -127 -22.5t-27 -55.5 q0 -33 46.5 -244t91.5 -405l45 -195h26q45 123 148.5 468t103.5 390q0 33 -22.5 45.5t-79.5 12.5h-78l-10 14l16 127q168 -10 293 -10l229 4l-14 -135q-47 -8 -66.5 -27.5t-39.5 -79.5l-361 -1067l-326 -41q-33 188 -176 731h-20l-213 -690l-330 -41q-174 702 -289 1086 q-18 63 -53 93t-94 34zM664 1587l53 158l24 10q236 -117 457 -213l-27 -96l-28 -19q-233 74 -469 134z" />
<glyph unicode="&#x1e81;" horiz-adv-x="1515" d="M-16 831l14 117q125 -2 190 -2q59 0 129 4t109 7l39 4l4 -11l-16 -121q-61 -6 -79 -15t-18 -38l121 -547h21q78 195 166 506q-10 47 -34 65.5t-77 18.5l-6 12l16 117q123 -2 189 -2l272 12l4 -10l-18 -121q-63 -6 -80 -15t-17 -36l121 -547h23q176 498 176 549 q0 25 -13.5 34t-50.5 9h-55l-8 13l16 116q125 -4 217 -4l187 2l-17 -127q-45 -6 -64.5 -27.5t-43.5 -91.5l-254 -702l-258 -31q-4 27 -127 508h-23l-153 -477l-264 -31q-162 596 -209 750q-33 100 -125 102zM489 1362l111 143l27 2q176 -184 344 -348l-62 -80l-30 -8 q-84 63 -181.5 129t-151.5 99l-54 34z" />
<glyph unicode="&#x1e82;" horiz-adv-x="1974" d="M-12 1196l14 123q164 -4 250 -4l336 16l10 -16l-10 -125q-98 -10 -126 -23.5t-28 -52.5l182 -846h27q66 176 225 738q-4 41 -16 86q-10 49 -43 68.5t-107 21.5l-10 14l17 123q186 -4 280 -4q68 0 152 4t133 8l49 4l10 -16l-10 -125q-100 -10 -127 -22.5t-27 -55.5 q0 -33 46.5 -244t91.5 -405l45 -195h26q45 123 148.5 468t103.5 390q0 33 -22.5 45.5t-79.5 12.5h-78l-10 14l16 127q168 -10 293 -10l229 4l-14 -135q-47 -8 -66.5 -27.5t-39.5 -79.5l-361 -1067l-326 -41q-33 188 -176 731h-20l-213 -690l-330 -41q-174 702 -289 1086 q-18 63 -53 93t-94 34zM827 1542l457 213l25 -10l53 -158l-12 -26q-236 -59 -469 -134l-27 19z" />
<glyph unicode="&#x1e83;" horiz-adv-x="1515" d="M-16 831l14 117q125 -2 190 -2q59 0 129 4t109 7l39 4l4 -11l-16 -121q-61 -6 -79 -15t-18 -38l121 -547h21q78 195 166 506q-10 47 -34 65.5t-77 18.5l-6 12l16 117q123 -2 189 -2l272 12l4 -10l-18 -121q-63 -6 -80 -15t-17 -36l121 -547h23q176 498 176 549 q0 25 -13.5 34t-50.5 9h-55l-8 13l16 116q125 -4 217 -4l187 2l-17 -127q-45 -6 -64.5 -27.5t-43.5 -91.5l-254 -702l-258 -31q-4 27 -127 508h-23l-153 -477l-264 -31q-162 596 -209 750q-33 100 -125 102zM596 1159q74 74 160 161t134 138l48 51l29 -2l110 -143l-2 -29 q-197 -123 -387 -264l-31 8z" />
<glyph unicode="&#x1e84;" horiz-adv-x="1974" d="M-12 1196l14 123q164 -4 250 -4l336 16l10 -16l-10 -125q-98 -10 -126 -23.5t-28 -52.5l182 -846h27q66 176 225 738q-4 41 -16 86q-10 49 -43 68.5t-107 21.5l-10 14l17 123q186 -4 280 -4q68 0 152 4t133 8l49 4l10 -16l-10 -125q-100 -10 -127 -22.5t-27 -55.5 q0 -33 46.5 -244t91.5 -405l45 -195h26q45 123 148.5 468t103.5 390q0 33 -22.5 45.5t-79.5 12.5h-78l-10 14l16 127q168 -10 293 -10l229 4l-14 -135q-47 -8 -66.5 -27.5t-39.5 -79.5l-361 -1067l-326 -41q-33 188 -176 731h-20l-213 -690l-330 -41q-174 702 -289 1086 q-18 63 -53 93t-94 34zM692 1571q0 59 38 98t99 39q57 0 90 -34t33 -89q0 -61 -38 -100t-101 -39q-57 0 -89 33.5t-32 91.5zM1057 1571q0 59 39 98t100 39q57 0 89 -34t32 -89q0 -61 -38 -100t-99 -39q-59 0 -91 33.5t-32 91.5z" />
<glyph unicode="&#x1e85;" horiz-adv-x="1515" d="M-16 831l14 117q125 -2 190 -2q59 0 129 4t109 7l39 4l4 -11l-16 -121q-61 -6 -79 -15t-18 -38l121 -547h21q78 195 166 506q-10 47 -34 65.5t-77 18.5l-6 12l16 117q123 -2 189 -2l272 12l4 -10l-18 -121q-63 -6 -80 -15t-17 -36l121 -547h23q176 498 176 549 q0 25 -13.5 34t-50.5 9h-55l-8 13l16 116q125 -4 217 -4l187 2l-17 -127q-45 -6 -64.5 -27.5t-43.5 -91.5l-254 -702l-258 -31q-4 27 -127 508h-23l-153 -477l-264 -31q-162 596 -209 750q-33 100 -125 102zM453 1276q0 61 37.5 100t99.5 39q57 0 90 -34.5t33 -90.5 q0 -61 -39.5 -99t-100.5 -38q-57 0 -88.5 34t-31.5 89zM817 1276q0 61 38 100t101 39q57 0 89 -33.5t32 -91.5q0 -59 -38 -98t-99 -39q-59 0 -91 34t-32 89z" />
<glyph unicode="&#x1ef2;" horiz-adv-x="1224" d="M-20 1188l16 131q182 -6 264 -6l328 16l10 -18l-10 -119q-70 -2 -96.5 -16.5t-26.5 -45.5q0 -20 37 -110t86 -198.5t51 -112.5h20l162 338q29 57 29 98t-105 47l-4 10l15 119q20 0 121.5 -4t150.5 -4l209 8l8 -14l-14 -125q-80 -27 -129 -81t-119 -181l-197 -367 q-35 -68 -36 -252v-31q-2 -76 18 -104.5t78 -28.5l102 6l6 -10l-18 -141q-236 8 -338 8l-319 -23l14 142q117 14 150.5 51t33.5 141v62q0 96 -59 209l-201 391q-49 98 -95 142t-136 63zM319 1587l54 158l24 10q236 -117 457 -213l-27 -96l-28 -19q-233 74 -469 134z" />
<glyph unicode="&#x1ef3;" horiz-adv-x="952" d="M-47 -328l16 27q270 23 412 283q-188 530 -283 749q-43 86 -123 88l-4 10l15 117h159q63 0 140 3t125.5 6t48.5 6l4 -11l-19 -121q-57 -2 -77.5 -13t-20.5 -36q0 -29 35 -156.5t70 -240.5l34 -113h23q184 475 184 510q0 25 -12 34t-47 9h-66l-6 11l17 118q125 -6 217 -6 h190l-16 -125q-45 -10 -65.5 -29.5t-39.5 -70.5l-262 -633q-131 -315 -244.5 -449.5t-248.5 -132.5q-29 0 -92.5 67t-63.5 99zM231 1362l111 143l27 2q176 -184 344 -348l-62 -80l-30 -8q-84 63 -181.5 129t-151.5 99l-55 34z" />
<glyph unicode="&#x2000;" horiz-adv-x="1000" />
<glyph unicode="&#x2001;" horiz-adv-x="2001" />
<glyph unicode="&#x2002;" horiz-adv-x="1000" />
<glyph unicode="&#x2003;" horiz-adv-x="2001" />
<glyph unicode="&#x2004;" horiz-adv-x="667" />
<glyph unicode="&#x2005;" horiz-adv-x="500" />
<glyph unicode="&#x2006;" horiz-adv-x="333" />
<glyph unicode="&#x2007;" horiz-adv-x="333" />
<glyph unicode="&#x2008;" horiz-adv-x="250" />
<glyph unicode="&#x2009;" horiz-adv-x="400" />
<glyph unicode="&#x200a;" horiz-adv-x="111" />
<glyph unicode="&#x2010;" horiz-adv-x="663" d="M72 422l14 160l336 39l151 20l19 -27l-17 -163l-485 -54z" />
<glyph unicode="&#x2011;" horiz-adv-x="663" d="M72 422l14 160l336 39l151 20l19 -27l-17 -163l-485 -54z" />
<glyph unicode="&#x2012;" horiz-adv-x="663" d="M72 422l14 160l336 39l151 20l19 -27l-17 -163l-485 -54z" />
<glyph unicode="&#x2013;" horiz-adv-x="927" d="M-18 461l22 155h494q178 0 266 2q168 5 168 7l16 -31l-22 -158q-176 0 -512 -1t-414 -1z" />
<glyph unicode="&#x2014;" horiz-adv-x="1794" d="M-18 461l22 155h899q803 1 893 9l16 -31l-22 -158q-340 0 -991.5 -1t-798.5 -1z" />
<glyph unicode="&#x2018;" horiz-adv-x="446" d="M57 967q0 102 85 200.5t216 171.5l76 -61v-35q-61 -41 -100 -99.5t-39 -111.5q0 -80 70 -139l-5 -29q-90 -72 -161 -71q-61 0 -101.5 47t-40.5 127z" />
<glyph unicode="&#x2019;" horiz-adv-x="446" d="M12 854v35q61 41 100.5 98t39.5 111q0 84 -72 141l6 29q92 72 162 71q61 0 101 -48t40 -128q0 -102 -85 -200.5t-216 -169.5z" />
<glyph unicode="&#x201a;" horiz-adv-x="487" d="M8 -190q66 45 107 108.5t41 124.5q-1 82 -64 150l6 28q92 70 162 70q61 0 99 -49t38 -133q0 -106 -90 -213t-223 -183l-76 62v35z" />
<glyph unicode="&#x201c;" horiz-adv-x="823" d="M57 967q0 102 85 200.5t216 171.5l76 -61v-35q-61 -41 -100 -99.5t-39 -111.5q0 -80 70 -139l-5 -29q-90 -72 -161 -71q-61 0 -101.5 47t-40.5 127zM434 967q0 102 85 200.5t216 171.5l76 -61v-35q-61 -41 -100 -99.5t-39 -111.5q-1 -80 69 -139l-4 -29q-90 -72 -162 -71 q-61 0 -101 47t-40 127z" />
<glyph unicode="&#x201d;" horiz-adv-x="823" d="M12 854v35q61 41 100.5 98t39.5 111q0 84 -72 141l6 29q92 72 162 71q61 0 101 -48t40 -128q0 -102 -85 -200.5t-216 -169.5zM389 854v35q61 41 100 98t39 111q1 84 -71 141l6 29q92 72 162 71q61 0 101 -48t40 -128q0 -102 -85 -200.5t-216 -169.5z" />
<glyph unicode="&#x201e;" horiz-adv-x="862" d="M25 -160q61 41 100 99.5t39 111.5q0 83 -70 142l4 28q92 70 162 70q61 0 101 -47t40 -127q0 -102 -85 -200.5t-216 -172.5l-75 61v35zM395 -160q61 41 100.5 99.5t39.5 111.5q0 83 -70 142l4 28q92 70 162 70q61 0 101 -47t40 -127q0 -102 -85 -200.5t-216 -172.5l-76 61 v35z" />
<glyph unicode="&#x2020;" horiz-adv-x="1048" d="M82 672l14 159h326v367l186 14l17 -16l-2 -365l323 5l21 -23l-15 -164h-331v-823l-181 -12l-18 18v817h-324z" />
<glyph unicode="&#x2021;" horiz-adv-x="1048" d="M82 203l14 159l326 3v323h-324l-16 23l14 159h326v328l186 14l17 -16l-2 -326l325 2l19 -20l-15 -164h-331v-323l327 2l19 -21l-15 -164h-331v-356l-181 -12l-18 18v350h-324z" />
<glyph unicode="&#x2022;" horiz-adv-x="696" d="M102 471q0 113 70 184.5t182 71.5q111 0 175.5 -66.5t64.5 -173.5q0 -113 -69.5 -184.5t-182.5 -71.5t-176.5 65.5t-63.5 174.5z" />
<glyph unicode="&#x2024;" horiz-adv-x="487" d="M84 133q0 74 45 121t121 47q72 0 112.5 -42t40.5 -112q0 -76 -45 -123t-120.5 -47t-114.5 42t-39 114z" />
<glyph unicode="&#x2025;" horiz-adv-x="937" d="M84 133q0 74 45 121t121 47q72 0 112.5 -42t40.5 -112q0 -76 -45 -123t-120.5 -47t-114.5 42t-39 114zM535 133q0 74 45 121t120 47q72 0 113 -42t41 -112q0 -76 -45 -123t-121 -47t-114.5 42t-38.5 114z" />
<glyph unicode="&#x2026;" horiz-adv-x="1386" d="M84 133q0 74 45 121t121 47q72 0 112.5 -42t40.5 -112q0 -76 -45 -123t-120.5 -47t-114.5 42t-39 114zM535 133q0 74 45 121t120 47q72 0 113 -42t41 -112q0 -76 -45 -123t-121 -47t-114.5 42t-38.5 114zM983 133q0 74 45 121t121 47q72 0 113 -42t41 -112 q0 -76 -45.5 -123t-121 -47t-114.5 42t-39 114z" />
<glyph unicode="&#x202f;" horiz-adv-x="400" />
<glyph unicode="&#x2030;" horiz-adv-x="2146" d="M37 971q0 168 89 268t234 100q137 0 213 -91t76 -240q0 -168 -87 -271.5t-234 -103.5q-135 0 -213 90t-78 248zM156 -106q248 369 424 647l536 848l127 -52l14 -39q-360 -547 -544 -833l-414 -655l-133 55zM166 995q0 -80 52 -119.5t134 -39.5q168 0 168 135 q0 72 -49 114.5t-141 42.5q-164 0 -164 -133zM836 315q0 168 89 267.5t234 99.5q139 0 214 -90t75 -242q0 -168 -87.5 -271.5t-234.5 -103.5q-135 0 -212.5 90.5t-77.5 249.5zM963 338q0 -80 52 -119t136 -39q166 0 166 133q0 72 -49 116t-142 44q-80 0 -121.5 -36 t-41.5 -99zM1522 315q0 168 90 267.5t233 99.5q137 0 213 -90t76 -242q0 -168 -87.5 -271.5t-234.5 -103.5q-135 0 -212.5 90.5t-77.5 249.5zM1651 338q0 -80 51 -119t135 -39q168 0 168 133q0 72 -50 116t-140 44q-164 0 -164 -135z" />
<glyph unicode="&#x2039;" horiz-adv-x="542" d="M31 440v43q188 189 338 359l84 -51l8 -33q-37 -55 -99.5 -155.5t-82.5 -133.5q0 -2 71.5 -117.5t110.5 -177.5l-8 -33l-84 -51q-149 165 -338 350z" />
<glyph unicode="&#x203a;" horiz-adv-x="542" d="M84 174q74 115 180 289q-135 221 -180 293l8 32l84 54q66 -74 150 -162t135 -139l51 -52v-40q-189 -189 -336 -359l-84 51z" />
<glyph unicode="&#x2044;" horiz-adv-x="317" d="M-420 -106q248 369 424 647l537 848l127 -52l14 -39q-360 -547 -545 -833q-414 -655 -413 -655l-134 55z" />
<glyph unicode="&#x205f;" horiz-adv-x="500" />
<glyph unicode="&#x2070;" horiz-adv-x="722" d="M59 1067q0 197 86 310.5t234 113.5q137 0 212 -101.5t75 -287.5q0 -197 -85 -310.5t-235 -113.5q-137 0 -212 102.5t-75 286.5zM195 1085q0 -98 45 -150t129 -52q162 0 161 190q0 100 -46 153.5t-132 53.5q-158 0 -157 -195z" />
<glyph unicode="&#x2074;" horiz-adv-x="690" d="M18 893l5 106l348 490l10 2l145 -14v-453h103l14 -18l-14 -127l-101 4l9 -174l-15 -15l-184 -14l-10 14q6 100 8 193zM176 1024h160v213h-14z" />
<glyph unicode="&#x2075;" horiz-adv-x="624" d="M35 834l24 24q55 -23 121 -22q74 0 119 28.5t45 75.5q0 49 -57.5 75.5t-186.5 35.5l-12 14l25 383l10 10l276 8q39 0 57.5 11.5t28.5 42.5l88 6l-36 -215l-21 -19q-127 10 -270 11l-8 -109q170 -25 244.5 -79t74.5 -154q0 -104 -125 -193.5t-276 -89.5q-59 0 -86 35 t-35 121z" />
<glyph unicode="&#x2076;" horiz-adv-x="673" d="M49 971q0 288 308 451q94 49 173 69l17 -8l33 -86q-8 -2 -22.5 -8.5t-53.5 -28t-73 -46t-73 -67.5t-63 -90l6 -12q68 35 100 41q104 0 166 -64.5t62 -165.5q0 -127 -83 -202.5t-222 -75.5q-125 0 -200 81t-75 212zM242 965q0 -156 102 -156q96 0 96 113q0 59 -26.5 94 t-73.5 35q-49 0 -96 -31q0 -8 -1 -26.5t-1 -28.5z" />
<glyph unicode="&#x2077;" horiz-adv-x="622" d="M45 1182q20 164 27 293l8 6q82 -6 166 -6h299l61 -76q-135 -279 -250 -551l-45 -168h-28l-142 43l-14 35l287 557l-160 -10q-63 -6 -82.5 -27t-32.5 -88z" />
<glyph unicode="&#x2078;" horiz-adv-x="688" d="M61 872q0 123 142 187q-127 82 -127 203q0 96 82 162.5t202 66.5q102 0 174 -54.5t72 -136.5q0 -111 -117 -174q133 -74 134 -194q0 -109 -86 -181.5t-215 -72.5q-113 0 -187 54t-74 140zM231 907q0 -47 31 -78.5t78 -31.5q43 0 69.5 23.5t26.5 62.5q0 35 -33.5 61.5 t-98.5 56.5q-12 7 -17 9q-55 -47 -56 -103zM260 1290q0 -25 21.5 -47t44 -35.5t67.5 -33.5q41 45 41 96q0 45 -24.5 69.5t-65.5 24.5q-39 0 -61.5 -20.5t-22.5 -53.5z" />
<glyph unicode="&#x2079;" horiz-adv-x="673" d="M45 1212q0 127 83 203t224 76q125 0 199 -80t74 -211q0 -288 -308 -451q-94 -49 -174 -69l-14 6l-33 88q8 2 21.5 8t52.5 26.5t72.5 46.5t73.5 68t65 91l-8 12q-55 -33 -101 -41q-104 0 -165.5 64.5t-61.5 162.5zM236 1247q0 -59 25.5 -93t72.5 -34q45 0 96 29q4 37 4 57 q0 156 -104 156q-94 0 -94 -115z" />
<glyph unicode="&#x207f;" horiz-adv-x="819" d="M43 1202l10 84l279 45l14 -14q-12 -49 -16 -94l8 -4q123 113 164 112q102 0 157.5 -46t55.5 -128q0 -27 -13.5 -153.5t-13.5 -157.5q0 -57 41 -58l37 3l4 -7l-14 -94q-106 4 -160 4l-158 -6l8 96q57 12 58 68l4 211q0 106 -76 106q-43 0 -94 -41q-14 -229 -14 -284 q0 -29 8 -40t28 -11h31l2 -7l-14 -96q-98 4 -152 4l-176 -6l12 96q39 2 55.5 18.5t16.5 53.5v260q0 45 -13 61.5t-52 16.5h-21z" />
<glyph unicode="&#x2080;" horiz-adv-x="722" d="M59 127q0 195 86 309.5t234 114.5q137 0 212 -102.5t75 -286.5q0 -197 -85 -310.5t-235 -113.5q-137 0 -212 101.5t-75 287.5zM195 143q0 -96 45 -149t129 -53q162 0 161 192q0 100 -46 153.5t-132 53.5q-158 0 -157 -197z" />
<glyph unicode="&#x2081;" horiz-adv-x="542" d="M41 416l8 86q57 6 170 20q57 8 108.5 15.5t73.5 10.5l23 3l18 -49q-43 -31 -53 -101q-16 -127 -16 -460q0 -88 59 -88l62 4l6 -9l-19 -100q-131 6 -200 6l-230 -14l10 94q63 6 92 28.5t29 69.5v404q0 45 -13 59.5t-52 14.5l-68 -4z" />
<glyph unicode="&#x2082;" horiz-adv-x="720" d="M45 -160l166 178q158 186 156 279q0 74 -86 74q-96 0 -177 -109h-20l-27 127q49 72 128 117t157 45q111 0 178.5 -53.5t67.5 -139.5q0 -84 -60.5 -184t-212.5 -264l7 -10h116q59 0 85 25.5t36 94.5l125 11q-29 -158 -37 -271l-22 -18q-322 12 -455 12l-113 -12z" />
<glyph unicode="&#x2083;" horiz-adv-x="634" d="M45 -109l25 25q57 -20 118 -20q74 0 120 28.5t46 73.5q0 90 -182 90l-14 16l-13 101l91 16q92 41 92 115q0 66 -74 65q-66 0 -148 -55h-16l-35 113q47 33 125 62.5t139 29.5q94 0 153.5 -45t59.5 -117q0 -57 -39.5 -105t-109.5 -75v-12q188 -59 188 -195q0 -98 -126 -181 t-279 -83q-61 0 -88 34.5t-33 118.5z" />
<glyph unicode="&#x2084;" horiz-adv-x="690" d="M18 -49l5 108l348 488l10 4l145 -16v-453h103l14 -16l-14 -127l-101 2l9 -172l-15 -15l-184 -14l-10 12q6 102 8 195zM176 82h160v213h-14z" />
<glyph unicode="&#x2085;" horiz-adv-x="624" d="M35 -109l24 25q57 -20 121 -20q74 0 119 28.5t45 75.5t-57.5 73.5t-186.5 35.5l-12 16l25 381l10 10l276 8q68 2 86 54l88 6l-36 -213l-21 -21q-127 10 -270 10l-8 -106q170 -27 244.5 -81.5t74.5 -152.5q0 -106 -125 -194t-276 -88q-59 0 -86 34.5t-35 118.5z" />
<glyph unicode="&#x2086;" horiz-adv-x="673" d="M49 31q0 287 308 450q94 50 173 70l17 -8l33 -88q-8 -2 -22.5 -8.5t-53.5 -27t-73 -46t-73 -67.5t-63 -91l6 -12q55 31 100 41q104 0 166 -64.5t62 -165.5q0 -125 -83 -200.5t-222 -75.5q-125 0 -200 80t-75 213zM242 23q0 -156 102 -156q96 0 96 115q0 59 -26.5 93 t-73.5 34q-49 0 -96 -31q0 -8 -1 -26.5t-1 -28.5z" />
<glyph unicode="&#x2087;" horiz-adv-x="622" d="M45 242q20 162 27 293l8 6q82 -6 166 -6h299l61 -76q-135 -279 -250 -551l-45 -168h-28l-142 41l-14 35l287 559l-160 -13q-61 -4 -81.5 -24.5t-33.5 -87.5z" />
<glyph unicode="&#x2088;" horiz-adv-x="688" d="M61 -70q0 127 142 187q-127 82 -127 205q0 94 82 161.5t202 67.5q102 0 174 -54.5t72 -136.5q0 -111 -117 -174q133 -78 134 -194q0 -109 -86 -181.5t-215 -72.5q-113 0 -187 53t-74 139zM231 -33q0 -47 31 -78.5t78 -31.5q43 0 69.5 22.5t26.5 61.5q0 29 -25.5 53 t-47 35.5t-76.5 38.5q-55 -41 -56 -101zM260 350q0 -27 20.5 -49t45 -35.5t67.5 -32.5q41 45 41 95q0 45 -24.5 70.5t-65.5 25.5q-37 0 -60.5 -21.5t-23.5 -52.5z" />
<glyph unicode="&#x2089;" horiz-adv-x="673" d="M45 272q0 125 83 202t224 77q125 0 199 -80t74 -213q0 -287 -308 -451q-94 -50 -174 -69l-14 8l-33 88q8 2 21.5 8t52.5 26.5t72.5 45.5t73.5 68t65 92l-8 10q-61 -31 -101 -41q-104 0 -165.5 64.5t-61.5 164.5zM236 307q0 -129 98 -129q41 0 96 31q4 37 4 55 q0 76 -27.5 117t-76.5 41q-94 0 -94 -115z" />
<glyph unicode="&#x20a3;" horiz-adv-x="966" d="M84 272l14 90h129l2 469q0 49 -10 65.5t-39 16.5l-57 -2l-12 21l16 102q147 -4 272 -4h109q221 0 430 21l18 -21q-27 -147 -34 -291l-177 -10q4 47 5 68q0 51 -31 67.5t-141 16.5q-10 0 -22.5 -1t-16.5 -1q-8 0 -13.5 -3.5t-10.5 -9.5t-8 -10t-5 -14.5t-3 -15.5t-2 -17 t-2 -16.5t-1 -17.5v-17l-7 -150q45 -2 150 -2l182 15l19 -21l-25 -143q-104 6 -180 6q-35 0 -152 -10l-4 -91q49 0 122 1.5t83 1.5l10 -15l-8 -90h-188l-21 -41q0 -51 14.5 -68.5t53.5 -17.5l100 8l19 -24l-21 -121h-41q-29 0 -89 1t-91 1q-23 0 -63 1t-54 1 q-102 -2 -211 -18l12 122q78 10 97.5 39t23.5 117h-127z" />
<glyph unicode="&#x20ac;" horiz-adv-x="1173" d="M10 352l15 97h139v36q0 29 4 86h-143l-15 15l15 96h168q53 170 201.5 265t361.5 95l323 -38l13 -23q-35 -133 -48 -305l-170 -10q2 41 3 84q0 131 -181 131q-203 0 -247 -199l309 8l14 -18l-8 -99l-330 -2v-30q0 -35 4 -92h8l312 8l14 -19l-8 -98l-303 -2 q63 -199 248 -199q90 0 139 51.5t70 165.5l172 13q-29 -168 -35 -306l-17 -18q-162 -63 -372 -63q-195 0 -321 93t-165 263h-155z" />
<glyph unicode="&#x2122;" horiz-adv-x="1163" d="M2 1126q6 104 8 189l8 8l93 -8h256l94 8l10 -8l6 -182l-90 -7q-8 72 -19.5 89.5t-54.5 19.5q-6 -221 -6 -293q0 -53 43 -53l43 2l4 -4l-8 -66q-111 4 -156 4l-153 -6l6 64q51 4 66.5 17t15.5 52v283q-43 -2 -56.5 -19.5t-21.5 -82.5zM489 819l7 64q45 2 47 51q2 8 17 139 t15 148q0 20 -9 25t-46 9l-8 7l8 57q82 -4 115 -4l113 4l75 -266h11q45 135 84 262q109 0 131 2l79 2l5 -2l-7 -60q-35 -2 -46 -10t-11 -28q0 -88 18 -265q4 -39 12.5 -52t28.5 -13h23l4 -4l-6 -62q-51 2 -86 2q-131 0 -143 -6l8 64q43 6 43 37l-8 202h-11 q-38 -92 -104 -299l-84 -8q-66 217 -102 307h-11q-8 -193 -8 -209q0 -27 25 -26l24 2l6 -6l-8 -60q-82 2 -108 2z" />
<glyph unicode="&#x212e;" horiz-adv-x="1632" d="M82 653q0 283 221 481.5t535 198.5q311 0 532 -198.5t221 -481.5v-16h-1222q-10 0 -11 -8v-371q0 -20 19 -43q186 -199 463 -199q295 0 485 224h111q-104 -123 -262 -194t-336 -71q-311 0 -533.5 199t-222.5 479zM358 684q0 -10 11 -10h938q10 0 10 10v373q0 25 -21 45 q-190 190 -456 190q-270 0 -461 -196q-20 -20 -21 -47v-365z" />
<glyph unicode="&#x2202;" horiz-adv-x="1042" d="M59 428q0 221 118 369.5t294 148.5q47 -8 125 -49l6 10q-131 266 -526 484l65 114l27 13q371 -156 593 -419t222 -589q0 -238 -133 -387.5t-350 -149.5q-209 0 -325 127t-116 328zM332 475q0 -344 215 -344q158 0 158 285q0 158 -29 291q-66 59 -162 59t-139 -65.5 t-43 -225.5z" />
<glyph unicode="&#x220f;" horiz-adv-x="1460" d="M74 -18l14 133q90 18 120 52t30 120q0 131 1 391t1 391q0 63 -14.5 85t-59.5 22l-72 -2l-10 16l16 133q201 -8 285 -8h670q63 0 196 6t135 8l-10 -143q-78 -10 -103.5 -32t-29.5 -79q-25 -457 -24 -803q0 -82 15 -110.5t62 -28.5l88 6l11 -14l-19 -131q-213 6 -303 6 l-278 -18l14 133q84 18 112.5 52t28.5 120v768q0 78 -38 92t-193 14q-113 0 -147.5 -19.5t-39.5 -80.5q-25 -492 -24 -789q0 -72 9 -99.5t36 -33.5q25 -6 47 -6q63 6 64 6l10 -14l-19 -131l-43 1q-43 1 -107.5 3t-101.5 2q-86 0 -206.5 -7t-122.5 -11z" />
<glyph unicode="&#x2211;" horiz-adv-x="1159" d="M-2 68l446 559l-409 606l33 78l2 -2q8 0 23.5 1t21.5 1l518 6q113 4 364 22l23 -20l22 -412l-163 -26q-10 137 -59.5 196.5t-174.5 69.5l-272 20l319 -473v-59l-383 -488l350 31q102 6 155.5 77t78.5 216l174 14q-43 -259 -45 -452l-37 -39l-797 12l-135 -18z" />
<glyph unicode="&#x2212;" horiz-adv-x="1036" d="M35 444l28 185q297 -2 480 -2l444 12l14 -25l-20 -188l-465 -2l-467 -2z" />
<glyph unicode="&#x221a;" horiz-adv-x="1034" d="M-8 809l14 121q127 8 201 14l133 14l14 -16q14 -127 170 -706h25l348 1251l43 33h162l-449 -1512l-278 -33q-177 570 -230 730q-18 57 -53 77.5t-96 18.5z" />
<glyph unicode="&#x221e;" horiz-adv-x="1054" d="M25 498q0 147 83.5 245.5t198.5 98.5q154 0 252 -162q86 168 234 168q106 0 170.5 -89t64.5 -218q0 -150 -87 -249t-210 -99q-150 0 -244 167q-84 -162 -229 -161q-104 0 -168.5 88t-64.5 211zM160 520q0 -61 35.5 -97t101.5 -36q78 0 139 76q-23 45 -36 69.5t-35.5 54 t-46 43t-52.5 13.5q-45 0 -75.5 -32.5t-30.5 -90.5zM612 584q33 -66 52.5 -98.5t53.5 -63.5t70 -31q49 0 80 34t31 93q0 63 -39.5 103.5t-107.5 40.5q-80 0 -140 -78z" />
<glyph unicode="&#x222b;" horiz-adv-x="870" d="M-43 -244q0 37 21.5 102.5t41.5 88.5h29q16 -55 56 -92t90 -37q102 0 108 182l35 872q4 133 134 244t286 111q70 0 128 -18.5t58 -43.5q0 -31 -21.5 -103.5t-37.5 -94.5l-31 -4q-80 111 -166 110q-106 0 -115 -139l-49 -854q-8 -174 -123.5 -292t-263.5 -118 q-63 0 -121.5 27t-58.5 59z" />
<glyph unicode="&#x2248;" horiz-adv-x="1036" d="M57 238v20l187 209l39 8q53 0 231 -40t219 -40q25 0 64 30t64 58l26 29h22l72 -78v-20l-186 -209l-39 -8q-53 0 -230.5 39.5t-220.5 39.5q-25 0 -62.5 -29.5t-64.5 -58.5l-26 -28h-23zM57 606v23l187 207l39 8q53 0 231 -40t219 -40q25 0 64 29.5t64 58.5l26 29h22 l72 -78v-21l-186 -209l-39 -8q-53 0 -230.5 40t-220.5 40q-54 -1 -153 -115h-23z" />
<glyph unicode="&#x2260;" horiz-adv-x="1036" d="M31 264l28 185q180 -2 347 -3l34 162l-393 -2l-16 23l28 184q240 -2 418 -2l58 266l141 8l14 -18l-53 -256l348 12l14 -24l-22 -189q-63 0 -189 -1t-190 -1l-37 -162l424 13l14 -25l-22 -188q-68 0 -201 -1t-198 -1h-54l-53 -248l-143 -12l-11 18l52 242l-322 -2z" />
<glyph unicode="&#x2264;" horiz-adv-x="1001" d="M51 -174l23 156h471q88 0 183 2t150.5 3t53.5 3l16 -31l-22 -158q-164 0 -477.5 -2t-380.5 -2zM76 463l2 199l391 167l362 156l29 -16l41 -156q-211 -78 -371 -145l-251 -103v-14l278 -123l336 -147q2 -10 10 -31l-88 -133l-37 16q-37 16 -118.5 54t-135.5 63l-73 31 q-47 20 -133.5 57t-144.5 62.5t-81 35.5z" />
<glyph unicode="&#x2265;" horiz-adv-x="1001" d="M47 -174l23 156h473q88 0 182 2t149.5 3t53.5 3l16 -31l-22 -158q-162 0 -475.5 -2t-380.5 -2zM98 852l86 133q143 -68 291 -133l76 -33q196 -87 356 -153l17 -27l-2 -201l-392 -168l-362 -153l-27 14l-41 158q211 76 369 143l254 103v14l-281 123l-336 147z" />
<glyph unicode="&#x25ca;" horiz-adv-x="1071" d="M102 598l156 348l170 379l201 8l22 -14l168 -373l158 -330l2 -77l-150 -336l-174 -385l-198 -11l-27 15l-164 364l-162 340zM289 561l121 -262l133 -287h14l111 262l127 299l-123 269l-133 288h-15l-114 -266z" />
<glyph unicode="&#xe000;" horiz-adv-x="955" d="M0 955h955v-955h-955v955z" />
<glyph unicode="&#xfb01;" horiz-adv-x="1275" d="M49 803l17 106l124 21q0 272 146.5 431t408.5 159q137 0 271 -60l10 -30q-39 -92 -78 -203l-24 -8q-12 12 -34 31.5t-87.5 51t-130.5 31.5q-125 0 -177.5 -72.5t-52.5 -244.5l-2 -90q313 0 427 7t266 38l16 -35q-47 -104 -47 -719q0 -49 14 -69.5t47 -20.5l60 4l6 -8 l-21 -129q-143 6 -227 6q-45 0 -106.5 -6t-101.5 -11l-40 -6l15 132q66 12 89 45.5t23 119.5v400q0 72 -22.5 93t-98.5 21h-301q0 -92 -2 -278t-2 -279q0 -94 82 -94l127 2l6 -8l-18 -137q-207 6 -297 6l-271 -12l15 127q66 8 89 38.5t23 112.5v441q-4 47 -29.5 64 t-103.5 20z" />
<glyph unicode="&#xfb02;" horiz-adv-x="1243" d="M49 803l17 106l124 21v16q2 262 140.5 418t371.5 156q113 0 213 -37l224 37l14 -39q-27 -33 -45 -393.5t-18 -870.5q0 -51 13 -71.5t46 -20.5l70 4l4 -12l-21 -123q-154 6 -235 6l-236 -18l17 129q55 12 77.5 38.5t22.5 81.5v992l-2 37q-96 74 -211 73 q-102 0 -147.5 -72.5t-45.5 -244.5l-2 -94l262 6l9 -10l-23 -140q-105 4 -250 6l-4 -553q0 -94 84 -94l125 4l6 -10l-18 -137q-207 6 -297 6l-271 -12l15 127q113 14 112 116v478q-4 47 -28.5 63t-104.5 19z" />
<glyph d="M201 1542l456 213l25 -10l53 -158l-12 -26q-236 -59 -469 -134l-27 19z" />
<glyph d="M104 1657l58 72l35 8q55 -123 210.5 -123t210.5 123l35 -8l58 -72q-31 -102 -107 -170t-196.5 -68t-196.5 67.5t-107 170.5z" />
<glyph d="M66 1540q68 49 148.5 112.5t126.5 102.5l46 39h41q0 2 46 -35t129 -103.5t147 -115.5l-50 -84l-32 -8q-102 51 -260 119q-98 -41 -258 -119l-33 8z" />
<glyph d="M94 1571q0 59 38 98t99 39q57 0 90 -34t33 -89q0 -61 -38 -100t-101 -39q-57 0 -89 33.5t-32 91.5zM459 1571q0 59 39 98t100 39q57 0 89 -34t32 -89q0 -61 -38 -100t-99 -39q-59 0 -91 33.5t-32 91.5z" />
<glyph d="M80 1587l53 158l25 10q236 -117 456 -213l-26 -96l-29 -19q-233 74 -469 134z" />
<glyph d="M102 1473l29 155q195 -2 315 -2l261 12l16 -28l-25 -158l-288 -2l-285 -2z" />
<glyph d="M217 1575q0 84 54.5 139t142.5 55q92 0 137 -51t45 -127q0 -84 -54.5 -143t-144.5 -59q-86 0 -133 51t-47 135zM319 1583q0 -43 29 -64.5t64 -21.5q82 0 82 74q0 39 -25 62.5t-70 23.5q-80 0 -80 -74z" />
<glyph d="M41 1483v22l160 197l35 8q35 0 155.5 -35t149.5 -35q23 0 55.5 27t54.5 53l23 27h22l82 -76v-20l-162 -199l-32 -8q-37 0 -158 34.5t-150 34.5q-23 0 -55.5 -26.5t-54.5 -52.5l-23 -27h-22z" />
<glyph d="M66 1679l49 84l32 9q102 -51 261 -119q98 41 258 119l32 -9l52 -84q-68 -49 -149 -112.5t-127 -102.5l-46 -39h-41q-170 143 -321 254z" />
<glyph d="M254 1585q0 72 45 118t119 46q68 0 105.5 -40t37.5 -107q0 -72 -45 -118t-119 -46q-70 0 -106.5 41t-36.5 106z" />
<glyph d="M174 -555q61 43 100 100.5t39 108.5q1 84 -71 141l6 29q90 72 162 72q61 0 101 -48.5t40 -128.5q0 -102 -85 -200.5t-216 -169.5l-76 61v35z" />
<glyph d="M113 1481l309 274l24 -2l89 -127l-3 -24q-172 -94 -344 -201l-28 10zM457 1470q309 274 309 275l25 -4l88 -123l-2 -25q-174 -94 -347 -200l-24 8z" />
<glyph horiz-adv-x="667" d="M49 803l17 106l124 21q0 260 149.5 408.5t391.5 148.5q185 1 330 -91l4 -3l10 -33q-47 -80 -92 -174l-27 -8q-14 14 -37.5 34.5t-97 54t-147.5 33.5q-123 0 -176.5 -68.5t-55.5 -215.5q0 -16 -1 -47t-1 -47h336l150 2l10 -17l-21 -125l-98 2h-379q0 -92 -2 -276t-2 -277 q0 -94 78 -94l131 4l8 -10l-20 -139l-42 1q-42 1 -105.5 3t-104.5 2q-12 0 -40 1t-42 1q-233 -10 -234 -10l15 127q72 6 92 37.5t20 111.5v441q-2 49 -29.5 64t-103.5 20z" />
<glyph horiz-adv-x="700" d="M49 803l17 106l124 21q0 279 144.5 434.5t384.5 155.5q165 0 282 -70l9 -31q-29 -86 -66 -190l-24 -8q-12 12 -36 30.5t-94.5 50t-136.5 31.5q-117 0 -163 -74.5t-48 -242.5q0 -16 -1 -47t-1 -47l260 6l9 -10l-23 -140q-102 4 -248 6q0 -92 -2 -276t-2 -277q0 -94 82 -94 l127 2l6 -8l-18 -137l-44 1q-44 1 -109.5 3t-104.5 2q-55 0 -132 -3t-127.5 -5t-50.5 -4l15 127q68 8 90 40.5t22 110.5v441q-2 49 -29.5 64t-103.5 20z" />
<glyph horiz-adv-x="690" d="M49 803l17 106l124 21q0 279 140.5 434.5t376.5 155.5q63 0 121.5 -10.5t85.5 -21.5l28 -11l10 -33q-37 -82 -71 -182l-27 -7q-90 78 -215 78t-162 -91t-37 -320h324l151 2l11 -17l-21 -125l-98 2h-369q0 -92 -2 -276t-2 -277q0 -94 84 -94l115 4l6 -10l-18 -137l-43 1 q-43 1 -107.5 3t-101.5 2q-55 0 -131 -3t-125.5 -5t-49.5 -4l15 127q68 8 90 40.5t22 108.5v443q-2 49 -29.5 64.5t-103.5 19.5z" />
<glyph horiz-adv-x="1050" d="M66 575q0 295 134 472.5t353 177.5q201 0 316.5 -159t115.5 -435q0 -299 -132 -477.5t-353 -178.5q-203 0 -318.5 160t-115.5 440zM244 604q0 -172 77 -270t214 -98q131 0 201.5 91t70.5 255q0 174 -79 272t-216 98q-129 0 -198.5 -91t-69.5 -257z" />
<glyph horiz-adv-x="749" d="M45 1036l12 119q78 4 246 29q55 8 104.5 14t79 11t52 8.5t32.5 5.5l11 2l22 -60q-66 -52 -78 -161q-23 -283 -22 -734q0 -76 19.5 -106.5t70.5 -30.5l100 6l6 -10l-22 -137q-190 8 -295 8q-57 0 -136 -6t-130 -11l-51 -6l14 129q106 10 144 49.5t38 143.5v616 q0 72 -21.5 94.5t-80.5 22.5l-105 -10z" />
<glyph horiz-adv-x="1011" d="M41 96l235 260q274 334 273 506q0 131 -148 131q-158 0 -278 -184h-29l-35 164q68 109 185.5 180.5t232.5 71.5q160 0 258.5 -78t98.5 -207q0 -127 -96.5 -290t-338.5 -441l9 -16h219q96 0 135 37.5t61 148.5l156 14q-45 -221 -59 -387l-29 -24q-483 18 -678 18l-150 -20 z" />
<glyph horiz-adv-x="890" d="M55 184l27 29q90 -27 176 -27q119 0 198 52.5t79 130.5q0 88 -73 129t-231 41l-18 20l-14 125l133 31q70 31 111.5 85t41.5 111q0 53 -33.5 85t-91.5 32q-115 0 -225 -88h-24l-43 145q66 43 177 91.5t204 48.5q133 0 218 -69t85 -175q0 -86 -61.5 -163t-164.5 -120v-18 q283 -84 283 -293q0 -152 -186.5 -282t-403.5 -130q-86 0 -122 47t-42 162z" />
<glyph horiz-adv-x="960" d="M0 326l6 137l539 760l6 2l6 2l172 -23v-704h166l18 -25l-20 -168q-66 2 -164 4l14 -293l-16 -16l-238 -25l-16 21q10 174 12 319q-315 9 -485 9zM213 500h274v368h-20z" />
<glyph horiz-adv-x="876" d="M37 184l26 29q90 -27 177 -27q123 0 199.5 54.5t76.5 138.5q0 90 -92 136t-293 58l-18 23q22 274 37 565l16 17l405 14q59 4 86 20.5t43 61.5l113 8l-53 -301l-27 -25q-197 16 -418 17l-14 -211q256 -31 371.5 -113.5t115.5 -234.5q0 -162 -185 -300.5t-402 -138.5 q-82 0 -119 47.5t-45 161.5z" />
<glyph horiz-adv-x="950" d="M57 418q0 414 404 667q160 100 307 140l20 -11l41 -112q-14 -4 -37.5 -14.5t-88 -47t-120 -82t-118 -121t-96.5 -161.5l10 -12q6 2 40 19t72.5 34.5t61.5 21.5q160 0 253 -101t93 -247q0 -182 -122 -299t-322 -117q-180 0 -289 123t-109 320zM307 416q0 -129 48 -202 t137 -73q78 0 120.5 51.5t42.5 147.5t-49 157.5t-131 61.5q-84 0 -164 -57q-4 -57 -4 -86z" />
<glyph horiz-adv-x="872" d="M51 780q29 233 39 418l12 10q123 -8 250 -8h445l80 -98q-223 -459 -402 -893l-63 -234h-35l-187 58l-22 51l459 903l-275 -14q-96 -8 -127.5 -41t-50.5 -139z" />
<glyph horiz-adv-x="980" d="M78 266q0 201 229 303q-203 127 -203 310q0 141 118 243.5t294 102.5q145 0 249.5 -80t104.5 -207q0 -180 -184 -276q98 -57 155.5 -129t57.5 -177q0 -162 -126 -271.5t-314 -109.5q-162 0 -271.5 80t-109.5 211zM301 319q0 -80 54.5 -136t138.5 -56q74 0 122 45t48 115 q0 66 -55.5 109.5t-164.5 96.5l-26 13q-117 -72 -117 -187zM344 928q0 -47 35 -86t70.5 -59.5t113.5 -59.5q80 68 80 168q0 82 -43 127t-113 45q-63 0 -103 -39t-40 -96z" />
<glyph horiz-adv-x="950" d="M49 809q0 184 123 301t322 117q180 0 289.5 -123t109.5 -320q0 -416 -405 -670q-159 -100 -306 -139l-20 13l-41 110q14 4 36.5 14.5t87 47.5t121 82t118 120.5t96.5 161.5l-9 15l-39 -21q-39 -20 -76.5 -36.5t-60.5 -18.5q-160 0 -253 100.5t-93 245.5zM295 860 q0 -96 48 -156.5t130 -60.5q78 0 164 55q6 39 6 88q0 127 -49 200t-135 73q-164 0 -164 -199z" />
<glyph horiz-adv-x="931" d="M39 575q0 295 124 472.5t329 177.5q188 0 294.5 -159t106.5 -435q0 -299 -122 -477.5t-329 -178.5q-190 0 -296.5 159t-106.5 441zM215 604q0 -172 68.5 -270t189.5 -98q117 0 180.5 90t63.5 256q0 174 -69.5 272t-194.5 98q-117 0 -177.5 -90t-60.5 -258z" />
<glyph horiz-adv-x="931" d="M102 1036l15 119q98 6 272 29q63 8 117.5 14t85.5 11t52.5 8.5t30.5 5.5l9 2l23 -60q-43 -31 -62 -64.5t-29 -96.5q-20 -256 -20 -734q0 -76 22.5 -106.5t83.5 -30.5l117 6l6 -10l-24 -137q-211 8 -328 8q-61 0 -147 -6t-142 -11l-55 -6l16 129q125 8 168 48.5t43 144.5 v616q0 72 -27.5 94.5t-92.5 22.5l-121 -10z" />
<glyph horiz-adv-x="931" d="M23 96l227 260q250 328 246 506q0 131 -134 131q-145 0 -260 -184h-26l-37 164q68 111 179.5 181.5t219.5 70.5q154 0 249 -78t95 -207q0 -127 -90 -290t-315 -441l8 -16h195q88 0 124.5 37.5t55.5 148.5l158 14q-43 -221 -56 -387l-28 -24q-457 18 -641 18l-150 -20z " />
<glyph horiz-adv-x="931" d="M68 184l26 29q90 -27 178 -27q127 0 209 52.5t82 130.5q0 90 -74.5 130t-240.5 40l-19 20l-16 125l137 31q74 31 118 84t44 112q0 53 -36 85t-95 32q-119 0 -234 -88h-24l-43 145q57 41 175 90.5t214 49.5q137 0 223 -67.5t86 -176.5q0 -86 -62.5 -163t-168.5 -120v-18 q293 -86 293 -293q0 -152 -191.5 -282t-412.5 -130q-88 0 -125 47t-43 162z" />
<glyph horiz-adv-x="931" d="M-6 326l6 137l526 760q2 0 6.5 2t6.5 2l174 -23v-704h161l17 -25l-19 -168q-63 2 -159 4l14 -293l-16 -16l-238 -25l-16 21q10 174 12 319q-311 9 -475 9zM207 500h264v368h-20z" />
<glyph horiz-adv-x="931" d="M51 184l27 29q94 -27 184 -27q131 0 212 54.5t81 138.5q0 90 -97.5 136t-307.5 58l-21 23q25 274 39 565l16 17l422 14q61 4 89 20.5t44 61.5l113 8l-55 -301l-25 -25q-207 16 -440 17l-15 -211q268 -31 389 -113.5t121 -234.5q0 -162 -192.5 -300.5t-415.5 -138.5 q-84 0 -122 47.5t-46 161.5z" />
<glyph horiz-adv-x="931" d="M53 418q0 416 402 669q157 99 301 138l18 -11l43 -112q-14 -4 -36.5 -14.5t-86 -47t-119 -82t-116 -121t-94.5 -161.5l10 -12q6 2 40 19t71.5 34.5t60.5 21.5q156 0 247 -101t91 -247q0 -182 -120 -299t-319 -117q-180 0 -286.5 123t-106.5 320zM301 416q0 -129 47 -202 t133 -73q160 0 160 199q0 96 -48 157.5t-126 61.5q-82 0 -162 -57q-4 -57 -4 -86z" />
<glyph horiz-adv-x="931" d="M68 780q31 233 41 418l14 10q127 -8 258 -8h463l78 -98q-258 -508 -424 -893l-66 -234h-33l-186 58l-23 51l482 903l-295 -14q-100 -8 -133 -41t-54 -139z" />
<glyph horiz-adv-x="931" d="M66 266q0 203 217 303q-193 125 -193 310q0 141 114.5 243.5t284.5 102.5q143 0 245 -79t102 -208q0 -178 -177 -276q203 -123 203 -306q0 -162 -122 -271.5t-306 -109.5q-158 0 -263 80t-105 211zM287 319q0 -80 51 -136t129 -56q70 0 115 45t45 115q0 45 -32 85 t-71 63.5t-107 57.5q-16 8 -24 13q-106 -72 -106 -187zM328 928q0 -35 14 -63.5t51 -56.5t60.5 -41t81.5 -44q76 63 75 168q0 82 -40 127t-105 45q-63 0 -100 -39t-37 -96z" />
<glyph horiz-adv-x="931" d="M47 809q0 184 120 301t316 117q180 0 288 -123t108 -320q0 -127 -39 -239.5t-100.5 -192.5t-136.5 -146.5t-150.5 -107.5t-137 -70.5t-100.5 -40.5l-39 -12l-18 13l-43 110q14 4 36.5 14.5t85 47.5t118 82t115.5 120.5t95 161.5l-8 15q-2 0 -39 -20.5t-73.5 -37 t-59.5 -18.5q-158 0 -248 100.5t-90 245.5zM291 860q0 -96 46 -156.5t128 -60.5q74 0 160 55q6 39 6 88q0 127 -48 200t-132 73q-160 0 -160 -199z" />
<glyph horiz-adv-x="911" d="M27 485q0 252 124.5 405.5t329.5 153.5q188 0 296 -135t108 -370q0 -254 -124 -409t-329 -155q-188 0 -296.5 136.5t-108.5 373.5zM190 514q0 -123 74 -196.5t199 -73.5q123 0 189.5 65.5t66.5 182.5q0 127 -74 200.5t-203 73.5q-119 0 -185.5 -66.5t-66.5 -185.5z" />
<glyph horiz-adv-x="911" d="M94 856l15 117q8 2 56 6t106.5 11t107.5 14q63 8 116.5 14t84 11t52 8t30.5 5l8 2l22 -61q-43 -31 -61.5 -65t-26.5 -95q-20 -231 -20 -553q0 -76 22.5 -106.5t81.5 -30.5l117 6l6 -10l-25 -137q-209 8 -325 8q-59 0 -145.5 -6t-140.5 -11l-54 -6l16 129q121 10 164 49.5 t43 139.5v440q0 70 -27.5 93.5t-91.5 23.5l-119 -10z" />
<glyph horiz-adv-x="911" d="M12 49l144 170q283 346 282 483q0 125 -116 125q-119 0 -216 -157h-24l-37 151q78 104 179.5 163.5t205.5 59.5q137 0 221 -72.5t84 -191.5q0 -96 -72.5 -213.5t-281.5 -359.5l8 -17h172q88 0 126 39t54 148l158 14q-41 -219 -53 -385l-29 -24q-481 18 -663 18l-127 -18z " />
<glyph horiz-adv-x="911" d="M31 4l26 29q78 -27 179 -27q133 0 221 55.5t88 139.5q0 164 -314 164l-16 20l-16 127l135 29q72 31 115 84t43 112q0 49 -36 80t-94 31q-113 0 -229 -100q-4 0 -12 -1.5t-12 -1.5l-43 146q57 47 174.5 100t212.5 53q139 0 223 -65.5t84 -173.5q0 -84 -62.5 -160 t-169.5 -119v-16q291 -76 291 -270q0 -162 -197.5 -303.5t-424.5 -141.5q-86 0 -123 47t-43 162z" />
<glyph horiz-adv-x="911" d="M-6 150l6 137l522 753q2 0 7.5 2t7.5 2l174 -22v-700h159l19 -23l-21 -170q-63 2 -155 6l12 -297l-16 -18l-236 -25l-16 21q8 178 12 325q-311 9 -475 9zM207 322h262v364h-20z" />
<glyph horiz-adv-x="911" d="M12 4l25 29q82 -27 180 -27q139 0 230.5 55.5t91.5 141.5q0 80 -89.5 126t-310.5 77l-18 22q25 268 39 553l18 16l406 15q61 4 88.5 20.5t44.5 61.5l112 8l-55 -301l-24 -27q-195 16 -424 17l-15 -183q252 -49 375 -127t123 -215q0 -178 -203 -324.5t-430 -146.5 q-82 0 -120 46t-44 163z" />
<glyph horiz-adv-x="911" d="M47 418q0 416 396 669q154 99 296 138l21 -11l41 -112q-12 -4 -35 -14.5t-84 -47t-115.5 -82t-114 -121t-94.5 -161.5l11 -12q6 2 38.5 19t69.5 34.5t60 21.5q154 0 243.5 -101t89.5 -247q0 -182 -118.5 -299t-315.5 -117q-176 0 -282.5 123t-106.5 320zM295 416 q0 -129 46 -202t130 -73q156 0 156 199q0 96 -46 157.5t-124 61.5t-158 -57q-4 -57 -4 -86z" />
<glyph horiz-adv-x="911" d="M61 598q31 233 41 420l13 10q125 -8 256 -8h454l80 -98q-256 -514 -416 -895l-63 -232h-35l-186 55l-25 52l475 905l-286 -16q-100 -8 -133 -41t-52 -140z" />
<glyph horiz-adv-x="911" d="M59 266q0 201 213 303q-188 125 -188 310q0 141 113.5 243.5t281.5 102.5q141 0 241.5 -79t100.5 -208q0 -178 -172 -276q199 -123 199 -306q0 -162 -121 -271.5t-303 -109.5q-158 0 -261.5 80t-103.5 211zM281 319q0 -80 50 -136t126 -56q68 0 111.5 45t43.5 115 q0 35 -13 63.5t-51 56t-60.5 41t-81.5 45.5q-15 8 -23 13q-102 -68 -102 -187zM319 928q0 -35 14.5 -63.5t50.5 -55.5t60.5 -42t79.5 -44q74 66 74 168q0 82 -40 127t-103 45q-59 0 -97.5 -39t-38.5 -96z" />
<glyph horiz-adv-x="911" d="M41 629q0 182 119 298.5t313 116.5q178 0 284.5 -122.5t106.5 -319.5q0 -127 -38 -239.5t-99 -191.5t-135 -146.5t-147.5 -108.5t-135 -69.5t-99.5 -41.5l-38 -12l-20 12l-41 113q12 4 34.5 14.5t84 47t114.5 80.5t112.5 120t94.5 162l-8 14q-6 -2 -39 -20.5t-70 -35.5 t-59 -19q-154 0 -244 100t-90 248zM285 680q0 -98 46 -158.5t124 -60.5q70 0 155 55q6 43 6 88q0 127 -47 201t-129 74q-156 0 -155 -199z" />
<glyph d="M299 1473l205 28l16 -20q-31 -223 -78 -443l-98 -41l-31 9q2 104 -1 220.5t-8 181.5z" />
<glyph horiz-adv-x="1253" d="M49 803l17 106l124 21q0 262 136.5 416.5t365.5 169.5q66 4 115 -3q57 -2 109.5 -15t75.5 -25l24 -13l10 -30q-39 -92 -78 -203l-24 -8q-12 12 -34 31.5t-87.5 51t-130.5 31.5q-143 0 -187.5 -91t-44.5 -316q297 0 417 7t269 38l19 -35q-43 -86 -43 -965q0 -143 -88 -268 t-244 -203l-63 62l4 24q86 86 117.5 187.5t31.5 300.5v600q0 78 -24.5 96t-112.5 18h-285q0 -92 -2 -278t-2 -279q0 -94 82 -94l127 2l6 -8l-18 -137q-207 6 -297 6l-271 -12l15 127q113 14 112 116v476q-2 49 -29.5 64t-103.5 20z" />
<glyph horiz-adv-x="722" d="M59 907q0 195 86 308.5t234 113.5q137 0 212 -101.5t75 -285.5q0 -197 -85 -310.5t-235 -113.5q-137 0 -212 101.5t-75 287.5zM195 924q0 -98 45 -150.5t129 -52.5q162 0 161 190q0 100 -46 154.5t-132 54.5q-158 0 -157 -196z" />
<glyph horiz-adv-x="542" d="M41 1196l8 86q57 6 170 21q57 6 107.5 13t73.5 10l24 3l18 -47q-43 -30 -53 -100q-16 -127 -16 -461q0 -88 59 -88l62 4l6 -8l-19 -101q-131 6 -200 7l-230 -15l10 94q63 4 92 27t29 70v403q0 47 -13 61.5t-52 14.5l-68 -4z" />
<glyph horiz-adv-x="720" d="M45 621l166 178q158 186 156 278q0 74 -86 74q-92 0 -177 -109h-20l-27 127q49 72 128 116t157 44q111 0 178.5 -52t67.5 -138t-60.5 -185.5t-212.5 -263.5l7 -12h116q59 0 85 25.5t36 95.5l125 10q-29 -158 -37 -268l-22 -21q-322 14 -455 15l-113 -13z" />
<glyph horiz-adv-x="634" d="M45 672l25 24q55 -23 118 -22q74 0 120 28.5t46 73.5q0 92 -182 92l-14 17l-13 98l91 18q92 41 92 115q0 29 -20.5 47.5t-53.5 18.5q-66 0 -148 -56h-16l-35 111q47 33 125 62.5t139 29.5q96 0 154.5 -44t58.5 -116q0 -57 -39.5 -105t-109.5 -75v-14q188 -57 188 -193 q0 -98 -126 -181t-279 -83q-61 0 -88 35t-33 119z" />
<glyph horiz-adv-x="690" d="M18 731l5 107l348 489l10 2l145 -14v-453h103l14 -18l-14 -125l-101 2l9 -172l-15 -14l-184 -17l-10 14q6 102 8 195zM176 862h160v213h-14z" />
<glyph horiz-adv-x="624" d="M35 672l24 24q55 -23 121 -22q74 0 119 29.5t45 76.5q0 92 -244 109l-12 16l25 381l10 10l276 9q39 0 57.5 11t28.5 42l88 6l-36 -213l-21 -21q-127 10 -270 11l-8 -109q170 -25 244.5 -79t74.5 -152q0 -106 -125 -194.5t-276 -88.5q-59 0 -86 35t-35 119z" />
<glyph horiz-adv-x="673" d="M49 809q0 288 308 451q94 49 173 69l17 -8l33 -86q-8 -2 -22.5 -8t-53.5 -26.5t-73 -46.5t-73 -68t-63 -91l6 -12q68 35 100 41q104 0 166 -64.5t62 -164.5q0 -125 -83 -201t-222 -76q-125 0 -200 80t-75 211zM242 803q0 -156 102 -156q96 0 96 113q0 59 -26.5 94 t-73.5 35q-49 0 -96 -31q0 -8 -1 -26.5t-1 -28.5z" />
<glyph horiz-adv-x="622" d="M45 1022q20 162 27 291l8 6q82 -6 166 -6h299l61 -76q-135 -274 -250 -549l-45 -168h-28l-142 41l-14 35l287 559l-160 -12q-61 -6 -81.5 -25.5t-33.5 -87.5z" />
<glyph horiz-adv-x="688" d="M61 711q0 123 142 186q-127 82 -127 205q0 94 82 160.5t202 66.5q102 0 174 -53t72 -135q0 -113 -117 -176q133 -74 134 -195q0 -109 -86 -180.5t-215 -71.5q-113 0 -187 53.5t-74 139.5zM231 745q0 -47 31 -78.5t78 -31.5q43 0 69.5 23.5t26.5 62.5q0 27 -24.5 51.5 t-48 37.5t-76.5 38q-55 -41 -56 -103zM260 1130q0 -27 20.5 -49t45 -35.5t67.5 -31.5q41 45 41 94q0 45 -24.5 70.5t-65.5 25.5q-37 0 -60.5 -21.5t-23.5 -52.5z" />
<glyph horiz-adv-x="673" d="M45 1053q0 125 83 200.5t224 75.5q125 0 199 -80t74 -211q0 -288 -308 -451q-94 -49 -174 -69l-14 8l-33 88q8 2 21.5 8.5t52.5 27t72.5 45t73.5 66.5t65 91l-8 12q-70 -35 -101 -41q-104 0 -165.5 64.5t-61.5 165.5zM236 1087q0 -129 98 -129q45 0 96 29q4 37 4 57 q0 76 -27.5 117t-76.5 41q-94 0 -94 -115z" />
<glyph horiz-adv-x="722" d="M59 373q0 195 86 309.5t234 114.5q137 0 212 -102.5t75 -286.5q0 -197 -85 -310.5t-235 -113.5q-137 0 -212 101t-75 288zM195 389q0 -96 45 -149.5t129 -53.5q162 0 161 193q0 100 -46 153.5t-132 53.5q-158 0 -157 -197z" />
<glyph horiz-adv-x="542" d="M41 662l8 86q57 6 170 20q57 8 108.5 15.5t73.5 10.5l23 3l18 -49q-43 -31 -53 -101q-16 -127 -16 -461q0 -88 59 -88l62 4l6 -8l-19 -100q-131 6 -200 6l-230 -14l10 94q63 6 92 28.5t29 69.5v404q0 45 -13 59t-52 14l-68 -4z" />
<glyph horiz-adv-x="720" d="M45 86l166 178q158 186 156 279q0 74 -86 73q-96 0 -177 -108h-20l-27 127q49 72 128 117t157 45q111 0 178.5 -53.5t67.5 -139.5q0 -84 -60.5 -184.5t-212.5 -263.5l7 -11h116q59 0 85 26t36 95l125 10q-29 -158 -37 -270l-22 -18q-322 12 -455 12l-113 -12z" />
<glyph horiz-adv-x="634" d="M45 137l25 25q57 -20 118 -21q74 0 120 29t46 74q0 90 -182 90l-14 16l-13 101l91 16q92 41 92 115q0 66 -74 65q-66 0 -148 -55h-16l-35 113q47 33 125 62.5t139 29.5q94 0 153.5 -45t59.5 -117q0 -57 -39.5 -105.5t-109.5 -74.5v-13q188 -59 188 -194q0 -98 -126 -181 t-279 -83q-61 0 -88 34.5t-33 118.5z" />
<glyph horiz-adv-x="690" d="M18 197l5 108l348 488l10 4l145 -17v-452h103l14 -17l-14 -127l-101 2l9 -172l-15 -14l-184 -14l-10 12q6 102 8 195zM176 328h160v213h-14z" />
<glyph horiz-adv-x="624" d="M35 137l24 25q57 -20 121 -21q74 0 119 29t45 76t-57.5 73.5t-186.5 34.5l-12 17l25 381l10 10l276 8q68 2 86 53l88 6l-36 -213l-21 -20q-127 10 -270 10l-8 -106q170 -27 244.5 -81.5t74.5 -152.5q0 -106 -125 -194t-276 -88q-59 0 -86 34.5t-35 118.5z" />
<glyph horiz-adv-x="673" d="M49 276q0 287 308 451q94 50 173 70l17 -9l33 -88q-8 -2 -22.5 -8t-53.5 -26.5t-73 -46t-73 -67.5t-63 -91l6 -12q55 31 100 40q104 0 166 -64.5t62 -164.5q0 -125 -83 -200.5t-222 -75.5q-125 0 -200 79.5t-75 212.5zM242 268q0 -156 102 -155q96 0 96 114 q0 59 -26.5 93t-73.5 34q-49 0 -96 -30q0 -8 -1 -26.5t-1 -29.5z" />
<glyph horiz-adv-x="622" d="M45 487q20 162 27 293l8 6q82 -6 166 -6h299l61 -75q-135 -279 -250 -551l-45 -168h-28l-142 41l-14 34l287 560l-160 -13q-61 -4 -81.5 -24.5t-33.5 -87.5z" />
<glyph horiz-adv-x="688" d="M61 176q0 127 142 186q-127 82 -127 205q0 94 82 162t202 68q102 0 174 -54.5t72 -136.5q0 -111 -117 -174q133 -78 134 -194q0 -109 -86 -181.5t-215 -72.5q-113 0 -187 53t-74 139zM231 213q0 -47 31 -79t78 -32q43 0 69.5 22.5t26.5 61.5q0 29 -25.5 53.5t-47 36 t-76.5 37.5q-55 -41 -56 -100zM260 596q0 -27 20.5 -49.5t45 -35.5t67.5 -32q41 45 41 94q0 45 -24.5 71t-65.5 26q-37 0 -60.5 -21.5t-23.5 -52.5z" />
<glyph horiz-adv-x="673" d="M45 518q0 125 83 202t224 77q125 0 199 -80t74 -213q0 -287 -308 -451q-94 -50 -174 -69l-14 8l-33 88q8 2 21.5 8t52.5 26.5t72.5 45t73.5 67.5t65 92l-8 11q-61 -31 -101 -41q-104 0 -165.5 64.5t-61.5 164.5zM236 553q0 -129 98 -129q41 0 96 31q4 37 4 55 q0 76 -27.5 117t-76.5 41q-94 0 -94 -115z" />
<glyph horiz-adv-x="698" d="M47 893q0 41 22.5 71.5t59.5 41.5l264 53v18q0 51 -29.5 81t-82.5 30q-77 0 -160 -60l-12 7l-29 90q197 106 262 106q127 0 186.5 -52t59.5 -134q0 -23 -13.5 -127.5t-13.5 -128.5q0 -51 43 -51l60 18l20 -33q-74 -127 -137 -145q-133 0 -144 102l-14 4 q-100 -100 -151 -100q-80 0 -135.5 60.5t-55.5 148.5zM238 907q0 -33 18 -54.5t47 -21.5q41 0 84 25l4 121l-125 -31q-29 -8 -28 -39z" />
<glyph horiz-adv-x="741" d="M2 1554l8 82q313 45 314 45l10 -28q-27 -31 -37 -410q117 82 139 82q121 0 189.5 -79t68.5 -218q0 -154 -95 -249t-251 -95l-235 23l-13 14v749q0 45 -12 61.5t-47 16.5q-8 0 -19.5 -1t-15.5 -1zM291 827q41 -16 84 -16q111 0 110 164q0 98 -29.5 152.5t-82.5 54.5 q-45 0 -78 -29z" />
<glyph horiz-adv-x="630" d="M47 993q0 150 94.5 244t245.5 94q49 0 93 -7t65 -14l20 -7l6 -15q-23 -100 -28 -215l-105 -6v45q0 88 -71 88q-106 0 -107 -153q0 -213 133 -213q33 0 68 9t52 18l17 9l13 -4l26 -84q-125 -104 -215 -104q-143 0 -225 84t-82 231z" />
<glyph horiz-adv-x="768" d="M47 983q0 154 95.5 248t250.5 94q39 0 56 -2v143q0 45 -12.5 61.5t-47.5 16.5l-33 -4l11 96q66 6 141.5 17.5t119.5 19.5l44 8l14 -24q-20 -29 -33.5 -250t-13.5 -518q0 -51 41 -51q10 0 23.5 5t20.5 9l7 4l23 -33q-63 -117 -146 -145q-127 0 -143 98l-8 2 q-129 -94 -152 -94q-121 0 -189.5 80t-68.5 219zM256 1032q0 -96 29.5 -150.5t83.5 -54.5q20 0 39.5 8.5t29.5 15.5l11 7v322q-35 18 -82 18q-111 0 -111 -166z" />
<glyph horiz-adv-x="677" d="M47 993.5q0 149.5 93 243.5t241 94q240 0 240 -244l-9 -81l-16 -15h-340v-8q16 -156 156 -156q39 0 79.5 10.5t62.5 20.5l21 10l11 -6l24 -80q-137 -104 -243 -104q-152 0 -236 83t-84 232.5zM254 1077l154 8q23 2 22 29q0 92 -72 92q-98 0 -104 -129z" />
<glyph horiz-adv-x="509" d="M41 1206l12 78l84 12v17q0 168 96.5 268t258.5 100l157 -28l8 -25q-25 -61 -49 -133l-18 -6q-57 53 -137 53q-68 0 -93.5 -41t-27.5 -147v-60l170 4l6 -8l-16 -100q-66 4 -162 4l-2 -340q0 -55 51 -55l84 2l4 -6l-12 -105q-150 4 -209 4l-195 -8l10 96q41 4 58.5 21.5 t17.5 52.5v289q-2 31 -19.5 40t-70.5 13z" />
<glyph horiz-adv-x="739" d="M66 799q16 18 44.5 41.5t49.5 37.5l20 13v12q-104 57 -104 184q0 109 83 177.5t214 68.5q31 0 76 -6t65 -6q31 2 79 13.5t82 22.5l34 11l8 -8l-19 -117q-45 -4 -92 -6l-6 -8q55 -55 55 -129q0 -104 -85 -171t-222 -67q-33 0 -86 8q-27 -18 -26 -39q0 -31 72.5 -40 t158.5 -8t158.5 -36.5t72.5 -119.5q0 -96 -113.5 -174t-256.5 -78q-119 0 -189.5 51t-70.5 139q37 37 137 88v9q-63 8 -101 45.5t-38 91.5zM268 565q0 -35 30 -55.5t79 -20.5q55 0 96 25t41 57q0 27 -34 38.5t-177 31.5q-35 -37 -35 -76zM276 1094q1 -127 95 -127 q84 0 84 123q0 127 -99 127q-80 0 -80 -123z" />
<glyph horiz-adv-x="784" d="M10 1554l8 82q313 45 314 45l12 -28q-31 -31 -41 -441q125 119 170 119q102 0 157.5 -45t55.5 -129q0 -27 -13.5 -153.5t-13.5 -157.5q0 -57 39 -58l39 3l2 -7l-12 -94q-106 4 -160 4l-159 -6l10 96q55 10 57 68l4 211q0 106 -76 106q-41 0 -102 -47q-2 -86 -2 -280 q0 -51 37 -51l26 2l5 -9l-13 -94q-102 4 -159 4l-160 -4l12 96q35 2 48.5 18.5t13.5 51.5v614q0 45 -12.5 60.5t-49.5 15.5h-31z" />
<glyph horiz-adv-x="442" d="M43 1194l8 90q141 16 291 47l14 -26q-31 -59 -30 -465q0 -49 36 -49l37 2l4 -7l-14 -96q-106 4 -166 4l-178 -14l12 100q78 8 78 80v262q0 45 -13 60.5t-48 15.5zM123 1550q0 55 31.5 88t87.5 33q51 0 79.5 -29.5t28.5 -80.5q0 -53 -33 -87t-88 -34q-51 0 -78.5 28.5 t-27.5 81.5z" />
<glyph horiz-adv-x="425" d="M25 416l2 16q59 57 79.5 120.5t20.5 188.5v381q0 43 -10.5 59.5t-36.5 16.5l-43 -4l10 90l287 47l14 -26q-31 -68 -31 -629q0 -92 -65 -174t-176 -133zM113 1550q0 53 33.5 87t86.5 34q51 0 80 -29.5t29 -80.5q0 -53 -33 -87t-88 -34q-109 0 -108 110z" />
<glyph horiz-adv-x="757" d="M10 1559l8 77q313 45 314 45l12 -28q-45 -45 -45 -813q0 -51 37 -52h31l2 -6l-15 -92q-104 4 -159 4l-160 -6l12 96q39 4 50.5 22.5t11.5 65.5v598q0 63 -33 72q-10 4 -62 4zM313 1008l6 34l115 119q27 27 27 43q0 27 -70 27l-4 6l12 80q98 -2 176 -2l154 4l4 -6l-12 -90 q-16 -8 -32.5 -17.5t-35 -23t-31 -22.5t-32 -27.5t-28.5 -27.5t-31.5 -30.5t-28.5 -27.5l102 -168q53 -86 127 -95l6 -12l-10 -80q-59 -12 -98 -14h-66q-74 10 -125 106z" />
<glyph horiz-adv-x="411" d="M10 1559l8 77q313 45 314 45l12 -28q-45 -45 -45 -813q0 -51 37 -52h45l2 -6l-14 -92q-115 4 -174 4l-162 -8l12 96q39 8 51.5 26.5t12.5 63.5v598q0 63 -33 72q-10 4 -62 4z" />
<glyph horiz-adv-x="1183" d="M43 1202l10 84l279 45l14 -14q-12 -49 -16 -94l4 -4q133 113 170 112q164 0 198 -114q131 115 170 114q102 0 157.5 -45t55.5 -129q0 -27 -13 -153.5t-13 -157.5q0 -57 41 -58l37 3l2 -7l-13 -94q-109 4 -161 4l-152 -4l8 96q29 4 40 18.5t13 47.5l3 211q2 106 -76 106 q-37 0 -92 -39l-19 -284q0 -57 39 -58l33 3l4 -7l-16 -94q-100 4 -154 4l-158 -6l11 96q55 12 55 68l4 211q0 106 -76 106q-35 0 -94 -41q-14 -233 -14 -284q0 -29 8 -40t28 -11h31l2 -7l-14 -96q-98 4 -152 4l-176 -4l15 96q39 4 54 18.5t15 51.5v260q0 45 -13 61.5 t-52 16.5h-21z" />
<glyph horiz-adv-x="724" d="M47 989q0 156 91 249t243 93q141 0 219 -82t78 -227q0 -156 -90 -250t-242 -94q-137 0 -218 84t-81 227zM260 1042q0 -243 109 -243q94 0 94 155q0 244 -109 244q-94 0 -94 -156z" />
<glyph horiz-adv-x="776" d="M37 1202l10 84l279 45l12 -14q-10 -47 -14 -90l6 -4q102 102 125 102q125 0 198.5 -81t73.5 -216q0 -162 -100.5 -253t-270.5 -91l-39 2v-115q0 -51 7.5 -68.5t35.5 -17.5q12 0 35 2t25 2l2 -6l-14 -98q-2 0 -76 2t-109 2l-174 -6l12 96q37 2 48.5 17.5t11.5 58.5 q2 41 8 197v364q0 45 -13.5 61.5t-52.5 16.5h-20zM324 827q49 -16 86 -16q109 0 108 164q0 199 -110 199q-35 0 -76 -27q-8 -205 -8 -320z" />
<glyph horiz-adv-x="741" d="M47 983q0 154 95.5 248t250.5 94q66 0 162 -12l96 37l19 -17q-31 -61 -31 -770q0 -47 7 -60.5t32 -13.5h37l2 -4l-8 -96h-197l-178 -4l10 96q61 4 79.5 18.5t20.5 63.5l5 209q-119 -88 -144 -88q-121 0 -189.5 79t-68.5 220zM256 1032q0 -96 29.5 -150.5t83.5 -54.5 q20 0 39.5 8.5t29.5 15.5l11 7v322q-35 18 -82 18q-111 0 -111 -166z" />
<glyph horiz-adv-x="618" d="M45 1202l8 82l281 47l14 -14q-14 -63 -16 -117l10 -6q90 125 190 125l50 -4l8 -12q-25 -147 -31 -269l-106 -6q0 68 -8.5 90.5t-30.5 22.5q-37 0 -74 -43q-14 -227 -14 -248q0 -29 11 -41t38 -12l69 4l7 -8l-17 -103q-125 4 -194 4l-185 -6l13 98q41 2 55 18.5t14 63.5 v248q0 47 -12 62.5t-49 15.5h-23z" />
<glyph horiz-adv-x="598" d="M45 735q12 59 21 174l90 6q2 -55 31.5 -87.5t80.5 -32.5q76 0 76 47q0 25 -23.5 42t-101.5 52q-158 70 -158 184q0 94 82 152.5t217 58.5q41 0 81 -6t59 -13l18 -7l10 -17q-16 -88 -26 -178l-90 -4v16q0 88 -86 88q-31 0 -50.5 -13t-19.5 -36q0 -39 80 -78 q121 -53 164 -95t43 -105q0 -88 -84 -146.5t-211 -58.5q-51 0 -98.5 10t-69.5 21l-23 10z" />
<glyph horiz-adv-x="491" d="M14 1210l11 78q133 59 260 154l43 -25q-10 -47 -19 -123l144 4l4 -8l-15 -100l-141 4q-8 -147 -8 -266q0 -98 78 -99q16 0 34.5 4.5t29.5 8.5l11 4l19 -49q-119 -119 -166 -119q-195 0 -195 168v278q0 45 -14 59.5t-59 14.5z" />
<glyph horiz-adv-x="786" d="M31 1194l10 92l274 45l15 -26q-37 -78 -37 -365q0 -96 74 -96q39 0 94 37v252q0 39 -10.5 50t-44.5 13h-19l14 88l275 43l14 -24q-39 -72 -39 -414q0 -51 43 -51q12 0 26.5 5t22.5 9l9 4l22 -31q-78 -123 -153 -147q-131 0 -148 102l-12 6q-102 -106 -133 -106 q-230 0 -230 174l13 283q0 61 -43 61z" />
<glyph horiz-adv-x="688" d="M4 1225l8 92q88 -2 138 -2l196 10l4 -8l-14 -94q-39 -4 -49.5 -10.5t-10.5 -22.5l68 -328h18q101 293 101 332q0 25 -37 25h-31l-4 8l10 90q92 -2 152 -2l129 2l-12 -96q-31 -4 -42.5 -16.5t-25.5 -51.5l-160 -459l-225 -18q-100 383 -129 477q-20 66 -82 68z" />
<glyph horiz-adv-x="1064" d="M6 1225l10 92q84 -2 136 -2l194 10l4 -8l-14 -94q-39 -4 -49.5 -10.5t-10.5 -22.5l68 -328h18q14 37 52.5 164t42.5 152q-4 25 -16.5 33t-49.5 8l-4 6l14 92q82 -2 134 -2l188 8l4 -6l-14 -94q-41 -6 -50.5 -11.5t-9.5 -21.5l68 -328h18q99 289 99 332q0 25 -35 25h-33 l-4 8l12 90q90 -2 150 -2l129 2l-13 -96q-31 -4 -42 -16.5t-25 -51.5l-158 -459l-215 -18q-6 35 -30.5 145.5t-34.5 155.5h-21l-80 -283l-221 -18q-100 383 -129 477q-18 63 -80 68z" />
<glyph horiz-adv-x="727" d="M16 700l11 76q31 14 118 117l105 123l-86 114q-55 76 -137 91l-2 8l8 88q74 -2 168 -2l182 6l4 -10l-8 -82q-47 0 -47 -25q0 -16 28 -59l48 -62l55 74q29 45 29 53q0 18 -46 19l-2 6l9 80h133l121 4l4 -8l-6 -84q-72 -43 -117 -99l-105 -139l95 -121q66 -82 131 -90l4 -4 l-13 -82q-96 2 -137 2l-209 -6l-6 6l12 78q49 0 50 23q0 6 -17 32l-71 95q-82 -102 -82 -121q0 -25 47 -27l4 -8l-10 -78q-111 6 -144 6l-117 -4z" />
<glyph horiz-adv-x="684" d="M-20 498l12 20q186 23 276 160q-113 317 -190 485q-31 53 -78 56l-2 6l10 90h103q227 0 227 10l2 -8l-12 -94q-59 -2 -60 -31q0 -18 19.5 -92t40.5 -139l20 -66h19q106 266 106 299q0 14 -6 19.5t-29 5.5h-35l-4 8l13 90q88 -2 149 -2h129l-12 -96q-29 -6 -41 -17.5 t-25 -42.5l-172 -411q-154 -377 -338 -373q-25 0 -73.5 49t-48.5 74z" />
<glyph horiz-adv-x="659" d="M35 737l332 477l-101 -10q-74 -6 -98.5 -27.5t-28.5 -86.5l-78 -9q12 147 15 236l10 8l178 -10l330 -2l20 -45q-178 -233 -338 -471l117 12q61 8 92 43t41 111l78 6q-23 -158 -22 -258l-21 -21l-418 6l-77 -8z" />
<glyph horiz-adv-x="1603" d="M205 43v866q0 164 164 164h866q164 0 164 -164v-866q0 -164 -164 -164h-866q-164 0 -164 164zM391 190h152v369q0 25 49 25q88 0 88 -115v-279h151v365q0 66 -44.5 108t-114.5 42l-99 -58q-12 -8 -18 -8q-12 0 -12 18v238h-152v-705zM891 618h53q20 0 21 -20v-270 q0 -66 45 -108t114 -42l129 76v51q-25 -8 -53 -8q-84 0 -84 117v184q0 20 21 20h118v74h-118q-20 0 -21 21v57h-43l-182 -115v-37z" />
<glyph horiz-adv-x="946" d="M0 0v946h946v-946h-946z" />
<glyph horiz-adv-x="1314" d="M0 0v1315h1315v-1315h-1315z" />
<glyph horiz-adv-x="600" d="M51 782l12 121q84 10 182.5 27.5t154.5 28.5l57 12l18 -35q-49 -102 -49 -719q0 -90 63 -90l60 4l4 -8l-21 -129q-141 6 -227 6q-45 0 -108.5 -6t-103.5 -11l-40 -6l17 132q117 20 116 127v438q0 63 -19.5 88.5t-68.5 25.5zM160 1323q0 74 45 119t117 45q68 0 106.5 -39 t38.5 -109q0 -74 -46 -118.5t-118 -44.5q-68 0 -105.5 38.5t-37.5 108.5z" />
</font>
</defs>
</svg>
