<?xml version="1.0" standalone="no"?>
<!DOCTYPE svg PUBLIC "-//W3C//DTD SVG 1.1//EN" "http://www.w3.org/Graphics/SVG/1.1/DTD/svg11.dtd" >
<svg xmlns="http://www.w3.org/2000/svg">
<metadata>
This is a custom SVG webfont generated by Font Squirrel.
Copyright   : Copyright c 2011 Juan Pablo del Peral juanhuertatipograficacomar with Reserved Font Names Alegreya Alegreya SC
Designer    : Juan Pablo del Peral
Foundry     : Juan Pablo del Peral
Foundry URL : wwwhuertatipograficacomar
</metadata>
<defs>
<font id="AlegreyaSCBlack" horiz-adv-x="815" >
<font-face units-per-em="2048" ascent="1638" descent="-410" />
<missing-glyph horiz-adv-x="294" />
<glyph unicode=" "  horiz-adv-x="294" />
<glyph unicode="&#x09;" horiz-adv-x="294" />
<glyph unicode="&#xa0;" horiz-adv-x="294" />
<glyph unicode="!" horiz-adv-x="581" d="M78 176q0 98 56 155.5t153 57.5q90 0 140 -51t50 -143q0 -98 -55.5 -155.5t-151.5 -57.5q-94 0 -143 50t-49 144zM90 1366l37 49l385 53l51 -53l-149 -880l-211 -33l-43 41z" />
<glyph unicode="&#x22;" horiz-adv-x="708" d="M51 1321l275 29l18 -25q-33 -223 -86 -453l-149 -51l-39 13q2 109 -3.5 230.5t-10.5 188.5zM399 1321l275 29l18 -25q-33 -223 -86 -453l-149 -51l-39 13q2 109 -3 230.5t-11 188.5z" />
<glyph unicode="#" horiz-adv-x="1140" d="M14 322l29 215l190 -2l15 92l10 67h-162l-18 27l28 215l187 -2l35 240l221 18l29 -14l-46 -244h164l35 240l221 18l29 -14l-45 -238l174 6l14 -31l-18 -217l-211 -2l-4 -32l-21 -123l177 6l14 -31l-19 -217l-206 -2l-31 -205l-217 -29l-27 19l37 215h-168l-29 -205 l-217 -29l-26 19l37 213h-162zM467 535h170l14 92l11 69h-170l-5 -32z" />
<glyph unicode="$" horiz-adv-x="970" d="M27 82q33 164 39 260l231 16q0 -70 37 -106.5t102 -36.5q96 0 96 47q0 18 -11 33.5t-38.5 30t-51 24.5t-69 26.5t-69.5 26.5q-119 49 -188.5 117t-69.5 182q0 129 100.5 218.5t278.5 117.5l35 281l237 29l12 -19l-36 -282q66 -4 127 -14.5t90 -18.5l28 -8l23 -39 q-33 -135 -47 -279l-213 -14l-23 14v17q0 49 -30.5 76.5t-84.5 27.5q-41 0 -67.5 -15.5t-26.5 -41.5q0 -12 5.5 -23.5t18.5 -22t24.5 -18.5t35 -17t38.5 -15.5t46 -16.5t45 -16q61 -23 103.5 -44.5t89.5 -57.5t70.5 -87t23.5 -117q0 -135 -107.5 -220t-302.5 -107l-36 -299 l-234 -27l-16 12l39 314q-141 16 -232 61z" />
<glyph unicode="%" horiz-adv-x="1552" d="M0 954q0 186 90 291t250 105q147 0 225 -92.5t78 -268.5q0 -186 -89 -290.5t-247 -104.5q-150 0 -228.5 93t-78.5 267zM164 -80q227 328 397 598l547 873l178 -66l21 -49q-367 -567 -553 -852l-387 -610l-191 71zM164 973q0 -96 164 -96q150 0 149 86q0 96 -166 96 q-78 0 -112.5 -20.5t-34.5 -65.5zM909 336q0 186 90.5 290.5t249.5 104.5q147 0 225 -92t78 -268q0 -186 -88.5 -291t-246.5 -105q-150 0 -229 93.5t-79 267.5zM1073 354q0 -96 164 -96q150 0 149 86q0 96 -165 96q-78 0 -113 -20.5t-35 -65.5z" />
<glyph unicode="&#x26;" horiz-adv-x="1392" d="M49 508q0 195 128 338t300 143q76 0 132.5 -41t56.5 -92v-16l12 -9q80 119 118 216.5t54 238.5l29 33h106q131 -188 131 -242q0 -33 -31 -71q-276 -457 -690 -680q102 -96 275 -97q252 0 295 197l-29 2q-20 0 -43 -9t-36 -20l-13 -10h-13l-83 121v8l143 135l35 11 q37 0 188.5 -12.5t171.5 -12.5q25 0 58.5 10t54.5 22l20 11h15l77 -119l2 -10l-139 -135l-39 -12l-123 6q-66 -188 -234.5 -312.5t-363.5 -124.5q-254 0 -409.5 147.5t-155.5 385.5zM293 573q0 -53 16 -112q98 59 130 93t32 81q0 70 -65 70q-53 0 -83 -35.5t-30 -96.5z" />
<glyph unicode="'" horiz-adv-x="360" d="M51 1321l275 29l18 -25q-33 -223 -86 -453l-149 -51l-39 13q2 109 -3.5 230.5t-10.5 188.5z" />
<glyph unicode="(" horiz-adv-x="632" d="M111 334v354q0 377 241 575q58 47 105 66h35l106 -131l-2 -18q-6 -4 -17.5 -13.5t-40 -46.5t-50 -84t-39 -132t-17.5 -185v-354q0 -331 142 -492l28 -27v-22l-127 -123h-24q-14 6 -37 18.5t-81.5 62.5t-103.5 114.5t-81.5 181.5t-36.5 256z" />
<glyph unicode=")" horiz-adv-x="632" d="M31 1184v22l127 123h24q14 -6 37 -18.5t81 -62.5t103.5 -114.5t82 -181.5t36.5 -256v-354q0 -377 -242 -575q-58 -47 -104 -66h-35l-106 131l2 18q6 4 17.5 13.5t40 46.5t50 84t39 132t17.5 185v355q0 331 -142 491z" />
<glyph unicode="*" horiz-adv-x="745" d="M25 1198q0 111 28 191l23 6q90 -49 215 -144l-19 -100l-18 -14zM61 928l2 24q74 70 201 160l92 -49l6 -19q-127 -201 -126 -200q-106 33 -175 84zM295 1507q106 33 192 33l15 -20q-23 -100 -72 -250l-102 -10l-17 10zM389 1047l76 71h22l150 -184q-63 -92 -135 -139 l-23 10q-43 90 -90 242zM446 1237l9 23q221 84 221 83q68 -90 90 -172l-16 -16q-12 -2 -33 -4t-88.5 -5t-136.5 -3z" />
<glyph unicode="+" horiz-adv-x="1036" d="M31 387l37 277q150 -2 301 -2l2 321l268 27l31 -15q-8 -180 -13 -333l332 12l15 -31l-27 -278l-320 -3l2 -288l-266 -37l-26 18q0 152 2 307q-319 -2 -320 -2z" />
<glyph unicode="," horiz-adv-x="487" d="M-16 -104q59 43 95 102t36 115q-1 89 -60 155l6 29q117 90 209 90q78 0 126 -56.5t48 -150.5q0 -109 -92 -224.5t-250 -205.5l-118 94v52z" />
<glyph unicode="-" horiz-adv-x="663" d="M68 397l20 217l313 35l170 23l25 -37l-27 -221l-475 -54z" />
<glyph unicode="." horiz-adv-x="487" d="M43 176q0 98 56.5 155.5t152.5 57.5q90 0 140 -51t50 -143q0 -98 -55 -155.5t-151 -57.5q-94 0 -143.5 50t-49.5 144z" />
<glyph unicode="/" horiz-adv-x="673" d="M8 -195q102 346 182 658l236 919h244l35 -41q-158 -569 -246 -901l-170 -665h-258z" />
<glyph unicode="0" horiz-adv-x="956" d="M27 489q0 264 127 415t350 151q207 0 316.5 -133.5t109.5 -380.5q0 -266 -125 -416t-348 -150q-207 0 -318.5 133.5t-111.5 380.5zM248 516q-1 -149 239 -149q219 0 220 137q0 152 -242 151q-217 0 -217 -139z" />
<glyph unicode="1" horiz-adv-x="772" d="M12 827l17 154q117 10 270 29q86 8 176 20t135 19l45 6l33 -88q-59 -46 -82 -148q-31 -137 -31 -506q0 -133 80 -133l90 4l9 -12l-29 -184q-209 12 -317 12q-66 0 -163.5 -6t-158.5 -10l-61 -4l18 165q96 10 138 43t42 97v411q0 72 -19.5 94.5t-76.5 22.5l-96 -6z" />
<glyph unicode="2" horiz-adv-x="1009" d="M4 90l143 158q162 188 217.5 271t53.5 140q0 92 -99 93q-104 0 -204 -129h-37l-51 213q215 219 456 219q162 0 262.5 -79t100.5 -206q0 -100 -63.5 -195.5t-262.5 -293.5l10 -19h70q78 0 114 42t46 145l237 18q-45 -272 -55 -455l-35 -37q-528 25 -739 25l-154 -12z" />
<glyph unicode="3" horiz-adv-x="917" d="M4 80l45 47q74 -37 189 -37q102 0 165.5 31t63.5 82q0 61 -55.5 88.5t-178.5 27.5l-26 31l-21 185l133 26q119 49 119 148q0 35 -24.5 56t-65.5 21q-90 0 -213 -98q-4 0 -14 -1t-17 -1l-65 211q88 68 210 113t216 45q156 0 250 -67.5t94 -180.5q0 -90 -61.5 -163 t-165.5 -105v-23q141 -41 216.5 -115.5t75.5 -171.5q0 -160 -207.5 -292t-459.5 -132q-104 0 -147.5 60.5t-55.5 214.5z" />
<glyph unicode="4" horiz-adv-x="1003" d="M0 113q0 35 1 102.5t1 101.5l520 734q2 0 9.5 2t9.5 2l286 -25v-676h142l22 -30l-22 -232q-55 2 -140 4l13 -243l-23 -23l-336 -25l-20 25q8 141 12 276q-246 7 -475 7zM279 354h198v260h-22z" />
<glyph unicode="5" horiz-adv-x="866" d="M-33 80l45 47q76 -37 189 -37q100 0 164.5 32t64.5 83q0 59 -77 91t-265 50l-18 23q33 296 47 612l16 16l406 13q59 2 86.5 19.5t42.5 62.5l161 10l-59 -367l-39 -39q-162 16 -366 17l-17 -103q260 -45 369.5 -122t109.5 -216q0 -180 -201.5 -323.5t-455.5 -143.5 q-102 0 -147.5 60.5t-55.5 214.5z" />
<glyph unicode="6" horiz-adv-x="968" d="M31 432q0 127 41 239.5t106.5 190.5t144 143.5t158.5 105.5t145.5 66.5t106.5 37.5l41 12l27 -15l61 -165q-10 -4 -26.5 -10.5t-65.5 -32t-95 -56t-101.5 -83t-96.5 -109.5l12 -23l119 43q154 0 245 -97t91 -263q0 -205 -130 -323t-353 -118q-197 0 -313.5 124 t-116.5 333zM373 414q0 -199 116 -199q59 0 85 35t26 112q0 168 -106 168q-63 0 -117 -34q-4 -53 -4 -82z" />
<glyph unicode="7" horiz-adv-x="890" d="M20 539q31 272 41 489l13 10q123 -8 250 -8h456l117 -143q-190 -416 -338 -789l-78 -293h-55l-254 78l-25 58l400 796l-189 -18q-90 -10 -120.5 -40t-47.5 -128z" />
<glyph unicode="8" horiz-adv-x="968" d="M39 281q0 182 190 264q-174 129 -174 319q0 154 132 258.5t325 104.5q164 0 277.5 -88t113.5 -213q0 -168 -164 -256q178 -111 179 -295q0 -172 -132.5 -286t-332.5 -114q-180 0 -297 86.5t-117 219.5zM342 338q0 -64 36 -102.5t93 -38.5q109 0 109 96q0 29 -26 55.5 t-57.5 45t-87.5 46.5q-18 10 -28 15q-39 -53 -39 -117zM395 903q0 -45 41 -76.5t125 -68.5q37 55 37 116q0 53 -28.5 84t-77.5 31q-45 0 -71 -23.5t-26 -62.5z" />
<glyph unicode="9" horiz-adv-x="968" d="M25 614q0 205 130 323t353 118q197 0 313.5 -124t116.5 -333q0 -127 -41 -239.5t-106.5 -190.5t-145.5 -143.5t-158.5 -105.5t-144.5 -66.5t-106 -37.5l-41 -12l-27 15l-62 166q10 4 27 10t66 31.5t94 56.5t100.5 82t95.5 110l-10 23l-119 -43q-154 0 -244.5 97.5 t-90.5 262.5zM369 668q0 -168 106 -168q59 0 115 32q6 41 6 84q0 199 -117 199q-59 0 -84.5 -35t-25.5 -112z" />
<glyph unicode=":" horiz-adv-x="487" d="M43 176q0 98 56.5 155.5t152.5 57.5q90 0 140 -51t50 -143q0 -98 -55 -155.5t-151 -57.5q-94 0 -143.5 50t-49.5 144zM43 719q0 98 56.5 155.5t152.5 57.5q90 0 140 -51.5t50 -143.5q0 -98 -55 -155.5t-151 -57.5q-94 0 -143.5 50.5t-49.5 144.5z" />
<glyph unicode=";" horiz-adv-x="487" d="M-16 -104q59 43 95 102t36 115q-1 89 -60 155l6 29q117 90 209 90q78 0 126 -56.5t48 -150.5q0 -109 -92 -224.5t-250 -205.5l-118 94v52zM43 719q0 98 56.5 155.5t152.5 57.5q90 0 140 -51.5t50 -143.5q0 -98 -55 -155.5t-151 -57.5q-94 0 -143.5 50.5t-49.5 144.5z" />
<glyph unicode="&#x3c;" horiz-adv-x="882" d="M51 408v313l365 158l309 143l37 -23l69 -215q-190 -74 -339 -139l-185 -80v-16l209 -100l297 -132l18 -43l-114 -188q-135 59 -283 129l-366 162z" />
<glyph unicode="=" horiz-adv-x="1036" d="M31 182l37 277q287 -2 469 -2l452 12l15 -31l-27 -278l-465 -2l-463 -2zM31 592l37 276q287 -2 469 -2l452 13l15 -31l-27 -279l-465 -2l-463 -2z" />
<glyph unicode="&#x3e;" horiz-adv-x="882" d="M51 324q190 74 340 139l184 80v16l-208 100l-297 132l-19 43l115 188q135 -59 283 -129l366 -162l16 -31v-313l-364 -158l-309 -143l-37 23z" />
<glyph unicode="?" horiz-adv-x="780" d="M80 1206l84 242l35 18q260 -6 433 -112.5t173 -259.5q0 -106 -65.5 -184.5t-268.5 -211.5l-6 -12l16 -141l-18 -29l-242 -41l-31 17l-49 272l6 31l199 96q96 53 96 117q0 145 -333 161zM137 176q0 98 56.5 155.5t152.5 57.5q90 0 140.5 -51t50.5 -143q0 -98 -55.5 -155.5 t-151.5 -57.5q-94 0 -143.5 50t-49.5 144z" />
<glyph unicode="@" horiz-adv-x="1837" d="M29 346q0 201 83 391.5t219 330.5t320.5 225t380.5 85q360 0 568 -177t208 -484q0 -340 -205.5 -541t-555.5 -201q-49 0 -80 31t-31 80q0 27 49 238h-20q-156 -268 -273 -349q-145 0 -227 85t-82 237q0 242 167 456t353 214l148 -41l10 41l39 24l274 -24l17 -47 q-98 -428 -142 -691l15 -16q141 0 233 120t92 302q0 246 -166 387t-454 141q-309 -2 -513 -215t-204 -532q0 -350 215 -535.5t620 -185.5q0 -10 -1 -28.5t-1 -26.5l-75 -132q-459 0 -720 223.5t-261 614.5zM758 424q-1 -131 28 -131q35 0 101.5 130t105.5 275 q-78 53 -151 54q-29 0 -56.5 -106.5t-27.5 -221.5z" />
<glyph unicode="A" horiz-adv-x="1384" d="M-10 -4l14 178q74 18 105 113l325 1028l539 33l31 -25q197 -789 256 -1010q18 -70 45.5 -101.5t74.5 -35.5l15 -20l-17 -162q-176 4 -288 4l-392 -10l-16 18l12 172q94 10 112.5 20.5t18.5 49.5q0 4 -4 37l-12 80q-111 4 -158 4q-31 0 -164 -11l-20 -90q-6 -35 -6 -45 q0 -27 11 -34t52 -7h54l16 -20l-16 -170q-190 6 -316 6zM553 616h104q33 0 107 5l-70 358h-45z" />
<glyph unicode="B" horiz-adv-x="1357" d="M27 -14l18 184q80 14 108.5 45t28.5 104l2 732q0 94 -55 94l-70 -4l-24 24l24 164q281 -4 347 -4l393 14q229 0 348 -82.5t119 -240.5q0 -180 -199 -314q115 -41 185.5 -107.5t70.5 -188.5q0 -428 -590 -429q-168 23 -336 23zM580 328q0 -94 149 -95q154 0 154 150 q0 108 -131 149h-162zM594 797q117 -23 164 -23q10 6 24.5 18.5t38 56.5t23.5 93q0 139 -199 139q-35 0 -37 -28z" />
<glyph unicode="C" horiz-adv-x="1234" d="M31 637q0 344 186 528.5t533 184.5q176 0 430 -54l16 -41q-43 -188 -57 -438l-316 -18q4 53 4 116q0 82 -31.5 117t-109.5 35q-106 0 -147 -77t-41 -279q0 -229 48 -337t150 -108q78 0 115 53.5t47 184.5l313 20q-24 -231 -24 -421v-15l-27 -33q-221 -78 -485 -78 q-285 0 -444.5 174.5t-159.5 485.5z" />
<glyph unicode="D" horiz-adv-x="1396" d="M35 -16l16 190q78 12 105.5 48t27.5 122v686q0 63 -11 87t-40 24l-65 -4l-21 28l19 166q227 -6 311 -6l340 12q649 0 649 -616q0 -344 -191.5 -545t-521.5 -201q-197 25 -325 25zM580 332q0 -59 15 -80t58 -21q133 0 188.5 94.5t55.5 317.5q0 250 -54.5 342t-199.5 92 q-41 0 -43 -55q-20 -293 -20 -690z" />
<glyph unicode="E" horiz-adv-x="1234" d="M27 -20l18 188q78 12 105.5 50t27.5 130l2 686q0 66 -11 88.5t-44 22.5l-53 -4l-25 28l19 162q291 -6 477 -6q436 0 633 25l26 -33q-37 -215 -47 -408l-283 -18q4 49 5 76q0 70 -38 91t-163 21q-43 0 -56.5 -10t-13.5 -45l-12 -231q16 0 76.5 -1t91.5 -1l225 12l25 -29 l-29 -235q-152 6 -246 6q-43 0 -153 -13q-2 -70 -2 -174q0 -80 17 -101t81 -21q133 0 176 39.5t62 177.5l262 18l24 -31q-37 -199 -57 -422l-31 -32q-340 14 -657 14q-94 0 -201.5 -5t-169.5 -10z" />
<glyph unicode="F" horiz-adv-x="1134" d="M27 -20l18 188q78 12 105.5 50t27.5 130l2 686q0 66 -11 88.5t-44 22.5l-53 -4l-25 28l19 162q291 -6 477 -6q397 0 575 25l27 -33q-29 -219 -37 -408l-283 -16q4 49 4 74q0 66 -31.5 89t-121.5 23q-43 0 -56.5 -10t-13.5 -45l-14 -266l170 -2l215 12l24 -29l-28 -235 q-145 6 -236 6q-49 0 -153 -12l-2 -140q0 -74 17 -98t69 -24q27 0 56.5 4t45.5 8l16 4l33 -37l-26 -221q-238 6 -334 6q-94 0 -201.5 -5t-169.5 -10z" />
<glyph unicode="G" horiz-adv-x="1308" d="M31 637q0 348 189.5 530.5t549.5 182.5q86 0 189.5 -13.5t164.5 -26.5l62 -14l22 -41q-45 -174 -57 -413l-315 -19q4 47 4 113q0 76 -26 103.5t-95 27.5q-125 0 -173 -77t-48 -279q0 -233 50 -339t163 -106q33 0 59.5 6.5t36.5 12.5l10 6v129q0 49 -13 66.5t-52 17.5 l-68 -2l-18 28l24 195h314q243 0 243 10l21 -119q-72 -41 -89.5 -101t-17.5 -261q0 -117 15 -176l-25 -33q-164 -68 -496 -68q-295 0 -459.5 174.5t-164.5 485.5z" />
<glyph unicode="H" horiz-adv-x="1513" d="M31 -10l16 174q82 16 107.5 49t25.5 119v708q0 63 -14 84t-57 21l-54 -2l-18 28l16 154h264l408 10l-14 -184q-66 -12 -85.5 -31.5t-23.5 -75.5l-12 -247l174 -6q113 0 172 6v243q0 61 -14.5 83t-57.5 22l-55 -2l-18 28l16 154h330l360 10l-14 -180q-74 -12 -97.5 -33 t-25.5 -78q-20 -276 -21 -725q0 -76 17.5 -106.5t62.5 -30.5l58 6l16 -22l-18 -170q-180 4 -351 4l-340 -2l17 178q74 2 104.5 37t30.5 119v209q-70 2 -121 2l-231 -19v-205q0 -86 13 -113.5t52 -27.5l56 6l16 -20l-19 -172q-248 8 -331 8z" />
<glyph unicode="I" horiz-adv-x="757" d="M31 -10l16 174q82 18 107.5 51t25.5 117v708q0 63 -14 84t-57 21l-54 -2l-18 28l16 154h330l352 10l-14 -184q-70 -10 -91.5 -30t-25.5 -77q-20 -322 -20 -725q0 -86 13 -113.5t52 -27.5l66 6l16 -20l-18 -172q-256 8 -342 8z" />
<glyph unicode="J" horiz-adv-x="694" d="M-10 -238l4 31q104 96 137 187t33 290v770q0 63 -13.5 84t-52.5 21l-73 -4l-19 28l17 156l288 2l389 14l-16 -190q-59 -14 -75.5 -31.5t-20.5 -75.5q-25 -377 -25 -870q0 -197 -117.5 -319.5t-373.5 -190.5z" />
<glyph unicode="K" horiz-adv-x="1419" d="M31 -10l16 174q82 16 107.5 49t25.5 119v708q0 63 -14 84t-57 21l-54 -2l-18 28l18 156q291 -2 328 -2l352 10l-14 -184q-76 -18 -98.5 -39.5t-24.5 -75.5l-14 -717v-22q0 -67 11 -91q13 -28 54 -28l66 6l16 -20l-18 -172q-256 8 -342 8zM602 649l10 62l230 272 q43 43 43 94q0 35 -18.5 49.5t-65.5 16.5l-13 20l19 168q199 -6 293 -6l295 10l18 -30l-18 -154q-145 -82 -301 -301l-86 -121l192 -373q47 -90 92 -133t109 -51l20 -31l-22 -151q-262 -23 -314 -23q-80 0 -129 36t-96 130z" />
<glyph unicode="L" horiz-adv-x="1140" d="M27 -20l18 188q78 12 105.5 50t27.5 130v692q0 63 -14 84t-58 21l-53 -2l-18 28l16 154h330l424 10l-23 -200q-106 -10 -142 -32t-38 -75q-20 -307 -20 -704q0 -47 17 -67.5t58 -20.5q109 0 148 64.5t49 268.5l262 27l25 -31q-31 -262 -49 -547l-31 -32q-309 14 -602 14 q-94 0 -201.5 -5t-169.5 -10z" />
<glyph unicode="M" horiz-adv-x="1708" d="M14 -16l17 184q57 6 84.5 37t31.5 98q72 694 72 748q0 57 -17.5 69.5t-109.5 22.5l-16 16l20 176q215 -10 301 -10l316 8q27 -135 64.5 -298t62.5 -258l24 -95h27q100 346 172 643q346 0 379 2l192 10l15 -8l-17 -180q-84 -2 -109.5 -22.5t-25.5 -82.5q0 -264 45 -684 q8 -100 28.5 -139t65.5 -39l62 4l14 -16l-18 -176q-129 4 -226 6q-51 0 -213.5 -5t-179.5 -11l25 186q57 6 80.5 28.5t23.5 71.5l-8 473h-27q-114 -344 -223 -747l-256 -21q-51 193 -106.5 385.5t-84.5 287.5l-30 95h-27q-10 -449 -10 -493q0 -70 68 -70l53 4l18 -16 l-24 -176q-225 8 -293 8q-37 0 -96.5 -4t-101.5 -7t-42 -5z" />
<glyph unicode="N" horiz-adv-x="1513" d="M27 1169l12 166q154 -10 303 -10l262 8q82 -147 180.5 -310t155.5 -252l57 -89h31l-8 375q-2 51 -16.5 69.5t-51.5 18.5h-63l-10 22l10 166q225 -8 340 -8q285 0 284 6l-10 -184q-66 -8 -91.5 -37t-27.5 -92l-26 -1018l-385 -25q-229 380 -420 670h-31l6 -364 q2 -59 18.5 -82t61.5 -23l70 8l18 -18l-22 -174q-227 8 -316 8l-315 -16l20 184q115 14 117 129l25 715q0 70 -29 94t-125 35z" />
<glyph unicode="O" horiz-adv-x="1341" d="M31 639q0 344 172 527.5t497 183.5q610 0 611 -654q0 -346 -174 -533.5t-496 -187.5q-297 0 -453.5 171t-156.5 493zM500 739q0 -281 40 -393.5t140 -112.5q88 0 125 77t37 257q0 281 -41 391.5t-144 110.5q-86 0 -121.5 -74.5t-35.5 -255.5z" />
<glyph unicode="P" horiz-adv-x="1241" d="M29 -18l18 188q76 12 104.5 50t28.5 124v690q0 63 -11 87t-42 24l-72 -4l-20 24l20 160h293l369 12q139 0 244.5 -29.5t163 -73.5t92 -104.5t45 -111.5t10.5 -107q0 -195 -153.5 -340t-358.5 -145h-176v-98q0 -86 20.5 -117t81.5 -31l68 4l10 -16l-21 -176q-248 8 -333 8 zM588 678l141 -21q121 43 121 234q0 100 -51 145t-160 45q-20 0 -26.5 -8t-8.5 -37q-10 -184 -16 -358z" />
<glyph unicode="Q" horiz-adv-x="1349" d="M31 639q0 344 172 527.5t497 183.5q610 0 611 -654q0 -213 -84 -376.5t-234 -253.5v-29q111 -84 235 -134t224 -50q41 0 87 5t73 10l26 5l25 -23l35 -139q-285 -207 -361 -207q-127 0 -254 86t-442 385q-297 0 -453.5 171t-156.5 493zM500 739q0 -281 40 -393.5 t140 -112.5q88 0 125 77t37 257q0 281 -41 391.5t-144 110.5q-86 0 -121.5 -74.5t-35.5 -255.5z" />
<glyph unicode="R" horiz-adv-x="1388" d="M29 -18l18 188q76 12 104.5 50t28.5 124v711q0 51 -11 70.5t-42 19.5l-72 -4l-20 24l22 162q207 -2 291 -2l379 12q565 0 565 -385q0 -242 -245 -387l127 -213q106 -180 198 -180l23 -33l-19 -149l-317 -23q-86 0 -140.5 43t-93.5 144l-127 313h-114v-139 q0 -94 23.5 -119t121.5 -29l10 -16l-20 -172q-250 8 -336 8zM590 725l155 -20q70 29 97.5 74.5t27.5 131.5q0 88 -56 129t-175 41q-20 0 -26.5 -8t-8.5 -37q-10 -139 -14 -311z" />
<glyph unicode="S" horiz-adv-x="1128" d="M27 100q37 203 43 338l258 19q0 -209 180 -209q63 0 99 22.5t36 61.5q0 27 -14.5 48t-48 41.5t-61 34t-85 38t-84.5 36.5q-143 63 -228 150.5t-85 230.5q0 199 173 319t458 120q225 0 391 -58l24 -45q-39 -172 -55 -356l-237 -17l-25 17v33q0 143 -150 143 q-57 0 -93 -25.5t-36 -66.5q0 -14 4.5 -26.5t13.5 -24t18 -21.5t27.5 -20.5t31 -17.5t37 -18t39 -17.5t44 -18.5t43.5 -18q76 -33 127.5 -60.5t108.5 -74t86 -110t29 -145.5q0 -199 -171 -313.5t-470 -114.5q-106 0 -207 22.5t-149 44.5l-48 21z" />
<glyph unicode="T" horiz-adv-x="1214" d="M0 782q14 303 16 537l27 29l244 -23h643l248 23l26 -29l10 -520l-253 -17q-16 197 -39 246t-103 49q-10 -338 -10 -749q0 -78 23.5 -110t82.5 -32l105 7l10 -13l-18 -192q-299 12 -416 12l-412 -18l17 188q125 10 163.5 44t38.5 130v733q-82 0 -108.5 -52t-40.5 -226z " />
<glyph unicode="U" horiz-adv-x="1284" d="M0 1149l20 182q201 -6 363 -6l274 8l-20 -190q-53 -4 -74.5 -27.5t-23.5 -73.5l-13 -591q0 -100 41 -157.5t117 -57.5q78 0 112.5 43t34.5 137l-2 618q0 63 -11 87t-42 24l-47 -4l-6 8l22 182q170 -6 246 -6l295 6l-16 -184q-63 -20 -81 -36.5t-18 -53.5v-578 q0 -250 -138 -377t-408 -127q-262 0 -383 103.5t-121 329.5v626q0 68 -11.5 89.5t-46.5 21.5l-59 -4z" />
<glyph unicode="V" horiz-adv-x="1312" d="M-10 1167l16 162q172 -4 281 -4l391 10l16 -18l-12 -172q-96 -12 -113.5 -21.5t-17.5 -48.5q0 -37 27.5 -219t55.5 -347l28 -165h45q167 684 167 755q0 28 -11 35t-52 7h-53l-17 20l17 170q190 -6 315 -6l252 2l-14 -178q-33 -10 -49.5 -31.5t-34.5 -81.5l-305 -1028 l-564 -35q-184 816 -241 1037q-18 70 -44 100.5t-69 36.5z" />
<glyph unicode="W" horiz-adv-x="2043" d="M-10 1167l18 162q164 -4 268 -4l377 10l15 -18l-13 -172q-92 -12 -109.5 -21.5t-17.5 -48.5q0 -37 27 -219t53 -347l27 -165h43q125 504 156 684q6 40 6 55q0 39 -21.5 51.5t-93.5 12.5l-14 20l18 162q211 -4 332 -4l375 10l16 -18l-14 -172q-92 -12 -108.5 -21.5 t-16.5 -48.5l104 -731h43q162 688 162 756q0 27 -11.5 34t-49.5 7h-52l-14 20l16 170q184 -6 304 -6l241 2l-14 -178q-33 -10 -48.5 -31.5t-33.5 -81.5l-283 -1028l-542 -35l-91 584h-28l-129 -549l-543 -35q-178 815 -231 1037q-33 127 -109 137z" />
<glyph unicode="X" horiz-adv-x="1456" d="M2 20l12 164q45 20 123 101.5t135 163.5l181 260l-168 247q-61 90 -109.5 121t-134.5 51l-10 13l18 186q143 -2 361 -2l354 12l12 -22l-14 -168q-80 0 -80 -49q0 -8 2 -17.5t6 -21.5t8 -21.5t13.5 -24t15.5 -23.5t18.5 -27.5t19.5 -28.5t22.5 -32.5t23.5 -33.5 q12 20 32.5 55t34 59t29 51.5t22.5 46t7 28.5q0 23 -16.5 32t-61.5 9l-4 12l12 164h318l264 6l8 -16l-10 -178q-98 -47 -154.5 -94.5t-107.5 -129.5l-193 -297l178 -249q123 -174 256 -177l9 -8l-19 -184q-199 6 -276 6l-424 -14l-15 14l15 172q59 4 59 41q0 25 -22 55 l-125 181l-78 -129q-35 -55 -35 -82q0 -61 80 -62l12 -22l-10 -166q-244 12 -309 12l-275 -12z" />
<glyph unicode="Y" horiz-adv-x="1357" d="M0 1141l20 186q240 -4 308 -4l368 14l15 -22l-19 -168q-84 0 -84 -51q0 -16 115 -303h29l84 233q27 59 26 90q0 33 -78 33l-6 12l17 162h323l232 8l8 -16l-17 -178q-137 -78 -227 -258l-186 -373q-31 -72 -31 -191q0 -72 22.5 -100.5t79.5 -28.5l105 7l10 -13l-18 -192 q-305 12 -424 12l-412 -18l16 188q131 8 171 40t40 122v33q0 78 -57 184l-219 407q-61 113 -203 172z" />
<glyph unicode="Z" horiz-adv-x="1216" d="M6 104l668 1006l-158 -20q-119 -23 -151.5 -63t-36.5 -171l-258 -18q25 301 30 491l23 23l371 -23h677l52 -110q-279 -373 -682 -996l215 31q98 18 143 82.5t59 208.5l259 18q-44 -319 -48 -524l-43 -45l-878 12l-168 -20z" />
<glyph unicode="[" horiz-adv-x="667" d="M133 -238q23 565 23 770l-23 777l520 22l9 -20l-17 -172l-188 -35v-1137l196 -35l9 -22l-17 -170z" />
<glyph unicode="\" horiz-adv-x="673" d="M-31 1341l35 41h244l235 -919l183 -658l-23 -30h-258q-84 328 -170 665z" />
<glyph unicode="]" horiz-adv-x="667" d="M6 -240l17 172l188 35v1137l-197 35l-8 22l17 170l512 -22q-23 -565 -23 -770l23 -777l-521 -22z" />
<glyph unicode="^" horiz-adv-x="962" d="M10 303q76 152 144 309l157 365l310 14l30 -16q104 -240 166 -381l135 -283l-188 -114l-43 18q-72 152 -137 297l-101 209h-16l-80 -184l-139 -340l-215 69z" />
<glyph unicode="_" horiz-adv-x="917" d="M-25 -410l23 215h747l179 5l20 -39l-29 -217q-154 0 -459.5 -1.5t-457.5 -1.5z" />
<glyph unicode="`" d="M119 1350l147 206h35q190 -176 383 -342l-84 -124l-45 -15q-94 55 -201.5 115.5t-169.5 92.5l-61 32z" />
<glyph unicode="a" horiz-adv-x="1200" d="M8 -2l12 149q57 16 80 80l262 797l494 27l27 -23q165 -635 204 -772q27 -100 93 -106l12 -19l-14 -135q-150 2 -246 2l-336 -6l-14 14l10 148q91 11 99 22q5 7 5 31q0 2 -1 8t-1 10l-4 43q-47 2 -125 2q-16 0 -36.5 -1t-48 -3t-44.5 -2l-12 -53q-2 -14 -2 -29 q0 -18 6 -22t39 -4h37l16 -19l-14 -143q-164 4 -266 4h-232zM494 487h77q49 0 80 2l-49 254h-39z" />
<glyph unicode="b" horiz-adv-x="1171" d="M27 -10l16 155q66 10 88.5 34t22.5 79l2 551q0 70 -43 70l-60 -2l-22 20l22 139q248 -4 299 -4l344 12q395 0 396 -253q0 -70 -38 -128.5t-69 -81t-53 -32.5q18 -4 43.5 -15.5t66.5 -37t68 -71.5t27 -106q0 -172 -124 -254.5t-378 -82.5q-111 18 -287 18zM512 268 q0 -66 113 -66h1q114 0 115 101q0 69 -92 98l-129 2zM524 631q88 -18 129 -19q59 43 60 117q0 90 -148 90q-29 0 -30 -18z" />
<glyph unicode="c" horiz-adv-x="1048" d="M35 500q0 270 151.5 410.5t444.5 140.5l366 -41l15 -37q-37 -150 -49 -352l-285 -17q2 41 2 92q0 63 -21.5 88t-78.5 25q-78 0 -102.5 -49t-24.5 -203q0 -174 30.5 -249t104.5 -75q59 0 83.5 38t30.5 135l283 18q-2 -23 -5 -59.5t-7 -130t-4 -164.5l-25 -27 q-188 -59 -409 -59q-238 0 -369 135t-131 381z" />
<glyph unicode="d" horiz-adv-x="1183" d="M35 -12l12 162q63 8 86 36.5t23 94.5v510q0 49 -9.5 67.5t-31.5 18.5l-54 -5l-18 25l16 139q199 -4 269 -4l284 10q537 0 537 -479q0 -272 -158 -426.5t-434 -154.5q-164 18 -274 18zM510 266q0 -39 9 -52t32 -13q100 0 139 64.5t39 232.5q0 193 -33 256t-137 63 q-31 0 -33 -43q-16 -193 -16 -508z" />
<glyph unicode="e" horiz-adv-x="1056" d="M27 -16l16 159q61 8 84 39t23 103l2 508q0 51 -8.5 68.5t-34.5 17.5l-43 -2l-23 24l16 135q254 -4 416 -4q358 0 529 19l24 -27q-31 -176 -39 -328l-256 -14q4 37 4 57q0 49 -30.5 65.5t-122.5 16.5q-31 0 -41.5 -8t-10.5 -31l-8 -157h133l185 8l22 -27l-24 -198 q-123 4 -199 4q-4 0 -127 -9v-104q0 -61 12.5 -78.5t61.5 -17.5q96 0 131 30.5t49 133.5l236 16l22 -27q-31 -160 -47 -340l-29 -26q-272 10 -549 10z" />
<glyph unicode="f" horiz-adv-x="978" d="M27 -14l16 159q61 8 84 38t23 102l2 508q0 51 -8.5 68.5t-34.5 17.5l-43 -2l-23 24l16 135q254 -4 416 -4q328 0 479 19l23 -27q-23 -180 -29 -326l-254 -14q2 35 2 55q0 47 -24.5 64.5t-87.5 17.5q-31 0 -41.5 -8t-10.5 -31l-10 -184l135 -2l179 8l22 -24l-22 -199 q-121 4 -195 4q-12 0 -127 -8v-80q0 -57 13.5 -75.5t56.5 -18.5l96 14l31 -33l-25 -188q-201 4 -278 4q-84 0 -179.5 -4t-148.5 -7z" />
<glyph unicode="g" horiz-adv-x="1110" d="M35 500q0 272 155.5 411.5t460.5 139.5q72 0 159 -10.5t137 -20.5l50 -10l21 -37q-39 -137 -49 -330l-285 -16q4 37 4 88q0 55 -16.5 75.5t-63.5 20.5q-94 0 -124.5 -51t-30.5 -203q0 -178 33.5 -252t115.5 -74l70 13v84q0 35 -10.5 48t-38.5 13l-48 -2l-18 27l23 161 q49 0 136 1.5t128 1.5q211 0 211 8l18 -103q-63 -33 -78.5 -80t-15.5 -208q0 -84 12 -136l-22 -28q-131 -47 -414 -47q-246 0 -383 135t-137 381z" />
<glyph unicode="h" horiz-adv-x="1280" d="M31 -6l14 147q66 12 86.5 37t20.5 92v529q0 49 -12.5 64.5t-47.5 15.5h-43l-16 24l14 129h223l359 6l-13 -155q-51 -8 -67.5 -22.5t-18.5 -49.5l-10 -180l125 -6q80 0 129 4v170q0 47 -12 63.5t-47 16.5h-45l-17 24l15 129h286l312 6l-13 -151q-61 -10 -79.5 -25.5 t-20.5 -60.5q-16 -174 -16 -541q0 -57 15 -80.5t50 -23.5l43 4l17 -21l-17 -141q-152 2 -301 2l-293 -2l13 152q59 2 84.5 28.5t25.5 83.5v148q-43 2 -80 2l-180 -15v-137q0 -66 10.5 -87t42.5 -21l41 4l15 -19l-15 -143q-221 6 -293 6q-45 0 -118.5 -2t-119.5 -3z" />
<glyph unicode="i" horiz-adv-x="659" d="M31 -6l14 147q68 14 87.5 38t19.5 91v529q0 49 -12.5 64.5t-47.5 15.5h-41l-16 24l14 129h283l305 6l-12 -155q-57 -8 -74 -22.5t-21 -59.5q-16 -213 -16 -541q0 -66 10.5 -87t42.5 -21l49 4l15 -19l-15 -143q-221 6 -292 6z" />
<glyph unicode="j" horiz-adv-x="608" d="M0 -186l2 26q84 78 110.5 148.5t26.5 226.5v584q0 49 -10 65.5t-43 16.5l-59 -4l-17 26l15 129l245 2l340 10l-14 -161q-49 -10 -61.5 -24.5t-16.5 -57.5q-20 -291 -20 -674q0 -152 -101.5 -247t-324.5 -146z" />
<glyph unicode="k" horiz-adv-x="1220" d="M31 -8l12 145q68 16 88.5 40.5t20.5 92.5v529q0 49 -12.5 64.5t-47.5 15.5h-43l-16 24l16 131q256 -2 283 -2l307 6l-12 -155q-63 -16 -81 -31.5t-20 -56.5l-12 -535q0 -66 10.5 -87t42.5 -21l51 4l15 -19l-15 -143q-223 6 -294 6zM526 506l9 51l176 197q32 28 32 69 q0 31 -13 41t-50 13l-12 18l16 141q170 -4 250 -4l256 8l18 -26l-16 -129q-127 -74 -258 -252l-43 -62l141 -278q66 -129 160 -146l18 -26l-18 -129q-231 -18 -277 -19q-70 0 -108.5 27t-77.5 102z" />
<glyph unicode="l" horiz-adv-x="987" d="M25 -16l16 159q63 8 86 39t23 103v514q0 49 -12.5 64.5t-47.5 15.5h-41l-18 24l14 129h285l375 6l-21 -170q-90 -8 -121 -22.5t-33 -48.5q-18 -240 -18 -535q0 -59 53 -59q84 0 113 52t37 214l235 23l23 -27q-25 -215 -39 -447l-29 -28q-252 10 -506 10z" />
<glyph unicode="m" horiz-adv-x="1443" d="M18 -12l13 155q49 4 71.5 28t24.5 73q0 2 14.5 134t28.5 271t14 158q0 45 -14 53q-11 6 -86 14l-14 15l18 151q184 -8 258 -8l281 6q37 -194 104 -454h25q76 258 123 448q311 0 340 2q158 8 157 8l13 -6l-15 -155q-70 -2 -89 -16.5t-19 -63.5q0 -207 37 -510 q4 -76 21 -105.5t56 -29.5l52 2l12 -15l-14 -147q-109 2 -191 4q-297 0 -346 -12l20 157q47 4 66.5 21.5t19.5 56.5v309h-24l-66 -195q-54 -170 -100 -337l-236 -16q-122 448 -164 554h-1q0 -2 2 -6h-25q-2 -291 -2 -325q0 -53 57 -53l41 2l17 -13l-21 -149q-199 6 -254 6 q-31 0 -81 -3t-87 -5t-37 -4z" />
<glyph unicode="n" horiz-adv-x="1290" d="M27 899l10 141q131 -8 266 -8l232 6q59 -102 132.5 -215.5t116.5 -176.5l43 -62h29l-8 227q-4 41 -14.5 55.5t-40.5 14.5h-52l-10 18l8 139q199 -6 297 -6q246 0 246 4l-8 -155q-53 -8 -73.5 -30t-22.5 -71l-23 -772l-354 -18l-312 454h-28l8 -211q2 -49 15.5 -66 t52.5 -17l53 6l18 -15l-20 -147q-199 6 -273 6l-274 -12l18 155q49 6 71 30t24 71l20 530q0 55 -22.5 72.5t-102.5 27.5z" />
<glyph unicode="o" horiz-adv-x="1134" d="M35 502q0 549 555 549q258 0 384 -126t126 -384q0 -272 -142.5 -415.5t-412.5 -143.5q-250 0 -380 132t-130 388zM457 584q0 -223 23 -302t95 -79q59 0 81 49t22 182q0 223 -23.5 300t-97.5 77q-59 0 -79.5 -47t-20.5 -180z" />
<glyph unicode="p" horiz-adv-x="1071" d="M27 -14l16 159q61 8 85 39t24 97v512q0 49 -9.5 67.5t-31.5 18.5l-62 -2l-18 20l18 135h250l317 10q123 0 214.5 -25.5t139.5 -60t77.5 -85t37 -88.5t7.5 -81q0 -154 -128 -267t-302 -113h-148v-64q0 -57 18.5 -80.5t69.5 -23.5l51 2l9 -15l-17 -147q-221 6 -293 6 q-33 0 -115.5 -4t-146.5 -7zM518 535l109 -15q86 33 86 170q0 70 -37 100.5t-119 30.5q-14 0 -19.5 -7t-7.5 -30z" />
<glyph unicode="q" horiz-adv-x="1140" d="M35 502q0 549 555 549q258 0 384 -126t126 -384q0 -326 -244 -482v-24q80 -57 181.5 -94t181.5 -37q33 0 72.5 4t62.5 8l22 4l23 -20l31 -123q-252 -170 -318 -170q-102 0 -205.5 68.5t-361.5 306.5q-250 0 -380 132t-130 388zM457 584q0 -223 23 -302t95 -79q59 0 81 49 t22 182q0 223 -23.5 300t-97.5 77q-59 0 -79.5 -47t-20.5 -180z" />
<glyph unicode="r" horiz-adv-x="1196" d="M29 -16l14 159q61 10 85 41t24 97v532q0 37 -9.5 51.5t-31.5 14.5l-62 -2l-18 20l20 137q178 -2 248 -2l328 10q487 0 487 -307q0 -186 -199 -301l95 -145q92 -141 159 -142l21 -28l-16 -127l-279 -17q-76 0 -120 32t-77 112l-94 231h-90v-86q0 -70 19.5 -88t101.5 -22 l10 -15l-18 -145q-221 6 -291 6q-57 0 -134 -4t-125 -8zM520 571l123 -16q59 25 75.5 55.5t16.5 92t-42 89t-134 27.5q-16 0 -21.5 -6t-7.5 -29q-6 -63 -10 -213z" />
<glyph unicode="s" horiz-adv-x="968" d="M27 82q33 164 39 260l231 16q0 -70 37 -106.5t102 -36.5q96 0 96 47q0 18 -11 33.5t-38.5 30t-51 24.5t-69 26.5t-69.5 26.5q-119 49 -188.5 117t-69.5 182q0 160 147.5 254.5t392.5 94.5q84 0 167 -11.5t124 -22.5l41 -11l23 -39q-33 -135 -47 -279l-213 -14l-23 14v17 q0 49 -30.5 76.5t-84.5 27.5q-41 0 -67.5 -15.5t-26.5 -41.5q0 -12 5.5 -23.5t18.5 -22t24.5 -18.5t35 -17t38.5 -15.5t46 -16.5t45 -16q61 -23 103.5 -44.5t89.5 -57.5t70.5 -87t23.5 -117q0 -158 -144.5 -246.5t-400.5 -88.5q-90 0 -176 17t-127 35l-41 17z" />
<glyph unicode="t" horiz-adv-x="1046" d="M12 584q10 252 13 442l22 25l211 -19h535l213 19l24 -25l6 -430l-229 -12q-12 154 -26.5 193.5t-67.5 39.5q-6 -246 -6 -549q0 -61 19 -85.5t69 -24.5l84 6l10 -10l-17 -164q-258 10 -356 10l-356 -16l12 161q102 8 136 32.5t34 90.5v549q-55 0 -72.5 -43t-29.5 -178z " />
<glyph unicode="u" horiz-adv-x="1081" d="M6 883l19 153q172 -4 315 -4l233 6l-18 -164q-74 -2 -78 -73l-10 -459q0 -63 28.5 -101t82 -38t78 26.5t24.5 89.5l-2 474v7q0 79 -41 79l-35 -2l-6 6l20 153q143 -4 205 -4l256 4l-14 -157q-49 -16 -63.5 -28.5t-14.5 -37.5v-434q0 -397 -457 -397q-225 0 -324.5 77.5 t-99.5 253.5v480q0 53 -9 69.5t-38 16.5l-47 -2z" />
<glyph unicode="v" horiz-adv-x="1124" d="M6 899l14 137q143 -4 238 -4l334 6l14 -14l-10 -147q-76 -8 -89 -15.5t-13 -36t19 -163t38 -253.5l18 -120h39l13 54q108 464 108 505q0 18 -7 22t-36 4h-39l-14 19l12 143q162 -4 264 -4l213 2l-12 -151q-25 -8 -36 -25.5t-27 -62.5l-238 -789l-516 -26 q-154 665 -189 792q-14 55 -33.5 80t-50.5 29z" />
<glyph unicode="w" horiz-adv-x="1740" d="M6 899l17 137q135 -4 227 -4l321 6l13 -14l-11 -147q-76 -8 -88 -15.5t-12 -36t17.5 -163t35.5 -253.5l19 -120h39q2 6 27.5 114.5t52 228.5t34.5 173l11 35q1 29 -15 36q-13 5 -50 5h-23l-13 18l17 137q180 -4 284 -4l322 6l14 -14l-12 -147q-76 -10 -87 -15.5 t-11 -36.5l69 -536h37q16 66 67.5 296t51.5 263q0 18 -7 22t-36 4h-37l-12 19l12 143q158 -4 254 -4l203 2l-11 -151q-25 -8 -36 -25.5t-27 -62.5l-219 -789l-496 -26q-27 166 -57 413h-25l-90 -387l-495 -26q-147 666 -181 792q-16 55 -33.5 80t-46.5 29z" />
<glyph unicode="x" horiz-adv-x="1249" d="M14 18l9 138q33 16 98 80.5t108 121.5l146 201l-129 170q-37 51 -70 78t-56.5 36t-72.5 21l-8 10l16 160q113 -2 305 -2l304 10l10 -20l-12 -143h-6q-51 0 -52 -35q0 -10 2 -19.5t8.5 -20.5t10.5 -18.5t15 -22.5l16 -23q6 -8 22 -26t22 -26q10 20 37 62.5t39 67t12 34.5 q0 29 -54 29h-7l-2 10l10 139q51 0 139.5 1t133.5 1l227 4l6 -12l-8 -154q-147 -72 -215 -174l-154 -229l133 -168q106 -137 211 -137l6 -6l-14 -156q-170 4 -233 4l-363 -10l-12 10l12 148q37 0 37 26q0 16 -16 39l-93 117l-53 -82q-20 -33 -20 -51q0 -47 61 -47l12 -19 l-8 -141q-213 10 -266 10l-235 -10z" />
<glyph unicode="y" horiz-adv-x="1183" d="M18 874l19 160q211 -4 264 -4l313 12l15 -20l-19 -143h-10q-51 0 -51 -37q0 -8 11 -37t34.5 -80t38.5 -86h24l54 152q22 43 22 67q0 23 -50 23h-9l-6 10l14 137q53 0 143 1t136 1l198 6l6 -12l-14 -154q-51 -31 -102.5 -86t-81.5 -112l-152 -291q-24 -53 -24 -118v-5 q0 -55 18 -77.5t68 -22.5l88 6l8 -10l-15 -164q-268 10 -370 10l-361 -14l13 159q111 6 146.5 29t35.5 90v17q0 57 -47 137l-187 321q-43 63 -161 125z" />
<glyph unicode="z" horiz-adv-x="1044" d="M12 88l543 760l-109 -17q-96 -23 -119.5 -50t-25.5 -126l-233 -14q20 246 24 395l21 17l307 -17l579 2l48 -94q-260 -317 -555 -751l155 26q82 16 118 64.5t44 154.5l231 17q-35 -262 -39 -422l-36 -37l-744 8l-143 -16z" />
<glyph unicode="{" horiz-adv-x="686" d="M84 481l8 156q139 43 139 133q0 41 -54 162t-54 180q0 106 99.5 172t258.5 66l185 -25l20 -33l-37 -170q-41 10 -71 11q-102 0 -103 -103q0 -31 27.5 -127t27.5 -135q0 -63 -39.5 -109.5t-109.5 -64.5v-10q150 -49 149 -185q0 -45 -27.5 -154.5t-27.5 -144.5 q0 -55 30 -86.5t83 -31.5l63 10l27 -27l-29 -170q-76 -47 -221 -47q-129 0 -217 68.5t-88 169.5q0 63 54 187t54 159q0 108 -147 149z" />
<glyph unicode="|" horiz-adv-x="600" d="M160 -518q0 717 2 1083l2 1065l233 23l43 -33q-12 -684 -12 -1024l2 -1124l-240 -23z" />
<glyph unicode="}" horiz-adv-x="686" d="M0 -195l37 170q41 -10 72 -10q102 0 102 103q0 33 -27.5 137t-27.5 145q0 131 149 174v11q-150 49 -149 184q0 41 27.5 143.5t27.5 134.5q0 55 -29.5 87t-83.5 32l-63 -10l-27 27l29 170q76 47 221 47q129 0 217 -69t88 -169q0 -59 -54 -176t-54 -150q0 -57 38.5 -97 t108.5 -52l-8 -156q-63 -14 -101 -51t-38 -82q0 -41 54 -161.5t54 -180.5q0 -115 -99 -186.5t-259 -71.5l-185 25z" />
<glyph unicode="~" horiz-adv-x="1034" d="M20 424v33l220 235l45 8q49 0 213 -34.5t202 -34.5q29 0 74 29.5t76 59.5l31 30h32l101 -115v-33l-219 -235l-45 -9q-49 0 -213 35t-203 35q-29 0 -74 -29.5t-76 -59.5l-30 -30h-33z" />
<glyph unicode="&#xa1;" horiz-adv-x="581" d="M18 -442l150 880l211 33l43 -41l70 -823l-37 -49l-385 -54zM104 778q0 98 55.5 155.5t151.5 57.5q94 0 143.5 -50t49.5 -144q0 -98 -56.5 -155.5t-152.5 -57.5q-90 0 -140.5 51t-50.5 143z" />
<glyph unicode="&#xa2;" horiz-adv-x="901" d="M29 471q0 209 114.5 346t313.5 166l43 336l237 29l13 -19l-43 -350q85 -12 133 -33l10 -22q-33 -172 -47 -357l-189 -10v74q0 66 -18 92.5t-64 26.5q-117 0 -116 -191q0 -158 40 -230.5t126 -72.5q49 0 99 13.5t76 26.5l25 13l21 -10l45 -154q-137 -121 -268 -157 l-37 -297l-234 -27l-16 12l41 324q-145 43 -225 165t-80 306z" />
<glyph unicode="&#xa3;" horiz-adv-x="1046" d="M31 197q164 84 164 215v69q-2 47 -29 62.5t-109 19.5l-8 12l17 144l129 18v56q0 158 171 295t369 137q164 0 252 -31l10 -23l-88 -268l-39 -6q-152 88 -233 88q-55 0 -76.5 -28.5t-21.5 -102.5l-4 -117l284 6l10 -14l-22 -174q-117 6 -279 6l-2 -78q0 -53 -17 -108.5 t-42 -79.5l121 29q23 0 104.5 -17.5t112.5 -17.5q49 0 79.5 41.5t30.5 111.5h64q27 -33 45 -100.5t18 -126.5q0 -104 -69.5 -172t-175.5 -68q-63 0 -200.5 55.5t-203.5 55.5q-131 0 -280 -88l-31 12z" />
<glyph unicode="&#xa4;" horiz-adv-x="909" d="M-12 981l8 47l215 158l135 -158q68 27 133.5 27t132.5 -27q141 162 142 162l47 -8l157 -215l-151 -131q27 -70 27 -136q0 -72 -29 -139l158 -137l-9 -47l-215 -158l-133 152q-61 -23 -127 -23q-72 0 -139 29l-143 -162l-47 8l-158 215l158 135q-23 61 -23 127 q0 72 25 134zM328 700.5q0 -63.5 44 -107.5t107.5 -44t108.5 44t45 107.5t-45 108.5t-108.5 45t-107.5 -45t-44 -108.5z" />
<glyph unicode="&#xa5;" horiz-adv-x="1206" d="M14 874q4 53 9 80q2 27 10 80q143 -4 223 -4q317 0 354 12l13 -20l-17 -143q-61 0 -61 -29q0 -18 43 -115l41 -96h24l72 201q4 16 4 20q0 12 -4 15.5t-11 1t-16.5 -5.5t-18.5 1.5t-15 18.5l6 67l8 70q53 0 143 1t135 1l197 6l8 -12l-14 -154q-63 -35 -95 -63.5t-59 -75.5 l-10 -18l152 4l16 -21l-12 -176h-267l-34 -63l-19 -31l309 6l17 -20l-12 -176h-361q0 -14 8 -35q12 -31 43 -39q20 -4 39 -4l86 6l10 -10l-14 -164q-264 10 -362 10l-363 -14l14 159q94 6 129 23.5t44 67.5q-334 -2 -334 -3l-21 17l25 174h301l-23 41l-30 55l-246 -2l-21 17 l25 174h125q-8 12 -94 75.5t-99 89.5z" />
<glyph unicode="&#xa6;" horiz-adv-x="600" d="M160 -518q0 448 2 825l229 35l37 -35l2 -835l-240 -23zM162 756q0 145 1 437t1 437l233 23l43 -33q-10 -498 -12 -854l-240 -33z" />
<glyph unicode="&#xa7;" horiz-adv-x="995" d="M43 537q0 172 217 284q-106 88 -106 205q0 139 118.5 231.5t300.5 92.5q119 0 210 -32t91 -73q0 -59 -29.5 -150t-56.5 -114h-51q-18 51 -56 84t-77 33q-27 0 -45 -15.5t-18 -38.5q0 -31 43 -63.5t104.5 -66t123.5 -74.5t105.5 -104.5t43.5 -139.5q0 -152 -205 -270 q100 -80 100 -189q0 -141 -129 -236.5t-321 -95.5q-123 0 -221.5 49.5t-98.5 108.5q0 145 82 256l55 -4q10 -70 65.5 -119t123.5 -49q66 0 65 49q0 37 -45 70t-108.5 62.5t-127 66.5t-108.5 99.5t-45 142.5zM362 643q0 -37 16.5 -67.5t60.5 -61.5t67.5 -44t91.5 -48 q31 37 31 80q0 39 -16.5 70.5t-58.5 63.5t-65.5 46t-87.5 49q-39 -39 -39 -88z" />
<glyph unicode="&#xa8;" d="M41 1309q0 82 47 130t129 48q78 0 120 -43t42 -121q0 -82 -47 -130t-129 -48q-162 0 -162 164zM434 1309q0 82 47 130t129 48q78 0 120 -43t42 -121q0 -82 -47 -130t-127 -48q-164 0 -164 164z" />
<glyph unicode="&#xa9;" horiz-adv-x="1431" d="M92 600q0 260 182.5 442.5t440.5 182.5t441 -183.5t183 -441.5q0 -260 -183 -442.5t-441 -182.5t-440.5 182.5t-182.5 442.5zM215 600q0 -209 146.5 -356.5t353.5 -147.5t354.5 147.5t147.5 356.5t-147.5 356.5t-354.5 147.5t-353.5 -147.5t-146.5 -356.5zM362 596 q0 356 388 356q43 0 102 -7t97 -13l38 -6l10 -23q-27 -98 -32 -231l-185 -8q2 27 2 57q0 43 -14 59.5t-53 16.5q-49 0 -65.5 -33t-16.5 -131q0 -113 20.5 -162t67.5 -49q37 0 54.5 25.5t19.5 87.5l182 14l-8 -232l-17 -20q-123 -37 -266 -37q-156 0 -240 88t-84 248z" />
<glyph unicode="&#xaa;" horiz-adv-x="743" d="M31 901q0 45 25.5 78t66.5 43l278 45q-2 39 -33.5 62.5t-80.5 23.5q-33 0 -73 -14.5t-64 -28.5l-25 -14l-19 8l-36 117q225 117 301 116q156 0 223.5 -58t67.5 -144q0 -23 -15.5 -120t-15.5 -112q0 -45 39 -45l43 8l24 -39q-90 -162 -155 -174q-152 0 -164 99l-19 8 q-100 -100 -157 -101q-88 0 -149.5 71t-61.5 171zM285 918q0 -72 51 -72h61l2 115l-92 -17q-23 -4 -22 -26z" />
<glyph unicode="&#xab;" horiz-adv-x="974" d="M20 449v55q179 190 320 360l127 -71l14 -48q-37 -61 -141 -270q86 -172 141 -268l-14 -47l-127 -74q-141 172 -320 363zM442 449v55q179 190 320 360l127 -71l14 -48q-37 -61 -141 -270q86 -172 141 -268l-14 -47l-127 -74q-141 172 -320 363z" />
<glyph unicode="&#xac;" horiz-adv-x="1036" d="M31 449l37 276q287 -2 469 -2l391 12l14 -30q-25 -160 -27 -369l3 -277l-277 -36l-27 18q0 186 2 383h-104l-463 -2z" />
<glyph unicode="&#xad;" horiz-adv-x="663" d="M68 397l20 217l313 35l170 23l25 -37l-27 -221l-475 -54z" />
<glyph unicode="&#xae;" horiz-adv-x="958" d="M61 1038q0 174 122 296t296 122t296 -122t122 -296t-122 -295.5t-296 -121.5t-296 121.5t-122 295.5zM147 1038.5q0 -137.5 97.5 -234.5t234.5 -97t234.5 97t97.5 234.5t-97.5 234.5t-234.5 97t-234.5 -97t-97.5 -234.5zM274 848l7 55q41 8 41 55v211q0 37 -17 37l-22 -2 l-7 4l7 52h110q43 0 84 4q186 0 187 -117q0 -76 -76 -121l41 -65q27 -53 61 -58l4 -6q0 -6 1 -21.5t-4 -17.5t-22.5 -7t-56.5 -7q-45 0 -61 9t-33 46l-39 96h-35v-43q0 -31 7.5 -37t40.5 -8q0 -2 1 -2t1 -2l-7 -53q-70 4 -96 4h-24zM446 1073q4 0 22.5 -1t27.5 -1 q37 12 36 62q0 53 -69 53q-10 -1 -10 -17q0 -8 -3.5 -42.5t-3.5 -53.5z" />
<glyph unicode="&#xaf;" d="M102 1186l39 223q195 -2 316 -2l254 12l22 -37l-37 -223l-286 -2l-275 -2z" />
<glyph unicode="&#xb0;" horiz-adv-x="618" d="M33 1073q0 115 81 196t195.5 81t195.5 -81t81 -196t-81 -195.5t-195.5 -80.5t-195.5 80.5t-81 195.5zM186 1073q0 -55 34 -89t89 -34q53 0 88 34t35 89q0 53 -35 88t-88 35q-55 0 -89 -35t-34 -88z" />
<glyph unicode="&#xb1;" horiz-adv-x="1036" d="M31 432l37 277q150 -2 301 -2q0 53 1 160.5t1 160.5l268 27l31 -15q-8 -180 -13 -333l332 12l15 -31l-27 -278q-53 0 -159.5 -1t-160.5 -1l2 -289l-266 -37l-26 18q0 152 2 308q-319 -2 -320 -2zM63 -215l23 215h686l178 4l21 -39l-29 -217q-143 0 -428 -1t-428 -1z" />
<glyph unicode="&#xb2;" horiz-adv-x="772" d="M39 811l192 199q119 127 117 184q0 55 -65 55q-80 0 -164 -90h-27l-37 176q61 72 144.5 114t167.5 42q123 0 199.5 -57.5t76.5 -151.5t-55.5 -184t-196.5 -228l6 -12h64q53 0 76.5 27.5t27.5 97.5l178 12q-31 -190 -36 -315l-27 -27q-336 16 -485 17l-142 -8z" />
<glyph unicode="&#xb3;" horiz-adv-x="673" d="M27 848l34 35q59 -27 132 -27q133 0 133 72q0 57 -150 57l-18 23l-17 135l92 16q76 29 76 94q0 45 -55 45q-59 0 -145 -55h-23l-49 152q66 45 150.5 70.5t150.5 25.5q111 0 178.5 -46t67.5 -122q0 -63 -43 -111.5t-115 -68.5v-17q106 -37 154.5 -86t48.5 -120 q0 -104 -138.5 -185.5t-316.5 -81.5q-74 0 -105.5 43t-41.5 152z" />
<glyph unicode="&#xb4;" d="M203 1214l383 342h35l147 -206l-4 -35q-221 -115 -432 -240l-45 15z" />
<glyph unicode="&#xb5;" horiz-adv-x="1118" d="M37 -467q29 287 41 617l18 516q0 51 -6 103t-12 79l-6 26l20 58q202 27 373 59l27 -45q-25 -47 -41.5 -203.5t-16.5 -341.5q0 -127 88 -127q39 0 94 33v355q0 57 -7 109t-13 76l-6 23l20 56q397 57 398 57l28 -45q-29 -47 -48 -219t-19 -385q0 -33 16 -52.5t43 -19.5 q14 0 31.5 4t26.5 8l10 5l34 -54q-4 -8 -13 -21.5t-36.5 -51t-56.5 -68.5t-69 -62.5t-76 -46.5q-213 0 -240 150l-21 10q-117 -156 -157 -155q-37 0 -62 14l-10 -6v-121q0 -14 1 -41t1 -41l12 -205l-16 -24l-319 -52z" />
<glyph unicode="&#x3bc;" horiz-adv-x="1118" d="M37 -467q29 287 41 617l18 516q0 51 -6 103t-12 79l-6 26l20 58q202 27 373 59l27 -45q-25 -47 -41.5 -203.5t-16.5 -341.5q0 -127 88 -127q39 0 94 33v355q0 57 -7 109t-13 76l-6 23l20 56q397 57 398 57l28 -45q-29 -47 -48 -219t-19 -385q0 -33 16 -52.5t43 -19.5 q14 0 31.5 4t26.5 8l10 5l34 -54q-4 -8 -13 -21.5t-36.5 -51t-56.5 -68.5t-69 -62.5t-76 -46.5q-213 0 -240 150l-21 10q-117 -156 -157 -155q-37 0 -62 14l-10 -6v-121q0 -14 1 -41t1 -41l12 -205l-16 -24l-319 -52z" />
<glyph unicode="&#xb6;" horiz-adv-x="1175" d="M10 864q0 205 140.5 338t359.5 133q53 0 169 -5t161 -5l336 6l-13 -172l-4 -8q-57 -14 -72.5 -30.5t-19.5 -63.5q-8 -66 -16.5 -296.5t-8.5 -371.5q0 -227 -178 -404.5t-405 -177.5q-119 0 -209 61.5t-90 141.5q0 57 27.5 135t66.5 131h37q14 -117 68.5 -184t134.5 -67 q86 0 122.5 44t36.5 148v899q0 18 -11 24.5t-46 6.5q-121 0 -121 -287q0 -121 27.5 -207t95.5 -178v-72q-266 0 -427 126t-161 335z" />
<glyph unicode="&#xb7;" horiz-adv-x="487" d="M43 510q0 98 56.5 155.5t152.5 57.5q90 0 140 -51t50 -144q0 -98 -55 -155.5t-151 -57.5q-94 0 -143.5 50.5t-49.5 144.5z" />
<glyph unicode="&#xb8;" d="M162 -389q0 43 100 143h19q2 -55 28.5 -84.5t71.5 -29.5q66 0 65 47q0 49 -178 135l64 250h125l-33 -150q86 -41 153.5 -97t67.5 -118q0 -84 -88 -143.5t-215 -59.5q-66 0 -123 30t-57 77z" />
<glyph unicode="&#xb9;" horiz-adv-x="579" d="M25 1331l10 109q33 2 65.5 6t69.5 8t55 6q37 4 77 8.5t69.5 8.5t55.5 7t40 5l14 2l25 -66q-39 -28 -57 -96q-18 -63 -19 -442q0 -88 53 -88l60 2l6 -8l-21 -131q-147 8 -223 8l-274 -15l12 119q125 12 125 90v377q0 47 -12.5 62.5t-53.5 15.5l-65 -2z" />
<glyph unicode="&#xba;" horiz-adv-x="761" d="M37 981q0 170 94 263t264 93q162 0 246 -84t84 -241q0 -170 -93 -264.5t-263 -94.5q-156 0 -244 87t-88 241zM324 1047q0 -143 11 -189.5t46 -46.5q33 0 43 23.5t10 95.5q0 141 -11 186t-46 45q-33 0 -43 -22.5t-10 -91.5z" />
<glyph unicode="&#xbb;" horiz-adv-x="974" d="M72 205q37 61 141 270q-86 172 -141 268l14 48l127 73q141 -172 319 -362v-56q-178 -190 -319 -360l-127 72zM494 205q37 61 141 270q-86 172 -141 268l14 48l127 73q141 -172 319 -362v-56q-178 -190 -319 -360l-127 72z" />
<glyph unicode="&#xbc;" horiz-adv-x="1730" d="M25 1182l10 108q33 2 65.5 6t69.5 8.5t55 6.5q37 4 77 8t69.5 8t55.5 7t40 5l14 2l25 -65q-39 -28 -57 -96q-18 -66 -19 -443q0 -88 53 -88l60 2l6 -8l-21 -131q-147 8 -223 8l-274 -14l12 119q125 12 125 90v377q0 47 -12.5 62t-53.5 15l-65 -2zM254 -80 q227 328 397 598l547 873l178 -66l21 -49q-367 -567 -553 -852l-387 -610l-191 71zM999 174l2 148l347 495l14 4l217 -18v-457h92l17 -20l-17 -166l-90 2l8 -146l-18 -16l-248 -16l-14 16q6 82 8 170zM1198 346h121v166h-16z" />
<glyph unicode="&#xbd;" horiz-adv-x="1796" d="M25 1182l10 108q33 2 65.5 6t69.5 8.5t55 6.5q37 4 77 8t69.5 8t55.5 7t40 5l14 2l25 -65q-39 -28 -57 -96q-18 -66 -19 -443q0 -88 53 -88l60 2l6 -8l-21 -131q-147 8 -223 8l-274 -14l12 119q125 12 125 90v377q0 47 -12.5 62t-53.5 15l-65 -2zM254 -80 q227 328 397 598l547 873l178 -66l21 -49q-367 -567 -553 -852l-387 -610l-191 71zM1063 141l192 199q119 127 117 184q0 55 -65 56q-80 0 -164 -91h-27l-37 177q61 72 144.5 113.5t167.5 41.5q123 0 199.5 -57t76.5 -151.5t-55.5 -184.5t-196.5 -227l6 -13h64q53 0 76.5 28 t27.5 97l178 13q-31 -190 -36 -316l-27 -26q-336 16 -485 16l-142 -8z" />
<glyph unicode="&#xbe;" horiz-adv-x="1722" d="M27 698l34 35q59 -27 132 -26q133 0 133 71q0 57 -150 58l-18 22l-17 135l92 17q76 29 76 94q0 45 -55 45q-59 0 -145 -55h-23l-49 151q66 45 150.5 70.5t150.5 25.5q111 0 178.5 -46t67.5 -121q0 -63 -43 -111.5t-115 -69.5v-16q106 -37 154.5 -86t48.5 -121 q0 -104 -138.5 -185t-316.5 -81q-74 0 -105.5 42.5t-41.5 151.5zM246 -80q227 328 397 598l547 873l178 -66l21 -49q-367 -567 -553 -852l-387 -610l-191 71zM991 174l2 148l346 495l15 4l217 -18v-457h92l16 -20l-16 -166l-90 2l8 -146l-18 -16l-248 -16l-15 16q6 82 9 170 zM1190 346h121v166h-17z" />
<glyph unicode="&#xbf;" horiz-adv-x="780" d="M-25 -121q0 106 64.5 183t269.5 212l6 13l-16 141l18 29l242 41l31 -17l49 -272l-6 -31l-199 -96q-96 -53 -96 -117q0 -72 87 -113.5t247 -48.5l28 -36l-84 -242l-34 -19q-260 6 -433.5 113t-173.5 260zM244 778q0 98 55.5 155.5t151.5 57.5q94 0 143 -50t49 -144 q0 -98 -56.5 -155.5t-152.5 -57.5q-90 0 -140 51t-50 143z" />
<glyph unicode="&#xc0;" horiz-adv-x="1384" d="M-10 -4l14 178q74 18 105 113l325 1028l539 33l31 -25q197 -789 256 -1010q18 -70 45.5 -101.5t74.5 -35.5l15 -20l-17 -162q-176 4 -288 4l-392 -10l-16 18l12 172q94 10 112.5 20.5t18.5 49.5q0 4 -4 37l-12 80q-111 4 -158 4q-31 0 -164 -11l-20 -90q-6 -35 -6 -45 q0 -27 11 -34t52 -7h54l16 -20l-16 -170q-190 6 -316 6zM385 1561l74 221l33 10q258 -111 509 -205l-43 -145l-38 -27q-113 29 -243 56.5t-204 41.5l-74 15zM553 616h104q33 0 107 5l-70 358h-45z" />
<glyph unicode="&#xc1;" horiz-adv-x="1384" d="M-10 -4l14 178q74 18 105 113l325 1028l539 33l31 -25q197 -789 256 -1010q18 -70 45.5 -101.5t74.5 -35.5l15 -20l-17 -162q-176 4 -288 4l-392 -10l-16 18l12 172q94 10 112.5 20.5t18.5 49.5q0 4 -4 37l-12 80q-111 4 -158 4q-31 0 -164 -11l-20 -90q-6 -35 -6 -45 q0 -27 11 -34t52 -7h54l16 -20l-16 -170q-190 6 -316 6zM469 1587q251 94 510 205l33 -10l73 -221l-14 -33q-266 -49 -520 -113l-39 27zM553 616h104q33 0 107 5l-70 358h-45z" />
<glyph unicode="&#xc2;" horiz-adv-x="1384" d="M-10 -4l14 178q74 18 105 113l325 1028l539 33l31 -25q197 -789 256 -1010q18 -70 45.5 -101.5t74.5 -35.5l15 -20l-17 -162q-176 4 -288 4l-392 -10l-16 18l12 172q94 10 112.5 20.5t18.5 49.5q0 4 -4 37l-12 80q-111 4 -158 4q-31 0 -164 -11l-20 -90q-6 -35 -6 -45 q0 -27 11 -34t52 -7h54l16 -20l-16 -170q-190 6 -316 6zM313 1577q172 125 363 283h55q0 6 50 -35t145.5 -118t165.5 -130l-72 -127l-47 -14q-96 41 -271 104q-106 -39 -268 -104l-47 14zM553 616h104q33 0 107 5l-70 358h-45z" />
<glyph unicode="&#xc3;" horiz-adv-x="1384" d="M-10 -4l14 178q74 18 105 113l325 1028l539 33l31 -25q197 -789 256 -1010q18 -70 45.5 -101.5t74.5 -35.5l15 -20l-17 -162q-176 4 -288 4l-392 -10l-16 18l12 172q94 10 112.5 20.5t18.5 49.5q0 4 -4 37l-12 80q-111 4 -158 4q-31 0 -164 -11l-20 -90q-6 -35 -6 -45 q0 -27 11 -34t52 -7h54l16 -20l-16 -170q-190 6 -316 6zM297 1493v33l166 235l35 8q37 0 161.5 -34.5t153.5 -34.5q23 0 56.5 29.5t57.5 59.5l23 30h33l121 -111v-33l-166 -235l-35 -8q-37 0 -162 34.5t-153 34.5q-23 0 -57.5 -29.5t-57.5 -59.5l-22 -30h-33zM553 616h104 q33 0 107 5l-70 358h-45z" />
<glyph unicode="&#xc4;" horiz-adv-x="1384" d="M-10 -4l14 178q74 18 105 113l325 1028l539 33l31 -25q197 -789 256 -1010q18 -70 45.5 -101.5t74.5 -35.5l15 -20l-17 -162q-176 4 -288 4l-392 -10l-16 18l12 172q94 10 112.5 20.5t18.5 49.5q0 4 -4 37l-12 80q-111 4 -158 4q-31 0 -164 -11l-20 -90q-6 -35 -6 -45 q0 -27 11 -34t52 -7h54l16 -20l-16 -170q-190 6 -316 6zM334 1567q0 82 47 130t129 48q78 0 120 -43t42 -121q0 -82 -47 -130t-129 -48q-162 0 -162 164zM553 616h104q33 0 107 5l-70 358h-45zM727 1567q0 82 47 130t129 48q78 0 120 -43t42 -121q0 -82 -47 -130t-127 -48 q-164 0 -164 164z" />
<glyph unicode="&#xc5;" horiz-adv-x="1384" d="M-10 -4l14 178q74 18 105 113l325 1028l539 33l31 -25q197 -789 256 -1010q18 -70 45.5 -101.5t74.5 -35.5l15 -20l-17 -162q-176 4 -288 4l-392 -10l-16 18l12 172q94 10 112.5 20.5t18.5 49.5q0 4 -4 37l-12 80q-111 4 -158 4q-31 0 -164 -11l-20 -90q-6 -35 -6 -45 q0 -27 11 -34t52 -7h54l16 -20l-16 -170q-190 6 -316 6zM483 1607.5q0 96.5 61.5 158t164.5 61.5q106 0 157.5 -57.5t51.5 -143.5q0 -94 -62 -161.5t-166 -67.5q-98 0 -152.5 57t-54.5 153.5zM553 616h104q33 0 107 5l-70 358h-45zM625 1614q0 -39 24.5 -56.5t55.5 -17.5 q72 0 71 68q0 72 -80 71q-72 0 -71 -65z" />
<glyph unicode="&#xc6;" horiz-adv-x="1921" d="M4 174q74 18 117 113l340 800q-8 57 -53 58l-54 -4l-24 28l18 162q334 -6 680 -6q549 4 707 25l26 -33q-37 -215 -47 -408l-282 -18q4 49 4 76q0 70 -38 91t-163 21q-41 0 -55.5 -10t-14.5 -39l39 -268l150 26l207 54l34 -35l-24 -238l-197 -24l-133 -25l23 -149 q20 -137 112 -138q119 0 158 40t57 180l262 18l25 -31q-37 -199 -57 -422l-31 -32q-340 14 -657 14h-86l-351 -12l-14 18l12 172q86 8 113 25.5t27 62.5q0 35 -3 66l-10 117l-153 -27l-158 -47l-33 -109q-12 -41 -12 -53q0 -23 17.5 -27t95.5 -4l14 -20l-14 -170 q-12 6 -404 6l-164 -2zM610 664l88 8l103 18l-29 289h-45z" />
<glyph unicode="&#xc7;" horiz-adv-x="1234" d="M31 637q0 344 186 528.5t533 184.5q176 0 430 -54l16 -41q-43 -188 -57 -438l-316 -18q4 53 4 116q0 82 -31.5 117t-109.5 35q-106 0 -147 -77t-41 -279q0 -229 48 -337t150 -108q78 0 115 53.5t47 184.5l313 20q-25 -240 -24 -436l-27 -33q-186 -66 -418 -75l-12 -58 q86 -41 153.5 -97t67.5 -118q0 -84 -88 -143.5t-215 -59.5q-66 0 -123 30t-57 77q0 43 100 143h19q2 -55 28.5 -84.5t71.5 -29.5q66 0 66 47q0 49 -178 135l38 158q-258 18 -400 190t-142 467z" />
<glyph unicode="&#xc8;" horiz-adv-x="1234" d="M27 -20l18 188q78 12 105.5 50t27.5 130l2 686q0 66 -11 88.5t-44 22.5l-53 -4l-25 28l19 162q291 -6 477 -6q436 0 633 25l26 -33q-37 -215 -47 -408l-283 -18q4 49 5 76q0 70 -38 91t-163 21q-43 0 -56.5 -10t-13.5 -45l-12 -231q16 0 76.5 -1t91.5 -1l225 12l25 -29 l-29 -235q-152 6 -246 6q-43 0 -153 -13q-2 -70 -2 -174q0 -80 17 -101t81 -21q133 0 176 39.5t62 177.5l262 18l24 -31q-37 -199 -57 -422l-31 -32q-340 14 -657 14q-94 0 -201.5 -5t-169.5 -10zM293 1561l74 221l32 10q258 -111 510 -205l-43 -145l-39 -27 q-113 29 -242.5 56.5t-203.5 41.5l-74 15z" />
<glyph unicode="&#xc9;" horiz-adv-x="1234" d="M27 -20l18 188q78 12 105.5 50t27.5 130l2 686q0 66 -11 88.5t-44 22.5l-53 -4l-25 28l19 162q291 -6 477 -6q436 0 633 25l26 -33q-37 -215 -47 -408l-283 -18q4 49 5 76q0 70 -38 91t-163 21q-43 0 -56.5 -10t-13.5 -45l-12 -231q16 0 76.5 -1t91.5 -1l225 12l25 -29 l-29 -235q-152 6 -246 6q-43 0 -153 -13q-2 -70 -2 -174q0 -80 17 -101t81 -21q133 0 176 39.5t62 177.5l262 18l24 -31q-37 -199 -57 -422l-31 -32q-340 14 -657 14q-94 0 -201.5 -5t-169.5 -10zM438 1587q251 94 510 205l33 -10l74 -221l-15 -33q-266 -49 -520 -113 l-39 27z" />
<glyph unicode="&#xca;" horiz-adv-x="1234" d="M27 -20l18 188q78 12 105.5 50t27.5 130l2 686q0 66 -11 88.5t-44 22.5l-53 -4l-25 28l19 162q291 -6 477 -6q436 0 633 25l26 -33q-37 -215 -47 -408l-283 -18q4 49 5 76q0 70 -38 91t-163 21q-43 0 -56.5 -10t-13.5 -45l-12 -231q16 0 76.5 -1t91.5 -1l225 12l25 -29 l-29 -235q-152 6 -246 6q-43 0 -153 -13q-2 -70 -2 -174q0 -80 17 -101t81 -21q133 0 176 39.5t62 177.5l262 18l24 -31q-37 -199 -57 -422l-31 -32q-340 14 -657 14q-94 0 -201.5 -5t-169.5 -10zM283 1577q172 125 362 283h55q0 6 50.5 -35t145.5 -118t165 -130l-72 -127 l-47 -14q-96 41 -270 104q-106 -39 -269 -104l-47 14z" />
<glyph unicode="&#xcb;" horiz-adv-x="1234" d="M27 -20l18 188q78 12 105.5 50t27.5 130l2 686q0 66 -11 88.5t-44 22.5l-53 -4l-25 28l19 162q291 -6 477 -6q436 0 633 25l26 -33q-37 -215 -47 -408l-283 -18q4 49 5 76q0 70 -38 91t-163 21q-43 0 -56.5 -10t-13.5 -45l-12 -231q16 0 76.5 -1t91.5 -1l225 12l25 -29 l-29 -235q-152 6 -246 6q-43 0 -153 -13q-2 -70 -2 -174q0 -80 17 -101t81 -21q133 0 176 39.5t62 177.5l262 18l24 -31q-37 -199 -57 -422l-31 -32q-340 14 -657 14q-94 0 -201.5 -5t-169.5 -10zM303 1567q0 82 47 130t129 48q78 0 120 -43t42 -121q0 -82 -47 -130 t-129 -48q-162 0 -162 164zM696 1567q0 82 47.5 130t128.5 48q78 0 120 -43t42 -121q0 -82 -47 -130t-127 -48q-164 0 -164 164z" />
<glyph unicode="&#xcc;" horiz-adv-x="757" d="M8 1561l74 221l33 10q258 -111 510 -205l-43 -145l-39 -27q-113 29 -243 56.5t-204 41.5l-73 15zM31 -10l16 174q82 18 107.5 51t25.5 117v708q0 63 -14 84t-57 21l-54 -2l-18 28l16 154h330l352 10l-14 -184q-70 -10 -91.5 -30t-25.5 -77q-20 -322 -20 -725 q0 -86 13 -113.5t52 -27.5l66 6l16 -20l-18 -172q-256 8 -342 8z" />
<glyph unicode="&#xcd;" horiz-adv-x="757" d="M31 -10l16 174q82 18 107.5 51t25.5 117v708q0 63 -14 84t-57 21l-54 -2l-18 28l16 154h330l352 10l-14 -184q-70 -10 -91.5 -30t-25.5 -77q-20 -322 -20 -725q0 -86 13 -113.5t52 -27.5l66 6l16 -20l-18 -172q-256 8 -342 8zM154 1587q251 94 510 205l32 -10l74 -221 l-14 -33q-266 -49 -520 -113l-39 27z" />
<glyph unicode="&#xce;" horiz-adv-x="757" d="M-2 1577q172 125 362 283h56q0 6 50 -35t145.5 -118t164.5 -130l-71 -127l-48 -14q-96 41 -270 104q-106 -39 -268 -104l-47 14zM31 -10l16 174q82 18 107.5 51t25.5 117v708q0 63 -14 84t-57 21l-54 -2l-18 28l16 154h330l352 10l-14 -184q-70 -10 -91.5 -30t-25.5 -77 q-20 -322 -20 -725q0 -86 13 -113.5t52 -27.5l66 6l16 -20l-18 -172q-256 8 -342 8z" />
<glyph unicode="&#xcf;" horiz-adv-x="757" d="M18 1567q0 82 47.5 130t129.5 48q78 0 119.5 -43t41.5 -121q0 -82 -47 -130t-129 -48q-162 0 -162 164zM31 -10l16 174q82 18 107.5 51t25.5 117v708q0 63 -14 84t-57 21l-54 -2l-18 28l16 154h330l352 10l-14 -184q-70 -10 -91.5 -30t-25.5 -77q-20 -322 -20 -725 q0 -86 13 -113.5t52 -27.5l66 6l16 -20l-18 -172q-256 8 -342 8zM412 1567q0 82 47 130t129 48q78 0 120 -43t42 -121q0 -82 -47.5 -130t-127.5 -48q-164 0 -163 164z" />
<glyph unicode="&#xd0;" horiz-adv-x="1441" d="M14 561l27 182h190v287q0 63 -11 87t-40 24l-65 -4l-21 28l19 166q227 -6 311 -6l340 12q649 0 649 -616q0 -344 -191.5 -545t-521.5 -201q-197 25 -325 25l-293 -16l16 190q78 12 105.5 48t27.5 122v201h-196zM627 332q0 -59 15 -80t58 -21q133 0 188.5 94.5t55.5 317.5 q0 250 -54 342t-200 92q-41 0 -43 -55l-14 -277l153 7l17 -21l-15 -184h-161v-215z" />
<glyph unicode="&#xd1;" horiz-adv-x="1513" d="M27 1169l12 166q154 -10 303 -10l262 8q82 -147 180.5 -310t155.5 -252l57 -89h31l-8 375q-2 51 -16.5 69.5t-51.5 18.5h-63l-10 22l10 166q225 -8 340 -8q285 0 284 6l-10 -184q-66 -8 -91.5 -37t-27.5 -92l-26 -1018l-385 -25q-229 380 -420 670h-31l6 -364 q2 -59 18.5 -82t61.5 -23l70 8l18 -18l-22 -174q-227 8 -316 8l-315 -16l20 184q115 14 117 129l25 715q0 70 -29 94t-125 35zM385 1493v33l166 235l35 8q37 0 161.5 -34.5t153.5 -34.5q23 0 56.5 29.5t57.5 59.5l23 30h33l121 -111v-33l-166 -235l-35 -8q-37 0 -161.5 34.5 t-153.5 34.5q-23 0 -57.5 -29.5t-57.5 -59.5l-22 -30h-33z" />
<glyph unicode="&#xd2;" horiz-adv-x="1341" d="M31 639q0 344 172 527.5t497 183.5q610 0 611 -654q0 -346 -174 -533.5t-496 -187.5q-297 0 -453.5 171t-156.5 493zM289 1561l73 221l33 10q258 -111 510 -205l-43 -145l-39 -27q-113 29 -242.5 56.5t-203.5 41.5l-74 15zM500 739q0 -281 40 -393.5t140 -112.5 q88 0 125 77t37 257q0 281 -41 391.5t-144 110.5q-86 0 -121.5 -74.5t-35.5 -255.5z" />
<glyph unicode="&#xd3;" horiz-adv-x="1341" d="M31 639q0 344 172 527.5t497 183.5q610 0 611 -654q0 -346 -174 -533.5t-496 -187.5q-297 0 -453.5 171t-156.5 493zM434 1587q251 94 510 205l33 -10l74 -221l-15 -33q-266 -49 -520 -113l-39 27zM500 739q0 -281 40 -393.5t140 -112.5q88 0 125 77t37 257 q0 281 -41 391.5t-144 110.5q-86 0 -121.5 -74.5t-35.5 -255.5z" />
<glyph unicode="&#xd4;" horiz-adv-x="1341" d="M31 639q0 344 172 527.5t497 183.5q610 0 611 -654q0 -346 -174 -533.5t-496 -187.5q-297 0 -453.5 171t-156.5 493zM279 1577q172 125 362 283h55q0 6 50.5 -35t145.5 -118t165 -130l-72 -127l-47 -14q-96 41 -270 104q-106 -39 -269 -104l-47 14zM500 739 q0 -281 40 -393.5t140 -112.5q88 0 125 77t37 257q0 281 -41 391.5t-144 110.5q-86 0 -121.5 -74.5t-35.5 -255.5z" />
<glyph unicode="&#xd5;" horiz-adv-x="1341" d="M31 639q0 344 172 527.5t497 183.5q610 0 611 -654q0 -346 -174 -533.5t-496 -187.5q-297 0 -453.5 171t-156.5 493zM262 1493v33l166 235l35 8q37 0 162 -34.5t153 -34.5q23 0 56.5 29.5t57.5 59.5l23 30h33l121 -111v-33l-166 -235l-35 -8q-37 0 -161.5 34.5 t-153.5 34.5q-23 0 -57.5 -29.5t-57.5 -59.5l-22 -30h-33zM500 739q0 -281 40 -393.5t140 -112.5q88 0 125 77t37 257q0 281 -41 391.5t-144 110.5q-86 0 -121.5 -74.5t-35.5 -255.5z" />
<glyph unicode="&#xd6;" horiz-adv-x="1341" d="M31 639q0 344 172 527.5t497 183.5q610 0 611 -654q0 -346 -174 -533.5t-496 -187.5q-297 0 -453.5 171t-156.5 493zM299 1567q0 82 47 130t129 48q78 0 120 -43t42 -121q0 -82 -47 -130t-129 -48q-162 0 -162 164zM500 739q0 -281 40 -393.5t140 -112.5q88 0 125 77 t37 257q0 281 -41 391.5t-144 110.5q-86 0 -121.5 -74.5t-35.5 -255.5zM692 1567q0 82 47 130t129 48q78 0 120 -43t42 -121q0 -82 -47 -130t-127 -48q-164 0 -164 164z" />
<glyph unicode="&#xd7;" horiz-adv-x="1036" d="M72 707l6 32l221 170q111 -113 217 -221l229 244l31 -12l172 -209l-225 -228l235 -219l-12 -33l-215 -178l-221 217l-215 -217l-33 6l-162 213q100 100 205 203z" />
<glyph unicode="&#xd8;" horiz-adv-x="1341" d="M31 639q0 344 172 527.5t497 183.5q154 0 271 -43l155 233l199 -110l4 -27l-158 -234q139 -164 140 -473q0 -346 -174 -533.5t-496 -187.5q-133 0 -242 35l-163 -250l-195 113l-8 21l162 243q-164 170 -164 502zM500 739q0 -281 40 -393.5t140 -112.5q88 0 125 77t37 257 q0 281 -41 391.5t-144 110.5q-86 0 -121.5 -74.5t-35.5 -255.5z" />
<glyph unicode="&#xd9;" horiz-adv-x="1284" d="M0 1149l20 182q201 -6 363 -6l274 8l-20 -190q-53 -4 -74.5 -27.5t-23.5 -73.5l-13 -591q0 -100 41 -157.5t117 -57.5q78 0 112.5 43t34.5 137l-2 618q0 63 -11 87t-42 24l-47 -4l-6 8l22 182q170 -6 246 -6l295 6l-16 -184q-63 -20 -81 -36.5t-18 -53.5v-578 q0 -250 -138 -377t-408 -127q-262 0 -383 103.5t-121 329.5v626q0 68 -11.5 89.5t-46.5 21.5l-59 -4zM305 1561l74 221l33 10q258 -111 510 -205l-43 -145l-39 -27q-113 29 -243 56.5t-204 41.5l-74 15z" />
<glyph unicode="&#xda;" horiz-adv-x="1284" d="M0 1149l20 182q201 -6 363 -6l274 8l-20 -190q-53 -4 -74.5 -27.5t-23.5 -73.5l-13 -591q0 -100 41 -157.5t117 -57.5q78 0 112.5 43t34.5 137l-2 618q0 63 -11 87t-42 24l-47 -4l-6 8l22 182q170 -6 246 -6l295 6l-16 -184q-63 -20 -81 -36.5t-18 -53.5v-578 q0 -250 -138 -377t-408 -127q-262 0 -383 103.5t-121 329.5v626q0 68 -11.5 89.5t-46.5 21.5l-59 -4zM451 1587q251 94 510 205l32 -10l74 -221l-14 -33q-266 -49 -521 -113l-38 27z" />
<glyph unicode="&#xdb;" horiz-adv-x="1284" d="M0 1149l20 182q201 -6 363 -6l274 8l-20 -190q-53 -4 -74.5 -27.5t-23.5 -73.5l-13 -591q0 -100 41 -157.5t117 -57.5q78 0 112.5 43t34.5 137l-2 618q0 63 -11 87t-42 24l-47 -4l-6 8l22 182q170 -6 246 -6l295 6l-16 -184q-63 -20 -81 -36.5t-18 -53.5v-578 q0 -250 -138 -377t-408 -127q-262 0 -383 103.5t-121 329.5v626q0 68 -11.5 89.5t-46.5 21.5l-59 -4zM295 1577q172 125 362 283h56q0 6 50 -35t145.5 -118t164.5 -130l-72 -127l-47 -14q-96 41 -270 104q-106 -39 -268 -104l-47 14z" />
<glyph unicode="&#xdc;" horiz-adv-x="1284" d="M0 1149l20 182q201 -6 363 -6l274 8l-20 -190q-53 -4 -74.5 -27.5t-23.5 -73.5l-13 -591q0 -100 41 -157.5t117 -57.5q78 0 112.5 43t34.5 137l-2 618q0 63 -11 87t-42 24l-47 -4l-6 8l22 182q170 -6 246 -6l295 6l-16 -184q-63 -20 -81 -36.5t-18 -53.5v-578 q0 -250 -138 -377t-408 -127q-262 0 -383 103.5t-121 329.5v626q0 68 -11.5 89.5t-46.5 21.5l-59 -4zM315 1567q0 82 47.5 130t129.5 48q78 0 119.5 -43t41.5 -121q0 -82 -47 -130t-129 -48q-162 0 -162 164zM709 1567q0 82 47 130t129 48q78 0 120 -43t42 -121 q0 -82 -47.5 -130t-127.5 -48q-164 0 -163 164z" />
<glyph unicode="&#xdd;" horiz-adv-x="1357" d="M0 1141l20 186q240 -4 308 -4l368 14l15 -22l-19 -168q-84 0 -84 -51q0 -16 115 -303h29l84 233q27 59 26 90q0 33 -78 33l-6 12l17 162h323l232 8l8 -16l-17 -178q-137 -78 -227 -258l-186 -373q-31 -72 -31 -191q0 -72 22.5 -100.5t79.5 -28.5l105 7l10 -13l-18 -192 q-305 12 -424 12l-412 -18l16 188q131 8 171 40t40 122v33q0 78 -57 184l-219 407q-61 113 -203 172zM516 1587q251 94 510 205l33 -10l74 -221l-15 -33q-266 -49 -520 -113l-39 27z" />
<glyph unicode="&#xde;" horiz-adv-x="1239" d="M31 -10l16 174q82 16 107.5 49t25.5 119v708q0 63 -14 84t-57 21l-54 -2l-18 28l16 154h330l352 10l-14 -184q-76 -16 -94.5 -27.5t-22.5 -44.5q0 -2 -1 -6l-1 -4h141q254 0 375 -95t121 -296q0 -176 -141.5 -284.5t-368.5 -108.5h-145v-47q0 -37 12 -48.5t53 -11.5l86 6 l17 -20l-19 -172q-270 8 -362 8zM586 524q92 -20 131 -20q100 27 100 174q0 82 -45 119t-141 37q-41 -1 -41 -46q0 -27 -2 -127t-2 -137z" />
<glyph unicode="&#xdf;" horiz-adv-x="1941" d="M27 82q33 164 39 260l231 16q0 -70 37 -106.5t102 -36.5q96 0 96 47q0 18 -11 33.5t-38.5 30t-51 24.5t-69 26.5t-69.5 26.5q-119 49 -188.5 117t-69.5 182q0 160 147.5 254.5t392.5 94.5q84 0 167 -11.5t124 -22.5l41 -11l23 -39q-33 -135 -47 -279l-213 -14l-23 14v17 q0 49 -30.5 76.5t-84.5 27.5q-41 0 -67.5 -15.5t-26.5 -41.5q0 -12 5.5 -23.5t18.5 -22t24.5 -18.5t35 -17t38.5 -15.5t46 -16.5t45 -16q61 -23 103.5 -44.5t89.5 -57.5t70.5 -87t23.5 -117q0 -158 -144.5 -246.5t-400.5 -88.5q-90 0 -176 17t-127 35l-41 17zM997 82 q33 164 39 260l232 16q0 -70 36.5 -106.5t102.5 -36.5q96 0 96 47q0 18 -11 33.5t-39 30t-51.5 24.5t-68.5 26.5t-69 26.5q-119 49 -188.5 117t-69.5 182q0 160 147 254.5t393 94.5q84 0 167 -11.5t124 -22.5l41 -11l23 -39q-33 -135 -48 -279l-213 -14l-22 14v17 q0 49 -31 76.5t-84 27.5q-41 0 -67.5 -15.5t-26.5 -41.5q0 -12 5 -23.5t18.5 -22t24.5 -18.5t35 -17t39 -15.5t46 -16.5t45 -16q61 -23 103 -44.5t89.5 -57.5t71 -87t23.5 -117q0 -158 -144.5 -246.5t-400.5 -88.5q-90 0 -176 17t-127 35l-41 17z" />
<glyph unicode="&#xe0;" horiz-adv-x="1200" d="M8 -2l12 149q57 16 80 80l262 797l494 27l27 -23q165 -635 204 -772q27 -100 93 -106l12 -19l-14 -135q-150 2 -246 2l-336 -6l-14 14l10 148q91 11 99 22q5 7 5 31q0 2 -1 8t-1 10l-4 43q-47 2 -125 2q-16 0 -36.5 -1t-48 -3t-44.5 -2l-12 -53q-2 -14 -2 -29 q0 -18 6 -22t39 -4h37l16 -19l-14 -143q-164 4 -266 4h-232zM266 1266l74 221l33 10q258 -111 510 -205l-43 -145l-39 -27q-113 29 -243 56.5t-204 42.5l-73 14zM494 487h77q49 0 80 2l-49 254h-39z" />
<glyph unicode="&#xe1;" horiz-adv-x="1200" d="M8 -2l12 149q57 16 80 80l262 797l494 27l27 -23q165 -635 204 -772q27 -100 93 -106l12 -19l-14 -135q-150 2 -246 2l-336 -6l-14 14l10 148q91 11 99 22q5 7 5 31q0 2 -1 8t-1 10l-4 43q-47 2 -125 2q-16 0 -36.5 -1t-48 -3t-44.5 -2l-12 -53q-2 -14 -2 -29 q0 -18 6 -22t39 -4h37l16 -19l-14 -143q-164 4 -266 4h-232zM354 1292q251 94 510 205l33 -10l74 -221l-15 -33q-266 -49 -520 -113l-39 27zM494 487h77q49 0 80 2l-49 254h-39z" />
<glyph unicode="&#xe2;" horiz-adv-x="1200" d="M8 -2l12 149q57 16 80 80l262 797l494 27l27 -23q165 -635 204 -772q27 -100 93 -106l12 -19l-14 -135q-150 2 -246 2l-336 -6l-14 14l10 148q91 11 99 22q5 7 5 31q0 2 -1 8t-1 10l-4 43q-47 2 -125 2q-16 0 -36.5 -1t-48 -3t-44.5 -2l-12 -53q-2 -14 -2 -29 q0 -18 6 -22t39 -4h37l16 -19l-14 -143q-164 4 -266 4h-232zM219 1282q172 125 363 283h55q0 6 50 -35t145.5 -118t164.5 -130l-71 -127l-47 -14q-96 41 -271 104q-106 -39 -268 -104l-47 14zM494 487h77q49 0 80 2l-49 254h-39z" />
<glyph unicode="&#xe3;" horiz-adv-x="1200" d="M8 -2l12 149q57 16 80 80l262 797l494 27l27 -23q165 -635 204 -772q27 -100 93 -106l12 -19l-14 -135q-150 2 -246 2l-336 -6l-14 14l10 148q91 11 99 22q5 7 5 31q0 2 -1 8t-1 10l-4 43q-47 2 -125 2q-16 0 -36.5 -1t-48 -3t-44.5 -2l-12 -53q-2 -14 -2 -29 q0 -18 6 -22t39 -4h37l16 -19l-14 -143q-164 4 -266 4h-232zM201 1198v33l166 235l34 9q37 0 162 -35t154 -35q23 0 56.5 29.5t56.5 59.5l24 30h33l121 -111v-33l-166 -235l-35 -8q-37 0 -162 34.5t-153 34.5q-23 0 -58 -29.5t-57 -59.5l-23 -30h-32zM494 487h77q49 0 80 2 l-49 254h-39z" />
<glyph unicode="&#xe4;" horiz-adv-x="1200" d="M8 -2l12 149q57 16 80 80l262 797l494 27l27 -23q165 -635 204 -772q27 -100 93 -106l12 -19l-14 -135q-150 2 -246 2l-336 -6l-14 14l10 148q91 11 99 22q5 7 5 31q0 2 -1 8t-1 10l-4 43q-47 2 -125 2q-16 0 -36.5 -1t-48 -3t-44.5 -2l-12 -53q-2 -14 -2 -29 q0 -18 6 -22t39 -4h37l16 -19l-14 -143q-164 4 -266 4h-232zM240 1272q0 82 47 130t129 48q78 0 120 -43t42 -121q0 -82 -47.5 -130t-129.5 -48q-162 0 -161 164zM494 487h77q49 0 80 2l-49 254h-39zM633 1272q0 82 47 130t129 48q78 0 120 -43t42 -121q0 -82 -47 -130 t-127 -48q-164 0 -164 164z" />
<glyph unicode="&#xe5;" horiz-adv-x="1200" d="M8 -2l12 149q57 16 80 80l262 797l494 27l27 -23q165 -635 204 -772q27 -100 93 -106l12 -19l-14 -135q-150 2 -246 2l-336 -6l-14 14l10 148q91 11 99 22q5 7 5 31q0 2 -1 8t-1 10l-4 43q-47 2 -125 2q-16 0 -36.5 -1t-48 -3t-44.5 -2l-12 -53q-2 -14 -2 -29 q0 -18 6 -22t39 -4h37l16 -19l-14 -143q-164 4 -266 4h-232zM389 1313q0 96 61.5 157.5t163.5 61.5q106 0 157.5 -57.5t51.5 -143.5q0 -94 -61.5 -161.5t-165.5 -67.5q-98 0 -152.5 57.5t-54.5 153.5zM494 487h77q49 0 80 2l-49 254h-39zM530 1319q0 -39 24.5 -56.5 t55.5 -17.5q72 0 72 68q0 72 -80 71q-72 0 -72 -65z" />
<glyph unicode="&#xe6;" horiz-adv-x="1652" d="M20 152q66 14 97 75l262 604q-2 27 -12.5 37.5t-30.5 10.5l-43 -2l-23 24l17 135q299 -4 602 -4q457 4 598 19l24 -27q-31 -176 -38 -328l-256 -14q4 37 4 57q0 49 -31 65.5t-123 16.5q-29 0 -39 -7t-10 -30l29 -180l114 23l174 45l31 -31l-20 -203l-164 -22l-101 -21 l15 -88q16 -106 86 -106q88 0 117.5 31.5t43.5 134.5l238 16l23 -27q-31 -160 -50 -340l-26 -26q-283 10 -557 10h-74l-297 -8l-12 14l12 148q66 6 87.5 19t21.5 46v41l-7 72l-122 -23l-127 -39l-15 -61q-8 -23 -8 -35q0 -14 9.5 -16t51.5 -3q19 0 31 1l2 -19l-12 -143 q-8 4 -348 4h-139zM541 520l63 6l80 15l-20 202h-39z" />
<glyph unicode="&#xe7;" horiz-adv-x="1048" d="M35 500q0 270 151.5 410.5t444.5 140.5l366 -41l15 -37q-37 -150 -49 -352l-285 -17q2 41 2 92q0 63 -21.5 88t-78.5 25q-78 0 -102.5 -49t-24.5 -203q0 -174 30.5 -249t104.5 -75q59 0 83.5 38t30.5 135l283 18q-2 -23 -5 -59.5t-7 -130t-4 -164.5l-25 -27 q-152 -47 -338 -57l-14 -64q86 -41 153.5 -97t67.5 -118q0 -84 -88 -143.5t-215 -59.5q-66 0 -123 30t-57 77q0 43 100 143h19q2 -55 28.5 -84.5t71.5 -29.5q66 0 65 47q0 49 -178 135l41 164q-213 16 -327.5 149t-114.5 365z" />
<glyph unicode="&#xe8;" horiz-adv-x="1056" d="M27 -16l16 159q61 8 84 39t23 103l2 508q0 51 -8.5 68.5t-34.5 17.5l-43 -2l-23 24l16 135q254 -4 416 -4q358 0 529 19l24 -27q-31 -176 -39 -328l-256 -14q4 37 4 57q0 49 -30.5 65.5t-122.5 16.5q-31 0 -41.5 -8t-10.5 -31l-8 -157h133l185 8l22 -27l-24 -198 q-123 4 -199 4q-4 0 -127 -9v-104q0 -61 12.5 -78.5t61.5 -17.5q96 0 131 30.5t49 133.5l236 16l22 -27q-31 -160 -47 -340l-29 -26q-272 10 -549 10zM213 1266l74 221l32 10q258 -111 510 -205l-43 -145l-38 -27q-113 29 -243 56.5t-204 42.5l-74 14z" />
<glyph unicode="&#xe9;" horiz-adv-x="1056" d="M27 -16l16 159q61 8 84 39t23 103l2 508q0 51 -8.5 68.5t-34.5 17.5l-43 -2l-23 24l16 135q254 -4 416 -4q358 0 529 19l24 -27q-31 -176 -39 -328l-256 -14q4 37 4 57q0 49 -30.5 65.5t-122.5 16.5q-31 0 -41.5 -8t-10.5 -31l-8 -157h133l185 8l22 -27l-24 -198 q-123 4 -199 4q-4 0 -127 -9v-104q0 -61 12.5 -78.5t61.5 -17.5q96 0 131 30.5t49 133.5l236 16l22 -27q-31 -160 -47 -340l-29 -26q-272 10 -549 10zM322 1292q251 94 509 205l33 -10l74 -221l-14 -33q-266 -49 -521 -113l-38 27z" />
<glyph unicode="&#xea;" horiz-adv-x="1056" d="M27 -16l16 159q61 8 84 39t23 103l2 508q0 51 -8.5 68.5t-34.5 17.5l-43 -2l-23 24l16 135q254 -4 416 -4q358 0 529 19l24 -27q-31 -176 -39 -328l-256 -14q4 37 4 57q0 49 -30.5 65.5t-122.5 16.5q-31 0 -41.5 -8t-10.5 -31l-8 -157h133l185 8l22 -27l-24 -198 q-123 4 -199 4q-4 0 -127 -9v-104q0 -61 12.5 -78.5t61.5 -17.5q96 0 131 30.5t49 133.5l236 16l22 -27q-31 -160 -47 -340l-29 -26q-272 10 -549 10zM186 1282q172 125 363 283h55q0 6 50.5 -35t145.5 -118t165 -130l-72 -127l-47 -14q-96 41 -271 104q-106 -39 -268 -104 l-47 14z" />
<glyph unicode="&#xeb;" horiz-adv-x="1056" d="M27 -16l16 159q61 8 84 39t23 103l2 508q0 51 -8.5 68.5t-34.5 17.5l-43 -2l-23 24l16 135q254 -4 416 -4q358 0 529 19l24 -27q-31 -176 -39 -328l-256 -14q4 37 4 57q0 49 -30.5 65.5t-122.5 16.5q-31 0 -41.5 -8t-10.5 -31l-8 -157h133l185 8l22 -27l-24 -198 q-123 4 -199 4q-4 0 -127 -9v-104q0 -61 12.5 -78.5t61.5 -17.5q96 0 131 30.5t49 133.5l236 16l22 -27q-31 -160 -47 -340l-29 -26q-272 10 -549 10zM207 1272q0 82 47 130t129 48q78 0 120 -43t42 -121q0 -82 -47 -130t-129 -48q-162 0 -162 164zM600 1272q0 82 47 130 t129 48q78 0 120 -43t42 -121q0 -82 -47 -130t-127 -48q-164 0 -164 164z" />
<glyph unicode="&#xec;" horiz-adv-x="659" d="M-25 1266l74 221l33 10q258 -111 510 -205l-43 -145l-39 -27q-113 29 -243 56.5t-204 42.5l-73 14zM31 -6l14 147q68 14 87.5 38t19.5 91v529q0 49 -12.5 64.5t-47.5 15.5h-41l-16 24l14 129h283l305 6l-12 -155q-57 -8 -74 -22.5t-21 -59.5q-16 -213 -16 -541 q0 -66 10.5 -87t42.5 -21l49 4l15 -19l-15 -143q-221 6 -292 6z" />
<glyph unicode="&#xed;" horiz-adv-x="659" d="M31 -6l14 147q68 14 87.5 38t19.5 91v529q0 49 -12.5 64.5t-47.5 15.5h-41l-16 24l14 129h283l305 6l-12 -155q-57 -8 -74 -22.5t-21 -59.5q-16 -213 -16 -541q0 -66 10.5 -87t42.5 -21l49 4l15 -19l-15 -143q-221 6 -292 6zM82 1292q251 94 510 205l33 -10l73 -221 l-14 -33q-266 -49 -520 -113l-39 27z" />
<glyph unicode="&#xee;" horiz-adv-x="659" d="M-53 1282q172 125 362 283h56q0 6 50 -35t145 -118t165 -130l-72 -127l-47 -14q-96 41 -270 104q-106 -39 -268 -104l-48 14zM31 -6l14 147q68 14 87.5 38t19.5 91v529q0 49 -12.5 64.5t-47.5 15.5h-41l-16 24l14 129h283l305 6l-12 -155q-57 -8 -74 -22.5t-21 -59.5 q-16 -213 -16 -541q0 -66 10.5 -87t42.5 -21l49 4l15 -19l-15 -143q-221 6 -292 6z" />
<glyph unicode="&#xef;" horiz-adv-x="659" d="M-33 1272q0 82 47 130t129 48q78 0 120 -43t42 -121q0 -82 -47 -130t-129 -48q-162 0 -162 164zM31 -6l14 147q68 14 87.5 38t19.5 91v529q0 49 -12.5 64.5t-47.5 15.5h-41l-16 24l14 129h283l305 6l-12 -155q-57 -8 -74 -22.5t-21 -59.5q-16 -213 -16 -541 q0 -66 10.5 -87t42.5 -21l49 4l15 -19l-15 -143q-221 6 -292 6zM360 1272q0 82 47.5 130t129.5 48q78 0 119.5 -43t41.5 -121q0 -82 -47 -130t-127 -48q-164 0 -164 164z" />
<glyph unicode="&#xf0;" horiz-adv-x="1224" d="M27 426l22 158h150v207q0 49 -9.5 67.5t-31.5 18.5l-54 -5l-18 25l16 139q197 -4 269 -4l284 10q537 0 537 -479q0 -272 -158 -426.5t-434 -154.5q-164 18 -274 18l-248 -12l12 162q61 8 85 34.5t24 85.5v144h-156zM551 414l2 -148q0 -39 8 -52t33 -13q100 0 139 64.5 t39 232.5q0 195 -32.5 258t-137.5 63q-33 0 -33 -45l-12 -188l107 4l14 -17l-12 -159h-115z" />
<glyph unicode="&#xf1;" horiz-adv-x="1290" d="M27 899l10 141q131 -8 266 -8l232 6q59 -102 132.5 -215.5t116.5 -176.5l43 -62h29l-8 227q-4 41 -14.5 55.5t-40.5 14.5h-52l-10 18l8 139q199 -6 297 -6q246 0 246 4l-8 -155q-53 -8 -73.5 -30t-22.5 -71l-23 -772l-354 -18l-312 454h-28l8 -211q2 -49 15.5 -66 t52.5 -17l53 6l18 -15l-20 -147q-199 6 -273 6l-274 -12l18 155q49 6 71 30t24 71l20 530q0 55 -22.5 72.5t-102.5 27.5zM268 1198v33l166 235l35 9q37 0 162 -35t153 -35q23 0 56.5 29.5t57.5 59.5l24 30h32l121 -111v-33l-166 -235l-35 -8q-37 0 -161.5 34.5t-153.5 34.5 q-23 0 -57.5 -29.5t-57.5 -59.5l-22 -30h-33z" />
<glyph unicode="&#xf2;" horiz-adv-x="1134" d="M35 502q0 549 555 549q258 0 384 -126t126 -384q0 -272 -142.5 -415.5t-412.5 -143.5q-250 0 -380 132t-130 388zM203 1266l73 221l33 10q258 -111 510 -205l-43 -145l-39 -27q-113 29 -242.5 56.5t-203.5 42.5l-74 14zM457 584q0 -223 23 -302t95 -79q59 0 81 49t22 182 q0 223 -23.5 300t-97.5 77q-59 0 -79.5 -47t-20.5 -180z" />
<glyph unicode="&#xf3;" horiz-adv-x="1134" d="M35 502q0 549 555 549q258 0 384 -126t126 -384q0 -272 -142.5 -415.5t-412.5 -143.5q-250 0 -380 132t-130 388zM311 1292q251 94 510 205l33 -10l74 -221l-15 -33q-266 -49 -520 -113l-39 27zM457 584q0 -223 23 -302t95 -79q59 0 81 49t22 182q0 223 -23.5 300 t-97.5 77q-59 0 -79.5 -47t-20.5 -180z" />
<glyph unicode="&#xf4;" horiz-adv-x="1134" d="M35 502q0 549 555 549q258 0 384 -126t126 -384q0 -272 -142.5 -415.5t-412.5 -143.5q-250 0 -380 132t-130 388zM174 1282q172 125 363 283h55q0 6 50 -35t145.5 -118t164.5 -130l-71 -127l-47 -14q-96 41 -271 104q-106 -39 -268 -104l-47 14zM457 584q0 -223 23 -302 t95 -79q59 0 81 49t22 182q0 223 -23.5 300t-97.5 77q-59 0 -79.5 -47t-20.5 -180z" />
<glyph unicode="&#xf5;" horiz-adv-x="1134" d="M35 502q0 549 555 549q258 0 384 -126t126 -384q0 -272 -142.5 -415.5t-412.5 -143.5q-250 0 -380 132t-130 388zM158 1198v33l166 235l34 9q37 0 162 -35t154 -35q23 0 56.5 29.5t56.5 59.5l24 30h33l121 -111v-33l-166 -235l-35 -8q-37 0 -162 34.5t-153 34.5 q-23 0 -58 -29.5t-57 -59.5l-23 -30h-32zM457 584q0 -223 23 -302t95 -79q59 0 81 49t22 182q0 223 -23.5 300t-97.5 77q-59 0 -79.5 -47t-20.5 -180z" />
<glyph unicode="&#xf6;" horiz-adv-x="1134" d="M35 502q0 549 555 549q258 0 384 -126t126 -384q0 -272 -142.5 -415.5t-412.5 -143.5q-250 0 -380 132t-130 388zM197 1272q0 82 47 130t129 48q78 0 120 -43t42 -121q0 -82 -47.5 -130t-129.5 -48q-162 0 -161 164zM457 584q0 -223 23 -302t95 -79q59 0 81 49t22 182 q0 223 -23.5 300t-97.5 77q-59 0 -79.5 -47t-20.5 -180zM590 1272q0 82 47 130t129 48q78 0 120 -43t42 -121q0 -82 -47 -130t-127 -48q-164 0 -164 164z" />
<glyph unicode="&#xf7;" horiz-adv-x="1036" d="M31 387l37 277q287 -2 469 -2l452 12l15 -31l-27 -278l-465 -3l-463 -2zM338 131q0 86 48 135t132 49q76 0 119 -44t43 -121q0 -86 -47 -135.5t-131 -49.5q-80 0 -122 43t-42 123zM338 870q0 86 48 135.5t132 49.5q76 0 119 -44t43 -122q0 -86 -47 -135t-131 -49 q-80 0 -122 43t-42 122z" />
<glyph unicode="&#xf8;" horiz-adv-x="1134" d="M-8 -66l153 199q-111 132 -110 369q0 549 555 549q111 0 207 -27l149 203l197 -113l2 -22l-146 -197q100 -125 101 -354q0 -272 -142.5 -415.5t-412.5 -143.5q-113 0 -199 24l-156 -205l-192 117zM457 584q0 -223 23 -302t95 -79q59 0 81 49t22 182q0 223 -23.5 300 t-97.5 77q-59 0 -79.5 -47t-20.5 -180z" />
<glyph unicode="&#xf9;" horiz-adv-x="1081" d="M6 883l19 153q172 -4 315 -4l233 6l-18 -164q-74 -2 -78 -73l-10 -459q0 -63 28.5 -101t82 -38t78 26.5t24.5 89.5l-2 474q2 86 -41 86l-35 -2l-6 6l20 153q143 -4 205 -4l256 4l-14 -157q-49 -16 -63.5 -28.5t-14.5 -37.5v-434q0 -397 -457 -397q-225 0 -324.5 77.5 t-99.5 253.5v480q0 53 -9 69.5t-38 16.5l-47 -2zM217 1266l74 221l33 10q258 -111 510 -205l-43 -145l-39 -27q-113 29 -243 56.5t-204 42.5l-74 14z" />
<glyph unicode="&#xfa;" horiz-adv-x="1081" d="M6 883l19 153q172 -4 315 -4l233 6l-18 -164q-74 -2 -78 -73l-10 -459q0 -63 28.5 -101t82 -38t78 26.5t24.5 89.5l-2 474q2 86 -41 86l-35 -2l-6 6l20 153q143 -4 205 -4l256 4l-14 -157q-49 -16 -63.5 -28.5t-14.5 -37.5v-434q0 -397 -457 -397q-225 0 -324.5 77.5 t-99.5 253.5v480q0 53 -9 69.5t-38 16.5l-47 -2zM326 1292q251 94 510 205l32 -10l74 -221l-14 -33q-266 -49 -520 -113l-39 27z" />
<glyph unicode="&#xfb;" horiz-adv-x="1081" d="M6 883l19 153q172 -4 315 -4l233 6l-18 -164q-74 -2 -78 -73l-10 -459q0 -63 28.5 -101t82 -38t78 26.5t24.5 89.5l-2 474q2 86 -41 86l-35 -2l-6 6l20 153q143 -4 205 -4l256 4l-14 -157q-49 -16 -63.5 -28.5t-14.5 -37.5v-434q0 -397 -457 -397q-225 0 -324.5 77.5 t-99.5 253.5v480q0 53 -9 69.5t-38 16.5l-47 -2zM188 1282q172 125 363 283h55q0 6 50.5 -35t145.5 -118t165 -130l-72 -127l-47 -14q-96 41 -270 104q-106 -39 -269 -104l-47 14z" />
<glyph unicode="&#xfc;" horiz-adv-x="1081" d="M6 883l19 153q172 -4 315 -4l233 6l-18 -164q-74 -2 -78 -73l-10 -459q0 -63 28.5 -101t82 -38t78 26.5t24.5 89.5l-2 474q2 86 -41 86l-35 -2l-6 6l20 153q143 -4 205 -4l256 4l-14 -157q-49 -16 -63.5 -28.5t-14.5 -37.5v-434q0 -397 -457 -397q-225 0 -324.5 77.5 t-99.5 253.5v480q0 53 -9 69.5t-38 16.5l-47 -2zM211 1272q0 82 47 130t129 48q78 0 120 -43t42 -121q0 -82 -47 -130t-129 -48q-162 0 -162 164zM604 1272q0 82 47 130t129 48q78 0 120 -43t42 -121q0 -82 -47 -130t-127 -48q-164 0 -164 164z" />
<glyph unicode="&#xfd;" horiz-adv-x="1183" d="M18 874l19 160q211 -4 264 -4l313 12l15 -20l-19 -143q-61 4 -61 -37q0 -8 11 -37t34.5 -80t38.5 -86h24l54 152q23 45 22 69q0 23 -59 21l-6 10l14 137q53 0 143 1t136 1l198 6l6 -12l-14 -154q-51 -31 -102.5 -86t-81.5 -112l-152 -291q-25 -55 -24 -123 q0 -55 18 -77.5t68 -22.5l88 6l8 -10l-15 -164q-268 10 -370 10l-361 -14l13 159q111 6 146.5 29t35.5 90v17q0 57 -47 137l-187 321q-43 63 -161 125zM381 1292q251 94 510 205l33 -10l73 -221l-14 -33q-266 -49 -520 -113l-39 27z" />
<glyph unicode="&#xfe;" horiz-adv-x="1071" d="M31 -6l14 147q66 12 86.5 37t20.5 92v529q0 49 -12.5 64.5t-47.5 15.5h-41l-16 24l14 129h283l305 6l-12 -155q-61 -12 -75.5 -19.5t-19.5 -27.5h113q215 0 316.5 -76t101.5 -236q0 -139 -117 -222t-309 -83h-121v-33q0 -23 10.5 -28.5t42.5 -5.5l68 4l16 -19l-16 -143 q-236 6 -311 6zM516 422q66 -14 100 -14q68 23 68 122q0 104 -133 105q-33 0 -33 -39v-43q0 -25 -1 -69t-1 -62z" />
<glyph unicode="&#xff;" horiz-adv-x="1183" d="M18 874l19 160q211 -4 264 -4l313 12l15 -20l-19 -143q-61 4 -61 -37q0 -8 11 -37t34.5 -80t38.5 -86h24l54 152q23 45 22 69q0 23 -59 21l-6 10l14 137q53 0 143 1t136 1l198 6l6 -12l-14 -154q-51 -31 -102.5 -86t-81.5 -112l-152 -291q-25 -55 -24 -123 q0 -55 18 -77.5t68 -22.5l88 6l8 -10l-15 -164q-268 10 -370 10l-361 -14l13 159q111 6 146.5 29t35.5 90v17q0 57 -47 137l-187 321q-43 63 -161 125zM266 1272q0 82 47 130t129 48q78 0 120 -43t42 -121q0 -82 -47 -130t-129 -48q-162 0 -162 164zM659 1272q0 82 47.5 130 t129.5 48q78 0 119.5 -43t41.5 -121q0 -82 -47 -130t-127 -48q-164 0 -164 164z" />
<glyph unicode="&#x100;" horiz-adv-x="1384" d="M-10 -4l14 178q74 18 105 113l325 1028l539 33l31 -25q197 -789 256 -1010q18 -70 45.5 -101.5t74.5 -35.5l15 -20l-17 -162q-176 4 -288 4l-392 -10l-16 18l12 172q94 10 112.5 20.5t18.5 49.5q0 4 -4 37l-12 80q-111 4 -158 4q-31 0 -164 -11l-20 -90q-6 -35 -6 -45 q0 -27 11 -34t52 -7h54l16 -20l-16 -170q-190 6 -316 6zM393 1452l39 223q195 -2 316 -2l253 13l23 -37l-37 -224l-287 -2l-274 -2zM553 616h104q33 0 107 5l-70 358h-45z" />
<glyph unicode="&#x101;" horiz-adv-x="1200" d="M8 -2l12 149q57 16 80 80l262 797l494 27l27 -23q165 -635 204 -772q27 -100 93 -106l12 -19l-14 -135q-150 2 -246 2l-336 -6l-14 14l10 148q91 11 99 22q5 7 5 31q0 2 -1 8t-1 10l-4 43q-47 2 -125 2q-16 0 -36.5 -1t-48 -3t-44.5 -2l-12 -53q-2 -14 -2 -29 q0 -18 6 -22t39 -4h37l16 -19l-14 -143q-164 4 -266 4h-232zM297 1157l39 223q195 -2 315 -2l254 13l23 -37l-37 -224l-287 -2l-274 -2zM494 487h77q49 0 80 2l-49 254h-39z" />
<glyph unicode="&#x102;" horiz-adv-x="1384" d="M-10 -4l14 178q74 18 105 113l325 1028l539 33l31 -25q197 -789 256 -1010q18 -70 45.5 -101.5t74.5 -35.5l15 -20l-17 -162q-176 4 -288 4l-392 -10l-16 18l12 172q94 10 112.5 20.5t18.5 49.5q0 4 -4 37l-12 80q-111 4 -158 4q-31 0 -164 -11l-20 -90q-6 -35 -6 -45 q0 -27 11 -34t52 -7h54l16 -20l-16 -170q-190 6 -316 6zM334 1661l82 127l55 14q61 -143 227 -143t228 143l55 -14l82 -127q-37 -119 -128 -199t-236.5 -80t-236.5 80t-128 199zM553 616h104q33 0 107 5l-70 358h-45z" />
<glyph unicode="&#x103;" horiz-adv-x="1200" d="M8 -2l12 149q57 16 80 80l262 797l494 27l27 -23q165 -635 204 -772q27 -100 93 -106l12 -19l-14 -135q-150 2 -246 2l-336 -6l-14 14l10 148q91 11 99 22q5 7 5 31q0 2 -1 8t-1 10l-4 43q-47 2 -125 2q-16 0 -36.5 -1t-48 -3t-44.5 -2l-12 -53q-2 -14 -2 -29 q0 -18 6 -22t39 -4h37l16 -19l-14 -143q-164 4 -266 4h-232zM240 1386l82 127l55 15q61 -144 227 -144t227 144l56 -15l82 -127q-37 -119 -128 -198.5t-236.5 -79.5t-237 80t-127.5 198zM494 487h77q49 0 80 2l-49 254h-39z" />
<glyph unicode="&#x104;" horiz-adv-x="1384" d="M-10 -4l14 178q74 18 105 113l325 1028l539 33l31 -25q197 -788 256 -1010q18 -70 45.5 -101.5t74.5 -35.5l15 -20l-17 -162q-61 2 -133 4q-125 -170 -125 -236q0 -39 22.5 -61.5t61.5 -22.5q27 0 60.5 13.5t54.5 25.5l20 13l52 -80q-115 -109 -213 -146 q-123 0 -194 49.5t-71 133.5q0 66 40 135t139 176h-2l-392 -10l-16 18l12 172q94 10 112.5 20.5t18.5 49.5q0 4 -4 37l-12 80q-111 4 -158 4q-31 0 -164 -11l-20 -90q-6 -35 -6 -45q0 -27 11 -34t52 -7h54l16 -20l-16 -170q-190 6 -316 6zM553 616h104q33 0 107 5l-70 358 h-45z" />
<glyph unicode="&#x105;" horiz-adv-x="1200" d="M8 -2l12 149q57 16 80 80l262 797l494 27l27 -23q166 -635 204 -772q27 -100 93 -106l12 -19l-14 -135q-51 2 -107 2q-125 -170 -125 -236q0 -39 22.5 -61.5t61.5 -22.5q27 0 60.5 13.5t54.5 25.5l20 13l52 -80q-115 -109 -213 -146q-123 0 -194 49.5t-71 133.5 q0 66 40 135t139 176l-322 -6l-14 14l10 148q91 11 99 22q5 7 5 31q0 2 -1 8t-1 10l-4 43q-47 2 -125 2q-16 0 -36.5 -1t-48 -3t-44.5 -2l-12 -53q-2 -14 -2 -29q0 -18 6 -22t39 -4h37l16 -19l-14 -143q-164 4 -266 4h-232zM494 487h77q49 0 80 2l-49 254h-39z" />
<glyph unicode="&#x106;" horiz-adv-x="1234" d="M31 637q0 344 186 528.5t533 184.5q176 0 430 -54l16 -41q-43 -188 -57 -438l-316 -18q4 53 4 116q0 82 -31.5 117t-109.5 35q-106 0 -147 -77t-41 -279q0 -229 48 -337t150 -108q78 0 115 53.5t47 184.5l313 20q-25 -240 -24 -436l-27 -33q-221 -78 -485 -78 q-285 0 -444.5 174.5t-159.5 485.5zM457 1587q251 94 510 205l32 -10l74 -221l-14 -33q-266 -49 -520 -113l-39 27z" />
<glyph unicode="&#x107;" horiz-adv-x="1048" d="M35 500q0 270 151.5 410.5t444.5 140.5l366 -41l15 -37q-37 -150 -49 -352l-285 -17q2 41 2 92q0 63 -21.5 88t-78.5 25q-78 0 -102.5 -49t-24.5 -203q0 -174 30.5 -249t104.5 -75q59 0 83.5 38t30.5 135l283 18q-2 -23 -5 -59.5t-7 -130t-4 -164.5l-25 -27 q-188 -59 -409 -59q-238 0 -369 135t-131 381zM328 1292q251 94 510 205l32 -10l74 -221l-14 -33q-266 -49 -520 -113l-39 27z" />
<glyph unicode="&#x108;" horiz-adv-x="1234" d="M31 637q0 344 186 528.5t533 184.5q176 0 430 -54l16 -41q-43 -188 -57 -438l-316 -18q4 53 4 116q0 82 -31.5 117t-109.5 35q-106 0 -147 -77t-41 -279q0 -229 48 -337t150 -108q78 0 115 53.5t47 184.5l313 20q-25 -240 -24 -436l-27 -33q-221 -78 -485 -78 q-285 0 -444.5 174.5t-159.5 485.5zM328 1593q72 63 157.5 143.5t135.5 128.5l49 48h55q180 -178 340 -320l-92 -127l-47 -14q-78 53 -230 141q-139 -80 -227 -141l-47 14z" />
<glyph unicode="&#x109;" horiz-adv-x="1048" d="M35 500q0 270 151.5 410.5t444.5 140.5l366 -41l15 -37q-37 -150 -49 -352l-285 -17q2 41 2 92q0 63 -21.5 88t-78.5 25q-78 0 -102.5 -49t-24.5 -203q0 -174 30.5 -249t104.5 -75q59 0 83.5 38t30.5 135l283 18q-2 -23 -5 -59.5t-7 -130t-4 -164.5l-25 -27 q-188 -59 -409 -59q-238 0 -369 135t-131 381zM223 1298q72 63 158 143.5t135 128.5l49 48h56q180 -178 340 -320l-93 -127l-47 -14q-78 53 -229 141q-139 -80 -227 -141l-48 14z" />
<glyph unicode="&#x10a;" horiz-adv-x="1234" d="M31 637q0 344 186 528.5t533 184.5q176 0 430 -54l16 -41q-43 -188 -57 -438l-316 -18q4 53 4 116q0 82 -31.5 117t-109.5 35q-106 0 -147 -77t-41 -279q0 -229 48 -337t150 -108q78 0 115 53.5t47 184.5l313 20q-25 -240 -24 -436l-27 -33q-221 -78 -485 -78 q-285 0 -444.5 174.5t-159.5 485.5zM492 1593q0 98 56 155.5t152 57.5q90 0 140.5 -51t50.5 -143q0 -98 -55.5 -155.5t-151.5 -57.5q-94 0 -143 50t-49 144z" />
<glyph unicode="&#x10b;" horiz-adv-x="1048" d="M35 500q0 270 151.5 410.5t444.5 140.5l366 -41l15 -37q-37 -150 -49 -352l-285 -17q2 41 2 92q0 63 -21.5 88t-78.5 25q-78 0 -102.5 -49t-24.5 -203q0 -174 30.5 -249t104.5 -75q59 0 83.5 38t30.5 135l283 18q-2 -23 -5 -59.5t-7 -130t-4 -164.5l-25 -27 q-188 -59 -409 -59q-238 0 -369 135t-131 381zM383 1319q0 98 56.5 155.5t152.5 57.5q90 0 140 -51t50 -144q0 -98 -55.5 -155.5t-151.5 -57.5q-94 0 -143 50.5t-49 144.5z" />
<glyph unicode="&#x10c;" horiz-adv-x="1234" d="M31 637q0 344 186 528.5t533 184.5q176 0 430 -54l16 -41q-43 -188 -57 -438l-316 -18q4 53 4 116q0 82 -31.5 117t-109.5 35q-106 0 -147 -77t-41 -279q0 -229 48 -337t150 -108q78 0 115 53.5t47 184.5l313 20q-25 -240 -24 -436l-27 -33q-221 -78 -485 -78 q-285 0 -444.5 174.5t-159.5 485.5zM297 1692l72 127l47 14q96 -41 270 -104q106 39 268 104l47 -14l74 -127q-172 -125 -362 -283h-56q-190 158 -360 283z" />
<glyph unicode="&#x10d;" horiz-adv-x="1048" d="M35 500q0 270 151.5 410.5t444.5 140.5l366 -41l15 -37q-37 -150 -49 -352l-285 -17q2 41 2 92q0 63 -21.5 88t-78.5 25q-78 0 -102.5 -49t-24.5 -203q0 -174 30.5 -249t104.5 -75q59 0 83.5 38t30.5 135l283 18q-2 -23 -5 -59.5t-7 -130t-4 -164.5l-25 -27 q-188 -59 -409 -59q-238 0 -369 135t-131 381zM188 1397l72 127l47 14q96 -41 271 -104q106 39 268 104l47 -14l74 -127q-172 -125 -363 -283h-55q-190 158 -361 283z" />
<glyph unicode="&#x10e;" horiz-adv-x="1396" d="M35 -16l16 190q78 12 105.5 48t27.5 122v686q0 63 -11 87t-40 24l-65 -4l-21 28l19 166q227 -6 311 -6l340 12q649 0 649 -616q0 -344 -191.5 -545t-521.5 -201q-197 25 -325 25zM322 1692l71 127l47 14q96 -41 271 -104q106 39 268 104l47 -14l74 -127 q-172 -125 -363 -283h-55q-190 158 -360 283zM580 332q0 -59 15 -80t58 -21q133 0 188.5 94.5t55.5 317.5q0 250 -54.5 342t-199.5 92q-41 0 -43 -55q-20 -293 -20 -690z" />
<glyph unicode="&#x10f;" horiz-adv-x="1183" d="M35 -12l12 162q63 8 86 36.5t23 94.5v510q0 49 -9.5 67.5t-31.5 18.5l-54 -5l-18 25l16 139q199 -4 269 -4l284 10q537 0 537 -479q0 -272 -158 -426.5t-434 -154.5q-164 18 -274 18zM217 1397l72 127l47 14q96 -41 270 -104q106 39 268 104l48 -14l73 -127 q-172 -125 -362 -283h-55q-190 158 -361 283zM510 266q0 -39 9 -52t32 -13q100 0 139 64.5t39 232.5q0 193 -33 256t-137 63q-31 0 -33 -43q-16 -193 -16 -508z" />
<glyph unicode="&#x110;" horiz-adv-x="1441" d="M14 561l27 182h190v287q0 63 -11 87t-40 24l-65 -4l-21 28l19 166q227 -6 311 -6l340 12q649 0 649 -616q0 -344 -191.5 -545t-521.5 -201q-197 25 -325 25l-293 -16l16 190q78 12 105.5 48t27.5 122v201h-196zM627 332q0 -59 15 -80t58 -21q133 0 188.5 94.5t55.5 317.5 q0 250 -54 342t-200 92q-41 0 -43 -55l-14 -277l153 7l17 -21l-15 -184h-161v-215z" />
<glyph unicode="&#x111;" horiz-adv-x="1224" d="M27 426l22 158h150v207q0 49 -9.5 67.5t-31.5 18.5l-54 -5l-18 25l16 139q197 -4 269 -4l284 10q537 0 537 -479q0 -272 -158 -426.5t-434 -154.5q-164 18 -274 18l-248 -12l12 162q61 8 85 34.5t24 85.5v144h-156zM551 414l2 -148q0 -39 8 -52t33 -13q100 0 139 64.5 t39 232.5q0 195 -32.5 258t-137.5 63q-33 0 -33 -45l-12 -188l107 4l14 -17l-12 -159h-115z" />
<glyph unicode="&#x112;" horiz-adv-x="1234" d="M27 -20l18 188q78 12 105.5 50t27.5 130l2 686q0 66 -11 88.5t-44 22.5l-53 -4l-25 28l19 162q291 -6 477 -6q436 0 633 25l26 -33q-37 -215 -47 -408l-283 -18q4 49 5 76q0 70 -38 91t-163 21q-43 0 -56.5 -10t-13.5 -45l-12 -231q16 0 76.5 -1t91.5 -1l225 12l25 -29 l-29 -235q-152 6 -246 6q-43 0 -153 -13q-2 -70 -2 -174q0 -80 17 -101t81 -21q133 0 176 39.5t62 177.5l262 18l24 -31q-37 -199 -57 -422l-31 -32q-340 14 -657 14q-94 0 -201.5 -5t-169.5 -10zM362 1452l39 223q195 -2 316 -2l254 13l22 -37l-37 -224l-286 -2l-275 -2z " />
<glyph unicode="&#x113;" horiz-adv-x="1056" d="M27 -16l16 159q61 8 84 39t23 103l2 508q0 51 -8.5 68.5t-34.5 17.5l-43 -2l-23 24l16 135q254 -4 416 -4q358 0 529 19l24 -27q-31 -176 -39 -328l-256 -14q4 37 4 57q0 49 -30.5 65.5t-122.5 16.5q-31 0 -41.5 -8t-10.5 -31l-8 -157h133l185 8l22 -27l-24 -198 q-123 4 -199 4q-4 0 -127 -9v-104q0 -61 12.5 -78.5t61.5 -17.5q96 0 131 30.5t49 133.5l236 16l22 -27q-31 -160 -47 -340l-29 -26q-272 10 -549 10zM264 1157l39 223q195 -2 315 -2l254 13l23 -37l-37 -224l-287 -2l-274 -2z" />
<glyph unicode="&#x114;" horiz-adv-x="1234" d="M27 -20l18 188q78 12 105.5 50t27.5 130l2 686q0 66 -11 88.5t-44 22.5l-53 -4l-25 28l19 162q291 -6 477 -6q436 0 633 25l26 -33q-37 -215 -47 -408l-283 -18q4 49 5 76q0 70 -38 91t-163 21q-43 0 -56.5 -10t-13.5 -45l-12 -231q16 0 76.5 -1t91.5 -1l225 12l25 -29 l-29 -235q-152 6 -246 6q-43 0 -153 -13q-2 -70 -2 -174q0 -80 17 -101t81 -21q133 0 176 39.5t62 177.5l262 18l24 -31q-37 -199 -57 -422l-31 -32q-340 14 -657 14q-94 0 -201.5 -5t-169.5 -10zM305 1712l82 127l55 14q62 -143 228 -143t227 143l55 -14l82 -127 q-37 -119 -128 -198.5t-236.5 -79.5t-236.5 79.5t-128 198.5z" />
<glyph unicode="&#x115;" horiz-adv-x="1056" d="M27 -16l16 159q61 8 84 39t23 103l2 508q0 51 -8.5 68.5t-34.5 17.5l-43 -2l-23 24l16 135q254 -4 416 -4q358 0 529 19l24 -27q-31 -176 -39 -328l-256 -14q4 37 4 57q0 49 -30.5 65.5t-122.5 16.5q-31 0 -41.5 -8t-10.5 -31l-8 -157h133l185 8l22 -27l-24 -198 q-123 4 -199 4q-4 0 -127 -9v-104q0 -61 12.5 -78.5t61.5 -17.5q96 0 131 30.5t49 133.5l236 16l22 -27q-31 -160 -47 -340l-29 -26q-272 10 -549 10zM205 1397l82 127l55 14q61 -143 227 -143t228 143l55 -14l82 -127q-37 -119 -128 -199t-236.5 -80t-236.5 80t-128 199z " />
<glyph unicode="&#x116;" horiz-adv-x="1234" d="M27 -20l18 188q78 12 105.5 50t27.5 130l2 686q0 66 -11 88.5t-44 22.5l-53 -4l-25 28l19 162q291 -6 477 -6q436 0 633 25l26 -33q-37 -215 -47 -408l-283 -18q4 49 5 76q0 70 -38 91t-163 21q-43 0 -56.5 -10t-13.5 -45l-12 -231q16 0 76.5 -1t91.5 -1l225 12l25 -29 l-29 -235q-152 6 -246 6q-43 0 -153 -13q-2 -70 -2 -174q0 -80 17 -101t81 -21q133 0 176 39.5t62 177.5l262 18l24 -31q-37 -199 -57 -422l-31 -32q-340 14 -657 14q-94 0 -201.5 -5t-169.5 -10zM473 1593q0 98 56.5 155.5t152.5 57.5q90 0 140 -51t50 -143 q0 -98 -55 -155.5t-151 -57.5q-94 0 -143.5 50t-49.5 144z" />
<glyph unicode="&#x117;" horiz-adv-x="1056" d="M27 -16l16 159q61 8 84 39t23 103l2 508q0 51 -8.5 68.5t-34.5 17.5l-43 -2l-23 24l16 135q254 -4 416 -4q358 0 529 19l24 -27q-31 -176 -39 -328l-256 -14q4 37 4 57q0 49 -30.5 65.5t-122.5 16.5q-31 0 -41.5 -8t-10.5 -31l-8 -157h133l185 8l22 -27l-24 -198 q-123 4 -199 4q-4 0 -127 -9v-104q0 -61 12.5 -78.5t61.5 -17.5q96 0 131 30.5t49 133.5l236 16l22 -27q-31 -160 -47 -340l-29 -26q-272 10 -549 10zM377 1298q0 98 56 155.5t153 57.5q90 0 140 -51t50 -143q0 -98 -55.5 -155.5t-151.5 -57.5q-94 0 -143 50t-49 144z" />
<glyph unicode="&#x118;" horiz-adv-x="1234" d="M27 -20l18 188q78 12 105.5 50t27.5 130l2 686q0 66 -11 88.5t-44 22.5l-53 -4l-25 28l19 162q291 -6 477 -6q436 0 633 25l26 -33q-37 -215 -47 -408l-283 -18q4 49 5 76q0 70 -38 91t-163 21q-43 0 -56.5 -10t-13.5 -45l-12 -231q16 0 76.5 -1t91.5 -1l225 12l25 -29 l-29 -235q-152 6 -246 6q-43 0 -153 -13q-2 -70 -2 -174q0 -80 17 -101t81 -21q133 0 176 39.5t62 177.5l262 18l24 -31q-37 -199 -57 -422l-31 -32q-25 2 -63 4q-119 -160 -119 -228q0 -39 22.5 -61.5t61.5 -22.5q27 0 60.5 13.5t54.5 25.5l20 13l51 -80 q-115 -109 -213 -146q-123 0 -193.5 49.5t-70.5 133.5q0 66 39 135t135 172q-188 6 -442 6q-94 0 -201.5 -5t-169.5 -10z" />
<glyph unicode="&#x119;" horiz-adv-x="1056" d="M27 -16l16 159q61 8 84 39t23 103l2 508q0 51 -8.5 68.5t-34.5 17.5l-43 -2l-23 24l16 135q254 -4 416 -4q358 0 529 19l24 -27q-31 -176 -39 -328l-256 -14q4 37 4 57q0 49 -30.5 65.5t-122.5 16.5q-31 0 -41.5 -8t-10.5 -31l-8 -157h133l185 8l22 -27l-24 -198 q-123 4 -199 4q-4 0 -127 -9v-104q0 -61 12.5 -78.5t61.5 -17.5q96 0 131 30.5t49 133.5l236 16l22 -27q-31 -160 -47 -340l-29 -26q-20 2 -43 2q-121 -160 -121 -230q0 -39 22.5 -61.5t61.5 -22.5q27 0 61 13.5t54 25.5l21 13l51 -80q-115 -109 -213 -146 q-123 0 -193.5 49.5t-70.5 133.5q0 66 38.5 135t137.5 174q-201 4 -355 4z" />
<glyph unicode="&#x11a;" horiz-adv-x="1234" d="M27 -20l18 188q78 12 105.5 50t27.5 130l2 686q0 66 -11 88.5t-44 22.5l-53 -4l-25 28l19 162q291 -6 477 -6q436 0 633 25l26 -33q-37 -215 -47 -408l-283 -18q4 49 5 76q0 70 -38 91t-163 21q-43 0 -56.5 -10t-13.5 -45l-12 -231q16 0 76.5 -1t91.5 -1l225 12l25 -29 l-29 -235q-152 6 -246 6q-43 0 -153 -13q-2 -70 -2 -174q0 -80 17 -101t81 -21q133 0 176 39.5t62 177.5l262 18l24 -31q-37 -199 -57 -422l-31 -32q-340 14 -657 14q-94 0 -201.5 -5t-169.5 -10zM279 1692l71 127l47 14q96 -41 271 -104q106 39 268 104l47 -14l74 -127 q-172 -125 -363 -283h-55q-190 158 -360 283z" />
<glyph unicode="&#x11b;" horiz-adv-x="1056" d="M27 -16l16 159q61 8 84 39t23 103l2 508q0 51 -8.5 68.5t-34.5 17.5l-43 -2l-23 24l16 135q254 -4 416 -4q358 0 529 19l24 -27q-31 -176 -39 -328l-256 -14q4 37 4 57q0 49 -30.5 65.5t-122.5 16.5q-31 0 -41.5 -8t-10.5 -31l-8 -157h133l185 8l22 -27l-24 -198 q-123 4 -199 4q-4 0 -127 -9v-104q0 -61 12.5 -78.5t61.5 -17.5q96 0 131 30.5t49 133.5l236 16l22 -27q-31 -160 -47 -340l-29 -26q-272 10 -549 10zM182 1397l72 127l47 14q96 -41 270 -104q106 39 269 104l47 -14l74 -127q-172 -125 -363 -283h-55q-190 158 -361 283z " />
<glyph unicode="&#x11c;" horiz-adv-x="1308" d="M31 637q0 348 189.5 530.5t549.5 182.5q86 0 189.5 -13.5t164.5 -26.5l62 -14l22 -41q-45 -174 -57 -413l-315 -19q4 47 4 113q0 76 -26 103.5t-95 27.5q-125 0 -173 -77t-48 -279q0 -233 50 -339t163 -106q33 0 59.5 6.5t36.5 12.5l10 6v129q0 49 -13 66.5t-52 17.5 l-68 -2l-18 28l24 195h314q243 0 243 10l21 -119q-72 -41 -89.5 -101t-17.5 -261q0 -117 15 -176l-25 -33q-164 -68 -496 -68q-295 0 -459.5 174.5t-164.5 485.5zM342 1593q72 63 158 143.5t135 128.5l49 48h55q180 -178 340 -320l-92 -127l-47 -14q-78 53 -229 141 q-139 -80 -228 -141l-47 14z" />
<glyph unicode="&#x11d;" horiz-adv-x="1110" d="M35 500q0 272 155.5 411.5t460.5 139.5q72 0 159 -10.5t137 -20.5l50 -10l21 -37q-39 -137 -49 -330l-285 -16q4 37 4 88q0 55 -16.5 75.5t-63.5 20.5q-94 0 -124.5 -51t-30.5 -203q0 -178 33.5 -252t115.5 -74l70 13v84q0 35 -10.5 48t-38.5 13l-48 -2l-18 27l23 161 q49 0 136 1.5t128 1.5q211 0 211 8l18 -103q-63 -33 -78.5 -80t-15.5 -208q0 -84 12 -136l-22 -28q-131 -47 -414 -47q-246 0 -383 135t-137 381zM233 1298q72 63 158 143.5t135 128.5l49 48h56q180 -178 340 -320l-92 -127l-48 -14q-78 53 -229 141q-139 -80 -227 -141 l-47 14z" />
<glyph unicode="&#x11e;" horiz-adv-x="1308" d="M31 637q0 348 189.5 530.5t549.5 182.5q86 0 189.5 -13.5t164.5 -26.5l62 -14l22 -41q-45 -174 -57 -413l-315 -19q4 47 4 113q0 76 -26 103.5t-95 27.5q-125 0 -173 -77t-48 -279q0 -233 50 -339t163 -106q33 0 59.5 6.5t36.5 12.5l10 6v129q0 49 -13 66.5t-52 17.5 l-68 -2l-18 28l24 195h314q243 0 243 10l21 -119q-72 -41 -89.5 -101t-17.5 -261q0 -117 15 -176l-25 -33q-164 -68 -496 -68q-295 0 -459.5 174.5t-164.5 485.5zM336 1722l82 127l55 15q62 -144 227.5 -144t227.5 144l55 -15l82 -127q-37 -119 -128 -198.5t-236.5 -79.5 t-236.5 80t-128 198z" />
<glyph unicode="&#x11f;" horiz-adv-x="1110" d="M35 500q0 272 155.5 411.5t460.5 139.5q72 0 159 -10.5t137 -20.5l50 -10l21 -37q-39 -137 -49 -330l-285 -16q4 37 4 88q0 55 -16.5 75.5t-63.5 20.5q-94 0 -124.5 -51t-30.5 -203q0 -178 33.5 -252t115.5 -74l70 13v84q0 35 -10.5 48t-38.5 13l-48 -2l-18 27l23 161 q49 0 136 1.5t128 1.5q211 0 211 8l18 -103q-63 -33 -78.5 -80t-15.5 -208q0 -84 12 -136l-22 -28q-131 -47 -414 -47q-246 0 -383 135t-137 381zM225 1407l82 127l55 14q62 -143 228 -143t227 143l55 -14l82 -127q-37 -119 -128 -199t-236.5 -80t-236.5 80t-128 199z" />
<glyph unicode="&#x120;" horiz-adv-x="1308" d="M31 637q0 348 189.5 530.5t549.5 182.5q86 0 189.5 -13.5t164.5 -26.5l62 -14l22 -41q-45 -174 -57 -413l-315 -19q4 47 4 113q0 76 -26 103.5t-95 27.5q-125 0 -173 -77t-48 -279q0 -233 50 -339t163 -106q33 0 59.5 6.5t36.5 12.5l10 6v129q0 49 -13 66.5t-52 17.5 l-68 -2l-18 28l24 195h314q243 0 243 10l21 -119q-72 -41 -89.5 -101t-17.5 -261q0 -117 15 -176l-25 -33q-164 -68 -496 -68q-295 0 -459.5 174.5t-164.5 485.5zM506 1593q0 98 56 155.5t153 57.5q90 0 140 -51t50 -143q0 -98 -55.5 -155.5t-151.5 -57.5q-94 0 -143 50 t-49 144z" />
<glyph unicode="&#x121;" horiz-adv-x="1110" d="M35 500q0 272 155.5 411.5t460.5 139.5q72 0 159 -10.5t137 -20.5l50 -10l21 -37q-39 -137 -49 -330l-285 -16q4 37 4 88q0 55 -16.5 75.5t-63.5 20.5q-94 0 -124.5 -51t-30.5 -203q0 -178 33.5 -252t115.5 -74l70 13v84q0 35 -10.5 48t-38.5 13l-48 -2l-18 27l23 161 q49 0 136 1.5t128 1.5q211 0 211 8l18 -103q-63 -33 -78.5 -80t-15.5 -208q0 -84 12 -136l-22 -28q-131 -47 -414 -47q-246 0 -383 135t-137 381zM395 1298q0 98 56.5 155.5t152.5 57.5q90 0 140.5 -51t50.5 -143q0 -98 -55.5 -155.5t-151.5 -57.5q-94 0 -143.5 50 t-49.5 144z" />
<glyph unicode="&#x122;" horiz-adv-x="1308" d="M31 637q0 348 189.5 530.5t549.5 182.5q86 0 189.5 -13.5t164.5 -26.5l62 -14l22 -41q-45 -174 -57 -413l-315 -19q4 47 4 113q0 76 -26 103.5t-95 27.5q-125 0 -173 -77t-48 -279q0 -233 50 -339t163 -106q33 0 59.5 6.5t36.5 12.5l10 6v129q0 49 -13 66.5t-52 17.5 l-68 -2l-18 28l24 195h314q243 0 243 10l21 -119q-72 -41 -89.5 -101t-17.5 -261q0 -117 15 -176l-25 -33q-164 -68 -496 -68q-295 0 -459.5 174.5t-164.5 485.5zM408 -561q59 43 95 102.5t36 114.5q-1 90 -60 156l6 28q117 90 209 90q78 0 126 -56t48 -150 q0 -109 -92 -224.5t-250 -206.5l-118 95v51z" />
<glyph unicode="&#x123;" horiz-adv-x="1110" d="M35 500q0 272 155.5 411.5t460.5 139.5q72 0 159 -10.5t137 -20.5l50 -10l21 -37q-39 -137 -49 -330l-285 -16q4 37 4 88q0 55 -16.5 75.5t-63.5 20.5q-94 0 -124.5 -51t-30.5 -203q0 -178 33.5 -252t115.5 -74l70 13v84q0 35 -10.5 48t-38.5 13l-48 -2l-18 27l23 161 q49 0 136 1.5t128 1.5q211 0 211 8l18 -103q-63 -33 -78.5 -80t-15.5 -208q0 -84 12 -136l-22 -28q-131 -47 -414 -47q-246 0 -383 135t-137 381zM319 -561q59 43 95.5 102.5t36.5 114.5q-1 90 -60 156l6 28q117 90 209 90q78 0 126 -56t48 -150q0 -109 -92 -224.5 t-250 -206.5l-119 95v51z" />
<glyph unicode="&#x124;" horiz-adv-x="1513" d="M31 -10l16 174q82 16 107.5 49t25.5 119v708q0 63 -14 84t-57 21l-54 -2l-18 28l16 154h264l408 10l-14 -184q-66 -12 -85.5 -31.5t-23.5 -75.5l-12 -247l174 -6q113 0 172 6v243q0 61 -14.5 83t-57.5 22l-55 -2l-18 28l16 154h330l360 10l-14 -180q-74 -12 -97.5 -33 t-25.5 -78q-20 -276 -21 -725q0 -76 17.5 -106.5t62.5 -30.5l58 6l16 -22l-18 -170q-180 4 -351 4l-340 -2l17 178q74 2 104.5 37t30.5 119v209q-70 2 -121 2l-231 -19v-205q0 -86 13 -113.5t52 -27.5l56 6l16 -20l-19 -172q-248 8 -331 8zM387 1647q72 63 158 143t135 128 l49 48h55q180 -178 340 -319l-92 -127l-47 -15q-78 53 -229 142q-139 -80 -228 -142l-47 15z" />
<glyph unicode="&#x125;" horiz-adv-x="1280" d="M31 -6l14 147q66 12 86.5 37t20.5 92v529q0 49 -12.5 64.5t-47.5 15.5h-43l-16 24l14 129h223l359 6l-13 -155q-51 -8 -67.5 -22.5t-18.5 -49.5l-10 -180l125 -6q80 0 129 4v170q0 47 -12 63.5t-47 16.5h-45l-17 24l15 129h286l312 6l-13 -151q-61 -10 -79.5 -25.5 t-20.5 -60.5q-16 -174 -16 -541q0 -57 15 -80.5t50 -23.5l43 4l17 -21l-17 -141q-152 2 -301 2l-293 -2l13 152q59 2 84.5 28.5t25.5 83.5v148q-43 2 -80 2l-180 -15v-137q0 -66 10.5 -87t42.5 -21l41 4l15 -19l-15 -143q-221 6 -293 6q-45 0 -118.5 -2t-119.5 -3zM270 1352 q72 63 158 143t135 128l49 48h56q180 -178 340 -319l-93 -127l-47 -15q-78 53 -229 142q-139 -80 -227 -142l-47 15z" />
<glyph unicode="&#x126;" horiz-adv-x="1513" d="M-10 913l16 119q72 -2 174 -2v10q0 63 -14 84t-57 21l-54 -2l-18 28l16 154h264l408 10l-14 -184q-66 -12 -85.5 -31.5t-23.5 -75.5l-2 -14h223h113v10q0 61 -14.5 83t-57.5 22l-55 -2l-18 28l16 154h330l360 10l-14 -180q-74 -12 -97.5 -33t-25.5 -78q0 -2 -1 -5l-1 -3 l143 4l31 -30l-10 -113l-170 -2q-12 -248 -13 -576q0 -76 17.5 -106.5t62.5 -30.5l58 6l16 -22l-18 -170q-180 4 -351 4l-340 -2l17 178q74 2 104.5 37t30.5 119v209q-70 2 -121 2l-231 -19v-205q0 -86 13 -113.5t52 -27.5l56 6l16 -20l-19 -172q-248 8 -331 8l-340 -10 l16 174q82 16 107.5 49t25.5 119v561h-168zM590 797l174 -6q113 0 172 6v98h-166h-176z" />
<glyph unicode="&#x127;" horiz-adv-x="1280" d="M-4 707l12 98q57 -2 144 -2q-2 45 -13.5 60.5t-46.5 15.5h-43l-16 24l14 129h223l359 6l-13 -155q-51 -8 -67.5 -22.5t-18.5 -49.5v-8h168h76q-2 45 -14 60.5t-45 15.5h-45l-17 24l15 129h286l312 6l-13 -151q-59 -10 -78.5 -24.5t-21.5 -55.5l117 4l24 -25l-8 -92 l-141 -2q-8 -154 -8 -432q0 -57 15 -80.5t50 -23.5l43 4l17 -21l-17 -141q-152 2 -301 2l-293 -2l13 152q59 2 84.5 28.5t25.5 83.5v148q-43 2 -80 2l-180 -15v-137q0 -66 10.5 -87t42.5 -21l41 4l15 -19l-15 -143q-221 6 -293 6q-45 0 -118.5 -2t-119.5 -3l-46 -1l14 147 q66 12 86.5 37t20.5 92v420h-138zM520 631l125 -6q80 0 129 4v63h-121h-131z" />
<glyph unicode="&#x128;" horiz-adv-x="757" d="M-23 1544v33l166 235l35 9q37 0 162 -35t154 -35q23 0 56.5 29.5t56.5 59.5l24 30h33l120 -111v-33l-166 -235l-34 -8q-37 0 -162 34.5t-154 34.5q-23 0 -57.5 -29.5t-56.5 -59.5l-23 -29h-33zM31 -10l16 174q82 18 107.5 51t25.5 117v708q0 63 -14 84t-57 21l-54 -2 l-18 28l16 154h330l352 10l-14 -184q-70 -10 -91.5 -30t-25.5 -77q-20 -322 -20 -725q0 -86 13 -113.5t52 -27.5l66 6l16 -20l-18 -172q-256 8 -342 8z" />
<glyph unicode="&#x129;" horiz-adv-x="659" d="M-74 1249v33l166 236l35 8q37 0 162 -35t153 -35q23 0 56.5 30t57.5 59l24 30h32l121 -111v-32l-166 -236l-35 -8q-37 0 -161.5 34.5t-153.5 34.5q-23 0 -57.5 -29.5t-57.5 -59.5l-22 -29h-33zM31 -6l14 147q68 14 87.5 38t19.5 91v529q0 49 -12.5 64.5t-47.5 15.5h-41 l-16 24l14 129h283l305 6l-12 -155q-57 -8 -74 -22.5t-21 -59.5q-16 -213 -16 -541q0 -66 10.5 -87t42.5 -21l49 4l15 -19l-15 -143q-221 6 -292 6z" />
<glyph unicode="&#x12a;" horiz-adv-x="757" d="M31 -10l16 174q82 18 107.5 51t25.5 117v708q0 63 -14 84t-57 21l-54 -2l-18 28l16 154h330l352 10l-14 -184q-70 -10 -91.5 -30t-25.5 -77q-20 -322 -20 -725q0 -86 13 -113.5t52 -27.5l66 6l16 -20l-18 -172q-256 8 -342 8zM78 1452l39 223q195 -2 315 -2l254 13 l23 -37l-37 -224l-287 -2l-274 -2z" />
<glyph unicode="&#x12b;" horiz-adv-x="659" d="M25 1157l38 223q195 -2 316 -2l254 13l22 -37l-37 -224l-286 -2l-275 -2zM31 -6l14 147q68 14 87.5 38t19.5 91v529q0 49 -12.5 64.5t-47.5 15.5h-41l-16 24l14 129h283l305 6l-12 -155q-57 -8 -74 -22.5t-21 -59.5q-16 -213 -16 -541q0 -66 10.5 -87t42.5 -21l49 4 l15 -19l-15 -143q-221 6 -292 6z" />
<glyph unicode="&#x12c;" horiz-adv-x="757" d="M20 1712l82 127l56 14q61 -143 227 -143t227 143l56 -14l82 -127q-37 -119 -128.5 -198.5t-236.5 -79.5t-236.5 79.5t-128.5 198.5zM31 -10l16 174q82 18 107.5 51t25.5 117v708q0 63 -14 84t-57 21l-54 -2l-18 28l16 154h330l352 10l-14 -184q-70 -10 -91.5 -30 t-25.5 -77q-20 -322 -20 -725q0 -86 13 -113.5t52 -27.5l66 6l16 -20l-18 -172q-256 8 -342 8z" />
<glyph unicode="&#x12d;" horiz-adv-x="659" d="M-31 1438l82 127l55 14q62 -143 228 -143t227 143l55 -14l82 -127q-37 -119 -128 -199t-236.5 -80t-236.5 80t-128 199zM31 -6l14 147q68 14 87.5 38t19.5 91v529q0 49 -12.5 64.5t-47.5 15.5h-41l-16 24l14 129h283l305 6l-12 -155q-57 -8 -74 -22.5t-21 -59.5 q-16 -213 -16 -541q0 -66 10.5 -87t42.5 -21l49 4l15 -19l-15 -143q-221 6 -292 6z" />
<glyph unicode="&#x12e;" horiz-adv-x="757" d="M31 -10l16 174q82 18 107.5 51t25.5 117v708q0 63 -14 84t-57 21l-54 -2l-18 28l16 154h330l352 10l-14 -184q-70 -10 -91.5 -29.5t-25.5 -77.5q-20 -322 -20 -725q0 -86 13 -113.5t52 -27.5l66 6l16 -20l-18 -172q-55 2 -115 4q-125 -166 -125 -234q0 -39 22.5 -61.5 t61.5 -22.5q27 0 60.5 13.5t54.5 25.5l20 13l51 -80q-115 -109 -213 -146q-123 0 -193.5 49.5t-70.5 133.5q0 66 40 135t140 178h-75z" />
<glyph unicode="&#x12f;" horiz-adv-x="659" d="M31 -6l14 147q68 14 87.5 38t19.5 91v529q0 49 -12.5 64.5t-47.5 15.5h-41l-16 24l14 129h283l305 6l-12 -155q-57 -8 -73.5 -22.5t-21.5 -59.5q-16 -213 -16 -541q0 -66 10.5 -87t42.5 -21l49 4l15 -19l-15 -143q-45 2 -94 4q-125 -170 -125 -236q0 -39 22.5 -61.5 t61.5 -22.5q27 0 60.5 13.5t54.5 25.5l20 13l52 -80q-115 -109 -213 -146q-123 0 -194 49.5t-71 133.5q0 123 181 313h-47z" />
<glyph unicode="&#x130;" horiz-adv-x="757" d="M31 -10l16 174q82 18 107.5 51t25.5 117v708q0 63 -14 84t-57 21l-54 -2l-18 28l16 154h330l352 10l-14 -184q-70 -10 -91.5 -30t-25.5 -77q-20 -322 -20 -725q0 -86 13 -113.5t52 -27.5l66 6l16 -20l-18 -172q-256 8 -342 8zM188 1593q0 98 56.5 155.5t152.5 57.5 q90 0 140.5 -51t50.5 -143q0 -98 -55.5 -155.5t-151.5 -57.5q-94 0 -143.5 50t-49.5 144z" />
<glyph unicode="&#x131;" horiz-adv-x="659" d="M31 -6l14 147q68 14 87.5 38t19.5 91v529q0 49 -12.5 64.5t-47.5 15.5h-41l-16 24l14 129h283l305 6l-12 -155q-57 -8 -74 -22.5t-21 -59.5q-16 -213 -16 -541q0 -66 10.5 -87t42.5 -21l49 4l15 -19l-15 -143q-221 6 -292 6z" />
<glyph unicode="&#x132;" horiz-adv-x="1452" d="M31 -10l16 174q82 18 107.5 51t25.5 117v708q0 63 -14 84t-57 21l-54 -2l-18 28l16 154h330l352 10l-14 -184q-70 -10 -91.5 -30t-25.5 -77q-20 -322 -20 -725q0 -86 13 -113.5t52 -27.5l66 6l16 -20l-18 -172q-256 8 -342 8zM748 -238l4 31q104 96 137 187t33 290v770 q0 63 -13.5 84t-52.5 21l-74 -4l-18 28l16 156l289 2l389 14l-16 -190q-59 -14 -75.5 -31.5t-20.5 -75.5q-25 -377 -25 -870q0 -197 -118 -319.5t-374 -190.5z" />
<glyph unicode="&#x133;" horiz-adv-x="1239" d="M31 -6l14 147q68 14 87.5 38t19.5 91v529q0 49 -12.5 64.5t-47.5 15.5h-41l-16 24l14 129h283l305 6l-12 -155q-57 -8 -74 -22.5t-21 -59.5q-16 -213 -16 -541q0 -66 10.5 -87t42.5 -21l49 4l15 -19l-15 -143q-221 6 -292 6zM631 -186l2 26q84 78 110.5 148.5t26.5 226.5 v584q0 49 -10 65.5t-43 16.5l-60 -4l-16 26l14 129l246 2l340 10l-14 -161q-49 -10 -61.5 -24.5t-16.5 -57.5q-20 -291 -21 -674q0 -152 -101 -247t-325 -146z" />
<glyph unicode="&#x134;" horiz-adv-x="694" d="M-14 1593q72 63 157.5 143.5t135.5 128.5l49 48h55q180 -178 340 -320l-92 -127l-47 -14q-78 53 -230 141q-139 -80 -227 -141l-47 14zM-10 -238l4 31q104 96 137 187t33 290v770q0 63 -13.5 84t-52.5 21l-73 -4l-19 28l17 156l288 2l389 14l-16 -190 q-59 -14 -75.5 -31.5t-20.5 -75.5q-25 -377 -25 -870q0 -197 -117.5 -319.5t-373.5 -190.5z" />
<glyph unicode="&#x135;" horiz-adv-x="608" d="M-61 1298q72 63 157.5 143.5t134.5 128.5l50 48h55q180 -178 340 -320l-92 -127l-47 -14q-78 53 -230 141q-139 -80 -227 -141l-47 14zM0 -186l2 26q84 78 110.5 148.5t26.5 226.5v584q0 49 -10 65.5t-43 16.5l-59 -4l-17 26l15 129l245 2l340 10l-14 -161 q-49 -10 -61.5 -24.5t-16.5 -57.5q-20 -291 -20 -674q0 -152 -101.5 -247t-324.5 -146z" />
<glyph unicode="&#x136;" horiz-adv-x="1419" d="M31 -10l16 174q82 16 107.5 49t25.5 119v708q0 63 -14 84t-57 21l-54 -2l-18 28l18 156q291 -2 328 -2l352 10l-14 -184q-76 -18 -98.5 -39.5t-24.5 -75.5l-14 -717q-2 -86 11 -113.5t54 -27.5l66 6l16 -20l-18 -172q-256 8 -342 8zM485 -561q59 43 95 102.5t36 114.5 q0 90 -59 156l6 28q117 90 209 90q78 0 126 -56t48 -150q0 -109 -92 -224.5t-250 -206.5l-119 95v51zM602 649l10 62l230 272q43 43 43 94q0 35 -18.5 49.5t-65.5 16.5l-13 20l19 168q199 -6 293 -6l295 10l18 -30l-18 -154q-145 -82 -301 -301l-86 -121l192 -373 q47 -90 92 -133t109 -51l20 -31l-22 -151q-262 -23 -314 -23q-80 0 -129 36t-96 130z" />
<glyph unicode="&#x137;" horiz-adv-x="1220" d="M31 -8l12 145q68 16 88.5 40.5t20.5 92.5v529q0 49 -12.5 64.5t-47.5 15.5h-43l-16 24l16 131q256 -2 283 -2l307 6l-12 -155q-63 -16 -81 -31.5t-20 -56.5l-12 -535q0 -66 10.5 -87t42.5 -21l51 4l15 -19l-15 -143q-223 6 -294 6zM395 -561q59 43 95 102.5t36 114.5 q0 90 -59 156l6 28q117 90 209 90q78 0 126 -56t48 -150q0 -109 -92 -224.5t-250 -206.5l-119 95v51zM526 506l9 51l176 197q33 29 32 71q0 29 -13 39t-50 13l-12 18l16 141q170 -4 250 -4l256 8l18 -26l-16 -129q-127 -74 -258 -252l-43 -62l141 -278q66 -129 160 -146 l18 -26l-18 -129q-231 -18 -277 -19q-70 0 -108.5 27t-77.5 102z" />
<glyph unicode="&#x138;" horiz-adv-x="1220" d="M31 -8l12 145q68 16 88.5 40.5t20.5 92.5v529q0 49 -12.5 64.5t-47.5 15.5h-43l-16 24l16 131q256 -2 283 -2l307 6l-12 -155q-63 -16 -81 -31.5t-20 -56.5l-12 -535q0 -66 10.5 -87t42.5 -21l51 4l15 -19l-15 -143q-223 6 -294 6zM526 506l9 51l176 197q33 29 32 71 q0 29 -13 39t-50 13l-12 18l16 141q170 -4 250 -4l256 8l18 -26l-16 -129q-127 -74 -258 -252l-43 -62l141 -278q66 -129 160 -146l18 -26l-18 -129q-231 -18 -277 -19q-70 0 -108.5 27t-77.5 102z" />
<glyph unicode="&#x139;" horiz-adv-x="1140" d="M27 -20l18 188q78 12 105.5 50t27.5 130v692q0 63 -14 84t-58 21l-53 -2l-18 28l16 154h330l424 10l-23 -200q-106 -10 -142 -32t-38 -75q-20 -307 -20 -704q0 -47 17 -67.5t58 -20.5q109 0 148 64.5t49 268.5l262 27l25 -31q-31 -262 -49 -547l-31 -32q-309 14 -602 14 q-94 0 -201.5 -5t-169.5 -10zM160 1587q251 94 510 205l32 -10l74 -221l-14 -33q-266 -49 -520 -113l-39 27z" />
<glyph unicode="&#x13a;" horiz-adv-x="987" d="M25 -16l16 159q63 8 86 39t23 103v514q0 49 -12.5 64.5t-47.5 15.5h-41l-18 24l14 129h285l375 6l-21 -170q-90 -8 -121 -22.5t-33 -48.5q-18 -240 -18 -535q0 -59 53 -59q84 0 113 52t37 214l235 23l23 -27q-25 -215 -39 -447l-29 -28q-252 10 -506 10zM88 1292 q251 94 510 205l33 -10l74 -221l-15 -33q-266 -49 -520 -113l-39 27z" />
<glyph unicode="&#x13b;" horiz-adv-x="1140" d="M27 -20l18 188q78 12 105.5 50t27.5 130v692q0 63 -14 84t-58 21l-53 -2l-18 28l16 154h330l424 10l-23 -200q-106 -10 -142 -32t-38 -75q-20 -307 -20 -704q0 -47 17 -67.5t58 -20.5q109 0 148 64.5t49 268.5l262 27l25 -31q-31 -262 -49 -547l-31 -32q-309 14 -602 14 q-94 0 -201.5 -5t-169.5 -10zM311 -561q59 43 95 102.5t36 114.5q0 90 -59 156l6 28q117 90 209 90q78 0 126 -56t48 -150q0 -109 -92 -224.5t-250 -206.5l-119 95v51z" />
<glyph unicode="&#x13c;" horiz-adv-x="987" d="M25 -16l16 159q63 8 86 39t23 103v514q0 49 -12.5 64.5t-47.5 15.5h-41l-18 24l14 129h285l375 6l-21 -170q-90 -8 -121 -22.5t-33 -48.5q-18 -240 -18 -535q0 -59 53 -59q84 0 113 52t37 214l235 23l23 -27q-25 -215 -39 -447l-29 -28q-252 10 -506 10zM238 -561 q59 43 95 102.5t36 114.5q-1 90 -60 156l6 28q117 90 209 90q78 0 126 -56t48 -150q0 -109 -92 -224.5t-250 -206.5l-118 95v51z" />
<glyph unicode="&#x13d;" horiz-adv-x="1167" d="M27 -20l18 188q78 12 105.5 50t27.5 130v692q0 63 -14 84t-58 21l-53 -2l-18 28l16 154h330l424 10l-23 -200q-106 -10 -142 -32t-38 -75q-20 -307 -20 -704q0 -47 17 -67.5t58 -20.5q109 0 148 64.5t49 268.5l262 27l25 -31q-31 -262 -49 -547l-31 -32q-309 14 -602 14 q-94 0 -201.5 -5t-169.5 -10zM883 1296l274 29l19 -25q-33 -223 -86 -452l-150 -51l-39 12q2 109 -3 230.5t-10 189.5z" />
<glyph unicode="&#x13e;" horiz-adv-x="1013" d="M25 -16l16 159q63 8 86 39t23 103v514q0 49 -12.5 64.5t-47.5 15.5h-41l-18 24l14 129h285l375 6l-21 -170q-90 -8 -121 -22.5t-33 -48.5q-18 -240 -18 -535q0 -59 53 -59q84 0 113 52t37 214l235 23l23 -27q-25 -215 -39 -447l-29 -28q-252 10 -506 10zM752 1012l241 22 l17 -20q-27 -174 -74 -355l-135 -43l-33 11q0 86 -4 182t-8 149z" />
<glyph unicode="&#x13f;" horiz-adv-x="1181" d="M27 -20l18 188q78 12 105.5 50t27.5 130v692q0 63 -14 84t-58 21l-53 -2l-18 28l16 154h330l424 10l-23 -200q-106 -10 -142 -32t-38 -75q-20 -307 -20 -704q0 -47 17 -67.5t58 -20.5q109 0 148 64.5t49 268.5l262 27l25 -31q-31 -262 -49 -547l-31 -32q-309 14 -602 14 q-94 0 -201.5 -5t-169.5 -10zM772 969q0 98 56.5 155.5t152.5 57.5q90 0 140 -51.5t50 -143.5q0 -98 -55 -155.5t-151 -57.5q-94 0 -143.5 50t-49.5 145z" />
<glyph unicode="&#x140;" horiz-adv-x="1114" d="M25 -16l16 159q63 8 86 39t23 103v514q0 49 -12.5 64.5t-47.5 15.5h-41l-18 24l14 129h285l375 6l-21 -170q-90 -8 -121 -22.5t-33 -48.5q-18 -240 -18 -535q0 -59 53 -59q84 0 113 52t37 214l235 23l23 -27q-25 -215 -39 -447l-29 -28q-252 10 -506 10zM711 772 q0 90 50 141.5t138 51.5q82 0 127 -46.5t45 -130.5q0 -88 -50 -140t-136 -52q-84 0 -129 46t-45 130z" />
<glyph unicode="&#x141;" horiz-adv-x="1191" d="M31 627l198 98v315q0 63 -14 84t-57 21l-54 -2l-18 28l16 154h330l424 10l-22 -200q-106 -10 -142.5 -32t-38.5 -75q-4 -45 -8 -139l168 84l18 -8l64 -191l-260 -129q-2 -94 -2 -321q0 -47 17.5 -67.5t58.5 -20.5q109 0 147.5 64.5t48.5 268.5l262 27l25 -31 q-31 -262 -49 -547l-31 -32q-309 14 -602 14q-94 0 -201.5 -5t-169.5 -10l-61 -5l18 188q78 12 105.5 50t27.5 130v139l-114 -57l-21 4z" />
<glyph unicode="&#x142;" horiz-adv-x="1024" d="M31 492l168 77v230q0 49 -12.5 64.5t-47.5 15.5h-41l-18 24l14 129h285l375 6l-21 -170q-90 -8 -120.5 -22.5t-32.5 -48.5l-7 -90l117 55l17 -6l57 -166l-201 -94q-2 -68 -2 -234q0 -59 53 -59q84 0 113 52t37 214l235 23l23 -27q-25 -215 -39 -447l-29 -28 q-251 10 -505 10l-375 -16l16 159q63 8 86 39t23 103v77l-93 -43l-16 5z" />
<glyph unicode="&#x143;" horiz-adv-x="1513" d="M27 1169l12 166q154 -10 303 -10l262 8q82 -147 180.5 -310t155.5 -252l57 -89h31l-8 375q-2 51 -16.5 69.5t-51.5 18.5h-63l-10 22l10 166q225 -8 340 -8q285 0 284 6l-10 -184q-66 -8 -91.5 -37t-27.5 -92l-26 -1018l-385 -25q-229 380 -420 670h-31l6 -364 q2 -59 18.5 -82t61.5 -23l70 8l18 -18l-22 -174q-227 8 -316 8l-315 -16l20 184q115 14 117 129l25 715q0 70 -29 94t-125 35zM557 1587q251 94 510 205l33 -10l74 -221l-15 -33q-266 -49 -520 -113l-39 27z" />
<glyph unicode="&#x144;" horiz-adv-x="1290" d="M27 899l10 141q131 -8 266 -8l232 6q59 -102 132.5 -215.5t116.5 -176.5l43 -62h29l-8 227q-4 41 -14.5 55.5t-40.5 14.5h-52l-10 18l8 139q199 -6 297 -6q246 0 246 4l-8 -155q-53 -8 -73.5 -30t-22.5 -71l-23 -772l-354 -18l-312 454h-28l8 -211q2 -49 15.5 -66 t52.5 -17l53 6l18 -15l-20 -147q-199 6 -273 6l-274 -12l18 155q49 6 71 30t24 71l20 530q0 55 -22.5 72.5t-102.5 27.5zM420 1292q251 94 510 205l33 -10l73 -221l-14 -33q-266 -49 -520 -113l-39 27z" />
<glyph unicode="&#x145;" horiz-adv-x="1513" d="M27 1169l12 166q154 -10 303 -10l262 8q82 -147 180.5 -310t155.5 -252l57 -89h31l-8 375q-2 51 -16.5 69.5t-51.5 18.5h-63l-10 22l10 166q225 -8 340 -8q285 0 284 6l-10 -184q-66 -8 -91.5 -37t-27.5 -92l-26 -1018l-385 -25q-229 380 -420 670h-31l6 -364 q2 -59 18.5 -82t61.5 -23l70 8l18 -18l-22 -174q-227 8 -316 8l-315 -16l20 184q115 14 117 129l25 715q0 70 -29 94t-125 35zM508 -561q59 43 95 102.5t36 114.5q0 90 -59 156l6 28q117 90 209 90q78 0 126 -56t48 -150q0 -109 -92.5 -224.5t-249.5 -206.5l-119 95v51z" />
<glyph unicode="&#x146;" horiz-adv-x="1290" d="M27 899l10 141q131 -8 266 -8l232 6q59 -102 132.5 -215.5t116.5 -176.5l43 -62h29l-8 227q-4 41 -14.5 55.5t-40.5 14.5h-52l-10 18l8 139q199 -6 297 -6q246 0 246 4l-8 -155q-53 -8 -73.5 -30t-22.5 -71l-23 -772l-354 -18l-312 454h-28l8 -211q2 -49 15.5 -66 t52.5 -17l53 6l18 -15l-20 -147q-199 6 -273 6l-274 -12l18 155q49 6 71 30t24 71l20 530q0 55 -22.5 72.5t-102.5 27.5zM408 -561q59 43 95 102.5t36 114.5q-1 90 -60 156l6 28q117 90 209 90q78 0 126 -56t48 -150q0 -109 -92 -224.5t-250 -206.5l-118 95v51z" />
<glyph unicode="&#x147;" horiz-adv-x="1513" d="M27 1169l12 166q154 -10 303 -10l262 8q82 -147 180.5 -310t155.5 -252l57 -89h31l-8 375q-2 51 -16.5 69.5t-51.5 18.5h-63l-10 22l10 166q225 -8 340 -8q285 0 284 6l-10 -184q-66 -8 -91.5 -37t-27.5 -92l-26 -1018l-385 -25q-229 380 -420 670h-31l6 -364 q2 -59 18.5 -82t61.5 -23l70 8l18 -18l-22 -174q-227 8 -316 8l-315 -16l20 184q115 14 117 129l25 715q0 70 -29 94t-125 35zM397 1692l72 127l47 14q96 -41 270 -104q106 39 269 104l47 -14l74 -127q-172 -125 -363 -283h-55q-190 158 -361 283z" />
<glyph unicode="&#x148;" horiz-adv-x="1290" d="M27 899l10 141q131 -8 266 -8l232 6q59 -102 132.5 -215.5t116.5 -176.5l43 -62h29l-8 227q-4 41 -14.5 55.5t-40.5 14.5h-52l-10 18l8 139q199 -6 297 -6q246 0 246 4l-8 -155q-53 -8 -73.5 -30t-22.5 -71l-23 -772l-354 -18l-312 454h-28l8 -211q2 -49 15.5 -66 t52.5 -17l53 6l18 -15l-20 -147q-199 6 -273 6l-274 -12l18 155q49 6 71 30t24 71l20 530q0 55 -22.5 72.5t-102.5 27.5zM281 1397l71 127l47 14q96 -41 271 -104q106 39 268 104l47 -14l74 -127q-172 -125 -363 -283h-55q-190 158 -360 283z" />
<glyph unicode="&#x14a;" horiz-adv-x="1507" d="M35 1178l12 157q186 -10 297 -10l248 8q192 -342 418 -682h28l-8 414q0 49 -15.5 68.5t-51.5 19.5l-64 -2l-10 20l10 162q274 -8 336 -8l272 8l-10 -178q-68 -8 -93.5 -36.5t-27.5 -92.5l-22 -852q-6 -207 -119 -332t-361 -194l-77 94l4 31q76 59 113.5 110t56.5 117 q-233 384 -428 678h-29l4 -406q2 -59 18.5 -80.5t61.5 -21.5l72 6l16 -16l-20 -168q-207 8 -369 8l-246 -16l21 176q61 8 87.5 38.5t28.5 94.5l25 729q0 66 -28.5 91.5t-127.5 35.5z" />
<glyph unicode="&#x14b;" horiz-adv-x="1280" d="M35 907l10 133q162 -8 260 -8l217 6q66 -111 146 -231.5t126 -184.5l46 -65h24l-6 262q0 39 -13.5 53.5t-43.5 14.5l-51 -2l-9 18l9 135q244 -6 292 -6l234 6l-8 -151q-55 -6 -76 -28.5t-23 -72.5l-18 -651q-4 -162 -102.5 -261t-311.5 -153l-69 76l4 27q109 92 133 174 q-80 121 -161 240.5t-123 178.5l-42 58h-24l4 -250q2 -47 16 -64.5t51 -17.5l58 4l14 -12l-16 -141q-180 6 -322 6l-213 -12l19 147q94 12 96 98l20 549q0 51 -23.5 70.5t-103.5 28.5z" />
<glyph unicode="&#x14c;" horiz-adv-x="1341" d="M31 639q0 344 172 527.5t497 183.5q610 0 611 -654q0 -346 -174 -533.5t-496 -187.5q-297 0 -453.5 171t-156.5 493zM358 1452l39 223q195 -2 316 -2l254 13l22 -37l-37 -224l-286 -2l-275 -2zM500 739q0 -281 40 -393.5t140 -112.5q88 0 125 77t37 257q0 281 -41 391.5 t-144 110.5q-86 0 -121.5 -74.5t-35.5 -255.5z" />
<glyph unicode="&#x14d;" horiz-adv-x="1134" d="M35 502q0 549 555 549q258 0 384 -126t126 -384q0 -272 -142.5 -415.5t-412.5 -143.5q-250 0 -380 132t-130 388zM254 1157l39 223q195 -2 315 -2l254 13l23 -37l-37 -224l-287 -2l-274 -2zM457 584q0 -223 23 -302t95 -79q59 0 81 49t22 182q0 223 -23.5 300t-97.5 77 q-59 0 -79.5 -47t-20.5 -180z" />
<glyph unicode="&#x14e;" horiz-adv-x="1341" d="M31 639q0 344 172 527.5t497 183.5q610 0 611 -654q0 -346 -174 -533.5t-496 -187.5q-297 0 -453.5 171t-156.5 493zM301 1712l82 127l55 14q62 -143 227.5 -143t227.5 143l55 -14l82 -127q-37 -119 -128 -198.5t-236.5 -79.5t-236.5 79.5t-128 198.5zM500 739 q0 -281 40 -393.5t140 -112.5q88 0 125 77t37 257q0 281 -41 391.5t-144 110.5q-86 0 -121.5 -74.5t-35.5 -255.5z" />
<glyph unicode="&#x14f;" horiz-adv-x="1134" d="M35 502q0 549 555 549q258 0 384 -126t126 -384q0 -272 -142.5 -415.5t-412.5 -143.5q-250 0 -380 132t-130 388zM201 1417l82 127l55 15q61 -144 227 -144t228 144l55 -15l82 -127q-37 -119 -128 -198.5t-236.5 -79.5t-236.5 79.5t-128 198.5zM457 584q0 -223 23 -302 t95 -79q59 0 81 49t22 182q0 223 -23.5 300t-97.5 77q-59 0 -79.5 -47t-20.5 -180z" />
<glyph unicode="&#x150;" horiz-adv-x="1341" d="M31 639q0 344 172 527.5t497 183.5q610 0 611 -654q0 -346 -174 -533.5t-496 -187.5q-297 0 -453.5 171t-156.5 493zM293 1489q155 153 305 311l31 2l135 -166v-30q-182 -109 -354 -226l-39 11zM500 739q0 -281 40 -393.5t140 -112.5q88 0 125 77t37 257q0 281 -41 391.5 t-144 110.5q-86 0 -121.5 -74.5t-35.5 -255.5zM698 1489q155 153 306 311l30 2l135 -166v-30q-182 -109 -354 -226l-39 11z" />
<glyph unicode="&#x151;" horiz-adv-x="1134" d="M35 502q0 549 555 549q258 0 384 -126t126 -384q0 -272 -142.5 -415.5t-412.5 -143.5q-250 0 -380 132t-130 388zM168 1194q155 153 305 311l31 2l135 -166v-30q-182 -109 -354 -226l-39 11zM457 584q0 -223 23 -302t95 -79q59 0 81 49t22 182q0 223 -23.5 300t-97.5 77 q-59 0 -79.5 -47t-20.5 -180zM573 1194q155 153 306 311l30 2l135 -166v-30q-182 -109 -354 -226l-39 11z" />
<glyph unicode="&#x152;" horiz-adv-x="1873" d="M31 639q0 344 167 518t492 174q59 0 214 -12t255 -12q311 0 656 43l26 -33q-37 -215 -47 -408l-283 -18q4 49 5 76q0 70 -38 91t-163 21q-43 0 -56.5 -10t-13.5 -45l-12 -231l168 -2l225 12l25 -29l-29 -235q-152 6 -246 6l-153 -13l-2 -174q0 -80 17 -101t81 -21 q133 0 177 39.5t60 177.5l263 18l24 -31q-37 -199 -57 -422l-31 -32q-346 20 -663 20q-82 0 -236 -13t-205 -13q-297 0 -458.5 169.5t-161.5 489.5zM496 741q0 -289 41 -404.5t143 -115.5q147 0 147 180l2 498q0 182 -170 182q-90 0 -126.5 -76.5t-36.5 -263.5z" />
<glyph unicode="&#x153;" horiz-adv-x="1560" d="M29 502q0 270 135 401t411 131q47 0 176.5 -9t215.5 -9q240 0 546 35l25 -27q-31 -176 -39 -328l-254 -14q2 37 2 57q0 49 -29.5 65.5t-123.5 16.5q-29 0 -39.5 -8t-10.5 -31l-10 -157h135l185 8l22 -27l-24 -198q-123 4 -199 4l-127 -9l-2 -104q0 -61 13.5 -78.5 t62.5 -17.5q98 0 132 30.5t46 133.5l238 16l22 -27q-31 -160 -49 -340l-27 -26q-279 16 -555 16q-63 0 -189 -10t-167 -10q-254 0 -388 131t-134 385zM446 586q0 -229 24.5 -311t98.5 -82q100 0 101 116v381q0 131 -119 131q-61 0 -83 -49t-22 -186z" />
<glyph unicode="&#x154;" horiz-adv-x="1388" d="M29 -18l18 188q76 12 104.5 50t28.5 124v711q0 51 -11 70.5t-42 19.5l-72 -4l-20 24l22 162q207 -2 291 -2l379 12q565 0 565 -385q0 -242 -245 -387l127 -213q106 -180 198 -180l23 -33l-19 -149l-317 -23q-86 0 -140.5 43t-93.5 144l-127 313h-114v-139 q0 -94 23.5 -119t121.5 -29l10 -16l-20 -172q-250 8 -336 8zM471 1587q251 94 510 205l33 -10l73 -221l-14 -33q-266 -49 -520 -113l-39 27zM590 725l155 -20q70 29 97.5 74.5t27.5 131.5q0 88 -56 129t-175 41q-20 0 -26.5 -8t-8.5 -37q-10 -139 -14 -311z" />
<glyph unicode="&#x155;" horiz-adv-x="1196" d="M29 -16l14 159q61 10 85 41t24 97v532q0 37 -9.5 51.5t-31.5 14.5l-62 -2l-18 20l20 137q178 -2 248 -2l328 10q487 0 487 -307q0 -186 -199 -301l95 -145q92 -141 159 -142l21 -28l-16 -127l-279 -17q-76 0 -120 32t-77 112l-94 231h-90v-86q0 -70 19.5 -88t101.5 -22 l10 -15l-18 -145q-221 6 -291 6q-57 0 -134 -4t-125 -8zM354 1292q251 94 510 205l33 -10l74 -221l-15 -33q-266 -49 -520 -113l-39 27zM520 571l123 -16q59 25 75.5 55.5t16.5 92t-42 89t-134 27.5q-16 0 -21.5 -6t-7.5 -29q-6 -63 -10 -213z" />
<glyph unicode="&#x156;" horiz-adv-x="1388" d="M29 -18l18 188q76 12 104.5 50t28.5 124v711q0 51 -11 70.5t-42 19.5l-72 -4l-20 24l22 162q207 -2 291 -2l379 12q565 0 565 -385q0 -242 -245 -387l127 -213q106 -180 198 -180l23 -33l-19 -149l-317 -23q-86 0 -140.5 43t-93.5 144l-127 313h-114v-139 q0 -94 23.5 -119t121.5 -29l10 -16l-20 -172q-250 8 -336 8zM436 -561q59 43 95 102.5t36 114.5q0 90 -59 156l6 28q117 90 209 90q78 0 126 -56t48 -150q0 -109 -92 -224.5t-250 -206.5l-119 95v51zM590 725l155 -20q70 29 97.5 74.5t27.5 131.5q0 88 -56 129t-175 41 q-20 0 -26.5 -8t-8.5 -37q-10 -139 -14 -311z" />
<glyph unicode="&#x157;" horiz-adv-x="1196" d="M29 -16l14 159q61 10 85 41t24 97v532q0 37 -9.5 51.5t-31.5 14.5l-62 -2l-18 20l20 137q178 -2 248 -2l328 10q487 0 487 -307q0 -186 -199 -301l95 -145q92 -141 159 -142l21 -28l-16 -127l-279 -17q-76 0 -120 32t-77 112l-94 231h-90v-86q0 -70 19.5 -88t101.5 -22 l10 -15l-18 -145q-221 6 -291 6q-57 0 -134 -4t-125 -8zM352 -561q59 43 95 102.5t36 114.5q0 90 -59 156l6 28q117 90 209 90q78 0 126 -56t48 -150q0 -109 -92 -224.5t-250 -206.5l-119 95v51zM520 571l123 -16q59 25 75.5 55.5t16.5 92t-42 89t-134 27.5q-16 0 -21.5 -6 t-7.5 -29q-6 -63 -10 -213z" />
<glyph unicode="&#x158;" horiz-adv-x="1388" d="M29 -18l18 188q76 12 104.5 50t28.5 124v711q0 51 -11 70.5t-42 19.5l-72 -4l-20 24l22 162q207 -2 291 -2l379 12q565 0 565 -385q0 -242 -245 -387l127 -213q106 -180 198 -180l23 -33l-19 -149l-317 -23q-86 0 -140.5 43t-93.5 144l-127 313h-114v-139 q0 -94 23.5 -119t121.5 -29l10 -16l-20 -172q-250 8 -336 8zM311 1692l72 127l47 14q96 -41 270 -104q106 39 269 104l47 -14l74 -127q-172 -125 -363 -283h-55q-190 158 -361 283zM590 725l155 -20q70 29 97.5 74.5t27.5 131.5q0 88 -56 129t-175 41q-20 0 -26.5 -8 t-8.5 -37q-10 -139 -14 -311z" />
<glyph unicode="&#x159;" horiz-adv-x="1196" d="M29 -16l14 159q61 10 85 41t24 97v532q0 37 -9.5 51.5t-31.5 14.5l-62 -2l-18 20l20 137q178 -2 248 -2l328 10q487 0 487 -307q0 -186 -199 -301l95 -145q92 -141 159 -142l21 -28l-16 -127l-279 -17q-76 0 -120 32t-77 112l-94 231h-90v-86q0 -70 19.5 -88t101.5 -22 l10 -15l-18 -145q-221 6 -291 6q-57 0 -134 -4t-125 -8zM215 1397l72 127l47 14q96 -41 270 -104q106 39 268 104l48 -14l73 -127q-172 -125 -362 -283h-56q-190 158 -360 283zM520 571l123 -16q59 25 75.5 55.5t16.5 92t-42 89t-134 27.5q-16 0 -21.5 -6t-7.5 -29 q-6 -63 -10 -213z" />
<glyph unicode="&#x15a;" horiz-adv-x="1128" d="M162 100q37 203 43 338l258 19q0 -209 180 -209q63 0 99 22.5t36 61.5q0 27 -14 48t-48 41.5t-61.5 34t-85 38t-84.5 36.5q-143 63 -228 150.5t-85 230.5q0 199 173 319t458 120q225 0 391 -58l25 -45q-39 -172 -56 -356l-237 -17l-25 17v33q0 143 -149 143 q-57 0 -93 -25.5t-36 -66.5q0 -14 4 -26.5t13 -24t18.5 -21.5t28 -20.5t30.5 -17.5t36.5 -18t39 -17.5t44 -18.5t44.5 -18q76 -33 127 -60.5t108.5 -74t86 -110t28.5 -145.5q0 -199 -171 -313.5t-470 -114.5q-106 0 -206.5 22.5t-149.5 44.5l-48 21zM358 1587 q251 94 510 205l33 -10l74 -221l-14 -33q-266 -49 -521 -113l-39 27z" />
<glyph unicode="&#x15b;" horiz-adv-x="970" d="M27 82q33 164 39 260l231 16q0 -70 37 -106.5t102 -36.5q96 0 96 47q0 18 -11 33.5t-38.5 30t-51 24.5t-69 26.5t-69.5 26.5q-119 49 -188.5 117t-69.5 182q0 160 147.5 254.5t392.5 94.5q84 0 167 -11.5t124 -22.5l41 -11l23 -39q-33 -135 -47 -279l-213 -14l-23 14v17 q0 49 -30.5 76.5t-84.5 27.5q-41 0 -67.5 -15.5t-26.5 -41.5q0 -12 5.5 -23.5t18.5 -22t24.5 -18.5t35 -17t38.5 -15.5t46 -16.5t45 -16q61 -23 103.5 -44.5t89.5 -57.5t70.5 -87t23.5 -117q0 -158 -144.5 -246.5t-400.5 -88.5q-90 0 -176 17t-127 35l-41 17zM258 1292 q251 94 510 205l33 -10l73 -221l-14 -33q-266 -49 -520 -113l-39 27z" />
<glyph unicode="&#x15c;" horiz-adv-x="1128" d="M27 100q37 203 43 338l258 19q0 -209 180 -209q63 0 99 22.5t36 61.5q0 27 -14.5 48t-48 41.5t-61 34t-85 38t-84.5 36.5q-143 63 -228 150.5t-85 230.5q0 199 173 319t458 120q225 0 391 -58l24 -45q-39 -172 -55 -356l-237 -17l-25 17v33q0 143 -150 143 q-57 0 -93 -25.5t-36 -66.5q0 -14 4.5 -26.5t13.5 -24t18 -21.5t27.5 -20.5t31 -17.5t37 -18t39 -17.5t44 -18.5t43.5 -18q76 -33 127.5 -60.5t108.5 -74t86 -110t29 -145.5q0 -199 -171 -313.5t-470 -114.5q-106 0 -207 22.5t-149 44.5l-48 21zM229 1593q72 63 158 143.5 t135 128.5l49 48h56q180 -178 340 -320l-93 -127l-47 -14q-78 53 -229 141q-139 -80 -227 -141l-47 14z" />
<glyph unicode="&#x15d;" horiz-adv-x="970" d="M27 82q33 164 39 260l231 16q0 -70 37 -106.5t102 -36.5q96 0 96 47q0 18 -11 33.5t-38.5 30t-51 24.5t-69 26.5t-69.5 26.5q-119 49 -188.5 117t-69.5 182q0 160 147.5 254.5t392.5 94.5q84 0 167 -11.5t124 -22.5l41 -11l23 -39q-33 -135 -47 -279l-213 -14l-23 14v17 q0 49 -30.5 76.5t-84.5 27.5q-41 0 -67.5 -15.5t-26.5 -41.5q0 -12 5.5 -23.5t18.5 -22t24.5 -18.5t35 -17t38.5 -15.5t46 -16.5t45 -16q61 -23 103.5 -44.5t89.5 -57.5t70.5 -87t23.5 -117q0 -158 -144.5 -246.5t-400.5 -88.5q-90 0 -176 17t-127 35l-41 17zM141 1298 q72 63 158 143.5t135 128.5l49 48h56q180 -178 340 -320l-93 -127l-47 -14q-78 53 -229 141q-139 -80 -227 -141l-47 14z" />
<glyph unicode="&#x15e;" horiz-adv-x="1128" d="M162 100q37 203 43 338l258 19q0 -209 180 -209q63 0 99 22.5t36 61.5q0 27 -14 48t-48 41.5t-61.5 34t-85 38t-84.5 36.5q-143 63 -228 150.5t-85 230.5q0 199 173 319t458 120q225 0 391 -58l25 -45q-39 -172 -56 -356l-237 -17l-25 17v33q0 143 -149 143 q-57 0 -93 -25.5t-36 -66.5q0 -14 4 -26.5t13 -24t18.5 -21.5t28 -20.5t30.5 -17.5t36.5 -18t39 -17.5t44 -18.5t44.5 -18q76 -33 127 -60.5t108.5 -74t86 -110t28.5 -145.5q0 -199 -171 -313.5t-470 -114.5h-15l-10 -53q86 -41 153.5 -97t67.5 -118q0 -84 -88 -143.5 t-215 -59.5q-66 0 -123 30t-57 77q0 43 100 143h19q2 -55 28.5 -84.5t71.5 -29.5q66 0 66 47q0 49 -178 135l41 164q-72 10 -138.5 29.5t-96.5 33.5l-30 14z" />
<glyph unicode="&#x15f;" horiz-adv-x="970" d="M27 82q33 164 39 260l231 16q0 -70 37 -106.5t102 -36.5q96 0 96 47q0 18 -11 33.5t-38.5 30t-51 24.5t-69 26.5t-69.5 26.5q-119 49 -188.5 117t-69.5 182q0 160 147.5 254.5t392.5 94.5q84 0 167 -11.5t124 -22.5l41 -11l23 -39q-33 -135 -47 -279l-213 -14l-23 14v17 q0 49 -30.5 76.5t-84.5 27.5q-41 0 -67.5 -15.5t-26.5 -41.5q0 -12 5.5 -23.5t18.5 -22t24.5 -18.5t35 -17t38.5 -15.5t46 -16.5t45 -16q61 -23 103.5 -44.5t89.5 -57.5t70.5 -87t23.5 -117q0 -139 -112.5 -225t-315.5 -104l-14 -66q86 -41 153.5 -97t67.5 -118 q0 -84 -88 -143.5t-215 -59.5q-66 0 -123.5 30t-57.5 77q0 43 101 143h18q2 -55 29 -84.5t72 -29.5q66 0 65 47q0 49 -178 135l41 160q-88 2 -171 19t-122 34l-39 16z" />
<glyph unicode="&#x160;" horiz-adv-x="1128" d="M162 100q37 203 43 338l258 19q0 -209 180 -209q63 0 99 22.5t36 61.5q0 27 -14 48t-48 41.5t-61.5 34t-85 38t-84.5 36.5q-143 63 -228 150.5t-85 230.5q0 199 173 319t458 120q225 0 391 -58l25 -45q-39 -172 -56 -356l-237 -17l-25 17v33q0 143 -149 143 q-57 0 -93 -25.5t-36 -66.5q0 -14 4 -26.5t13 -24t18.5 -21.5t28 -20.5t30.5 -17.5t36.5 -18t39 -17.5t44 -18.5t44.5 -18q76 -33 127 -60.5t108.5 -74t86 -110t28.5 -145.5q0 -199 -171 -313.5t-470 -114.5q-106 0 -206.5 22.5t-149.5 44.5l-48 21zM199 1692l71 127l47 14 q96 -41 271 -104q106 39 268 104l47 -14l74 -127q-172 -125 -363 -283h-55q-190 158 -360 283z" />
<glyph unicode="&#x161;" horiz-adv-x="970" d="M27 82q33 164 39 260l231 16q0 -70 37 -106.5t102 -36.5q96 0 96 47q0 18 -11 33.5t-38.5 30t-51 24.5t-69 26.5t-69.5 26.5q-119 49 -188.5 117t-69.5 182q0 160 147.5 254.5t392.5 94.5q84 0 167 -11.5t124 -22.5l41 -11l23 -39q-33 -135 -47 -279l-213 -14l-23 14v17 q0 49 -30.5 76.5t-84.5 27.5q-41 0 -67.5 -15.5t-26.5 -41.5q0 -12 5.5 -23.5t18.5 -22t24.5 -18.5t35 -17t38.5 -15.5t46 -16.5t45 -16q61 -23 103.5 -44.5t89.5 -57.5t70.5 -87t23.5 -117q0 -158 -144.5 -246.5t-400.5 -88.5q-90 0 -176 17t-127 35l-41 17zM119 1397 l71 127l48 14q96 -41 270 -104q106 39 268 104l47 -14l74 -127q-172 -125 -362 -283h-56q-190 158 -360 283z" />
<glyph unicode="&#x162;" horiz-adv-x="1214" d="M0 782q14 303 16 537l27 29l244 -23h643l248 23l26 -29l10 -520l-253 -17q-16 197 -39 246t-103 49q-10 -338 -10 -749q0 -78 23.5 -110t82.5 -32l105 7l10 -13l-18 -192q-213 8 -350 12l-17 -78q86 -41 153.5 -97t67.5 -118q0 -84 -88 -143.5t-215 -59.5q-66 0 -123 30 t-57 77q0 43 100 143h19q2 -55 28.5 -84.5t71.5 -29.5q66 0 66 47q-1 49 -179 135l46 178l-351 -18l17 188q125 10 163.5 44t38.5 130v733q-82 0 -108.5 -52t-40.5 -226z" />
<glyph unicode="&#x163;" horiz-adv-x="1046" d="M12 584q10 252 13 442l22 25l211 -19h535l213 19l24 -25l6 -430l-229 -12q-12 154 -26.5 193.5t-67.5 39.5q-6 -246 -6 -549q0 -61 19 -85.5t69 -24.5l84 6l10 -10l-17 -164q-174 8 -290 10l-17 -78q86 -41 153.5 -97t67.5 -118q0 -84 -88 -143.5t-215 -59.5 q-66 0 -123 30t-57 77q0 43 100 143h19q2 -55 28.5 -84.5t71.5 -29.5q66 0 66 47q0 49 -178 135l45 178l-295 -16l12 161q102 8 136 33t34 90v549q-55 0 -72.5 -43t-29.5 -178z" />
<glyph unicode="&#x164;" horiz-adv-x="1214" d="M0 782q14 303 16 537l27 29l244 -23h643l248 23l26 -29l10 -520l-253 -17q-16 197 -39 246t-103 49q-10 -338 -10 -749q0 -78 23.5 -110t82.5 -32l105 7l10 -13l-18 -192q-299 12 -416 12l-412 -18l17 188q125 10 163.5 44t38.5 130v733q-82 0 -108.5 -52t-40.5 -226z M225 1692l72 127l47 14q96 -41 270 -104q106 39 269 104l47 -14l74 -127q-172 -125 -363 -283h-55q-190 158 -361 283z" />
<glyph unicode="&#x165;" horiz-adv-x="1046" d="M12 584q10 252 13 442l22 25l211 -19h535l213 19l24 -25l6 -430l-229 -12q-12 154 -26.5 193.5t-67.5 39.5q-6 -246 -6 -549q0 -61 19 -85.5t69 -24.5l84 6l10 -10l-17 -164q-258 10 -356 10l-356 -16l12 161q102 8 136 32.5t34 90.5v549q-55 0 -72.5 -43t-29.5 -178z M139 1397l72 127l47 14q96 -41 270 -104q106 39 269 104l47 -14l74 -127q-172 -125 -363 -283h-55q-190 158 -361 283z" />
<glyph unicode="&#x166;" horiz-adv-x="1214" d="M0 782q14 303 16 537l27 29l244 -23h643l248 23l26 -29l10 -520l-253 -17q-16 197 -39 246t-103 49q-8 -225 -10 -424l147 6l31 -30l-10 -113h-168v-188q0 -78 23.5 -110t82.5 -32l105 7l10 -13l-18 -192q-299 12 -416 12l-412 -18l17 188q125 10 163.5 44t38.5 130v172 q-158 -2 -157 -2l-23 21l17 118q78 -2 163 -2v426q-82 0 -108.5 -52t-40.5 -226z" />
<glyph unicode="&#x167;" horiz-adv-x="1046" d="M12 584q10 252 13 442l22 25l211 -19h535l213 19l24 -25l6 -430l-229 -12q-12 154 -26.5 193.5t-67.5 39.5q-6 -158 -6 -338l163 6l31 -30l-10 -113h-184v-74q0 -61 19 -85.5t69 -24.5l84 6l10 -10l-17 -164q-258 10 -356 10l-356 -16l12 161q102 8 136 32.5t34 90.5v74 l-182 -2l-23 20l17 119q90 -2 188 -2v340q-55 0 -72.5 -43t-29.5 -178z" />
<glyph unicode="&#x168;" horiz-adv-x="1284" d="M0 1149l20 182q201 -6 363 -6l274 8l-20 -190q-53 -4 -74.5 -27.5t-23.5 -73.5l-13 -591q0 -100 41 -157.5t117 -57.5q78 0 112.5 43t34.5 137l-2 618q0 63 -11 87t-42 24l-47 -4l-6 8l22 182q170 -6 246 -6l295 6l-16 -184q-63 -20 -81 -36.5t-18 -53.5v-578 q0 -250 -138 -377t-408 -127q-262 0 -383 103.5t-121 329.5v626q0 68 -11.5 89.5t-46.5 21.5l-59 -4zM274 1544v33l166 235l35 9q37 0 162 -35t154 -35q23 0 56.5 29.5t56.5 59.5l24 30h33l120 -111v-33l-166 -235l-34 -8q-37 0 -162 34.5t-154 34.5q-23 0 -57.5 -29.5 t-56.5 -59.5l-23 -29h-33z" />
<glyph unicode="&#x169;" horiz-adv-x="1081" d="M6 883l19 153q172 -4 315 -4l233 6l-18 -164q-74 -2 -78 -73l-10 -459q0 -63 28.5 -101t82 -38t78 26.5t24.5 89.5l-2 474q2 86 -41 86l-35 -2l-6 6l20 153q143 -4 205 -4l256 4l-14 -157q-49 -16 -63.5 -28.5t-14.5 -37.5v-434q0 -397 -457 -397q-225 0 -324.5 77.5 t-99.5 253.5v480q0 53 -9 69.5t-38 16.5l-47 -2zM172 1249v33l166 236l35 8q37 0 161.5 -35t153.5 -35q23 0 56.5 30t57.5 59l23 30h33l121 -111v-32l-166 -236l-35 -8q-37 0 -161.5 34.5t-153.5 34.5q-23 0 -57.5 -29.5t-57.5 -59.5l-22 -29h-33z" />
<glyph unicode="&#x16a;" horiz-adv-x="1284" d="M0 1149l20 182q201 -6 363 -6l274 8l-20 -190q-53 -4 -74.5 -27.5t-23.5 -73.5l-13 -591q0 -100 41 -157.5t117 -57.5q78 0 112.5 43t34.5 137l-2 618q0 63 -11 87t-42 24l-47 -4l-6 8l22 182q170 -6 246 -6l295 6l-16 -184q-63 -20 -81 -36.5t-18 -53.5v-578 q0 -250 -138 -377t-408 -127q-262 0 -383 103.5t-121 329.5v626q0 68 -11.5 89.5t-46.5 21.5l-59 -4zM375 1452l39 223q195 -2 315 -2l254 13l23 -37l-37 -224l-287 -2l-274 -2z" />
<glyph unicode="&#x16b;" horiz-adv-x="1081" d="M6 883l19 153q172 -4 315 -4l233 6l-18 -164q-74 -2 -78 -73l-10 -459q0 -63 28.5 -101t82 -38t78 26.5t24.5 89.5l-2 474q2 86 -41 86l-35 -2l-6 6l20 153q143 -4 205 -4l256 4l-14 -157q-49 -16 -63.5 -28.5t-14.5 -37.5v-434q0 -397 -457 -397q-225 0 -324.5 77.5 t-99.5 253.5v480q0 53 -9 69.5t-38 16.5l-47 -2zM268 1157l39 223q195 -2 316 -2l254 13l22 -37l-37 -224l-287 -2l-274 -2z" />
<glyph unicode="&#x16c;" horiz-adv-x="1284" d="M0 1149l20 182q201 -6 363 -6l274 8l-20 -190q-53 -4 -74.5 -27.5t-23.5 -73.5l-13 -591q0 -100 41 -157.5t117 -57.5q78 0 112.5 43t34.5 137l-2 618q0 63 -11 87t-42 24l-47 -4l-6 8l22 182q170 -6 246 -6l295 6l-16 -184q-63 -20 -81 -36.5t-18 -53.5v-578 q0 -250 -138 -377t-408 -127q-262 0 -383 103.5t-121 329.5v626q0 68 -11.5 89.5t-46.5 21.5l-59 -4zM317 1733l82 127l56 14q61 -143 227 -143t227 143l56 -14l82 -127q-37 -119 -128.5 -199t-236.5 -80t-236.5 80t-128.5 199z" />
<glyph unicode="&#x16d;" horiz-adv-x="1081" d="M6 883l19 153q172 -4 315 -4l233 6l-18 -164q-74 -2 -78 -73l-10 -459q0 -63 28.5 -101t82 -38t78 26.5t24.5 89.5l-2 474q2 86 -41 86l-35 -2l-6 6l20 153q143 -4 205 -4l256 4l-14 -157q-49 -16 -63.5 -28.5t-14.5 -37.5v-434q0 -397 -457 -397q-225 0 -324.5 77.5 t-99.5 253.5v480q0 53 -9 69.5t-38 16.5l-47 -2zM195 1417l81 127l56 15q61 -144 227 -144t227 144l56 -15l82 -127q-37 -119 -128 -198.5t-236.5 -79.5t-237 79.5t-127.5 198.5z" />
<glyph unicode="&#x16e;" horiz-adv-x="1284" d="M0 1149l20 182q201 -6 363 -6l274 8l-20 -190q-53 -4 -74.5 -27.5t-23.5 -73.5l-13 -591q0 -100 41 -157.5t117 -57.5q78 0 112.5 43t34.5 137l-2 618q0 63 -11 87t-42 24l-47 -4l-6 8l22 182q170 -6 246 -6l295 6l-16 -184q-63 -20 -81 -36.5t-18 -53.5v-578 q0 -250 -138 -377t-408 -127q-262 0 -383 103.5t-121 329.5v626q0 68 -11.5 89.5t-46.5 21.5l-59 -4zM465 1607.5q0 96.5 62.5 158t162.5 61.5q106 0 157.5 -57.5t51.5 -143.5q0 -94 -61.5 -161.5t-165.5 -67.5q-98 0 -152.5 57t-54.5 153.5zM606 1614q0 -39 24.5 -56.5 t55.5 -17.5q72 0 72 68q0 72 -80 71q-72 0 -72 -65z" />
<glyph unicode="&#x16f;" horiz-adv-x="1081" d="M6 883l19 153q172 -4 315 -4l233 6l-18 -164q-74 -2 -78 -73l-10 -459q0 -63 28.5 -101t82 -38t78 26.5t24.5 89.5l-2 474q2 86 -41 86l-35 -2l-6 6l20 153q143 -4 205 -4l256 4l-14 -157q-49 -16 -63.5 -28.5t-14.5 -37.5v-434q0 -397 -457 -397q-225 0 -324.5 77.5 t-99.5 253.5v480q0 53 -9 69.5t-38 16.5l-47 -2zM360 1313q0 96 61.5 157.5t164.5 61.5q106 0 157.5 -57.5t51.5 -143.5q0 -94 -62 -161.5t-166 -67.5q-98 0 -152.5 57.5t-54.5 153.5zM502 1319q0 -39 24.5 -56.5t55.5 -17.5q72 0 71 68q0 72 -80 71q-72 0 -71 -65z" />
<glyph unicode="&#x170;" horiz-adv-x="1284" d="M0 1149l20 182q201 -6 363 -6l274 8l-20 -190q-53 -4 -74.5 -27.5t-23.5 -73.5l-13 -591q0 -100 41 -157.5t117 -57.5q78 0 112.5 43t34.5 137l-2 618q0 63 -11 87t-42 24l-47 -4l-6 8l22 182q170 -6 246 -6l295 6l-16 -184q-63 -20 -81 -36.5t-18 -53.5v-578 q0 -250 -138 -377t-408 -127q-262 0 -383 103.5t-121 329.5v626q0 68 -11.5 89.5t-46.5 21.5l-59 -4zM309 1489q155 153 305 311l31 2l135 -166v-30q-182 -109 -354 -226l-39 11zM715 1489q155 153 305 311l31 2l135 -166v-30q-182 -109 -355 -226l-38 11z" />
<glyph unicode="&#x171;" horiz-adv-x="1081" d="M6 883l19 153q172 -4 315 -4l233 6l-18 -164q-74 -2 -78 -73l-10 -459q0 -63 28.5 -101t82 -38t78 26.5t24.5 89.5l-2 474q2 86 -41 86l-35 -2l-6 6l20 153q143 -4 205 -4l256 4l-14 -157q-49 -16 -63.5 -28.5t-14.5 -37.5v-434q0 -397 -457 -397q-225 0 -324.5 77.5 t-99.5 253.5v480q0 53 -9 69.5t-38 16.5l-47 -2zM182 1194q155 153 305 311l31 2l135 -166v-30q-182 -109 -354 -226l-39 11zM588 1194q155 153 305 311l31 2l135 -166v-30q-182 -109 -354 -226l-39 11z" />
<glyph unicode="&#x172;" horiz-adv-x="1284" d="M0 1149l20 182q201 -6 363 -6l274 8l-20 -190q-51 -4 -73.5 -27.5t-24.5 -73.5l-13 -591q0 -100 42 -157.5t116 -57.5q78 0 112.5 43t34.5 137l-2 618q0 63 -11 87t-42 24l-47 -4l-6 8l22 182q170 -6 246 -6l295 6l-16 -184q-63 -20 -81 -36.5t-18 -53.5v-578 q0 -211 -122 -366q-143 -186 -180.5 -246t-37.5 -105q0 -39 23 -61.5t61 -22.5q27 0 61 13.5t54 25.5l21 13l51 -80q-115 -109 -213 -146q-123 0 -193.5 49.5t-70.5 133.5q0 68 36.5 135t126.5 168q-70 -14 -163 -15q-262 0 -383 103.5t-121 329.5v626q0 68 -11.5 89.5 t-46.5 21.5l-59 -4z" />
<glyph unicode="&#x173;" horiz-adv-x="1083" d="M6 883l19 153q172 -4 315 -4l233 4l-18 -159q-78 -6 -78 -76l-10 -459q0 -66 29.5 -102.5t81.5 -36.5q55 0 78.5 26.5t23.5 89.5v476q0 47 -9 66.5t-34 19.5l-35 -4l-4 6l18 153q143 -4 207 -4l254 4l-14 -155q-51 -18 -64.5 -29.5t-13.5 -38.5v-434q0 -166 -100 -289 q-119 -154 -159 -219.5t-40 -108.5q0 -39 22.5 -61.5t61.5 -22.5q27 0 60.5 13.5t54.5 25.5l20 13l51 -80q-115 -109 -213 -146q-123 0 -193.5 49.5t-70.5 133.5q0 63 38 130.5t130 170.5q-55 -6 -119 -6q-223 0 -323.5 77.5t-100.5 253.5v482q0 53 -9 69.5t-36 16.5l-49 -4 z" />
<glyph unicode="&#x174;" horiz-adv-x="2043" d="M-10 1167l18 162q164 -4 268 -4l377 10l15 -18l-13 -172q-92 -12 -109.5 -21.5t-17.5 -48.5q0 -37 27 -219t53 -347l27 -165h43q125 504 156 684q6 40 6 55q0 39 -21.5 51.5t-93.5 12.5l-14 20l18 162q211 -4 332 -4l375 10l16 -18l-14 -172q-92 -12 -108.5 -21.5 t-16.5 -48.5l104 -731h43q162 688 162 756q0 27 -11.5 34t-49.5 7h-52l-14 20l16 170q184 -6 304 -6l241 2l-14 -178q-33 -10 -48.5 -31.5t-33.5 -81.5l-283 -1028l-542 -35l-91 584h-28l-129 -549l-543 -35q-178 815 -231 1037q-33 127 -109 137zM676 1577q172 125 362 283 h56q0 6 50 -35t145 -118t165 -130l-72 -127l-47 -14q-96 41 -270 104q-106 -39 -268 -104l-47 14z" />
<glyph unicode="&#x175;" horiz-adv-x="1740" d="M6 899l17 137q135 -4 227 -4l321 6l13 -14l-11 -147q-76 -8 -88 -15.5t-12 -36t17.5 -163t35.5 -253.5l19 -120h39q2 6 27.5 114.5t52 228.5t34.5 173l11 35q2 29 -14.5 36t-73.5 5l-13 18l17 137q180 -4 284 -4l322 6l14 -14l-12 -147q-76 -10 -87 -15.5t-11 -36.5 l69 -536h37q16 66 67.5 296t51.5 263q0 18 -7 22t-36 4h-37l-12 19l12 143q158 -4 254 -4l203 2l-11 -151q-25 -8 -36 -25.5t-27 -62.5l-219 -789l-496 -26q-27 166 -57 413h-25l-90 -387l-495 -26q-147 666 -181 792q-16 55 -33.5 80t-46.5 29zM520 1282q172 125 363 283 h55q0 6 50 -35t145.5 -118t164.5 -130l-71 -127l-47 -14q-96 41 -271 104q-106 -39 -268 -104l-47 14z" />
<glyph unicode="&#x176;" horiz-adv-x="1357" d="M0 1141l20 186q240 -4 308 -4l368 14l15 -22l-19 -168q-84 0 -84 -51q0 -16 115 -303h29l84 233q27 59 26 90q0 33 -78 33l-6 12l17 162h323l232 8l8 -16l-17 -178q-137 -78 -227 -258l-186 -373q-31 -72 -31 -191q0 -72 22.5 -100.5t79.5 -28.5l105 7l10 -13l-18 -192 q-305 12 -424 12l-412 -18l16 188q131 8 171 40t40 122v33q0 78 -57 184l-219 407q-61 113 -203 172zM360 1577q172 125 363 283h55q0 6 50.5 -35t145.5 -118t165 -130l-72 -127l-47 -14q-96 41 -270 104q-106 -39 -269 -104l-47 14z" />
<glyph unicode="&#x177;" horiz-adv-x="1183" d="M18 874l19 160q211 -4 264 -4l313 12l15 -20l-19 -143q-61 4 -61 -37q0 -8 11 -37t34.5 -80t38.5 -86h24l54 152q23 45 22 69q0 23 -59 21l-6 10l14 137q53 0 143 1t136 1l198 6l6 -12l-14 -154q-51 -31 -102.5 -86t-81.5 -112l-152 -291q-25 -55 -24 -123 q0 -55 18 -77.5t68 -22.5l88 6l8 -10l-15 -164q-268 10 -370 10l-361 -14l13 159q111 6 146.5 29t35.5 90v17q0 57 -47 137l-187 321q-43 63 -161 125zM264 1282q172 125 363 283h55q0 6 50 -35t145.5 -118t164.5 -130l-71 -127l-47 -14q-96 41 -271 104q-106 -39 -268 -104 l-47 14z" />
<glyph unicode="&#x178;" horiz-adv-x="1357" d="M0 1141l20 186q240 -4 308 -4l368 14l15 -22l-19 -168q-84 0 -84 -51q0 -16 115 -303h29l84 233q27 59 26 90q0 33 -78 33l-6 12l17 162h323l232 8l8 -16l-17 -178q-137 -78 -227 -258l-186 -373q-31 -72 -31 -191q0 -72 22.5 -100.5t79.5 -28.5l105 7l10 -13l-18 -192 q-305 12 -424 12l-412 -18l16 188q131 8 171 40t40 122v33q0 78 -57 184l-219 407q-61 113 -203 172zM381 1567q0 82 47 130t129 48q78 0 120 -43t42 -121q0 -82 -47 -130t-129 -48q-162 0 -162 164zM774 1567q0 82 47 130t129 48q78 0 120 -43t42 -121q0 -82 -47 -130 t-127 -48q-164 0 -164 164z" />
<glyph unicode="&#x179;" horiz-adv-x="1216" d="M6 104l668 1006l-158 -20q-119 -23 -151.5 -63t-36.5 -171l-258 -18q25 301 30 491l23 23l371 -23h677l52 -110q-279 -373 -682 -996l215 31q98 18 143 82.5t59 208.5l259 18q-44 -319 -48 -524l-43 -45l-878 12l-168 -20zM449 1587q251 94 509 205l33 -10l74 -221 l-14 -33q-266 -49 -521 -113l-38 27z" />
<glyph unicode="&#x17a;" horiz-adv-x="1044" d="M12 88l543 760l-109 -17q-96 -23 -119.5 -50t-25.5 -126l-233 -14q20 246 24 395l21 17l307 -17l579 2l48 -94q-260 -317 -555 -751l155 26q82 16 118 64.5t44 154.5l231 17q-35 -262 -39 -422l-36 -37l-744 8l-143 -16zM315 1292q251 94 510 205l33 -10l74 -221l-14 -33 q-266 -49 -521 -113l-39 27z" />
<glyph unicode="&#x17b;" horiz-adv-x="1216" d="M6 104l668 1006l-158 -20q-119 -23 -151.5 -63t-36.5 -171l-258 -18q25 301 30 491l23 23l371 -23h677l52 -110q-279 -373 -682 -996l215 31q98 18 143 82.5t59 208.5l259 18q-44 -319 -48 -524l-43 -45l-878 12l-168 -20zM483 1593q0 98 56.5 155.5t152.5 57.5 q90 0 140.5 -51t50.5 -143q0 -98 -55.5 -155.5t-151.5 -57.5q-94 0 -143.5 50t-49.5 144z" />
<glyph unicode="&#x17c;" horiz-adv-x="1044" d="M12 88l543 760l-109 -17q-96 -23 -119.5 -50t-25.5 -126l-233 -14q20 246 24 395l21 17l307 -17l579 2l48 -94q-260 -317 -555 -751l155 26q82 16 118 64.5t44 154.5l231 17q-35 -262 -39 -422l-36 -37l-744 8l-143 -16zM391 1298q0 98 56.5 155.5t152.5 57.5 q90 0 140.5 -51t50.5 -143q0 -98 -55.5 -155.5t-151.5 -57.5q-94 0 -143.5 50t-49.5 144z" />
<glyph unicode="&#x17d;" horiz-adv-x="1216" d="M6 104l668 1006l-158 -20q-119 -23 -151.5 -63t-36.5 -171l-258 -18q25 301 30 491l23 23l371 -23h677l52 -110q-279 -373 -682 -996l215 31q98 18 143 82.5t59 208.5l259 18q-44 -319 -48 -524l-43 -45l-878 12l-168 -20zM289 1692l71 127l48 14q96 -41 270 -104 q106 39 268 104l47 -14l74 -127q-172 -125 -362 -283h-56q-190 158 -360 283z" />
<glyph unicode="&#x17e;" horiz-adv-x="1044" d="M12 88l543 760l-109 -17q-96 -23 -119.5 -50t-25.5 -126l-233 -14q20 246 24 395l21 17l307 -17l579 2l48 -94q-260 -317 -555 -751l155 26q82 16 118 64.5t44 154.5l231 17q-35 -262 -39 -422l-36 -37l-744 8l-143 -16zM197 1397l71 127l47 14q96 -41 271 -104 q106 39 268 104l47 -14l74 -127q-172 -125 -363 -283h-55q-190 158 -360 283z" />
<glyph unicode="&#x192;" horiz-adv-x="927" d="M-49 -233q0 41 30.5 124.5t59.5 118.5h37q8 -57 41 -93t78 -36q53 0 75.5 48t22.5 165q0 70 -1 210t-1 210q-4 49 -39 66.5t-135 17.5l-6 12l16 121l170 27v28q0 84 57 170q76 113 215.5 191t278.5 78q76 0 134 -14.5t58 -32.5q0 -31 -30.5 -124t-50.5 -126l-37 -6 q-96 82 -155.5 82t-86.5 -37t-33 -123l-8 -88h233l11 -17l-21 -141h-233l-19 -395q-10 -168 -84 -295q-63 -113 -163.5 -178.5t-214.5 -65.5q-68 0 -133.5 34t-65.5 69z" />
<glyph unicode="&#x1fa;" horiz-adv-x="1384" d="M-10 -4l14 178q74 18 105 113l325 1028l539 33l31 -25q197 -789 256 -1010q18 -70 45.5 -101.5t74.5 -35.5l15 -20l-17 -162q-176 4 -288 4l-392 -10l-16 18l12 172q94 10 112.5 20.5t18.5 49.5q0 4 -4 37l-12 80q-111 4 -158 4q-31 0 -164 -11l-20 -90q-6 -35 -6 -45 q0 -27 11 -34t52 -7h54l16 -20l-16 -170q-190 6 -316 6zM420 1896q227 86 459 185l30 -8l66 -199l-12 -31q-240 -43 -469 -100l-35 24zM506 1577q0 86 55 142.5t148 56.5q94 0 140 -52.5t46 -128.5q0 -86 -55.5 -146t-147.5 -60q-88 0 -137 51t-49 137zM553 616h104 q33 0 107 5l-70 358h-45zM633 1583q0 -65 72 -65q63 0 63 59q0 66 -72 65q-63 0 -63 -59z" />
<glyph unicode="&#x1fb;" horiz-adv-x="1200" d="M8 -2l12 149q57 16 80 80l262 797l494 27l27 -23q165 -635 204 -772q27 -100 93 -106l12 -19l-14 -135q-150 2 -246 2l-336 -6l-14 14l10 148q91 11 99 22q5 7 5 31q0 2 -1 8t-1 10l-4 43q-47 2 -125 2q-16 0 -36.5 -1t-48 -3t-44.5 -2l-12 -53q-2 -14 -2 -29 q0 -18 6 -22t39 -4h37l16 -19l-14 -143q-164 4 -266 4h-232zM307 1602q227 86 459 184l31 -8l65 -199l-12 -31q-240 -43 -469 -100l-35 25zM401 1282q0 86 55.5 142.5t147.5 56.5q94 0 140.5 -52.5t46.5 -128.5q0 -86 -55.5 -146t-147.5 -60q-88 0 -137.5 51t-49.5 137z M494 487h77q49 0 80 2l-49 254h-39zM528 1288q0 -65 72 -65q63 0 64 59q0 66 -72 66q-63 0 -64 -60z" />
<glyph unicode="&#x1fc;" horiz-adv-x="1921" d="M4 174q74 18 117 113l340 800q-8 57 -53 58l-54 -4l-24 28l18 162q334 -6 680 -6q549 4 707 25l26 -33q-37 -215 -47 -408l-282 -18q4 49 4 76q0 70 -38 91t-163 21q-41 0 -55.5 -10t-14.5 -39l39 -268l150 26l207 54l34 -35l-24 -238l-197 -24l-133 -25l23 -149 q20 -137 112 -138q119 0 158 40t57 180l262 18l25 -31q-37 -199 -57 -422l-31 -32q-340 14 -657 14h-86l-351 -12l-14 18l12 172q86 8 113 25.5t27 62.5q0 35 -3 66l-10 117l-153 -27l-158 -47l-33 -109q-12 -41 -12 -53q0 -23 17.5 -27t95.5 -4l14 -20l-14 -170 q-12 6 -404 6l-164 -2zM610 664l88 8l103 18l-29 289h-45zM823 1573l383 342h35l148 -207l-5 -35q-221 -115 -432 -239l-45 14z" />
<glyph unicode="&#x1fd;" horiz-adv-x="1652" d="M20 152q66 14 97 75l262 604q-2 27 -12.5 37.5t-30.5 10.5l-43 -2l-23 24l17 135q299 -4 602 -4q457 4 598 19l24 -27q-31 -176 -38 -328l-256 -14q4 37 4 57q0 49 -31 65.5t-123 16.5q-29 0 -39 -7t-10 -30l29 -180l114 23l174 45l31 -31l-20 -203l-164 -22l-101 -21 l15 -88q16 -106 86 -106q88 0 117.5 31.5t43.5 134.5l238 16l23 -27q-31 -160 -50 -340l-26 -26q-283 10 -557 10h-74l-297 -8l-12 14l12 148q66 6 87.5 19t21.5 46v41l-7 72l-122 -23l-127 -39l-15 -61q-8 -23 -8 -35q0 -14 9.5 -16t51.5 -3q19 0 31 1l2 -19l-12 -143 q-8 4 -348 4h-139zM541 520l63 6l80 15l-20 202h-39zM647 1278l383 342h35l147 -207l-4 -35q-221 -115 -432 -239l-45 14z" />
<glyph unicode="&#x1fe;" horiz-adv-x="1341" d="M31 639q0 344 172 527.5t497 183.5q154 0 271 -43l155 233l199 -110l4 -27l-158 -234q139 -164 140 -473q0 -346 -174 -533.5t-496 -187.5q-133 0 -242 35l-163 -250l-195 113l-8 21l162 243q-164 170 -164 502zM399 1614q251 94 510 205l33 -11l74 -221l-15 -33 q-266 -49 -520 -112l-39 26zM500 739q0 -281 40 -393.5t140 -112.5q88 0 125 77t37 257q0 281 -41 391.5t-144 110.5q-86 0 -121.5 -74.5t-35.5 -255.5z" />
<glyph unicode="&#x1ff;" horiz-adv-x="1134" d="M-8 -66l153 199q-111 132 -110 369q0 549 555 549q111 0 207 -27l149 203l197 -113l2 -22l-146 -197q100 -125 101 -354q0 -272 -142.5 -415.5t-412.5 -143.5q-113 0 -199 24l-156 -205l-192 117zM285 1341q251 94 510 205l32 -10l74 -221l-14 -33q-266 -49 -520 -113 l-39 27zM457 584q0 -223 23 -302t95 -79q59 0 81 49t22 182q0 223 -23.5 300t-97.5 77q-59 0 -79.5 -47t-20.5 -180z" />
<glyph unicode="&#x218;" horiz-adv-x="1128" d="M162 100q37 203 43 338l258 19q0 -209 180 -209q63 0 99 22.5t36 61.5q0 27 -14 48t-48 41.5t-61.5 34t-85 38t-84.5 36.5q-143 63 -228 150.5t-85 230.5q0 199 173 319t458 120q225 0 391 -58l25 -45q-39 -172 -56 -356l-237 -17l-25 17v33q0 143 -149 143 q-57 0 -93 -25.5t-36 -66.5q0 -14 4 -26.5t13 -24t18.5 -21.5t28 -20.5t30.5 -17.5t36.5 -18t39 -17.5t44 -18.5t44.5 -18q76 -33 127 -60.5t108.5 -74t86 -110t28.5 -145.5q0 -199 -171 -313.5t-470 -114.5q-106 0 -206.5 22.5t-149.5 44.5l-48 21zM242 -561 q59 43 95 102.5t36 114.5q-1 90 -60 156l6 28q117 90 209 90q78 0 126 -56t48 -150q0 -109 -92 -224.5t-250 -206.5l-118 95v51z" />
<glyph unicode="&#x219;" horiz-adv-x="970" d="M27 82q33 164 39 260l231 16q0 -70 37 -106.5t102 -36.5q96 0 96 47q0 18 -11 33.5t-38.5 30t-51 24.5t-69 26.5t-69.5 26.5q-119 49 -188.5 117t-69.5 182q0 160 147.5 254.5t392.5 94.5q84 0 167 -11.5t124 -22.5l41 -11l23 -39q-33 -135 -47 -279l-213 -14l-23 14v17 q0 49 -30.5 76.5t-84.5 27.5q-41 0 -67.5 -15.5t-26.5 -41.5q0 -12 5.5 -23.5t18.5 -22t24.5 -18.5t35 -17t38.5 -15.5t46 -16.5t45 -16q61 -23 103.5 -44.5t89.5 -57.5t70.5 -87t23.5 -117q0 -158 -144.5 -246.5t-400.5 -88.5q-90 0 -176 17t-127 35l-41 17zM184 -561 q59 43 95 102.5t36 114.5q0 90 -59 156l6 28q117 90 209 90q78 0 126 -56t48 -150q0 -109 -92 -224.5t-250 -206.5l-119 95v51z" />
<glyph unicode="&#x21a;" horiz-adv-x="1214" d="M0 782q14 303 16 537l27 29l244 -23h643l248 23l26 -29l10 -520l-253 -17q-16 197 -39 246t-103 49q-10 -338 -10 -749q0 -78 23.5 -110t82.5 -32l105 7l10 -13l-18 -192q-299 12 -416 12l-412 -18l17 188q125 10 163.5 44t38.5 130v733q-82 0 -108.5 -52t-40.5 -226z M322 -561q59 43 95 102.5t36 114.5q-1 90 -60 156l6 28q117 90 209 90q78 0 126 -56t48 -150q0 -109 -92 -224.5t-250 -206.5l-118 95v51z" />
<glyph unicode="&#x21b;" horiz-adv-x="1046" d="M12 584q10 252 13 442l22 25l211 -19h535l213 19l24 -25l6 -430l-229 -12q-12 154 -26.5 193.5t-67.5 39.5q-6 -246 -6 -549q0 -61 19 -85.5t69 -24.5l84 6l10 -10l-17 -164q-258 10 -356 10l-356 -16l12 161q102 8 136 32.5t34 90.5v549q-55 0 -72.5 -43t-29.5 -178z M254 -561q59 43 95 102.5t36 114.5q0 90 -59 156l6 28q117 90 209 90q78 0 126 -56t48 -150q0 -109 -92.5 -224.5t-249.5 -206.5l-119 95v51z" />
<glyph unicode="&#x237;" horiz-adv-x="608" d="M0 -186l2 26q84 78 110.5 148.5t26.5 226.5v584q0 49 -10 65.5t-43 16.5l-59 -4l-17 26l15 129l245 2l340 10l-14 -161q-49 -10 -61.5 -24.5t-16.5 -57.5q-20 -291 -20 -674q0 -152 -101.5 -247t-324.5 -146z" />
<glyph unicode="&#x2c6;" d="M37 1237q72 63 158 143t135 128l49 48h55q180 -178 340 -319l-92 -127l-47 -14q-78 53 -229 141q-139 -80 -228 -141l-47 14z" />
<glyph unicode="&#x2c7;" d="M37 1374l92 127l47 15q78 -53 230 -142q139 80 227 142l47 -15l94 -127q-72 -63 -158 -143t-135 -128l-49 -48h-55q-180 178 -340 319z" />
<glyph unicode="&#x2d8;" d="M43 1374l82 127l55 15q62 -144 227.5 -144t227.5 144l55 -15l82 -127q-37 -119 -128 -198.5t-236.5 -79.5t-236.5 79.5t-128 198.5z" />
<glyph unicode="&#x2d9;" d="M207 1307q0 98 56 155.5t153 57.5q90 0 140 -51.5t50 -143.5q0 -98 -55.5 -155.5t-151.5 -57.5q-94 0 -143 50t-49 145z" />
<glyph unicode="&#x2da;" d="M190 1321q0 96 62.5 157.5t163.5 61.5q106 0 157.5 -57.5t51.5 -143.5q0 -94 -62 -161.5t-166 -67.5q-98 0 -152.5 57.5t-54.5 153.5zM332 1327q0 -39 24.5 -56.5t55.5 -17.5q72 0 71 68q0 72 -80 72q-72 0 -71 -66z" />
<glyph unicode="&#x2db;" d="M158 -313q0 78 57 164t207 235h137q-117 -152 -155.5 -215.5t-38.5 -108.5q0 -39 22.5 -61.5t61.5 -22.5q27 0 60.5 13.5t53.5 25.5l21 13l51 -80q-115 -109 -213 -146q-123 0 -193.5 49.5t-70.5 133.5z" />
<glyph unicode="&#x2dc;" d="M4 1186v33l166 235l35 8q37 0 162 -34.5t153 -34.5q23 0 56.5 29.5t57.5 59.5l23 29h33l121 -110v-33l-166 -235l-35 -9q-37 0 -161.5 35t-153.5 35q-23 0 -57.5 -29.5t-57.5 -59.5l-22 -30h-33z" />
<glyph unicode="&#x2dd;" d="M43 1159l221 375l29 10l172 -129l6 -29q-150 -150 -289 -305h-39zM377 1159l221 375l29 10l172 -129l6 -29q-150 -150 -289 -305h-39z" />
<glyph unicode="&#x323;" horiz-adv-x="487" d="M43 -281q0 98 56.5 155.5t152.5 57.5q90 0 140 -51t50 -143q0 -98 -55 -155.5t-151 -57.5q-94 0 -143.5 50t-49.5 144z" />
<glyph unicode="&#x394;" horiz-adv-x="1382" d="M25 27l409 1288l543 35h20q164 -737 361 -1336l-19 -14h-1290zM465 279h366l-137 739h-47z" />
<glyph unicode="&#x2206;" horiz-adv-x="1382" d="M25 27l409 1288l543 35h20q164 -737 361 -1336l-19 -14h-1290zM465 279h366l-137 739h-47z" />
<glyph unicode="&#x3a9;" horiz-adv-x="1771" d="M10 504l215 18q8 -147 45 -214.5t115 -78.5l109 -18q-242 233 -242 541q0 264 181 431t468 167q285 0 458 -148.5t173 -390.5q0 -356 -264 -602l118 20q70 10 107 74t51 201l217 18q-6 -295 -6 -483l-43 -45l-594 12l-147 -20l-56 166q92 82 120 178t28 336 q0 223 -34 313t-128 90q-92 0 -136 -71.5t-44 -237.5q0 -266 30.5 -397.5t112.5 -210.5l-53 -166l-147 20l-605 -12l-43 45z" />
<glyph unicode="&#x2126;" horiz-adv-x="1771" d="M10 504l215 18q8 -147 45 -214.5t115 -78.5l109 -18q-242 233 -242 541q0 264 181 431t468 167q285 0 458 -148.5t173 -390.5q0 -356 -264 -602l118 20q70 10 107 74t51 201l217 18q-6 -295 -6 -483l-43 -45l-594 12l-147 -20l-56 166q92 82 120 178t28 336 q0 223 -34 313t-128 90q-92 0 -136 -71.5t-44 -237.5q0 -266 30.5 -397.5t112.5 -210.5l-53 -166l-147 20l-605 -12l-43 45z" />
<glyph unicode="&#x3c0;" horiz-adv-x="1316" d="M-61 848l4 18l184 154l31 14q131 0 394 -10t310 -10q76 0 181.5 5t173.5 10l67 5l12 -14l-32 -197l-15 -14q-100 0 -132 -20.5t-42 -92.5q-14 -90 -14 -276q0 -90 27.5 -117t123.5 -27l31 -49q0 -35 -107.5 -143.5t-142.5 -108.5q-145 0 -212.5 64.5t-67.5 204.5l2 469 q0 53 -13.5 71.5t-54.5 18.5t-53 -12.5t-14 -63.5q-4 -279 -5 -637l5 -194l-23 -31l-340 -58l-20 35q8 25 16 312.5t8 527.5q0 55 -9 74.5t-33.5 19.5t-60.5 -17.5t-61 -33.5l-24 -16l-21 -2z" />
<glyph unicode="&#x1e80;" horiz-adv-x="2043" d="M-10 1167l18 162q164 -4 268 -4l377 10l15 -18l-13 -172q-92 -12 -109.5 -21.5t-17.5 -48.5q0 -37 27 -219t53 -347l27 -165h43q125 504 156 684q6 40 6 55q0 39 -21.5 51.5t-93.5 12.5l-14 20l18 162q211 -4 332 -4l375 10l16 -18l-14 -172q-92 -12 -108.5 -21.5 t-16.5 -48.5l104 -731h43q162 688 162 756q0 27 -11.5 34t-49.5 7h-52l-14 20l16 170q184 -6 304 -6l241 2l-14 -178q-33 -10 -48.5 -31.5t-33.5 -81.5l-283 -1028l-542 -35l-91 584h-28l-129 -549l-543 -35q-178 815 -231 1037q-33 127 -109 137zM686 1561l74 221l33 10 q258 -111 510 -205l-43 -145l-39 -27q-113 29 -243 56.5t-204 41.5l-74 15z" />
<glyph unicode="&#x1e81;" horiz-adv-x="1740" d="M6 899l17 137q135 -4 227 -4l321 6l13 -14l-11 -147q-76 -8 -88 -15.5t-12 -36t17.5 -163t35.5 -253.5l19 -120h39q2 6 27.5 114.5t52 228.5t34.5 173l11 35q2 29 -14.5 36t-73.5 5l-13 18l17 137q180 -4 284 -4l322 6l14 -14l-12 -147q-76 -10 -87 -15.5t-11 -36.5 l69 -536h37q16 66 67.5 296t51.5 263q0 18 -7 22t-36 4h-37l-12 19l12 143q158 -4 254 -4l203 2l-11 -151q-25 -8 -36 -25.5t-27 -62.5l-219 -789l-496 -26q-27 166 -57 413h-25l-90 -387l-495 -26q-147 666 -181 792q-16 55 -33.5 80t-46.5 29zM549 1266l74 221l32 10 q258 -111 510 -205l-43 -145l-39 -27q-113 29 -242.5 56.5t-203.5 42.5l-74 14z" />
<glyph unicode="&#x1e82;" horiz-adv-x="2043" d="M-10 1167l18 162q164 -4 268 -4l377 10l15 -18l-13 -172q-92 -12 -109.5 -21.5t-17.5 -48.5q0 -37 27 -219t53 -347l27 -165h43q125 504 156 684q6 40 6 55q0 39 -21.5 51.5t-93.5 12.5l-14 20l18 162q211 -4 332 -4l375 10l16 -18l-14 -172q-92 -12 -108.5 -21.5 t-16.5 -48.5l104 -731h43q162 688 162 756q0 27 -11.5 34t-49.5 7h-52l-14 20l16 170q184 -6 304 -6l241 2l-14 -178q-33 -10 -48.5 -31.5t-33.5 -81.5l-283 -1028l-542 -35l-91 584h-28l-129 -549l-543 -35q-178 815 -231 1037q-33 127 -109 137zM831 1587q251 94 510 205 l33 -10l74 -221l-14 -33q-266 -49 -521 -113l-39 27z" />
<glyph unicode="&#x1e83;" horiz-adv-x="1740" d="M6 899l17 137q135 -4 227 -4l321 6l13 -14l-11 -147q-76 -8 -88 -15.5t-12 -36t17.5 -163t35.5 -253.5l19 -120h39q2 6 27.5 114.5t52 228.5t34.5 173l11 35q2 29 -14.5 36t-73.5 5l-13 18l17 137q180 -4 284 -4l322 6l14 -14l-12 -147q-76 -10 -87 -15.5t-11 -36.5 l69 -536h37q16 66 67.5 296t51.5 263q0 18 -7 22t-36 4h-37l-12 19l12 143q158 -4 254 -4l203 2l-11 -151q-25 -8 -36 -25.5t-27 -62.5l-219 -789l-496 -26q-27 166 -57 413h-25l-90 -387l-495 -26q-147 666 -181 792q-16 55 -33.5 80t-46.5 29zM655 1292q251 94 510 205 l33 -10l74 -221l-15 -33q-266 -49 -520 -113l-39 27z" />
<glyph unicode="&#x1e84;" horiz-adv-x="2043" d="M-10 1167l18 162q164 -4 268 -4l377 10l15 -18l-13 -172q-92 -12 -109.5 -21.5t-17.5 -48.5q0 -37 27 -219t53 -347l27 -165h43q125 504 156 684q6 40 6 55q0 39 -21.5 51.5t-93.5 12.5l-14 20l18 162q211 -4 332 -4l375 10l16 -18l-14 -172q-92 -12 -108.5 -21.5 t-16.5 -48.5l104 -731h43q162 688 162 756q0 27 -11.5 34t-49.5 7h-52l-14 20l16 170q184 -6 304 -6l241 2l-14 -178q-33 -10 -48.5 -31.5t-33.5 -81.5l-283 -1028l-542 -35l-91 584h-28l-129 -549l-543 -35q-178 815 -231 1037q-33 127 -109 137zM696 1567q0 82 47.5 130 t128.5 48q78 0 120 -43t42 -121q0 -82 -47 -130t-129 -48q-162 0 -162 164zM1090 1567q0 82 47 130t129 48q78 0 119.5 -43t41.5 -121q0 -82 -47 -130t-127 -48q-164 0 -163 164z" />
<glyph unicode="&#x1e85;" horiz-adv-x="1740" d="M6 899l17 137q135 -4 227 -4l321 6l13 -14l-11 -147q-76 -8 -88 -15.5t-12 -36t17.5 -163t35.5 -253.5l19 -120h39q2 6 27.5 114.5t52 228.5t34.5 173l11 35q2 29 -14.5 36t-73.5 5l-13 18l17 137q180 -4 284 -4l322 6l14 -14l-12 -147q-76 -10 -87 -15.5t-11 -36.5 l69 -536h37q16 66 67.5 296t51.5 263q0 18 -7 22t-36 4h-37l-12 19l12 143q158 -4 254 -4l203 2l-11 -151q-25 -8 -36 -25.5t-27 -62.5l-219 -789l-496 -26q-27 166 -57 413h-25l-90 -387l-495 -26q-147 666 -181 792q-16 55 -33.5 80t-46.5 29zM541 1272q0 82 47 130 t129 48q78 0 120 -43t42 -121q0 -82 -47.5 -130t-129.5 -48q-162 0 -161 164zM934 1272q0 82 47 130t129 48q78 0 120 -43t42 -121q0 -82 -47 -130t-127 -48q-164 0 -164 164z" />
<glyph unicode="&#x1ef2;" horiz-adv-x="1357" d="M0 1141l20 186q240 -4 308 -4l368 14l15 -22l-19 -168q-84 0 -84 -51q0 -16 115 -303h29l84 233q27 59 26 90q0 33 -78 33l-6 12l17 162h323l232 8l8 -16l-17 -178q-137 -78 -227 -258l-186 -373q-31 -72 -31 -191q0 -72 22.5 -100.5t79.5 -28.5l105 7l10 -13l-18 -192 q-305 12 -424 12l-412 -18l16 188q131 8 171 40t40 122v33q0 78 -57 184l-219 407q-61 113 -203 172zM371 1561l73 221l33 10q258 -111 510 -205l-43 -145l-39 -27q-113 29 -243 56.5t-203 41.5l-74 15z" />
<glyph unicode="&#x1ef3;" horiz-adv-x="1183" d="M18 874l19 160q211 -4 264 -4l313 12l15 -20l-19 -143q-61 4 -61 -37q0 -8 11 -37t34.5 -80t38.5 -86h24l54 152q23 45 22 69q0 23 -59 21l-6 10l14 137q53 0 143 1t136 1l198 6l6 -12l-14 -154q-51 -31 -102.5 -86t-81.5 -112l-152 -291q-25 -55 -24 -123 q0 -55 18 -77.5t68 -22.5l88 6l8 -10l-15 -164q-268 10 -370 10l-361 -14l13 159q111 6 146.5 29t35.5 90v17q0 57 -47 137l-187 321q-43 63 -161 125zM293 1266l74 221l32 10q258 -111 510 -205l-43 -145l-39 -27q-113 29 -242.5 56.5t-203.5 42.5l-74 14z" />
<glyph unicode="&#x2000;" horiz-adv-x="1040" />
<glyph unicode="&#x2001;" horiz-adv-x="2081" />
<glyph unicode="&#x2002;" horiz-adv-x="1040" />
<glyph unicode="&#x2003;" horiz-adv-x="2081" />
<glyph unicode="&#x2004;" horiz-adv-x="693" />
<glyph unicode="&#x2005;" horiz-adv-x="520" />
<glyph unicode="&#x2006;" horiz-adv-x="346" />
<glyph unicode="&#x2007;" horiz-adv-x="346" />
<glyph unicode="&#x2008;" horiz-adv-x="260" />
<glyph unicode="&#x2009;" horiz-adv-x="416" />
<glyph unicode="&#x200a;" horiz-adv-x="115" />
<glyph unicode="&#x2010;" horiz-adv-x="663" d="M68 397l20 217l313 35l170 23l25 -37l-27 -221l-475 -54z" />
<glyph unicode="&#x2011;" horiz-adv-x="663" d="M68 397l20 217l313 35l170 23l25 -37l-27 -221l-475 -54z" />
<glyph unicode="&#x2012;" horiz-adv-x="663" d="M68 397l20 217l313 35l170 23l25 -37l-27 -221l-475 -54z" />
<glyph unicode="&#x2013;" horiz-adv-x="917" d="M-25 444l23 215h747l179 5l20 -39l-29 -217q-154 0 -459.5 -1t-457.5 -1z" />
<glyph unicode="&#x2014;" horiz-adv-x="1699" d="M-25 444l23 215h833q832 1 875 5l20 -39l-28 -217q-285 0 -851 -1t-849 -1z" />
<glyph unicode="&#x2018;" horiz-adv-x="538" d="M57 920q0 109 92.5 224.5t249.5 205.5l119 -95v-51q-59 -43 -95 -102.5t-36 -114.5q0 -90 59 -156l-6 -28q-117 -90 -209 -90q-78 0 -126 56t-48 151z" />
<glyph unicode="&#x2019;" horiz-adv-x="538" d="M20 807v51q59 41 95.5 100.5t36.5 116.5q-1 90 -60 156l6 29q117 90 209 90q78 0 126 -56.5t48 -150.5q0 -109 -92 -224.5t-250 -205.5z" />
<glyph unicode="&#x201a;" horiz-adv-x="487" d="M-16 -104q59 43 95 102t36 115q-1 89 -60 155l6 29q117 90 209 90q78 0 126 -56.5t48 -150.5q0 -109 -92 -224.5t-250 -205.5l-118 94v52z" />
<glyph unicode="&#x201c;" horiz-adv-x="978" d="M57 920q0 109 92.5 224.5t249.5 205.5l119 -95v-51q-59 -43 -95 -102.5t-36 -114.5q0 -90 59 -156l-6 -28q-117 -90 -209 -90q-78 0 -126 56t-48 151zM498 920q0 109 92 224.5t250 205.5l118 -95v-51q-59 -43 -95 -102.5t-36 -114.5q1 -90 60 -156l-6 -28 q-117 -90 -209 -90q-78 0 -126 56t-48 151z" />
<glyph unicode="&#x201d;" horiz-adv-x="978" d="M20 807v51q59 41 95.5 100.5t36.5 116.5q-1 90 -60 156l6 29q117 90 209 90q78 0 126 -56.5t48 -150.5q0 -109 -92 -224.5t-250 -205.5zM461 807v51q59 41 95 100.5t36 116.5q-1 90 -60 156l7 29q117 90 209 90q78 0 126 -56.5t48 -150.5q0 -109 -92.5 -224.5 t-249.5 -205.5z" />
<glyph unicode="&#x201e;" horiz-adv-x="915" d="M-16 -104q59 43 95 102t36 115q-1 89 -60 155l6 29q117 90 209 90q78 0 126 -56.5t48 -150.5q0 -109 -92 -224.5t-250 -205.5l-118 94v52zM412 -104q59 43 95 102t36 115q-1 89 -60 155l6 29q117 90 209 90q78 0 126 -56.5t48 -150.5q0 -109 -92 -224.5t-250 -205.5 l-118 94v52z" />
<glyph unicode="&#x2020;" horiz-adv-x="1095" d="M78 643l22 234l312 -3v326l247 14l29 -20l-6 -320l315 11l21 -29l-23 -231h-317l2 -799l-250 -14l-20 18l2 793h-316z" />
<glyph unicode="&#x2021;" horiz-adv-x="1095" d="M78 158l22 233l310 -2l2 246h-316l-18 20l22 234l312 -2v313l247 14l29 -20l-6 -307l315 10l21 -29l-23 -231h-317v-248l319 10l21 -28l-23 -232h-317l2 -313l-250 -14l-20 18v307h-314z" />
<glyph unicode="&#x2022;" horiz-adv-x="696" d="M82 483q0 131 73.5 207t204.5 76q121 0 186.5 -67.5t65.5 -190.5q0 -133 -73.5 -209t-200.5 -76q-125 0 -190.5 66.5t-65.5 193.5z" />
<glyph unicode="&#x2024;" horiz-adv-x="487" d="M43 176q0 98 56.5 155.5t152.5 57.5q90 0 140 -51t50 -143q0 -98 -55 -155.5t-151 -57.5q-94 0 -143.5 50t-49.5 144z" />
<glyph unicode="&#x2025;" horiz-adv-x="958" d="M43 176q0 98 56.5 155.5t152.5 57.5q90 0 140 -51t50 -143q0 -98 -55 -155.5t-151 -57.5q-94 0 -143.5 50t-49.5 144zM514 176q0 98 56.5 155.5t152.5 57.5q90 0 140 -51t50 -143q0 -98 -55 -155.5t-151 -57.5q-94 0 -143.5 50t-49.5 144z" />
<glyph unicode="&#x2026;" horiz-adv-x="1429" d="M43 176q0 98 56.5 155.5t152.5 57.5q90 0 140 -51t50 -143q0 -98 -55 -155.5t-151 -57.5q-94 0 -143.5 50t-49.5 144zM514 176q0 98 56.5 155.5t152.5 57.5q90 0 140 -51t50 -143q0 -98 -55 -155.5t-151 -57.5q-94 0 -143.5 50t-49.5 144zM985 176q0 98 56.5 155.5 t152.5 57.5q90 0 140 -51t50 -143q0 -98 -55 -155.5t-151 -57.5q-94 0 -143.5 50t-49.5 144z" />
<glyph unicode="&#x202f;" horiz-adv-x="416" />
<glyph unicode="&#x2030;" horiz-adv-x="2244" d="M0 954q0 193 92 294.5t248 101.5q143 0 223 -90.5t80 -270.5q0 -193 -90 -294t-246 -101q-143 0 -225 90t-82 270zM164 -80q227 328 397 598l547 873l178 -66l21 -49q-367 -567 -553 -852l-387 -610l-191 71zM164 973q0 -96 164 -96q150 0 149 86q0 96 -166 96 q-78 0 -112.5 -20.5t-34.5 -65.5zM909 336q0 193 92.5 294t247.5 101q143 0 223 -90t80 -270q0 -193 -89.5 -294.5t-245.5 -101.5q-143 0 -225.5 90.5t-82.5 270.5zM1073 354q0 -96 164 -96q150 0 149 86q0 96 -165 96q-78 0 -113 -20.5t-35 -65.5zM1602 336q0 193 92 294 t248 101q143 0 223 -90t80 -270q0 -193 -90 -294.5t-246 -101.5q-143 0 -225 90.5t-82 270.5zM1765 354q0 -96 164 -96q150 0 150 86q0 96 -166 96q-78 0 -113 -20.5t-35 -65.5z" />
<glyph unicode="&#x2039;" horiz-adv-x="552" d="M20 449v55q179 190 320 360l127 -71l14 -48q-37 -61 -141 -270q86 -172 141 -268l-14 -47l-127 -74q-141 172 -320 363z" />
<glyph unicode="&#x203a;" horiz-adv-x="552" d="M72 205q37 61 141 270q-86 172 -141 268l14 48l127 73q141 -172 319 -362v-56q-178 -190 -319 -360l-127 72z" />
<glyph unicode="&#x2044;" horiz-adv-x="382" d="M-408 -80q227 328 398 598l547 873l178 -66l20 -49q-367 -567 -553 -852l-387 -610l-190 71z" />
<glyph unicode="&#x205f;" horiz-adv-x="520" />
<glyph unicode="&#x2070;" horiz-adv-x="727" d="M53 1053q0 211 85 324.5t243 113.5q293 0 293 -404q0 -211 -83 -322.5t-241 -111.5q-297 0 -297 400zM231 1069q0 -74 34 -106.5t106 -32.5q70 0 97.5 29.5t27.5 103.5q0 76 -34 109.5t-108 33.5q-66 0 -94.5 -30.5t-28.5 -106.5z" />
<glyph unicode="&#x2074;" horiz-adv-x="747" d="M16 844l2 147l347 496l14 4l217 -18v-457h92l17 -21l-17 -166l-90 2l8 -145l-18 -16l-248 -17l-14 17q6 82 8 170zM215 1016h121v166h-17z" />
<glyph unicode="&#x2075;" horiz-adv-x="659" d="M20 848l35 35q57 -27 133 -27q57 0 92 18.5t35 47.5q0 31 -50 48t-173 31l-12 17l26 422l11 10l299 8q70 0 88 55l119 7l-41 -256l-29 -29q-123 10 -262 10l-4 -53q176 -33 249.5 -91.5t73.5 -160.5q0 -113 -135 -200t-307 -87q-74 0 -105.5 43t-42.5 152z" />
<glyph unicode="&#x2076;" horiz-adv-x="712" d="M37 963q0 117 53 214t129 153t153 94t130 53l53 14l20 -8l46 -121q-150 -51 -252 -172l8 -16q45 10 72 22q106 0 168.5 -64.5t62.5 -179.5q0 -141 -90 -220t-250 -79q-139 0 -221 83t-82 227zM289 946q0 -119 69 -119q37 0 52.5 20.5t15.5 67.5q0 105 -61 105 q-45 0 -74 -19q0 -10 -1 -28.5t-1 -26.5z" />
<glyph unicode="&#x2077;" horiz-adv-x="655" d="M29 1135q23 188 28 340l11 6q84 -6 172 -6h317l86 -103q-129 -276 -223 -510l-55 -207h-43l-187 56l-16 39l266 516l-117 -13q-61 -8 -81.5 -26.5t-30.5 -83.5z" />
<glyph unicode="&#x2078;" horiz-adv-x="708" d="M41 860q0 121 125 170q-115 88 -115 217q0 104 92.5 174t229.5 70q117 0 196.5 -59.5t79.5 -143.5q0 -111 -110 -168q119 -74 118 -196q0 -117 -93 -194t-232 -77q-127 0 -209 59.5t-82 147.5zM264 899q0 -39 21.5 -62.5t56.5 -23.5q63 0 64 53q0 37 -114 91q-9 5 -16 8 q-12 -25 -12 -66zM301 1270q0 -27 26.5 -45.5t80.5 -40.5q18 37 18 69q0 66 -66 66q-59 0 -59 -49z" />
<glyph unicode="&#x2079;" horiz-adv-x="712" d="M33 1190q0 141 91 221t249 80q139 0 221 -83t82 -226q0 -117 -53.5 -214.5t-129 -153.5t-152.5 -95t-130 -53l-53 -15l-21 11l-45 120q147 49 252 172l-8 17q-68 -23 -72 -25q-106 0 -168.5 64.5t-62.5 179.5zM287 1227q0 -105 61 -105q35 0 72 19q4 37 4 55 q0 121 -70 121q-37 0 -52 -20.5t-15 -69.5z" />
<glyph unicode="&#x207f;" horiz-adv-x="862" d="M27 1174l12 110l350 53l19 -16q-12 -55 -19 -102l12 -7q117 125 146 125q240 0 239 -178q0 -33 -16 -164t-16 -157q0 -47 37 -47l32 2l4 -7l-16 -122q-135 6 -190 6l-177 -2l13 127q43 6 45 59l2 184q2 49 -9.5 67.5t-43.5 18.5q-18 0 -50 -22q-18 -240 -18 -266 q0 -23 6 -31t27 -8h18l4 -6l-16 -127q-119 6 -178 6l-209 -6l18 127q41 2 56.5 16t15.5 53v225q0 49 -13.5 63.5t-54.5 14.5h-24z" />
<glyph unicode="&#x2080;" horiz-adv-x="727" d="M53 137q0 211 85 324.5t243 113.5q293 0 293 -403q0 -211 -83 -322.5t-241 -111.5q-297 0 -297 399zM231 154q0 -74 34 -107t106 -33q70 0 97.5 30t27.5 103q0 76 -34 110t-108 34q-66 0 -94.5 -31t-28.5 -106z" />
<glyph unicode="&#x2081;" horiz-adv-x="579" d="M25 416l10 108q33 2 65.5 6.5t69.5 8.5t55 6q37 4 77 8t69.5 8t55.5 7t40 5l14 2l25 -65q-39 -28 -57 -96q-18 -66 -19 -443q0 -88 53 -88l60 2l6 -8l-21 -131q-147 8 -223 8l-274 -14l12 119q125 12 125 90v377q0 47 -12.5 62t-53.5 15l-65 -2z" />
<glyph unicode="&#x2082;" horiz-adv-x="772" d="M39 -104l192 198q119 127 117 185q0 55 -65 55q-80 0 -164 -90h-27l-37 176q61 72 144.5 113.5t167.5 41.5q123 0 199.5 -57t76.5 -151.5t-55.5 -184.5t-196.5 -227l6 -12h64q53 0 76.5 27.5t27.5 97.5l178 12q-31 -190 -36 -316l-27 -26q-336 16 -485 16l-142 -8z" />
<glyph unicode="&#x2083;" horiz-adv-x="673" d="M27 -68l34 35q59 -27 132 -26q133 0 133 71q0 57 -150 58l-18 22l-17 135l92 17q76 29 76 94q0 45 -55 45q-59 0 -145 -55h-23l-49 151q66 45 150.5 70.5t150.5 25.5q111 0 178.5 -46t67.5 -121q0 -63 -43 -111.5t-115 -69.5v-16q106 -37 154.5 -86t48.5 -121 q0 -104 -138.5 -185t-316.5 -81q-74 0 -105.5 42.5t-41.5 151.5z" />
<glyph unicode="&#x2084;" horiz-adv-x="747" d="M16 -72l2 148l347 495l14 4l217 -18v-457h92l17 -20l-17 -166l-90 2l8 -145l-18 -17l-248 -16l-14 16q6 82 8 170zM215 100h121v166h-17z" />
<glyph unicode="&#x2085;" horiz-adv-x="659" d="M20 -68l35 35q57 -27 133 -26q57 0 92 18t35 47q0 31 -50 48.5t-173 31.5l-12 16l26 422l11 11l299 8q70 0 88 55l119 6l-41 -256l-29 -29q-123 10 -262 11l-4 -54q176 -33 249.5 -91t73.5 -160q0 -113 -135 -200t-307 -87q-74 0 -105.5 43t-42.5 151z" />
<glyph unicode="&#x2086;" horiz-adv-x="712" d="M37 47q0 117 53 214t129 153.5t153 94.5t130 52l53 14l20 -8l46 -121q-150 -51 -252 -172l8 -16q45 10 72 23q106 0 168.5 -64.5t62.5 -179.5q0 -141 -90 -220t-250 -79q-139 0 -221 83t-82 226zM289 31q0 -119 69 -119q37 0 52.5 20.5t15.5 67.5q0 104 -61 104 q-45 0 -74 -18q0 -8 -1 -26.5t-1 -28.5z" />
<glyph unicode="&#x2087;" horiz-adv-x="655" d="M29 219q23 188 28 340l11 6q84 -6 172 -6h317l86 -102q-129 -276 -223 -510l-55 -207h-43l-187 55l-16 39l266 516l-117 -12q-61 -8 -81.5 -26.5t-30.5 -84.5z" />
<glyph unicode="&#x2088;" horiz-adv-x="708" d="M41 -55q0 121 125 170q-115 88 -115 217q0 104 92.5 173.5t229.5 69.5q117 0 196.5 -59t79.5 -143q0 -111 -110 -168q119 -74 118 -197q0 -117 -93 -193.5t-232 -76.5q-127 0 -209 59.5t-82 147.5zM264 -16q0 -39 21.5 -62.5t56.5 -23.5q63 0 64 53q0 37 -114 91 q-9 5 -16 7q-12 -25 -12 -65zM301 354q0 -27 26.5 -45t80.5 -41q18 37 18 70q0 66 -66 65q-59 0 -59 -49z" />
<glyph unicode="&#x2089;" horiz-adv-x="712" d="M33 274q0 141 91 221t249 80q139 0 221 -82.5t82 -226.5q0 -117 -53.5 -214t-129 -153.5t-152.5 -95.5t-130 -53l-53 -14l-21 10l-45 121q147 49 252 172l-8 16q-68 -23 -72 -24q-106 0 -168.5 64.5t-62.5 178.5zM287 311q0 -104 61 -104q35 0 72 18q4 37 4 56 q0 121 -70 120q-37 0 -52 -20.5t-15 -69.5z" />
<glyph unicode="&#x20a3;" horiz-adv-x="1017" d="M51 266l17 121h118l2 406q0 51 -8 68.5t-35 17.5l-43 -2l-22 24l16 135q154 -2 299 -4h117q303 0 483 19l25 -27q-23 -168 -29 -305l-256 -14q4 37 4 55q0 35 -25.5 48t-92.5 13q-29 0 -39.5 -8t-12.5 -31l-6 -137q23 0 68 -1t67 -1l179 8l22 -24l-18 -185q-125 4 -199 4 q-25 0 -69 -4t-58 -4l-2 -51l217 4l10 -12l-6 -123h-225q2 -43 16.5 -58.5t55.5 -15.5q25 0 46 3t31 8l11 4l30 -33l-22 -168q-223 4 -301 4q-94 0 -135 -2q-217 -12 -218 -12l17 157q55 6 76.5 30t27.5 83h-121z" />
<glyph unicode="&#x20ac;" horiz-adv-x="1138" d="M-4 340l18 137h127v17q0 43 2 65h-131l-16 12l18 138h158q53 166 197.5 253t365.5 87l352 -41l15 -33q-37 -143 -49 -336l-246 -14q2 41 2 90q0 63 -29.5 91t-97.5 28q-129 0 -160 -125l238 8l16 -17l-12 -139l-256 -2v-8q0 -51 2 -74h6l244 8l16 -16l-12 -139l-229 -2 q43 -127 157 -127q68 0 101.5 43t44.5 145l245 17q-20 -186 -22 -338l-21 -25q-180 -59 -399 -59q-193 0 -316.5 90t-164.5 254h-148z" />
<glyph unicode="&#x2122;" horiz-adv-x="1175" d="M-2 1108q6 123 6 215l10 10l105 -8h258l104 8l13 -10l2 -207l-115 -8q-4 74 -10 93.5t-31 19.5q0 -37 -1 -123t-1 -135q0 -53 43 -54l41 4l4 -6l-8 -78q-127 4 -174 5l-176 -9l6 78q49 4 65.5 16.5t16.5 43.5v258q-23 0 -31 -20.5t-12 -84.5zM494 827l6 76q43 2 45 47 l28 266q0 21 -5 25t-42 8l-8 6l8 74q92 -4 127 -4l142 4q12 -90 45 -213h12q35 123 53 209q143 0 172 2l74 2l6 -2l-6 -76q-33 0 -43 -7t-10 -30q0 -98 18 -241q6 -63 37 -64h25l6 -6l-6 -72q-53 2 -93 3q-154 0 -172 -7l11 76q23 4 32 11.5t9 25.5l2 143h-13 q-35 -100 -75 -249l-119 -9q-16 55 -34.5 118t-29 97.5t-12.5 42.5h-10v-149q0 -27 26 -27l21 2l8 -6l-10 -72q-98 2 -125 3z" />
<glyph unicode="&#x212e;" horiz-adv-x="1632" d="M82 653q0 283 221 481.5t535 198.5q311 0 532 -198.5t221 -481.5v-16h-1222q-10 0 -11 -8v-371q0 -20 19 -43q186 -199 463 -199q295 0 485 224h111q-104 -123 -262 -194t-336 -71q-311 0 -533.5 199t-222.5 479zM358 684q0 -10 11 -10h938q10 0 10 10v373q0 25 -21 45 q-190 190 -456 190q-270 0 -461 -196q-20 -20 -21 -47v-365z" />
<glyph unicode="&#x2202;" horiz-adv-x="1046" d="M29 434q0 231 106.5 381t267.5 150l82 -45l9 18q-115 176 -453 395l104 166l33 17q391 -162 614.5 -426.5t223.5 -565.5q0 -260 -135.5 -406.5t-376.5 -146.5q-227 0 -351 121t-124 342zM420 467q0 -160 24.5 -218.5t92.5 -58.5q45 0 63 48.5t18 171.5q0 158 -24 280 q-31 20 -74 21q-66 0 -83 -41t-17 -203z" />
<glyph unicode="&#x220f;" horiz-adv-x="1470" d="M31 -10l16 174q82 16 107.5 49t25.5 119v708q0 63 -14 84t-57 21l-54 -2l-18 28l20 164q246 -10 326 -10h713l352 10l-14 -184q-72 -12 -92.5 -31t-24.5 -76q-20 -338 -21 -725q0 -86 13.5 -113.5t52.5 -27.5l65 6l17 -20l-19 -172q-256 8 -342 8l-321 -10l16 174 q70 16 92.5 49t22.5 119v682q0 18 -2 32.5t-3 25.5t-8.5 19.5t-10.5 14.5t-16 9t-18.5 5t-26 3t-28.5 1h-34h-39q-57 0 -78 -22.5t-25 -83.5q-20 -416 -20 -699q0 -86 11 -113.5t46 -27.5q31 0 41 2l14 4l17 -20l-19 -172q-242 8 -323 8q-27 0 -59.5 -1t-64.5 -1t-63.5 -2 t-59.5 -3t-49.5 -1t-32.5 -1z" />
<glyph unicode="&#x2211;" horiz-adv-x="1234" d="M-20 125l415 506l-379 608l37 90h94q94 0 285 -1t285 -1l370 23l23 -23l18 -453l-245 -34q-4 121 -45 176t-144 71l-196 29l254 -407v-88l-342 -412l313 45q92 10 135 68.5t60 187.5l258 18q-39 -299 -39 -489l-43 -45l-873 12l-168 -20z" />
<glyph unicode="&#x2212;" horiz-adv-x="1036" d="M31 387l37 277q287 -2 469 -2l452 12l15 -31l-27 -278l-465 -3l-463 -2z" />
<glyph unicode="&#x221a;" horiz-adv-x="1032" d="M-27 764l21 176q131 10 231 23l189 24l12 -14l111 -676h34l312 1182l57 41h238l-441 -1520l-442 -25q-129 535 -164 680q-16 59 -48 81t-106 20z" />
<glyph unicode="&#x221e;" horiz-adv-x="1073" d="M12 483q0 162 88 272.5t215 110.5q158 0 267 -145q74 158 223 158q111 0 183.5 -98.5t72.5 -248.5q0 -168 -95.5 -278.5t-238.5 -110.5q-156 0 -250 150q-72 -137 -213 -137q-106 0 -179 95t-73 232zM215 500q0 -86 92 -86q45 0 94 30q-20 45 -34.5 69t-37 44.5 t-46.5 20.5q-68 0 -68 -78zM662 588q25 -47 34 -63.5t28 -45t35.5 -39t35.5 -10.5q78 0 77 88q0 47 -30.5 76t-83.5 29q-49 0 -96 -35z" />
<glyph unicode="&#x222b;" horiz-adv-x="927" d="M-49 -233q0 41 30.5 124.5t59.5 118.5h37q8 -57 41 -93t78 -36q53 0 75.5 48t22.5 165l2 692q0 156 177 297.5t374 141.5q76 0 134 -14.5t58 -32.5q0 -31 -30.5 -124t-51.5 -126l-36 -6q-96 82 -156 82q-57 0 -85 -37t-34 -123l-35 -641q-10 -223 -145 -381t-317 -158 q-68 0 -133.5 34t-65.5 69z" />
<glyph unicode="&#x2248;" horiz-adv-x="1036" d="M20 178v33l220 235l45 9q49 0 213 -35t202 -35q29 0 74 29.5t76 59.5l31 30h32l101 -115v-33l-219 -235l-45 -8q-49 0 -213 34.5t-203 34.5q-29 0 -74 -29.5t-76 -59.5l-30 -30h-33zM20 588v33l220 235l45 8q49 0 213 -34.5t202 -34.5q29 0 74 29.5t76 59.5l31 29h32 l101 -114v-33l-219 -236l-45 -8q-49 0 -213 35t-203 35q-29 0 -74 -30t-76 -59l-30 -30h-33z" />
<glyph unicode="&#x2260;" horiz-adv-x="1036" d="M25 182l36 277q156 -2 314 -2l16 110l-348 -2l-18 27l36 276q201 -2 373 -2l39 254l236 21l14 -17l-39 -256l299 11l14 -31l-26 -279q-55 0 -166 -1t-166 -1l-16 -110q68 0 159.5 3t146.5 6l54 3l14 -31l-26 -278q-53 0 -164 -1t-166 -1h-66l-32 -221l-238 -23l-8 18 l33 226l-287 -2z" />
<glyph unicode="&#x2264;" horiz-adv-x="962" d="M66 -215l22 215h453q321 0 329 4l21 -39l-29 -217q-129 0 -387 -1t-387 -1zM90 408v313l365 158l309 143l37 -23l69 -215q-190 -74 -340 -139l-184 -80v-16l209 -100l297 -132l18 -43l-114 -188q-135 59 -283 129l-61 27l-306 135z" />
<glyph unicode="&#x2265;" horiz-adv-x="962" d="M59 -215l23 215h453q321 0 329 4l21 -39l-29 -217q-129 0 -387 -1t-387 -1zM90 324q190 74 340 139l184 80v16l-208 100l-297 132l-19 43l115 188q135 -59 282 -129l62 -27l305 -135l16 -31v-313l-364 -158l-309 -143l-37 23z" />
<glyph unicode="&#x25ca;" horiz-adv-x="1110" d="M82 516v100l154 334l159 369l312 14l26 -14l158 -365l158 -327l-2 -105l-144 -313l-170 -385l-309 -14l-31 14l-151 348zM338 557l102 -225l121 -252h17l98 229l115 264l-103 236l-123 254h-16l-105 -238z" />
<glyph unicode="&#xe000;" horiz-adv-x="1040" d="M0 1040h1040v-1040h-1040v1040z" />
<glyph unicode="&#xfb01;" horiz-adv-x="1638" d="M27 -14l16 159q61 8 84 38t23 102l2 508q0 51 -8.5 68.5t-34.5 17.5l-43 -2l-23 24l16 135q254 -4 416 -4q328 0 479 19l23 -27q-23 -180 -29 -326l-254 -14q2 35 2 55q0 47 -24.5 64.5t-87.5 17.5q-31 0 -41.5 -8t-10.5 -31l-10 -184l135 -2l179 8l22 -24l-22 -199 q-121 4 -195 4q-12 0 -127 -8v-80q0 -57 13.5 -75.5t56.5 -18.5l96 14l31 -33l-25 -188q-201 4 -278 4q-84 0 -179.5 -4t-148.5 -7zM1010 -6l14 147q68 14 87 38t19 91v529q0 49 -12 64.5t-47 15.5h-41l-16 24l14 129h283l305 6l-12 -155q-57 -8 -74 -22.5t-21 -59.5 q-16 -213 -16 -541q0 -66 10 -87t43 -21l49 4l15 -19l-15 -143q-221 6 -292 6z" />
<glyph unicode="&#xfb02;" horiz-adv-x="1966" d="M27 -14l16 159q61 8 84 38t23 102l2 508q0 51 -8.5 68.5t-34.5 17.5l-43 -2l-23 24l16 135q254 -4 416 -4q328 0 479 19l23 -27q-23 -180 -29 -326l-254 -14q2 35 2 55q0 47 -24.5 64.5t-87.5 17.5q-31 0 -41.5 -8t-10.5 -31l-10 -184l135 -2l179 8l22 -24l-22 -199 q-121 4 -195 4q-12 0 -127 -8v-80q0 -57 13.5 -75.5t56.5 -18.5l96 14l31 -33l-25 -188q-201 4 -278 4q-84 0 -179.5 -4t-148.5 -7zM1004 -16l16 159q63 8 85.5 39t22.5 103v514q0 49 -12 64.5t-47 15.5h-41l-18 24l14 129h285l374 6l-20 -170q-90 -8 -121 -22.5t-33 -48.5 q-18 -240 -18 -535q0 -59 53 -59q84 0 113 52t37 214l235 23l23 -27q-25 -215 -39 -447l-29 -28q-252 10 -506 10z" />
<glyph d="M139 1587q251 94 510 205l33 -10l74 -221l-15 -33q-266 -49 -520 -113l-39 27z" />
<glyph d="M43 1661l82 127l55 14q62 -143 227.5 -143t227.5 143l55 -14l82 -127q-37 -119 -128 -199t-236.5 -80t-236.5 80t-128 199z" />
<glyph d="M18 1577q172 125 363 283h55q0 6 50.5 -35t145.5 -118t165 -130l-72 -127l-47 -14q-96 41 -270 104q-106 -39 -269 -104l-47 14z" />
<glyph d="M41 1567q0 82 47 130t129 48q78 0 120 -43t42 -121q0 -82 -47 -130t-129 -48q-162 0 -162 164zM434 1567q0 82 47 130t129 48q78 0 120 -43t42 -121q0 -82 -47 -130t-127 -48q-164 0 -164 164z" />
<glyph d="M57 1561l74 221l33 10q258 -111 510 -205l-43 -145l-39 -27q-113 29 -243 56.5t-204 41.5l-73 15z" />
<glyph d="M102 1452l39 223q195 -2 316 -2l254 13l22 -37l-37 -224l-286 -2l-275 -2z" />
<glyph d="M190 1607.5q0 96.5 62.5 158t163.5 61.5q106 0 157.5 -57.5t51.5 -143.5q0 -94 -62 -161.5t-166 -67.5q-98 0 -152.5 57t-54.5 153.5zM332 1614q0 -39 24.5 -56.5t55.5 -17.5q72 0 71 68q0 72 -80 71q-72 0 -71 -65z" />
<glyph d="M6 1493v33l166 235l35 8q37 0 162 -34.5t153 -34.5q23 0 56.5 29.5t57.5 59.5l23 30h33l121 -111v-33l-166 -235l-35 -8q-37 0 -161.5 34.5t-153.5 34.5q-23 0 -57.5 -29.5t-57.5 -59.5l-22 -30h-33z" />
<glyph d="M18 1692l72 127l47 14q96 -41 271 -104q106 39 268 104l47 -14l74 -127q-172 -125 -363 -283h-55q-190 158 -361 283z" />
<glyph d="M207 1593q0 98 56 155.5t153 57.5q90 0 140 -51t50 -143q0 -98 -55.5 -155.5t-151.5 -57.5q-94 0 -143 50t-49 144z" />
<glyph d="M127 -561q59 43 95 102.5t36 114.5q0 90 -59 156l6 28q117 90 209 90q78 0 126 -56t48 -150q0 -109 -92.5 -224.5t-249.5 -206.5l-119 95v51z" />
<glyph d="M39 1489q155 153 305 311l31 2l135 -166v-30q-182 -109 -354 -226l-39 11zM444 1489q155 153 306 311l30 2l135 -166v-30q-182 -109 -354 -226l-39 11z" />
<glyph horiz-adv-x="1005" d="M51 573q0 309 126 480.5t351 171.5q209 0 317.5 -152.5t108.5 -447.5q0 -309 -124 -479.5t-349 -170.5q-211 0 -320.5 153t-109.5 445zM293 598q0 -242 219 -242q106 0 152.5 54.5t46.5 175.5q0 127 -54.5 186t-167.5 59q-102 0 -149 -55t-47 -178z" />
<glyph horiz-adv-x="774" d="M12 997l17 154q131 12 268 29q84 8 173 20t135 19l46 6l33 -88q-59 -48 -82 -148q-27 -137 -27 -676q0 -133 80 -133l90 4l9 -12l-29 -184q-209 12 -317 12q-66 0 -162 -5t-159 -10l-62 -5l18 165q96 10 138 43t42 97v581q0 72 -19.5 94.5t-76.5 22.5l-96 -6z" />
<glyph horiz-adv-x="1050" d="M29 186l270 291q193 215 190 322q0 94 -106 94q-121 0 -244 -145h-37l-51 241q86 109 206 172.5t239 63.5q176 0 284.5 -84t108.5 -221.5t-84 -278.5t-295 -360l10 -19h117q78 0 113.5 41t46.5 146l237 18q-45 -272 -55 -455l-35 -37q-487 25 -698 25l-195 -14z" />
<glyph horiz-adv-x="913" d="M18 250l45 47q80 -37 189 -37q96 0 152.5 33t56.5 88q0 104 -234 104l-26 31l-21 184l133 27q119 49 119 152q0 35 -24.5 56t-65.5 21q-90 0 -213 -82q-6 0 -16.5 -1t-14.5 -1l-65 211q88 59 210 100.5t216 41.5q156 0 250 -67.5t94 -180.5q0 -92 -61.5 -166t-166.5 -106 v-23q154 -51 223.5 -124t69.5 -181q0 -156 -198.5 -279t-448.5 -123q-104 0 -147.5 60.5t-55.5 214.5z" />
<glyph horiz-adv-x="1011" d="M-4 272q0 35 1 102.5t1 102.5l510 744q2 0 9 2t9 2l287 -25v-686h141l23 -31l-23 -231q-55 2 -139 4l12 -233l-22 -23l-336 -25l-20 25q8 133 12 266q-244 6 -465 6zM268 514h195v270h-23z" />
<glyph horiz-adv-x="892" d="M8 250l45 47q78 -37 189 -37q92 0 147 32t55 85q0 55 -75.5 85t-259.5 50l-19 23q12 133 21.5 287.5t13.5 241.5l4 87l16 16l426 13q59 2 87 19.5t42 62.5l162 10l-59 -367l-39 -39q-182 16 -387 17l-8 -107q256 -45 364.5 -130.5t108.5 -239.5q0 -166 -193.5 -298.5 t-437.5 -132.5q-102 0 -147.5 60.5t-55.5 214.5z" />
<glyph horiz-adv-x="968" d="M31 432q0 127 41 239.5t106.5 190.5t144 143.5t158.5 105.5t145.5 66.5t106.5 37.5l41 12l27 -15l61 -165q-10 -4 -26.5 -10.5t-65.5 -32t-95 -56t-101.5 -83t-96.5 -109.5l12 -23l119 43q154 0 245 -97t91 -263q0 -205 -130 -323t-353 -118q-197 0 -313.5 124 t-116.5 333zM373 414q0 -199 116 -199q59 0 85 35t26 112q0 168 -106 168q-63 0 -117 -34q-4 -53 -4 -82z" />
<glyph horiz-adv-x="886" d="M20 711q31 272 41 489l13 10q123 -8 250 -8h456l117 -143q-190 -416 -338 -789l-78 -293h-55l-254 78l-25 58l400 796l-189 -18q-90 -10 -120.5 -40t-47.5 -128z" />
<glyph horiz-adv-x="968" d="M39 281q0 182 190 264q-174 129 -174 319q0 154 132 258.5t325 104.5q164 0 277.5 -88t113.5 -213q0 -168 -164 -256q178 -111 179 -295q0 -172 -132.5 -286t-332.5 -114q-180 0 -297 86.5t-117 219.5zM342 338q0 -64 36 -102.5t93 -38.5q109 0 109 96q0 29 -26 55.5 t-57.5 45t-87.5 46.5q-18 10 -28 15q-39 -53 -39 -117zM395 903q0 -45 41 -76.5t125 -68.5q37 55 37 116q0 53 -28.5 84t-77.5 31q-45 0 -71 -23.5t-26 -62.5z" />
<glyph horiz-adv-x="968" d="M25 784q0 205 130 323t353 118q197 0 313.5 -124t116.5 -333q0 -127 -41 -239.5t-106.5 -190.5t-145.5 -143.5t-158.5 -105.5t-144.5 -66.5t-106 -37.5l-41 -12l-27 15l-62 166q10 4 27 10t66 31.5t94 56.5t100.5 82t95.5 110l-10 23l-119 -43q-154 0 -244.5 97 t-90.5 263zM369 838q0 -168 106 -168q59 0 115 32q6 39 6 84q0 199 -117 199q-59 0 -84.5 -35t-25.5 -112z" />
<glyph horiz-adv-x="942" d="M37 573q0 309 121 480.5t338 171.5q203 0 306 -152.5t103 -447.5q0 -311 -118.5 -480.5t-335.5 -169.5q-203 0 -308.5 153t-105.5 445zM279 598q-1 -242 200 -242q98 0 140.5 53.5t42.5 176.5q0 127 -49.5 186t-153.5 59q-96 0 -138 -55t-42 -178z" />
<glyph horiz-adv-x="942" d="M66 997l18 154l293 29q96 8 189 20t136 19l43 6l33 -88q-69 -48 -92 -148q-27 -137 -27 -676q0 -70 21.5 -101.5t73.5 -31.5l106 4l8 -12l-30 -184q-227 12 -349 12q-72 0 -173 -5t-166 -10l-66 -5l18 165q113 8 160 41t47 99v581q0 70 -23.5 93.5t-88.5 23.5l-113 -6z " />
<glyph horiz-adv-x="942" d="M4 186l258 291q158 209 156 322q0 94 -88 94q-102 0 -217 -145h-37l-51 241q86 109 197.5 172.5t221.5 63.5q166 0 269.5 -84t103.5 -221.5t-74.5 -278.5t-263.5 -360l10 -19h82q70 0 100.5 41t39.5 146l239 18q-41 -272 -49 -455l-35 -37q-451 25 -651 25l-190 -14z" />
<glyph horiz-adv-x="942" d="M27 250l45 47q80 -37 190 -37q100 0 159.5 33t59.5 88q0 104 -243 104l-27 31l-21 184l136 27q125 47 125 152q0 35 -26 56t-69 21q-96 0 -219 -82q-6 0 -16 -1t-15 -1l-65 211q86 59 210 100.5t222 41.5q158 0 253 -67.5t95 -180.5q0 -92 -62.5 -166t-168.5 -106v-23 q156 -51 227.5 -124t71.5 -181q0 -156 -202 -279t-456 -123q-106 0 -149 59.5t-55 215.5z" />
<glyph horiz-adv-x="942" d="M-18 272q0 35 1 102.5t1 102.5l479 744q2 0 9 2t9 2l291 -25v-686h129l23 -31l-23 -231q-49 2 -127 4l12 -233l-22 -23l-336 -25l-20 25q8 133 12 266q-231 6 -438 6zM252 514h170v270h-23z" />
<glyph horiz-adv-x="942" d="M20 250l46 47q80 -37 194 -37q100 0 159.5 32t59.5 85q0 55 -81 85t-273 50l-21 23q29 301 41 616l17 16l440 13q61 2 90 19.5t43 62.5l162 10l-61 -367l-37 -39q-193 16 -408 17l-8 -107q266 -47 380 -131.5t114 -238.5q0 -166 -201 -298.5t-449 -132.5 q-104 0 -150 61.5t-57 213.5z" />
<glyph horiz-adv-x="942" d="M25 432q0 414 410 659q166 99 321 136l24 -15l64 -165q-27 -10 -69 -30t-141 -94.5t-163 -166.5l12 -23l113 43q150 0 239 -97t89 -263q0 -205 -127 -323t-348 -118q-195 0 -309.5 124t-114.5 333zM365 414q0 -199 110 -199q55 0 80 35t25 112q-1 168 -99 168 q-59 0 -112 -34q-4 -53 -4 -82z" />
<glyph horiz-adv-x="942" d="M37 711q31 272 41 489l14 10q127 -8 258 -8h475l115 -143q-236 -483 -358 -789l-80 -293h-56l-253 78l-25 58l422 796l-207 -18q-96 -10 -128 -40t-48 -128z" />
<glyph horiz-adv-x="942" d="M33 281q0 182 184 264q-170 129 -170 319q0 154 130 258.5t321 104.5q162 0 274.5 -88t112.5 -213q0 -168 -160 -256q172 -109 172 -295q0 -172 -130 -286t-327 -114q-178 0 -292.5 86.5t-114.5 219.5zM334 338q0 -63 35 -102t88 -39q102 0 102 96q0 29 -25.5 56.5 t-52 44t-87.5 47.5q-18 10 -25 14q-35 -47 -35 -117zM387 903q0 -45 39 -76.5t121 -68.5q33 55 33 116q0 53 -27 84t-74 31q-43 0 -67.5 -23.5t-24.5 -62.5z" />
<glyph horiz-adv-x="942" d="M18 784q0 205 127 323t349 118q195 0 309.5 -124t114.5 -333q0 -414 -411 -659q-166 -99 -321 -136l-24 15l-64 166q10 4 25.5 10t62.5 31.5t91.5 56.5t97.5 82t94 110l-10 23l-113 -43q-150 0 -239 97t-89 263zM362 838q1 -168 99 -168q55 0 110 32q6 39 7 84 q0 199 -111 199q-55 0 -80 -35t-25 -112z" />
<glyph horiz-adv-x="921" d="M18 489q0 264 124 415t343 151q203 0 310.5 -132t107.5 -382q0 -266 -123 -416t-340 -150q-205 0 -313.5 133.5t-108.5 380.5zM240 516q0 -149 229 -149q111 0 161 32.5t50 104.5q0 152 -231 151q-209 0 -209 -139z" />
<glyph horiz-adv-x="921" d="M59 827l17 154l293 29q98 8 190 20t135 19l43 6l33 -88q-67 -46 -90 -148q-31 -137 -31 -506q0 -70 21.5 -101.5t72.5 -31.5l105 4l8 -12l-31 -184q-225 12 -346 12q-70 0 -171 -6t-167 -10l-65 -4l20 165q111 8 157 41t46 99v411q0 70 -23.5 93.5t-87.5 23.5l-110 -6z " />
<glyph horiz-adv-x="921" d="M-16 90l133 158q145 184 196.5 269t48.5 142q0 92 -86 93q-92 0 -188 -129h-35l-51 213q213 219 440 219q156 0 252.5 -79t96.5 -206q0 -100 -57.5 -196.5t-237.5 -292.5l10 -19h41q72 0 104.5 43t38.5 144l240 18q-43 -272 -53 -455l-33 -37q-502 25 -703 25l-149 -12z " />
<glyph horiz-adv-x="921" d="M4 80l45 47q74 -37 191 -37q102 0 166.5 31t64.5 82q0 61 -56.5 88.5t-178.5 27.5l-27 31l-21 185l134 26q119 49 118 148q0 35 -24.5 56t-65.5 21q-92 0 -215 -98q-4 0 -14 -1t-17 -1l-65 211q88 68 210 113t218 45q156 0 250 -67.5t94 -180.5q0 -90 -61.5 -163 t-165.5 -105v-23q141 -41 218 -115.5t77 -171.5q0 -160 -209 -292t-463 -132q-104 0 -147.5 60.5t-55.5 214.5z" />
<glyph horiz-adv-x="921" d="M-18 113q0 35 1 102.5t1 101.5l487 734q2 0 9 2t9 2l291 -25v-676h129l23 -30l-23 -232q-49 2 -127 4l13 -243l-23 -23l-336 -25l-20 25q8 141 12 276q-233 7 -446 7zM256 354h174v260h-22z" />
<glyph horiz-adv-x="921" d="M-18 80l43 47q80 -37 194 -37q109 0 178.5 32t69.5 83q0 59 -80 91t-281 50l-18 23q33 296 47 612l19 16l419 13q61 2 90 19.5t44 62.5l161 10l-61 -367l-39 -39q-170 16 -385 17l-16 -103q266 -45 381.5 -123t115.5 -215q0 -117 -97 -225t-255 -175t-326 -67 q-104 0 -149 60.5t-55 214.5z" />
<glyph horiz-adv-x="921" d="M18 432q0 414 405 659q164 99 316 136l27 -15l61 -165q-8 -4 -24.5 -10.5t-61.5 -32t-87 -56t-95 -83t-94 -109.5l12 -23l109 43q147 0 235 -97t88 -263q0 -205 -126 -323t-345 -118q-193 0 -306.5 124t-113.5 333zM358 414q0 -199 107 -199q53 0 76.5 35t23.5 112 q0 168 -94 168q-57 0 -109 -34q-4 -53 -4 -82z" />
<glyph horiz-adv-x="921" d="M29 539q33 272 43 489l12 10q125 -8 254 -8h467l117 -143q-215 -449 -351 -789l-77 -293h-56l-254 78l-26 58l413 796l-198 -18q-94 -10 -125 -39t-47 -129z" />
<glyph horiz-adv-x="921" d="M27 281q0 184 180 264q-166 129 -166 319q0 154 129 258.5t317 104.5q160 0 271.5 -88t111.5 -213q0 -168 -155 -256q168 -111 168 -295q0 -172 -129 -286t-324 -114q-176 0 -289.5 86.5t-113.5 219.5zM328 338q0 -63 32.5 -102t85.5 -39q98 0 99 96q0 59 -162 148 q-17 9 -25 14q-31 -45 -30 -117zM381 903q0 -47 38 -77.5t118 -67.5q31 57 30 116q0 53 -25.5 84t-72.5 31q-41 0 -64.5 -23.5t-23.5 -62.5z" />
<glyph horiz-adv-x="921" d="M12 614q0 205 126 323t345 118q193 0 306.5 -124t113.5 -333q0 -414 -405 -659q-164 -99 -316 -136l-26 15l-62 166q25 10 65 28.5t136 94t160 167.5l-11 23l-108 -43q-147 0 -235.5 97.5t-88.5 262.5zM356 668q1 -168 95 -168q51 0 106 32q6 41 6 84q0 199 -106 199 q-53 0 -77 -35t-24 -112z" />
<glyph d="M260 1526l275 28l18 -24q-33 -223 -86 -453l-150 -51l-38 12q2 109 -3.5 231t-10.5 189z" />
<glyph horiz-adv-x="727" d="M53 903q0 211 85 324.5t243 113.5q293 0 293 -403q0 -211 -83 -322.5t-241 -111.5q-297 0 -297 399zM231 920q0 -74 34 -107t106 -33q70 0 97.5 30t27.5 103q0 76 -34 110t-108 34q-66 0 -94.5 -31t-28.5 -106z" />
<glyph horiz-adv-x="579" d="M25 1182l10 108q33 2 65.5 6t69.5 8.5t55 6.5q37 4 77 8t69.5 8t55.5 7t40 5l14 2l25 -65q-39 -28 -57 -96q-18 -66 -19 -443q0 -88 53 -88l60 2l6 -8l-21 -131q-147 8 -223 8l-274 -14l12 119q125 12 125 90v377q0 47 -12.5 62t-53.5 15l-65 -2z" />
<glyph horiz-adv-x="772" d="M39 662l192 198q119 127 117 184q0 55 -65 56q-80 0 -164 -90h-27l-37 176q61 72 144.5 113.5t167.5 41.5q123 0 199.5 -57t76.5 -151.5t-55.5 -184.5t-196.5 -227l6 -12h64q53 0 76.5 27.5t27.5 97.5l178 12q-31 -190 -36 -316l-27 -26q-336 16 -485 16l-142 -8z" />
<glyph horiz-adv-x="673" d="M27 698l34 35q59 -27 132 -26q133 0 133 71q0 57 -150 58l-18 22l-17 135l92 17q76 29 76 94q0 45 -55 45q-59 0 -145 -55h-23l-49 151q66 45 150.5 70.5t150.5 25.5q111 0 178.5 -46t67.5 -121q0 -63 -43 -111.5t-115 -69.5v-16q106 -37 154.5 -86t48.5 -121 q0 -104 -138.5 -185t-316.5 -81q-74 0 -105.5 42.5t-41.5 151.5z" />
<glyph horiz-adv-x="747" d="M16 694l2 148l347 495l14 4l217 -18v-457h92l17 -20l-17 -166l-90 2l8 -145l-18 -17l-248 -16l-14 16q6 82 8 170zM215 866h121v166h-17z" />
<glyph horiz-adv-x="659" d="M20 698l35 35q57 -27 133 -26q57 0 92 18t35 47q0 31 -50 48.5t-173 31.5l-12 16l26 422l11 10l299 9q70 0 88 55l119 6l-41 -256l-29 -29q-123 10 -262 11l-4 -54q176 -33 249.5 -91t73.5 -160q0 -113 -135 -200t-307 -87q-74 0 -105.5 43t-42.5 151z" />
<glyph horiz-adv-x="712" d="M37 813q0 117 53 214t129 153.5t153 94.5t130 52l53 14l20 -8l46 -121q-150 -51 -252 -172l8 -16q45 10 72 23q106 0 168.5 -64.5t62.5 -179.5q0 -141 -90 -220t-250 -79q-139 0 -221 83t-82 226zM289 797q0 -119 69 -119q37 0 52.5 20.5t15.5 67.5q0 104 -61 104 q-45 0 -74 -18q0 -8 -1 -26.5t-1 -28.5z" />
<glyph horiz-adv-x="655" d="M29 985q23 188 28 340l11 6q84 -6 172 -6h317l86 -102q-129 -276 -223 -510l-55 -207h-43l-187 55l-16 39l266 516l-117 -12q-61 -8 -81.5 -26.5t-30.5 -84.5z" />
<glyph horiz-adv-x="708" d="M41 711q0 121 125 170q-115 88 -115 217q0 104 92.5 173.5t229.5 69.5q117 0 196.5 -59t79.5 -143q0 -111 -110 -168q119 -74 118 -197q0 -117 -93 -193.5t-232 -76.5q-127 0 -209 59.5t-82 147.5zM264 750q0 -39 21.5 -62.5t56.5 -23.5q63 0 64 53q0 37 -114 91 q-9 5 -16 7q-12 -25 -12 -65zM301 1120q0 -27 26.5 -45t80.5 -41q18 37 18 70q0 66 -66 65q-59 0 -59 -49z" />
<glyph horiz-adv-x="712" d="M33 1040q0 141 91 221t249 80q139 0 221 -82.5t82 -226.5q0 -117 -53.5 -214t-129 -153.5t-152.5 -95.5t-130 -53l-53 -14l-21 10l-45 121q147 49 252 172l-8 16q-68 -23 -72 -24q-106 0 -168.5 64.5t-62.5 178.5zM287 1077q0 -104 61 -104q35 0 72 18q4 37 4 56 q0 121 -70 120q-37 0 -52 -20.5t-15 -69.5z" />
<glyph horiz-adv-x="727" d="M53 383q0 211 85 324.5t243 113.5q293 0 293 -403q0 -211 -83 -322.5t-241 -111.5q-297 0 -297 399zM231 399q0 -74 34 -106.5t106 -32.5q70 0 97.5 29.5t27.5 103.5q0 76 -34 110t-108 34q-66 0 -94.5 -31t-28.5 -107z" />
<glyph horiz-adv-x="579" d="M25 662l10 108q33 2 65.5 6t69.5 8t55 7q37 4 77 8t69.5 8t55.5 7t40 5l14 2l25 -65q-39 -29 -57 -97q-18 -66 -19 -442q0 -88 53 -88l60 2l6 -8l-21 -131q-147 8 -223 8l-274 -14l12 118q125 12 125 91v376q0 47 -12.5 62.5t-53.5 15.5l-65 -2z" />
<glyph horiz-adv-x="772" d="M39 141l192 199q119 127 117 184q0 55 -65 56q-80 0 -164 -91h-27l-37 177q61 72 144.5 113.5t167.5 41.5q123 0 199.5 -57t76.5 -151.5t-55.5 -184.5t-196.5 -227l6 -13h64q53 0 76.5 28t27.5 97l178 13q-31 -190 -36 -316l-27 -26q-336 16 -485 16l-142 -8z" />
<glyph horiz-adv-x="673" d="M27 178l34 35q59 -27 132 -27q133 0 133 72q0 57 -150 57l-18 23l-17 135l92 16q76 29 76 95q0 45 -55 45q-59 0 -145 -56h-23l-49 152q66 45 150.5 70.5t150.5 25.5q111 0 178.5 -46t67.5 -122q0 -63 -43 -111t-115 -69v-16q106 -37 154.5 -86t48.5 -121 q0 -104 -138.5 -185t-316.5 -81q-74 0 -105.5 42.5t-41.5 151.5z" />
<glyph horiz-adv-x="747" d="M16 174l2 148l347 495l14 4l217 -18v-457h92l17 -20l-17 -166l-90 2l8 -146l-18 -16l-248 -16l-14 16q6 82 8 170zM215 346h121v166h-17z" />
<glyph horiz-adv-x="659" d="M20 178l35 35q57 -27 133 -27q57 0 92 18.5t35 47.5q0 31 -50 48t-173 32l-12 16l26 422l11 10l299 8q70 0 88 56l119 6l-41 -256l-29 -29q-123 10 -262 10l-4 -53q176 -33 249.5 -91.5t73.5 -160.5q0 -113 -135 -199.5t-307 -86.5q-74 0 -105.5 43t-42.5 151z" />
<glyph horiz-adv-x="712" d="M37 293q0 117 53 214t129 153.5t153 94.5t130 52l53 14l20 -8l46 -121q-150 -51 -252 -172l8 -16q45 10 72 22q106 0 168.5 -64.5t62.5 -178.5q0 -141 -90 -220t-250 -79q-139 0 -221 83t-82 226zM289 276q0 -119 69 -118q37 0 52.5 20.5t15.5 67.5q0 104 -61 104 q-45 0 -74 -18q0 -8 -1 -26.5t-1 -29.5z" />
<glyph horiz-adv-x="655" d="M29 465q23 188 28 340l11 6q84 -6 172 -6h317l86 -103q-129 -276 -223 -509l-55 -207h-43l-187 55l-16 39l266 516l-117 -12q-61 -8 -81.5 -26.5t-30.5 -84.5z" />
<glyph horiz-adv-x="708" d="M41 190q0 121 125 170q-115 88 -115 218q0 104 92.5 173.5t229.5 69.5q117 0 196.5 -59.5t79.5 -143.5q0 -111 -110 -167q119 -74 118 -197q0 -117 -93 -193.5t-232 -76.5q-127 0 -209 59t-82 147zM264 229q0 -39 21.5 -62.5t56.5 -23.5q63 0 64 54q0 37 -114 90 q-9 5 -16 8q-12 -25 -12 -66zM301 600q0 -27 26.5 -45t80.5 -41q18 37 18 70q0 66 -66 65q-59 0 -59 -49z" />
<glyph horiz-adv-x="712" d="M33 520q0 141 91 221t249 80q139 0 221 -83t82 -226q0 -117 -53.5 -214t-129 -153.5t-152.5 -95.5t-130 -53l-53 -14l-21 10l-45 121q147 49 252 172l-8 16q-68 -23 -72 -25q-106 0 -168.5 65t-62.5 179zM287 557q0 -104 61 -104q35 0 72 18q4 37 4 55q0 121 -70 121 q-37 0 -52 -20.5t-15 -69.5z" />
<glyph horiz-adv-x="743" d="M31 901q0 45 25.5 78t66.5 43l278 45q-2 39 -33.5 62.5t-80.5 23.5q-33 0 -73 -14.5t-64 -28.5l-25 -14l-19 8l-36 117q225 117 301 116q156 0 223.5 -58t67.5 -144q0 -23 -15.5 -120t-15.5 -112q0 -45 39 -45l43 8l24 -39q-90 -162 -155 -174q-152 0 -164 99l-19 8 q-100 -100 -157 -101q-88 0 -149.5 71t-61.5 171zM285 918q0 -72 51 -72h61l2 115l-92 -17q-23 -4 -22 -26z" />
<glyph horiz-adv-x="778" d="M-31 1526l13 110l399 52l12 -37q-33 -33 -45 -400q117 78 131 78q127 0 194.5 -82t67.5 -233q0 -164 -96 -258t-266 -94q-61 0 -132 7t-111 13l-40 6l-14 19v727q0 51 -13.5 66.5t-56.5 15.5h-37zM344 838l3 -1q3 -1 9 -3.5t12.5 -3.5t14.5 -2t16 -1q57 0 58 129 q0 190 -72 191q-12 0 -22.5 -1t-13.5 -2l-3 -1z" />
<glyph horiz-adv-x="665" d="M37 989q0 160 99.5 254t269.5 94q57 0 106 -7t71 -15l21 -8l8 -17q-23 -119 -32 -246l-140 -6v52q0 41 -11 57t-38 16q-68 0 -67 -112q0 -102 24.5 -149.5t79.5 -47.5l135 35l15 -8l32 -111q-133 -117 -239 -117q-160 0 -247 88t-87 248z" />
<glyph horiz-adv-x="798" d="M37 977q0 166 96 259t266 93h35v98q0 51 -13 66.5t-56 15.5l-31 -2l12 129l383 52l19 -31q-51 -68 -52 -754q0 -45 29 -45l37 8l24 -39q-2 -6 -8 -15t-23.5 -34.5t-36 -48t-46 -44t-54.5 -32.5q-147 0 -163 101l-9 2q-125 -96 -147 -97q-125 0 -193.5 83t-68.5 235z M322 1034q0 -190 71 -190l41 6v303q-27 12 -55 12q-57 0 -57 -131z" />
<glyph horiz-adv-x="722" d="M37 989q0 162 98 255t268 93q274 0 275 -284l-10 -95l-17 -12h-327q10 -57 40.5 -79.5t90.5 -22.5q41 0 82 10t62 20l22 11l14 -8l33 -111q-152 -113 -279 -113q-170 0 -261 87t-91 249zM315 1057l101 8q14 2 14 22q0 86 -49 87q-39 0 -53.5 -25.5t-12.5 -91.5z" />
<glyph horiz-adv-x="546" d="M23 1174l12 102l88 12v21q0 172 108.5 275.5t288.5 103.5q45 0 86 -8.5t61 -16.5l19 -8l10 -33q-27 -80 -55 -168l-20 -6q-53 55 -129 55q-63 0 -83 -29.5t-20 -127.5v-58l162 4l8 -10l-16 -123q-55 4 -156 4v-311q0 -47 41 -47l88 2l6 -6l-16 -139q-176 8 -244 8 l-227 -13l12 129q43 4 59.5 19.5t16.5 54.5v250q-2 31 -19.5 41t-74.5 14z" />
<glyph horiz-adv-x="778" d="M47 547l143 67v11q-66 10 -102.5 49t-36.5 96q18 20 48 45t51 40l20 15v17q-111 63 -111 194q0 121 90.5 190.5t247.5 69.5q35 0 82 -6t72 -6q67 4 205 53l12 -8l-20 -147l-80 -2l-6 -11q55 -53 55 -129q0 -113 -93 -179t-247 -66q-53 0 -96 6q-8 -25 -9 -27 q0 -27 77 -32t168 -4t168 -41t77 -134q0 -104 -126 -187t-284 -83q-135 0 -220 58.5t-85 150.5zM315 547q0 -25 24.5 -40t61.5 -15q45 0 74 14t29 34.5t-25.5 29t-159.5 26.5q-4 -23 -4 -49zM334 1077q0 -100 57 -102q55 0 55 112q0 55 -14 80t-51 25q-47 0 -47 -115z" />
<glyph horiz-adv-x="827" d="M-18 1526l12 110l399 52l13 -37q-39 -35 -48 -447q125 133 154 133q240 0 240 -178q0 -33 -15.5 -164t-15.5 -157.5t8 -36.5t29 -10l33 2l2 -7l-15 -122q-135 6 -192 6l-174 -2l10 127q45 6 47 59l2 184q2 49 -9 67.5t-44 18.5q-18 0 -62 -30v-263q0 -39 29 -38l16 2 l5 -11l-15 -120q-123 6 -188 6l-183 -8l17 126q33 4 45 19.5t12 52.5v574q0 51 -13 66.5t-56 15.5h-37z" />
<glyph horiz-adv-x="475" d="M23 1163l12 123q178 18 364 51l19 -32q-33 -59 -33 -476q0 -23 6 -29.5t27 -6.5l31 2l4 -7l-19 -124q-131 6 -198 6l-211 -15l18 131q80 6 80 80v219q0 51 -13.5 66.5t-56.5 15.5zM119 1542q0 72 41 112t110 40q66 0 103 -37t37 -103q0 -70 -40 -110.5t-110 -40.5 q-141 0 -141 139z" />
<glyph horiz-adv-x="475" d="M14 391l4 23q59 57 81 119.5t22 181.5v370q0 82 -45 82l-47 -4l12 119l358 55l21 -32q-39 -86 -39 -654q0 -94 -81 -182t-214 -141zM117 1542q0 72 40 112t111 40q66 0 103 -37t37 -103q0 -70 -41 -110.5t-111 -40.5q-139 0 -139 139z" />
<glyph d="M-18 1524l12 112l399 52l13 -37q-49 -45 -50 -822q0 -23 6.5 -30.5t22.5 -7.5h21l4 -11l-19 -118q-127 8 -188 8l-183 -6l17 124q33 4 45 17.5t12 46.5v582q0 61 -22 73q-16 8 -82 9zM358 989l7 47l88 103q23 25 22 43q0 27 -69 26l-5 6l15 109q113 -2 211 -2l176 4l4 -8 l-14 -125q-68 -37 -181 -150l80 -168q31 -71 105 -86l10 -16l-14 -110q-47 -4 -101 -9q-47 -2 -80 -8q-55 2 -86.5 27t-60.5 86z" />
<glyph horiz-adv-x="454" d="M-18 1524l12 112l399 52l13 -37q-49 -45 -50 -822q0 -23 6.5 -30.5t22.5 -7.5h45l4 -11l-18 -116q-147 6 -213 6l-183 -6l17 127q33 4 45 16t12 45v582q0 61 -22 73q-16 8 -82 9z" />
<glyph horiz-adv-x="1239" d="M27 1174l12 110l350 53l19 -16q-12 -55 -19 -102l6 -5q131 123 154 123q193 0 225 -123q131 123 152 123q240 0 239 -178q0 -33 -16 -164t-16 -157.5t8 -36.5t28 -10l33 2l2 -7l-14 -122q-135 6 -193 6l-170 -4l11 129q23 2 31 13t12 46l2 184q2 49 -9.5 67.5t-44.5 18.5 q-20 0 -51 -22l-20 -264q0 -47 35 -47l24 2l4 -7l-20 -122q-125 6 -180 6l-177 -2l13 127q43 6 45 59l2 184q2 49 -9.5 67.5t-43.5 18.5q-14 0 -52 -24q-16 -213 -16 -264q0 -23 6 -31t27 -8h18l4 -6l-16 -127q-119 6 -178 6l-209 -8l18 129q41 2 56.5 16t15.5 53v225 q0 49 -13.5 63.5t-54.5 14.5h-24z" />
<glyph horiz-adv-x="761" d="M37 981q0 170 94 263t264 93q162 0 246 -84t84 -241q0 -170 -93 -264.5t-263 -94.5q-156 0 -244 87t-88 241zM324 1047q0 -143 11 -189.5t46 -46.5q33 0 43 23.5t10 95.5q0 141 -11 186t-46 45q-33 0 -43 -22.5t-10 -91.5z" />
<glyph horiz-adv-x="819" d="M16 1174l13 110l346 53l18 -16q-12 -57 -18 -104l6 -3q94 117 111 117q133 0 211.5 -87t78.5 -230q0 -352 -407 -352q0 -18 -1 -53.5t-1 -51.5v-9q0 -28 1 -39t8 -19.5t21 -8.5h19q10 0 19.5 1t16.5 2t11 1h4l4 -8l-20 -129l-224 6h-2l-200 -6l18 127q33 2 44 16.5 t11 51.5q8 139 11 186v356q0 49 -13.5 63.5t-54.5 14.5h-22zM385 838l3 -1q3 -1 9 -3.5t12.5 -3.5t14.5 -2t16 -1q57 0 58 129q0 98 -16.5 139.5t-55.5 41.5q-12 0 -37 -4q-4 -201 -4 -295z" />
<glyph horiz-adv-x="774" d="M37 977q0 166 96 259t266 93q78 0 193 -14l115 43l22 -21q-35 -59 -35 -796q0 -33 7.5 -44.5t27.5 -11.5l37 2l4 -6l-8 -127h-250l-207 -6l12 129q68 4 89.5 19.5t23.5 66.5l4 187q-111 -88 -135 -88q-127 0 -194.5 81.5t-67.5 233.5zM322 1034q0 -188 71 -188l41 4v303 q-27 12 -55 12q-57 0 -57 -131z" />
<glyph horiz-adv-x="679" d="M25 1174l12 112l352 51l19 -18q-14 -57 -19 -109l12 -6q90 119 199 119l55 -4l9 -19q-29 -176 -37 -327l-144 -8q0 78 -8 104.5t-35 26.5q-22 0 -43 -13q-16 -225 -16 -241q0 -41 39 -41l82 8l10 -12l-20 -135q-156 8 -240 8l-219 -6l18 127q41 2 56.5 16t15.5 49v229 q0 49 -12.5 63.5t-57.5 14.5l-20 2z" />
<glyph horiz-adv-x="630" d="M23 723q14 86 22 176l121 8q2 -39 33.5 -69.5t72.5 -30.5q47 0 47 29q0 18 -20 31.5t-88 37.5q-90 35 -130 83t-40 118q0 106 92 168.5t248 62.5l180 -28l14 -25q-16 -98 -26 -192l-121 -7v2q0 90 -72 91q-49 0 -49 -37q0 -31 60 -51q133 -55 178 -99.5t45 -120.5 q0 -96 -93.5 -156.5t-240.5 -60.5q-57 0 -111.5 12.5t-79.5 24.5l-26 12z" />
<glyph horiz-adv-x="514" d="M-6 1180l12 104q74 33 156 78t127 74l45 28l57 -32q-12 -55 -22 -144l108 4l6 -10l-16 -123l-111 4q-6 -102 -6 -229q0 -86 62 -86l67 10l23 -57q-133 -147 -193 -148q-106 0 -162.5 45t-56.5 129v258q0 51 -13.5 66.5t-58.5 13.5z" />
<glyph horiz-adv-x="825" d="M16 1165l13 123q161 18 336 49l20 -32q-41 -68 -41 -359q0 -78 55 -78q25 0 52 15v225q0 39 -7.5 47t-42.5 10h-10l21 121l327 45l21 -33q-47 -72 -47 -395q0 -45 39 -45l41 8l24 -37q-10 -16 -26.5 -39.5t-63.5 -71.5t-90 -65q-152 0 -170 99l-16 10q-76 -106 -105 -107 q-266 1 -266 191l14 266q0 33 -9 44t-32 11z" />
<glyph horiz-adv-x="745" d="M2 1200l10 123q94 -2 158 -2l225 10l4 -8l-18 -131q-35 -8 -41 -12t-6 -23l41 -276h26q64 241 64 288q0 14 -4 17.5t-23 3.5h-18l-4 8l16 125q104 -2 162 -2l145 2l-12 -131q-33 -4 -42 -11t-17 -36l-142 -475l-333 -17q-88 387 -111 469q-20 68 -78 70z" />
<glyph horiz-adv-x="1150" d="M0 1200l12 123q92 -2 158 -2l225 10l4 -8l-18 -131q-37 -8 -42 -12t-5 -23l41 -276h24q0 6 18.5 79.5t35 143.5t14.5 74q2 10 0 11t-20 2q-15 -1 -25 -1l-6 10l16 123q90 -2 154 -2l217 10l2 -6l-17 -133q-37 -8 -43 -12t-6 -23l41 -276h27q65 235 65 288q0 14 -4 17.5 t-22 3.5h-19l-6 8l19 125q104 -2 161 -2l148 2l-14 -131q-33 -4 -42.5 -11t-17.5 -36l-141 -475l-318 -17q-20 127 -32 252h-27l-37 -235l-327 -17q-88 387 -113 469q-16 66 -76 70z" />
<glyph horiz-adv-x="784" d="M6 678l12 100q25 8 119 119l103 121l-80 100q-47 61 -135 78l-5 8l11 119q63 -2 194 -2l217 6l7 -10l-11 -111q-39 0 -39 -24q0 -23 27 -60l33 -37l39 58q20 37 20 45q0 23 -37 22l-2 4l8 107h160l144 4l4 -8l-7 -115q-98 -63 -124 -102l-99 -144l78 -92q68 -80 131 -84 l6 -4l-16 -108q-111 2 -150 2l-254 -6l-8 6l15 104q41 0 41 19q0 6 -11 22l-57 72q-49 -63 -49 -82q0 -31 39 -31l6 -12l-12 -98q-133 6 -168 6l-144 -6z" />
<glyph horiz-adv-x="735" d="M-41 496l16 28q211 35 297 117q-168 422 -209 498q-29 45 -69 51l-2 6l12 125h98q279 0 279 10l2 -8l-16 -131q-29 -2 -38.5 -8t-9.5 -22.5t14.5 -75t28.5 -108.5l15 -50h26q78 205 78 241q0 14 -4 16.5t-22 2.5h-17l-6 10l17 125q100 -2 159 -2h146l-15 -131 q-29 -8 -40 -16.5t-21 -32.5l-178 -432q-63 -164 -169 -267.5t-202 -103.5q-35 0 -102.5 62.5t-67.5 95.5z" />
<glyph horiz-adv-x="684" d="M16 721l320 463l-62 -10q-82 -8 -105.5 -30t-27.5 -87l-96 -6q12 176 14 270l13 10l186 -10h373l26 -57q-182 -250 -317 -455l68 12q68 10 98.5 45t40.5 109l98 8q-23 -190 -22 -297l-23 -20l-457 4l-86 -11z" />
<glyph horiz-adv-x="1603" d="M205 43v866q0 164 164 164h866q164 0 164 -164v-866q0 -164 -164 -164h-866q-164 0 -164 164zM391 190h152v369q0 25 49 25q88 0 88 -115v-279h151v365q0 66 -44.5 108t-114.5 42l-99 -58q-12 -8 -18 -8q-12 0 -12 18v238h-152v-705zM891 618h53q20 0 21 -20v-270 q0 -66 45 -108t114 -42l129 76v51q-25 -8 -53 -8q-84 0 -84 117v184q0 20 21 20h118v74h-118q-20 0 -21 21v57h-43l-182 -115v-37z" />
<glyph horiz-adv-x="966" d="M0 0v967h967v-967h-967z" />
<glyph horiz-adv-x="1325" d="M0 0v1325h1325v-1325h-1325z" />
<glyph horiz-adv-x="659" d="M31 -6l14 147q68 14 87.5 38t19.5 91v529q0 49 -12.5 64.5t-47.5 15.5h-41l-16 24l14 129h283l305 6l-12 -155q-57 -8 -74 -22.5t-21 -59.5q-16 -213 -16 -541q0 -66 10.5 -87t42.5 -21l49 4l15 -19l-15 -143q-221 6 -292 6zM137 1298q0 98 56.5 155.5t152.5 57.5 q90 0 140.5 -51t50.5 -143q0 -98 -55.5 -155.5t-151.5 -57.5q-94 0 -143.5 50t-49.5 144z" />
</font>
</defs>
</svg>
